<svg xmlns="http://www.w3.org/2000/svg" viewBox="0 0 900 400.0">
<style type="text/css">
svg {
	font-family: sans-serif;
	font-size: 10px;
}
svg.palette rect {
	stroke: #000;
	stroke-width: 1px;
}
svg.palette text.hex {
	font-size: 80%;
	font-family: monospace;
}
svg.palette text.label {
	dominant-baseline: text-bottom;
}
.dark text {
	fill: #ccc;
}
.light text {
	fill: #222;
}
</style>
<svg x="4" y="4" width="92" height="42.0" class="palette dark">
<rect x="0" y="0" width="100%" height="100%" fill="#380d1f"/>
<text x="100%" y="1.2em" text-anchor="end" class="hex"><tspan dx="-0.5em" dy="0.5em">#380d1f</tspan></text>
<text x="0" y="100%" text-anchor="start" class="label"><tspan dy="-0.5em" dx="0.5em">Midnight raspberry</tspan></text>
</svg>
<svg x="104" y="4" width="92" height="42.0" class="palette dark">
<rect x="0" y="0" width="100%" height="100%" fill="#381102"/>
<text x="100%" y="1.2em" text-anchor="end" class="hex"><tspan dx="-0.5em" dy="0.5em">#381102</tspan></text>
<text x="0" y="100%" text-anchor="start" class="label"><tspan dy="-0.5em" dx="0.5em">Midnight pumpkin</tspan></text>
</svg>
<svg x="204" y="4" width="92" height="42.0" class="palette dark">
<rect x="0" y="0" width="100%" height="100%" fill="#2d1e00"/>
<text x="100%" y="1.2em" text-anchor="end" class="hex"><tspan dx="-0.5em" dy="0.5em">#2d1e00</tspan></text>
<text x="0" y="100%" text-anchor="start" class="label"><tspan dy="-0.5em" dx="0.5em">Midnight gold</tspan></text>
</svg>
<svg x="304" y="4" width="92" height="42.0" class="palette dark">
<rect x="0" y="0" width="100%" height="100%" fill="#0d2706"/>
<text x="100%" y="1.2em" text-anchor="end" class="hex"><tspan dx="-0.5em" dy="0.5em">#0d2706</tspan></text>
<text x="0" y="100%" text-anchor="start" class="label"><tspan dy="-0.5em" dx="0.5em">Midnight lime</tspan></text>
</svg>
<svg x="404" y="4" width="92" height="42.0" class="palette dark">
<rect x="0" y="0" width="100%" height="100%" fill="#002b1f"/>
<text x="100%" y="1.2em" text-anchor="end" class="hex"><tspan dx="-0.5em" dy="0.5em">#002b1f</tspan></text>
<text x="0" y="100%" text-anchor="start" class="label"><tspan dy="-0.5em" dx="0.5em">Midnight mint</tspan></text>
</svg>
<svg x="504" y="4" width="92" height="42.0" class="palette dark">
<rect x="0" y="0" width="100%" height="100%" fill="#002535"/>
<text x="100%" y="1.2em" text-anchor="end" class="hex"><tspan dx="-0.5em" dy="0.5em">#002535</tspan></text>
<text x="0" y="100%" text-anchor="start" class="label"><tspan dy="-0.5em" dx="0.5em">Midnight sky</tspan></text>
</svg>
<svg x="604" y="4" width="92" height="42.0" class="palette dark">
<rect x="0" y="0" width="100%" height="100%" fill="#171a41"/>
<text x="100%" y="1.2em" text-anchor="end" class="hex"><tspan dx="-0.5em" dy="0.5em">#171a41</tspan></text>
<text x="0" y="100%" text-anchor="start" class="label"><tspan dy="-0.5em" dx="0.5em">Midnight bilberry</tspan></text>
</svg>
<svg x="704" y="4" width="92" height="42.0" class="palette dark">
<rect x="0" y="0" width="100%" height="100%" fill="#2f1139"/>
<text x="100%" y="1.2em" text-anchor="end" class="hex"><tspan dx="-0.5em" dy="0.5em">#2f1139</tspan></text>
<text x="0" y="100%" text-anchor="start" class="label"><tspan dy="-0.5em" dx="0.5em">Midnight lilac</tspan></text>
</svg>
<svg x="804" y="4" width="92" height="42.0" class="palette dark">
<rect x="0" y="0" width="100%" height="100%" fill="#000000"/>
<text x="100%" y="1.2em" text-anchor="end" class="hex"><tspan dx="-0.5em" dy="0.5em">#000000</tspan></text>
<text x="0" y="100%" text-anchor="start" class="label"><tspan dy="-0.5em" dx="0.5em">Black</tspan></text>
</svg>
<svg x="4" y="54.0" width="92" height="42.0" class="palette dark">
<rect x="0" y="0" width="100%" height="100%" fill="#6d0035"/>
<text x="100%" y="1.2em" text-anchor="end" class="hex"><tspan dx="-0.5em" dy="0.5em">#6d0035</tspan></text>
<text x="0" y="100%" text-anchor="start" class="label"><tspan dy="-0.5em" dx="0.5em">Dark raspberry</tspan></text>
</svg>
<svg x="104" y="54.0" width="92" height="42.0" class="palette dark">
<rect x="0" y="0" width="100%" height="100%" fill="#680f00"/>
<text x="100%" y="1.2em" text-anchor="end" class="hex"><tspan dx="-0.5em" dy="0.5em">#680f00</tspan></text>
<text x="0" y="100%" text-anchor="start" class="label"><tspan dy="-0.5em" dx="0.5em">Dark pumpkin</tspan></text>
</svg>
<svg x="204" y="54.0" width="92" height="42.0" class="palette dark">
<rect x="0" y="0" width="100%" height="100%" fill="#543100"/>
<text x="100%" y="1.2em" text-anchor="end" class="hex"><tspan dx="-0.5em" dy="0.5em">#543100</tspan></text>
<text x="0" y="100%" text-anchor="start" class="label"><tspan dy="-0.5em" dx="0.5em">Dark gold</tspan></text>
</svg>
<svg x="304" y="54.0" width="92" height="42.0" class="palette dark">
<rect x="0" y="0" width="100%" height="100%" fill="#004700"/>
<text x="100%" y="1.2em" text-anchor="end" class="hex"><tspan dx="-0.5em" dy="0.5em">#004700</tspan></text>
<text x="0" y="100%" text-anchor="start" class="label"><tspan dy="-0.5em" dx="0.5em">Dark lime</tspan></text>
</svg>
<svg x="404" y="54.0" width="92" height="42.0" class="palette dark">
<rect x="0" y="0" width="100%" height="100%" fill="#005237"/>
<text x="100%" y="1.2em" text-anchor="end" class="hex"><tspan dx="-0.5em" dy="0.5em">#005237</tspan></text>
<text x="0" y="100%" text-anchor="start" class="label"><tspan dy="-0.5em" dx="0.5em">Dark mint</tspan></text>
</svg>
<svg x="504" y="54.0" width="92" height="42.0" class="palette dark">
<rect x="0" y="0" width="100%" height="100%" fill="#004673"/>
<text x="100%" y="1.2em" text-anchor="end" class="hex"><tspan dx="-0.5em" dy="0.5em">#004673</tspan></text>
<text x="0" y="100%" text-anchor="start" class="label"><tspan dy="-0.5em" dx="0.5em">Dark sky</tspan></text>
</svg>
<svg x="604" y="54.0" width="92" height="42.0" class="palette dark">
<rect x="0" y="0" width="100%" height="100%" fill="#2e14a2"/>
<text x="100%" y="1.2em" text-anchor="end" class="hex"><tspan dx="-0.5em" dy="0.5em">#2e14a2</tspan></text>
<text x="0" y="100%" text-anchor="start" class="label"><tspan dy="-0.5em" dx="0.5em">Dark bilberry</tspan></text>
</svg>
<svg x="704" y="54.0" width="92" height="42.0" class="palette dark">
<rect x="0" y="0" width="100%" height="100%" fill="#5f007f"/>
<text x="100%" y="1.2em" text-anchor="end" class="hex"><tspan dx="-0.5em" dy="0.5em">#5f007f</tspan></text>
<text x="0" y="100%" text-anchor="start" class="label"><tspan dy="-0.5em" dx="0.5em">Dark lilac</tspan></text>
</svg>
<svg x="804" y="54.0" width="92" height="42.0" class="palette dark">
<rect x="0" y="0" width="100%" height="100%" fill="#383636"/>
<text x="100%" y="1.2em" text-anchor="end" class="hex"><tspan dx="-0.5em" dy="0.5em">#383636</tspan></text>
<text x="0" y="100%" text-anchor="start" class="label"><tspan dy="-0.5em" dx="0.5em">Dark grey</tspan></text>
</svg>
<svg x="4" y="104.0" width="92" height="92" class="palette dark">
<rect x="0" y="0" width="100%" height="100%" fill="#c2286e"/>
<text x="100%" y="1.2em" text-anchor="end" class="hex"><tspan dx="-0.5em" dy="0.5em">#c2286e</tspan></text>
<text x="0" y="100%" text-anchor="start" class="label"><tspan dy="-0.5em" dx="0.5em">Raspberry</tspan></text>
</svg>
<svg x="104" y="104.0" width="92" height="92" class="palette dark">
<rect x="0" y="0" width="100%" height="100%" fill="#be4000"/>
<text x="100%" y="1.2em" text-anchor="end" class="hex"><tspan dx="-0.5em" dy="0.5em">#be4000</tspan></text>
<text x="0" y="100%" text-anchor="start" class="label"><tspan dy="-0.5em" dx="0.5em">Pumpkin</tspan></text>
</svg>
<svg x="204" y="104.0" width="92" height="92" class="palette light">
<rect x="0" y="0" width="100%" height="100%" fill="#9f6c00"/>
<text x="100%" y="1.2em" text-anchor="end" class="hex"><tspan dx="-0.5em" dy="0.5em">#9f6c00</tspan></text>
<text x="0" y="100%" text-anchor="start" class="label"><tspan dy="-0.5em" dx="0.5em">Gold</tspan></text>
</svg>
<svg x="304" y="104.0" width="92" height="92" class="palette light">
<rect x="0" y="0" width="100%" height="100%" fill="#2b8a11"/>
<text x="100%" y="1.2em" text-anchor="end" class="hex"><tspan dx="-0.5em" dy="0.5em">#2b8a11</tspan></text>
<text x="0" y="100%" text-anchor="start" class="label"><tspan dy="-0.5em" dx="0.5em">Lime</tspan></text>
</svg>
<svg x="404" y="104.0" width="92" height="92" class="palette dark">
<rect x="0" y="0" width="100%" height="100%" fill="#009771"/>
<text x="100%" y="1.2em" text-anchor="end" class="hex"><tspan dx="-0.5em" dy="0.5em">#009771</tspan></text>
<text x="0" y="100%" text-anchor="start" class="label"><tspan dy="-0.5em" dx="0.5em">Mint</tspan></text>
</svg>
<svg x="504" y="104.0" width="92" height="92" class="palette dark">
<rect x="0" y="0" width="100%" height="100%" fill="#0086be"/>
<text x="100%" y="1.2em" text-anchor="end" class="hex"><tspan dx="-0.5em" dy="0.5em">#0086be</tspan></text>
<text x="0" y="100%" text-anchor="start" class="label"><tspan dy="-0.5em" dx="0.5em">Sky</tspan></text>
</svg>
<svg x="604" y="104.0" width="92" height="92" class="palette dark">
<rect x="0" y="0" width="100%" height="100%" fill="#5957f1"/>
<text x="100%" y="1.2em" text-anchor="end" class="hex"><tspan dx="-0.5em" dy="0.5em">#5957f1</tspan></text>
<text x="0" y="100%" text-anchor="start" class="label"><tspan dy="-0.5em" dx="0.5em">Bilberry</tspan></text>
</svg>
<svg x="704" y="104.0" width="92" height="92" class="palette dark">
<rect x="0" y="0" width="100%" height="100%" fill="#a734cd"/>
<text x="100%" y="1.2em" text-anchor="end" class="hex"><tspan dx="-0.5em" dy="0.5em">#a734cd</tspan></text>
<text x="0" y="100%" text-anchor="start" class="label"><tspan dy="-0.5em" dx="0.5em">Lilac</tspan></text>
</svg>
<svg x="804" y="104.0" width="92" height="92" class="palette dark">
<rect x="0" y="0" width="100%" height="100%" fill="#727070"/>
<text x="100%" y="1.2em" text-anchor="end" class="hex"><tspan dx="-0.5em" dy="0.5em">#727070</tspan></text>
<text x="0" y="100%" text-anchor="start" class="label"><tspan dy="-0.5em" dx="0.5em">Medium grey</tspan></text>
</svg>
<svg x="4" y="204.0" width="92" height="42.0" class="palette light">
<rect x="0" y="0" width="100%" height="100%" fill="#ff00a8"/>
<text x="100%" y="1.2em" text-anchor="end" class="hex"><tspan dx="-0.5em" dy="0.5em">#ff00a8</tspan></text>
<text x="0" y="100%" text-anchor="start" class="label"><tspan dy="-0.5em" dx="0.5em">Vivid raspberry</tspan></text>
</svg>
<svg x="104" y="204.0" width="92" height="42.0" class="palette light">
<rect x="0" y="0" width="100%" height="100%" fill="#ff5d00"/>
<text x="100%" y="1.2em" text-anchor="end" class="hex"><tspan dx="-0.5em" dy="0.5em">#ff5d00</tspan></text>
<text x="0" y="100%" text-anchor="start" class="label"><tspan dy="-0.5em" dx="0.5em">Vivid pumpkin</tspan></text>
</svg>
<svg x="204" y="204.0" width="92" height="42.0" class="palette light">
<rect x="0" y="0" width="100%" height="100%" fill="#ffb900"/>
<text x="100%" y="1.2em" text-anchor="end" class="hex"><tspan dx="-0.5em" dy="0.5em">#ffb900</tspan></text>
<text x="0" y="100%" text-anchor="start" class="label"><tspan dy="-0.5em" dx="0.5em">Vivid gold</tspan></text>
</svg>
<svg x="304" y="204.0" width="92" height="42.0" class="palette light">
<rect x="0" y="0" width="100%" height="100%" fill="#00e000"/>
<text x="100%" y="1.2em" text-anchor="end" class="hex"><tspan dx="-0.5em" dy="0.5em">#00e000</tspan></text>
<text x="0" y="100%" text-anchor="start" class="label"><tspan dy="-0.5em" dx="0.5em">Vivid lime</tspan></text>
</svg>
<svg x="404" y="204.0" width="92" height="42.0" class="palette light">
<rect x="0" y="0" width="100%" height="100%" fill="#00fdb1"/>
<text x="100%" y="1.2em" text-anchor="end" class="hex"><tspan dx="-0.5em" dy="0.5em">#00fdb1</tspan></text>
<text x="0" y="100%" text-anchor="start" class="label"><tspan dy="-0.5em" dx="0.5em">Vivid mint</tspan></text>
</svg>
<svg x="504" y="204.0" width="92" height="42.0" class="palette light">
<rect x="0" y="0" width="100%" height="100%" fill="#00ddff"/>
<text x="100%" y="1.2em" text-anchor="end" class="hex"><tspan dx="-0.5em" dy="0.5em">#00ddff</tspan></text>
<text x="0" y="100%" text-anchor="start" class="label"><tspan dy="-0.5em" dx="0.5em">Vivid sky</tspan></text>
</svg>
<svg x="604" y="204.0" width="92" height="42.0" class="palette light">
<rect x="0" y="0" width="100%" height="100%" fill="#6c88ff"/>
<text x="100%" y="1.2em" text-anchor="end" class="hex"><tspan dx="-0.5em" dy="0.5em">#6c88ff</tspan></text>
<text x="0" y="100%" text-anchor="start" class="label"><tspan dy="-0.5em" dx="0.5em">Vivid bilberry</tspan></text>
</svg>
<svg x="704" y="204.0" width="92" height="42.0" class="palette light">
<rect x="0" y="0" width="100%" height="100%" fill="#df41ff"/>
<text x="100%" y="1.2em" text-anchor="end" class="hex"><tspan dx="-0.5em" dy="0.5em">#df41ff</tspan></text>
<text x="0" y="100%" text-anchor="start" class="label"><tspan dy="-0.5em" dx="0.5em">Vivid lilac</tspan></text>
</svg>
<svg x="804" y="204.0" width="92" height="42.0" class="palette light">
<rect x="0" y="0" width="100%" height="100%" fill="#b4b0b0"/>
<text x="100%" y="1.2em" text-anchor="end" class="hex"><tspan dx="-0.5em" dy="0.5em">#b4b0b0</tspan></text>
<text x="0" y="100%" text-anchor="start" class="label"><tspan dy="-0.5em" dx="0.5em">Light grey</tspan></text>
</svg>
<svg x="4" y="254.0" width="92" height="42.0" class="palette light">
<rect x="0" y="0" width="100%" height="100%" fill="#ffcef5"/>
<text x="100%" y="1.2em" text-anchor="end" class="hex"><tspan dx="-0.5em" dy="0.5em">#ffcef5</tspan></text>
<text x="0" y="100%" text-anchor="start" class="label"><tspan dy="-0.5em" dx="0.5em">Pastel raspberry</tspan></text>
</svg>
<svg x="104" y="254.0" width="92" height="42.0" class="palette light">
<rect x="0" y="0" width="100%" height="100%" fill="#ffd7a3"/>
<text x="100%" y="1.2em" text-anchor="end" class="hex"><tspan dx="-0.5em" dy="0.5em">#ffd7a3</tspan></text>
<text x="0" y="100%" text-anchor="start" class="label"><tspan dy="-0.5em" dx="0.5em">Pastel pumpkin</tspan></text>
</svg>
<svg x="204" y="254.0" width="92" height="42.0" class="palette light">
<rect x="0" y="0" width="100%" height="100%" fill="#fff481"/>
<text x="100%" y="1.2em" text-anchor="end" class="hex"><tspan dx="-0.5em" dy="0.5em">#fff481</tspan></text>
<text x="0" y="100%" text-anchor="start" class="label"><tspan dy="-0.5em" dx="0.5em">Pastel gold</tspan></text>
</svg>
<svg x="304" y="254.0" width="92" height="42.0" class="palette light">
<rect x="0" y="0" width="100%" height="100%" fill="#caffaf"/>
<text x="100%" y="1.2em" text-anchor="end" class="hex"><tspan dx="-0.5em" dy="0.5em">#caffaf</tspan></text>
<text x="0" y="100%" text-anchor="start" class="label"><tspan dy="-0.5em" dx="0.5em">Pastel lime</tspan></text>
</svg>
<svg x="404" y="254.0" width="92" height="42.0" class="palette light">
<rect x="0" y="0" width="100%" height="100%" fill="#93fff7"/>
<text x="100%" y="1.2em" text-anchor="end" class="hex"><tspan dx="-0.5em" dy="0.5em">#93fff7</tspan></text>
<text x="0" y="100%" text-anchor="start" class="label"><tspan dy="-0.5em" dx="0.5em">Pastel mint</tspan></text>
</svg>
<svg x="504" y="254.0" width="92" height="42.0" class="palette light">
<rect x="0" y="0" width="100%" height="100%" fill="#abffff"/>
<text x="100%" y="1.2em" text-anchor="end" class="hex"><tspan dx="-0.5em" dy="0.5em">#abffff</tspan></text>
<text x="0" y="100%" text-anchor="start" class="label"><tspan dy="-0.5em" dx="0.5em">Pastel sky</tspan></text>
</svg>
<svg x="604" y="254.0" width="92" height="42.0" class="palette light">
<rect x="0" y="0" width="100%" height="100%" fill="#e9f4ff"/>
<text x="100%" y="1.2em" text-anchor="end" class="hex"><tspan dx="-0.5em" dy="0.5em">#e9f4ff</tspan></text>
<text x="0" y="100%" text-anchor="start" class="label"><tspan dy="-0.5em" dx="0.5em">Pastel bilberry</tspan></text>
</svg>
<svg x="704" y="254.0" width="92" height="42.0" class="palette light">
<rect x="0" y="0" width="100%" height="100%" fill="#ffdcff"/>
<text x="100%" y="1.2em" text-anchor="end" class="hex"><tspan dx="-0.5em" dy="0.5em">#ffdcff</tspan></text>
<text x="0" y="100%" text-anchor="start" class="label"><tspan dy="-0.5em" dx="0.5em">Pastel lilac</tspan></text>
</svg>
<svg x="804" y="254.0" width="92" height="42.0" class="palette light">
<rect x="0" y="0" width="100%" height="100%" fill="#ffffff"/>
<text x="100%" y="1.2em" text-anchor="end" class="hex"><tspan dx="-0.5em" dy="0.5em">#ffffff</tspan></text>
<text x="0" y="100%" text-anchor="start" class="label"><tspan dy="-0.5em" dx="0.5em">White</tspan></text>
</svg>
<svg x="4" y="304.0" width="92" height="92" class="palette dark">
<rect x="0" y="0" width="100%" height="100%" fill="#002735"/>
<text x="100%" y="1.2em" text-anchor="end" class="hex"><tspan dx="-0.5em" dy="0.5em">#002735</tspan></text>
<text x="0" y="100%" text-anchor="start" class="label"><tspan dy="-0.5em" dx="0.5em">base03</tspan></text>
</svg>
<svg x="104" y="304.0" width="92" height="92" class="palette dark">
<rect x="0" y="0" width="100%" height="100%" fill="#003341"/>
<text x="100%" y="1.2em" text-anchor="end" class="hex"><tspan dx="-0.5em" dy="0.5em">#003341</tspan></text>
<text x="0" y="100%" text-anchor="start" class="label"><tspan dy="-0.5em" dx="0.5em">base02</tspan></text>
</svg>
<svg x="204" y="304.0" width="92" height="92" class="palette dark">
<rect x="0" y="0" width="100%" height="100%" fill="#4d6b74"/>
<text x="100%" y="1.2em" text-anchor="end" class="hex"><tspan dx="-0.5em" dy="0.5em">#4d6b74</tspan></text>
<text x="0" y="100%" text-anchor="start" class="label"><tspan dy="-0.5em" dx="0.5em">base01</tspan></text>
</svg>
<svg x="304" y="304.0" width="92" height="92" class="palette dark">
<rect x="0" y="0" width="100%" height="100%" fill="#5b777f"/>
<text x="100%" y="1.2em" text-anchor="end" class="hex"><tspan dx="-0.5em" dy="0.5em">#5b777f</tspan></text>
<text x="0" y="100%" text-anchor="start" class="label"><tspan dy="-0.5em" dx="0.5em">base00</tspan></text>
</svg>
<svg x="404" y="304.0" width="92" height="92" class="palette light">
<rect x="0" y="0" width="100%" height="100%" fill="#7e8d8e"/>
<text x="100%" y="1.2em" text-anchor="end" class="hex"><tspan dx="-0.5em" dy="0.5em">#7e8d8e</tspan></text>
<text x="0" y="100%" text-anchor="start" class="label"><tspan dy="-0.5em" dx="0.5em">base0</tspan></text>
</svg>
<svg x="504" y="304.0" width="92" height="92" class="palette light">
<rect x="0" y="0" width="100%" height="100%" fill="#8a9a9b"/>
<text x="100%" y="1.2em" text-anchor="end" class="hex"><tspan dx="-0.5em" dy="0.5em">#8a9a9b</tspan></text>
<text x="0" y="100%" text-anchor="start" class="label"><tspan dy="-0.5em" dx="0.5em">base1</tspan></text>
</svg>
<svg x="604" y="304.0" width="92" height="92" class="palette light">
<rect x="0" y="0" width="100%" height="100%" fill="#f5eddc"/>
<text x="100%" y="1.2em" text-anchor="end" class="hex"><tspan dx="-0.5em" dy="0.5em">#f5eddc</tspan></text>
<text x="0" y="100%" text-anchor="start" class="label"><tspan dy="-0.5em" dx="0.5em">base2</tspan></text>
</svg>
<svg x="704" y="304.0" width="92" height="92" class="palette light">
<rect x="0" y="0" width="100%" height="100%" fill="#fff7e6"/>
<text x="100%" y="1.2em" text-anchor="end" class="hex"><tspan dx="-0.5em" dy="0.5em">#fff7e6</tspan></text>
<text x="0" y="100%" text-anchor="start" class="label"><tspan dy="-0.5em" dx="0.5em">base3</tspan></text>
</svg>
<svg x="804" y="304.0" width="92" height="92" class="palette light">
<rect x="0" y="0" width="100%" height="100%" fill="#ffffff"/>
<text x="100%" y="1.2em" text-anchor="end" class="hex"><tspan dx="-0.5em" dy="0.5em">#ffffff</tspan></text>
<text x="0" y="100%" text-anchor="start" class="label"><tspan dy="-0.5em" dx="0.5em">White</tspan></text>
</svg>
</svg>