<svg xmlns="http://www.w3.org/2000/svg" viewBox="0 0 900 400.0">
<style type="text/css">
svg {
	font-family: sans-serif;
	font-size: 10px;
}
svg.palette rect {
	stroke: #000;
	stroke-width: 1px;
}
svg.palette text.hex {
	font-size: 80%;
	font-family: monospace;
}
svg.palette text.label {
	dominant-baseline: text-bottom;
}
.dark text {
	fill: #ccc;
}
.light text {
	fill: #222;
}
</style>
<svg x="4" y="4" width="92" height="42.0" class="palette dark">
<rect x="0" y="0" width="100%" height="100%" fill="#38001c"/>
<text x="100%" y="1.2em" text-anchor="end" class="hex"><tspan dx="-0.5em" dy="0.5em">#38001c</tspan></text>
<text x="0" y="100%" text-anchor="start" class="label"><tspan dy="-0.5em" dx="0.5em">Midnight raspberry</tspan></text>
</svg>
<svg x="104" y="4" width="92" height="42.0" class="palette dark">
<rect x="0" y="0" width="100%" height="100%" fill="#370900"/>
<text x="100%" y="1.2em" text-anchor="end" class="hex"><tspan dx="-0.5em" dy="0.5em">#370900</tspan></text>
<text x="0" y="100%" text-anchor="start" class="label"><tspan dy="-0.5em" dx="0.5em">Midnight pumpkin</tspan></text>
</svg>
<svg x="204" y="4" width="92" height="42.0" class="palette dark">
<rect x="0" y="0" width="100%" height="100%" fill="#281d00"/>
<text x="100%" y="1.2em" text-anchor="end" class="hex"><tspan dx="-0.5em" dy="0.5em">#281d00</tspan></text>
<text x="0" y="100%" text-anchor="start" class="label"><tspan dy="-0.5em" dx="0.5em">Midnight gold</tspan></text>
</svg>
<svg x="304" y="4" width="92" height="42.0" class="palette dark">
<rect x="0" y="0" width="100%" height="100%" fill="#002a00"/>
<text x="100%" y="1.2em" text-anchor="end" class="hex"><tspan dx="-0.5em" dy="0.5em">#002a00</tspan></text>
<text x="0" y="100%" text-anchor="start" class="label"><tspan dy="-0.5em" dx="0.5em">Midnight lime</tspan></text>
</svg>
<svg x="404" y="4" width="92" height="42.0" class="palette dark">
<rect x="0" y="0" width="100%" height="100%" fill="#002d1f"/>
<text x="100%" y="1.2em" text-anchor="end" class="hex"><tspan dx="-0.5em" dy="0.5em">#002d1f</tspan></text>
<text x="0" y="100%" text-anchor="start" class="label"><tspan dy="-0.5em" dx="0.5em">Midnight mint</tspan></text>
</svg>
<svg x="504" y="4" width="92" height="42.0" class="palette dark">
<rect x="0" y="0" width="100%" height="100%" fill="#002635"/>
<text x="100%" y="1.2em" text-anchor="end" class="hex"><tspan dx="-0.5em" dy="0.5em">#002635</tspan></text>
<text x="0" y="100%" text-anchor="start" class="label"><tspan dy="-0.5em" dx="0.5em">Midnight sky</tspan></text>
</svg>
<svg x="604" y="4" width="92" height="42.0" class="palette dark">
<rect x="0" y="0" width="100%" height="100%" fill="#15153c"/>
<text x="100%" y="1.2em" text-anchor="end" class="hex"><tspan dx="-0.5em" dy="0.5em">#15153c</tspan></text>
<text x="0" y="100%" text-anchor="start" class="label"><tspan dy="-0.5em" dx="0.5em">Midnight bilberry</tspan></text>
</svg>
<svg x="704" y="4" width="92" height="42.0" class="palette dark">
<rect x="0" y="0" width="100%" height="100%" fill="#2e0231"/>
<text x="100%" y="1.2em" text-anchor="end" class="hex"><tspan dx="-0.5em" dy="0.5em">#2e0231</tspan></text>
<text x="0" y="100%" text-anchor="start" class="label"><tspan dy="-0.5em" dx="0.5em">Midnight lilac</tspan></text>
</svg>
<svg x="804" y="4" width="92" height="42.0" class="palette dark">
<rect x="0" y="0" width="100%" height="100%" fill="#000000"/>
<text x="100%" y="1.2em" text-anchor="end" class="hex"><tspan dx="-0.5em" dy="0.5em">#000000</tspan></text>
<text x="0" y="100%" text-anchor="start" class="label"><tspan dy="-0.5em" dx="0.5em">Black</tspan></text>
</svg>
<svg x="4" y="54.0" width="92" height="42.0" class="palette dark">
<rect x="0" y="0" width="100%" height="100%" fill="#620031"/>
<text x="100%" y="1.2em" text-anchor="end" class="hex"><tspan dx="-0.5em" dy="0.5em">#620031</tspan></text>
<text x="0" y="100%" text-anchor="start" class="label"><tspan dy="-0.5em" dx="0.5em">Dark raspberry</tspan></text>
</svg>
<svg x="104" y="54.0" width="92" height="42.0" class="palette dark">
<rect x="0" y="0" width="100%" height="100%" fill="#600000"/>
<text x="100%" y="1.2em" text-anchor="end" class="hex"><tspan dx="-0.5em" dy="0.5em">#600000</tspan></text>
<text x="0" y="100%" text-anchor="start" class="label"><tspan dy="-0.5em" dx="0.5em">Dark pumpkin</tspan></text>
</svg>
<svg x="204" y="54.0" width="92" height="42.0" class="palette dark">
<rect x="0" y="0" width="100%" height="100%" fill="#473000"/>
<text x="100%" y="1.2em" text-anchor="end" class="hex"><tspan dx="-0.5em" dy="0.5em">#473000</tspan></text>
<text x="0" y="100%" text-anchor="start" class="label"><tspan dy="-0.5em" dx="0.5em">Dark gold</tspan></text>
</svg>
<svg x="304" y="54.0" width="92" height="42.0" class="palette dark">
<rect x="0" y="0" width="100%" height="100%" fill="#004900"/>
<text x="100%" y="1.2em" text-anchor="end" class="hex"><tspan dx="-0.5em" dy="0.5em">#004900</tspan></text>
<text x="0" y="100%" text-anchor="start" class="label"><tspan dy="-0.5em" dx="0.5em">Dark lime</tspan></text>
</svg>
<svg x="404" y="54.0" width="92" height="42.0" class="palette dark">
<rect x="0" y="0" width="100%" height="100%" fill="#005036"/>
<text x="100%" y="1.2em" text-anchor="end" class="hex"><tspan dx="-0.5em" dy="0.5em">#005036</tspan></text>
<text x="0" y="100%" text-anchor="start" class="label"><tspan dy="-0.5em" dx="0.5em">Dark mint</tspan></text>
</svg>
<svg x="504" y="54.0" width="92" height="42.0" class="palette dark">
<rect x="0" y="0" width="100%" height="100%" fill="#004160"/>
<text x="100%" y="1.2em" text-anchor="end" class="hex"><tspan dx="-0.5em" dy="0.5em">#004160</tspan></text>
<text x="0" y="100%" text-anchor="start" class="label"><tspan dy="-0.5em" dx="0.5em">Dark sky</tspan></text>
</svg>
<svg x="604" y="54.0" width="92" height="42.0" class="palette dark">
<rect x="0" y="0" width="100%" height="100%" fill="#271c6e"/>
<text x="100%" y="1.2em" text-anchor="end" class="hex"><tspan dx="-0.5em" dy="0.5em">#271c6e</tspan></text>
<text x="0" y="100%" text-anchor="start" class="label"><tspan dy="-0.5em" dx="0.5em">Dark bilberry</tspan></text>
</svg>
<svg x="704" y="54.0" width="92" height="42.0" class="palette dark">
<rect x="0" y="0" width="100%" height="100%" fill="#510059"/>
<text x="100%" y="1.2em" text-anchor="end" class="hex"><tspan dx="-0.5em" dy="0.5em">#510059</tspan></text>
<text x="0" y="100%" text-anchor="start" class="label"><tspan dy="-0.5em" dx="0.5em">Dark lilac</tspan></text>
</svg>
<svg x="804" y="54.0" width="92" height="42.0" class="palette dark">
<rect x="0" y="0" width="100%" height="100%" fill="#383636"/>
<text x="100%" y="1.2em" text-anchor="end" class="hex"><tspan dx="-0.5em" dy="0.5em">#383636</tspan></text>
<text x="0" y="100%" text-anchor="start" class="label"><tspan dy="-0.5em" dx="0.5em">Dark grey</tspan></text>
</svg>
<svg x="4" y="104.0" width="92" height="92" class="palette dark">
<rect x="0" y="0" width="100%" height="100%" fill="#ad1b68"/>
<text x="100%" y="1.2em" text-anchor="end" class="hex"><tspan dx="-0.5em" dy="0.5em">#ad1b68</tspan></text>
<text x="0" y="100%" text-anchor="start" class="label"><tspan dy="-0.5em" dx="0.5em">Raspberry</tspan></text>
</svg>
<svg x="104" y="104.0" width="92" height="92" class="palette dark">
<rect x="0" y="0" width="100%" height="100%" fill="#aa3d28"/>
<text x="100%" y="1.2em" text-anchor="end" class="hex"><tspan dx="-0.5em" dy="0.5em">#aa3d28</tspan></text>
<text x="0" y="100%" text-anchor="start" class="label"><tspan dy="-0.5em" dx="0.5em">Pumpkin</tspan></text>
</svg>
<svg x="204" y="104.0" width="92" height="92" class="palette dark">
<rect x="0" y="0" width="100%" height="100%" fill="#846900"/>
<text x="100%" y="1.2em" text-anchor="end" class="hex"><tspan dx="-0.5em" dy="0.5em">#846900</tspan></text>
<text x="0" y="100%" text-anchor="start" class="label"><tspan dy="-0.5em" dx="0.5em">Gold</tspan></text>
</svg>
<svg x="304" y="104.0" width="92" height="92" class="palette light">
<rect x="0" y="0" width="100%" height="100%" fill="#188925"/>
<text x="100%" y="1.2em" text-anchor="end" class="hex"><tspan dx="-0.5em" dy="0.5em">#188925</tspan></text>
<text x="0" y="100%" text-anchor="start" class="label"><tspan dy="-0.5em" dx="0.5em">Lime</tspan></text>
</svg>
<svg x="404" y="104.0" width="92" height="92" class="palette light">
<rect x="0" y="0" width="100%" height="100%" fill="#00936e"/>
<text x="100%" y="1.2em" text-anchor="end" class="hex"><tspan dx="-0.5em" dy="0.5em">#00936e</tspan></text>
<text x="0" y="100%" text-anchor="start" class="label"><tspan dy="-0.5em" dx="0.5em">Mint</tspan></text>
</svg>
<svg x="504" y="104.0" width="92" height="92" class="palette dark">
<rect x="0" y="0" width="100%" height="100%" fill="#007fa7"/>
<text x="100%" y="1.2em" text-anchor="end" class="hex"><tspan dx="-0.5em" dy="0.5em">#007fa7</tspan></text>
<text x="0" y="100%" text-anchor="start" class="label"><tspan dy="-0.5em" dx="0.5em">Sky</tspan></text>
</svg>
<svg x="604" y="104.0" width="92" height="92" class="palette dark">
<rect x="0" y="0" width="100%" height="100%" fill="#5954ba"/>
<text x="100%" y="1.2em" text-anchor="end" class="hex"><tspan dx="-0.5em" dy="0.5em">#5954ba</tspan></text>
<text x="0" y="100%" text-anchor="start" class="label"><tspan dy="-0.5em" dx="0.5em">Bilberry</tspan></text>
</svg>
<svg x="704" y="104.0" width="92" height="92" class="palette dark">
<rect x="0" y="0" width="100%" height="100%" fill="#942a9e"/>
<text x="100%" y="1.2em" text-anchor="end" class="hex"><tspan dx="-0.5em" dy="0.5em">#942a9e</tspan></text>
<text x="0" y="100%" text-anchor="start" class="label"><tspan dy="-0.5em" dx="0.5em">Lilac</tspan></text>
</svg>
<svg x="804" y="104.0" width="92" height="92" class="palette dark">
<rect x="0" y="0" width="100%" height="100%" fill="#727070"/>
<text x="100%" y="1.2em" text-anchor="end" class="hex"><tspan dx="-0.5em" dy="0.5em">#727070</tspan></text>
<text x="0" y="100%" text-anchor="start" class="label"><tspan dy="-0.5em" dx="0.5em">Medium grey</tspan></text>
</svg>
<svg x="4" y="204.0" width="92" height="42.0" class="palette light">
<rect x="0" y="0" width="100%" height="100%" fill="#dc1884"/>
<text x="100%" y="1.2em" text-anchor="end" class="hex"><tspan dx="-0.5em" dy="0.5em">#dc1884</tspan></text>
<text x="0" y="100%" text-anchor="start" class="label"><tspan dy="-0.5em" dx="0.5em">Vivid raspberry</tspan></text>
</svg>
<svg x="104" y="204.0" width="92" height="42.0" class="palette light">
<rect x="0" y="0" width="100%" height="100%" fill="#df3e25"/>
<text x="100%" y="1.2em" text-anchor="end" class="hex"><tspan dx="-0.5em" dy="0.5em">#df3e25</tspan></text>
<text x="0" y="100%" text-anchor="start" class="label"><tspan dy="-0.5em" dx="0.5em">Vivid pumpkin</tspan></text>
</svg>
<svg x="204" y="204.0" width="92" height="42.0" class="palette light">
<rect x="0" y="0" width="100%" height="100%" fill="#c29000"/>
<text x="100%" y="1.2em" text-anchor="end" class="hex"><tspan dx="-0.5em" dy="0.5em">#c29000</tspan></text>
<text x="0" y="100%" text-anchor="start" class="label"><tspan dy="-0.5em" dx="0.5em">Vivid gold</tspan></text>
</svg>
<svg x="304" y="204.0" width="92" height="42.0" class="palette light">
<rect x="0" y="0" width="100%" height="100%" fill="#00b023"/>
<text x="100%" y="1.2em" text-anchor="end" class="hex"><tspan dx="-0.5em" dy="0.5em">#00b023</tspan></text>
<text x="0" y="100%" text-anchor="start" class="label"><tspan dy="-0.5em" dx="0.5em">Vivid lime</tspan></text>
</svg>
<svg x="404" y="204.0" width="92" height="42.0" class="palette light">
<rect x="0" y="0" width="100%" height="100%" fill="#00bd8c"/>
<text x="100%" y="1.2em" text-anchor="end" class="hex"><tspan dx="-0.5em" dy="0.5em">#00bd8c</tspan></text>
<text x="0" y="100%" text-anchor="start" class="label"><tspan dy="-0.5em" dx="0.5em">Vivid mint</tspan></text>
</svg>
<svg x="504" y="204.0" width="92" height="42.0" class="palette light">
<rect x="0" y="0" width="100%" height="100%" fill="#00a2da"/>
<text x="100%" y="1.2em" text-anchor="end" class="hex"><tspan dx="-0.5em" dy="0.5em">#00a2da</tspan></text>
<text x="0" y="100%" text-anchor="start" class="label"><tspan dy="-0.5em" dx="0.5em">Vivid sky</tspan></text>
</svg>
<svg x="604" y="204.0" width="92" height="42.0" class="palette light">
<rect x="0" y="0" width="100%" height="100%" fill="#7164f5"/>
<text x="100%" y="1.2em" text-anchor="end" class="hex"><tspan dx="-0.5em" dy="0.5em">#7164f5</tspan></text>
<text x="0" y="100%" text-anchor="start" class="label"><tspan dy="-0.5em" dx="0.5em">Vivid bilberry</tspan></text>
</svg>
<svg x="704" y="204.0" width="92" height="42.0" class="palette light">
<rect x="0" y="0" width="100%" height="100%" fill="#bf20cd"/>
<text x="100%" y="1.2em" text-anchor="end" class="hex"><tspan dx="-0.5em" dy="0.5em">#bf20cd</tspan></text>
<text x="0" y="100%" text-anchor="start" class="label"><tspan dy="-0.5em" dx="0.5em">Vivid lilac</tspan></text>
</svg>
<svg x="804" y="204.0" width="92" height="42.0" class="palette light">
<rect x="0" y="0" width="100%" height="100%" fill="#b4b0b0"/>
<text x="100%" y="1.2em" text-anchor="end" class="hex"><tspan dx="-0.5em" dy="0.5em">#b4b0b0</tspan></text>
<text x="0" y="100%" text-anchor="start" class="label"><tspan dy="-0.5em" dx="0.5em">Light grey</tspan></text>
</svg>
<svg x="4" y="254.0" width="92" height="42.0" class="palette light">
<rect x="0" y="0" width="100%" height="100%" fill="#e0bdc9"/>
<text x="100%" y="1.2em" text-anchor="end" class="hex"><tspan dx="-0.5em" dy="0.5em">#e0bdc9</tspan></text>
<text x="0" y="100%" text-anchor="start" class="label"><tspan dy="-0.5em" dx="0.5em">Pastel raspberry</tspan></text>
</svg>
<svg x="104" y="254.0" width="92" height="42.0" class="palette light">
<rect x="0" y="0" width="100%" height="100%" fill="#dec2bb"/>
<text x="100%" y="1.2em" text-anchor="end" class="hex"><tspan dx="-0.5em" dy="0.5em">#dec2bb</tspan></text>
<text x="0" y="100%" text-anchor="start" class="label"><tspan dy="-0.5em" dx="0.5em">Pastel pumpkin</tspan></text>
</svg>
<svg x="204" y="254.0" width="92" height="42.0" class="palette light">
<rect x="0" y="0" width="100%" height="100%" fill="#d0cbb5"/>
<text x="100%" y="1.2em" text-anchor="end" class="hex"><tspan dx="-0.5em" dy="0.5em">#d0cbb5</tspan></text>
<text x="0" y="100%" text-anchor="start" class="label"><tspan dy="-0.5em" dx="0.5em">Pastel gold</tspan></text>
</svg>
<svg x="304" y="254.0" width="92" height="42.0" class="palette light">
<rect x="0" y="0" width="100%" height="100%" fill="#bdd4bc"/>
<text x="100%" y="1.2em" text-anchor="end" class="hex"><tspan dx="-0.5em" dy="0.5em">#bdd4bc</tspan></text>
<text x="0" y="100%" text-anchor="start" class="label"><tspan dy="-0.5em" dx="0.5em">Pastel lime</tspan></text>
</svg>
<svg x="404" y="254.0" width="92" height="42.0" class="palette light">
<rect x="0" y="0" width="100%" height="100%" fill="#b0d6cb"/>
<text x="100%" y="1.2em" text-anchor="end" class="hex"><tspan dx="-0.5em" dy="0.5em">#b0d6cb</tspan></text>
<text x="0" y="100%" text-anchor="start" class="label"><tspan dy="-0.5em" dx="0.5em">Pastel mint</tspan></text>
</svg>
<svg x="504" y="254.0" width="92" height="42.0" class="palette light">
<rect x="0" y="0" width="100%" height="100%" fill="#b3d1d9"/>
<text x="100%" y="1.2em" text-anchor="end" class="hex"><tspan dx="-0.5em" dy="0.5em">#b3d1d9</tspan></text>
<text x="0" y="100%" text-anchor="start" class="label"><tspan dy="-0.5em" dx="0.5em">Pastel sky</tspan></text>
</svg>
<svg x="604" y="254.0" width="92" height="42.0" class="palette light">
<rect x="0" y="0" width="100%" height="100%" fill="#c4c8df"/>
<text x="100%" y="1.2em" text-anchor="end" class="hex"><tspan dx="-0.5em" dy="0.5em">#c4c8df</tspan></text>
<text x="0" y="100%" text-anchor="start" class="label"><tspan dy="-0.5em" dx="0.5em">Pastel bilberry</tspan></text>
</svg>
<svg x="704" y="254.0" width="92" height="42.0" class="palette light">
<rect x="0" y="0" width="100%" height="100%" fill="#d6c0d8"/>
<text x="100%" y="1.2em" text-anchor="end" class="hex"><tspan dx="-0.5em" dy="0.5em">#d6c0d8</tspan></text>
<text x="0" y="100%" text-anchor="start" class="label"><tspan dy="-0.5em" dx="0.5em">Pastel lilac</tspan></text>
</svg>
<svg x="804" y="254.0" width="92" height="42.0" class="palette light">
<rect x="0" y="0" width="100%" height="100%" fill="#ffffff"/>
<text x="100%" y="1.2em" text-anchor="end" class="hex"><tspan dx="-0.5em" dy="0.5em">#ffffff</tspan></text>
<text x="0" y="100%" text-anchor="start" class="label"><tspan dy="-0.5em" dx="0.5em">White</tspan></text>
</svg>
<svg x="4" y="304.0" width="92" height="92" class="palette dark">
<rect x="0" y="0" width="100%" height="100%" fill="#002735"/>
<text x="100%" y="1.2em" text-anchor="end" class="hex"><tspan dx="-0.5em" dy="0.5em">#002735</tspan></text>
<text x="0" y="100%" text-anchor="start" class="label"><tspan dy="-0.5em" dx="0.5em">base03</tspan></text>
</svg>
<svg x="104" y="304.0" width="92" height="92" class="palette dark">
<rect x="0" y="0" width="100%" height="100%" fill="#003341"/>
<text x="100%" y="1.2em" text-anchor="end" class="hex"><tspan dx="-0.5em" dy="0.5em">#003341</tspan></text>
<text x="0" y="100%" text-anchor="start" class="label"><tspan dy="-0.5em" dx="0.5em">base02</tspan></text>
</svg>
<svg x="204" y="304.0" width="92" height="92" class="palette dark">
<rect x="0" y="0" width="100%" height="100%" fill="#4d6b74"/>
<text x="100%" y="1.2em" text-anchor="end" class="hex"><tspan dx="-0.5em" dy="0.5em">#4d6b74</tspan></text>
<text x="0" y="100%" text-anchor="start" class="label"><tspan dy="-0.5em" dx="0.5em">base01</tspan></text>
</svg>
<svg x="304" y="304.0" width="92" height="92" class="palette dark">
<rect x="0" y="0" width="100%" height="100%" fill="#5b777f"/>
<text x="100%" y="1.2em" text-anchor="end" class="hex"><tspan dx="-0.5em" dy="0.5em">#5b777f</tspan></text>
<text x="0" y="100%" text-anchor="start" class="label"><tspan dy="-0.5em" dx="0.5em">base00</tspan></text>
</svg>
<svg x="404" y="304.0" width="92" height="92" class="palette light">
<rect x="0" y="0" width="100%" height="100%" fill="#7e8d8e"/>
<text x="100%" y="1.2em" text-anchor="end" class="hex"><tspan dx="-0.5em" dy="0.5em">#7e8d8e</tspan></text>
<text x="0" y="100%" text-anchor="start" class="label"><tspan dy="-0.5em" dx="0.5em">base0</tspan></text>
</svg>
<svg x="504" y="304.0" width="92" height="92" class="palette light">
<rect x="0" y="0" width="100%" height="100%" fill="#8a9a9b"/>
<text x="100%" y="1.2em" text-anchor="end" class="hex"><tspan dx="-0.5em" dy="0.5em">#8a9a9b</tspan></text>
<text x="0" y="100%" text-anchor="start" class="label"><tspan dy="-0.5em" dx="0.5em">base1</tspan></text>
</svg>
<svg x="604" y="304.0" width="92" height="92" class="palette light">
<rect x="0" y="0" width="100%" height="100%" fill="#f5eddc"/>
<text x="100%" y="1.2em" text-anchor="end" class="hex"><tspan dx="-0.5em" dy="0.5em">#f5eddc</tspan></text>
<text x="0" y="100%" text-anchor="start" class="label"><tspan dy="-0.5em" dx="0.5em">base2</tspan></text>
</svg>
<svg x="704" y="304.0" width="92" height="92" class="palette light">
<rect x="0" y="0" width="100%" height="100%" fill="#fff7e6"/>
<text x="100%" y="1.2em" text-anchor="end" class="hex"><tspan dx="-0.5em" dy="0.5em">#fff7e6</tspan></text>
<text x="0" y="100%" text-anchor="start" class="label"><tspan dy="-0.5em" dx="0.5em">base3</tspan></text>
</svg>
<svg x="804" y="304.0" width="92" height="92" class="palette light">
<rect x="0" y="0" width="100%" height="100%" fill="#ffffff"/>
<text x="100%" y="1.2em" text-anchor="end" class="hex"><tspan dx="-0.5em" dy="0.5em">#ffffff</tspan></text>
<text x="0" y="100%" text-anchor="start" class="label"><tspan dy="-0.5em" dx="0.5em">White</tspan></text>
</svg>
</svg>