<svg xmlns="http://www.w3.org/2000/svg" viewBox="0 0 900 400.0">
<style type="text/css">
svg {
	font-family: sans-serif;
	font-size: 10px;
}
svg.palette rect {
	stroke: #000;
	stroke-width: 1px;
}
svg.palette text.hex {
	font-size: 80%;
	font-family: monospace;
}
svg.palette text.label {
	dominant-baseline: text-bottom;
}
.dark text {
	fill: #ccc;
}
.light text {
	fill: #222;
}
</style>
<svg x="4" y="4" width="92" height="42.0" class="palette dark">
<rect x="0" y="0" width="100%" height="100%" fill="#350016"/>
<text x="100%" y="1.2em" text-anchor="end" class="hex"><tspan dx="-0.5em" dy="0.5em">#350016</tspan></text>
<text x="0" y="100%" text-anchor="start" class="label"><tspan dy="-0.5em" dx="0.5em">Midnight raspberry</tspan></text>
</svg>
<svg x="104" y="4" width="92" height="42.0" class="palette dark">
<rect x="0" y="0" width="100%" height="100%" fill="#340000"/>
<text x="100%" y="1.2em" text-anchor="end" class="hex"><tspan dx="-0.5em" dy="0.5em">#340000</tspan></text>
<text x="0" y="100%" text-anchor="start" class="label"><tspan dy="-0.5em" dx="0.5em">Midnight pumpkin</tspan></text>
</svg>
<svg x="204" y="4" width="92" height="42.0" class="palette dark">
<rect x="0" y="0" width="100%" height="100%" fill="#241600"/>
<text x="100%" y="1.2em" text-anchor="end" class="hex"><tspan dx="-0.5em" dy="0.5em">#241600</tspan></text>
<text x="0" y="100%" text-anchor="start" class="label"><tspan dy="-0.5em" dx="0.5em">Midnight gold</tspan></text>
</svg>
<svg x="304" y="4" width="92" height="42.0" class="palette dark">
<rect x="0" y="0" width="100%" height="100%" fill="#002600"/>
<text x="100%" y="1.2em" text-anchor="end" class="hex"><tspan dx="-0.5em" dy="0.5em">#002600</tspan></text>
<text x="0" y="100%" text-anchor="start" class="label"><tspan dy="-0.5em" dx="0.5em">Midnight lime</tspan></text>
</svg>
<svg x="404" y="4" width="92" height="42.0" class="palette dark">
<rect x="0" y="0" width="100%" height="100%" fill="#002a1a"/>
<text x="100%" y="1.2em" text-anchor="end" class="hex"><tspan dx="-0.5em" dy="0.5em">#002a1a</tspan></text>
<text x="0" y="100%" text-anchor="start" class="label"><tspan dy="-0.5em" dx="0.5em">Midnight mint</tspan></text>
</svg>
<svg x="504" y="4" width="92" height="42.0" class="palette dark">
<rect x="0" y="0" width="100%" height="100%" fill="#002133"/>
<text x="100%" y="1.2em" text-anchor="end" class="hex"><tspan dx="-0.5em" dy="0.5em">#002133</tspan></text>
<text x="0" y="100%" text-anchor="start" class="label"><tspan dy="-0.5em" dx="0.5em">Midnight sky</tspan></text>
</svg>
<svg x="604" y="4" width="92" height="42.0" class="palette dark">
<rect x="0" y="0" width="100%" height="100%" fill="#0f093c"/>
<text x="100%" y="1.2em" text-anchor="end" class="hex"><tspan dx="-0.5em" dy="0.5em">#0f093c</tspan></text>
<text x="0" y="100%" text-anchor="start" class="label"><tspan dy="-0.5em" dx="0.5em">Midnight bilberry</tspan></text>
</svg>
<svg x="704" y="4" width="92" height="42.0" class="palette dark">
<rect x="0" y="0" width="100%" height="100%" fill="#2b0030"/>
<text x="100%" y="1.2em" text-anchor="end" class="hex"><tspan dx="-0.5em" dy="0.5em">#2b0030</tspan></text>
<text x="0" y="100%" text-anchor="start" class="label"><tspan dy="-0.5em" dx="0.5em">Midnight lilac</tspan></text>
</svg>
<svg x="804" y="4" width="92" height="42.0" class="palette dark">
<rect x="0" y="0" width="100%" height="100%" fill="#000000"/>
<text x="100%" y="1.2em" text-anchor="end" class="hex"><tspan dx="-0.5em" dy="0.5em">#000000</tspan></text>
<text x="0" y="100%" text-anchor="start" class="label"><tspan dy="-0.5em" dx="0.5em">Black</tspan></text>
</svg>
<svg x="4" y="54.0" width="92" height="42.0" class="palette dark">
<rect x="0" y="0" width="100%" height="100%" fill="#620031"/>
<text x="100%" y="1.2em" text-anchor="end" class="hex"><tspan dx="-0.5em" dy="0.5em">#620031</tspan></text>
<text x="0" y="100%" text-anchor="start" class="label"><tspan dy="-0.5em" dx="0.5em">Dark raspberry</tspan></text>
</svg>
<svg x="104" y="54.0" width="92" height="42.0" class="palette dark">
<rect x="0" y="0" width="100%" height="100%" fill="#600000"/>
<text x="100%" y="1.2em" text-anchor="end" class="hex"><tspan dx="-0.5em" dy="0.5em">#600000</tspan></text>
<text x="0" y="100%" text-anchor="start" class="label"><tspan dy="-0.5em" dx="0.5em">Dark pumpkin</tspan></text>
</svg>
<svg x="204" y="54.0" width="92" height="42.0" class="palette dark">
<rect x="0" y="0" width="100%" height="100%" fill="#473000"/>
<text x="100%" y="1.2em" text-anchor="end" class="hex"><tspan dx="-0.5em" dy="0.5em">#473000</tspan></text>
<text x="0" y="100%" text-anchor="start" class="label"><tspan dy="-0.5em" dx="0.5em">Dark gold</tspan></text>
</svg>
<svg x="304" y="54.0" width="92" height="42.0" class="palette dark">
<rect x="0" y="0" width="100%" height="100%" fill="#004900"/>
<text x="100%" y="1.2em" text-anchor="end" class="hex"><tspan dx="-0.5em" dy="0.5em">#004900</tspan></text>
<text x="0" y="100%" text-anchor="start" class="label"><tspan dy="-0.5em" dx="0.5em">Dark lime</tspan></text>
</svg>
<svg x="404" y="54.0" width="92" height="42.0" class="palette dark">
<rect x="0" y="0" width="100%" height="100%" fill="#005036"/>
<text x="100%" y="1.2em" text-anchor="end" class="hex"><tspan dx="-0.5em" dy="0.5em">#005036</tspan></text>
<text x="0" y="100%" text-anchor="start" class="label"><tspan dy="-0.5em" dx="0.5em">Dark mint</tspan></text>
</svg>
<svg x="504" y="54.0" width="92" height="42.0" class="palette dark">
<rect x="0" y="0" width="100%" height="100%" fill="#004160"/>
<text x="100%" y="1.2em" text-anchor="end" class="hex"><tspan dx="-0.5em" dy="0.5em">#004160</tspan></text>
<text x="0" y="100%" text-anchor="start" class="label"><tspan dy="-0.5em" dx="0.5em">Dark sky</tspan></text>
</svg>
<svg x="604" y="54.0" width="92" height="42.0" class="palette dark">
<rect x="0" y="0" width="100%" height="100%" fill="#271c6e"/>
<text x="100%" y="1.2em" text-anchor="end" class="hex"><tspan dx="-0.5em" dy="0.5em">#271c6e</tspan></text>
<text x="0" y="100%" text-anchor="start" class="label"><tspan dy="-0.5em" dx="0.5em">Dark bilberry</tspan></text>
</svg>
<svg x="704" y="54.0" width="92" height="42.0" class="palette dark">
<rect x="0" y="0" width="100%" height="100%" fill="#52005a"/>
<text x="100%" y="1.2em" text-anchor="end" class="hex"><tspan dx="-0.5em" dy="0.5em">#52005a</tspan></text>
<text x="0" y="100%" text-anchor="start" class="label"><tspan dy="-0.5em" dx="0.5em">Dark lilac</tspan></text>
</svg>
<svg x="804" y="54.0" width="92" height="42.0" class="palette dark">
<rect x="0" y="0" width="100%" height="100%" fill="#333333"/>
<text x="100%" y="1.2em" text-anchor="end" class="hex"><tspan dx="-0.5em" dy="0.5em">#333333</tspan></text>
<text x="0" y="100%" text-anchor="start" class="label"><tspan dy="-0.5em" dx="0.5em">Dark grey</tspan></text>
</svg>
<svg x="4" y="104.0" width="92" height="92" class="palette dark">
<rect x="0" y="0" width="100%" height="100%" fill="#b60067"/>
<text x="100%" y="1.2em" text-anchor="end" class="hex"><tspan dx="-0.5em" dy="0.5em">#b60067</tspan></text>
<text x="0" y="100%" text-anchor="start" class="label"><tspan dy="-0.5em" dx="0.5em">Raspberry</tspan></text>
</svg>
<svg x="104" y="104.0" width="92" height="92" class="palette dark">
<rect x="0" y="0" width="100%" height="100%" fill="#b42a13"/>
<text x="100%" y="1.2em" text-anchor="end" class="hex"><tspan dx="-0.5em" dy="0.5em">#b42a13</tspan></text>
<text x="0" y="100%" text-anchor="start" class="label"><tspan dy="-0.5em" dx="0.5em">Pumpkin</tspan></text>
</svg>
<svg x="204" y="104.0" width="92" height="92" class="palette dark">
<rect x="0" y="0" width="100%" height="100%" fill="#8b6600"/>
<text x="100%" y="1.2em" text-anchor="end" class="hex"><tspan dx="-0.5em" dy="0.5em">#8b6600</tspan></text>
<text x="0" y="100%" text-anchor="start" class="label"><tspan dy="-0.5em" dx="0.5em">Gold</tspan></text>
</svg>
<svg x="304" y="104.0" width="92" height="92" class="palette light">
<rect x="0" y="0" width="100%" height="100%" fill="#008e00"/>
<text x="100%" y="1.2em" text-anchor="end" class="hex"><tspan dx="-0.5em" dy="0.5em">#008e00</tspan></text>
<text x="0" y="100%" text-anchor="start" class="label"><tspan dy="-0.5em" dx="0.5em">Lime</tspan></text>
</svg>
<svg x="404" y="104.0" width="92" height="92" class="palette light">
<rect x="0" y="0" width="100%" height="100%" fill="#00996f"/>
<text x="100%" y="1.2em" text-anchor="end" class="hex"><tspan dx="-0.5em" dy="0.5em">#00996f</tspan></text>
<text x="0" y="100%" text-anchor="start" class="label"><tspan dy="-0.5em" dx="0.5em">Mint</tspan></text>
</svg>
<svg x="504" y="104.0" width="92" height="92" class="palette dark">
<rect x="0" y="0" width="100%" height="100%" fill="#0081b3"/>
<text x="100%" y="1.2em" text-anchor="end" class="hex"><tspan dx="-0.5em" dy="0.5em">#0081b3</tspan></text>
<text x="0" y="100%" text-anchor="start" class="label"><tspan dy="-0.5em" dx="0.5em">Sky</tspan></text>
</svg>
<svg x="604" y="104.0" width="92" height="92" class="palette dark">
<rect x="0" y="0" width="100%" height="100%" fill="#5849cb"/>
<text x="100%" y="1.2em" text-anchor="end" class="hex"><tspan dx="-0.5em" dy="0.5em">#5849cb</tspan></text>
<text x="0" y="100%" text-anchor="start" class="label"><tspan dy="-0.5em" dx="0.5em">Bilberry</tspan></text>
</svg>
<svg x="704" y="104.0" width="92" height="92" class="palette dark">
<rect x="0" y="0" width="100%" height="100%" fill="#9b00a8"/>
<text x="100%" y="1.2em" text-anchor="end" class="hex"><tspan dx="-0.5em" dy="0.5em">#9b00a8</tspan></text>
<text x="0" y="100%" text-anchor="start" class="label"><tspan dy="-0.5em" dx="0.5em">Lilac</tspan></text>
</svg>
<svg x="804" y="104.0" width="92" height="92" class="palette dark">
<rect x="0" y="0" width="100%" height="100%" fill="#6b6b6b"/>
<text x="100%" y="1.2em" text-anchor="end" class="hex"><tspan dx="-0.5em" dy="0.5em">#6b6b6b</tspan></text>
<text x="0" y="100%" text-anchor="start" class="label"><tspan dy="-0.5em" dx="0.5em">Medium grey</tspan></text>
</svg>
<svg x="4" y="204.0" width="92" height="42.0" class="palette light">
<rect x="0" y="0" width="100%" height="100%" fill="#ff00a0"/>
<text x="100%" y="1.2em" text-anchor="end" class="hex"><tspan dx="-0.5em" dy="0.5em">#ff00a0</tspan></text>
<text x="0" y="100%" text-anchor="start" class="label"><tspan dy="-0.5em" dx="0.5em">Vivid raspberry</tspan></text>
</svg>
<svg x="104" y="204.0" width="92" height="42.0" class="palette light">
<rect x="0" y="0" width="100%" height="100%" fill="#ff593d"/>
<text x="100%" y="1.2em" text-anchor="end" class="hex"><tspan dx="-0.5em" dy="0.5em">#ff593d</tspan></text>
<text x="0" y="100%" text-anchor="start" class="label"><tspan dy="-0.5em" dx="0.5em">Vivid pumpkin</tspan></text>
</svg>
<svg x="204" y="204.0" width="92" height="42.0" class="palette light">
<rect x="0" y="0" width="100%" height="100%" fill="#e9b000"/>
<text x="100%" y="1.2em" text-anchor="end" class="hex"><tspan dx="-0.5em" dy="0.5em">#e9b000</tspan></text>
<text x="0" y="100%" text-anchor="start" class="label"><tspan dy="-0.5em" dx="0.5em">Vivid gold</tspan></text>
</svg>
<svg x="304" y="204.0" width="92" height="42.0" class="palette light">
<rect x="0" y="0" width="100%" height="100%" fill="#00d810"/>
<text x="100%" y="1.2em" text-anchor="end" class="hex"><tspan dx="-0.5em" dy="0.5em">#00d810</tspan></text>
<text x="0" y="100%" text-anchor="start" class="label"><tspan dy="-0.5em" dx="0.5em">Vivid lime</tspan></text>
</svg>
<svg x="404" y="204.0" width="92" height="42.0" class="palette light">
<rect x="0" y="0" width="100%" height="100%" fill="#00eaab"/>
<text x="100%" y="1.2em" text-anchor="end" class="hex"><tspan dx="-0.5em" dy="0.5em">#00eaab</tspan></text>
<text x="0" y="100%" text-anchor="start" class="label"><tspan dy="-0.5em" dx="0.5em">Vivid mint</tspan></text>
</svg>
<svg x="504" y="204.0" width="92" height="42.0" class="palette light">
<rect x="0" y="0" width="100%" height="100%" fill="#00c5ff"/>
<text x="100%" y="1.2em" text-anchor="end" class="hex"><tspan dx="-0.5em" dy="0.5em">#00c5ff</tspan></text>
<text x="0" y="100%" text-anchor="start" class="label"><tspan dy="-0.5em" dx="0.5em">Vivid sky</tspan></text>
</svg>
<svg x="604" y="204.0" width="92" height="42.0" class="palette light">
<rect x="0" y="0" width="100%" height="100%" fill="#8b6fff"/>
<text x="100%" y="1.2em" text-anchor="end" class="hex"><tspan dx="-0.5em" dy="0.5em">#8b6fff</tspan></text>
<text x="0" y="100%" text-anchor="start" class="label"><tspan dy="-0.5em" dx="0.5em">Vivid bilberry</tspan></text>
</svg>
<svg x="704" y="204.0" width="92" height="42.0" class="palette light">
<rect x="0" y="0" width="100%" height="100%" fill="#ee00ff"/>
<text x="100%" y="1.2em" text-anchor="end" class="hex"><tspan dx="-0.5em" dy="0.5em">#ee00ff</tspan></text>
<text x="0" y="100%" text-anchor="start" class="label"><tspan dy="-0.5em" dx="0.5em">Vivid lilac</tspan></text>
</svg>
<svg x="804" y="204.0" width="92" height="42.0" class="palette light">
<rect x="0" y="0" width="100%" height="100%" fill="#a6a5a5"/>
<text x="100%" y="1.2em" text-anchor="end" class="hex"><tspan dx="-0.5em" dy="0.5em">#a6a5a5</tspan></text>
<text x="0" y="100%" text-anchor="start" class="label"><tspan dy="-0.5em" dx="0.5em">Light grey</tspan></text>
</svg>
<svg x="4" y="254.0" width="92" height="42.0" class="palette light">
<rect x="0" y="0" width="100%" height="100%" fill="#ffc9e1"/>
<text x="100%" y="1.2em" text-anchor="end" class="hex"><tspan dx="-0.5em" dy="0.5em">#ffc9e1</tspan></text>
<text x="0" y="100%" text-anchor="start" class="label"><tspan dy="-0.5em" dx="0.5em">Pastel raspberry</tspan></text>
</svg>
<svg x="104" y="254.0" width="92" height="42.0" class="palette light">
<rect x="0" y="0" width="100%" height="100%" fill="#ffd3c5"/>
<text x="100%" y="1.2em" text-anchor="end" class="hex"><tspan dx="-0.5em" dy="0.5em">#ffd3c5</tspan></text>
<text x="0" y="100%" text-anchor="start" class="label"><tspan dy="-0.5em" dx="0.5em">Pastel pumpkin</tspan></text>
</svg>
<svg x="204" y="254.0" width="92" height="42.0" class="palette light">
<rect x="0" y="0" width="100%" height="100%" fill="#efe5ba"/>
<text x="100%" y="1.2em" text-anchor="end" class="hex"><tspan dx="-0.5em" dy="0.5em">#efe5ba</tspan></text>
<text x="0" y="100%" text-anchor="start" class="label"><tspan dy="-0.5em" dx="0.5em">Pastel gold</tspan></text>
</svg>
<svg x="304" y="254.0" width="92" height="42.0" class="palette light">
<rect x="0" y="0" width="100%" height="100%" fill="#c9f5c7"/>
<text x="100%" y="1.2em" text-anchor="end" class="hex"><tspan dx="-0.5em" dy="0.5em">#c9f5c7</tspan></text>
<text x="0" y="100%" text-anchor="start" class="label"><tspan dy="-0.5em" dx="0.5em">Pastel lime</tspan></text>
</svg>
<svg x="404" y="254.0" width="92" height="42.0" class="palette light">
<rect x="0" y="0" width="100%" height="100%" fill="#adf9e5"/>
<text x="100%" y="1.2em" text-anchor="end" class="hex"><tspan dx="-0.5em" dy="0.5em">#adf9e5</tspan></text>
<text x="0" y="100%" text-anchor="start" class="label"><tspan dy="-0.5em" dx="0.5em">Pastel mint</tspan></text>
</svg>
<svg x="504" y="254.0" width="92" height="42.0" class="palette light">
<rect x="0" y="0" width="100%" height="100%" fill="#b5f0ff"/>
<text x="100%" y="1.2em" text-anchor="end" class="hex"><tspan dx="-0.5em" dy="0.5em">#b5f0ff</tspan></text>
<text x="0" y="100%" text-anchor="start" class="label"><tspan dy="-0.5em" dx="0.5em">Pastel sky</tspan></text>
</svg>
<svg x="604" y="254.0" width="92" height="42.0" class="palette light">
<rect x="0" y="0" width="100%" height="100%" fill="#d8deff"/>
<text x="100%" y="1.2em" text-anchor="end" class="hex"><tspan dx="-0.5em" dy="0.5em">#d8deff</tspan></text>
<text x="0" y="100%" text-anchor="start" class="label"><tspan dy="-0.5em" dx="0.5em">Pastel bilberry</tspan></text>
</svg>
<svg x="704" y="254.0" width="92" height="42.0" class="palette light">
<rect x="0" y="0" width="100%" height="100%" fill="#facefe"/>
<text x="100%" y="1.2em" text-anchor="end" class="hex"><tspan dx="-0.5em" dy="0.5em">#facefe</tspan></text>
<text x="0" y="100%" text-anchor="start" class="label"><tspan dy="-0.5em" dx="0.5em">Pastel lilac</tspan></text>
</svg>
<svg x="804" y="254.0" width="92" height="42.0" class="palette light">
<rect x="0" y="0" width="100%" height="100%" fill="#ffffff"/>
<text x="100%" y="1.2em" text-anchor="end" class="hex"><tspan dx="-0.5em" dy="0.5em">#ffffff</tspan></text>
<text x="0" y="100%" text-anchor="start" class="label"><tspan dy="-0.5em" dx="0.5em">White</tspan></text>
</svg>
<svg x="4" y="304.0" width="92" height="92" class="palette dark">
<rect x="0" y="0" width="100%" height="100%" fill="#002330"/>
<text x="100%" y="1.2em" text-anchor="end" class="hex"><tspan dx="-0.5em" dy="0.5em">#002330</tspan></text>
<text x="0" y="100%" text-anchor="start" class="label"><tspan dy="-0.5em" dx="0.5em">base03</tspan></text>
</svg>
<svg x="104" y="304.0" width="92" height="92" class="palette dark">
<rect x="0" y="0" width="100%" height="100%" fill="#133947"/>
<text x="100%" y="1.2em" text-anchor="end" class="hex"><tspan dx="-0.5em" dy="0.5em">#133947</tspan></text>
<text x="0" y="100%" text-anchor="start" class="label"><tspan dy="-0.5em" dx="0.5em">base02</tspan></text>
</svg>
<svg x="204" y="304.0" width="92" height="92" class="palette dark">
<rect x="0" y="0" width="100%" height="100%" fill="#405964"/>
<text x="100%" y="1.2em" text-anchor="end" class="hex"><tspan dx="-0.5em" dy="0.5em">#405964</tspan></text>
<text x="0" y="100%" text-anchor="start" class="label"><tspan dy="-0.5em" dx="0.5em">base01</tspan></text>
</svg>
<svg x="304" y="304.0" width="92" height="92" class="palette dark">
<rect x="0" y="0" width="100%" height="100%" fill="#56707b"/>
<text x="100%" y="1.2em" text-anchor="end" class="hex"><tspan dx="-0.5em" dy="0.5em">#56707b</tspan></text>
<text x="0" y="100%" text-anchor="start" class="label"><tspan dy="-0.5em" dx="0.5em">base00</tspan></text>
</svg>
<svg x="404" y="304.0" width="92" height="92" class="palette light">
<rect x="0" y="0" width="100%" height="100%" fill="#7f8a8f"/>
<text x="100%" y="1.2em" text-anchor="end" class="hex"><tspan dx="-0.5em" dy="0.5em">#7f8a8f</tspan></text>
<text x="0" y="100%" text-anchor="start" class="label"><tspan dy="-0.5em" dx="0.5em">base0</tspan></text>
</svg>
<svg x="504" y="304.0" width="92" height="92" class="palette light">
<rect x="0" y="0" width="100%" height="100%" fill="#8b969b"/>
<text x="100%" y="1.2em" text-anchor="end" class="hex"><tspan dx="-0.5em" dy="0.5em">#8b969b</tspan></text>
<text x="0" y="100%" text-anchor="start" class="label"><tspan dy="-0.5em" dx="0.5em">base1</tspan></text>
</svg>
<svg x="604" y="304.0" width="92" height="92" class="palette light">
<rect x="0" y="0" width="100%" height="100%" fill="#ebe3d2"/>
<text x="100%" y="1.2em" text-anchor="end" class="hex"><tspan dx="-0.5em" dy="0.5em">#ebe3d2</tspan></text>
<text x="0" y="100%" text-anchor="start" class="label"><tspan dy="-0.5em" dx="0.5em">base2</tspan></text>
</svg>
<svg x="704" y="304.0" width="92" height="92" class="palette light">
<rect x="0" y="0" width="100%" height="100%" fill="#fbf2e1"/>
<text x="100%" y="1.2em" text-anchor="end" class="hex"><tspan dx="-0.5em" dy="0.5em">#fbf2e1</tspan></text>
<text x="0" y="100%" text-anchor="start" class="label"><tspan dy="-0.5em" dx="0.5em">base3</tspan></text>
</svg>
<svg x="804" y="304.0" width="92" height="92" class="palette light">
<rect x="0" y="0" width="100%" height="100%" fill="#ffffff"/>
<text x="100%" y="1.2em" text-anchor="end" class="hex"><tspan dx="-0.5em" dy="0.5em">#ffffff</tspan></text>
<text x="0" y="100%" text-anchor="start" class="label"><tspan dy="-0.5em" dx="0.5em">White</tspan></text>
</svg>
</svg>