<?xml version="1.0" encoding="utf-8" standalone="no"?>
<!DOCTYPE svg PUBLIC "-//W3C//DTD SVG 1.1//EN"
  "http://www.w3.org/Graphics/SVG/1.1/DTD/svg11.dtd">
<svg xmlns:xlink="http://www.w3.org/1999/xlink" width="460.8pt" height="345.6pt" viewBox="0 0 460.8 345.6" xmlns="http://www.w3.org/2000/svg" version="1.1">
 <metadata>
  <rdf:RDF xmlns:dc="http://purl.org/dc/elements/1.1/" xmlns:cc="http://creativecommons.org/ns#" xmlns:rdf="http://www.w3.org/1999/02/22-rdf-syntax-ns#">
   <cc:Work>
    <dc:type rdf:resource="http://purl.org/dc/dcmitype/StillImage"/>
    <dc:date>2024-06-02T22:39:50.798356</dc:date>
    <dc:format>image/svg+xml</dc:format>
    <dc:creator>
     <cc:Agent>
      <dc:title>Matplotlib v3.9.0, https://matplotlib.org/</dc:title>
     </cc:Agent>
    </dc:creator>
   </cc:Work>
  </rdf:RDF>
 </metadata>
 <defs>
  <style type="text/css">*{stroke-linejoin: round; stroke-linecap: butt}</style>
 </defs>
 <g id="figure_1">
  <g id="patch_1">
   <path d="M 0 345.6 
L 460.8 345.6 
L 460.8 0 
L 0 0 
z
" style="fill: #ffffff"/>
  </g>
  <g id="patch_2">
   <path d="M 103.104 307.584 
L 369.216 307.584 
L 369.216 41.472 
L 103.104 41.472 
z
" style="fill: #ffffff"/>
  </g>
  <g id="pane3d_1">
   <g id="patch_3">
    <path d="M 123.197291 241.969309 
L 211.076164 168.307495 
L 209.854564 62.073991 
L 117.770234 129.272941 
" style="fill: #f2f2f2; opacity: 0.5; stroke: #f2f2f2; stroke-linejoin: miter"/>
   </g>
  </g>
  <g id="pane3d_2">
   <g id="patch_4">
    <path d="M 211.076164 168.307495 
L 352.090401 209.294766 
L 357.122702 99.402171 
L 209.854564 62.073991 
" style="fill: #e6e6e6; opacity: 0.5; stroke: #e6e6e6; stroke-linejoin: miter"/>
   </g>
  </g>
  <g id="pane3d_3">
   <g id="patch_5">
    <path d="M 123.197291 241.969309 
L 272.679269 290.790123 
L 352.090401 209.294766 
L 211.076164 168.307495 
" style="fill: #ececec; opacity: 0.5; stroke: #ececec; stroke-linejoin: miter"/>
   </g>
  </g>
  <g id="grid3d_1">
   <g id="Line3DCollection_1">
    <path d="M 123.197291 241.969309 
L 211.076164 168.307495 
L 209.854564 62.073991 
" style="fill: none; stroke: #b0b0b0; stroke-width: 0.8"/>
    <path d="M 151.852268 251.328024 
L 238.204516 176.192636 
L 238.13777 69.242959 
" style="fill: none; stroke: #b0b0b0; stroke-width: 0.8"/>
    <path d="M 181.108421 260.883084 
L 265.854616 184.229428 
L 266.988571 76.555796 
" style="fill: none; stroke: #b0b0b0; stroke-width: 0.8"/>
    <path d="M 210.984869 270.640732 
L 294.041663 192.42229 
L 296.424225 84.016876 
" style="fill: none; stroke: #b0b0b0; stroke-width: 0.8"/>
    <path d="M 241.501551 280.60748 
L 322.781451 200.775812 
L 326.462699 91.630754 
" style="fill: none; stroke: #b0b0b0; stroke-width: 0.8"/>
    <path d="M 272.679269 290.790123 
L 352.090401 209.294766 
L 357.122702 99.402171 
" style="fill: none; stroke: #b0b0b0; stroke-width: 0.8"/>
   </g>
  </g>
  <g id="grid3d_2">
   <g id="Line3DCollection_2">
    <path d="M 128.711153 121.288756 
L 133.603657 233.246487 
L 282.119571 281.10205 
" style="fill: none; stroke: #b0b0b0; stroke-width: 0.8"/>
    <path d="M 147.707416 107.426149 
L 151.694086 218.08273 
L 298.507083 264.284432 
" style="fill: none; stroke: #b0b0b0; stroke-width: 0.8"/>
    <path d="M 166.040948 94.047172 
L 169.180265 203.425468 
L 314.318915 248.057602 
" style="fill: none; stroke: #b0b0b0; stroke-width: 0.8"/>
    <path d="M 183.745836 81.126951 
L 186.091971 189.249742 
L 329.584879 232.390968 
" style="fill: none; stroke: #b0b0b0; stroke-width: 0.8"/>
    <path d="M 200.853869 68.642288 
L 202.457055 175.532203 
L 344.332762 217.256012 
" style="fill: none; stroke: #b0b0b0; stroke-width: 0.8"/>
   </g>
  </g>
  <g id="grid3d_3">
   <g id="Line3DCollection_3">
    <path d="M 352.621776 197.690875 
L 210.946928 157.06878 
L 122.625095 230.087293 
" style="fill: none; stroke: #b0b0b0; stroke-width: 0.8"/>
    <path d="M 353.583272 176.694266 
L 210.713229 136.745679 
L 121.589221 208.576681 
" style="fill: none; stroke: #b0b0b0; stroke-width: 0.8"/>
    <path d="M 354.56129 155.336845 
L 210.475707 116.09016 
L 120.53486 186.682207 
" style="fill: none; stroke: #b0b0b0; stroke-width: 0.8"/>
    <path d="M 355.556261 133.609231 
L 210.234268 95.094 
L 119.461515 164.393502 
" style="fill: none; stroke: #b0b0b0; stroke-width: 0.8"/>
    <path d="M 356.568628 111.501716 
L 209.988814 73.748702 
L 118.368668 141.699822 
" style="fill: none; stroke: #b0b0b0; stroke-width: 0.8"/>
   </g>
  </g>
  <g id="axis3d_1">
   <g id="line2d_1">
    <path d="M 123.197291 241.969309 
L 272.679269 290.790123 
" style="fill: none; stroke: #000000; stroke-width: 0.8; stroke-linecap: square"/>
   </g>
   <g id="xtick_1">
    <g id="line2d_2">
     <path d="M 123.962332 241.328036 
L 121.663937 243.254597 
" style="fill: none; stroke: #000000; stroke-width: 0.8; stroke-linecap: square"/>
    </g>
    <g id="text_1">
     <!-- 0 -->
     <g transform="translate(112.478153 265.215952) scale(0.1 -0.1)">
      <defs>
       <path id="DejaVuSans-30" d="M 2034 4250 
Q 1547 4250 1301 3770 
Q 1056 3291 1056 2328 
Q 1056 1369 1301 889 
Q 1547 409 2034 409 
Q 2525 409 2770 889 
Q 3016 1369 3016 2328 
Q 3016 3291 2770 3770 
Q 2525 4250 2034 4250 
z
M 2034 4750 
Q 2819 4750 3233 4129 
Q 3647 3509 3647 2328 
Q 3647 1150 3233 529 
Q 2819 -91 2034 -91 
Q 1250 -91 836 529 
Q 422 1150 422 2328 
Q 422 3509 836 4129 
Q 1250 4750 2034 4750 
z
" transform="scale(0.015625)"/>
      </defs>
      <use xlink:href="#DejaVuSans-30"/>
     </g>
    </g>
   </g>
   <g id="xtick_2">
    <g id="line2d_3">
     <path d="M 152.604651 250.673373 
L 150.344251 252.640155 
" style="fill: none; stroke: #000000; stroke-width: 0.8; stroke-linecap: square"/>
    </g>
    <g id="text_2">
     <!-- 20 -->
     <g transform="translate(137.980611 274.772756) scale(0.1 -0.1)">
      <defs>
       <path id="DejaVuSans-32" d="M 1228 531 
L 3431 531 
L 3431 0 
L 469 0 
L 469 531 
Q 828 903 1448 1529 
Q 2069 2156 2228 2338 
Q 2531 2678 2651 2914 
Q 2772 3150 2772 3378 
Q 2772 3750 2511 3984 
Q 2250 4219 1831 4219 
Q 1534 4219 1204 4116 
Q 875 4013 500 3803 
L 500 4441 
Q 881 4594 1212 4672 
Q 1544 4750 1819 4750 
Q 2544 4750 2975 4387 
Q 3406 4025 3406 3419 
Q 3406 3131 3298 2873 
Q 3191 2616 2906 2266 
Q 2828 2175 2409 1742 
Q 1991 1309 1228 531 
z
" transform="scale(0.015625)"/>
      </defs>
      <use xlink:href="#DejaVuSans-32"/>
      <use xlink:href="#DejaVuSans-30" x="63.623047"/>
     </g>
    </g>
   </g>
   <g id="xtick_3">
    <g id="line2d_4">
     <path d="M 181.847444 260.214631 
L 179.627148 262.222908 
" style="fill: none; stroke: #000000; stroke-width: 0.8; stroke-linecap: square"/>
    </g>
    <g id="text_3">
     <!-- 40 -->
     <g transform="translate(167.268374 284.530818) scale(0.1 -0.1)">
      <defs>
       <path id="DejaVuSans-34" d="M 2419 4116 
L 825 1625 
L 2419 1625 
L 2419 4116 
z
M 2253 4666 
L 3047 4666 
L 3047 1625 
L 3713 1625 
L 3713 1100 
L 3047 1100 
L 3047 0 
L 2419 0 
L 2419 1100 
L 313 1100 
L 313 1709 
L 2253 4666 
z
" transform="scale(0.015625)"/>
      </defs>
      <use xlink:href="#DejaVuSans-34"/>
      <use xlink:href="#DejaVuSans-30" x="63.623047"/>
     </g>
    </g>
   </g>
   <g id="xtick_4">
    <g id="line2d_5">
     <path d="M 211.709793 269.958037 
L 209.531821 272.009134 
" style="fill: none; stroke: #000000; stroke-width: 0.8; stroke-linecap: square"/>
    </g>
    <g id="text_4">
     <!-- 60 -->
     <g transform="translate(197.179476 294.496563) scale(0.1 -0.1)">
      <defs>
       <path id="DejaVuSans-36" d="M 2113 2584 
Q 1688 2584 1439 2293 
Q 1191 2003 1191 1497 
Q 1191 994 1439 701 
Q 1688 409 2113 409 
Q 2538 409 2786 701 
Q 3034 994 3034 1497 
Q 3034 2003 2786 2293 
Q 2538 2584 2113 2584 
z
M 3366 4563 
L 3366 3988 
Q 3128 4100 2886 4159 
Q 2644 4219 2406 4219 
Q 1781 4219 1451 3797 
Q 1122 3375 1075 2522 
Q 1259 2794 1537 2939 
Q 1816 3084 2150 3084 
Q 2853 3084 3261 2657 
Q 3669 2231 3669 1497 
Q 3669 778 3244 343 
Q 2819 -91 2113 -91 
Q 1303 -91 875 529 
Q 447 1150 447 2328 
Q 447 3434 972 4092 
Q 1497 4750 2381 4750 
Q 2619 4750 2861 4703 
Q 3103 4656 3366 4563 
z
" transform="scale(0.015625)"/>
      </defs>
      <use xlink:href="#DejaVuSans-36"/>
      <use xlink:href="#DejaVuSans-30" x="63.623047"/>
     </g>
    </g>
   </g>
   <g id="xtick_5">
    <g id="line2d_6">
     <path d="M 242.2116 279.910082 
L 240.078285 282.005386 
" style="fill: none; stroke: #000000; stroke-width: 0.8; stroke-linecap: square"/>
    </g>
    <g id="text_5">
     <!-- 80 -->
     <g transform="translate(227.734032 304.676694) scale(0.1 -0.1)">
      <defs>
       <path id="DejaVuSans-38" d="M 2034 2216 
Q 1584 2216 1326 1975 
Q 1069 1734 1069 1313 
Q 1069 891 1326 650 
Q 1584 409 2034 409 
Q 2484 409 2743 651 
Q 3003 894 3003 1313 
Q 3003 1734 2745 1975 
Q 2488 2216 2034 2216 
z
M 1403 2484 
Q 997 2584 770 2862 
Q 544 3141 544 3541 
Q 544 4100 942 4425 
Q 1341 4750 2034 4750 
Q 2731 4750 3128 4425 
Q 3525 4100 3525 3541 
Q 3525 3141 3298 2862 
Q 3072 2584 2669 2484 
Q 3125 2378 3379 2068 
Q 3634 1759 3634 1313 
Q 3634 634 3220 271 
Q 2806 -91 2034 -91 
Q 1263 -91 848 271 
Q 434 634 434 1313 
Q 434 1759 690 2068 
Q 947 2378 1403 2484 
z
M 1172 3481 
Q 1172 3119 1398 2916 
Q 1625 2713 2034 2713 
Q 2441 2713 2670 2916 
Q 2900 3119 2900 3481 
Q 2900 3844 2670 4047 
Q 2441 4250 2034 4250 
Q 1625 4250 1398 4047 
Q 1172 3844 1172 3481 
z
" transform="scale(0.015625)"/>
      </defs>
      <use xlink:href="#DejaVuSans-38"/>
      <use xlink:href="#DejaVuSans-30" x="63.623047"/>
     </g>
    </g>
   </g>
   <g id="xtick_6">
    <g id="line2d_7">
     <path d="M 273.373625 290.077542 
L 271.287426 292.218496 
" style="fill: none; stroke: #000000; stroke-width: 0.8; stroke-linecap: square"/>
    </g>
    <g id="text_6">
     <!-- 100 -->
     <g transform="translate(255.771781 315.078203) scale(0.1 -0.1)">
      <defs>
       <path id="DejaVuSans-31" d="M 794 531 
L 1825 531 
L 1825 4091 
L 703 3866 
L 703 4441 
L 1819 4666 
L 2450 4666 
L 2450 531 
L 3481 531 
L 3481 0 
L 794 0 
L 794 531 
z
" transform="scale(0.015625)"/>
      </defs>
      <use xlink:href="#DejaVuSans-31"/>
      <use xlink:href="#DejaVuSans-30" x="63.623047"/>
      <use xlink:href="#DejaVuSans-30" x="127.246094"/>
     </g>
    </g>
   </g>
  </g>
  <g id="axis3d_2">
   <g id="line2d_8">
    <path d="M 352.090401 209.294766 
L 272.679269 290.790123 
" style="fill: none; stroke: #000000; stroke-width: 0.8; stroke-linecap: square"/>
   </g>
   <g id="xtick_7">
    <g id="line2d_9">
     <path d="M 280.868295 280.698857 
L 284.625346 281.909474 
" style="fill: none; stroke: #000000; stroke-width: 0.8; stroke-linecap: square"/>
    </g>
    <g id="text_7">
     <!-- −100 -->
     <g transform="translate(281.213722 302.063796) scale(0.1 -0.1)">
      <defs>
       <path id="DejaVuSans-2212" d="M 678 2272 
L 4684 2272 
L 4684 1741 
L 678 1741 
L 678 2272 
z
" transform="scale(0.015625)"/>
      </defs>
      <use xlink:href="#DejaVuSans-2212"/>
      <use xlink:href="#DejaVuSans-31" x="83.789062"/>
      <use xlink:href="#DejaVuSans-30" x="147.412109"/>
      <use xlink:href="#DejaVuSans-30" x="211.035156"/>
     </g>
    </g>
   </g>
   <g id="xtick_8">
    <g id="line2d_10">
     <path d="M 297.27127 263.895524 
L 300.981835 265.06323 
" style="fill: none; stroke: #000000; stroke-width: 0.8; stroke-linecap: square"/>
    </g>
    <g id="text_8">
     <!-- −50 -->
     <g transform="translate(300.562602 284.997273) scale(0.1 -0.1)">
      <defs>
       <path id="DejaVuSans-35" d="M 691 4666 
L 3169 4666 
L 3169 4134 
L 1269 4134 
L 1269 2991 
Q 1406 3038 1543 3061 
Q 1681 3084 1819 3084 
Q 2600 3084 3056 2656 
Q 3513 2228 3513 1497 
Q 3513 744 3044 326 
Q 2575 -91 1722 -91 
Q 1428 -91 1123 -41 
Q 819 9 494 109 
L 494 744 
Q 775 591 1075 516 
Q 1375 441 1709 441 
Q 2250 441 2565 725 
Q 2881 1009 2881 1497 
Q 2881 1984 2565 2268 
Q 2250 2553 1709 2553 
Q 1456 2553 1204 2497 
Q 953 2441 691 2322 
L 691 4666 
z
" transform="scale(0.015625)"/>
      </defs>
      <use xlink:href="#DejaVuSans-2212"/>
      <use xlink:href="#DejaVuSans-35" x="83.789062"/>
      <use xlink:href="#DejaVuSans-30" x="147.412109"/>
     </g>
    </g>
   </g>
   <g id="xtick_9">
    <g id="line2d_11">
     <path d="M 313.09826 247.682234 
L 316.763258 248.809271 
" style="fill: none; stroke: #000000; stroke-width: 0.8; stroke-linecap: square"/>
    </g>
    <g id="text_9">
     <!-- 0 -->
     <g transform="translate(323.533045 268.530628) scale(0.1 -0.1)">
      <use xlink:href="#DejaVuSans-30"/>
     </g>
    </g>
   </g>
   <g id="xtick_10">
    <g id="line2d_12">
     <path d="M 328.37908 232.028444 
L 331.999419 233.116901 
" style="fill: none; stroke: #000000; stroke-width: 0.8; stroke-linecap: square"/>
    </g>
    <g id="text_10">
     <!-- 50 -->
     <g transform="translate(335.412306 252.632778) scale(0.1 -0.1)">
      <use xlink:href="#DejaVuSans-35"/>
      <use xlink:href="#DejaVuSans-30" x="63.623047"/>
     </g>
    </g>
   </g>
   <g id="xtick_11">
    <g id="line2d_13">
     <path d="M 343.141523 216.905684 
L 346.718097 217.957509 
" style="fill: none; stroke: #000000; stroke-width: 0.8; stroke-linecap: square"/>
    </g>
    <g id="text_11">
     <!-- 100 -->
     <g transform="translate(346.780175 237.274753) scale(0.1 -0.1)">
      <use xlink:href="#DejaVuSans-31"/>
      <use xlink:href="#DejaVuSans-30" x="63.623047"/>
      <use xlink:href="#DejaVuSans-30" x="127.246094"/>
     </g>
    </g>
   </g>
  </g>
  <g id="axis3d_3">
   <g id="line2d_14">
    <path d="M 352.090401 209.294766 
L 357.122702 99.402171 
" style="fill: none; stroke: #000000; stroke-width: 0.8; stroke-linecap: square"/>
   </g>
   <g id="xtick_12">
    <g id="line2d_15">
     <path d="M 351.432471 197.349869 
L 355.003229 198.373704 
" style="fill: none; stroke: #000000; stroke-width: 0.8; stroke-linecap: square"/>
    </g>
    <g id="text_12">
     <!-- −100 -->
     <g transform="translate(357.221283 202.706985) scale(0.1 -0.1)">
      <use xlink:href="#DejaVuSans-2212"/>
      <use xlink:href="#DejaVuSans-31" x="83.789062"/>
      <use xlink:href="#DejaVuSans-30" x="147.412109"/>
      <use xlink:href="#DejaVuSans-30" x="211.035156"/>
     </g>
    </g>
   </g>
   <g id="xtick_13">
    <g id="line2d_16">
     <path d="M 352.383454 176.358779 
L 355.985801 177.366048 
" style="fill: none; stroke: #000000; stroke-width: 0.8; stroke-linecap: square"/>
    </g>
    <g id="text_13">
     <!-- −50 -->
     <g transform="translate(361.516812 181.75223) scale(0.1 -0.1)">
      <use xlink:href="#DejaVuSans-2212"/>
      <use xlink:href="#DejaVuSans-35" x="83.789062"/>
      <use xlink:href="#DejaVuSans-30" x="147.412109"/>
     </g>
    </g>
   </g>
   <g id="xtick_14">
    <g id="line2d_17">
     <path d="M 353.350771 155.007118 
L 356.985271 155.9971 
" style="fill: none; stroke: #000000; stroke-width: 0.8; stroke-linecap: square"/>
    </g>
    <g id="text_14">
     <!-- 0 -->
     <g transform="translate(370.021274 160.438486) scale(0.1 -0.1)">
      <use xlink:href="#DejaVuSans-30"/>
     </g>
    </g>
   </g>
   <g id="xtick_15">
    <g id="line2d_18">
     <path d="M 354.334849 133.285516 
L 358.00208 134.257456 
" style="fill: none; stroke: #000000; stroke-width: 0.8; stroke-linecap: square"/>
    </g>
    <g id="text_15">
     <!-- 50 -->
     <g transform="translate(367.992976 138.756449) scale(0.1 -0.1)">
      <use xlink:href="#DejaVuSans-35"/>
      <use xlink:href="#DejaVuSans-30" x="63.623047"/>
     </g>
    </g>
   </g>
   <g id="xtick_16">
    <g id="line2d_19">
     <path d="M 355.336126 111.184274 
L 359.036682 112.137387 
" style="fill: none; stroke: #000000; stroke-width: 0.8; stroke-linecap: square"/>
    </g>
    <g id="text_16">
     <!-- 100 -->
     <g transform="translate(365.984775 116.696489) scale(0.1 -0.1)">
      <use xlink:href="#DejaVuSans-31"/>
      <use xlink:href="#DejaVuSans-30" x="63.623047"/>
      <use xlink:href="#DejaVuSans-30" x="127.246094"/>
     </g>
    </g>
   </g>
  </g>
  <g id="axes_1">
   <g id="Path3DCollection_1">
    <defs>
     <path id="C0_0_b1b1afe61f" d="M 0 2.236068 
C 0.593012 2.236068 1.161816 2.000462 1.581139 1.581139 
C 2.000462 1.161816 2.236068 0.593012 2.236068 -0 
C 2.236068 -0.593012 2.000462 -1.161816 1.581139 -1.581139 
C 1.161816 -2.000462 0.593012 -2.236068 0 -2.236068 
C -0.593012 -2.236068 -1.161816 -2.000462 -1.581139 -1.581139 
C -2.000462 -1.161816 -2.236068 -0.593012 -2.236068 0 
C -2.236068 0.593012 -2.000462 1.161816 -1.581139 1.581139 
C -1.161816 2.000462 -0.593012 2.236068 0 2.236068 
z
"/>
    </defs>
    <g clip-path="url(#p4a1be668c8)">
     <use xlink:href="#C0_0_b1b1afe61f" x="208.912305" y="155.248777" style="fill: #560060; stroke: #560060"/>
    </g>
    <g clip-path="url(#p4a1be668c8)">
     <use xlink:href="#C0_0_b1b1afe61f" x="281.079391" y="173.824966" style="fill: #ef00ff; stroke: #ef00ff"/>
    </g>
    <g clip-path="url(#p4a1be668c8)">
     <use xlink:href="#C0_0_b1b1afe61f" x="205.036587" y="167.819742" style="fill: #27097a; stroke: #27097a"/>
    </g>
    <g clip-path="url(#p4a1be668c8)">
     <use xlink:href="#C0_0_b1b1afe61f" x="209.645328" y="141.315851" style="fill: #680030; stroke: #680030"/>
    </g>
    <g clip-path="url(#p4a1be668c8)">
     <use xlink:href="#C0_0_b1b1afe61f" x="244.184104" y="165.773487" style="fill: #9b00a8; stroke: #9b00a8"/>
    </g>
    <g clip-path="url(#p4a1be668c8)">
     <use xlink:href="#C0_0_b1b1afe61f" x="189.720907" y="152.861291" style="fill: #310035; stroke: #310035"/>
    </g>
    <g clip-path="url(#p4a1be668c8)">
     <use xlink:href="#C0_0_b1b1afe61f" x="190.328783" y="144.191851" style="fill: #3b001c; stroke: #3b001c"/>
    </g>
    <g clip-path="url(#p4a1be668c8)">
     <use xlink:href="#C0_0_b1b1afe61f" x="274.681185" y="196.66984" style="fill: #8b69ff; stroke: #8b69ff"/>
    </g>
    <g clip-path="url(#p4a1be668c8)">
     <use xlink:href="#C0_0_b1b1afe61f" x="186.576693" y="160.895685" style="fill: #141142; stroke: #141142"/>
    </g>
    <g clip-path="url(#p4a1be668c8)">
     <use xlink:href="#C0_0_b1b1afe61f" x="245.659632" y="148.212038" style="fill: #b60067; stroke: #b60067"/>
    </g>
    <g clip-path="url(#p4a1be668c8)">
     <use xlink:href="#C0_0_b1b1afe61f" x="283.04056" y="149.891328" style="fill: #ff00a0; stroke: #ff00a0"/>
    </g>
    <g clip-path="url(#p4a1be668c8)">
     <use xlink:href="#C0_0_b1b1afe61f" x="238.891985" y="182.233522" style="fill: #5849cb; stroke: #5849cb"/>
    </g>
    <g clip-path="url(#p4a1be668c8)">
     <use xlink:href="#C0_0_b1b1afe61f" x="188.768957" y="139.235524" style="fill: #3a0200; stroke: #3a0200"/>
    </g>
    <g clip-path="url(#p4a1be668c8)">
     <use xlink:href="#C0_0_b1b1afe61f" x="207.625936" y="128.027046" style="fill: #670000; stroke: #670000"/>
    </g>
    <g clip-path="url(#p4a1be668c8)">
     <use xlink:href="#C0_0_b1b1afe61f" x="167.638604" y="149.7118" style="stroke: #000000"/>
    </g>
    <g clip-path="url(#p4a1be668c8)">
     <use xlink:href="#C0_0_b1b1afe61f" x="179.35861" y="167.430879" style="fill: #002739; stroke: #002739"/>
    </g>
    <g clip-path="url(#p4a1be668c8)">
     <use xlink:href="#C0_0_b1b1afe61f" x="183.873356" y="143.386046" style="fill: #2a1b00; stroke: #2a1b00"/>
    </g>
    <g clip-path="url(#p4a1be668c8)">
     <use xlink:href="#C0_0_b1b1afe61f" x="181.394759" y="164.889244" style="fill: #002735; stroke: #002735"/>
    </g>
    <g clip-path="url(#p4a1be668c8)">
     <use xlink:href="#C0_0_b1b1afe61f" x="243.313182" y="131.218935" style="fill: #b42a13; stroke: #b42a13"/>
    </g>
    <g clip-path="url(#p4a1be668c8)">
     <use xlink:href="#C0_0_b1b1afe61f" x="200.458859" y="158.86113" style="fill: #383636; stroke: #383636"/>
    </g>
    <g clip-path="url(#p4a1be668c8)">
     <use xlink:href="#C0_0_b1b1afe61f" x="189.482601" y="167.158959" style="fill: #003341; stroke: #003341"/>
    </g>
    <g clip-path="url(#p4a1be668c8)">
     <use xlink:href="#C0_0_b1b1afe61f" x="192.855003" y="180.229854" style="fill: #004269; stroke: #004269"/>
    </g>
    <g clip-path="url(#p4a1be668c8)">
     <use xlink:href="#C0_0_b1b1afe61f" x="200.014453" y="133.64057" style="fill: #4c2d00; stroke: #4c2d00"/>
    </g>
    <g clip-path="url(#p4a1be668c8)">
     <use xlink:href="#C0_0_b1b1afe61f" x="285.57369" y="130.319272" style="fill: #ff5236; stroke: #ff5236"/>
    </g>
    <g clip-path="url(#p4a1be668c8)">
     <use xlink:href="#C0_0_b1b1afe61f" x="176.135683" y="154.199693" style="fill: #002c00; stroke: #002c00"/>
    </g>
    <g clip-path="url(#p4a1be668c8)">
     <use xlink:href="#C0_0_b1b1afe61f" x="173.399075" y="166.066513" style="fill: #00301f; stroke: #00301f"/>
    </g>
    <g clip-path="url(#p4a1be668c8)">
     <use xlink:href="#C0_0_b1b1afe61f" x="227.181409" y="173.768816" style="fill: #4d6b74; stroke: #4d6b74"/>
    </g>
    <g clip-path="url(#p4a1be668c8)">
     <use xlink:href="#C0_0_b1b1afe61f" x="236.497685" y="169.05029" style="fill: #727070; stroke: #727070"/>
    </g>
    <g clip-path="url(#p4a1be668c8)">
     <use xlink:href="#C0_0_b1b1afe61f" x="234.418681" y="175.472837" style="fill: #5b777f; stroke: #5b777f"/>
    </g>
    <g clip-path="url(#p4a1be668c8)">
     <use xlink:href="#C0_0_b1b1afe61f" x="225.989665" y="195.772419" style="fill: #0081b3; stroke: #0081b3"/>
    </g>
    <g clip-path="url(#p4a1be668c8)">
     <use xlink:href="#C0_0_b1b1afe61f" x="249.37381" y="176.51411" style="fill: #7e8d8e; stroke: #7e8d8e"/>
    </g>
    <g clip-path="url(#p4a1be668c8)">
     <use xlink:href="#C0_0_b1b1afe61f" x="256.716463" y="178.581081" style="fill: #8a9a9b; stroke: #8a9a9b"/>
    </g>
    <g clip-path="url(#p4a1be668c8)">
     <use xlink:href="#C0_0_b1b1afe61f" x="304.275648" y="187.608757" style="fill: #facefd; stroke: #facefd"/>
    </g>
    <g clip-path="url(#p4a1be668c8)">
     <use xlink:href="#C0_0_b1b1afe61f" x="305.337752" y="180.093662" style="fill: #ffcae1; stroke: #ffcae1"/>
    </g>
    <g clip-path="url(#p4a1be668c8)">
     <use xlink:href="#C0_0_b1b1afe61f" x="273.648977" y="179.553974" style="fill: #b4b0b0; stroke: #b4b0b0"/>
    </g>
    <g clip-path="url(#p4a1be668c8)">
     <use xlink:href="#C0_0_b1b1afe61f" x="234.394473" y="124.933878" style="fill: #8b6600; stroke: #8b6600"/>
    </g>
    <g clip-path="url(#p4a1be668c8)">
     <use xlink:href="#C0_0_b1b1afe61f" x="301.384802" y="195.411471" style="fill: #d8deff; stroke: #d8deff"/>
    </g>
    <g clip-path="url(#p4a1be668c8)">
     <use xlink:href="#C0_0_b1b1afe61f" x="185.851399" y="154.443053" style="fill: #004c00; stroke: #004c00"/>
    </g>
    <g clip-path="url(#p4a1be668c8)">
     <use xlink:href="#C0_0_b1b1afe61f" x="257.7977" y="217.12585" style="fill: #00c6ff; stroke: #00c6ff"/>
    </g>
    <g clip-path="url(#p4a1be668c8)">
     <use xlink:href="#C0_0_b1b1afe61f" x="304.178412" y="176.315522" style="fill: #ffd3c5; stroke: #ffd3c5"/>
    </g>
    <g clip-path="url(#p4a1be668c8)">
     <use xlink:href="#C0_0_b1b1afe61f" x="178.204882" y="181.965683" style="fill: #005536; stroke: #005536"/>
    </g>
    <g clip-path="url(#p4a1be668c8)">
     <use xlink:href="#C0_0_b1b1afe61f" x="297.7787" y="199.398889" style="fill: #b5f0ff; stroke: #b5f0ff"/>
    </g>
    <g clip-path="url(#p4a1be668c8)">
     <use xlink:href="#C0_0_b1b1afe61f" x="306.709741" y="185.852843" style="fill: #f5eddc; stroke: #f5eddc"/>
    </g>
    <g clip-path="url(#p4a1be668c8)">
     <use xlink:href="#C0_0_b1b1afe61f" x="316.033447" y="192.530836" style="fill: #ffffff; stroke: #ffffff"/>
    </g>
    <g clip-path="url(#p4a1be668c8)">
     <use xlink:href="#C0_0_b1b1afe61f" x="312.19148" y="187.388473" style="fill: #fff7e6; stroke: #fff7e6"/>
    </g>
    <g clip-path="url(#p4a1be668c8)">
     <use xlink:href="#C0_0_b1b1afe61f" x="300.898067" y="179.055997" style="fill: #f0e5b8; stroke: #f0e5b8"/>
    </g>
    <g clip-path="url(#p4a1be668c8)">
     <use xlink:href="#C0_0_b1b1afe61f" x="220.109573" y="164.575954" style="fill: #008e00; stroke: #008e00"/>
    </g>
    <g clip-path="url(#p4a1be668c8)">
     <use xlink:href="#C0_0_b1b1afe61f" x="280.563136" y="121.6082" style="fill: #eeae00; stroke: #eeae00"/>
    </g>
    <g clip-path="url(#p4a1be668c8)">
     <use xlink:href="#C0_0_b1b1afe61f" x="213.714264" y="194.022352" style="fill: #00996f; stroke: #00996f"/>
    </g>
    <g clip-path="url(#p4a1be668c8)">
     <use xlink:href="#C0_0_b1b1afe61f" x="295.846331" y="196.705887" style="fill: #adf9e5; stroke: #adf9e5"/>
    </g>
    <g clip-path="url(#p4a1be668c8)">
     <use xlink:href="#C0_0_b1b1afe61f" x="297.247723" y="188.225326" style="fill: #c9f5c7; stroke: #c9f5c7"/>
    </g>
    <g clip-path="url(#p4a1be668c8)">
     <use xlink:href="#C0_0_b1b1afe61f" x="250.005243" y="173.33583" style="fill: #00da00; stroke: #00da00"/>
    </g>
    <g clip-path="url(#p4a1be668c8)">
     <use xlink:href="#C0_0_b1b1afe61f" x="240.479846" y="216.068863" style="fill: #00ecac; stroke: #00ecac"/>
    </g>
   </g>
  </g>
 </g>
 <defs>
  <clipPath id="p4a1be668c8">
   <rect x="103.104" y="41.472" width="266.112" height="266.112"/>
  </clipPath>
 </defs>
</svg>
