<?xml version="1.0" encoding="utf-8" standalone="no"?>
<!DOCTYPE svg PUBLIC "-//W3C//DTD SVG 1.1//EN"
  "http://www.w3.org/Graphics/SVG/1.1/DTD/svg11.dtd">
<svg xmlns:xlink="http://www.w3.org/1999/xlink" width="460.8pt" height="345.6pt" viewBox="0 0 460.8 345.6" xmlns="http://www.w3.org/2000/svg" version="1.1">
 <metadata>
  <rdf:RDF xmlns:dc="http://purl.org/dc/elements/1.1/" xmlns:cc="http://creativecommons.org/ns#" xmlns:rdf="http://www.w3.org/1999/02/22-rdf-syntax-ns#">
   <cc:Work>
    <dc:type rdf:resource="http://purl.org/dc/dcmitype/StillImage"/>
    <dc:date>2024-06-02T14:35:19.354670</dc:date>
    <dc:format>image/svg+xml</dc:format>
    <dc:creator>
     <cc:Agent>
      <dc:title>Matplotlib v3.9.0, https://matplotlib.org/</dc:title>
     </cc:Agent>
    </dc:creator>
   </cc:Work>
  </rdf:RDF>
 </metadata>
 <defs>
  <style type="text/css">*{stroke-linejoin: round; stroke-linecap: butt}</style>
 </defs>
 <g id="figure_1">
  <g id="patch_1">
   <path d="M 0 345.6 
L 460.8 345.6 
L 460.8 0 
L 0 0 
z
" style="fill: #ffffff"/>
  </g>
  <g id="patch_2">
   <path d="M 103.104 307.584 
L 369.216 307.584 
L 369.216 41.472 
L 103.104 41.472 
z
" style="fill: #ffffff"/>
  </g>
  <g id="pane3d_1">
   <g id="patch_3">
    <path d="M 123.197291 241.969309 
L 211.076164 168.307495 
L 209.854564 62.073991 
L 117.770234 129.272941 
" style="fill: #f2f2f2; opacity: 0.5; stroke: #f2f2f2; stroke-linejoin: miter"/>
   </g>
  </g>
  <g id="pane3d_2">
   <g id="patch_4">
    <path d="M 211.076164 168.307495 
L 352.090401 209.294766 
L 357.122702 99.402171 
L 209.854564 62.073991 
" style="fill: #e6e6e6; opacity: 0.5; stroke: #e6e6e6; stroke-linejoin: miter"/>
   </g>
  </g>
  <g id="pane3d_3">
   <g id="patch_5">
    <path d="M 123.197291 241.969309 
L 272.679269 290.790123 
L 352.090401 209.294766 
L 211.076164 168.307495 
" style="fill: #ececec; opacity: 0.5; stroke: #ececec; stroke-linejoin: miter"/>
   </g>
  </g>
  <g id="grid3d_1">
   <g id="Line3DCollection_1">
    <path d="M 123.197291 241.969309 
L 211.076164 168.307495 
L 209.854564 62.073991 
" style="fill: none; stroke: #b0b0b0; stroke-width: 0.8"/>
    <path d="M 151.852268 251.328024 
L 238.204516 176.192636 
L 238.13777 69.242959 
" style="fill: none; stroke: #b0b0b0; stroke-width: 0.8"/>
    <path d="M 181.108421 260.883084 
L 265.854616 184.229428 
L 266.988571 76.555796 
" style="fill: none; stroke: #b0b0b0; stroke-width: 0.8"/>
    <path d="M 210.984869 270.640732 
L 294.041663 192.42229 
L 296.424225 84.016876 
" style="fill: none; stroke: #b0b0b0; stroke-width: 0.8"/>
    <path d="M 241.501551 280.60748 
L 322.781451 200.775812 
L 326.462699 91.630754 
" style="fill: none; stroke: #b0b0b0; stroke-width: 0.8"/>
    <path d="M 272.679269 290.790123 
L 352.090401 209.294766 
L 357.122702 99.402171 
" style="fill: none; stroke: #b0b0b0; stroke-width: 0.8"/>
   </g>
  </g>
  <g id="grid3d_2">
   <g id="Line3DCollection_2">
    <path d="M 128.711153 121.288756 
L 133.603657 233.246487 
L 282.119571 281.10205 
" style="fill: none; stroke: #b0b0b0; stroke-width: 0.8"/>
    <path d="M 147.707416 107.426149 
L 151.694086 218.08273 
L 298.507083 264.284432 
" style="fill: none; stroke: #b0b0b0; stroke-width: 0.8"/>
    <path d="M 166.040948 94.047172 
L 169.180265 203.425468 
L 314.318915 248.057602 
" style="fill: none; stroke: #b0b0b0; stroke-width: 0.8"/>
    <path d="M 183.745836 81.126951 
L 186.091971 189.249742 
L 329.584879 232.390968 
" style="fill: none; stroke: #b0b0b0; stroke-width: 0.8"/>
    <path d="M 200.853869 68.642288 
L 202.457055 175.532203 
L 344.332762 217.256012 
" style="fill: none; stroke: #b0b0b0; stroke-width: 0.8"/>
   </g>
  </g>
  <g id="grid3d_3">
   <g id="Line3DCollection_3">
    <path d="M 352.621776 197.690875 
L 210.946928 157.06878 
L 122.625095 230.087293 
" style="fill: none; stroke: #b0b0b0; stroke-width: 0.8"/>
    <path d="M 353.583272 176.694266 
L 210.713229 136.745679 
L 121.589221 208.576681 
" style="fill: none; stroke: #b0b0b0; stroke-width: 0.8"/>
    <path d="M 354.56129 155.336845 
L 210.475707 116.09016 
L 120.53486 186.682207 
" style="fill: none; stroke: #b0b0b0; stroke-width: 0.8"/>
    <path d="M 355.556261 133.609231 
L 210.234268 95.094 
L 119.461515 164.393502 
" style="fill: none; stroke: #b0b0b0; stroke-width: 0.8"/>
    <path d="M 356.568628 111.501716 
L 209.988814 73.748702 
L 118.368668 141.699822 
" style="fill: none; stroke: #b0b0b0; stroke-width: 0.8"/>
   </g>
  </g>
  <g id="axis3d_1">
   <g id="line2d_1">
    <path d="M 123.197291 241.969309 
L 272.679269 290.790123 
" style="fill: none; stroke: #000000; stroke-width: 0.8; stroke-linecap: square"/>
   </g>
   <g id="xtick_1">
    <g id="line2d_2">
     <path d="M 123.962332 241.328036 
L 121.663937 243.254597 
" style="fill: none; stroke: #000000; stroke-width: 0.8; stroke-linecap: square"/>
    </g>
    <g id="text_1">
     <!-- 0 -->
     <g transform="translate(112.478153 265.215952) scale(0.1 -0.1)">
      <defs>
       <path id="DejaVuSans-30" d="M 2034 4250 
Q 1547 4250 1301 3770 
Q 1056 3291 1056 2328 
Q 1056 1369 1301 889 
Q 1547 409 2034 409 
Q 2525 409 2770 889 
Q 3016 1369 3016 2328 
Q 3016 3291 2770 3770 
Q 2525 4250 2034 4250 
z
M 2034 4750 
Q 2819 4750 3233 4129 
Q 3647 3509 3647 2328 
Q 3647 1150 3233 529 
Q 2819 -91 2034 -91 
Q 1250 -91 836 529 
Q 422 1150 422 2328 
Q 422 3509 836 4129 
Q 1250 4750 2034 4750 
z
" transform="scale(0.015625)"/>
      </defs>
      <use xlink:href="#DejaVuSans-30"/>
     </g>
    </g>
   </g>
   <g id="xtick_2">
    <g id="line2d_3">
     <path d="M 152.604651 250.673373 
L 150.344251 252.640155 
" style="fill: none; stroke: #000000; stroke-width: 0.8; stroke-linecap: square"/>
    </g>
    <g id="text_2">
     <!-- 20 -->
     <g transform="translate(137.980611 274.772756) scale(0.1 -0.1)">
      <defs>
       <path id="DejaVuSans-32" d="M 1228 531 
L 3431 531 
L 3431 0 
L 469 0 
L 469 531 
Q 828 903 1448 1529 
Q 2069 2156 2228 2338 
Q 2531 2678 2651 2914 
Q 2772 3150 2772 3378 
Q 2772 3750 2511 3984 
Q 2250 4219 1831 4219 
Q 1534 4219 1204 4116 
Q 875 4013 500 3803 
L 500 4441 
Q 881 4594 1212 4672 
Q 1544 4750 1819 4750 
Q 2544 4750 2975 4387 
Q 3406 4025 3406 3419 
Q 3406 3131 3298 2873 
Q 3191 2616 2906 2266 
Q 2828 2175 2409 1742 
Q 1991 1309 1228 531 
z
" transform="scale(0.015625)"/>
      </defs>
      <use xlink:href="#DejaVuSans-32"/>
      <use xlink:href="#DejaVuSans-30" x="63.623047"/>
     </g>
    </g>
   </g>
   <g id="xtick_3">
    <g id="line2d_4">
     <path d="M 181.847444 260.214631 
L 179.627148 262.222908 
" style="fill: none; stroke: #000000; stroke-width: 0.8; stroke-linecap: square"/>
    </g>
    <g id="text_3">
     <!-- 40 -->
     <g transform="translate(167.268374 284.530818) scale(0.1 -0.1)">
      <defs>
       <path id="DejaVuSans-34" d="M 2419 4116 
L 825 1625 
L 2419 1625 
L 2419 4116 
z
M 2253 4666 
L 3047 4666 
L 3047 1625 
L 3713 1625 
L 3713 1100 
L 3047 1100 
L 3047 0 
L 2419 0 
L 2419 1100 
L 313 1100 
L 313 1709 
L 2253 4666 
z
" transform="scale(0.015625)"/>
      </defs>
      <use xlink:href="#DejaVuSans-34"/>
      <use xlink:href="#DejaVuSans-30" x="63.623047"/>
     </g>
    </g>
   </g>
   <g id="xtick_4">
    <g id="line2d_5">
     <path d="M 211.709793 269.958037 
L 209.531821 272.009134 
" style="fill: none; stroke: #000000; stroke-width: 0.8; stroke-linecap: square"/>
    </g>
    <g id="text_4">
     <!-- 60 -->
     <g transform="translate(197.179476 294.496563) scale(0.1 -0.1)">
      <defs>
       <path id="DejaVuSans-36" d="M 2113 2584 
Q 1688 2584 1439 2293 
Q 1191 2003 1191 1497 
Q 1191 994 1439 701 
Q 1688 409 2113 409 
Q 2538 409 2786 701 
Q 3034 994 3034 1497 
Q 3034 2003 2786 2293 
Q 2538 2584 2113 2584 
z
M 3366 4563 
L 3366 3988 
Q 3128 4100 2886 4159 
Q 2644 4219 2406 4219 
Q 1781 4219 1451 3797 
Q 1122 3375 1075 2522 
Q 1259 2794 1537 2939 
Q 1816 3084 2150 3084 
Q 2853 3084 3261 2657 
Q 3669 2231 3669 1497 
Q 3669 778 3244 343 
Q 2819 -91 2113 -91 
Q 1303 -91 875 529 
Q 447 1150 447 2328 
Q 447 3434 972 4092 
Q 1497 4750 2381 4750 
Q 2619 4750 2861 4703 
Q 3103 4656 3366 4563 
z
" transform="scale(0.015625)"/>
      </defs>
      <use xlink:href="#DejaVuSans-36"/>
      <use xlink:href="#DejaVuSans-30" x="63.623047"/>
     </g>
    </g>
   </g>
   <g id="xtick_5">
    <g id="line2d_6">
     <path d="M 242.2116 279.910082 
L 240.078285 282.005386 
" style="fill: none; stroke: #000000; stroke-width: 0.8; stroke-linecap: square"/>
    </g>
    <g id="text_5">
     <!-- 80 -->
     <g transform="translate(227.734032 304.676694) scale(0.1 -0.1)">
      <defs>
       <path id="DejaVuSans-38" d="M 2034 2216 
Q 1584 2216 1326 1975 
Q 1069 1734 1069 1313 
Q 1069 891 1326 650 
Q 1584 409 2034 409 
Q 2484 409 2743 651 
Q 3003 894 3003 1313 
Q 3003 1734 2745 1975 
Q 2488 2216 2034 2216 
z
M 1403 2484 
Q 997 2584 770 2862 
Q 544 3141 544 3541 
Q 544 4100 942 4425 
Q 1341 4750 2034 4750 
Q 2731 4750 3128 4425 
Q 3525 4100 3525 3541 
Q 3525 3141 3298 2862 
Q 3072 2584 2669 2484 
Q 3125 2378 3379 2068 
Q 3634 1759 3634 1313 
Q 3634 634 3220 271 
Q 2806 -91 2034 -91 
Q 1263 -91 848 271 
Q 434 634 434 1313 
Q 434 1759 690 2068 
Q 947 2378 1403 2484 
z
M 1172 3481 
Q 1172 3119 1398 2916 
Q 1625 2713 2034 2713 
Q 2441 2713 2670 2916 
Q 2900 3119 2900 3481 
Q 2900 3844 2670 4047 
Q 2441 4250 2034 4250 
Q 1625 4250 1398 4047 
Q 1172 3844 1172 3481 
z
" transform="scale(0.015625)"/>
      </defs>
      <use xlink:href="#DejaVuSans-38"/>
      <use xlink:href="#DejaVuSans-30" x="63.623047"/>
     </g>
    </g>
   </g>
   <g id="xtick_6">
    <g id="line2d_7">
     <path d="M 273.373625 290.077542 
L 271.287426 292.218496 
" style="fill: none; stroke: #000000; stroke-width: 0.8; stroke-linecap: square"/>
    </g>
    <g id="text_6">
     <!-- 100 -->
     <g transform="translate(255.771781 315.078203) scale(0.1 -0.1)">
      <defs>
       <path id="DejaVuSans-31" d="M 794 531 
L 1825 531 
L 1825 4091 
L 703 3866 
L 703 4441 
L 1819 4666 
L 2450 4666 
L 2450 531 
L 3481 531 
L 3481 0 
L 794 0 
L 794 531 
z
" transform="scale(0.015625)"/>
      </defs>
      <use xlink:href="#DejaVuSans-31"/>
      <use xlink:href="#DejaVuSans-30" x="63.623047"/>
      <use xlink:href="#DejaVuSans-30" x="127.246094"/>
     </g>
    </g>
   </g>
  </g>
  <g id="axis3d_2">
   <g id="line2d_8">
    <path d="M 352.090401 209.294766 
L 272.679269 290.790123 
" style="fill: none; stroke: #000000; stroke-width: 0.8; stroke-linecap: square"/>
   </g>
   <g id="xtick_7">
    <g id="line2d_9">
     <path d="M 280.868295 280.698857 
L 284.625346 281.909474 
" style="fill: none; stroke: #000000; stroke-width: 0.8; stroke-linecap: square"/>
    </g>
    <g id="text_7">
     <!-- −100 -->
     <g transform="translate(281.213722 302.063796) scale(0.1 -0.1)">
      <defs>
       <path id="DejaVuSans-2212" d="M 678 2272 
L 4684 2272 
L 4684 1741 
L 678 1741 
L 678 2272 
z
" transform="scale(0.015625)"/>
      </defs>
      <use xlink:href="#DejaVuSans-2212"/>
      <use xlink:href="#DejaVuSans-31" x="83.789062"/>
      <use xlink:href="#DejaVuSans-30" x="147.412109"/>
      <use xlink:href="#DejaVuSans-30" x="211.035156"/>
     </g>
    </g>
   </g>
   <g id="xtick_8">
    <g id="line2d_10">
     <path d="M 297.27127 263.895524 
L 300.981835 265.06323 
" style="fill: none; stroke: #000000; stroke-width: 0.8; stroke-linecap: square"/>
    </g>
    <g id="text_8">
     <!-- −50 -->
     <g transform="translate(300.562602 284.997273) scale(0.1 -0.1)">
      <defs>
       <path id="DejaVuSans-35" d="M 691 4666 
L 3169 4666 
L 3169 4134 
L 1269 4134 
L 1269 2991 
Q 1406 3038 1543 3061 
Q 1681 3084 1819 3084 
Q 2600 3084 3056 2656 
Q 3513 2228 3513 1497 
Q 3513 744 3044 326 
Q 2575 -91 1722 -91 
Q 1428 -91 1123 -41 
Q 819 9 494 109 
L 494 744 
Q 775 591 1075 516 
Q 1375 441 1709 441 
Q 2250 441 2565 725 
Q 2881 1009 2881 1497 
Q 2881 1984 2565 2268 
Q 2250 2553 1709 2553 
Q 1456 2553 1204 2497 
Q 953 2441 691 2322 
L 691 4666 
z
" transform="scale(0.015625)"/>
      </defs>
      <use xlink:href="#DejaVuSans-2212"/>
      <use xlink:href="#DejaVuSans-35" x="83.789062"/>
      <use xlink:href="#DejaVuSans-30" x="147.412109"/>
     </g>
    </g>
   </g>
   <g id="xtick_9">
    <g id="line2d_11">
     <path d="M 313.09826 247.682234 
L 316.763258 248.809271 
" style="fill: none; stroke: #000000; stroke-width: 0.8; stroke-linecap: square"/>
    </g>
    <g id="text_9">
     <!-- 0 -->
     <g transform="translate(323.533045 268.530628) scale(0.1 -0.1)">
      <use xlink:href="#DejaVuSans-30"/>
     </g>
    </g>
   </g>
   <g id="xtick_10">
    <g id="line2d_12">
     <path d="M 328.37908 232.028444 
L 331.999419 233.116901 
" style="fill: none; stroke: #000000; stroke-width: 0.8; stroke-linecap: square"/>
    </g>
    <g id="text_10">
     <!-- 50 -->
     <g transform="translate(335.412306 252.632778) scale(0.1 -0.1)">
      <use xlink:href="#DejaVuSans-35"/>
      <use xlink:href="#DejaVuSans-30" x="63.623047"/>
     </g>
    </g>
   </g>
   <g id="xtick_11">
    <g id="line2d_13">
     <path d="M 343.141523 216.905684 
L 346.718097 217.957509 
" style="fill: none; stroke: #000000; stroke-width: 0.8; stroke-linecap: square"/>
    </g>
    <g id="text_11">
     <!-- 100 -->
     <g transform="translate(346.780175 237.274753) scale(0.1 -0.1)">
      <use xlink:href="#DejaVuSans-31"/>
      <use xlink:href="#DejaVuSans-30" x="63.623047"/>
      <use xlink:href="#DejaVuSans-30" x="127.246094"/>
     </g>
    </g>
   </g>
  </g>
  <g id="axis3d_3">
   <g id="line2d_14">
    <path d="M 352.090401 209.294766 
L 357.122702 99.402171 
" style="fill: none; stroke: #000000; stroke-width: 0.8; stroke-linecap: square"/>
   </g>
   <g id="xtick_12">
    <g id="line2d_15">
     <path d="M 351.432471 197.349869 
L 355.003229 198.373704 
" style="fill: none; stroke: #000000; stroke-width: 0.8; stroke-linecap: square"/>
    </g>
    <g id="text_12">
     <!-- −100 -->
     <g transform="translate(357.221283 202.706985) scale(0.1 -0.1)">
      <use xlink:href="#DejaVuSans-2212"/>
      <use xlink:href="#DejaVuSans-31" x="83.789062"/>
      <use xlink:href="#DejaVuSans-30" x="147.412109"/>
      <use xlink:href="#DejaVuSans-30" x="211.035156"/>
     </g>
    </g>
   </g>
   <g id="xtick_13">
    <g id="line2d_16">
     <path d="M 352.383454 176.358779 
L 355.985801 177.366048 
" style="fill: none; stroke: #000000; stroke-width: 0.8; stroke-linecap: square"/>
    </g>
    <g id="text_13">
     <!-- −50 -->
     <g transform="translate(361.516812 181.75223) scale(0.1 -0.1)">
      <use xlink:href="#DejaVuSans-2212"/>
      <use xlink:href="#DejaVuSans-35" x="83.789062"/>
      <use xlink:href="#DejaVuSans-30" x="147.412109"/>
     </g>
    </g>
   </g>
   <g id="xtick_14">
    <g id="line2d_17">
     <path d="M 353.350771 155.007118 
L 356.985271 155.9971 
" style="fill: none; stroke: #000000; stroke-width: 0.8; stroke-linecap: square"/>
    </g>
    <g id="text_14">
     <!-- 0 -->
     <g transform="translate(370.021274 160.438486) scale(0.1 -0.1)">
      <use xlink:href="#DejaVuSans-30"/>
     </g>
    </g>
   </g>
   <g id="xtick_15">
    <g id="line2d_18">
     <path d="M 354.334849 133.285516 
L 358.00208 134.257456 
" style="fill: none; stroke: #000000; stroke-width: 0.8; stroke-linecap: square"/>
    </g>
    <g id="text_15">
     <!-- 50 -->
     <g transform="translate(367.992976 138.756449) scale(0.1 -0.1)">
      <use xlink:href="#DejaVuSans-35"/>
      <use xlink:href="#DejaVuSans-30" x="63.623047"/>
     </g>
    </g>
   </g>
   <g id="xtick_16">
    <g id="line2d_19">
     <path d="M 355.336126 111.184274 
L 359.036682 112.137387 
" style="fill: none; stroke: #000000; stroke-width: 0.8; stroke-linecap: square"/>
    </g>
    <g id="text_16">
     <!-- 100 -->
     <g transform="translate(365.984775 116.696489) scale(0.1 -0.1)">
      <use xlink:href="#DejaVuSans-31"/>
      <use xlink:href="#DejaVuSans-30" x="63.623047"/>
      <use xlink:href="#DejaVuSans-30" x="127.246094"/>
     </g>
    </g>
   </g>
  </g>
  <g id="axes_1">
   <g id="Path3DCollection_1">
    <defs>
     <path id="C0_0_4b22e55992" d="M 0 2.236068 
C 0.593012 2.236068 1.161816 2.000462 1.581139 1.581139 
C 2.000462 1.161816 2.236068 0.593012 2.236068 -0 
C 2.236068 -0.593012 2.000462 -1.161816 1.581139 -1.581139 
C 1.161816 -2.000462 0.593012 -2.236068 0 -2.236068 
C -0.593012 -2.236068 -1.161816 -2.000462 -1.581139 -1.581139 
C -2.000462 -1.161816 -2.236068 -0.593012 -2.236068 0 
C -2.236068 0.593012 -2.000462 1.161816 -1.581139 1.581139 
C -1.161816 2.000462 -0.593012 2.236068 0 2.236068 
z
"/>
    </defs>
    <g clip-path="url(#pc6a80c2de7)">
     <use xlink:href="#C0_0_4b22e55992" x="303.227316" y="199.645597" style="fill: #df41ff; stroke: #df41ff"/>
    </g>
    <g clip-path="url(#pc6a80c2de7)">
     <use xlink:href="#C0_0_4b22e55992" x="218.577312" y="162.847592" style="fill: #5f007f; stroke: #5f007f"/>
    </g>
    <g clip-path="url(#pc6a80c2de7)">
     <use xlink:href="#C0_0_4b22e55992" x="217.586998" y="174.106305" style="fill: #2e14a2; stroke: #2e14a2"/>
    </g>
    <g clip-path="url(#pc6a80c2de7)">
     <use xlink:href="#C0_0_4b22e55992" x="303.264776" y="210.320795" style="fill: #6c88ff; stroke: #6c88ff"/>
    </g>
    <g clip-path="url(#pc6a80c2de7)">
     <use xlink:href="#C0_0_4b22e55992" x="255.695515" y="173.792209" style="fill: #a734cd; stroke: #a734cd"/>
    </g>
    <g clip-path="url(#pc6a80c2de7)">
     <use xlink:href="#C0_0_4b22e55992" x="213.611588" y="145.062652" style="fill: #6d0035; stroke: #6d0035"/>
    </g>
    <g clip-path="url(#pc6a80c2de7)">
     <use xlink:href="#C0_0_4b22e55992" x="249.255197" y="188.61826" style="fill: #5957f1; stroke: #5957f1"/>
    </g>
    <g clip-path="url(#pc6a80c2de7)">
     <use xlink:href="#C0_0_4b22e55992" x="191.706706" y="156.258552" style="fill: #2f1139; stroke: #2f1139"/>
    </g>
    <g clip-path="url(#pc6a80c2de7)">
     <use xlink:href="#C0_0_4b22e55992" x="188.38111" y="161.670946" style="fill: #171a41; stroke: #171a41"/>
    </g>
    <g clip-path="url(#pc6a80c2de7)">
     <use xlink:href="#C0_0_4b22e55992" x="191.030768" y="147.880666" style="fill: #380d1f; stroke: #380d1f"/>
    </g>
    <g clip-path="url(#pc6a80c2de7)">
     <use xlink:href="#C0_0_4b22e55992" x="295.172376" y="149.662093" style="fill: #ff00a8; stroke: #ff00a8"/>
    </g>
    <g clip-path="url(#pc6a80c2de7)">
     <use xlink:href="#C0_0_4b22e55992" x="167.638604" y="149.7118" style="stroke: #000000"/>
    </g>
    <g clip-path="url(#pc6a80c2de7)">
     <use xlink:href="#C0_0_4b22e55992" x="252.696704" y="151.041299" style="fill: #c2286e; stroke: #c2286e"/>
    </g>
    <g clip-path="url(#pc6a80c2de7)">
     <use xlink:href="#C0_0_4b22e55992" x="189.210988" y="142.304923" style="fill: #381102; stroke: #381102"/>
    </g>
    <g clip-path="url(#pc6a80c2de7)">
     <use xlink:href="#C0_0_4b22e55992" x="210.269328" y="132.599576" style="fill: #680f00; stroke: #680f00"/>
    </g>
    <g clip-path="url(#pc6a80c2de7)">
     <use xlink:href="#C0_0_4b22e55992" x="182.726729" y="163.765144" style="fill: #002535; stroke: #002535"/>
    </g>
    <g clip-path="url(#pc6a80c2de7)">
     <use xlink:href="#C0_0_4b22e55992" x="181.394759" y="164.889244" style="fill: #002735; stroke: #002735"/>
    </g>
    <g clip-path="url(#pc6a80c2de7)">
     <use xlink:href="#C0_0_4b22e55992" x="186.322953" y="144.807109" style="fill: #2d1e00; stroke: #2d1e00"/>
    </g>
    <g clip-path="url(#pc6a80c2de7)">
     <use xlink:href="#C0_0_4b22e55992" x="200.458859" y="158.86113" style="fill: #383636; stroke: #383636"/>
    </g>
    <g clip-path="url(#pc6a80c2de7)">
     <use xlink:href="#C0_0_4b22e55992" x="189.482601" y="167.158959" style="fill: #003341; stroke: #003341"/>
    </g>
    <g clip-path="url(#pc6a80c2de7)">
     <use xlink:href="#C0_0_4b22e55992" x="198.272935" y="180.658872" style="fill: #004673; stroke: #004673"/>
    </g>
    <g clip-path="url(#pc6a80c2de7)">
     <use xlink:href="#C0_0_4b22e55992" x="205.038103" y="138.235825" style="fill: #543100; stroke: #543100"/>
    </g>
    <g clip-path="url(#pc6a80c2de7)">
     <use xlink:href="#C0_0_4b22e55992" x="179.423029" y="153.025074" style="fill: #0d2706; stroke: #0d2706"/>
    </g>
    <g clip-path="url(#pc6a80c2de7)">
     <use xlink:href="#C0_0_4b22e55992" x="248.730878" y="128.588702" style="fill: #be4000; stroke: #be4000"/>
    </g>
    <g clip-path="url(#pc6a80c2de7)">
     <use xlink:href="#C0_0_4b22e55992" x="175.94541" y="162.679288" style="fill: #002b1f; stroke: #002b1f"/>
    </g>
    <g clip-path="url(#pc6a80c2de7)">
     <use xlink:href="#C0_0_4b22e55992" x="227.181409" y="173.768816" style="fill: #4d6b74; stroke: #4d6b74"/>
    </g>
    <g clip-path="url(#pc6a80c2de7)">
     <use xlink:href="#C0_0_4b22e55992" x="236.497685" y="169.05029" style="fill: #727070; stroke: #727070"/>
    </g>
    <g clip-path="url(#pc6a80c2de7)">
     <use xlink:href="#C0_0_4b22e55992" x="236.497685" y="169.05029" style="fill: #727070; stroke: #727070"/>
    </g>
    <g clip-path="url(#pc6a80c2de7)">
     <use xlink:href="#C0_0_4b22e55992" x="234.418681" y="175.472837" style="fill: #5b777f; stroke: #5b777f"/>
    </g>
    <g clip-path="url(#pc6a80c2de7)">
     <use xlink:href="#C0_0_4b22e55992" x="234.418681" y="175.472837" style="fill: #5b777f; stroke: #5b777f"/>
    </g>
    <g clip-path="url(#pc6a80c2de7)">
     <use xlink:href="#C0_0_4b22e55992" x="232.081055" y="195.850359" style="fill: #0086be; stroke: #0086be"/>
    </g>
    <g clip-path="url(#pc6a80c2de7)">
     <use xlink:href="#C0_0_4b22e55992" x="307.110994" y="110.137561" style="fill: #ff5d00; stroke: #ff5d00"/>
    </g>
    <g clip-path="url(#pc6a80c2de7)">
     <use xlink:href="#C0_0_4b22e55992" x="322.373604" y="193.61115" style="fill: #ffdcff; stroke: #ffdcff"/>
    </g>
    <g clip-path="url(#pc6a80c2de7)">
     <use xlink:href="#C0_0_4b22e55992" x="249.37381" y="176.51411" style="fill: #7e8d8e; stroke: #7e8d8e"/>
    </g>
    <g clip-path="url(#pc6a80c2de7)">
     <use xlink:href="#C0_0_4b22e55992" x="323.763475" y="176.538117" style="fill: #ffcef5; stroke: #ffcef5"/>
    </g>
    <g clip-path="url(#pc6a80c2de7)">
     <use xlink:href="#C0_0_4b22e55992" x="189.361984" y="154.365698" style="fill: #004700; stroke: #004700"/>
    </g>
    <g clip-path="url(#pc6a80c2de7)">
     <use xlink:href="#C0_0_4b22e55992" x="256.716463" y="178.581081" style="fill: #8a9a9b; stroke: #8a9a9b"/>
    </g>
    <g clip-path="url(#pc6a80c2de7)">
     <use xlink:href="#C0_0_4b22e55992" x="242.837459" y="129.611683" style="fill: #9f6c00; stroke: #9f6c00"/>
    </g>
    <g clip-path="url(#pc6a80c2de7)">
     <use xlink:href="#C0_0_4b22e55992" x="273.648977" y="179.553974" style="fill: #b4b0b0; stroke: #b4b0b0"/>
    </g>
    <g clip-path="url(#pc6a80c2de7)">
     <use xlink:href="#C0_0_4b22e55992" x="269.826985" y="233.057242" style="fill: #00ddff; stroke: #00ddff"/>
    </g>
    <g clip-path="url(#pc6a80c2de7)">
     <use xlink:href="#C0_0_4b22e55992" x="316.787475" y="205.214029" style="fill: #e9f4ff; stroke: #e9f4ff"/>
    </g>
    <g clip-path="url(#pc6a80c2de7)">
     <use xlink:href="#C0_0_4b22e55992" x="320.509834" y="161.699122" style="fill: #ffd7a3; stroke: #ffd7a3"/>
    </g>
    <g clip-path="url(#pc6a80c2de7)">
     <use xlink:href="#C0_0_4b22e55992" x="171.64754" y="186.006111" style="fill: #005237; stroke: #005237"/>
    </g>
    <g clip-path="url(#pc6a80c2de7)">
     <use xlink:href="#C0_0_4b22e55992" x="306.709741" y="185.852843" style="fill: #f5eddc; stroke: #f5eddc"/>
    </g>
    <g clip-path="url(#pc6a80c2de7)">
     <use xlink:href="#C0_0_4b22e55992" x="316.033447" y="192.530836" style="fill: #ffffff; stroke: #ffffff"/>
    </g>
    <g clip-path="url(#pc6a80c2de7)">
     <use xlink:href="#C0_0_4b22e55992" x="223.591389" y="162.727633" style="fill: #2b8a11; stroke: #2b8a11"/>
    </g>
    <g clip-path="url(#pc6a80c2de7)">
     <use xlink:href="#C0_0_4b22e55992" x="312.19148" y="187.388473" style="fill: #fff7e6; stroke: #fff7e6"/>
    </g>
    <g clip-path="url(#pc6a80c2de7)">
     <use xlink:href="#C0_0_4b22e55992" x="308.385072" y="209.702391" style="fill: #abffff; stroke: #abffff"/>
    </g>
    <g clip-path="url(#pc6a80c2de7)">
     <use xlink:href="#C0_0_4b22e55992" x="300.503036" y="120.029975" style="fill: #ffb900; stroke: #ffb900"/>
    </g>
    <g clip-path="url(#pc6a80c2de7)">
     <use xlink:href="#C0_0_4b22e55992" x="209.393023" y="196.91223" style="fill: #009771; stroke: #009771"/>
    </g>
    <g clip-path="url(#pc6a80c2de7)">
     <use xlink:href="#C0_0_4b22e55992" x="311.710553" y="165.232644" style="fill: #fff481; stroke: #fff481"/>
    </g>
    <g clip-path="url(#pc6a80c2de7)">
     <use xlink:href="#C0_0_4b22e55992" x="301.40679" y="204.34875" style="fill: #93fff7; stroke: #93fff7"/>
    </g>
    <g clip-path="url(#pc6a80c2de7)">
     <use xlink:href="#C0_0_4b22e55992" x="302.345666" y="186.407558" style="fill: #caffaf; stroke: #caffaf"/>
    </g>
    <g clip-path="url(#pc6a80c2de7)">
     <use xlink:href="#C0_0_4b22e55992" x="239.434203" y="220.039909" style="fill: #00fdb1; stroke: #00fdb1"/>
    </g>
    <g clip-path="url(#pc6a80c2de7)">
     <use xlink:href="#C0_0_4b22e55992" x="250.54291" y="166.465158" style="fill: #00e000; stroke: #00e000"/>
    </g>
   </g>
  </g>
 </g>
 <defs>
  <clipPath id="pc6a80c2de7">
   <rect x="103.104" y="41.472" width="266.112" height="266.112"/>
  </clipPath>
 </defs>
</svg>
