<?xml version="1.0" encoding="utf-8" standalone="no"?>
<!DOCTYPE svg PUBLIC "-//W3C//DTD SVG 1.1//EN"
  "http://www.w3.org/Graphics/SVG/1.1/DTD/svg11.dtd">
<svg xmlns:xlink="http://www.w3.org/1999/xlink" width="460.8pt" height="345.6pt" viewBox="0 0 460.8 345.6" xmlns="http://www.w3.org/2000/svg" version="1.1">
 <metadata>
  <rdf:RDF xmlns:dc="http://purl.org/dc/elements/1.1/" xmlns:cc="http://creativecommons.org/ns#" xmlns:rdf="http://www.w3.org/1999/02/22-rdf-syntax-ns#">
   <cc:Work>
    <dc:type rdf:resource="http://purl.org/dc/dcmitype/StillImage"/>
    <dc:date>2024-06-03T22:47:48.481936</dc:date>
    <dc:format>image/svg+xml</dc:format>
    <dc:creator>
     <cc:Agent>
      <dc:title>Matplotlib v3.9.0, https://matplotlib.org/</dc:title>
     </cc:Agent>
    </dc:creator>
   </cc:Work>
  </rdf:RDF>
 </metadata>
 <defs>
  <style type="text/css">*{stroke-linejoin: round; stroke-linecap: butt}</style>
 </defs>
 <g id="figure_1">
  <g id="patch_1">
   <path d="M 0 345.6 
L 460.8 345.6 
L 460.8 0 
L 0 0 
z
" style="fill: #ffffff"/>
  </g>
  <g id="patch_2">
   <path d="M 103.104 307.584 
L 369.216 307.584 
L 369.216 41.472 
L 103.104 41.472 
z
" style="fill: #ffffff"/>
  </g>
  <g id="pane3d_1">
   <g id="patch_3">
    <path d="M 123.197291 241.969309 
L 211.076164 168.307495 
L 209.854564 62.073991 
L 117.770234 129.272941 
" style="fill: #f2f2f2; opacity: 0.5; stroke: #f2f2f2; stroke-linejoin: miter"/>
   </g>
  </g>
  <g id="pane3d_2">
   <g id="patch_4">
    <path d="M 211.076164 168.307495 
L 352.090401 209.294766 
L 357.122702 99.402171 
L 209.854564 62.073991 
" style="fill: #e6e6e6; opacity: 0.5; stroke: #e6e6e6; stroke-linejoin: miter"/>
   </g>
  </g>
  <g id="pane3d_3">
   <g id="patch_5">
    <path d="M 123.197291 241.969309 
L 272.679269 290.790123 
L 352.090401 209.294766 
L 211.076164 168.307495 
" style="fill: #ececec; opacity: 0.5; stroke: #ececec; stroke-linejoin: miter"/>
   </g>
  </g>
  <g id="grid3d_1">
   <g id="Line3DCollection_1">
    <path d="M 123.197291 241.969309 
L 211.076164 168.307495 
L 209.854564 62.073991 
" style="fill: none; stroke: #b0b0b0; stroke-width: 0.8"/>
    <path d="M 151.852268 251.328024 
L 238.204516 176.192636 
L 238.13777 69.242959 
" style="fill: none; stroke: #b0b0b0; stroke-width: 0.8"/>
    <path d="M 181.108421 260.883084 
L 265.854616 184.229428 
L 266.988571 76.555796 
" style="fill: none; stroke: #b0b0b0; stroke-width: 0.8"/>
    <path d="M 210.984869 270.640732 
L 294.041663 192.42229 
L 296.424225 84.016876 
" style="fill: none; stroke: #b0b0b0; stroke-width: 0.8"/>
    <path d="M 241.501551 280.60748 
L 322.781451 200.775812 
L 326.462699 91.630754 
" style="fill: none; stroke: #b0b0b0; stroke-width: 0.8"/>
    <path d="M 272.679269 290.790123 
L 352.090401 209.294766 
L 357.122702 99.402171 
" style="fill: none; stroke: #b0b0b0; stroke-width: 0.8"/>
   </g>
  </g>
  <g id="grid3d_2">
   <g id="Line3DCollection_2">
    <path d="M 128.711153 121.288756 
L 133.603657 233.246487 
L 282.119571 281.10205 
" style="fill: none; stroke: #b0b0b0; stroke-width: 0.8"/>
    <path d="M 147.707416 107.426149 
L 151.694086 218.08273 
L 298.507083 264.284432 
" style="fill: none; stroke: #b0b0b0; stroke-width: 0.8"/>
    <path d="M 166.040948 94.047172 
L 169.180265 203.425468 
L 314.318915 248.057602 
" style="fill: none; stroke: #b0b0b0; stroke-width: 0.8"/>
    <path d="M 183.745836 81.126951 
L 186.091971 189.249742 
L 329.584879 232.390968 
" style="fill: none; stroke: #b0b0b0; stroke-width: 0.8"/>
    <path d="M 200.853869 68.642288 
L 202.457055 175.532203 
L 344.332762 217.256012 
" style="fill: none; stroke: #b0b0b0; stroke-width: 0.8"/>
   </g>
  </g>
  <g id="grid3d_3">
   <g id="Line3DCollection_3">
    <path d="M 352.621776 197.690875 
L 210.946928 157.06878 
L 122.625095 230.087293 
" style="fill: none; stroke: #b0b0b0; stroke-width: 0.8"/>
    <path d="M 353.583272 176.694266 
L 210.713229 136.745679 
L 121.589221 208.576681 
" style="fill: none; stroke: #b0b0b0; stroke-width: 0.8"/>
    <path d="M 354.56129 155.336845 
L 210.475707 116.09016 
L 120.53486 186.682207 
" style="fill: none; stroke: #b0b0b0; stroke-width: 0.8"/>
    <path d="M 355.556261 133.609231 
L 210.234268 95.094 
L 119.461515 164.393502 
" style="fill: none; stroke: #b0b0b0; stroke-width: 0.8"/>
    <path d="M 356.568628 111.501716 
L 209.988814 73.748702 
L 118.368668 141.699822 
" style="fill: none; stroke: #b0b0b0; stroke-width: 0.8"/>
   </g>
  </g>
  <g id="axis3d_1">
   <g id="line2d_1">
    <path d="M 123.197291 241.969309 
L 272.679269 290.790123 
" style="fill: none; stroke: #000000; stroke-width: 0.8; stroke-linecap: square"/>
   </g>
   <g id="xtick_1">
    <g id="line2d_2">
     <path d="M 123.962332 241.328036 
L 121.663937 243.254597 
" style="fill: none; stroke: #000000; stroke-width: 0.8; stroke-linecap: square"/>
    </g>
    <g id="text_1">
     <!-- 0 -->
     <g transform="translate(112.478153 265.215952) scale(0.1 -0.1)">
      <defs>
       <path id="DejaVuSans-30" d="M 2034 4250 
Q 1547 4250 1301 3770 
Q 1056 3291 1056 2328 
Q 1056 1369 1301 889 
Q 1547 409 2034 409 
Q 2525 409 2770 889 
Q 3016 1369 3016 2328 
Q 3016 3291 2770 3770 
Q 2525 4250 2034 4250 
z
M 2034 4750 
Q 2819 4750 3233 4129 
Q 3647 3509 3647 2328 
Q 3647 1150 3233 529 
Q 2819 -91 2034 -91 
Q 1250 -91 836 529 
Q 422 1150 422 2328 
Q 422 3509 836 4129 
Q 1250 4750 2034 4750 
z
" transform="scale(0.015625)"/>
      </defs>
      <use xlink:href="#DejaVuSans-30"/>
     </g>
    </g>
   </g>
   <g id="xtick_2">
    <g id="line2d_3">
     <path d="M 152.604651 250.673373 
L 150.344251 252.640155 
" style="fill: none; stroke: #000000; stroke-width: 0.8; stroke-linecap: square"/>
    </g>
    <g id="text_2">
     <!-- 20 -->
     <g transform="translate(137.980611 274.772756) scale(0.1 -0.1)">
      <defs>
       <path id="DejaVuSans-32" d="M 1228 531 
L 3431 531 
L 3431 0 
L 469 0 
L 469 531 
Q 828 903 1448 1529 
Q 2069 2156 2228 2338 
Q 2531 2678 2651 2914 
Q 2772 3150 2772 3378 
Q 2772 3750 2511 3984 
Q 2250 4219 1831 4219 
Q 1534 4219 1204 4116 
Q 875 4013 500 3803 
L 500 4441 
Q 881 4594 1212 4672 
Q 1544 4750 1819 4750 
Q 2544 4750 2975 4387 
Q 3406 4025 3406 3419 
Q 3406 3131 3298 2873 
Q 3191 2616 2906 2266 
Q 2828 2175 2409 1742 
Q 1991 1309 1228 531 
z
" transform="scale(0.015625)"/>
      </defs>
      <use xlink:href="#DejaVuSans-32"/>
      <use xlink:href="#DejaVuSans-30" x="63.623047"/>
     </g>
    </g>
   </g>
   <g id="xtick_3">
    <g id="line2d_4">
     <path d="M 181.847444 260.214631 
L 179.627148 262.222908 
" style="fill: none; stroke: #000000; stroke-width: 0.8; stroke-linecap: square"/>
    </g>
    <g id="text_3">
     <!-- 40 -->
     <g transform="translate(167.268374 284.530818) scale(0.1 -0.1)">
      <defs>
       <path id="DejaVuSans-34" d="M 2419 4116 
L 825 1625 
L 2419 1625 
L 2419 4116 
z
M 2253 4666 
L 3047 4666 
L 3047 1625 
L 3713 1625 
L 3713 1100 
L 3047 1100 
L 3047 0 
L 2419 0 
L 2419 1100 
L 313 1100 
L 313 1709 
L 2253 4666 
z
" transform="scale(0.015625)"/>
      </defs>
      <use xlink:href="#DejaVuSans-34"/>
      <use xlink:href="#DejaVuSans-30" x="63.623047"/>
     </g>
    </g>
   </g>
   <g id="xtick_4">
    <g id="line2d_5">
     <path d="M 211.709793 269.958037 
L 209.531821 272.009134 
" style="fill: none; stroke: #000000; stroke-width: 0.8; stroke-linecap: square"/>
    </g>
    <g id="text_4">
     <!-- 60 -->
     <g transform="translate(197.179476 294.496563) scale(0.1 -0.1)">
      <defs>
       <path id="DejaVuSans-36" d="M 2113 2584 
Q 1688 2584 1439 2293 
Q 1191 2003 1191 1497 
Q 1191 994 1439 701 
Q 1688 409 2113 409 
Q 2538 409 2786 701 
Q 3034 994 3034 1497 
Q 3034 2003 2786 2293 
Q 2538 2584 2113 2584 
z
M 3366 4563 
L 3366 3988 
Q 3128 4100 2886 4159 
Q 2644 4219 2406 4219 
Q 1781 4219 1451 3797 
Q 1122 3375 1075 2522 
Q 1259 2794 1537 2939 
Q 1816 3084 2150 3084 
Q 2853 3084 3261 2657 
Q 3669 2231 3669 1497 
Q 3669 778 3244 343 
Q 2819 -91 2113 -91 
Q 1303 -91 875 529 
Q 447 1150 447 2328 
Q 447 3434 972 4092 
Q 1497 4750 2381 4750 
Q 2619 4750 2861 4703 
Q 3103 4656 3366 4563 
z
" transform="scale(0.015625)"/>
      </defs>
      <use xlink:href="#DejaVuSans-36"/>
      <use xlink:href="#DejaVuSans-30" x="63.623047"/>
     </g>
    </g>
   </g>
   <g id="xtick_5">
    <g id="line2d_6">
     <path d="M 242.2116 279.910082 
L 240.078285 282.005386 
" style="fill: none; stroke: #000000; stroke-width: 0.8; stroke-linecap: square"/>
    </g>
    <g id="text_5">
     <!-- 80 -->
     <g transform="translate(227.734032 304.676694) scale(0.1 -0.1)">
      <defs>
       <path id="DejaVuSans-38" d="M 2034 2216 
Q 1584 2216 1326 1975 
Q 1069 1734 1069 1313 
Q 1069 891 1326 650 
Q 1584 409 2034 409 
Q 2484 409 2743 651 
Q 3003 894 3003 1313 
Q 3003 1734 2745 1975 
Q 2488 2216 2034 2216 
z
M 1403 2484 
Q 997 2584 770 2862 
Q 544 3141 544 3541 
Q 544 4100 942 4425 
Q 1341 4750 2034 4750 
Q 2731 4750 3128 4425 
Q 3525 4100 3525 3541 
Q 3525 3141 3298 2862 
Q 3072 2584 2669 2484 
Q 3125 2378 3379 2068 
Q 3634 1759 3634 1313 
Q 3634 634 3220 271 
Q 2806 -91 2034 -91 
Q 1263 -91 848 271 
Q 434 634 434 1313 
Q 434 1759 690 2068 
Q 947 2378 1403 2484 
z
M 1172 3481 
Q 1172 3119 1398 2916 
Q 1625 2713 2034 2713 
Q 2441 2713 2670 2916 
Q 2900 3119 2900 3481 
Q 2900 3844 2670 4047 
Q 2441 4250 2034 4250 
Q 1625 4250 1398 4047 
Q 1172 3844 1172 3481 
z
" transform="scale(0.015625)"/>
      </defs>
      <use xlink:href="#DejaVuSans-38"/>
      <use xlink:href="#DejaVuSans-30" x="63.623047"/>
     </g>
    </g>
   </g>
   <g id="xtick_6">
    <g id="line2d_7">
     <path d="M 273.373625 290.077542 
L 271.287426 292.218496 
" style="fill: none; stroke: #000000; stroke-width: 0.8; stroke-linecap: square"/>
    </g>
    <g id="text_6">
     <!-- 100 -->
     <g transform="translate(255.771781 315.078203) scale(0.1 -0.1)">
      <defs>
       <path id="DejaVuSans-31" d="M 794 531 
L 1825 531 
L 1825 4091 
L 703 3866 
L 703 4441 
L 1819 4666 
L 2450 4666 
L 2450 531 
L 3481 531 
L 3481 0 
L 794 0 
L 794 531 
z
" transform="scale(0.015625)"/>
      </defs>
      <use xlink:href="#DejaVuSans-31"/>
      <use xlink:href="#DejaVuSans-30" x="63.623047"/>
      <use xlink:href="#DejaVuSans-30" x="127.246094"/>
     </g>
    </g>
   </g>
  </g>
  <g id="axis3d_2">
   <g id="line2d_8">
    <path d="M 352.090401 209.294766 
L 272.679269 290.790123 
" style="fill: none; stroke: #000000; stroke-width: 0.8; stroke-linecap: square"/>
   </g>
   <g id="xtick_7">
    <g id="line2d_9">
     <path d="M 280.868295 280.698857 
L 284.625346 281.909474 
" style="fill: none; stroke: #000000; stroke-width: 0.8; stroke-linecap: square"/>
    </g>
    <g id="text_7">
     <!-- −100 -->
     <g transform="translate(281.213722 302.063796) scale(0.1 -0.1)">
      <defs>
       <path id="DejaVuSans-2212" d="M 678 2272 
L 4684 2272 
L 4684 1741 
L 678 1741 
L 678 2272 
z
" transform="scale(0.015625)"/>
      </defs>
      <use xlink:href="#DejaVuSans-2212"/>
      <use xlink:href="#DejaVuSans-31" x="83.789062"/>
      <use xlink:href="#DejaVuSans-30" x="147.412109"/>
      <use xlink:href="#DejaVuSans-30" x="211.035156"/>
     </g>
    </g>
   </g>
   <g id="xtick_8">
    <g id="line2d_10">
     <path d="M 297.27127 263.895524 
L 300.981835 265.06323 
" style="fill: none; stroke: #000000; stroke-width: 0.8; stroke-linecap: square"/>
    </g>
    <g id="text_8">
     <!-- −50 -->
     <g transform="translate(300.562602 284.997273) scale(0.1 -0.1)">
      <defs>
       <path id="DejaVuSans-35" d="M 691 4666 
L 3169 4666 
L 3169 4134 
L 1269 4134 
L 1269 2991 
Q 1406 3038 1543 3061 
Q 1681 3084 1819 3084 
Q 2600 3084 3056 2656 
Q 3513 2228 3513 1497 
Q 3513 744 3044 326 
Q 2575 -91 1722 -91 
Q 1428 -91 1123 -41 
Q 819 9 494 109 
L 494 744 
Q 775 591 1075 516 
Q 1375 441 1709 441 
Q 2250 441 2565 725 
Q 2881 1009 2881 1497 
Q 2881 1984 2565 2268 
Q 2250 2553 1709 2553 
Q 1456 2553 1204 2497 
Q 953 2441 691 2322 
L 691 4666 
z
" transform="scale(0.015625)"/>
      </defs>
      <use xlink:href="#DejaVuSans-2212"/>
      <use xlink:href="#DejaVuSans-35" x="83.789062"/>
      <use xlink:href="#DejaVuSans-30" x="147.412109"/>
     </g>
    </g>
   </g>
   <g id="xtick_9">
    <g id="line2d_11">
     <path d="M 313.09826 247.682234 
L 316.763258 248.809271 
" style="fill: none; stroke: #000000; stroke-width: 0.8; stroke-linecap: square"/>
    </g>
    <g id="text_9">
     <!-- 0 -->
     <g transform="translate(323.533045 268.530628) scale(0.1 -0.1)">
      <use xlink:href="#DejaVuSans-30"/>
     </g>
    </g>
   </g>
   <g id="xtick_10">
    <g id="line2d_12">
     <path d="M 328.37908 232.028444 
L 331.999419 233.116901 
" style="fill: none; stroke: #000000; stroke-width: 0.8; stroke-linecap: square"/>
    </g>
    <g id="text_10">
     <!-- 50 -->
     <g transform="translate(335.412306 252.632778) scale(0.1 -0.1)">
      <use xlink:href="#DejaVuSans-35"/>
      <use xlink:href="#DejaVuSans-30" x="63.623047"/>
     </g>
    </g>
   </g>
   <g id="xtick_11">
    <g id="line2d_13">
     <path d="M 343.141523 216.905684 
L 346.718097 217.957509 
" style="fill: none; stroke: #000000; stroke-width: 0.8; stroke-linecap: square"/>
    </g>
    <g id="text_11">
     <!-- 100 -->
     <g transform="translate(346.780175 237.274753) scale(0.1 -0.1)">
      <use xlink:href="#DejaVuSans-31"/>
      <use xlink:href="#DejaVuSans-30" x="63.623047"/>
      <use xlink:href="#DejaVuSans-30" x="127.246094"/>
     </g>
    </g>
   </g>
  </g>
  <g id="axis3d_3">
   <g id="line2d_14">
    <path d="M 352.090401 209.294766 
L 357.122702 99.402171 
" style="fill: none; stroke: #000000; stroke-width: 0.8; stroke-linecap: square"/>
   </g>
   <g id="xtick_12">
    <g id="line2d_15">
     <path d="M 351.432471 197.349869 
L 355.003229 198.373704 
" style="fill: none; stroke: #000000; stroke-width: 0.8; stroke-linecap: square"/>
    </g>
    <g id="text_12">
     <!-- −100 -->
     <g transform="translate(357.221283 202.706985) scale(0.1 -0.1)">
      <use xlink:href="#DejaVuSans-2212"/>
      <use xlink:href="#DejaVuSans-31" x="83.789062"/>
      <use xlink:href="#DejaVuSans-30" x="147.412109"/>
      <use xlink:href="#DejaVuSans-30" x="211.035156"/>
     </g>
    </g>
   </g>
   <g id="xtick_13">
    <g id="line2d_16">
     <path d="M 352.383454 176.358779 
L 355.985801 177.366048 
" style="fill: none; stroke: #000000; stroke-width: 0.8; stroke-linecap: square"/>
    </g>
    <g id="text_13">
     <!-- −50 -->
     <g transform="translate(361.516812 181.75223) scale(0.1 -0.1)">
      <use xlink:href="#DejaVuSans-2212"/>
      <use xlink:href="#DejaVuSans-35" x="83.789062"/>
      <use xlink:href="#DejaVuSans-30" x="147.412109"/>
     </g>
    </g>
   </g>
   <g id="xtick_14">
    <g id="line2d_17">
     <path d="M 353.350771 155.007118 
L 356.985271 155.9971 
" style="fill: none; stroke: #000000; stroke-width: 0.8; stroke-linecap: square"/>
    </g>
    <g id="text_14">
     <!-- 0 -->
     <g transform="translate(370.021274 160.438486) scale(0.1 -0.1)">
      <use xlink:href="#DejaVuSans-30"/>
     </g>
    </g>
   </g>
   <g id="xtick_15">
    <g id="line2d_18">
     <path d="M 354.334849 133.285516 
L 358.00208 134.257456 
" style="fill: none; stroke: #000000; stroke-width: 0.8; stroke-linecap: square"/>
    </g>
    <g id="text_15">
     <!-- 50 -->
     <g transform="translate(367.992976 138.756449) scale(0.1 -0.1)">
      <use xlink:href="#DejaVuSans-35"/>
      <use xlink:href="#DejaVuSans-30" x="63.623047"/>
     </g>
    </g>
   </g>
   <g id="xtick_16">
    <g id="line2d_19">
     <path d="M 355.336126 111.184274 
L 359.036682 112.137387 
" style="fill: none; stroke: #000000; stroke-width: 0.8; stroke-linecap: square"/>
    </g>
    <g id="text_16">
     <!-- 100 -->
     <g transform="translate(365.984775 116.696489) scale(0.1 -0.1)">
      <use xlink:href="#DejaVuSans-31"/>
      <use xlink:href="#DejaVuSans-30" x="63.623047"/>
      <use xlink:href="#DejaVuSans-30" x="127.246094"/>
     </g>
    </g>
   </g>
  </g>
  <g id="axes_1">
   <g id="line2d_20">
    <path d="M 184.994836 139.590547 
L 205.983507 132.537122 
" clip-path="url(#pb4768d28c5)" style="fill: none; stroke: #600000; stroke-opacity: 0.25; stroke-width: 1.5; stroke-linecap: square"/>
   </g>
   <g id="line2d_21">
    <path d="M 205.983507 132.537122 
L 243.313182 131.218935 
" clip-path="url(#pb4768d28c5)" style="fill: none; stroke: #b42a13; stroke-opacity: 0.25; stroke-width: 1.5; stroke-linecap: square"/>
   </g>
   <g id="line2d_22">
    <path d="M 243.313182 131.218935 
L 285.025409 132.652544 
" clip-path="url(#pb4768d28c5)" style="fill: none; stroke: #ff593d; stroke-opacity: 0.25; stroke-width: 1.5; stroke-linecap: square"/>
   </g>
   <g id="line2d_23">
    <path d="M 285.025409 132.652544 
L 304.178412 176.315522 
" clip-path="url(#pb4768d28c5)" style="fill: none; stroke: #ffd3c5; stroke-opacity: 0.25; stroke-width: 1.5; stroke-linecap: square"/>
   </g>
   <g id="line2d_24">
    <path d="M 304.178412 176.315522 
L 184.994836 139.590547 
" clip-path="url(#pb4768d28c5)" style="fill: none; stroke: #ffd3c5; stroke-opacity: 0.25; stroke-width: 1.5; stroke-linecap: square"/>
   </g>
   <g id="line2d_25">
    <path d="M 180.017714 144.387208 
L 199.094475 137.195983 
" clip-path="url(#pb4768d28c5)" style="fill: none; stroke: #473000; stroke-opacity: 0.25; stroke-width: 1.5; stroke-linecap: square"/>
   </g>
   <g id="line2d_26">
    <path d="M 199.094475 137.195983 
L 234.394473 124.933878 
" clip-path="url(#pb4768d28c5)" style="fill: none; stroke: #8b6600; stroke-opacity: 0.25; stroke-width: 1.5; stroke-linecap: square"/>
   </g>
   <g id="line2d_27">
    <path d="M 234.394473 124.933878 
L 280.040657 122.394045 
" clip-path="url(#pb4768d28c5)" style="fill: none; stroke: #e9b000; stroke-opacity: 0.25; stroke-width: 1.5; stroke-linecap: square"/>
   </g>
   <g id="line2d_28">
    <path d="M 280.040657 122.394045 
L 300.883919 179.519099 
" clip-path="url(#pb4768d28c5)" style="fill: none; stroke: #efe5ba; stroke-opacity: 0.25; stroke-width: 1.5; stroke-linecap: square"/>
   </g>
   <g id="line2d_29">
    <path d="M 300.883919 179.519099 
L 180.017714 144.387208 
" clip-path="url(#pb4768d28c5)" style="fill: none; stroke: #efe5ba; stroke-opacity: 0.25; stroke-width: 1.5; stroke-linecap: square"/>
   </g>
   <g id="line2d_30">
    <path d="M 172.860432 153.760971 
L 188.086834 154.993151 
" clip-path="url(#pb4768d28c5)" style="fill: none; stroke: #004900; stroke-opacity: 0.25; stroke-width: 1.5; stroke-linecap: square"/>
   </g>
   <g id="line2d_31">
    <path d="M 188.086834 154.993151 
L 220.109573 164.575954 
" clip-path="url(#pb4768d28c5)" style="fill: none; stroke: #008e00; stroke-opacity: 0.25; stroke-width: 1.5; stroke-linecap: square"/>
   </g>
   <g id="line2d_32">
    <path d="M 220.109573 164.575954 
L 250.706244 173.928882 
" clip-path="url(#pb4768d28c5)" style="fill: none; stroke: #00d810; stroke-opacity: 0.25; stroke-width: 1.5; stroke-linecap: square"/>
   </g>
   <g id="line2d_33">
    <path d="M 250.706244 173.928882 
L 297.247723 188.225326 
" clip-path="url(#pb4768d28c5)" style="fill: none; stroke: #c9f5c7; stroke-opacity: 0.25; stroke-width: 1.5; stroke-linecap: square"/>
   </g>
   <g id="line2d_34">
    <path d="M 297.247723 188.225326 
L 172.860432 153.760971 
" clip-path="url(#pb4768d28c5)" style="fill: none; stroke: #c9f5c7; stroke-opacity: 0.25; stroke-width: 1.5; stroke-linecap: square"/>
   </g>
   <g id="line2d_35">
    <path d="M 170.524719 164.011381 
L 182.930758 176.935998 
" clip-path="url(#pb4768d28c5)" style="fill: none; stroke: #005036; stroke-opacity: 0.25; stroke-width: 1.5; stroke-linecap: square"/>
   </g>
   <g id="line2d_36">
    <path d="M 182.930758 176.935998 
L 213.714264 194.022352 
" clip-path="url(#pb4768d28c5)" style="fill: none; stroke: #00996f; stroke-opacity: 0.25; stroke-width: 1.5; stroke-linecap: square"/>
   </g>
   <g id="line2d_37">
    <path d="M 213.714264 194.022352 
L 241.818953 214.309886 
" clip-path="url(#pb4768d28c5)" style="fill: none; stroke: #00eaab; stroke-opacity: 0.25; stroke-width: 1.5; stroke-linecap: square"/>
   </g>
   <g id="line2d_38">
    <path d="M 241.818953 214.309886 
L 295.846331 196.705887 
" clip-path="url(#pb4768d28c5)" style="fill: none; stroke: #adf9e5; stroke-opacity: 0.25; stroke-width: 1.5; stroke-linecap: square"/>
   </g>
   <g id="line2d_39">
    <path d="M 295.846331 196.705887 
L 170.524719 164.011381 
" clip-path="url(#pb4768d28c5)" style="fill: none; stroke: #adf9e5; stroke-opacity: 0.25; stroke-width: 1.5; stroke-linecap: square"/>
   </g>
   <g id="line2d_40">
    <path d="M 175.729851 166.021074 
L 193.134849 177.395179 
" clip-path="url(#pb4768d28c5)" style="fill: none; stroke: #004160; stroke-opacity: 0.25; stroke-width: 1.5; stroke-linecap: square"/>
   </g>
   <g id="line2d_41">
    <path d="M 193.134849 177.395179 
L 225.989665 195.772419 
" clip-path="url(#pb4768d28c5)" style="fill: none; stroke: #0081b3; stroke-opacity: 0.25; stroke-width: 1.5; stroke-linecap: square"/>
   </g>
   <g id="line2d_42">
    <path d="M 225.989665 195.772419 
L 257.921034 215.923635 
" clip-path="url(#pb4768d28c5)" style="fill: none; stroke: #00c5ff; stroke-opacity: 0.25; stroke-width: 1.5; stroke-linecap: square"/>
   </g>
   <g id="line2d_43">
    <path d="M 257.921034 215.923635 
L 297.7787 199.398889 
" clip-path="url(#pb4768d28c5)" style="fill: none; stroke: #b5f0ff; stroke-opacity: 0.25; stroke-width: 1.5; stroke-linecap: square"/>
   </g>
   <g id="line2d_44">
    <path d="M 297.7787 199.398889 
L 175.729851 166.021074 
" clip-path="url(#pb4768d28c5)" style="fill: none; stroke: #b5f0ff; stroke-opacity: 0.25; stroke-width: 1.5; stroke-linecap: square"/>
   </g>
   <g id="line2d_45">
    <path d="M 182.890199 159.597628 
L 203.22275 167.686927 
" clip-path="url(#pb4768d28c5)" style="fill: none; stroke: #271c6e; stroke-opacity: 0.25; stroke-width: 1.5; stroke-linecap: square"/>
   </g>
   <g id="line2d_46">
    <path d="M 203.22275 167.686927 
L 238.891985 182.233522 
" clip-path="url(#pb4768d28c5)" style="fill: none; stroke: #5849cb; stroke-opacity: 0.25; stroke-width: 1.5; stroke-linecap: square"/>
   </g>
   <g id="line2d_47">
    <path d="M 238.891985 182.233522 
L 274.146046 196.511135 
" clip-path="url(#pb4768d28c5)" style="fill: none; stroke: #8b6fff; stroke-opacity: 0.25; stroke-width: 1.5; stroke-linecap: square"/>
   </g>
   <g id="line2d_48">
    <path d="M 274.146046 196.511135 
L 301.384802 195.411471 
" clip-path="url(#pb4768d28c5)" style="fill: none; stroke: #d8deff; stroke-opacity: 0.25; stroke-width: 1.5; stroke-linecap: square"/>
   </g>
   <g id="line2d_49">
    <path d="M 301.384802 195.411471 
L 182.890199 159.597628 
" clip-path="url(#pb4768d28c5)" style="fill: none; stroke: #d8deff; stroke-opacity: 0.25; stroke-width: 1.5; stroke-linecap: square"/>
   </g>
   <g id="line2d_50">
    <path d="M 186.04953 151.970537 
L 207.38271 156.228019 
" clip-path="url(#pb4768d28c5)" style="fill: none; stroke: #52005a; stroke-opacity: 0.25; stroke-width: 1.5; stroke-linecap: square"/>
   </g>
   <g id="line2d_51">
    <path d="M 207.38271 156.228019 
L 244.184104 165.773487 
" clip-path="url(#pb4768d28c5)" style="fill: none; stroke: #9b00a8; stroke-opacity: 0.25; stroke-width: 1.5; stroke-linecap: square"/>
   </g>
   <g id="line2d_52">
    <path d="M 244.184104 165.773487 
L 280.894307 173.946553 
" clip-path="url(#pb4768d28c5)" style="fill: none; stroke: #ee00ff; stroke-opacity: 0.25; stroke-width: 1.5; stroke-linecap: square"/>
   </g>
   <g id="line2d_53">
    <path d="M 280.894307 173.946553 
L 304.361689 187.591878 
" clip-path="url(#pb4768d28c5)" style="fill: none; stroke: #facefe; stroke-opacity: 0.25; stroke-width: 1.5; stroke-linecap: square"/>
   </g>
   <g id="line2d_54">
    <path d="M 304.361689 187.591878 
L 186.04953 151.970537 
" clip-path="url(#pb4768d28c5)" style="fill: none; stroke: #facefe; stroke-opacity: 0.25; stroke-width: 1.5; stroke-linecap: square"/>
   </g>
   <g id="line2d_55">
    <path d="M 186.585484 143.120907 
L 208.193556 143.745581 
" clip-path="url(#pb4768d28c5)" style="fill: none; stroke: #620031; stroke-opacity: 0.25; stroke-width: 1.5; stroke-linecap: square"/>
   </g>
   <g id="line2d_56">
    <path d="M 208.193556 143.745581 
L 245.659632 148.212038 
" clip-path="url(#pb4768d28c5)" style="fill: none; stroke: #b60067; stroke-opacity: 0.25; stroke-width: 1.5; stroke-linecap: square"/>
   </g>
   <g id="line2d_57">
    <path d="M 245.659632 148.212038 
L 282.848768 150.260541 
" clip-path="url(#pb4768d28c5)" style="fill: none; stroke: #ff00a0; stroke-opacity: 0.25; stroke-width: 1.5; stroke-linecap: square"/>
   </g>
   <g id="line2d_58">
    <path d="M 282.848768 150.260541 
L 305.447623 179.8931 
" clip-path="url(#pb4768d28c5)" style="fill: none; stroke: #ffc9e1; stroke-opacity: 0.25; stroke-width: 1.5; stroke-linecap: square"/>
   </g>
   <g id="line2d_59">
    <path d="M 305.447623 179.8931 
L 186.585484 143.120907 
" clip-path="url(#pb4768d28c5)" style="fill: none; stroke: #ffc9e1; stroke-opacity: 0.25; stroke-width: 1.5; stroke-linecap: square"/>
   </g>
   <g id="line2d_60">
    <path d="M 181.302767 162.180835 
L 196.242668 166.471132 
" clip-path="url(#pb4768d28c5)" style="fill: none; stroke: #133947; stroke-opacity: 0.25; stroke-width: 1.5; stroke-linecap: square"/>
   </g>
   <g id="line2d_61">
    <path d="M 196.242668 166.471132 
L 217.704511 170.593231 
" clip-path="url(#pb4768d28c5)" style="fill: none; stroke: #405964; stroke-opacity: 0.25; stroke-width: 1.5; stroke-linecap: square"/>
   </g>
   <g id="line2d_62">
    <path d="M 217.704511 170.593231 
L 231.322085 174.756237 
" clip-path="url(#pb4768d28c5)" style="fill: none; stroke: #56707b; stroke-opacity: 0.25; stroke-width: 1.5; stroke-linecap: square"/>
   </g>
   <g id="line2d_63">
    <path d="M 231.322085 174.756237 
L 249.151868 176.066142 
" clip-path="url(#pb4768d28c5)" style="fill: none; stroke: #7f8a8f; stroke-opacity: 0.25; stroke-width: 1.5; stroke-linecap: square"/>
   </g>
   <g id="line2d_64">
    <path d="M 249.151868 176.066142 
L 255.914579 178.074024 
" clip-path="url(#pb4768d28c5)" style="fill: none; stroke: #8b969b; stroke-opacity: 0.25; stroke-width: 1.5; stroke-linecap: square"/>
   </g>
   <g id="line2d_65">
    <path d="M 255.914579 178.074024 
L 301.090564 184.223061 
" clip-path="url(#pb4768d28c5)" style="fill: none; stroke: #ebe3d2; stroke-opacity: 0.25; stroke-width: 1.5; stroke-linecap: square"/>
   </g>
   <g id="line2d_66">
    <path d="M 301.090564 184.223061 
L 309.703989 186.605738 
" clip-path="url(#pb4768d28c5)" style="fill: none; stroke: #fbf2e1; stroke-opacity: 0.25; stroke-width: 1.5; stroke-linecap: square"/>
   </g>
   <g id="line2d_67">
    <path d="M 309.703989 186.605738 
L 181.302767 162.180835 
" clip-path="url(#pb4768d28c5)" style="fill: none; stroke: #fbf2e1; stroke-opacity: 0.25; stroke-width: 1.5; stroke-linecap: square"/>
   </g>
   <g id="line2d_68">
    <path d="M 167.638604 149.7118 
L 198.193202 158.507577 
" clip-path="url(#pb4768d28c5)" style="fill: none; stroke: #333333; stroke-opacity: 0.25; stroke-width: 1.5; stroke-linecap: square"/>
   </g>
   <g id="line2d_69">
    <path d="M 198.193202 158.507577 
L 232.869009 168.49942 
" clip-path="url(#pb4768d28c5)" style="fill: none; stroke: #6b6b6b; stroke-opacity: 0.25; stroke-width: 1.5; stroke-linecap: square"/>
   </g>
   <g id="line2d_70">
    <path d="M 232.869009 168.49942 
L 266.763111 178.266015 
" clip-path="url(#pb4768d28c5)" style="fill: none; stroke: #a6a5a5; stroke-opacity: 0.25; stroke-width: 1.5; stroke-linecap: square"/>
   </g>
   <g id="line2d_71">
    <path d="M 266.763111 178.266015 
L 316.068987 192.473476 
" clip-path="url(#pb4768d28c5)" style="fill: none; stroke: #ffffff; stroke-opacity: 0.25; stroke-width: 1.5; stroke-linecap: square"/>
   </g>
   <g id="line2d_72">
    <path d="M 316.068987 192.473476 
L 167.638604 149.7118 
" clip-path="url(#pb4768d28c5)" style="fill: none; stroke: #ffffff; stroke-opacity: 0.25; stroke-width: 1.5; stroke-linecap: square"/>
   </g>
   <g id="Path3DCollection_1">
    <defs>
     <path id="C0_0_3f9142677b" d="M 0 2.236068 
C 0.593012 2.236068 1.161816 2.000462 1.581139 1.581139 
C 2.000462 1.161816 2.236068 0.593012 2.236068 -0 
C 2.236068 -0.593012 2.000462 -1.161816 1.581139 -1.581139 
C 1.161816 -2.000462 0.593012 -2.236068 0 -2.236068 
C -0.593012 -2.236068 -1.161816 -2.000462 -1.581139 -1.581139 
C -2.000462 -1.161816 -2.236068 -0.593012 -2.236068 0 
C -2.236068 0.593012 -2.000462 1.161816 -1.581139 1.581139 
C -1.161816 2.000462 -0.593012 2.236068 0 2.236068 
z
"/>
    </defs>
    <g clip-path="url(#pb4768d28c5)">
     <use xlink:href="#C0_0_3f9142677b" x="280.894307" y="173.946553" style="fill: #ee00ff; stroke: #ee00ff"/>
    </g>
    <g clip-path="url(#pb4768d28c5)">
     <use xlink:href="#C0_0_3f9142677b" x="207.38271" y="156.228019" style="fill: #52005a; stroke: #52005a"/>
    </g>
    <g clip-path="url(#pb4768d28c5)">
     <use xlink:href="#C0_0_3f9142677b" x="244.184104" y="165.773487" style="fill: #9b00a8; stroke: #9b00a8"/>
    </g>
    <g clip-path="url(#pb4768d28c5)">
     <use xlink:href="#C0_0_3f9142677b" x="186.04953" y="151.970537" style="fill: #2b0030; stroke: #2b0030"/>
    </g>
    <g clip-path="url(#pb4768d28c5)">
     <use xlink:href="#C0_0_3f9142677b" x="304.361689" y="187.591878" style="fill: #facefe; stroke: #facefe"/>
    </g>
   </g>
   <g id="Path3DCollection_2">
    <defs>
     <path id="C1_0_2ad871ee08" d="M 0 2.236068 
C 0.593012 2.236068 1.161816 2.000462 1.581139 1.581139 
C 2.000462 1.161816 2.236068 0.593012 2.236068 -0 
C 2.236068 -0.593012 2.000462 -1.161816 1.581139 -1.581139 
C 1.161816 -2.000462 0.593012 -2.236068 0 -2.236068 
C -0.593012 -2.236068 -1.161816 -2.000462 -1.581139 -1.581139 
C -2.000462 -1.161816 -2.236068 -0.593012 -2.236068 0 
C -2.236068 0.593012 -2.000462 1.161816 -1.581139 1.581139 
C -1.161816 2.000462 -0.593012 2.236068 0 2.236068 
z
"/>
    </defs>
    <g clip-path="url(#pb4768d28c5)">
     <use xlink:href="#C1_0_2ad871ee08" x="208.193556" y="143.745581" style="fill: #620031; stroke: #620031"/>
    </g>
    <g clip-path="url(#pb4768d28c5)">
     <use xlink:href="#C1_0_2ad871ee08" x="186.585484" y="143.120907" style="fill: #350016; stroke: #350016"/>
    </g>
    <g clip-path="url(#pb4768d28c5)">
     <use xlink:href="#C1_0_2ad871ee08" x="245.659632" y="148.212038" style="fill: #b60067; stroke: #b60067"/>
    </g>
    <g clip-path="url(#pb4768d28c5)">
     <use xlink:href="#C1_0_2ad871ee08" x="282.848768" y="150.260541" style="fill: #ff00a0; stroke: #ff00a0"/>
    </g>
    <g clip-path="url(#pb4768d28c5)">
     <use xlink:href="#C1_0_2ad871ee08" x="305.447623" y="179.8931" style="fill: #ffc9e1; stroke: #ffc9e1"/>
    </g>
   </g>
   <g id="Path3DCollection_3">
    <defs>
     <path id="C2_0_a37d906edf" d="M 0 2.236068 
C 0.593012 2.236068 1.161816 2.000462 1.581139 1.581139 
C 2.000462 1.161816 2.236068 0.593012 2.236068 -0 
C 2.236068 -0.593012 2.000462 -1.161816 1.581139 -1.581139 
C 1.161816 -2.000462 0.593012 -2.236068 0 -2.236068 
C -0.593012 -2.236068 -1.161816 -2.000462 -1.581139 -1.581139 
C -2.000462 -1.161816 -2.236068 -0.593012 -2.236068 0 
C -2.236068 0.593012 -2.000462 1.161816 -1.581139 1.581139 
C -1.161816 2.000462 -0.593012 2.236068 0 2.236068 
z
"/>
    </defs>
    <g clip-path="url(#pb4768d28c5)">
     <use xlink:href="#C2_0_a37d906edf" x="203.22275" y="167.686927" style="fill: #271c6e; stroke: #271c6e"/>
    </g>
    <g clip-path="url(#pb4768d28c5)">
     <use xlink:href="#C2_0_a37d906edf" x="182.890199" y="159.597628" style="fill: #0f093c; stroke: #0f093c"/>
    </g>
    <g clip-path="url(#pb4768d28c5)">
     <use xlink:href="#C2_0_a37d906edf" x="274.146046" y="196.511135" style="fill: #8b6fff; stroke: #8b6fff"/>
    </g>
    <g clip-path="url(#pb4768d28c5)">
     <use xlink:href="#C2_0_a37d906edf" x="238.891985" y="182.233522" style="fill: #5849cb; stroke: #5849cb"/>
    </g>
    <g clip-path="url(#pb4768d28c5)">
     <use xlink:href="#C2_0_a37d906edf" x="301.384802" y="195.411471" style="fill: #d8deff; stroke: #d8deff"/>
    </g>
   </g>
   <g id="Path3DCollection_4">
    <defs>
     <path id="C3_0_24922f4fd8" d="M 0 2.236068 
C 0.593012 2.236068 1.161816 2.000462 1.581139 1.581139 
C 2.000462 1.161816 2.236068 0.593012 2.236068 -0 
C 2.236068 -0.593012 2.000462 -1.161816 1.581139 -1.581139 
C 1.161816 -2.000462 0.593012 -2.236068 0 -2.236068 
C -0.593012 -2.236068 -1.161816 -2.000462 -1.581139 -1.581139 
C -2.000462 -1.161816 -2.236068 -0.593012 -2.236068 0 
C -2.236068 0.593012 -2.000462 1.161816 -1.581139 1.581139 
C -1.161816 2.000462 -0.593012 2.236068 0 2.236068 
z
"/>
    </defs>
    <g clip-path="url(#pb4768d28c5)">
     <use xlink:href="#C3_0_24922f4fd8" x="184.994836" y="139.590547" style="fill: #340000; stroke: #340000"/>
    </g>
    <g clip-path="url(#pb4768d28c5)">
     <use xlink:href="#C3_0_24922f4fd8" x="205.983507" y="132.537122" style="fill: #600000; stroke: #600000"/>
    </g>
    <g clip-path="url(#pb4768d28c5)">
     <use xlink:href="#C3_0_24922f4fd8" x="243.313182" y="131.218935" style="fill: #b42a13; stroke: #b42a13"/>
    </g>
    <g clip-path="url(#pb4768d28c5)">
     <use xlink:href="#C3_0_24922f4fd8" x="285.025409" y="132.652544" style="fill: #ff593d; stroke: #ff593d"/>
    </g>
    <g clip-path="url(#pb4768d28c5)">
     <use xlink:href="#C3_0_24922f4fd8" x="304.178412" y="176.315522" style="fill: #ffd3c5; stroke: #ffd3c5"/>
    </g>
   </g>
   <g id="Path3DCollection_5">
    <defs>
     <path id="C4_0_6e50360402" d="M 0 2.236068 
C 0.593012 2.236068 1.161816 2.000462 1.581139 1.581139 
C 2.000462 1.161816 2.236068 0.593012 2.236068 -0 
C 2.236068 -0.593012 2.000462 -1.161816 1.581139 -1.581139 
C 1.161816 -2.000462 0.593012 -2.236068 0 -2.236068 
C -0.593012 -2.236068 -1.161816 -2.000462 -1.581139 -1.581139 
C -2.000462 -1.161816 -2.236068 -0.593012 -2.236068 0 
C -2.236068 0.593012 -2.000462 1.161816 -1.581139 1.581139 
C -1.161816 2.000462 -0.593012 2.236068 0 2.236068 
z
"/>
    </defs>
    <g clip-path="url(#pb4768d28c5)">
     <use xlink:href="#C4_0_6e50360402" x="175.729851" y="166.021074" style="fill: #002133; stroke: #002133"/>
    </g>
    <g clip-path="url(#pb4768d28c5)">
     <use xlink:href="#C4_0_6e50360402" x="193.134849" y="177.395179" style="fill: #004160; stroke: #004160"/>
    </g>
    <g clip-path="url(#pb4768d28c5)">
     <use xlink:href="#C4_0_6e50360402" x="225.989665" y="195.772419" style="fill: #0081b3; stroke: #0081b3"/>
    </g>
    <g clip-path="url(#pb4768d28c5)">
     <use xlink:href="#C4_0_6e50360402" x="257.921034" y="215.923635" style="fill: #00c5ff; stroke: #00c5ff"/>
    </g>
    <g clip-path="url(#pb4768d28c5)">
     <use xlink:href="#C4_0_6e50360402" x="297.7787" y="199.398889" style="fill: #b5f0ff; stroke: #b5f0ff"/>
    </g>
   </g>
   <g id="Path3DCollection_6">
    <defs>
     <path id="C5_0_ee0f2a5010" d="M 0 2.236068 
C 0.593012 2.236068 1.161816 2.000462 1.581139 1.581139 
C 2.000462 1.161816 2.236068 0.593012 2.236068 -0 
C 2.236068 -0.593012 2.000462 -1.161816 1.581139 -1.581139 
C 1.161816 -2.000462 0.593012 -2.236068 0 -2.236068 
C -0.593012 -2.236068 -1.161816 -2.000462 -1.581139 -1.581139 
C -2.000462 -1.161816 -2.236068 -0.593012 -2.236068 0 
C -2.236068 0.593012 -2.000462 1.161816 -1.581139 1.581139 
C -1.161816 2.000462 -0.593012 2.236068 0 2.236068 
z
"/>
    </defs>
    <g clip-path="url(#pb4768d28c5)">
     <use xlink:href="#C5_0_ee0f2a5010" x="181.302767" y="162.180835" style="fill: #002330; stroke: #002330"/>
    </g>
    <g clip-path="url(#pb4768d28c5)">
     <use xlink:href="#C5_0_ee0f2a5010" x="196.242668" y="166.471132" style="fill: #133947; stroke: #133947"/>
    </g>
    <g clip-path="url(#pb4768d28c5)">
     <use xlink:href="#C5_0_ee0f2a5010" x="217.704511" y="170.593231" style="fill: #405964; stroke: #405964"/>
    </g>
    <g clip-path="url(#pb4768d28c5)">
     <use xlink:href="#C5_0_ee0f2a5010" x="231.322085" y="174.756237" style="fill: #56707b; stroke: #56707b"/>
    </g>
    <g clip-path="url(#pb4768d28c5)">
     <use xlink:href="#C5_0_ee0f2a5010" x="249.151868" y="176.066142" style="fill: #7f8a8f; stroke: #7f8a8f"/>
    </g>
    <g clip-path="url(#pb4768d28c5)">
     <use xlink:href="#C5_0_ee0f2a5010" x="255.914579" y="178.074024" style="fill: #8b969b; stroke: #8b969b"/>
    </g>
    <g clip-path="url(#pb4768d28c5)">
     <use xlink:href="#C5_0_ee0f2a5010" x="301.090564" y="184.223061" style="fill: #ebe3d2; stroke: #ebe3d2"/>
    </g>
    <g clip-path="url(#pb4768d28c5)">
     <use xlink:href="#C5_0_ee0f2a5010" x="309.703989" y="186.605738" style="fill: #fbf2e1; stroke: #fbf2e1"/>
    </g>
   </g>
   <g id="Path3DCollection_7">
    <defs>
     <path id="C6_0_d97a19a69f" d="M 0 2.236068 
C 0.593012 2.236068 1.161816 2.000462 1.581139 1.581139 
C 2.000462 1.161816 2.236068 0.593012 2.236068 -0 
C 2.236068 -0.593012 2.000462 -1.161816 1.581139 -1.581139 
C 1.161816 -2.000462 0.593012 -2.236068 0 -2.236068 
C -0.593012 -2.236068 -1.161816 -2.000462 -1.581139 -1.581139 
C -2.000462 -1.161816 -2.236068 -0.593012 -2.236068 0 
C -2.236068 0.593012 -2.000462 1.161816 -1.581139 1.581139 
C -1.161816 2.000462 -0.593012 2.236068 0 2.236068 
z
"/>
    </defs>
    <g clip-path="url(#pb4768d28c5)">
     <use xlink:href="#C6_0_d97a19a69f" x="167.638604" y="149.7118" style="stroke: #000000"/>
    </g>
    <g clip-path="url(#pb4768d28c5)">
     <use xlink:href="#C6_0_d97a19a69f" x="198.193202" y="158.507577" style="fill: #333333; stroke: #333333"/>
    </g>
    <g clip-path="url(#pb4768d28c5)">
     <use xlink:href="#C6_0_d97a19a69f" x="232.869009" y="168.49942" style="fill: #6b6b6b; stroke: #6b6b6b"/>
    </g>
    <g clip-path="url(#pb4768d28c5)">
     <use xlink:href="#C6_0_d97a19a69f" x="266.763111" y="178.266015" style="fill: #a6a5a5; stroke: #a6a5a5"/>
    </g>
    <g clip-path="url(#pb4768d28c5)">
     <use xlink:href="#C6_0_d97a19a69f" x="316.068987" y="192.473476" style="fill: #ffffff; stroke: #ffffff"/>
    </g>
   </g>
   <g id="Path3DCollection_8">
    <defs>
     <path id="C7_0_8776e87fc9" d="M 0 2.236068 
C 0.593012 2.236068 1.161816 2.000462 1.581139 1.581139 
C 2.000462 1.161816 2.236068 0.593012 2.236068 -0 
C 2.236068 -0.593012 2.000462 -1.161816 1.581139 -1.581139 
C 1.161816 -2.000462 0.593012 -2.236068 0 -2.236068 
C -0.593012 -2.236068 -1.161816 -2.000462 -1.581139 -1.581139 
C -2.000462 -1.161816 -2.236068 -0.593012 -2.236068 0 
C -2.236068 0.593012 -2.000462 1.161816 -1.581139 1.581139 
C -1.161816 2.000462 -0.593012 2.236068 0 2.236068 
z
"/>
    </defs>
    <g clip-path="url(#pb4768d28c5)">
     <use xlink:href="#C7_0_8776e87fc9" x="180.017714" y="144.387208" style="fill: #241600; stroke: #241600"/>
    </g>
    <g clip-path="url(#pb4768d28c5)">
     <use xlink:href="#C7_0_8776e87fc9" x="199.094475" y="137.195983" style="fill: #473000; stroke: #473000"/>
    </g>
    <g clip-path="url(#pb4768d28c5)">
     <use xlink:href="#C7_0_8776e87fc9" x="234.394473" y="124.933878" style="fill: #8b6600; stroke: #8b6600"/>
    </g>
    <g clip-path="url(#pb4768d28c5)">
     <use xlink:href="#C7_0_8776e87fc9" x="300.883919" y="179.519099" style="fill: #efe5ba; stroke: #efe5ba"/>
    </g>
    <g clip-path="url(#pb4768d28c5)">
     <use xlink:href="#C7_0_8776e87fc9" x="280.040657" y="122.394045" style="fill: #e9b000; stroke: #e9b000"/>
    </g>
   </g>
   <g id="Path3DCollection_9">
    <defs>
     <path id="C8_0_4670034710" d="M 0 2.236068 
C 0.593012 2.236068 1.161816 2.000462 1.581139 1.581139 
C 2.000462 1.161816 2.236068 0.593012 2.236068 -0 
C 2.236068 -0.593012 2.000462 -1.161816 1.581139 -1.581139 
C 1.161816 -2.000462 0.593012 -2.236068 0 -2.236068 
C -0.593012 -2.236068 -1.161816 -2.000462 -1.581139 -1.581139 
C -2.000462 -1.161816 -2.236068 -0.593012 -2.236068 0 
C -2.236068 0.593012 -2.000462 1.161816 -1.581139 1.581139 
C -1.161816 2.000462 -0.593012 2.236068 0 2.236068 
z
"/>
    </defs>
    <g clip-path="url(#pb4768d28c5)">
     <use xlink:href="#C8_0_4670034710" x="172.860432" y="153.760971" style="fill: #002600; stroke: #002600"/>
    </g>
    <g clip-path="url(#pb4768d28c5)">
     <use xlink:href="#C8_0_4670034710" x="188.086834" y="154.993151" style="fill: #004900; stroke: #004900"/>
    </g>
    <g clip-path="url(#pb4768d28c5)">
     <use xlink:href="#C8_0_4670034710" x="220.109573" y="164.575954" style="fill: #008e00; stroke: #008e00"/>
    </g>
    <g clip-path="url(#pb4768d28c5)">
     <use xlink:href="#C8_0_4670034710" x="297.247723" y="188.225326" style="fill: #c9f5c7; stroke: #c9f5c7"/>
    </g>
    <g clip-path="url(#pb4768d28c5)">
     <use xlink:href="#C8_0_4670034710" x="250.706244" y="173.928882" style="fill: #00d810; stroke: #00d810"/>
    </g>
   </g>
   <g id="Path3DCollection_10">
    <defs>
     <path id="C9_0_83e65e58c6" d="M 0 2.236068 
C 0.593012 2.236068 1.161816 2.000462 1.581139 1.581139 
C 2.000462 1.161816 2.236068 0.593012 2.236068 -0 
C 2.236068 -0.593012 2.000462 -1.161816 1.581139 -1.581139 
C 1.161816 -2.000462 0.593012 -2.236068 0 -2.236068 
C -0.593012 -2.236068 -1.161816 -2.000462 -1.581139 -1.581139 
C -2.000462 -1.161816 -2.236068 -0.593012 -2.236068 0 
C -2.236068 0.593012 -2.000462 1.161816 -1.581139 1.581139 
C -1.161816 2.000462 -0.593012 2.236068 0 2.236068 
z
"/>
    </defs>
    <g clip-path="url(#pb4768d28c5)">
     <use xlink:href="#C9_0_83e65e58c6" x="170.524719" y="164.011381" style="fill: #002a1a; stroke: #002a1a"/>
    </g>
    <g clip-path="url(#pb4768d28c5)">
     <use xlink:href="#C9_0_83e65e58c6" x="182.930758" y="176.935998" style="fill: #005036; stroke: #005036"/>
    </g>
    <g clip-path="url(#pb4768d28c5)">
     <use xlink:href="#C9_0_83e65e58c6" x="213.714264" y="194.022352" style="fill: #00996f; stroke: #00996f"/>
    </g>
    <g clip-path="url(#pb4768d28c5)">
     <use xlink:href="#C9_0_83e65e58c6" x="295.846331" y="196.705887" style="fill: #adf9e5; stroke: #adf9e5"/>
    </g>
    <g clip-path="url(#pb4768d28c5)">
     <use xlink:href="#C9_0_83e65e58c6" x="241.818953" y="214.309886" style="fill: #00eaab; stroke: #00eaab"/>
    </g>
   </g>
  </g>
 </g>
 <defs>
  <clipPath id="pb4768d28c5">
   <rect x="103.104" y="41.472" width="266.112" height="266.112"/>
  </clipPath>
 </defs>
</svg>
