<?xml version="1.0" encoding="utf-8" standalone="no"?>
<!DOCTYPE svg PUBLIC "-//W3C//DTD SVG 1.1//EN"
  "http://www.w3.org/Graphics/SVG/1.1/DTD/svg11.dtd">
<svg xmlns:xlink="http://www.w3.org/1999/xlink" width="460.8pt" height="345.6pt" viewBox="0 0 460.8 345.6" xmlns="http://www.w3.org/2000/svg" version="1.1">
 <metadata>
  <rdf:RDF xmlns:dc="http://purl.org/dc/elements/1.1/" xmlns:cc="http://creativecommons.org/ns#" xmlns:rdf="http://www.w3.org/1999/02/22-rdf-syntax-ns#">
   <cc:Work>
    <dc:type rdf:resource="http://purl.org/dc/dcmitype/StillImage"/>
    <dc:date>2024-06-16T09:08:13.201785</dc:date>
    <dc:format>image/svg+xml</dc:format>
    <dc:creator>
     <cc:Agent>
      <dc:title>Matplotlib v3.9.0, https://matplotlib.org/</dc:title>
     </cc:Agent>
    </dc:creator>
   </cc:Work>
  </rdf:RDF>
 </metadata>
 <defs>
  <style type="text/css">*{stroke-linejoin: round; stroke-linecap: butt}</style>
 </defs>
 <g id="figure_1">
  <g id="patch_1">
   <path d="M 0 345.6 
L 460.8 345.6 
L 460.8 0 
L 0 0 
z
" style="fill: #ffffff"/>
  </g>
  <g id="axes_1">
   <g id="patch_2">
    <path d="M 369.216 174.528 
C 369.216 157.055246 365.774248 139.752393 359.087715 123.609673 
C 352.401182 107.466954 342.599903 92.798303 330.2448 80.4432 
C 317.889697 68.088097 303.221046 58.286818 287.078327 51.600285 
C 270.935607 44.913752 253.632754 41.472 236.16 41.472 
C 218.687246 41.472 201.384393 44.913752 185.241673 51.600285 
C 169.098954 58.286818 154.430303 68.088097 142.0752 80.4432 
C 129.720097 92.798303 119.918818 107.466954 113.232285 123.609673 
C 106.545752 139.752393 103.104 157.055246 103.104 174.528 
C 103.104 192.000754 106.545752 209.303607 113.232285 225.446327 
C 119.918818 241.589046 129.720097 256.257697 142.0752 268.6128 
C 154.430303 280.967903 169.098954 290.769182 185.241673 297.455715 
C 201.384393 304.142248 218.687246 307.584 236.16 307.584 
C 253.632754 307.584 270.935607 304.142248 287.078327 297.455715 
C 303.221046 290.769182 317.889697 280.967903 330.2448 268.6128 
C 342.599903 256.257697 352.401182 241.589046 359.087715 225.446327 
C 365.774248 209.303607 369.216 192.000754 369.216 174.528 
M 236.16 174.528 
C 236.16 174.528 236.16 174.528 236.16 174.528 
C 236.16 174.528 236.16 174.528 236.16 174.528 
C 236.16 174.528 236.16 174.528 236.16 174.528 
C 236.16 174.528 236.16 174.528 236.16 174.528 
C 236.16 174.528 236.16 174.528 236.16 174.528 
C 236.16 174.528 236.16 174.528 236.16 174.528 
C 236.16 174.528 236.16 174.528 236.16 174.528 
C 236.16 174.528 236.16 174.528 236.16 174.528 
C 236.16 174.528 236.16 174.528 236.16 174.528 
C 236.16 174.528 236.16 174.528 236.16 174.528 
C 236.16 174.528 236.16 174.528 236.16 174.528 
C 236.16 174.528 236.16 174.528 236.16 174.528 
C 236.16 174.528 236.16 174.528 236.16 174.528 
C 236.16 174.528 236.16 174.528 236.16 174.528 
C 236.16 174.528 236.16 174.528 236.16 174.528 
C 236.16 174.528 236.16 174.528 236.16 174.528 
z
" style="fill: #ffffff"/>
   </g>
   <g id="PathCollection_1">
    <defs>
     <path id="C0_0_f8959f7640" d="M 0 3 
C 0.795609 3 1.55874 2.683901 2.12132 2.12132 
C 2.683901 1.55874 3 0.795609 3 -0 
C 3 -0.795609 2.683901 -1.55874 2.12132 -2.12132 
C 1.55874 -2.683901 0.795609 -3 0 -3 
C -0.795609 -3 -1.55874 -2.683901 -2.12132 -2.12132 
C -2.683901 -1.55874 -3 -0.795609 -3 0 
C -3 0.795609 -2.683901 1.55874 -2.12132 2.12132 
C -1.55874 2.683901 -0.795609 3 0 3 
z
"/>
    </defs>
    <g clip-path="url(#pde51204041)">
     <use xlink:href="#C0_0_f8959f7640" x="273.842351" y="143.484368" style="fill: #c13e28; stroke: #c13e28"/>
    </g>
    <g clip-path="url(#pde51204041)">
     <use xlink:href="#C0_0_f8959f7640" x="240.333497" y="91.784604" style="fill: #9c7200; stroke: #9c7200"/>
    </g>
    <g clip-path="url(#pde51204041)">
     <use xlink:href="#C0_0_f8959f7640" x="191.225282" y="135.046179" style="fill: #009c16; stroke: #009c16"/>
    </g>
    <g clip-path="url(#pde51204041)">
     <use xlink:href="#C0_0_f8959f7640" x="172.999349" y="169.636401" style="fill: #00a87c; stroke: #00a87c"/>
    </g>
    <g clip-path="url(#pde51204041)">
     <use xlink:href="#C0_0_f8959f7640" x="212.85436" y="204.632179" style="fill: #008fc3; stroke: #008fc3"/>
    </g>
    <g clip-path="url(#pde51204041)">
     <use xlink:href="#C0_0_f8959f7640" x="266.555456" y="223.748861" style="fill: #6356db; stroke: #6356db"/>
    </g>
    <g clip-path="url(#pde51204041)">
     <use xlink:href="#C0_0_f8959f7640" x="289.684141" y="211.594311" style="fill: #aa12b7; stroke: #aa12b7"/>
    </g>
    <g clip-path="url(#pde51204041)">
     <use xlink:href="#C0_0_f8959f7640" x="283.723593" y="179.44855" style="fill: #bb1f71; stroke: #bb1f71"/>
    </g>
    <g clip-path="url(#pde51204041)">
     <use xlink:href="#C0_0_f8959f7640" x="255.622812" y="161.821041" style="fill: #3f0600; stroke: #3f0600"/>
    </g>
    <g clip-path="url(#pde51204041)">
     <use xlink:href="#C0_0_f8959f7640" x="237.16172" y="155.427371" style="fill: #2d2000; stroke: #2d2000"/>
    </g>
    <g clip-path="url(#pde51204041)">
     <use xlink:href="#C0_0_f8959f7640" x="213.723055" y="156.923511" style="fill: #002f00; stroke: #002f00"/>
    </g>
    <g clip-path="url(#pde51204041)">
     <use xlink:href="#C0_0_f8959f7640" x="204.901168" y="172.179413" style="fill: #003423; stroke: #003423"/>
    </g>
    <g clip-path="url(#pde51204041)">
     <use xlink:href="#C0_0_f8959f7640" x="223.75142" y="188.186383" style="fill: #002b3d; stroke: #002b3d"/>
    </g>
    <g clip-path="url(#pde51204041)">
     <use xlink:href="#C0_0_f8959f7640" x="249.522517" y="196.82961" style="fill: #181546; stroke: #181546"/>
    </g>
    <g clip-path="url(#pde51204041)">
     <use xlink:href="#C0_0_f8959f7640" x="262.893989" y="192.582614" style="fill: #35003a; stroke: #35003a"/>
    </g>
    <g clip-path="url(#pde51204041)">
     <use xlink:href="#C0_0_f8959f7640" x="263.765316" y="177.542955" style="fill: #40001f; stroke: #40001f"/>
    </g>
    <g clip-path="url(#pde51204041)">
     <use xlink:href="#C0_0_f8959f7640" x="264.750733" y="149.738884" style="fill: #670a00; stroke: #670a00"/>
    </g>
    <g clip-path="url(#pde51204041)">
     <use xlink:href="#C0_0_f8959f7640" x="238.325366" y="137.039252" style="fill: #4d3700; stroke: #4d3700"/>
    </g>
    <g clip-path="url(#pde51204041)">
     <use xlink:href="#C0_0_f8959f7640" x="204.072516" y="144.419362" style="fill: #005000; stroke: #005000"/>
    </g>
    <g clip-path="url(#pde51204041)">
     <use xlink:href="#C0_0_f8959f7640" x="190.13096" y="171.125216" style="fill: #00573c; stroke: #00573c"/>
    </g>
    <g clip-path="url(#pde51204041)">
     <use xlink:href="#C0_0_f8959f7640" x="219.584307" y="195.034542" style="fill: #004867; stroke: #004867"/>
    </g>
    <g clip-path="url(#pde51204041)">
     <use xlink:href="#C0_0_f8959f7640" x="257.928114" y="208.198696" style="fill: #2c2475; stroke: #2c2475"/>
    </g>
    <g clip-path="url(#pde51204041)">
     <use xlink:href="#C0_0_f8959f7640" x="275.653655" y="201.222775" style="fill: #590061; stroke: #590061"/>
    </g>
    <g clip-path="url(#pde51204041)">
     <use xlink:href="#C0_0_f8959f7640" x="276.013974" y="178.884744" style="fill: #6a0037; stroke: #6a0037"/>
    </g>
    <g clip-path="url(#pde51204041)">
     <use xlink:href="#C0_0_f8959f7640" x="298.77916" y="124.17964" style="fill: #ff5034; stroke: #ff5034"/>
    </g>
    <g clip-path="url(#pde51204041)">
     <use xlink:href="#C0_0_f8959f7640" x="241.17226" y="60.417308" style="fill: #ffc600; stroke: #ffc600"/>
    </g>
    <g clip-path="url(#pde51204041)">
     <use xlink:href="#C0_0_f8959f7640" x="174.570575" y="121.171854" style="fill: #00f02e; stroke: #00f02e"/>
    </g>
    <g clip-path="url(#pde51204041)">
     <use xlink:href="#C0_0_f8959f7640" x="149.055685" y="167.755749" style="fill: #00ffc0; stroke: #00ffc0"/>
    </g>
    <g clip-path="url(#pde51204041)">
     <use xlink:href="#C0_0_f8959f7640" x="205.589116" y="217.21527" style="fill: #00dcff; stroke: #00dcff"/>
    </g>
    <g clip-path="url(#pde51204041)">
     <use xlink:href="#C0_0_f8959f7640" x="307.957145" y="280.126942" style="fill: #816bff; stroke: #816bff"/>
    </g>
    <g clip-path="url(#pde51204041)">
     <use xlink:href="#C0_0_f8959f7640" x="298.218498" y="217.909736" style="fill: #e43af4; stroke: #e43af4"/>
    </g>
    <g clip-path="url(#pde51204041)">
     <use xlink:href="#C0_0_f8959f7640" x="299.9959" y="181.151309" style="fill: #ff21a0; stroke: #ff21a0"/>
    </g>
    <g clip-path="url(#pde51204041)">
     <use xlink:href="#C0_0_f8959f7640" x="248.907825" y="164.111351" style="fill: #ffe0d2; stroke: #ffe0d2"/>
    </g>
    <g clip-path="url(#pde51204041)">
     <use xlink:href="#C0_0_f8959f7640" x="233.738089" y="157.861227" style="fill: #fef3c7; stroke: #fef3c7"/>
    </g>
    <g clip-path="url(#pde51204041)">
     <use xlink:href="#C0_0_f8959f7640" x="219.273413" y="161.403485" style="fill: #d6ffd4; stroke: #d6ffd4"/>
    </g>
    <g clip-path="url(#pde51204041)">
     <use xlink:href="#C0_0_f8959f7640" x="215.19084" y="172.629477" style="fill: #b9fff2; stroke: #b9fff2"/>
    </g>
    <g clip-path="url(#pde51204041)">
     <use xlink:href="#C0_0_f8959f7640" x="224.924277" y="185.041581" style="fill: #c1feff; stroke: #c1feff"/>
    </g>
    <g clip-path="url(#pde51204041)">
     <use xlink:href="#C0_0_f8959f7640" x="239.829029" y="196.003813" style="fill: #cce1ff; stroke: #cce1ff"/>
    </g>
    <g clip-path="url(#pde51204041)">
     <use xlink:href="#C0_0_f8959f7640" x="254.021519" y="187.710036" style="fill: #ffdbff; stroke: #ffdbff"/>
    </g>
    <g clip-path="url(#pde51204041)">
     <use xlink:href="#C0_0_f8959f7640" x="256.788259" y="176.432947" style="fill: #ffd6ef; stroke: #ffd6ef"/>
    </g>
    <g clip-path="url(#pde51204041)">
     <use xlink:href="#C0_0_f8959f7640" x="230.964977" y="181.449103" style="fill: #627d89; stroke: #627d89"/>
    </g>
    <g clip-path="url(#pde51204041)">
     <use xlink:href="#C0_0_f8959f7640" x="229.992603" y="183.707595" style="fill: #002633; stroke: #002633"/>
    </g>
    <g clip-path="url(#pde51204041)">
     <use xlink:href="#C0_0_f8959f7640" x="229.932026" y="183.58102" style="fill: #0b3340; stroke: #0b3340"/>
    </g>
    <g clip-path="url(#pde51204041)">
     <use xlink:href="#C0_0_f8959f7640" x="231.070918" y="181.323519" style="fill: #56707b; stroke: #56707b"/>
    </g>
    <g clip-path="url(#pde51204041)">
     <use xlink:href="#C0_0_f8959f7640" x="233.913676" y="177.386842" style="fill: #899499; stroke: #899499"/>
    </g>
    <g clip-path="url(#pde51204041)">
     <use xlink:href="#C0_0_f8959f7640" x="233.869172" y="177.444081" style="fill: #96a1a6; stroke: #96a1a6"/>
    </g>
    <g clip-path="url(#pde51204041)">
     <use xlink:href="#C0_0_f8959f7640" x="236.118587" y="167.743107" style="fill: #f9f1e0; stroke: #f9f1e0"/>
    </g>
    <g clip-path="url(#pde51204041)">
     <use xlink:href="#C0_0_f8959f7640" x="236.117401" y="167.661293" style="fill: #fff9e8; stroke: #fff9e8"/>
    </g>
    <g clip-path="url(#pde51204041)">
     <use xlink:href="#C0_0_f8959f7640" x="236.16" y="174.528" style="stroke: #000000"/>
    </g>
    <g clip-path="url(#pde51204041)">
     <use xlink:href="#C0_0_f8959f7640" x="236.240278" y="174.491687" style="fill: #ffffff; stroke: #ffffff"/>
    </g>
    <g clip-path="url(#pde51204041)">
     <use xlink:href="#C0_0_f8959f7640" x="236.205872" y="174.50725" style="fill: #787878; stroke: #787878"/>
    </g>
    <g clip-path="url(#pde51204041)">
     <use xlink:href="#C0_0_f8959f7640" x="236.187804" y="174.515423" style="fill: #3a3939; stroke: #3a3939"/>
    </g>
    <g clip-path="url(#pde51204041)">
     <use xlink:href="#C0_0_f8959f7640" x="236.223208" y="174.499408" style="fill: #bab9b9; stroke: #bab9b9"/>
    </g>
   </g>
   <g id="matplotlib.axis_1">
    <g id="xtick_1">
     <g id="line2d_1">
      <path d="M 236.16 174.528 
L 369.216 174.528 
" clip-path="url(#pde51204041)" style="fill: none; stroke: #b0b0b0; stroke-width: 0.8; stroke-linecap: square"/>
     </g>
     <g id="text_1">
      <!-- 0° -->
      <g transform="translate(377.53475 177.287375) scale(0.1 -0.1)">
       <defs>
        <path id="DejaVuSans-30" d="M 2034 4250 
Q 1547 4250 1301 3770 
Q 1056 3291 1056 2328 
Q 1056 1369 1301 889 
Q 1547 409 2034 409 
Q 2525 409 2770 889 
Q 3016 1369 3016 2328 
Q 3016 3291 2770 3770 
Q 2525 4250 2034 4250 
z
M 2034 4750 
Q 2819 4750 3233 4129 
Q 3647 3509 3647 2328 
Q 3647 1150 3233 529 
Q 2819 -91 2034 -91 
Q 1250 -91 836 529 
Q 422 1150 422 2328 
Q 422 3509 836 4129 
Q 1250 4750 2034 4750 
z
" transform="scale(0.015625)"/>
        <path id="DejaVuSans-b0" d="M 1600 4347 
Q 1350 4347 1178 4173 
Q 1006 4000 1006 3750 
Q 1006 3503 1178 3333 
Q 1350 3163 1600 3163 
Q 1850 3163 2022 3333 
Q 2194 3503 2194 3750 
Q 2194 3997 2020 4172 
Q 1847 4347 1600 4347 
z
M 1600 4750 
Q 1800 4750 1984 4673 
Q 2169 4597 2303 4453 
Q 2447 4313 2519 4134 
Q 2591 3956 2591 3750 
Q 2591 3338 2302 3052 
Q 2013 2766 1594 2766 
Q 1172 2766 890 3047 
Q 609 3328 609 3750 
Q 609 4169 896 4459 
Q 1184 4750 1600 4750 
z
" transform="scale(0.015625)"/>
       </defs>
       <use xlink:href="#DejaVuSans-30"/>
       <use xlink:href="#DejaVuSans-b0" x="63.623047"/>
      </g>
     </g>
    </g>
    <g id="xtick_2">
     <g id="line2d_2">
      <path d="M 236.16 174.528 
L 330.2448 80.4432 
" clip-path="url(#pde51204041)" style="fill: none; stroke: #b0b0b0; stroke-width: 0.8; stroke-linecap: square"/>
     </g>
     <g id="text_2">
      <!-- 45° -->
      <g transform="translate(331.281795 73.30308) scale(0.1 -0.1)">
       <defs>
        <path id="DejaVuSans-34" d="M 2419 4116 
L 825 1625 
L 2419 1625 
L 2419 4116 
z
M 2253 4666 
L 3047 4666 
L 3047 1625 
L 3713 1625 
L 3713 1100 
L 3047 1100 
L 3047 0 
L 2419 0 
L 2419 1100 
L 313 1100 
L 313 1709 
L 2253 4666 
z
" transform="scale(0.015625)"/>
        <path id="DejaVuSans-35" d="M 691 4666 
L 3169 4666 
L 3169 4134 
L 1269 4134 
L 1269 2991 
Q 1406 3038 1543 3061 
Q 1681 3084 1819 3084 
Q 2600 3084 3056 2656 
Q 3513 2228 3513 1497 
Q 3513 744 3044 326 
Q 2575 -91 1722 -91 
Q 1428 -91 1123 -41 
Q 819 9 494 109 
L 494 744 
Q 775 591 1075 516 
Q 1375 441 1709 441 
Q 2250 441 2565 725 
Q 2881 1009 2881 1497 
Q 2881 1984 2565 2268 
Q 2250 2553 1709 2553 
Q 1456 2553 1204 2497 
Q 953 2441 691 2322 
L 691 4666 
z
" transform="scale(0.015625)"/>
       </defs>
       <use xlink:href="#DejaVuSans-34"/>
       <use xlink:href="#DejaVuSans-35" x="63.623047"/>
       <use xlink:href="#DejaVuSans-b0" x="127.246094"/>
      </g>
     </g>
    </g>
    <g id="xtick_3">
     <g id="line2d_3">
      <path d="M 236.16 174.528 
L 236.16 41.472 
" clip-path="url(#pde51204041)" style="fill: none; stroke: #b0b0b0; stroke-width: 0.8; stroke-linecap: square"/>
     </g>
     <g id="text_3">
      <!-- 90° -->
      <g transform="translate(227.2975 30.231375) scale(0.1 -0.1)">
       <defs>
        <path id="DejaVuSans-39" d="M 703 97 
L 703 672 
Q 941 559 1184 500 
Q 1428 441 1663 441 
Q 2288 441 2617 861 
Q 2947 1281 2994 2138 
Q 2813 1869 2534 1725 
Q 2256 1581 1919 1581 
Q 1219 1581 811 2004 
Q 403 2428 403 3163 
Q 403 3881 828 4315 
Q 1253 4750 1959 4750 
Q 2769 4750 3195 4129 
Q 3622 3509 3622 2328 
Q 3622 1225 3098 567 
Q 2575 -91 1691 -91 
Q 1453 -91 1209 -44 
Q 966 3 703 97 
z
M 1959 2075 
Q 2384 2075 2632 2365 
Q 2881 2656 2881 3163 
Q 2881 3666 2632 3958 
Q 2384 4250 1959 4250 
Q 1534 4250 1286 3958 
Q 1038 3666 1038 3163 
Q 1038 2656 1286 2365 
Q 1534 2075 1959 2075 
z
" transform="scale(0.015625)"/>
       </defs>
       <use xlink:href="#DejaVuSans-39"/>
       <use xlink:href="#DejaVuSans-30" x="63.623047"/>
       <use xlink:href="#DejaVuSans-b0" x="127.246094"/>
      </g>
     </g>
    </g>
    <g id="xtick_4">
     <g id="line2d_4">
      <path d="M 236.16 174.528 
L 142.0752 80.4432 
" clip-path="url(#pde51204041)" style="fill: none; stroke: #b0b0b0; stroke-width: 0.8; stroke-linecap: square"/>
     </g>
     <g id="text_4">
      <!-- 135° -->
      <g transform="translate(120.131955 73.30308) scale(0.1 -0.1)">
       <defs>
        <path id="DejaVuSans-31" d="M 794 531 
L 1825 531 
L 1825 4091 
L 703 3866 
L 703 4441 
L 1819 4666 
L 2450 4666 
L 2450 531 
L 3481 531 
L 3481 0 
L 794 0 
L 794 531 
z
" transform="scale(0.015625)"/>
        <path id="DejaVuSans-33" d="M 2597 2516 
Q 3050 2419 3304 2112 
Q 3559 1806 3559 1356 
Q 3559 666 3084 287 
Q 2609 -91 1734 -91 
Q 1441 -91 1130 -33 
Q 819 25 488 141 
L 488 750 
Q 750 597 1062 519 
Q 1375 441 1716 441 
Q 2309 441 2620 675 
Q 2931 909 2931 1356 
Q 2931 1769 2642 2001 
Q 2353 2234 1838 2234 
L 1294 2234 
L 1294 2753 
L 1863 2753 
Q 2328 2753 2575 2939 
Q 2822 3125 2822 3475 
Q 2822 3834 2567 4026 
Q 2313 4219 1838 4219 
Q 1578 4219 1281 4162 
Q 984 4106 628 3988 
L 628 4550 
Q 988 4650 1302 4700 
Q 1616 4750 1894 4750 
Q 2613 4750 3031 4423 
Q 3450 4097 3450 3541 
Q 3450 3153 3228 2886 
Q 3006 2619 2597 2516 
z
" transform="scale(0.015625)"/>
       </defs>
       <use xlink:href="#DejaVuSans-31"/>
       <use xlink:href="#DejaVuSans-33" x="63.623047"/>
       <use xlink:href="#DejaVuSans-35" x="127.246094"/>
       <use xlink:href="#DejaVuSans-b0" x="190.869141"/>
      </g>
     </g>
    </g>
    <g id="xtick_5">
     <g id="line2d_5">
      <path d="M 236.16 174.528 
L 103.104 174.528 
" clip-path="url(#pde51204041)" style="fill: none; stroke: #b0b0b0; stroke-width: 0.8; stroke-linecap: square"/>
     </g>
     <g id="text_5">
      <!-- 180° -->
      <g transform="translate(77.06025 177.287375) scale(0.1 -0.1)">
       <defs>
        <path id="DejaVuSans-38" d="M 2034 2216 
Q 1584 2216 1326 1975 
Q 1069 1734 1069 1313 
Q 1069 891 1326 650 
Q 1584 409 2034 409 
Q 2484 409 2743 651 
Q 3003 894 3003 1313 
Q 3003 1734 2745 1975 
Q 2488 2216 2034 2216 
z
M 1403 2484 
Q 997 2584 770 2862 
Q 544 3141 544 3541 
Q 544 4100 942 4425 
Q 1341 4750 2034 4750 
Q 2731 4750 3128 4425 
Q 3525 4100 3525 3541 
Q 3525 3141 3298 2862 
Q 3072 2584 2669 2484 
Q 3125 2378 3379 2068 
Q 3634 1759 3634 1313 
Q 3634 634 3220 271 
Q 2806 -91 2034 -91 
Q 1263 -91 848 271 
Q 434 634 434 1313 
Q 434 1759 690 2068 
Q 947 2378 1403 2484 
z
M 1172 3481 
Q 1172 3119 1398 2916 
Q 1625 2713 2034 2713 
Q 2441 2713 2670 2916 
Q 2900 3119 2900 3481 
Q 2900 3844 2670 4047 
Q 2441 4250 2034 4250 
Q 1625 4250 1398 4047 
Q 1172 3844 1172 3481 
z
" transform="scale(0.015625)"/>
       </defs>
       <use xlink:href="#DejaVuSans-31"/>
       <use xlink:href="#DejaVuSans-38" x="63.623047"/>
       <use xlink:href="#DejaVuSans-30" x="127.246094"/>
       <use xlink:href="#DejaVuSans-b0" x="190.869141"/>
      </g>
     </g>
    </g>
    <g id="xtick_6">
     <g id="line2d_6">
      <path d="M 236.16 174.528 
L 142.0752 268.6128 
" clip-path="url(#pde51204041)" style="fill: none; stroke: #b0b0b0; stroke-width: 0.8; stroke-linecap: square"/>
     </g>
     <g id="text_6">
      <!-- 225° -->
      <g transform="translate(120.131955 281.27167) scale(0.1 -0.1)">
       <defs>
        <path id="DejaVuSans-32" d="M 1228 531 
L 3431 531 
L 3431 0 
L 469 0 
L 469 531 
Q 828 903 1448 1529 
Q 2069 2156 2228 2338 
Q 2531 2678 2651 2914 
Q 2772 3150 2772 3378 
Q 2772 3750 2511 3984 
Q 2250 4219 1831 4219 
Q 1534 4219 1204 4116 
Q 875 4013 500 3803 
L 500 4441 
Q 881 4594 1212 4672 
Q 1544 4750 1819 4750 
Q 2544 4750 2975 4387 
Q 3406 4025 3406 3419 
Q 3406 3131 3298 2873 
Q 3191 2616 2906 2266 
Q 2828 2175 2409 1742 
Q 1991 1309 1228 531 
z
" transform="scale(0.015625)"/>
       </defs>
       <use xlink:href="#DejaVuSans-32"/>
       <use xlink:href="#DejaVuSans-32" x="63.623047"/>
       <use xlink:href="#DejaVuSans-35" x="127.246094"/>
       <use xlink:href="#DejaVuSans-b0" x="190.869141"/>
      </g>
     </g>
    </g>
    <g id="xtick_7">
     <g id="line2d_7">
      <path d="M 236.16 174.528 
L 236.16 307.584 
" clip-path="url(#pde51204041)" style="fill: none; stroke: #b0b0b0; stroke-width: 0.8; stroke-linecap: square"/>
     </g>
     <g id="text_7">
      <!-- 270° -->
      <g transform="translate(224.11625 324.343375) scale(0.1 -0.1)">
       <defs>
        <path id="DejaVuSans-37" d="M 525 4666 
L 3525 4666 
L 3525 4397 
L 1831 0 
L 1172 0 
L 2766 4134 
L 525 4134 
L 525 4666 
z
" transform="scale(0.015625)"/>
       </defs>
       <use xlink:href="#DejaVuSans-32"/>
       <use xlink:href="#DejaVuSans-37" x="63.623047"/>
       <use xlink:href="#DejaVuSans-30" x="127.246094"/>
       <use xlink:href="#DejaVuSans-b0" x="190.869141"/>
      </g>
     </g>
    </g>
    <g id="xtick_8">
     <g id="line2d_8">
      <path d="M 236.16 174.528 
L 330.2448 268.6128 
" clip-path="url(#pde51204041)" style="fill: none; stroke: #b0b0b0; stroke-width: 0.8; stroke-linecap: square"/>
     </g>
     <g id="text_8">
      <!-- 315° -->
      <g transform="translate(328.100545 281.27167) scale(0.1 -0.1)">
       <use xlink:href="#DejaVuSans-33"/>
       <use xlink:href="#DejaVuSans-31" x="63.623047"/>
       <use xlink:href="#DejaVuSans-35" x="127.246094"/>
       <use xlink:href="#DejaVuSans-b0" x="190.869141"/>
      </g>
     </g>
    </g>
   </g>
   <g id="matplotlib.axis_2">
    <g id="ytick_1">
     <g id="line2d_9">
      <path d="M 250.944 174.528 
C 250.944 172.586583 250.561583 170.664044 249.818635 168.870408 
C 249.075687 167.076773 247.986656 165.446923 246.613867 164.074133 
C 245.241077 162.701344 243.611227 161.612313 241.817592 160.869365 
C 240.023956 160.126417 238.101417 159.744 236.16 159.744 
C 234.218583 159.744 232.296044 160.126417 230.502408 160.869365 
C 228.708773 161.612313 227.078923 162.701344 225.706133 164.074133 
C 224.333344 165.446923 223.244313 167.076773 222.501365 168.870408 
C 221.758417 170.664044 221.376 172.586583 221.376 174.528 
C 221.376 176.469417 221.758417 178.391956 222.501365 180.185592 
C 223.244313 181.979227 224.333344 183.609077 225.706133 184.981867 
C 227.078923 186.354656 228.708773 187.443687 230.502408 188.186635 
C 232.296044 188.929583 234.218583 189.312 236.16 189.312 
C 238.101417 189.312 240.023956 188.929583 241.817592 188.186635 
C 243.611227 187.443687 245.241077 186.354656 246.613867 184.981867 
C 247.986656 183.609077 249.075687 181.979227 249.818635 180.185592 
C 250.561583 178.391956 250.944 176.469417 250.944 174.528 
" clip-path="url(#pde51204041)" style="fill: none; stroke: #b0b0b0; stroke-width: 0.8; stroke-linecap: square"/>
     </g>
     <g id="text_9">
      <!-- 20 -->
      <g transform="translate(249.818635 166.790721) scale(0.1 -0.1)">
       <use xlink:href="#DejaVuSans-32"/>
       <use xlink:href="#DejaVuSans-30" x="63.623047"/>
      </g>
     </g>
    </g>
    <g id="ytick_2">
     <g id="line2d_10">
      <path d="M 265.728 174.528 
C 265.728 170.645166 264.963166 166.800087 263.47727 163.212816 
C 261.991374 159.625545 259.813312 156.365845 257.067733 153.620267 
C 254.322155 150.874688 251.062455 148.696626 247.475184 147.21073 
C 243.887913 145.724834 240.042834 144.96 236.16 144.96 
C 232.277166 144.96 228.432087 145.724834 224.844816 147.21073 
C 221.257545 148.696626 217.997845 150.874688 215.252267 153.620267 
C 212.506688 156.365845 210.328626 159.625545 208.84273 163.212816 
C 207.356834 166.800087 206.592 170.645166 206.592 174.528 
C 206.592 178.410834 207.356834 182.255913 208.84273 185.843184 
C 210.328626 189.430455 212.506688 192.690155 215.252267 195.435733 
C 217.997845 198.181312 221.257545 200.359374 224.844816 201.84527 
C 228.432087 203.331166 232.277166 204.096 236.16 204.096 
C 240.042834 204.096 243.887913 203.331166 247.475184 201.84527 
C 251.062455 200.359374 254.322155 198.181312 257.067733 195.435733 
C 259.813312 192.690155 261.991374 189.430455 263.47727 185.843184 
C 264.963166 182.255913 265.728 178.410834 265.728 174.528 
" clip-path="url(#pde51204041)" style="fill: none; stroke: #b0b0b0; stroke-width: 0.8; stroke-linecap: square"/>
     </g>
     <g id="text_10">
      <!-- 40 -->
      <g transform="translate(263.47727 161.133129) scale(0.1 -0.1)">
       <use xlink:href="#DejaVuSans-34"/>
       <use xlink:href="#DejaVuSans-30" x="63.623047"/>
      </g>
     </g>
    </g>
    <g id="ytick_3">
     <g id="line2d_11">
      <path d="M 280.512 174.528 
C 280.512 168.703749 279.364749 162.936131 277.135905 157.555224 
C 274.907061 152.174318 271.639968 147.284768 267.5216 143.1664 
C 263.403232 139.048032 258.513682 135.780939 253.132776 133.552095 
C 247.751869 131.323251 241.984251 130.176 236.16 130.176 
C 230.335749 130.176 224.568131 131.323251 219.187224 133.552095 
C 213.806318 135.780939 208.916768 139.048032 204.7984 143.1664 
C 200.680032 147.284768 197.412939 152.174318 195.184095 157.555224 
C 192.955251 162.936131 191.808 168.703749 191.808 174.528 
C 191.808 180.352251 192.955251 186.119869 195.184095 191.500776 
C 197.412939 196.881682 200.680032 201.771232 204.7984 205.8896 
C 208.916768 210.007968 213.806318 213.275061 219.187224 215.503905 
C 224.568131 217.732749 230.335749 218.88 236.16 218.88 
C 241.984251 218.88 247.751869 217.732749 253.132776 215.503905 
C 258.513682 213.275061 263.403232 210.007968 267.5216 205.8896 
C 271.639968 201.771232 274.907061 196.881682 277.135905 191.500776 
C 279.364749 186.119869 280.512 180.352251 280.512 174.528 
" clip-path="url(#pde51204041)" style="fill: none; stroke: #b0b0b0; stroke-width: 0.8; stroke-linecap: square"/>
     </g>
     <g id="text_11">
      <!-- 60 -->
      <g transform="translate(277.135905 155.475537) scale(0.1 -0.1)">
       <defs>
        <path id="DejaVuSans-36" d="M 2113 2584 
Q 1688 2584 1439 2293 
Q 1191 2003 1191 1497 
Q 1191 994 1439 701 
Q 1688 409 2113 409 
Q 2538 409 2786 701 
Q 3034 994 3034 1497 
Q 3034 2003 2786 2293 
Q 2538 2584 2113 2584 
z
M 3366 4563 
L 3366 3988 
Q 3128 4100 2886 4159 
Q 2644 4219 2406 4219 
Q 1781 4219 1451 3797 
Q 1122 3375 1075 2522 
Q 1259 2794 1537 2939 
Q 1816 3084 2150 3084 
Q 2853 3084 3261 2657 
Q 3669 2231 3669 1497 
Q 3669 778 3244 343 
Q 2819 -91 2113 -91 
Q 1303 -91 875 529 
Q 447 1150 447 2328 
Q 447 3434 972 4092 
Q 1497 4750 2381 4750 
Q 2619 4750 2861 4703 
Q 3103 4656 3366 4563 
z
" transform="scale(0.015625)"/>
       </defs>
       <use xlink:href="#DejaVuSans-36"/>
       <use xlink:href="#DejaVuSans-30" x="63.623047"/>
      </g>
     </g>
    </g>
    <g id="ytick_4">
     <g id="line2d_12">
      <path d="M 295.296 174.528 
C 295.296 166.762332 293.766333 159.072175 290.79454 151.897633 
C 287.822747 144.72309 283.466623 138.20369 277.975467 132.712533 
C 272.48431 127.221377 265.96491 122.865253 258.790367 119.89346 
C 251.615825 116.921667 243.925668 115.392 236.16 115.392 
C 228.394332 115.392 220.704175 116.921667 213.529633 119.89346 
C 206.35509 122.865253 199.83569 127.221377 194.344533 132.712533 
C 188.853377 138.20369 184.497253 144.72309 181.52546 151.897633 
C 178.553667 159.072175 177.024 166.762332 177.024 174.528 
C 177.024 182.293668 178.553667 189.983825 181.52546 197.158367 
C 184.497253 204.33291 188.853377 210.85231 194.344533 216.343467 
C 199.83569 221.834623 206.35509 226.190747 213.529633 229.16254 
C 220.704175 232.134333 228.394332 233.664 236.16 233.664 
C 243.925668 233.664 251.615825 232.134333 258.790367 229.16254 
C 265.96491 226.190747 272.48431 221.834623 277.975467 216.343467 
C 283.466623 210.85231 287.822747 204.33291 290.79454 197.158367 
C 293.766333 189.983825 295.296 182.293668 295.296 174.528 
" clip-path="url(#pde51204041)" style="fill: none; stroke: #b0b0b0; stroke-width: 0.8; stroke-linecap: square"/>
     </g>
     <g id="text_12">
      <!-- 80 -->
      <g transform="translate(290.79454 149.817945) scale(0.1 -0.1)">
       <use xlink:href="#DejaVuSans-38"/>
       <use xlink:href="#DejaVuSans-30" x="63.623047"/>
      </g>
     </g>
    </g>
    <g id="ytick_5">
     <g id="line2d_13">
      <path d="M 310.08 174.528 
C 310.08 164.820915 308.167916 155.208218 304.453175 146.240041 
C 300.738434 137.271863 295.293279 129.122613 288.429333 122.258667 
C 281.565387 115.394721 273.416137 109.949566 264.447959 106.234825 
C 255.479782 102.520084 245.867085 100.608 236.16 100.608 
C 226.452915 100.608 216.840218 102.520084 207.872041 106.234825 
C 198.903863 109.949566 190.754613 115.394721 183.890667 122.258667 
C 177.026721 129.122613 171.581566 137.271863 167.866825 146.240041 
C 164.152084 155.208218 162.24 164.820915 162.24 174.528 
C 162.24 184.235085 164.152084 193.847782 167.866825 202.815959 
C 171.581566 211.784137 177.026721 219.933387 183.890667 226.797333 
C 190.754613 233.661279 198.903863 239.106434 207.872041 242.821175 
C 216.840218 246.535916 226.452915 248.448 236.16 248.448 
C 245.867085 248.448 255.479782 246.535916 264.447959 242.821175 
C 273.416137 239.106434 281.565387 233.661279 288.429333 226.797333 
C 295.293279 219.933387 300.738434 211.784137 304.453175 202.815959 
C 308.167916 193.847782 310.08 184.235085 310.08 174.528 
" clip-path="url(#pde51204041)" style="fill: none; stroke: #b0b0b0; stroke-width: 0.8; stroke-linecap: square"/>
     </g>
     <g id="text_13">
      <!-- 100 -->
      <g transform="translate(304.453175 144.160353) scale(0.1 -0.1)">
       <use xlink:href="#DejaVuSans-31"/>
       <use xlink:href="#DejaVuSans-30" x="63.623047"/>
       <use xlink:href="#DejaVuSans-30" x="127.246094"/>
      </g>
     </g>
    </g>
    <g id="ytick_6">
     <g id="line2d_14">
      <path d="M 324.864 174.528 
C 324.864 162.879497 322.569499 151.344262 318.11181 140.582449 
C 313.654121 129.820636 307.119935 120.041535 298.8832 111.8048 
C 290.646465 103.568065 280.867364 97.033879 270.105551 92.57619 
C 259.343738 88.118501 247.808503 85.824 236.16 85.824 
C 224.511497 85.824 212.976262 88.118501 202.214449 92.57619 
C 191.452636 97.033879 181.673535 103.568065 173.4368 111.8048 
C 165.200065 120.041535 158.665879 129.820636 154.20819 140.582449 
C 149.750501 151.344262 147.456 162.879497 147.456 174.528 
C 147.456 186.176503 149.750501 197.711738 154.20819 208.473551 
C 158.665879 219.235364 165.200065 229.014465 173.4368 237.2512 
C 181.673535 245.487935 191.452636 252.022121 202.214449 256.47981 
C 212.976262 260.937499 224.511497 263.232 236.16 263.232 
C 247.808503 263.232 259.343738 260.937499 270.105551 256.47981 
C 280.867364 252.022121 290.646465 245.487935 298.8832 237.2512 
C 307.119935 229.014465 313.654121 219.235364 318.11181 208.473551 
C 322.569499 197.711738 324.864 186.176503 324.864 174.528 
" clip-path="url(#pde51204041)" style="fill: none; stroke: #b0b0b0; stroke-width: 0.8; stroke-linecap: square"/>
     </g>
     <g id="text_14">
      <!-- 120 -->
      <g transform="translate(318.11181 138.502761) scale(0.1 -0.1)">
       <use xlink:href="#DejaVuSans-31"/>
       <use xlink:href="#DejaVuSans-32" x="63.623047"/>
       <use xlink:href="#DejaVuSans-30" x="127.246094"/>
      </g>
     </g>
    </g>
    <g id="ytick_7">
     <g id="line2d_15">
      <path d="M 339.648 174.528 
C 339.648 160.93808 336.971082 147.480306 331.770445 134.924857 
C 326.569808 122.369408 318.946591 110.960458 309.337067 101.350933 
C 299.727542 91.741409 288.318592 84.118192 275.763143 78.917555 
C 263.207694 73.716918 249.74992 71.04 236.16 71.04 
C 222.57008 71.04 209.112306 73.716918 196.556857 78.917555 
C 184.001408 84.118192 172.592458 91.741409 162.982933 101.350933 
C 153.373409 110.960458 145.750192 122.369408 140.549555 134.924857 
C 135.348918 147.480306 132.672 160.93808 132.672 174.528 
C 132.672 188.11792 135.348918 201.575694 140.549555 214.131143 
C 145.750192 226.686592 153.373409 238.095542 162.982933 247.705067 
C 172.592458 257.314591 184.001408 264.937808 196.556857 270.138445 
C 209.112306 275.339082 222.57008 278.016 236.16 278.016 
C 249.74992 278.016 263.207694 275.339082 275.763143 270.138445 
C 288.318592 264.937808 299.727542 257.314591 309.337067 247.705067 
C 318.946591 238.095542 326.569808 226.686592 331.770445 214.131143 
C 336.971082 201.575694 339.648 188.11792 339.648 174.528 
" clip-path="url(#pde51204041)" style="fill: none; stroke: #b0b0b0; stroke-width: 0.8; stroke-linecap: square"/>
     </g>
     <g id="text_15">
      <!-- 140 -->
      <g transform="translate(331.770445 132.845169) scale(0.1 -0.1)">
       <use xlink:href="#DejaVuSans-31"/>
       <use xlink:href="#DejaVuSans-34" x="63.623047"/>
       <use xlink:href="#DejaVuSans-30" x="127.246094"/>
      </g>
     </g>
    </g>
    <g id="ytick_8">
     <g id="line2d_16">
      <path d="M 354.432 174.528 
C 354.432 158.996663 351.372665 143.616349 345.42908 129.267265 
C 339.485495 114.918181 330.773247 101.87938 319.790933 90.897067 
C 308.80862 79.914753 295.769819 71.202505 281.420735 65.25892 
C 267.071651 59.315335 251.691337 56.256 236.16 56.256 
C 220.628663 56.256 205.248349 59.315335 190.899265 65.25892 
C 176.550181 71.202505 163.51138 79.914753 152.529067 90.897067 
C 141.546753 101.87938 132.834505 114.918181 126.89092 129.267265 
C 120.947335 143.616349 117.888 158.996663 117.888 174.528 
C 117.888 190.059337 120.947335 205.439651 126.89092 219.788735 
C 132.834505 234.137819 141.546753 247.17662 152.529067 258.158933 
C 163.51138 269.141247 176.550181 277.853495 190.899265 283.79708 
C 205.248349 289.740665 220.628663 292.8 236.16 292.8 
C 251.691337 292.8 267.071651 289.740665 281.420735 283.79708 
C 295.769819 277.853495 308.80862 269.141247 319.790933 258.158933 
C 330.773247 247.17662 339.485495 234.137819 345.42908 219.788735 
C 351.372665 205.439651 354.432 190.059337 354.432 174.528 
" clip-path="url(#pde51204041)" style="fill: none; stroke: #b0b0b0; stroke-width: 0.8; stroke-linecap: square"/>
     </g>
     <g id="text_16">
      <!-- 160 -->
      <g transform="translate(345.42908 127.187578) scale(0.1 -0.1)">
       <use xlink:href="#DejaVuSans-31"/>
       <use xlink:href="#DejaVuSans-36" x="63.623047"/>
       <use xlink:href="#DejaVuSans-30" x="127.246094"/>
      </g>
     </g>
    </g>
    <g id="ytick_9">
     <g id="line2d_17">
      <path d="M 369.216 174.528 
C 369.216 157.055246 365.774248 139.752393 359.087715 123.609673 
C 352.401182 107.466954 342.599903 92.798303 330.2448 80.4432 
C 317.889697 68.088097 303.221046 58.286818 287.078327 51.600285 
C 270.935607 44.913752 253.632754 41.472 236.16 41.472 
C 218.687246 41.472 201.384393 44.913752 185.241673 51.600285 
C 169.098954 58.286818 154.430303 68.088097 142.0752 80.4432 
C 129.720097 92.798303 119.918818 107.466954 113.232285 123.609673 
C 106.545752 139.752393 103.104 157.055246 103.104 174.528 
C 103.104 192.000754 106.545752 209.303607 113.232285 225.446327 
C 119.918818 241.589046 129.720097 256.257697 142.0752 268.6128 
C 154.430303 280.967903 169.098954 290.769182 185.241673 297.455715 
C 201.384393 304.142248 218.687246 307.584 236.16 307.584 
C 253.632754 307.584 270.935607 304.142248 287.078327 297.455715 
C 303.221046 290.769182 317.889697 280.967903 330.2448 268.6128 
C 342.599903 256.257697 352.401182 241.589046 359.087715 225.446327 
C 365.774248 209.303607 369.216 192.000754 369.216 174.528 
" clip-path="url(#pde51204041)" style="fill: none; stroke: #b0b0b0; stroke-width: 0.8; stroke-linecap: square"/>
     </g>
     <g id="text_17">
      <!-- 180 -->
      <g transform="translate(359.087715 121.529986) scale(0.1 -0.1)">
       <use xlink:href="#DejaVuSans-31"/>
       <use xlink:href="#DejaVuSans-38" x="63.623047"/>
       <use xlink:href="#DejaVuSans-30" x="127.246094"/>
      </g>
     </g>
    </g>
   </g>
   <g id="patch_3">
    <path d="M 369.216 174.528 
C 369.216 157.055246 365.774248 139.752393 359.087715 123.609673 
C 352.401182 107.466954 342.599903 92.798303 330.2448 80.4432 
C 317.889697 68.088097 303.221046 58.286818 287.078327 51.600285 
C 270.935607 44.913752 253.632754 41.472 236.16 41.472 
C 218.687246 41.472 201.384393 44.913752 185.241673 51.600285 
C 169.098954 58.286818 154.430303 68.088097 142.0752 80.4432 
C 129.720097 92.798303 119.918818 107.466954 113.232285 123.609673 
C 106.545752 139.752393 103.104 157.055246 103.104 174.528 
C 103.104 192.000754 106.545752 209.303607 113.232285 225.446327 
C 119.918818 241.589046 129.720097 256.257697 142.0752 268.6128 
C 154.430303 280.967903 169.098954 290.769182 185.241673 297.455715 
C 201.384393 304.142248 218.687246 307.584 236.16 307.584 
C 253.632754 307.584 270.935607 304.142248 287.078327 297.455715 
C 303.221046 290.769182 317.889697 280.967903 330.2448 268.6128 
C 342.599903 256.257697 352.401182 241.589046 359.087715 225.446327 
C 365.774248 209.303607 369.216 192.000754 369.216 174.528 
" style="fill: none; stroke: #000000; stroke-width: 0.8; stroke-linejoin: miter; stroke-linecap: square"/>
   </g>
  </g>
 </g>
 <defs>
  <clipPath id="pde51204041">
   <path d="M 369.216 174.528 
C 369.216 157.055246 365.774248 139.752393 359.087715 123.609673 
C 352.401182 107.466954 342.599903 92.798303 330.2448 80.4432 
C 317.889697 68.088097 303.221046 58.286818 287.078327 51.600285 
C 270.935607 44.913752 253.632754 41.472 236.16 41.472 
C 218.687246 41.472 201.384393 44.913752 185.241673 51.600285 
C 169.098954 58.286818 154.430303 68.088097 142.0752 80.4432 
C 129.720097 92.798303 119.918818 107.466954 113.232285 123.609673 
C 106.545752 139.752393 103.104 157.055246 103.104 174.528 
C 103.104 192.000754 106.545752 209.303607 113.232285 225.446327 
C 119.918818 241.589046 129.720097 256.257697 142.0752 268.6128 
C 154.430303 280.967903 169.098954 290.769182 185.241673 297.455715 
C 201.384393 304.142248 218.687246 307.584 236.16 307.584 
C 253.632754 307.584 270.935607 304.142248 287.078327 297.455715 
C 303.221046 290.769182 317.889697 280.967903 330.2448 268.6128 
C 342.599903 256.257697 352.401182 241.589046 359.087715 225.446327 
C 365.774248 209.303607 369.216 192.000754 369.216 174.528 
M 236.16 174.528 
C 236.16 174.528 236.16 174.528 236.16 174.528 
C 236.16 174.528 236.16 174.528 236.16 174.528 
C 236.16 174.528 236.16 174.528 236.16 174.528 
C 236.16 174.528 236.16 174.528 236.16 174.528 
C 236.16 174.528 236.16 174.528 236.16 174.528 
C 236.16 174.528 236.16 174.528 236.16 174.528 
C 236.16 174.528 236.16 174.528 236.16 174.528 
C 236.16 174.528 236.16 174.528 236.16 174.528 
C 236.16 174.528 236.16 174.528 236.16 174.528 
C 236.16 174.528 236.16 174.528 236.16 174.528 
C 236.16 174.528 236.16 174.528 236.16 174.528 
C 236.16 174.528 236.16 174.528 236.16 174.528 
C 236.16 174.528 236.16 174.528 236.16 174.528 
C 236.16 174.528 236.16 174.528 236.16 174.528 
C 236.16 174.528 236.16 174.528 236.16 174.528 
C 236.16 174.528 236.16 174.528 236.16 174.528 
z
"/>
  </clipPath>
 </defs>
</svg>
