<?xml version="1.0" encoding="utf-8" standalone="no"?>
<!DOCTYPE svg PUBLIC "-//W3C//DTD SVG 1.1//EN"
  "http://www.w3.org/Graphics/SVG/1.1/DTD/svg11.dtd">
<svg xmlns:xlink="http://www.w3.org/1999/xlink" width="460.8pt" height="345.6pt" viewBox="0 0 460.8 345.6" xmlns="http://www.w3.org/2000/svg" version="1.1">
 <metadata>
  <rdf:RDF xmlns:dc="http://purl.org/dc/elements/1.1/" xmlns:cc="http://creativecommons.org/ns#" xmlns:rdf="http://www.w3.org/1999/02/22-rdf-syntax-ns#">
   <cc:Work>
    <dc:type rdf:resource="http://purl.org/dc/dcmitype/StillImage"/>
    <dc:date>2024-06-12T21:08:42.785366</dc:date>
    <dc:format>image/svg+xml</dc:format>
    <dc:creator>
     <cc:Agent>
      <dc:title>Matplotlib v3.9.0, https://matplotlib.org/</dc:title>
     </cc:Agent>
    </dc:creator>
   </cc:Work>
  </rdf:RDF>
 </metadata>
 <defs>
  <style type="text/css">*{stroke-linejoin: round; stroke-linecap: butt}</style>
 </defs>
 <g id="figure_1">
  <g id="patch_1">
   <path d="M 0 345.6 
L 460.8 345.6 
L 460.8 0 
L 0 0 
z
" style="fill: #ffffff"/>
  </g>
  <g id="patch_2">
   <path d="M 103.104 307.584 
L 369.216 307.584 
L 369.216 41.472 
L 103.104 41.472 
z
" style="fill: #ffffff"/>
  </g>
  <g id="pane3d_1">
   <g id="patch_3">
    <path d="M 123.197291 241.969309 
L 211.076164 168.307495 
L 209.854564 62.073991 
L 117.770234 129.272941 
" style="fill: #f2f2f2; opacity: 0.5; stroke: #f2f2f2; stroke-linejoin: miter"/>
   </g>
  </g>
  <g id="pane3d_2">
   <g id="patch_4">
    <path d="M 211.076164 168.307495 
L 352.090401 209.294766 
L 357.122702 99.402171 
L 209.854564 62.073991 
" style="fill: #e6e6e6; opacity: 0.5; stroke: #e6e6e6; stroke-linejoin: miter"/>
   </g>
  </g>
  <g id="pane3d_3">
   <g id="patch_5">
    <path d="M 123.197291 241.969309 
L 272.679269 290.790123 
L 352.090401 209.294766 
L 211.076164 168.307495 
" style="fill: #ececec; opacity: 0.5; stroke: #ececec; stroke-linejoin: miter"/>
   </g>
  </g>
  <g id="grid3d_1">
   <g id="Line3DCollection_1">
    <path d="M 123.197291 241.969309 
L 211.076164 168.307495 
L 209.854564 62.073991 
" style="fill: none; stroke: #b0b0b0; stroke-width: 0.8"/>
    <path d="M 151.852268 251.328024 
L 238.204516 176.192636 
L 238.13777 69.242959 
" style="fill: none; stroke: #b0b0b0; stroke-width: 0.8"/>
    <path d="M 181.108421 260.883084 
L 265.854616 184.229428 
L 266.988571 76.555796 
" style="fill: none; stroke: #b0b0b0; stroke-width: 0.8"/>
    <path d="M 210.984869 270.640732 
L 294.041663 192.42229 
L 296.424225 84.016876 
" style="fill: none; stroke: #b0b0b0; stroke-width: 0.8"/>
    <path d="M 241.501551 280.60748 
L 322.781451 200.775812 
L 326.462699 91.630754 
" style="fill: none; stroke: #b0b0b0; stroke-width: 0.8"/>
    <path d="M 272.679269 290.790123 
L 352.090401 209.294766 
L 357.122702 99.402171 
" style="fill: none; stroke: #b0b0b0; stroke-width: 0.8"/>
   </g>
  </g>
  <g id="grid3d_2">
   <g id="Line3DCollection_2">
    <path d="M 128.711153 121.288756 
L 133.603657 233.246487 
L 282.119571 281.10205 
" style="fill: none; stroke: #b0b0b0; stroke-width: 0.8"/>
    <path d="M 147.707416 107.426149 
L 151.694086 218.08273 
L 298.507083 264.284432 
" style="fill: none; stroke: #b0b0b0; stroke-width: 0.8"/>
    <path d="M 166.040948 94.047172 
L 169.180265 203.425468 
L 314.318915 248.057602 
" style="fill: none; stroke: #b0b0b0; stroke-width: 0.8"/>
    <path d="M 183.745836 81.126951 
L 186.091971 189.249742 
L 329.584879 232.390968 
" style="fill: none; stroke: #b0b0b0; stroke-width: 0.8"/>
    <path d="M 200.853869 68.642288 
L 202.457055 175.532203 
L 344.332762 217.256012 
" style="fill: none; stroke: #b0b0b0; stroke-width: 0.8"/>
   </g>
  </g>
  <g id="grid3d_3">
   <g id="Line3DCollection_3">
    <path d="M 352.621776 197.690875 
L 210.946928 157.06878 
L 122.625095 230.087293 
" style="fill: none; stroke: #b0b0b0; stroke-width: 0.8"/>
    <path d="M 353.583272 176.694266 
L 210.713229 136.745679 
L 121.589221 208.576681 
" style="fill: none; stroke: #b0b0b0; stroke-width: 0.8"/>
    <path d="M 354.56129 155.336845 
L 210.475707 116.09016 
L 120.53486 186.682207 
" style="fill: none; stroke: #b0b0b0; stroke-width: 0.8"/>
    <path d="M 355.556261 133.609231 
L 210.234268 95.094 
L 119.461515 164.393502 
" style="fill: none; stroke: #b0b0b0; stroke-width: 0.8"/>
    <path d="M 356.568628 111.501716 
L 209.988814 73.748702 
L 118.368668 141.699822 
" style="fill: none; stroke: #b0b0b0; stroke-width: 0.8"/>
   </g>
  </g>
  <g id="axis3d_1">
   <g id="line2d_1">
    <path d="M 123.197291 241.969309 
L 272.679269 290.790123 
" style="fill: none; stroke: #000000; stroke-width: 0.8; stroke-linecap: square"/>
   </g>
   <g id="xtick_1">
    <g id="line2d_2">
     <path d="M 123.962332 241.328036 
L 121.663937 243.254597 
" style="fill: none; stroke: #000000; stroke-width: 0.8; stroke-linecap: square"/>
    </g>
    <g id="text_1">
     <!-- 0 -->
     <g transform="translate(112.478153 265.215952) scale(0.1 -0.1)">
      <defs>
       <path id="DejaVuSans-30" d="M 2034 4250 
Q 1547 4250 1301 3770 
Q 1056 3291 1056 2328 
Q 1056 1369 1301 889 
Q 1547 409 2034 409 
Q 2525 409 2770 889 
Q 3016 1369 3016 2328 
Q 3016 3291 2770 3770 
Q 2525 4250 2034 4250 
z
M 2034 4750 
Q 2819 4750 3233 4129 
Q 3647 3509 3647 2328 
Q 3647 1150 3233 529 
Q 2819 -91 2034 -91 
Q 1250 -91 836 529 
Q 422 1150 422 2328 
Q 422 3509 836 4129 
Q 1250 4750 2034 4750 
z
" transform="scale(0.015625)"/>
      </defs>
      <use xlink:href="#DejaVuSans-30"/>
     </g>
    </g>
   </g>
   <g id="xtick_2">
    <g id="line2d_3">
     <path d="M 152.604651 250.673373 
L 150.344251 252.640155 
" style="fill: none; stroke: #000000; stroke-width: 0.8; stroke-linecap: square"/>
    </g>
    <g id="text_2">
     <!-- 20 -->
     <g transform="translate(137.980611 274.772756) scale(0.1 -0.1)">
      <defs>
       <path id="DejaVuSans-32" d="M 1228 531 
L 3431 531 
L 3431 0 
L 469 0 
L 469 531 
Q 828 903 1448 1529 
Q 2069 2156 2228 2338 
Q 2531 2678 2651 2914 
Q 2772 3150 2772 3378 
Q 2772 3750 2511 3984 
Q 2250 4219 1831 4219 
Q 1534 4219 1204 4116 
Q 875 4013 500 3803 
L 500 4441 
Q 881 4594 1212 4672 
Q 1544 4750 1819 4750 
Q 2544 4750 2975 4387 
Q 3406 4025 3406 3419 
Q 3406 3131 3298 2873 
Q 3191 2616 2906 2266 
Q 2828 2175 2409 1742 
Q 1991 1309 1228 531 
z
" transform="scale(0.015625)"/>
      </defs>
      <use xlink:href="#DejaVuSans-32"/>
      <use xlink:href="#DejaVuSans-30" x="63.623047"/>
     </g>
    </g>
   </g>
   <g id="xtick_3">
    <g id="line2d_4">
     <path d="M 181.847444 260.214631 
L 179.627148 262.222908 
" style="fill: none; stroke: #000000; stroke-width: 0.8; stroke-linecap: square"/>
    </g>
    <g id="text_3">
     <!-- 40 -->
     <g transform="translate(167.268374 284.530818) scale(0.1 -0.1)">
      <defs>
       <path id="DejaVuSans-34" d="M 2419 4116 
L 825 1625 
L 2419 1625 
L 2419 4116 
z
M 2253 4666 
L 3047 4666 
L 3047 1625 
L 3713 1625 
L 3713 1100 
L 3047 1100 
L 3047 0 
L 2419 0 
L 2419 1100 
L 313 1100 
L 313 1709 
L 2253 4666 
z
" transform="scale(0.015625)"/>
      </defs>
      <use xlink:href="#DejaVuSans-34"/>
      <use xlink:href="#DejaVuSans-30" x="63.623047"/>
     </g>
    </g>
   </g>
   <g id="xtick_4">
    <g id="line2d_5">
     <path d="M 211.709793 269.958037 
L 209.531821 272.009134 
" style="fill: none; stroke: #000000; stroke-width: 0.8; stroke-linecap: square"/>
    </g>
    <g id="text_4">
     <!-- 60 -->
     <g transform="translate(197.179476 294.496563) scale(0.1 -0.1)">
      <defs>
       <path id="DejaVuSans-36" d="M 2113 2584 
Q 1688 2584 1439 2293 
Q 1191 2003 1191 1497 
Q 1191 994 1439 701 
Q 1688 409 2113 409 
Q 2538 409 2786 701 
Q 3034 994 3034 1497 
Q 3034 2003 2786 2293 
Q 2538 2584 2113 2584 
z
M 3366 4563 
L 3366 3988 
Q 3128 4100 2886 4159 
Q 2644 4219 2406 4219 
Q 1781 4219 1451 3797 
Q 1122 3375 1075 2522 
Q 1259 2794 1537 2939 
Q 1816 3084 2150 3084 
Q 2853 3084 3261 2657 
Q 3669 2231 3669 1497 
Q 3669 778 3244 343 
Q 2819 -91 2113 -91 
Q 1303 -91 875 529 
Q 447 1150 447 2328 
Q 447 3434 972 4092 
Q 1497 4750 2381 4750 
Q 2619 4750 2861 4703 
Q 3103 4656 3366 4563 
z
" transform="scale(0.015625)"/>
      </defs>
      <use xlink:href="#DejaVuSans-36"/>
      <use xlink:href="#DejaVuSans-30" x="63.623047"/>
     </g>
    </g>
   </g>
   <g id="xtick_5">
    <g id="line2d_6">
     <path d="M 242.2116 279.910082 
L 240.078285 282.005386 
" style="fill: none; stroke: #000000; stroke-width: 0.8; stroke-linecap: square"/>
    </g>
    <g id="text_5">
     <!-- 80 -->
     <g transform="translate(227.734032 304.676694) scale(0.1 -0.1)">
      <defs>
       <path id="DejaVuSans-38" d="M 2034 2216 
Q 1584 2216 1326 1975 
Q 1069 1734 1069 1313 
Q 1069 891 1326 650 
Q 1584 409 2034 409 
Q 2484 409 2743 651 
Q 3003 894 3003 1313 
Q 3003 1734 2745 1975 
Q 2488 2216 2034 2216 
z
M 1403 2484 
Q 997 2584 770 2862 
Q 544 3141 544 3541 
Q 544 4100 942 4425 
Q 1341 4750 2034 4750 
Q 2731 4750 3128 4425 
Q 3525 4100 3525 3541 
Q 3525 3141 3298 2862 
Q 3072 2584 2669 2484 
Q 3125 2378 3379 2068 
Q 3634 1759 3634 1313 
Q 3634 634 3220 271 
Q 2806 -91 2034 -91 
Q 1263 -91 848 271 
Q 434 634 434 1313 
Q 434 1759 690 2068 
Q 947 2378 1403 2484 
z
M 1172 3481 
Q 1172 3119 1398 2916 
Q 1625 2713 2034 2713 
Q 2441 2713 2670 2916 
Q 2900 3119 2900 3481 
Q 2900 3844 2670 4047 
Q 2441 4250 2034 4250 
Q 1625 4250 1398 4047 
Q 1172 3844 1172 3481 
z
" transform="scale(0.015625)"/>
      </defs>
      <use xlink:href="#DejaVuSans-38"/>
      <use xlink:href="#DejaVuSans-30" x="63.623047"/>
     </g>
    </g>
   </g>
   <g id="xtick_6">
    <g id="line2d_7">
     <path d="M 273.373625 290.077542 
L 271.287426 292.218496 
" style="fill: none; stroke: #000000; stroke-width: 0.8; stroke-linecap: square"/>
    </g>
    <g id="text_6">
     <!-- 100 -->
     <g transform="translate(255.771781 315.078203) scale(0.1 -0.1)">
      <defs>
       <path id="DejaVuSans-31" d="M 794 531 
L 1825 531 
L 1825 4091 
L 703 3866 
L 703 4441 
L 1819 4666 
L 2450 4666 
L 2450 531 
L 3481 531 
L 3481 0 
L 794 0 
L 794 531 
z
" transform="scale(0.015625)"/>
      </defs>
      <use xlink:href="#DejaVuSans-31"/>
      <use xlink:href="#DejaVuSans-30" x="63.623047"/>
      <use xlink:href="#DejaVuSans-30" x="127.246094"/>
     </g>
    </g>
   </g>
  </g>
  <g id="axis3d_2">
   <g id="line2d_8">
    <path d="M 352.090401 209.294766 
L 272.679269 290.790123 
" style="fill: none; stroke: #000000; stroke-width: 0.8; stroke-linecap: square"/>
   </g>
   <g id="xtick_7">
    <g id="line2d_9">
     <path d="M 280.868295 280.698857 
L 284.625346 281.909474 
" style="fill: none; stroke: #000000; stroke-width: 0.8; stroke-linecap: square"/>
    </g>
    <g id="text_7">
     <!-- −100 -->
     <g transform="translate(281.213722 302.063796) scale(0.1 -0.1)">
      <defs>
       <path id="DejaVuSans-2212" d="M 678 2272 
L 4684 2272 
L 4684 1741 
L 678 1741 
L 678 2272 
z
" transform="scale(0.015625)"/>
      </defs>
      <use xlink:href="#DejaVuSans-2212"/>
      <use xlink:href="#DejaVuSans-31" x="83.789062"/>
      <use xlink:href="#DejaVuSans-30" x="147.412109"/>
      <use xlink:href="#DejaVuSans-30" x="211.035156"/>
     </g>
    </g>
   </g>
   <g id="xtick_8">
    <g id="line2d_10">
     <path d="M 297.27127 263.895524 
L 300.981835 265.06323 
" style="fill: none; stroke: #000000; stroke-width: 0.8; stroke-linecap: square"/>
    </g>
    <g id="text_8">
     <!-- −50 -->
     <g transform="translate(300.562602 284.997273) scale(0.1 -0.1)">
      <defs>
       <path id="DejaVuSans-35" d="M 691 4666 
L 3169 4666 
L 3169 4134 
L 1269 4134 
L 1269 2991 
Q 1406 3038 1543 3061 
Q 1681 3084 1819 3084 
Q 2600 3084 3056 2656 
Q 3513 2228 3513 1497 
Q 3513 744 3044 326 
Q 2575 -91 1722 -91 
Q 1428 -91 1123 -41 
Q 819 9 494 109 
L 494 744 
Q 775 591 1075 516 
Q 1375 441 1709 441 
Q 2250 441 2565 725 
Q 2881 1009 2881 1497 
Q 2881 1984 2565 2268 
Q 2250 2553 1709 2553 
Q 1456 2553 1204 2497 
Q 953 2441 691 2322 
L 691 4666 
z
" transform="scale(0.015625)"/>
      </defs>
      <use xlink:href="#DejaVuSans-2212"/>
      <use xlink:href="#DejaVuSans-35" x="83.789062"/>
      <use xlink:href="#DejaVuSans-30" x="147.412109"/>
     </g>
    </g>
   </g>
   <g id="xtick_9">
    <g id="line2d_11">
     <path d="M 313.09826 247.682234 
L 316.763258 248.809271 
" style="fill: none; stroke: #000000; stroke-width: 0.8; stroke-linecap: square"/>
    </g>
    <g id="text_9">
     <!-- 0 -->
     <g transform="translate(323.533045 268.530628) scale(0.1 -0.1)">
      <use xlink:href="#DejaVuSans-30"/>
     </g>
    </g>
   </g>
   <g id="xtick_10">
    <g id="line2d_12">
     <path d="M 328.37908 232.028444 
L 331.999419 233.116901 
" style="fill: none; stroke: #000000; stroke-width: 0.8; stroke-linecap: square"/>
    </g>
    <g id="text_10">
     <!-- 50 -->
     <g transform="translate(335.412306 252.632778) scale(0.1 -0.1)">
      <use xlink:href="#DejaVuSans-35"/>
      <use xlink:href="#DejaVuSans-30" x="63.623047"/>
     </g>
    </g>
   </g>
   <g id="xtick_11">
    <g id="line2d_13">
     <path d="M 343.141523 216.905684 
L 346.718097 217.957509 
" style="fill: none; stroke: #000000; stroke-width: 0.8; stroke-linecap: square"/>
    </g>
    <g id="text_11">
     <!-- 100 -->
     <g transform="translate(346.780175 237.274753) scale(0.1 -0.1)">
      <use xlink:href="#DejaVuSans-31"/>
      <use xlink:href="#DejaVuSans-30" x="63.623047"/>
      <use xlink:href="#DejaVuSans-30" x="127.246094"/>
     </g>
    </g>
   </g>
  </g>
  <g id="axis3d_3">
   <g id="line2d_14">
    <path d="M 352.090401 209.294766 
L 357.122702 99.402171 
" style="fill: none; stroke: #000000; stroke-width: 0.8; stroke-linecap: square"/>
   </g>
   <g id="xtick_12">
    <g id="line2d_15">
     <path d="M 351.432471 197.349869 
L 355.003229 198.373704 
" style="fill: none; stroke: #000000; stroke-width: 0.8; stroke-linecap: square"/>
    </g>
    <g id="text_12">
     <!-- −100 -->
     <g transform="translate(357.221283 202.706985) scale(0.1 -0.1)">
      <use xlink:href="#DejaVuSans-2212"/>
      <use xlink:href="#DejaVuSans-31" x="83.789062"/>
      <use xlink:href="#DejaVuSans-30" x="147.412109"/>
      <use xlink:href="#DejaVuSans-30" x="211.035156"/>
     </g>
    </g>
   </g>
   <g id="xtick_13">
    <g id="line2d_16">
     <path d="M 352.383454 176.358779 
L 355.985801 177.366048 
" style="fill: none; stroke: #000000; stroke-width: 0.8; stroke-linecap: square"/>
    </g>
    <g id="text_13">
     <!-- −50 -->
     <g transform="translate(361.516812 181.75223) scale(0.1 -0.1)">
      <use xlink:href="#DejaVuSans-2212"/>
      <use xlink:href="#DejaVuSans-35" x="83.789062"/>
      <use xlink:href="#DejaVuSans-30" x="147.412109"/>
     </g>
    </g>
   </g>
   <g id="xtick_14">
    <g id="line2d_17">
     <path d="M 353.350771 155.007118 
L 356.985271 155.9971 
" style="fill: none; stroke: #000000; stroke-width: 0.8; stroke-linecap: square"/>
    </g>
    <g id="text_14">
     <!-- 0 -->
     <g transform="translate(370.021274 160.438486) scale(0.1 -0.1)">
      <use xlink:href="#DejaVuSans-30"/>
     </g>
    </g>
   </g>
   <g id="xtick_15">
    <g id="line2d_18">
     <path d="M 354.334849 133.285516 
L 358.00208 134.257456 
" style="fill: none; stroke: #000000; stroke-width: 0.8; stroke-linecap: square"/>
    </g>
    <g id="text_15">
     <!-- 50 -->
     <g transform="translate(367.992976 138.756449) scale(0.1 -0.1)">
      <use xlink:href="#DejaVuSans-35"/>
      <use xlink:href="#DejaVuSans-30" x="63.623047"/>
     </g>
    </g>
   </g>
   <g id="xtick_16">
    <g id="line2d_19">
     <path d="M 355.336126 111.184274 
L 359.036682 112.137387 
" style="fill: none; stroke: #000000; stroke-width: 0.8; stroke-linecap: square"/>
    </g>
    <g id="text_16">
     <!-- 100 -->
     <g transform="translate(365.984775 116.696489) scale(0.1 -0.1)">
      <use xlink:href="#DejaVuSans-31"/>
      <use xlink:href="#DejaVuSans-30" x="63.623047"/>
      <use xlink:href="#DejaVuSans-30" x="127.246094"/>
     </g>
    </g>
   </g>
  </g>
  <g id="axes_1">
   <g id="line2d_20">
    <path d="M 191.211809 139.272088 
L 209.846597 132.936709 
" clip-path="url(#pa7d2aace88)" style="fill: none; stroke: #670a00; stroke-opacity: 0.25; stroke-width: 1.5; stroke-linecap: square"/>
   </g>
   <g id="line2d_21">
    <path d="M 209.846597 132.936709 
L 250.321123 135.976434 
" clip-path="url(#pa7d2aace88)" style="fill: none; stroke: #c13e28; stroke-opacity: 0.25; stroke-width: 1.5; stroke-linecap: square"/>
   </g>
   <g id="line2d_22">
    <path d="M 250.321123 135.976434 
L 299.327579 125.596924 
" clip-path="url(#pa7d2aace88)" style="fill: none; stroke: #ff5034; stroke-opacity: 0.25; stroke-width: 1.5; stroke-linecap: square"/>
   </g>
   <g id="line2d_23">
    <path d="M 299.327579 125.596924 
L 311.780418 178.224364 
" clip-path="url(#pa7d2aace88)" style="fill: none; stroke: #ffe0d2; stroke-opacity: 0.25; stroke-width: 1.5; stroke-linecap: square"/>
   </g>
   <g id="line2d_24">
    <path d="M 311.780418 178.224364 
L 191.211809 139.272088 
" clip-path="url(#pa7d2aace88)" style="fill: none; stroke: #ffe0d2; stroke-opacity: 0.25; stroke-width: 1.5; stroke-linecap: square"/>
   </g>
   <g id="line2d_25">
    <path d="M 186.206298 143.447785 
L 202.904114 136.754402 
" clip-path="url(#pa7d2aace88)" style="fill: none; stroke: #4d3700; stroke-opacity: 0.25; stroke-width: 1.5; stroke-linecap: square"/>
   </g>
   <g id="line2d_26">
    <path d="M 202.904114 136.754402 
L 242.289305 119.312769 
" clip-path="url(#pa7d2aace88)" style="fill: none; stroke: #9c7200; stroke-opacity: 0.25; stroke-width: 1.5; stroke-linecap: square"/>
   </g>
   <g id="line2d_27">
    <path d="M 242.289305 119.312769 
L 292.963755 125.629696 
" clip-path="url(#pa7d2aace88)" style="fill: none; stroke: #ffc600; stroke-opacity: 0.25; stroke-width: 1.5; stroke-linecap: square"/>
   </g>
   <g id="line2d_28">
    <path d="M 292.963755 125.629696 
L 308.482233 181.531244 
" clip-path="url(#pa7d2aace88)" style="fill: none; stroke: #fef3c7; stroke-opacity: 0.25; stroke-width: 1.5; stroke-linecap: square"/>
   </g>
   <g id="line2d_29">
    <path d="M 308.482233 181.531244 
L 186.206298 143.447785 
" clip-path="url(#pa7d2aace88)" style="fill: none; stroke: #fef3c7; stroke-opacity: 0.25; stroke-width: 1.5; stroke-linecap: square"/>
   </g>
   <g id="line2d_30">
    <path d="M 178.736283 154.282311 
L 192.187299 155.836584 
" clip-path="url(#pa7d2aace88)" style="fill: none; stroke: #005000; stroke-opacity: 0.25; stroke-width: 1.5; stroke-linecap: square"/>
   </g>
   <g id="line2d_31">
    <path d="M 192.187299 155.836584 
L 227.6338 167.285806 
" clip-path="url(#pa7d2aace88)" style="fill: none; stroke: #009c16; stroke-opacity: 0.25; stroke-width: 1.5; stroke-linecap: square"/>
   </g>
   <g id="line2d_32">
    <path d="M 227.6338 167.285806 
L 262.00789 177.791436 
" clip-path="url(#pa7d2aace88)" style="fill: none; stroke: #00f02e; stroke-opacity: 0.25; stroke-width: 1.5; stroke-linecap: square"/>
   </g>
   <g id="line2d_33">
    <path d="M 262.00789 177.791436 
L 304.82155 190.441316 
" clip-path="url(#pa7d2aace88)" style="fill: none; stroke: #d6ffd4; stroke-opacity: 0.25; stroke-width: 1.5; stroke-linecap: square"/>
   </g>
   <g id="line2d_34">
    <path d="M 304.82155 190.441316 
L 178.736283 154.282311 
" clip-path="url(#pa7d2aace88)" style="fill: none; stroke: #d6ffd4; stroke-opacity: 0.25; stroke-width: 1.5; stroke-linecap: square"/>
   </g>
   <g id="line2d_35">
    <path d="M 175.723033 167.013852 
L 187.364144 177.788775 
" clip-path="url(#pa7d2aace88)" style="fill: none; stroke: #00573c; stroke-opacity: 0.25; stroke-width: 1.5; stroke-linecap: square"/>
   </g>
   <g id="line2d_36">
    <path d="M 187.364144 177.788775 
L 221.373444 196.529898 
" clip-path="url(#pa7d2aace88)" style="fill: none; stroke: #00a87c; stroke-opacity: 0.25; stroke-width: 1.5; stroke-linecap: square"/>
   </g>
   <g id="line2d_37">
    <path d="M 221.373444 196.529898 
L 253.132112 218.746949 
" clip-path="url(#pa7d2aace88)" style="fill: none; stroke: #00ffc0; stroke-opacity: 0.25; stroke-width: 1.5; stroke-linecap: square"/>
   </g>
   <g id="line2d_38">
    <path d="M 253.132112 218.746949 
L 303.386921 199.108355 
" clip-path="url(#pa7d2aace88)" style="fill: none; stroke: #b9fff2; stroke-opacity: 0.25; stroke-width: 1.5; stroke-linecap: square"/>
   </g>
   <g id="line2d_39">
    <path d="M 303.386921 199.108355 
L 175.723033 167.013852 
" clip-path="url(#pa7d2aace88)" style="fill: none; stroke: #b9fff2; stroke-opacity: 0.25; stroke-width: 1.5; stroke-linecap: square"/>
   </g>
   <g id="line2d_40">
    <path d="M 181.915749 168.168128 
L 196.967432 178.769513 
" clip-path="url(#pa7d2aace88)" style="fill: none; stroke: #004867; stroke-opacity: 0.25; stroke-width: 1.5; stroke-linecap: square"/>
   </g>
   <g id="line2d_41">
    <path d="M 196.967432 178.769513 
L 233.216339 198.773556 
" clip-path="url(#pa7d2aace88)" style="fill: none; stroke: #008fc3; stroke-opacity: 0.25; stroke-width: 1.5; stroke-linecap: square"/>
   </g>
   <g id="line2d_42">
    <path d="M 233.216339 198.773556 
L 268.774194 220.907951 
" clip-path="url(#pa7d2aace88)" style="fill: none; stroke: #00dcff; stroke-opacity: 0.25; stroke-width: 1.5; stroke-linecap: square"/>
   </g>
   <g id="line2d_43">
    <path d="M 268.774194 220.907951 
L 305.292856 201.855486 
" clip-path="url(#pa7d2aace88)" style="fill: none; stroke: #c1feff; stroke-opacity: 0.25; stroke-width: 1.5; stroke-linecap: square"/>
   </g>
   <g id="line2d_44">
    <path d="M 305.292856 201.855486 
L 181.915749 168.168128 
" clip-path="url(#pa7d2aace88)" style="fill: none; stroke: #c1feff; stroke-opacity: 0.25; stroke-width: 1.5; stroke-linecap: square"/>
   </g>
   <g id="line2d_45">
    <path d="M 188.966609 161.831074 
L 206.917946 169.229467 
" clip-path="url(#pa7d2aace88)" style="fill: none; stroke: #2c2475; stroke-opacity: 0.25; stroke-width: 1.5; stroke-linecap: square"/>
   </g>
   <g id="line2d_46">
    <path d="M 206.917946 169.229467 
L 246.089098 185.093992 
" clip-path="url(#pa7d2aace88)" style="fill: none; stroke: #6356db; stroke-opacity: 0.25; stroke-width: 1.5; stroke-linecap: square"/>
   </g>
   <g id="line2d_47">
    <path d="M 246.089098 185.093992 
L 299.138483 205.046951 
" clip-path="url(#pa7d2aace88)" style="fill: none; stroke: #816bff; stroke-opacity: 0.25; stroke-width: 1.5; stroke-linecap: square"/>
   </g>
   <g id="line2d_48">
    <path d="M 299.138483 205.046951 
L 301.126885 199.125291 
" clip-path="url(#pa7d2aace88)" style="fill: none; stroke: #cce1ff; stroke-opacity: 0.25; stroke-width: 1.5; stroke-linecap: square"/>
   </g>
   <g id="line2d_49">
    <path d="M 301.126885 199.125291 
L 188.966609 161.831074 
" clip-path="url(#pa7d2aace88)" style="fill: none; stroke: #cce1ff; stroke-opacity: 0.25; stroke-width: 1.5; stroke-linecap: square"/>
   </g>
   <g id="line2d_50">
    <path d="M 192.336766 153.602784 
L 211.218164 157.535597 
" clip-path="url(#pa7d2aace88)" style="fill: none; stroke: #590061; stroke-opacity: 0.25; stroke-width: 1.5; stroke-linecap: square"/>
   </g>
   <g id="line2d_51">
    <path d="M 211.218164 157.535597 
L 251.613385 167.986648 
" clip-path="url(#pa7d2aace88)" style="fill: none; stroke: #aa12b7; stroke-opacity: 0.25; stroke-width: 1.5; stroke-linecap: square"/>
   </g>
   <g id="line2d_52">
    <path d="M 251.613385 167.986648 
L 278.845038 175.105814 
" clip-path="url(#pa7d2aace88)" style="fill: none; stroke: #e43af4; stroke-opacity: 0.25; stroke-width: 1.5; stroke-linecap: square"/>
   </g>
   <g id="line2d_53">
    <path d="M 278.845038 175.105814 
L 311.9045 189.736568 
" clip-path="url(#pa7d2aace88)" style="fill: none; stroke: #ffdbff; stroke-opacity: 0.25; stroke-width: 1.5; stroke-linecap: square"/>
   </g>
   <g id="line2d_54">
    <path d="M 311.9045 189.736568 
L 192.336766 153.602784 
" clip-path="url(#pa7d2aace88)" style="fill: none; stroke: #ffdbff; stroke-opacity: 0.25; stroke-width: 1.5; stroke-linecap: square"/>
   </g>
   <g id="line2d_55">
    <path d="M 192.982892 144.76205 
L 212.109548 144.863538 
" clip-path="url(#pa7d2aace88)" style="fill: none; stroke: #6a0037; stroke-opacity: 0.25; stroke-width: 1.5; stroke-linecap: square"/>
   </g>
   <g id="line2d_56">
    <path d="M 212.109548 144.863538 
L 249.860161 151.999372 
" clip-path="url(#pa7d2aace88)" style="fill: none; stroke: #bb1f71; stroke-opacity: 0.25; stroke-width: 1.5; stroke-linecap: square"/>
   </g>
   <g id="line2d_57">
    <path d="M 249.860161 151.999372 
L 281.014852 153.653132 
" clip-path="url(#pa7d2aace88)" style="fill: none; stroke: #ff21a0; stroke-opacity: 0.25; stroke-width: 1.5; stroke-linecap: square"/>
   </g>
   <g id="line2d_58">
    <path d="M 281.014852 153.653132 
L 313.027595 181.85748 
" clip-path="url(#pa7d2aace88)" style="fill: none; stroke: #ffd6ef; stroke-opacity: 0.25; stroke-width: 1.5; stroke-linecap: square"/>
   </g>
   <g id="line2d_59">
    <path d="M 313.027595 181.85748 
L 192.982892 144.76205 
" clip-path="url(#pa7d2aace88)" style="fill: none; stroke: #ffd6ef; stroke-opacity: 0.25; stroke-width: 1.5; stroke-linecap: square"/>
   </g>
   <g id="line2d_60">
    <path d="M 183.870331 162.891264 
L 192.183617 165.273186 
" clip-path="url(#pa7d2aace88)" style="fill: none; stroke: #0b3340; stroke-opacity: 0.25; stroke-width: 1.5; stroke-linecap: square"/>
   </g>
   <g id="line2d_61">
    <path d="M 192.183617 165.273186 
L 231.254335 174.735409 
" clip-path="url(#pa7d2aace88)" style="fill: none; stroke: #56707b; stroke-opacity: 0.25; stroke-width: 1.5; stroke-linecap: square"/>
   </g>
   <g id="line2d_62">
    <path d="M 231.254335 174.735409 
L 238.76239 177.049215 
" clip-path="url(#pa7d2aace88)" style="fill: none; stroke: #627d89; stroke-opacity: 0.25; stroke-width: 1.5; stroke-linecap: square"/>
   </g>
   <g id="line2d_63">
    <path d="M 238.76239 177.049215 
L 254.69715 177.712383 
" clip-path="url(#pa7d2aace88)" style="fill: none; stroke: #899499; stroke-opacity: 0.25; stroke-width: 1.5; stroke-linecap: square"/>
   </g>
   <g id="line2d_64">
    <path d="M 254.69715 177.712383 
L 262.207204 179.944395 
" clip-path="url(#pa7d2aace88)" style="fill: none; stroke: #96a1a6; stroke-opacity: 0.25; stroke-width: 1.5; stroke-linecap: square"/>
   </g>
   <g id="line2d_65">
    <path d="M 262.207204 179.944395 
L 308.668695 186.319453 
" clip-path="url(#pa7d2aace88)" style="fill: none; stroke: #f9f1e0; stroke-opacity: 0.25; stroke-width: 1.5; stroke-linecap: square"/>
   </g>
   <g id="line2d_66">
    <path d="M 308.668695 186.319453 
L 313.247264 187.585349 
" clip-path="url(#pa7d2aace88)" style="fill: none; stroke: #fff9e8; stroke-opacity: 0.25; stroke-width: 1.5; stroke-linecap: square"/>
   </g>
   <g id="line2d_67">
    <path d="M 313.247264 187.585349 
L 183.870331 162.891264 
" clip-path="url(#pa7d2aace88)" style="fill: none; stroke: #fff9e8; stroke-opacity: 0.25; stroke-width: 1.5; stroke-linecap: square"/>
   </g>
   <g id="line2d_68">
    <path d="M 167.638604 149.7118 
L 202.140239 159.644917 
" clip-path="url(#pa7d2aace88)" style="fill: none; stroke: #3a3939; stroke-opacity: 0.25; stroke-width: 1.5; stroke-linecap: square"/>
   </g>
   <g id="line2d_69">
    <path d="M 202.140239 159.644917 
L 240.360049 170.657965 
" clip-path="url(#pa7d2aace88)" style="fill: none; stroke: #787878; stroke-opacity: 0.25; stroke-width: 1.5; stroke-linecap: square"/>
   </g>
   <g id="line2d_70">
    <path d="M 240.360049 170.657965 
L 278.010151 181.506853 
" clip-path="url(#pa7d2aace88)" style="fill: none; stroke: #bab9b9; stroke-opacity: 0.25; stroke-width: 1.5; stroke-linecap: square"/>
   </g>
   <g id="line2d_71">
    <path d="M 278.010151 181.506853 
L 316.057175 192.470113 
" clip-path="url(#pa7d2aace88)" style="fill: none; stroke: #ffffff; stroke-opacity: 0.25; stroke-width: 1.5; stroke-linecap: square"/>
   </g>
   <g id="line2d_72">
    <path d="M 316.057175 192.470113 
L 167.638604 149.7118 
" clip-path="url(#pa7d2aace88)" style="fill: none; stroke: #ffffff; stroke-opacity: 0.25; stroke-width: 1.5; stroke-linecap: square"/>
   </g>
   <g id="Path3DCollection_1">
    <defs>
     <path id="C0_0_d3ac3c77c6" d="M 0 2.236068 
C 0.593012 2.236068 1.161816 2.000462 1.581139 1.581139 
C 2.000462 1.161816 2.236068 0.593012 2.236068 -0 
C 2.236068 -0.593012 2.000462 -1.161816 1.581139 -1.581139 
C 1.161816 -2.000462 0.593012 -2.236068 0 -2.236068 
C -0.593012 -2.236068 -1.161816 -2.000462 -1.581139 -1.581139 
C -2.000462 -1.161816 -2.236068 -0.593012 -2.236068 0 
C -2.236068 0.593012 -2.000462 1.161816 -1.581139 1.581139 
C -1.161816 2.000462 -0.593012 2.236068 0 2.236068 
z
"/>
    </defs>
    <g clip-path="url(#pa7d2aace88)">
     <use xlink:href="#C0_0_d3ac3c77c6" x="211.218164" y="157.535597" style="fill: #590061; stroke: #590061"/>
    </g>
    <g clip-path="url(#pa7d2aace88)">
     <use xlink:href="#C0_0_d3ac3c77c6" x="251.613385" y="167.986648" style="fill: #aa12b7; stroke: #aa12b7"/>
    </g>
    <g clip-path="url(#pa7d2aace88)">
     <use xlink:href="#C0_0_d3ac3c77c6" x="192.336766" y="153.602784" style="fill: #35003a; stroke: #35003a"/>
    </g>
    <g clip-path="url(#pa7d2aace88)">
     <use xlink:href="#C0_0_d3ac3c77c6" x="278.845038" y="175.105814" style="fill: #e43af4; stroke: #e43af4"/>
    </g>
    <g clip-path="url(#pa7d2aace88)">
     <use xlink:href="#C0_0_d3ac3c77c6" x="311.9045" y="189.736568" style="fill: #ffdbff; stroke: #ffdbff"/>
    </g>
   </g>
   <g id="Path3DCollection_2">
    <defs>
     <path id="C1_0_36aa977c4f" d="M 0 2.236068 
C 0.593012 2.236068 1.161816 2.000462 1.581139 1.581139 
C 2.000462 1.161816 2.236068 0.593012 2.236068 -0 
C 2.236068 -0.593012 2.000462 -1.161816 1.581139 -1.581139 
C 1.161816 -2.000462 0.593012 -2.236068 0 -2.236068 
C -0.593012 -2.236068 -1.161816 -2.000462 -1.581139 -1.581139 
C -2.000462 -1.161816 -2.236068 -0.593012 -2.236068 0 
C -2.236068 0.593012 -2.000462 1.161816 -1.581139 1.581139 
C -1.161816 2.000462 -0.593012 2.236068 0 2.236068 
z
"/>
    </defs>
    <g clip-path="url(#pa7d2aace88)">
     <use xlink:href="#C1_0_36aa977c4f" x="212.109548" y="144.863538" style="fill: #6a0037; stroke: #6a0037"/>
    </g>
    <g clip-path="url(#pa7d2aace88)">
     <use xlink:href="#C1_0_36aa977c4f" x="192.982892" y="144.76205" style="fill: #40001f; stroke: #40001f"/>
    </g>
    <g clip-path="url(#pa7d2aace88)">
     <use xlink:href="#C1_0_36aa977c4f" x="249.860161" y="151.999372" style="fill: #bb1f71; stroke: #bb1f71"/>
    </g>
    <g clip-path="url(#pa7d2aace88)">
     <use xlink:href="#C1_0_36aa977c4f" x="281.014852" y="153.653132" style="fill: #ff21a0; stroke: #ff21a0"/>
    </g>
    <g clip-path="url(#pa7d2aace88)">
     <use xlink:href="#C1_0_36aa977c4f" x="313.027595" y="181.85748" style="fill: #ffd6ef; stroke: #ffd6ef"/>
    </g>
   </g>
   <g id="Path3DCollection_3">
    <defs>
     <path id="C2_0_e6b0e169b2" d="M 0 2.236068 
C 0.593012 2.236068 1.161816 2.000462 1.581139 1.581139 
C 2.000462 1.161816 2.236068 0.593012 2.236068 -0 
C 2.236068 -0.593012 2.000462 -1.161816 1.581139 -1.581139 
C 1.161816 -2.000462 0.593012 -2.236068 0 -2.236068 
C -0.593012 -2.236068 -1.161816 -2.000462 -1.581139 -1.581139 
C -2.000462 -1.161816 -2.236068 -0.593012 -2.236068 0 
C -2.236068 0.593012 -2.000462 1.161816 -1.581139 1.581139 
C -1.161816 2.000462 -0.593012 2.236068 0 2.236068 
z
"/>
    </defs>
    <g clip-path="url(#pa7d2aace88)">
     <use xlink:href="#C2_0_e6b0e169b2" x="299.138483" y="205.046951" style="fill: #816bff; stroke: #816bff"/>
    </g>
    <g clip-path="url(#pa7d2aace88)">
     <use xlink:href="#C2_0_e6b0e169b2" x="206.917946" y="169.229467" style="fill: #2c2475; stroke: #2c2475"/>
    </g>
    <g clip-path="url(#pa7d2aace88)">
     <use xlink:href="#C2_0_e6b0e169b2" x="188.966609" y="161.831074" style="fill: #181546; stroke: #181546"/>
    </g>
    <g clip-path="url(#pa7d2aace88)">
     <use xlink:href="#C2_0_e6b0e169b2" x="246.089098" y="185.093992" style="fill: #6356db; stroke: #6356db"/>
    </g>
    <g clip-path="url(#pa7d2aace88)">
     <use xlink:href="#C2_0_e6b0e169b2" x="301.126885" y="199.125291" style="fill: #cce1ff; stroke: #cce1ff"/>
    </g>
   </g>
   <g id="Path3DCollection_4">
    <defs>
     <path id="C3_0_064a7689f4" d="M 0 2.236068 
C 0.593012 2.236068 1.161816 2.000462 1.581139 1.581139 
C 2.000462 1.161816 2.236068 0.593012 2.236068 -0 
C 2.236068 -0.593012 2.000462 -1.161816 1.581139 -1.581139 
C 1.161816 -2.000462 0.593012 -2.236068 0 -2.236068 
C -0.593012 -2.236068 -1.161816 -2.000462 -1.581139 -1.581139 
C -2.000462 -1.161816 -2.236068 -0.593012 -2.236068 0 
C -2.236068 0.593012 -2.000462 1.161816 -1.581139 1.581139 
C -1.161816 2.000462 -0.593012 2.236068 0 2.236068 
z
"/>
    </defs>
    <g clip-path="url(#pa7d2aace88)">
     <use xlink:href="#C3_0_064a7689f4" x="191.211809" y="139.272088" style="fill: #3f0600; stroke: #3f0600"/>
    </g>
    <g clip-path="url(#pa7d2aace88)">
     <use xlink:href="#C3_0_064a7689f4" x="209.846597" y="132.936709" style="fill: #670a00; stroke: #670a00"/>
    </g>
    <g clip-path="url(#pa7d2aace88)">
     <use xlink:href="#C3_0_064a7689f4" x="250.321123" y="135.976434" style="fill: #c13e28; stroke: #c13e28"/>
    </g>
    <g clip-path="url(#pa7d2aace88)">
     <use xlink:href="#C3_0_064a7689f4" x="299.327579" y="125.596924" style="fill: #ff5034; stroke: #ff5034"/>
    </g>
    <g clip-path="url(#pa7d2aace88)">
     <use xlink:href="#C3_0_064a7689f4" x="311.780418" y="178.224364" style="fill: #ffe0d2; stroke: #ffe0d2"/>
    </g>
   </g>
   <g id="Path3DCollection_5">
    <defs>
     <path id="C4_0_22dc404890" d="M 0 2.236068 
C 0.593012 2.236068 1.161816 2.000462 1.581139 1.581139 
C 2.000462 1.161816 2.236068 0.593012 2.236068 -0 
C 2.236068 -0.593012 2.000462 -1.161816 1.581139 -1.581139 
C 1.161816 -2.000462 0.593012 -2.236068 0 -2.236068 
C -0.593012 -2.236068 -1.161816 -2.000462 -1.581139 -1.581139 
C -2.000462 -1.161816 -2.236068 -0.593012 -2.236068 0 
C -2.236068 0.593012 -2.000462 1.161816 -1.581139 1.581139 
C -1.161816 2.000462 -0.593012 2.236068 0 2.236068 
z
"/>
    </defs>
    <g clip-path="url(#pa7d2aace88)">
     <use xlink:href="#C4_0_22dc404890" x="167.638604" y="149.7118" style="stroke: #000000"/>
    </g>
    <g clip-path="url(#pa7d2aace88)">
     <use xlink:href="#C4_0_22dc404890" x="202.140239" y="159.644917" style="fill: #3a3939; stroke: #3a3939"/>
    </g>
    <g clip-path="url(#pa7d2aace88)">
     <use xlink:href="#C4_0_22dc404890" x="240.360049" y="170.657965" style="fill: #787878; stroke: #787878"/>
    </g>
    <g clip-path="url(#pa7d2aace88)">
     <use xlink:href="#C4_0_22dc404890" x="278.010151" y="181.506853" style="fill: #bab9b9; stroke: #bab9b9"/>
    </g>
    <g clip-path="url(#pa7d2aace88)">
     <use xlink:href="#C4_0_22dc404890" x="316.057175" y="192.470113" style="fill: #ffffff; stroke: #ffffff"/>
    </g>
   </g>
   <g id="Path3DCollection_6">
    <defs>
     <path id="C5_0_569dc9e052" d="M 0 2.236068 
C 0.593012 2.236068 1.161816 2.000462 1.581139 1.581139 
C 2.000462 1.161816 2.236068 0.593012 2.236068 -0 
C 2.236068 -0.593012 2.000462 -1.161816 1.581139 -1.581139 
C 1.161816 -2.000462 0.593012 -2.236068 0 -2.236068 
C -0.593012 -2.236068 -1.161816 -2.000462 -1.581139 -1.581139 
C -2.000462 -1.161816 -2.236068 -0.593012 -2.236068 0 
C -2.236068 0.593012 -2.000462 1.161816 -1.581139 1.581139 
C -1.161816 2.000462 -0.593012 2.236068 0 2.236068 
z
"/>
    </defs>
    <g clip-path="url(#pa7d2aace88)">
     <use xlink:href="#C5_0_569dc9e052" x="183.870331" y="162.891264" style="fill: #002633; stroke: #002633"/>
    </g>
    <g clip-path="url(#pa7d2aace88)">
     <use xlink:href="#C5_0_569dc9e052" x="192.183617" y="165.273186" style="fill: #0b3340; stroke: #0b3340"/>
    </g>
    <g clip-path="url(#pa7d2aace88)">
     <use xlink:href="#C5_0_569dc9e052" x="231.254335" y="174.735409" style="fill: #56707b; stroke: #56707b"/>
    </g>
    <g clip-path="url(#pa7d2aace88)">
     <use xlink:href="#C5_0_569dc9e052" x="238.76239" y="177.049215" style="fill: #627d89; stroke: #627d89"/>
    </g>
    <g clip-path="url(#pa7d2aace88)">
     <use xlink:href="#C5_0_569dc9e052" x="254.69715" y="177.712383" style="fill: #899499; stroke: #899499"/>
    </g>
    <g clip-path="url(#pa7d2aace88)">
     <use xlink:href="#C5_0_569dc9e052" x="262.207204" y="179.944395" style="fill: #96a1a6; stroke: #96a1a6"/>
    </g>
    <g clip-path="url(#pa7d2aace88)">
     <use xlink:href="#C5_0_569dc9e052" x="308.668695" y="186.319453" style="fill: #f9f1e0; stroke: #f9f1e0"/>
    </g>
    <g clip-path="url(#pa7d2aace88)">
     <use xlink:href="#C5_0_569dc9e052" x="313.247264" y="187.585349" style="fill: #fff9e8; stroke: #fff9e8"/>
    </g>
   </g>
   <g id="Path3DCollection_7">
    <defs>
     <path id="C6_0_7195012c55" d="M 0 2.236068 
C 0.593012 2.236068 1.161816 2.000462 1.581139 1.581139 
C 2.000462 1.161816 2.236068 0.593012 2.236068 -0 
C 2.236068 -0.593012 2.000462 -1.161816 1.581139 -1.581139 
C 1.161816 -2.000462 0.593012 -2.236068 0 -2.236068 
C -0.593012 -2.236068 -1.161816 -2.000462 -1.581139 -1.581139 
C -2.000462 -1.161816 -2.236068 -0.593012 -2.236068 0 
C -2.236068 0.593012 -2.000462 1.161816 -1.581139 1.581139 
C -1.161816 2.000462 -0.593012 2.236068 0 2.236068 
z
"/>
    </defs>
    <g clip-path="url(#pa7d2aace88)">
     <use xlink:href="#C6_0_7195012c55" x="181.915749" y="168.168128" style="fill: #002b3d; stroke: #002b3d"/>
    </g>
    <g clip-path="url(#pa7d2aace88)">
     <use xlink:href="#C6_0_7195012c55" x="196.967432" y="178.769513" style="fill: #004867; stroke: #004867"/>
    </g>
    <g clip-path="url(#pa7d2aace88)">
     <use xlink:href="#C6_0_7195012c55" x="233.216339" y="198.773556" style="fill: #008fc3; stroke: #008fc3"/>
    </g>
    <g clip-path="url(#pa7d2aace88)">
     <use xlink:href="#C6_0_7195012c55" x="268.774194" y="220.907951" style="fill: #00dcff; stroke: #00dcff"/>
    </g>
    <g clip-path="url(#pa7d2aace88)">
     <use xlink:href="#C6_0_7195012c55" x="305.292856" y="201.855486" style="fill: #c1feff; stroke: #c1feff"/>
    </g>
   </g>
   <g id="Path3DCollection_8">
    <defs>
     <path id="C7_0_491546a00a" d="M 0 2.236068 
C 0.593012 2.236068 1.161816 2.000462 1.581139 1.581139 
C 2.000462 1.161816 2.236068 0.593012 2.236068 -0 
C 2.236068 -0.593012 2.000462 -1.161816 1.581139 -1.581139 
C 1.161816 -2.000462 0.593012 -2.236068 0 -2.236068 
C -0.593012 -2.236068 -1.161816 -2.000462 -1.581139 -1.581139 
C -2.000462 -1.161816 -2.236068 -0.593012 -2.236068 0 
C -2.236068 0.593012 -2.000462 1.161816 -1.581139 1.581139 
C -1.161816 2.000462 -0.593012 2.236068 0 2.236068 
z
"/>
    </defs>
    <g clip-path="url(#pa7d2aace88)">
     <use xlink:href="#C7_0_491546a00a" x="186.206298" y="143.447785" style="fill: #2d2000; stroke: #2d2000"/>
    </g>
    <g clip-path="url(#pa7d2aace88)">
     <use xlink:href="#C7_0_491546a00a" x="202.904114" y="136.754402" style="fill: #4d3700; stroke: #4d3700"/>
    </g>
    <g clip-path="url(#pa7d2aace88)">
     <use xlink:href="#C7_0_491546a00a" x="242.289305" y="119.312769" style="fill: #9c7200; stroke: #9c7200"/>
    </g>
    <g clip-path="url(#pa7d2aace88)">
     <use xlink:href="#C7_0_491546a00a" x="308.482233" y="181.531244" style="fill: #fef3c7; stroke: #fef3c7"/>
    </g>
    <g clip-path="url(#pa7d2aace88)">
     <use xlink:href="#C7_0_491546a00a" x="292.963755" y="125.629696" style="fill: #ffc600; stroke: #ffc600"/>
    </g>
   </g>
   <g id="Path3DCollection_9">
    <defs>
     <path id="C8_0_f3eee4b736" d="M 0 2.236068 
C 0.593012 2.236068 1.161816 2.000462 1.581139 1.581139 
C 2.000462 1.161816 2.236068 0.593012 2.236068 -0 
C 2.236068 -0.593012 2.000462 -1.161816 1.581139 -1.581139 
C 1.161816 -2.000462 0.593012 -2.236068 0 -2.236068 
C -0.593012 -2.236068 -1.161816 -2.000462 -1.581139 -1.581139 
C -2.000462 -1.161816 -2.236068 -0.593012 -2.236068 0 
C -2.236068 0.593012 -2.000462 1.161816 -1.581139 1.581139 
C -1.161816 2.000462 -0.593012 2.236068 0 2.236068 
z
"/>
    </defs>
    <g clip-path="url(#pa7d2aace88)">
     <use xlink:href="#C8_0_f3eee4b736" x="178.736283" y="154.282311" style="fill: #002f00; stroke: #002f00"/>
    </g>
    <g clip-path="url(#pa7d2aace88)">
     <use xlink:href="#C8_0_f3eee4b736" x="192.187299" y="155.836584" style="fill: #005000; stroke: #005000"/>
    </g>
    <g clip-path="url(#pa7d2aace88)">
     <use xlink:href="#C8_0_f3eee4b736" x="227.6338" y="167.285806" style="fill: #009c16; stroke: #009c16"/>
    </g>
    <g clip-path="url(#pa7d2aace88)">
     <use xlink:href="#C8_0_f3eee4b736" x="304.82155" y="190.441316" style="fill: #d6ffd4; stroke: #d6ffd4"/>
    </g>
    <g clip-path="url(#pa7d2aace88)">
     <use xlink:href="#C8_0_f3eee4b736" x="262.00789" y="177.791436" style="fill: #00f02e; stroke: #00f02e"/>
    </g>
   </g>
   <g id="Path3DCollection_10">
    <defs>
     <path id="C9_0_487ee6bccf" d="M 0 2.236068 
C 0.593012 2.236068 1.161816 2.000462 1.581139 1.581139 
C 2.000462 1.161816 2.236068 0.593012 2.236068 -0 
C 2.236068 -0.593012 2.000462 -1.161816 1.581139 -1.581139 
C 1.161816 -2.000462 0.593012 -2.236068 0 -2.236068 
C -0.593012 -2.236068 -1.161816 -2.000462 -1.581139 -1.581139 
C -2.000462 -1.161816 -2.236068 -0.593012 -2.236068 0 
C -2.236068 0.593012 -2.000462 1.161816 -1.581139 1.581139 
C -1.161816 2.000462 -0.593012 2.236068 0 2.236068 
z
"/>
    </defs>
    <g clip-path="url(#pa7d2aace88)">
     <use xlink:href="#C9_0_487ee6bccf" x="175.723033" y="167.013852" style="fill: #003423; stroke: #003423"/>
    </g>
    <g clip-path="url(#pa7d2aace88)">
     <use xlink:href="#C9_0_487ee6bccf" x="187.364144" y="177.788775" style="fill: #00573c; stroke: #00573c"/>
    </g>
    <g clip-path="url(#pa7d2aace88)">
     <use xlink:href="#C9_0_487ee6bccf" x="221.373444" y="196.529898" style="fill: #00a87c; stroke: #00a87c"/>
    </g>
    <g clip-path="url(#pa7d2aace88)">
     <use xlink:href="#C9_0_487ee6bccf" x="303.386921" y="199.108355" style="fill: #b9fff2; stroke: #b9fff2"/>
    </g>
    <g clip-path="url(#pa7d2aace88)">
     <use xlink:href="#C9_0_487ee6bccf" x="253.132112" y="218.746949" style="fill: #00ffc0; stroke: #00ffc0"/>
    </g>
   </g>
  </g>
 </g>
 <defs>
  <clipPath id="pa7d2aace88">
   <rect x="103.104" y="41.472" width="266.112" height="266.112"/>
  </clipPath>
 </defs>
</svg>
