<?xml version="1.0" encoding="utf-8" standalone="no"?>
<!DOCTYPE svg PUBLIC "-//W3C//DTD SVG 1.1//EN"
  "http://www.w3.org/Graphics/SVG/1.1/DTD/svg11.dtd">
<svg xmlns:xlink="http://www.w3.org/1999/xlink" width="460.8pt" height="345.6pt" viewBox="0 0 460.8 345.6" xmlns="http://www.w3.org/2000/svg" version="1.1">
 <metadata>
  <rdf:RDF xmlns:dc="http://purl.org/dc/elements/1.1/" xmlns:cc="http://creativecommons.org/ns#" xmlns:rdf="http://www.w3.org/1999/02/22-rdf-syntax-ns#">
   <cc:Work>
    <dc:type rdf:resource="http://purl.org/dc/dcmitype/StillImage"/>
    <dc:date>2024-06-07T00:31:07.391295</dc:date>
    <dc:format>image/svg+xml</dc:format>
    <dc:creator>
     <cc:Agent>
      <dc:title>Matplotlib v3.9.0, https://matplotlib.org/</dc:title>
     </cc:Agent>
    </dc:creator>
   </cc:Work>
  </rdf:RDF>
 </metadata>
 <defs>
  <style type="text/css">*{stroke-linejoin: round; stroke-linecap: butt}</style>
 </defs>
 <g id="figure_1">
  <g id="patch_1">
   <path d="M 0 345.6 
L 460.8 345.6 
L 460.8 0 
L 0 0 
z
" style="fill: #ffffff"/>
  </g>
  <g id="axes_1">
   <g id="patch_2">
    <path d="M 369.216 174.528 
C 369.216 157.055246 365.774248 139.752393 359.087715 123.609673 
C 352.401182 107.466954 342.599903 92.798303 330.2448 80.4432 
C 317.889697 68.088097 303.221046 58.286818 287.078327 51.600285 
C 270.935607 44.913752 253.632754 41.472 236.16 41.472 
C 218.687246 41.472 201.384393 44.913752 185.241673 51.600285 
C 169.098954 58.286818 154.430303 68.088097 142.0752 80.4432 
C 129.720097 92.798303 119.918818 107.466954 113.232285 123.609673 
C 106.545752 139.752393 103.104 157.055246 103.104 174.528 
C 103.104 192.000754 106.545752 209.303607 113.232285 225.446327 
C 119.918818 241.589046 129.720097 256.257697 142.0752 268.6128 
C 154.430303 280.967903 169.098954 290.769182 185.241673 297.455715 
C 201.384393 304.142248 218.687246 307.584 236.16 307.584 
C 253.632754 307.584 270.935607 304.142248 287.078327 297.455715 
C 303.221046 290.769182 317.889697 280.967903 330.2448 268.6128 
C 342.599903 256.257697 352.401182 241.589046 359.087715 225.446327 
C 365.774248 209.303607 369.216 192.000754 369.216 174.528 
M 236.16 174.528 
C 236.16 174.528 236.16 174.528 236.16 174.528 
C 236.16 174.528 236.16 174.528 236.16 174.528 
C 236.16 174.528 236.16 174.528 236.16 174.528 
C 236.16 174.528 236.16 174.528 236.16 174.528 
C 236.16 174.528 236.16 174.528 236.16 174.528 
C 236.16 174.528 236.16 174.528 236.16 174.528 
C 236.16 174.528 236.16 174.528 236.16 174.528 
C 236.16 174.528 236.16 174.528 236.16 174.528 
C 236.16 174.528 236.16 174.528 236.16 174.528 
C 236.16 174.528 236.16 174.528 236.16 174.528 
C 236.16 174.528 236.16 174.528 236.16 174.528 
C 236.16 174.528 236.16 174.528 236.16 174.528 
C 236.16 174.528 236.16 174.528 236.16 174.528 
C 236.16 174.528 236.16 174.528 236.16 174.528 
C 236.16 174.528 236.16 174.528 236.16 174.528 
C 236.16 174.528 236.16 174.528 236.16 174.528 
z
" style="fill: #ffffff"/>
   </g>
   <g id="PathCollection_1">
    <defs>
     <path id="C0_0_5a14b7d35a" d="M 0 3 
C 0.795609 3 1.55874 2.683901 2.12132 2.12132 
C 2.683901 1.55874 3 0.795609 3 -0 
C 3 -0.795609 2.683901 -1.55874 2.12132 -2.12132 
C 1.55874 -2.683901 0.795609 -3 0 -3 
C -0.795609 -3 -1.55874 -2.683901 -2.12132 -2.12132 
C -2.683901 -1.55874 -3 -0.795609 -3 0 
C -3 0.795609 -2.683901 1.55874 -2.12132 2.12132 
C -1.55874 2.683901 -0.795609 3 0 3 
z
"/>
    </defs>
    <g clip-path="url(#pf148e167dd)">
     <use xlink:href="#C0_0_5a14b7d35a" x="278.225492" y="147.136051" style="fill: #c13e28; stroke: #c13e28"/>
    </g>
    <g clip-path="url(#pf148e167dd)">
     <use xlink:href="#C0_0_5a14b7d35a" x="227.639748" y="122.165722" style="fill: #9c7200; stroke: #9c7200"/>
    </g>
    <g clip-path="url(#pf148e167dd)">
     <use xlink:href="#C0_0_5a14b7d35a" x="192.712498" y="136.621559" style="fill: #009c16; stroke: #009c16"/>
    </g>
    <g clip-path="url(#pf148e167dd)">
     <use xlink:href="#C0_0_5a14b7d35a" x="178.22194" y="172.116812" style="fill: #00a87c; stroke: #00a87c"/>
    </g>
    <g clip-path="url(#pf148e167dd)">
     <use xlink:href="#C0_0_5a14b7d35a" x="196.66783" y="208.672796" style="fill: #008fc3; stroke: #008fc3"/>
    </g>
    <g clip-path="url(#pf148e167dd)">
     <use xlink:href="#C0_0_5a14b7d35a" x="240.185576" y="219.736208" style="fill: #6356db; stroke: #6356db"/>
    </g>
    <g clip-path="url(#pf148e167dd)">
     <use xlink:href="#C0_0_5a14b7d35a" x="273.095246" y="200.297975" style="fill: #aa12b7; stroke: #aa12b7"/>
    </g>
    <g clip-path="url(#pf148e167dd)">
     <use xlink:href="#C0_0_5a14b7d35a" x="282.635729" y="177.216607" style="fill: #bb1f71; stroke: #bb1f71"/>
    </g>
    <g clip-path="url(#pf148e167dd)">
     <use xlink:href="#C0_0_5a14b7d35a" x="245.27296" y="166.232083" style="fill: #3f0600; stroke: #3f0600"/>
    </g>
    <g clip-path="url(#pf148e167dd)">
     <use xlink:href="#C0_0_5a14b7d35a" x="233.723674" y="161.45167" style="fill: #2d2000; stroke: #2d2000"/>
    </g>
    <g clip-path="url(#pf148e167dd)">
     <use xlink:href="#C0_0_5a14b7d35a" x="225.570263" y="164.545435" style="fill: #002f00; stroke: #002f00"/>
    </g>
    <g clip-path="url(#pf148e167dd)">
     <use xlink:href="#C0_0_5a14b7d35a" x="221.531182" y="173.920663" style="fill: #003423; stroke: #003423"/>
    </g>
    <g clip-path="url(#pf148e167dd)">
     <use xlink:href="#C0_0_5a14b7d35a" x="225.90803" y="182.64862" style="fill: #002b3d; stroke: #002b3d"/>
    </g>
    <g clip-path="url(#pf148e167dd)">
     <use xlink:href="#C0_0_5a14b7d35a" x="236.686863" y="185.750879" style="fill: #181546; stroke: #181546"/>
    </g>
    <g clip-path="url(#pf148e167dd)">
     <use xlink:href="#C0_0_5a14b7d35a" x="245.262996" y="180.56493" style="fill: #35003a; stroke: #35003a"/>
    </g>
    <g clip-path="url(#pf148e167dd)">
     <use xlink:href="#C0_0_5a14b7d35a" x="247.696532" y="175.195385" style="fill: #40001f; stroke: #40001f"/>
    </g>
    <g clip-path="url(#pf148e167dd)">
     <use xlink:href="#C0_0_5a14b7d35a" x="252.604335" y="160.886639" style="fill: #670a00; stroke: #670a00"/>
    </g>
    <g clip-path="url(#pf148e167dd)">
     <use xlink:href="#C0_0_5a14b7d35a" x="232.236638" y="151.754609" style="fill: #4d3700; stroke: #4d3700"/>
    </g>
    <g clip-path="url(#pf148e167dd)">
     <use xlink:href="#C0_0_5a14b7d35a" x="217.615846" y="157.197083" style="fill: #005000; stroke: #005000"/>
    </g>
    <g clip-path="url(#pf148e167dd)">
     <use xlink:href="#C0_0_5a14b7d35a" x="210.581447" y="173.44557" style="fill: #00573c; stroke: #00573c"/>
    </g>
    <g clip-path="url(#pf148e167dd)">
     <use xlink:href="#C0_0_5a14b7d35a" x="218.772964" y="189.001562" style="fill: #004867; stroke: #004867"/>
    </g>
    <g clip-path="url(#pf148e167dd)">
     <use xlink:href="#C0_0_5a14b7d35a" x="237.514094" y="193.56473" style="fill: #2c2475; stroke: #2c2475"/>
    </g>
    <g clip-path="url(#pf148e167dd)">
     <use xlink:href="#C0_0_5a14b7d35a" x="251.804624" y="184.858221" style="fill: #590061; stroke: #590061"/>
    </g>
    <g clip-path="url(#pf148e167dd)">
     <use xlink:href="#C0_0_5a14b7d35a" x="256.154909" y="175.678681" style="fill: #6a0037; stroke: #6a0037"/>
    </g>
    <g clip-path="url(#pf148e167dd)">
     <use xlink:href="#C0_0_5a14b7d35a" x="312.668686" y="126.816327" style="fill: #ff5034; stroke: #ff5034"/>
    </g>
    <g clip-path="url(#pf148e167dd)">
     <use xlink:href="#C0_0_5a14b7d35a" x="220.851037" y="72.75529" style="fill: #ffc600; stroke: #ffc600"/>
    </g>
    <g clip-path="url(#pf148e167dd)">
     <use xlink:href="#C0_0_5a14b7d35a" x="162.015324" y="110.489424" style="fill: #00f02e; stroke: #00f02e"/>
    </g>
    <g clip-path="url(#pf148e167dd)">
     <use xlink:href="#C0_0_5a14b7d35a" x="137.628062" y="170.397819" style="fill: #00ffc0; stroke: #00ffc0"/>
    </g>
    <g clip-path="url(#pf148e167dd)">
     <use xlink:href="#C0_0_5a14b7d35a" x="170.154078" y="233.503702" style="fill: #00dcff; stroke: #00dcff"/>
    </g>
    <g clip-path="url(#pf148e167dd)">
     <use xlink:href="#C0_0_5a14b7d35a" x="232.329774" y="251.86033" style="fill: #816bff; stroke: #816bff"/>
    </g>
    <g clip-path="url(#pf148e167dd)">
     <use xlink:href="#C0_0_5a14b7d35a" x="291.262523" y="213.748623" style="fill: #e43af4; stroke: #e43af4"/>
    </g>
    <g clip-path="url(#pf148e167dd)">
     <use xlink:href="#C0_0_5a14b7d35a" x="306.807148" y="178.586564" style="fill: #ff21a0; stroke: #ff21a0"/>
    </g>
    <g clip-path="url(#pf148e167dd)">
     <use xlink:href="#C0_0_5a14b7d35a" x="337.275387" y="104.262159" style="fill: #ffe0d2; stroke: #ffe0d2"/>
    </g>
    <g clip-path="url(#pf148e167dd)">
     <use xlink:href="#C0_0_5a14b7d35a" x="225.34494" y="49.670659" style="fill: #fef3c7; stroke: #fef3c7"/>
    </g>
    <g clip-path="url(#pf148e167dd)">
     <use xlink:href="#C0_0_5a14b7d35a" x="132.655455" y="101.228489" style="fill: #d6ffd4; stroke: #d6ffd4"/>
    </g>
    <g clip-path="url(#pf148e167dd)">
     <use xlink:href="#C0_0_5a14b7d35a" x="109.62524" y="172.529514" style="fill: #b9fff2; stroke: #b9fff2"/>
    </g>
    <g clip-path="url(#pf148e167dd)">
     <use xlink:href="#C0_0_5a14b7d35a" x="136.676567" y="249.234853" style="fill: #c1feff; stroke: #c1feff"/>
    </g>
    <g clip-path="url(#pf148e167dd)">
     <use xlink:href="#C0_0_5a14b7d35a" x="216.930952" y="286.08728" style="fill: #cce1ff; stroke: #cce1ff"/>
    </g>
    <g clip-path="url(#pf148e167dd)">
     <use xlink:href="#C0_0_5a14b7d35a" x="327.30231" y="253.724854" style="fill: #ffdbff; stroke: #ffdbff"/>
    </g>
    <g clip-path="url(#pf148e167dd)">
     <use xlink:href="#C0_0_5a14b7d35a" x="357.081109" y="184.59795" style="fill: #ffd6ef; stroke: #ffd6ef"/>
    </g>
    <g clip-path="url(#pf148e167dd)">
     <use xlink:href="#C0_0_5a14b7d35a" x="197.910288" y="210.985091" style="fill: #627d89; stroke: #627d89"/>
    </g>
    <g clip-path="url(#pf148e167dd)">
     <use xlink:href="#C0_0_5a14b7d35a" x="226.815053" y="183.697227" style="fill: #002633; stroke: #002633"/>
    </g>
    <g clip-path="url(#pf148e167dd)">
     <use xlink:href="#C0_0_5a14b7d35a" x="223.439045" y="187.047261" style="fill: #0b3340; stroke: #0b3340"/>
    </g>
    <g clip-path="url(#pf148e167dd)">
     <use xlink:href="#C0_0_5a14b7d35a" x="202.695713" y="206.487867" style="fill: #56707b; stroke: #56707b"/>
    </g>
    <g clip-path="url(#pf148e167dd)">
     <use xlink:href="#C0_0_5a14b7d35a" x="186.270398" y="218.978466" style="fill: #899499; stroke: #899499"/>
    </g>
    <g clip-path="url(#pf148e167dd)">
     <use xlink:href="#C0_0_5a14b7d35a" x="180.674435" y="223.815239" style="fill: #96a1a6; stroke: #96a1a6"/>
    </g>
    <g clip-path="url(#pf148e167dd)">
     <use xlink:href="#C0_0_5a14b7d35a" x="235.835982" y="50.081727" style="fill: #f9f1e0; stroke: #f9f1e0"/>
    </g>
    <g clip-path="url(#pf148e167dd)">
     <use xlink:href="#C0_0_5a14b7d35a" x="235.484149" y="44.649567" style="fill: #fff9e8; stroke: #fff9e8"/>
    </g>
    <g clip-path="url(#pf148e167dd)">
     <use xlink:href="#C0_0_5a14b7d35a" x="236.16" y="174.528" style="stroke: #000000"/>
    </g>
    <g clip-path="url(#pf148e167dd)">
     <use xlink:href="#C0_0_5a14b7d35a" x="122.431702" y="243.585464" style="fill: #ffffff; stroke: #ffffff"/>
    </g>
    <g clip-path="url(#pf148e167dd)">
     <use xlink:href="#C0_0_5a14b7d35a" x="190.997322" y="201.95143" style="fill: #787878; stroke: #787878"/>
    </g>
    <g clip-path="url(#pf148e167dd)">
     <use xlink:href="#C0_0_5a14b7d35a" x="216.513763" y="186.457478" style="fill: #3a3939; stroke: #3a3939"/>
    </g>
    <g clip-path="url(#pf148e167dd)">
     <use xlink:href="#C0_0_5a14b7d35a" x="159.413547" y="221.129554" style="fill: #bab9b9; stroke: #bab9b9"/>
    </g>
   </g>
   <g id="matplotlib.axis_1">
    <g id="xtick_1">
     <g id="line2d_1">
      <path d="M 236.16 174.528 
L 369.216 174.528 
" clip-path="url(#pf148e167dd)" style="fill: none; stroke: #b0b0b0; stroke-width: 0.8; stroke-linecap: square"/>
     </g>
     <g id="text_1">
      <!-- 0° -->
      <g transform="translate(377.53475 177.287375) scale(0.1 -0.1)">
       <defs>
        <path id="DejaVuSans-30" d="M 2034 4250 
Q 1547 4250 1301 3770 
Q 1056 3291 1056 2328 
Q 1056 1369 1301 889 
Q 1547 409 2034 409 
Q 2525 409 2770 889 
Q 3016 1369 3016 2328 
Q 3016 3291 2770 3770 
Q 2525 4250 2034 4250 
z
M 2034 4750 
Q 2819 4750 3233 4129 
Q 3647 3509 3647 2328 
Q 3647 1150 3233 529 
Q 2819 -91 2034 -91 
Q 1250 -91 836 529 
Q 422 1150 422 2328 
Q 422 3509 836 4129 
Q 1250 4750 2034 4750 
z
" transform="scale(0.015625)"/>
        <path id="DejaVuSans-b0" d="M 1600 4347 
Q 1350 4347 1178 4173 
Q 1006 4000 1006 3750 
Q 1006 3503 1178 3333 
Q 1350 3163 1600 3163 
Q 1850 3163 2022 3333 
Q 2194 3503 2194 3750 
Q 2194 3997 2020 4172 
Q 1847 4347 1600 4347 
z
M 1600 4750 
Q 1800 4750 1984 4673 
Q 2169 4597 2303 4453 
Q 2447 4313 2519 4134 
Q 2591 3956 2591 3750 
Q 2591 3338 2302 3052 
Q 2013 2766 1594 2766 
Q 1172 2766 890 3047 
Q 609 3328 609 3750 
Q 609 4169 896 4459 
Q 1184 4750 1600 4750 
z
" transform="scale(0.015625)"/>
       </defs>
       <use xlink:href="#DejaVuSans-30"/>
       <use xlink:href="#DejaVuSans-b0" x="63.623047"/>
      </g>
     </g>
    </g>
    <g id="xtick_2">
     <g id="line2d_2">
      <path d="M 236.16 174.528 
L 330.2448 80.4432 
" clip-path="url(#pf148e167dd)" style="fill: none; stroke: #b0b0b0; stroke-width: 0.8; stroke-linecap: square"/>
     </g>
     <g id="text_2">
      <!-- 45° -->
      <g transform="translate(331.281795 73.30308) scale(0.1 -0.1)">
       <defs>
        <path id="DejaVuSans-34" d="M 2419 4116 
L 825 1625 
L 2419 1625 
L 2419 4116 
z
M 2253 4666 
L 3047 4666 
L 3047 1625 
L 3713 1625 
L 3713 1100 
L 3047 1100 
L 3047 0 
L 2419 0 
L 2419 1100 
L 313 1100 
L 313 1709 
L 2253 4666 
z
" transform="scale(0.015625)"/>
        <path id="DejaVuSans-35" d="M 691 4666 
L 3169 4666 
L 3169 4134 
L 1269 4134 
L 1269 2991 
Q 1406 3038 1543 3061 
Q 1681 3084 1819 3084 
Q 2600 3084 3056 2656 
Q 3513 2228 3513 1497 
Q 3513 744 3044 326 
Q 2575 -91 1722 -91 
Q 1428 -91 1123 -41 
Q 819 9 494 109 
L 494 744 
Q 775 591 1075 516 
Q 1375 441 1709 441 
Q 2250 441 2565 725 
Q 2881 1009 2881 1497 
Q 2881 1984 2565 2268 
Q 2250 2553 1709 2553 
Q 1456 2553 1204 2497 
Q 953 2441 691 2322 
L 691 4666 
z
" transform="scale(0.015625)"/>
       </defs>
       <use xlink:href="#DejaVuSans-34"/>
       <use xlink:href="#DejaVuSans-35" x="63.623047"/>
       <use xlink:href="#DejaVuSans-b0" x="127.246094"/>
      </g>
     </g>
    </g>
    <g id="xtick_3">
     <g id="line2d_3">
      <path d="M 236.16 174.528 
L 236.16 41.472 
" clip-path="url(#pf148e167dd)" style="fill: none; stroke: #b0b0b0; stroke-width: 0.8; stroke-linecap: square"/>
     </g>
     <g id="text_3">
      <!-- 90° -->
      <g transform="translate(227.2975 30.231375) scale(0.1 -0.1)">
       <defs>
        <path id="DejaVuSans-39" d="M 703 97 
L 703 672 
Q 941 559 1184 500 
Q 1428 441 1663 441 
Q 2288 441 2617 861 
Q 2947 1281 2994 2138 
Q 2813 1869 2534 1725 
Q 2256 1581 1919 1581 
Q 1219 1581 811 2004 
Q 403 2428 403 3163 
Q 403 3881 828 4315 
Q 1253 4750 1959 4750 
Q 2769 4750 3195 4129 
Q 3622 3509 3622 2328 
Q 3622 1225 3098 567 
Q 2575 -91 1691 -91 
Q 1453 -91 1209 -44 
Q 966 3 703 97 
z
M 1959 2075 
Q 2384 2075 2632 2365 
Q 2881 2656 2881 3163 
Q 2881 3666 2632 3958 
Q 2384 4250 1959 4250 
Q 1534 4250 1286 3958 
Q 1038 3666 1038 3163 
Q 1038 2656 1286 2365 
Q 1534 2075 1959 2075 
z
" transform="scale(0.015625)"/>
       </defs>
       <use xlink:href="#DejaVuSans-39"/>
       <use xlink:href="#DejaVuSans-30" x="63.623047"/>
       <use xlink:href="#DejaVuSans-b0" x="127.246094"/>
      </g>
     </g>
    </g>
    <g id="xtick_4">
     <g id="line2d_4">
      <path d="M 236.16 174.528 
L 142.0752 80.4432 
" clip-path="url(#pf148e167dd)" style="fill: none; stroke: #b0b0b0; stroke-width: 0.8; stroke-linecap: square"/>
     </g>
     <g id="text_4">
      <!-- 135° -->
      <g transform="translate(120.131955 73.30308) scale(0.1 -0.1)">
       <defs>
        <path id="DejaVuSans-31" d="M 794 531 
L 1825 531 
L 1825 4091 
L 703 3866 
L 703 4441 
L 1819 4666 
L 2450 4666 
L 2450 531 
L 3481 531 
L 3481 0 
L 794 0 
L 794 531 
z
" transform="scale(0.015625)"/>
        <path id="DejaVuSans-33" d="M 2597 2516 
Q 3050 2419 3304 2112 
Q 3559 1806 3559 1356 
Q 3559 666 3084 287 
Q 2609 -91 1734 -91 
Q 1441 -91 1130 -33 
Q 819 25 488 141 
L 488 750 
Q 750 597 1062 519 
Q 1375 441 1716 441 
Q 2309 441 2620 675 
Q 2931 909 2931 1356 
Q 2931 1769 2642 2001 
Q 2353 2234 1838 2234 
L 1294 2234 
L 1294 2753 
L 1863 2753 
Q 2328 2753 2575 2939 
Q 2822 3125 2822 3475 
Q 2822 3834 2567 4026 
Q 2313 4219 1838 4219 
Q 1578 4219 1281 4162 
Q 984 4106 628 3988 
L 628 4550 
Q 988 4650 1302 4700 
Q 1616 4750 1894 4750 
Q 2613 4750 3031 4423 
Q 3450 4097 3450 3541 
Q 3450 3153 3228 2886 
Q 3006 2619 2597 2516 
z
" transform="scale(0.015625)"/>
       </defs>
       <use xlink:href="#DejaVuSans-31"/>
       <use xlink:href="#DejaVuSans-33" x="63.623047"/>
       <use xlink:href="#DejaVuSans-35" x="127.246094"/>
       <use xlink:href="#DejaVuSans-b0" x="190.869141"/>
      </g>
     </g>
    </g>
    <g id="xtick_5">
     <g id="line2d_5">
      <path d="M 236.16 174.528 
L 103.104 174.528 
" clip-path="url(#pf148e167dd)" style="fill: none; stroke: #b0b0b0; stroke-width: 0.8; stroke-linecap: square"/>
     </g>
     <g id="text_5">
      <!-- 180° -->
      <g transform="translate(77.06025 177.287375) scale(0.1 -0.1)">
       <defs>
        <path id="DejaVuSans-38" d="M 2034 2216 
Q 1584 2216 1326 1975 
Q 1069 1734 1069 1313 
Q 1069 891 1326 650 
Q 1584 409 2034 409 
Q 2484 409 2743 651 
Q 3003 894 3003 1313 
Q 3003 1734 2745 1975 
Q 2488 2216 2034 2216 
z
M 1403 2484 
Q 997 2584 770 2862 
Q 544 3141 544 3541 
Q 544 4100 942 4425 
Q 1341 4750 2034 4750 
Q 2731 4750 3128 4425 
Q 3525 4100 3525 3541 
Q 3525 3141 3298 2862 
Q 3072 2584 2669 2484 
Q 3125 2378 3379 2068 
Q 3634 1759 3634 1313 
Q 3634 634 3220 271 
Q 2806 -91 2034 -91 
Q 1263 -91 848 271 
Q 434 634 434 1313 
Q 434 1759 690 2068 
Q 947 2378 1403 2484 
z
M 1172 3481 
Q 1172 3119 1398 2916 
Q 1625 2713 2034 2713 
Q 2441 2713 2670 2916 
Q 2900 3119 2900 3481 
Q 2900 3844 2670 4047 
Q 2441 4250 2034 4250 
Q 1625 4250 1398 4047 
Q 1172 3844 1172 3481 
z
" transform="scale(0.015625)"/>
       </defs>
       <use xlink:href="#DejaVuSans-31"/>
       <use xlink:href="#DejaVuSans-38" x="63.623047"/>
       <use xlink:href="#DejaVuSans-30" x="127.246094"/>
       <use xlink:href="#DejaVuSans-b0" x="190.869141"/>
      </g>
     </g>
    </g>
    <g id="xtick_6">
     <g id="line2d_6">
      <path d="M 236.16 174.528 
L 142.0752 268.6128 
" clip-path="url(#pf148e167dd)" style="fill: none; stroke: #b0b0b0; stroke-width: 0.8; stroke-linecap: square"/>
     </g>
     <g id="text_6">
      <!-- 225° -->
      <g transform="translate(120.131955 281.27167) scale(0.1 -0.1)">
       <defs>
        <path id="DejaVuSans-32" d="M 1228 531 
L 3431 531 
L 3431 0 
L 469 0 
L 469 531 
Q 828 903 1448 1529 
Q 2069 2156 2228 2338 
Q 2531 2678 2651 2914 
Q 2772 3150 2772 3378 
Q 2772 3750 2511 3984 
Q 2250 4219 1831 4219 
Q 1534 4219 1204 4116 
Q 875 4013 500 3803 
L 500 4441 
Q 881 4594 1212 4672 
Q 1544 4750 1819 4750 
Q 2544 4750 2975 4387 
Q 3406 4025 3406 3419 
Q 3406 3131 3298 2873 
Q 3191 2616 2906 2266 
Q 2828 2175 2409 1742 
Q 1991 1309 1228 531 
z
" transform="scale(0.015625)"/>
       </defs>
       <use xlink:href="#DejaVuSans-32"/>
       <use xlink:href="#DejaVuSans-32" x="63.623047"/>
       <use xlink:href="#DejaVuSans-35" x="127.246094"/>
       <use xlink:href="#DejaVuSans-b0" x="190.869141"/>
      </g>
     </g>
    </g>
    <g id="xtick_7">
     <g id="line2d_7">
      <path d="M 236.16 174.528 
L 236.16 307.584 
" clip-path="url(#pf148e167dd)" style="fill: none; stroke: #b0b0b0; stroke-width: 0.8; stroke-linecap: square"/>
     </g>
     <g id="text_7">
      <!-- 270° -->
      <g transform="translate(224.11625 324.343375) scale(0.1 -0.1)">
       <defs>
        <path id="DejaVuSans-37" d="M 525 4666 
L 3525 4666 
L 3525 4397 
L 1831 0 
L 1172 0 
L 2766 4134 
L 525 4134 
L 525 4666 
z
" transform="scale(0.015625)"/>
       </defs>
       <use xlink:href="#DejaVuSans-32"/>
       <use xlink:href="#DejaVuSans-37" x="63.623047"/>
       <use xlink:href="#DejaVuSans-30" x="127.246094"/>
       <use xlink:href="#DejaVuSans-b0" x="190.869141"/>
      </g>
     </g>
    </g>
    <g id="xtick_8">
     <g id="line2d_8">
      <path d="M 236.16 174.528 
L 330.2448 268.6128 
" clip-path="url(#pf148e167dd)" style="fill: none; stroke: #b0b0b0; stroke-width: 0.8; stroke-linecap: square"/>
     </g>
     <g id="text_8">
      <!-- 315° -->
      <g transform="translate(328.100545 281.27167) scale(0.1 -0.1)">
       <use xlink:href="#DejaVuSans-33"/>
       <use xlink:href="#DejaVuSans-31" x="63.623047"/>
       <use xlink:href="#DejaVuSans-35" x="127.246094"/>
       <use xlink:href="#DejaVuSans-b0" x="190.869141"/>
      </g>
     </g>
    </g>
   </g>
   <g id="matplotlib.axis_2">
    <g id="ytick_1">
     <g id="line2d_9">
      <path d="M 262.7712 174.528 
C 262.7712 171.033449 262.08285 167.572879 260.745543 164.344335 
C 259.408236 161.115791 257.447981 158.182061 254.97696 155.71104 
C 252.505939 153.240019 249.572209 151.279764 246.343665 149.942457 
C 243.115121 148.60515 239.654551 147.9168 236.16 147.9168 
C 232.665449 147.9168 229.204879 148.60515 225.976335 149.942457 
C 222.747791 151.279764 219.814061 153.240019 217.34304 155.71104 
C 214.872019 158.182061 212.911764 161.115791 211.574457 164.344335 
C 210.23715 167.572879 209.5488 171.033449 209.5488 174.528 
C 209.5488 178.022551 210.23715 181.483121 211.574457 184.711665 
C 212.911764 187.940209 214.872019 190.873939 217.34304 193.34496 
C 219.814061 195.815981 222.747791 197.776236 225.976335 199.113543 
C 229.204879 200.45085 232.665449 201.1392 236.16 201.1392 
C 239.654551 201.1392 243.115121 200.45085 246.343665 199.113543 
C 249.572209 197.776236 252.505939 195.815981 254.97696 193.34496 
C 257.447981 190.873939 259.408236 187.940209 260.745543 184.711665 
C 262.08285 181.483121 262.7712 178.022551 262.7712 174.528 
" clip-path="url(#pf148e167dd)" style="fill: none; stroke: #b0b0b0; stroke-width: 0.8; stroke-linecap: square"/>
     </g>
     <g id="text_9">
      <!-- 20 -->
      <g transform="translate(260.745543 162.264647) scale(0.1 -0.1)">
       <use xlink:href="#DejaVuSans-32"/>
       <use xlink:href="#DejaVuSans-30" x="63.623047"/>
      </g>
     </g>
    </g>
    <g id="ytick_2">
     <g id="line2d_10">
      <path d="M 289.3824 174.528 
C 289.3824 167.538898 288.005699 160.617757 285.331086 154.160669 
C 282.656473 147.703581 278.735961 141.836121 273.79392 136.89408 
C 268.851879 131.952039 262.984419 128.031527 256.527331 125.356914 
C 250.070243 122.682301 243.149102 121.3056 236.16 121.3056 
C 229.170898 121.3056 222.249757 122.682301 215.792669 125.356914 
C 209.335581 128.031527 203.468121 131.952039 198.52608 136.89408 
C 193.584039 141.836121 189.663527 147.703581 186.988914 154.160669 
C 184.314301 160.617757 182.9376 167.538898 182.9376 174.528 
C 182.9376 181.517102 184.314301 188.438243 186.988914 194.895331 
C 189.663527 201.352419 193.584039 207.219879 198.52608 212.16192 
C 203.468121 217.103961 209.335581 221.024473 215.792669 223.699086 
C 222.249757 226.373699 229.170898 227.7504 236.16 227.7504 
C 243.149102 227.7504 250.070243 226.373699 256.527331 223.699086 
C 262.984419 221.024473 268.851879 217.103961 273.79392 212.16192 
C 278.735961 207.219879 282.656473 201.352419 285.331086 194.895331 
C 288.005699 188.438243 289.3824 181.517102 289.3824 174.528 
" clip-path="url(#pf148e167dd)" style="fill: none; stroke: #b0b0b0; stroke-width: 0.8; stroke-linecap: square"/>
     </g>
     <g id="text_10">
      <!-- 40 -->
      <g transform="translate(285.331086 152.080982) scale(0.1 -0.1)">
       <use xlink:href="#DejaVuSans-34"/>
       <use xlink:href="#DejaVuSans-30" x="63.623047"/>
      </g>
     </g>
    </g>
    <g id="ytick_3">
     <g id="line2d_11">
      <path d="M 315.9936 174.528 
C 315.9936 164.044348 313.928549 153.662636 309.916629 143.977004 
C 305.904709 134.291372 300.023942 125.490182 292.61088 118.07712 
C 285.197818 110.664058 276.396628 104.783291 266.710996 100.771371 
C 257.025364 96.759451 246.643652 94.6944 236.16 94.6944 
C 225.676348 94.6944 215.294636 96.759451 205.609004 100.771371 
C 195.923372 104.783291 187.122182 110.664058 179.70912 118.07712 
C 172.296058 125.490182 166.415291 134.291372 162.403371 143.977004 
C 158.391451 153.662636 156.3264 164.044348 156.3264 174.528 
C 156.3264 185.011652 158.391451 195.393364 162.403371 205.078996 
C 166.415291 214.764628 172.296058 223.565818 179.70912 230.97888 
C 187.122182 238.391942 195.923372 244.272709 205.609004 248.284629 
C 215.294636 252.296549 225.676348 254.3616 236.16 254.3616 
C 246.643652 254.3616 257.025364 252.296549 266.710996 248.284629 
C 276.396628 244.272709 285.197818 238.391942 292.61088 230.97888 
C 300.023942 223.565818 305.904709 214.764628 309.916629 205.078996 
C 313.928549 195.393364 315.9936 185.011652 315.9936 174.528 
" clip-path="url(#pf148e167dd)" style="fill: none; stroke: #b0b0b0; stroke-width: 0.8; stroke-linecap: square"/>
     </g>
     <g id="text_11">
      <!-- 60 -->
      <g transform="translate(309.916629 141.897316) scale(0.1 -0.1)">
       <defs>
        <path id="DejaVuSans-36" d="M 2113 2584 
Q 1688 2584 1439 2293 
Q 1191 2003 1191 1497 
Q 1191 994 1439 701 
Q 1688 409 2113 409 
Q 2538 409 2786 701 
Q 3034 994 3034 1497 
Q 3034 2003 2786 2293 
Q 2538 2584 2113 2584 
z
M 3366 4563 
L 3366 3988 
Q 3128 4100 2886 4159 
Q 2644 4219 2406 4219 
Q 1781 4219 1451 3797 
Q 1122 3375 1075 2522 
Q 1259 2794 1537 2939 
Q 1816 3084 2150 3084 
Q 2853 3084 3261 2657 
Q 3669 2231 3669 1497 
Q 3669 778 3244 343 
Q 2819 -91 2113 -91 
Q 1303 -91 875 529 
Q 447 1150 447 2328 
Q 447 3434 972 4092 
Q 1497 4750 2381 4750 
Q 2619 4750 2861 4703 
Q 3103 4656 3366 4563 
z
" transform="scale(0.015625)"/>
       </defs>
       <use xlink:href="#DejaVuSans-36"/>
       <use xlink:href="#DejaVuSans-30" x="63.623047"/>
      </g>
     </g>
    </g>
    <g id="ytick_4">
     <g id="line2d_12">
      <path d="M 342.6048 174.528 
C 342.6048 160.549797 339.851399 146.707514 334.502172 133.793339 
C 329.152945 120.879163 321.311922 109.144242 311.42784 99.26016 
C 301.543758 89.376078 289.808837 81.535055 276.894661 76.185828 
C 263.980486 70.836601 250.138203 68.0832 236.16 68.0832 
C 222.181797 68.0832 208.339514 70.836601 195.425339 76.185828 
C 182.511163 81.535055 170.776242 89.376078 160.89216 99.26016 
C 151.008078 109.144242 143.167055 120.879163 137.817828 133.793339 
C 132.468601 146.707514 129.7152 160.549797 129.7152 174.528 
C 129.7152 188.506203 132.468601 202.348486 137.817828 215.262661 
C 143.167055 228.176837 151.008078 239.911758 160.89216 249.79584 
C 170.776242 259.679922 182.511163 267.520945 195.425339 272.870172 
C 208.339514 278.219399 222.181797 280.9728 236.16 280.9728 
C 250.138203 280.9728 263.980486 278.219399 276.894661 272.870172 
C 289.808837 267.520945 301.543758 259.679922 311.42784 249.79584 
C 321.311922 239.911758 329.152945 228.176837 334.502172 215.262661 
C 339.851399 202.348486 342.6048 188.506203 342.6048 174.528 
" clip-path="url(#pf148e167dd)" style="fill: none; stroke: #b0b0b0; stroke-width: 0.8; stroke-linecap: square"/>
     </g>
     <g id="text_12">
      <!-- 80 -->
      <g transform="translate(334.502172 131.713651) scale(0.1 -0.1)">
       <use xlink:href="#DejaVuSans-38"/>
       <use xlink:href="#DejaVuSans-30" x="63.623047"/>
      </g>
     </g>
    </g>
    <g id="ytick_5">
     <g id="line2d_13">
      <path d="M 369.216 174.528 
C 369.216 157.055246 365.774248 139.752393 359.087715 123.609673 
C 352.401182 107.466954 342.599903 92.798303 330.2448 80.4432 
C 317.889697 68.088097 303.221046 58.286818 287.078327 51.600285 
C 270.935607 44.913752 253.632754 41.472 236.16 41.472 
C 218.687246 41.472 201.384393 44.913752 185.241673 51.600285 
C 169.098954 58.286818 154.430303 68.088097 142.0752 80.4432 
C 129.720097 92.798303 119.918818 107.466954 113.232285 123.609673 
C 106.545752 139.752393 103.104 157.055246 103.104 174.528 
C 103.104 192.000754 106.545752 209.303607 113.232285 225.446327 
C 119.918818 241.589046 129.720097 256.257697 142.0752 268.6128 
C 154.430303 280.967903 169.098954 290.769182 185.241673 297.455715 
C 201.384393 304.142248 218.687246 307.584 236.16 307.584 
C 253.632754 307.584 270.935607 304.142248 287.078327 297.455715 
C 303.221046 290.769182 317.889697 280.967903 330.2448 268.6128 
C 342.599903 256.257697 352.401182 241.589046 359.087715 225.446327 
C 365.774248 209.303607 369.216 192.000754 369.216 174.528 
" clip-path="url(#pf148e167dd)" style="fill: none; stroke: #b0b0b0; stroke-width: 0.8; stroke-linecap: square"/>
     </g>
     <g id="text_13">
      <!-- 100 -->
      <g transform="translate(359.087715 121.529986) scale(0.1 -0.1)">
       <use xlink:href="#DejaVuSans-31"/>
       <use xlink:href="#DejaVuSans-30" x="63.623047"/>
       <use xlink:href="#DejaVuSans-30" x="127.246094"/>
      </g>
     </g>
    </g>
   </g>
   <g id="patch_3">
    <path d="M 369.216 174.528 
C 369.216 157.055246 365.774248 139.752393 359.087715 123.609673 
C 352.401182 107.466954 342.599903 92.798303 330.2448 80.4432 
C 317.889697 68.088097 303.221046 58.286818 287.078327 51.600285 
C 270.935607 44.913752 253.632754 41.472 236.16 41.472 
C 218.687246 41.472 201.384393 44.913752 185.241673 51.600285 
C 169.098954 58.286818 154.430303 68.088097 142.0752 80.4432 
C 129.720097 92.798303 119.918818 107.466954 113.232285 123.609673 
C 106.545752 139.752393 103.104 157.055246 103.104 174.528 
C 103.104 192.000754 106.545752 209.303607 113.232285 225.446327 
C 119.918818 241.589046 129.720097 256.257697 142.0752 268.6128 
C 154.430303 280.967903 169.098954 290.769182 185.241673 297.455715 
C 201.384393 304.142248 218.687246 307.584 236.16 307.584 
C 253.632754 307.584 270.935607 304.142248 287.078327 297.455715 
C 303.221046 290.769182 317.889697 280.967903 330.2448 268.6128 
C 342.599903 256.257697 352.401182 241.589046 359.087715 225.446327 
C 365.774248 209.303607 369.216 192.000754 369.216 174.528 
" style="fill: none; stroke: #000000; stroke-width: 0.8; stroke-linejoin: miter; stroke-linecap: square"/>
   </g>
  </g>
 </g>
 <defs>
  <clipPath id="pf148e167dd">
   <path d="M 369.216 174.528 
C 369.216 157.055246 365.774248 139.752393 359.087715 123.609673 
C 352.401182 107.466954 342.599903 92.798303 330.2448 80.4432 
C 317.889697 68.088097 303.221046 58.286818 287.078327 51.600285 
C 270.935607 44.913752 253.632754 41.472 236.16 41.472 
C 218.687246 41.472 201.384393 44.913752 185.241673 51.600285 
C 169.098954 58.286818 154.430303 68.088097 142.0752 80.4432 
C 129.720097 92.798303 119.918818 107.466954 113.232285 123.609673 
C 106.545752 139.752393 103.104 157.055246 103.104 174.528 
C 103.104 192.000754 106.545752 209.303607 113.232285 225.446327 
C 119.918818 241.589046 129.720097 256.257697 142.0752 268.6128 
C 154.430303 280.967903 169.098954 290.769182 185.241673 297.455715 
C 201.384393 304.142248 218.687246 307.584 236.16 307.584 
C 253.632754 307.584 270.935607 304.142248 287.078327 297.455715 
C 303.221046 290.769182 317.889697 280.967903 330.2448 268.6128 
C 342.599903 256.257697 352.401182 241.589046 359.087715 225.446327 
C 365.774248 209.303607 369.216 192.000754 369.216 174.528 
M 236.16 174.528 
C 236.16 174.528 236.16 174.528 236.16 174.528 
C 236.16 174.528 236.16 174.528 236.16 174.528 
C 236.16 174.528 236.16 174.528 236.16 174.528 
C 236.16 174.528 236.16 174.528 236.16 174.528 
C 236.16 174.528 236.16 174.528 236.16 174.528 
C 236.16 174.528 236.16 174.528 236.16 174.528 
C 236.16 174.528 236.16 174.528 236.16 174.528 
C 236.16 174.528 236.16 174.528 236.16 174.528 
C 236.16 174.528 236.16 174.528 236.16 174.528 
C 236.16 174.528 236.16 174.528 236.16 174.528 
C 236.16 174.528 236.16 174.528 236.16 174.528 
C 236.16 174.528 236.16 174.528 236.16 174.528 
C 236.16 174.528 236.16 174.528 236.16 174.528 
C 236.16 174.528 236.16 174.528 236.16 174.528 
C 236.16 174.528 236.16 174.528 236.16 174.528 
C 236.16 174.528 236.16 174.528 236.16 174.528 
z
"/>
  </clipPath>
 </defs>
</svg>
