<?xml version="1.0" encoding="utf-8" standalone="no"?>
<!DOCTYPE svg PUBLIC "-//W3C//DTD SVG 1.1//EN"
  "http://www.w3.org/Graphics/SVG/1.1/DTD/svg11.dtd">
<svg xmlns:xlink="http://www.w3.org/1999/xlink" width="460.8pt" height="345.6pt" viewBox="0 0 460.8 345.6" xmlns="http://www.w3.org/2000/svg" version="1.1">
 <metadata>
  <rdf:RDF xmlns:dc="http://purl.org/dc/elements/1.1/" xmlns:cc="http://creativecommons.org/ns#" xmlns:rdf="http://www.w3.org/1999/02/22-rdf-syntax-ns#">
   <cc:Work>
    <dc:type rdf:resource="http://purl.org/dc/dcmitype/StillImage"/>
    <dc:date>2024-06-02T22:03:01.772675</dc:date>
    <dc:format>image/svg+xml</dc:format>
    <dc:creator>
     <cc:Agent>
      <dc:title>Matplotlib v3.9.0, https://matplotlib.org/</dc:title>
     </cc:Agent>
    </dc:creator>
   </cc:Work>
  </rdf:RDF>
 </metadata>
 <defs>
  <style type="text/css">*{stroke-linejoin: round; stroke-linecap: butt}</style>
 </defs>
 <g id="figure_1">
  <g id="patch_1">
   <path d="M 0 345.6 
L 460.8 345.6 
L 460.8 0 
L 0 0 
z
" style="fill: #ffffff"/>
  </g>
  <g id="axes_1">
   <g id="patch_2">
    <path d="M 369.216 174.528 
C 369.216 157.055246 365.774248 139.752393 359.087715 123.609673 
C 352.401182 107.466954 342.599903 92.798303 330.2448 80.4432 
C 317.889697 68.088097 303.221046 58.286818 287.078327 51.600285 
C 270.935607 44.913752 253.632754 41.472 236.16 41.472 
C 218.687246 41.472 201.384393 44.913752 185.241673 51.600285 
C 169.098954 58.286818 154.430303 68.088097 142.0752 80.4432 
C 129.720097 92.798303 119.918818 107.466954 113.232285 123.609673 
C 106.545752 139.752393 103.104 157.055246 103.104 174.528 
C 103.104 192.000754 106.545752 209.303607 113.232285 225.446327 
C 119.918818 241.589046 129.720097 256.257697 142.0752 268.6128 
C 154.430303 280.967903 169.098954 290.769182 185.241673 297.455715 
C 201.384393 304.142248 218.687246 307.584 236.16 307.584 
C 253.632754 307.584 270.935607 304.142248 287.078327 297.455715 
C 303.221046 290.769182 317.889697 280.967903 330.2448 268.6128 
C 342.599903 256.257697 352.401182 241.589046 359.087715 225.446327 
C 365.774248 209.303607 369.216 192.000754 369.216 174.528 
M 236.16 174.528 
C 236.16 174.528 236.16 174.528 236.16 174.528 
C 236.16 174.528 236.16 174.528 236.16 174.528 
C 236.16 174.528 236.16 174.528 236.16 174.528 
C 236.16 174.528 236.16 174.528 236.16 174.528 
C 236.16 174.528 236.16 174.528 236.16 174.528 
C 236.16 174.528 236.16 174.528 236.16 174.528 
C 236.16 174.528 236.16 174.528 236.16 174.528 
C 236.16 174.528 236.16 174.528 236.16 174.528 
C 236.16 174.528 236.16 174.528 236.16 174.528 
C 236.16 174.528 236.16 174.528 236.16 174.528 
C 236.16 174.528 236.16 174.528 236.16 174.528 
C 236.16 174.528 236.16 174.528 236.16 174.528 
C 236.16 174.528 236.16 174.528 236.16 174.528 
C 236.16 174.528 236.16 174.528 236.16 174.528 
C 236.16 174.528 236.16 174.528 236.16 174.528 
C 236.16 174.528 236.16 174.528 236.16 174.528 
z
" style="fill: #ffffff"/>
   </g>
   <g id="PathCollection_1">
    <defs>
     <path id="C0_0_aef233acfa" d="M 0 3 
C 0.795609 3 1.55874 2.683901 2.12132 2.12132 
C 2.683901 1.55874 3 0.795609 3 -0 
C 3 -0.795609 2.683901 -1.55874 2.12132 -2.12132 
C 1.55874 -2.683901 0.795609 -3 0 -3 
C -0.795609 -3 -1.55874 -2.683901 -2.12132 -2.12132 
C -2.683901 -1.55874 -3 -0.795609 -3 0 
C -3 0.795609 -2.683901 1.55874 -2.12132 2.12132 
C -1.55874 2.683901 -0.795609 3 0 3 
z
"/>
    </defs>
    <g clip-path="url(#p4245aaf16f)">
     <use xlink:href="#C0_0_aef233acfa" x="272.870951" y="150.439398" style="fill: #aa3d28; stroke: #aa3d28"/>
    </g>
    <g clip-path="url(#p4245aaf16f)">
     <use xlink:href="#C0_0_aef233acfa" x="233.348735" y="128.043331" style="fill: #846900; stroke: #846900"/>
    </g>
    <g clip-path="url(#p4245aaf16f)">
     <use xlink:href="#C0_0_aef233acfa" x="197.730452" y="141.670538" style="fill: #188925; stroke: #188925"/>
    </g>
    <g clip-path="url(#p4245aaf16f)">
     <use xlink:href="#C0_0_aef233acfa" x="185.639961" y="172.486251" style="fill: #00936e; stroke: #00936e"/>
    </g>
    <g clip-path="url(#p4245aaf16f)">
     <use xlink:href="#C0_0_aef233acfa" x="200.52683" y="204.511409" style="fill: #007fa7; stroke: #007fa7"/>
    </g>
    <g clip-path="url(#p4245aaf16f)">
     <use xlink:href="#C0_0_aef233acfa" x="239.263445" y="215.658443" style="fill: #5954ba; stroke: #5954ba"/>
    </g>
    <g clip-path="url(#p4245aaf16f)">
     <use xlink:href="#C0_0_aef233acfa" x="268.640805" y="197.730332" style="fill: #942a9e; stroke: #942a9e"/>
    </g>
    <g clip-path="url(#p4245aaf16f)">
     <use xlink:href="#C0_0_aef233acfa" x="278.666853" y="176.987009" style="fill: #ad1b68; stroke: #ad1b68"/>
    </g>
    <g clip-path="url(#p4245aaf16f)">
     <use xlink:href="#C0_0_aef233acfa" x="244.436188" y="167.833998" style="fill: #370900; stroke: #370900"/>
    </g>
    <g clip-path="url(#p4245aaf16f)">
     <use xlink:href="#C0_0_aef233acfa" x="233.806709" y="162.786467" style="fill: #281d00; stroke: #281d00"/>
    </g>
    <g clip-path="url(#p4245aaf16f)">
     <use xlink:href="#C0_0_aef233acfa" x="226.335961" y="165.554302" style="fill: #002a00; stroke: #002a00"/>
    </g>
    <g clip-path="url(#p4245aaf16f)">
     <use xlink:href="#C0_0_aef233acfa" x="222.865361" y="173.988039" style="fill: #002d1f; stroke: #002d1f"/>
    </g>
    <g clip-path="url(#p4245aaf16f)">
     <use xlink:href="#C0_0_aef233acfa" x="226.712361" y="181.88624" style="fill: #002635; stroke: #002635"/>
    </g>
    <g clip-path="url(#p4245aaf16f)">
     <use xlink:href="#C0_0_aef233acfa" x="236.575147" y="185.164381" style="fill: #15153c; stroke: #15153c"/>
    </g>
    <g clip-path="url(#p4245aaf16f)">
     <use xlink:href="#C0_0_aef233acfa" x="244.944756" y="180.539075" style="fill: #2e0231; stroke: #2e0231"/>
    </g>
    <g clip-path="url(#p4245aaf16f)">
     <use xlink:href="#C0_0_aef233acfa" x="246.78659" y="175.144878" style="fill: #38001c; stroke: #38001c"/>
    </g>
    <g clip-path="url(#p4245aaf16f)">
     <use xlink:href="#C0_0_aef233acfa" x="246.825119" y="159.255421" style="fill: #600000; stroke: #600000"/>
    </g>
    <g clip-path="url(#p4245aaf16f)">
     <use xlink:href="#C0_0_aef233acfa" x="232.993984" y="154.822314" style="fill: #473000; stroke: #473000"/>
    </g>
    <g clip-path="url(#p4245aaf16f)">
     <use xlink:href="#C0_0_aef233acfa" x="219.947881" y="158.754291" style="fill: #004900; stroke: #004900"/>
    </g>
    <g clip-path="url(#p4245aaf16f)">
     <use xlink:href="#C0_0_aef233acfa" x="213.561187" y="173.560346" style="fill: #005036; stroke: #005036"/>
    </g>
    <g clip-path="url(#p4245aaf16f)">
     <use xlink:href="#C0_0_aef233acfa" x="220.814368" y="187.289243" style="fill: #004160; stroke: #004160"/>
    </g>
    <g clip-path="url(#p4245aaf16f)">
     <use xlink:href="#C0_0_aef233acfa" x="237.275341" y="190.455717" style="fill: #271c6e; stroke: #271c6e"/>
    </g>
    <g clip-path="url(#p4245aaf16f)">
     <use xlink:href="#C0_0_aef233acfa" x="249.547977" y="183.228473" style="fill: #510059; stroke: #510059"/>
    </g>
    <g clip-path="url(#p4245aaf16f)">
     <use xlink:href="#C0_0_aef233acfa" x="253.428608" y="175.523519" style="fill: #620031; stroke: #620031"/>
    </g>
    <g clip-path="url(#p4245aaf16f)">
     <use xlink:href="#C0_0_aef233acfa" x="285.318846" y="142.733618" style="fill: #df3e25; stroke: #df3e25"/>
    </g>
    <g clip-path="url(#p4245aaf16f)">
     <use xlink:href="#C0_0_aef233acfa" x="224.868984" y="104.9181" style="fill: #c29000; stroke: #c29000"/>
    </g>
    <g clip-path="url(#p4245aaf16f)">
     <use xlink:href="#C0_0_aef233acfa" x="185.842056" y="131.006979" style="fill: #00b023; stroke: #00b023"/>
    </g>
    <g clip-path="url(#p4245aaf16f)">
     <use xlink:href="#C0_0_aef233acfa" x="168.359564" y="171.719956" style="fill: #00bd8c; stroke: #00bd8c"/>
    </g>
    <g clip-path="url(#p4245aaf16f)">
     <use xlink:href="#C0_0_aef233acfa" x="189.95628" y="214.669765" style="fill: #00a2da; stroke: #00a2da"/>
    </g>
    <g clip-path="url(#p4245aaf16f)">
     <use xlink:href="#C0_0_aef233acfa" x="240.991841" y="227.530615" style="fill: #7164f5; stroke: #7164f5"/>
    </g>
    <g clip-path="url(#p4245aaf16f)">
     <use xlink:href="#C0_0_aef233acfa" x="279.704665" y="205.13006" style="fill: #bf20cd; stroke: #bf20cd"/>
    </g>
    <g clip-path="url(#p4245aaf16f)">
     <use xlink:href="#C0_0_aef233acfa" x="291.95121" y="177.738712" style="fill: #dc1884; stroke: #dc1884"/>
    </g>
    <g clip-path="url(#p4245aaf16f)">
     <use xlink:href="#C0_0_aef233acfa" x="317.262431" y="116.383018" style="fill: #dec2bb; stroke: #dec2bb"/>
    </g>
    <g clip-path="url(#p4245aaf16f)">
     <use xlink:href="#C0_0_aef233acfa" x="221.750323" y="75.781838" style="fill: #d0cbb5; stroke: #d0cbb5"/>
    </g>
    <g clip-path="url(#p4245aaf16f)">
     <use xlink:href="#C0_0_aef233acfa" x="151.215928" y="119.662012" style="fill: #bdd4bc; stroke: #bdd4bc"/>
    </g>
    <g clip-path="url(#p4245aaf16f)">
     <use xlink:href="#C0_0_aef233acfa" x="135.038252" y="174.933232" style="fill: #b0d6cb; stroke: #b0d6cb"/>
    </g>
    <g clip-path="url(#p4245aaf16f)">
     <use xlink:href="#C0_0_aef233acfa" x="155.549274" y="233.352775" style="fill: #b3d1d9; stroke: #b3d1d9"/>
    </g>
    <g clip-path="url(#p4245aaf16f)">
     <use xlink:href="#C0_0_aef233acfa" x="229.608397" y="272.771227" style="fill: #c4c8df; stroke: #c4c8df"/>
    </g>
    <g clip-path="url(#p4245aaf16f)">
     <use xlink:href="#C0_0_aef233acfa" x="307.086987" y="242.821614" style="fill: #d6c0d8; stroke: #d6c0d8"/>
    </g>
    <g clip-path="url(#p4245aaf16f)">
     <use xlink:href="#C0_0_aef233acfa" x="334.020005" y="185.39421" style="fill: #e0bdc9; stroke: #e0bdc9"/>
    </g>
    <g clip-path="url(#p4245aaf16f)">
     <use xlink:href="#C0_0_aef233acfa" x="197.365125" y="204.836768" style="fill: #5b777f; stroke: #5b777f"/>
    </g>
    <g clip-path="url(#p4245aaf16f)">
     <use xlink:href="#C0_0_aef233acfa" x="226.723409" y="181.900403" style="fill: #002735; stroke: #002735"/>
    </g>
    <g clip-path="url(#p4245aaf16f)">
     <use xlink:href="#C0_0_aef233acfa" x="222.529368" y="185.177027" style="fill: #003341; stroke: #003341"/>
    </g>
    <g clip-path="url(#p4245aaf16f)">
     <use xlink:href="#C0_0_aef233acfa" x="202.607675" y="200.740989" style="fill: #4d6b74; stroke: #4d6b74"/>
    </g>
    <g clip-path="url(#p4245aaf16f)">
     <use xlink:href="#C0_0_aef233acfa" x="179.482186" y="200.955576" style="fill: #7e8d8e; stroke: #7e8d8e"/>
    </g>
    <g clip-path="url(#p4245aaf16f)">
     <use xlink:href="#C0_0_aef233acfa" x="172.470582" y="201.561172" style="fill: #8a9a9b; stroke: #8a9a9b"/>
    </g>
    <g clip-path="url(#p4245aaf16f)">
     <use xlink:href="#C0_0_aef233acfa" x="236.15955" y="52.11648" style="fill: #f5eddc; stroke: #f5eddc"/>
    </g>
    <g clip-path="url(#p4245aaf16f)">
     <use xlink:href="#C0_0_aef233acfa" x="236.159526" y="45.46368" style="fill: #fff7e6; stroke: #fff7e6"/>
    </g>
    <g clip-path="url(#p4245aaf16f)">
     <use xlink:href="#C0_0_aef233acfa" x="187.520946" y="166.918386" style="fill: #727070; stroke: #727070"/>
    </g>
    <g clip-path="url(#p4245aaf16f)">
     <use xlink:href="#C0_0_aef233acfa" x="236.16" y="174.528" style="stroke: #000000"/>
    </g>
    <g clip-path="url(#p4245aaf16f)">
     <use xlink:href="#C0_0_aef233acfa" x="257.325645" y="176.81608" style="fill: #383636; stroke: #383636"/>
    </g>
    <g clip-path="url(#p4245aaf16f)">
     <use xlink:href="#C0_0_aef233acfa" x="156.850086" y="143.520668" style="fill: #b4b0b0; stroke: #b4b0b0"/>
    </g>
    <g clip-path="url(#p4245aaf16f)">
     <use xlink:href="#C0_0_aef233acfa" x="122.174264" y="243.165825" style="fill: #ffffff; stroke: #ffffff"/>
    </g>
   </g>
   <g id="matplotlib.axis_1">
    <g id="xtick_1">
     <g id="line2d_1">
      <path d="M 236.16 174.528 
L 369.216 174.528 
" clip-path="url(#p4245aaf16f)" style="fill: none; stroke: #b0b0b0; stroke-width: 0.8; stroke-linecap: square"/>
     </g>
     <g id="text_1">
      <!-- 0° -->
      <g transform="translate(377.53475 177.287375) scale(0.1 -0.1)">
       <defs>
        <path id="DejaVuSans-30" d="M 2034 4250 
Q 1547 4250 1301 3770 
Q 1056 3291 1056 2328 
Q 1056 1369 1301 889 
Q 1547 409 2034 409 
Q 2525 409 2770 889 
Q 3016 1369 3016 2328 
Q 3016 3291 2770 3770 
Q 2525 4250 2034 4250 
z
M 2034 4750 
Q 2819 4750 3233 4129 
Q 3647 3509 3647 2328 
Q 3647 1150 3233 529 
Q 2819 -91 2034 -91 
Q 1250 -91 836 529 
Q 422 1150 422 2328 
Q 422 3509 836 4129 
Q 1250 4750 2034 4750 
z
" transform="scale(0.015625)"/>
        <path id="DejaVuSans-b0" d="M 1600 4347 
Q 1350 4347 1178 4173 
Q 1006 4000 1006 3750 
Q 1006 3503 1178 3333 
Q 1350 3163 1600 3163 
Q 1850 3163 2022 3333 
Q 2194 3503 2194 3750 
Q 2194 3997 2020 4172 
Q 1847 4347 1600 4347 
z
M 1600 4750 
Q 1800 4750 1984 4673 
Q 2169 4597 2303 4453 
Q 2447 4313 2519 4134 
Q 2591 3956 2591 3750 
Q 2591 3338 2302 3052 
Q 2013 2766 1594 2766 
Q 1172 2766 890 3047 
Q 609 3328 609 3750 
Q 609 4169 896 4459 
Q 1184 4750 1600 4750 
z
" transform="scale(0.015625)"/>
       </defs>
       <use xlink:href="#DejaVuSans-30"/>
       <use xlink:href="#DejaVuSans-b0" x="63.623047"/>
      </g>
     </g>
    </g>
    <g id="xtick_2">
     <g id="line2d_2">
      <path d="M 236.16 174.528 
L 330.2448 80.4432 
" clip-path="url(#p4245aaf16f)" style="fill: none; stroke: #b0b0b0; stroke-width: 0.8; stroke-linecap: square"/>
     </g>
     <g id="text_2">
      <!-- 45° -->
      <g transform="translate(331.281795 73.30308) scale(0.1 -0.1)">
       <defs>
        <path id="DejaVuSans-34" d="M 2419 4116 
L 825 1625 
L 2419 1625 
L 2419 4116 
z
M 2253 4666 
L 3047 4666 
L 3047 1625 
L 3713 1625 
L 3713 1100 
L 3047 1100 
L 3047 0 
L 2419 0 
L 2419 1100 
L 313 1100 
L 313 1709 
L 2253 4666 
z
" transform="scale(0.015625)"/>
        <path id="DejaVuSans-35" d="M 691 4666 
L 3169 4666 
L 3169 4134 
L 1269 4134 
L 1269 2991 
Q 1406 3038 1543 3061 
Q 1681 3084 1819 3084 
Q 2600 3084 3056 2656 
Q 3513 2228 3513 1497 
Q 3513 744 3044 326 
Q 2575 -91 1722 -91 
Q 1428 -91 1123 -41 
Q 819 9 494 109 
L 494 744 
Q 775 591 1075 516 
Q 1375 441 1709 441 
Q 2250 441 2565 725 
Q 2881 1009 2881 1497 
Q 2881 1984 2565 2268 
Q 2250 2553 1709 2553 
Q 1456 2553 1204 2497 
Q 953 2441 691 2322 
L 691 4666 
z
" transform="scale(0.015625)"/>
       </defs>
       <use xlink:href="#DejaVuSans-34"/>
       <use xlink:href="#DejaVuSans-35" x="63.623047"/>
       <use xlink:href="#DejaVuSans-b0" x="127.246094"/>
      </g>
     </g>
    </g>
    <g id="xtick_3">
     <g id="line2d_3">
      <path d="M 236.16 174.528 
L 236.16 41.472 
" clip-path="url(#p4245aaf16f)" style="fill: none; stroke: #b0b0b0; stroke-width: 0.8; stroke-linecap: square"/>
     </g>
     <g id="text_3">
      <!-- 90° -->
      <g transform="translate(227.2975 30.231375) scale(0.1 -0.1)">
       <defs>
        <path id="DejaVuSans-39" d="M 703 97 
L 703 672 
Q 941 559 1184 500 
Q 1428 441 1663 441 
Q 2288 441 2617 861 
Q 2947 1281 2994 2138 
Q 2813 1869 2534 1725 
Q 2256 1581 1919 1581 
Q 1219 1581 811 2004 
Q 403 2428 403 3163 
Q 403 3881 828 4315 
Q 1253 4750 1959 4750 
Q 2769 4750 3195 4129 
Q 3622 3509 3622 2328 
Q 3622 1225 3098 567 
Q 2575 -91 1691 -91 
Q 1453 -91 1209 -44 
Q 966 3 703 97 
z
M 1959 2075 
Q 2384 2075 2632 2365 
Q 2881 2656 2881 3163 
Q 2881 3666 2632 3958 
Q 2384 4250 1959 4250 
Q 1534 4250 1286 3958 
Q 1038 3666 1038 3163 
Q 1038 2656 1286 2365 
Q 1534 2075 1959 2075 
z
" transform="scale(0.015625)"/>
       </defs>
       <use xlink:href="#DejaVuSans-39"/>
       <use xlink:href="#DejaVuSans-30" x="63.623047"/>
       <use xlink:href="#DejaVuSans-b0" x="127.246094"/>
      </g>
     </g>
    </g>
    <g id="xtick_4">
     <g id="line2d_4">
      <path d="M 236.16 174.528 
L 142.0752 80.4432 
" clip-path="url(#p4245aaf16f)" style="fill: none; stroke: #b0b0b0; stroke-width: 0.8; stroke-linecap: square"/>
     </g>
     <g id="text_4">
      <!-- 135° -->
      <g transform="translate(120.131955 73.30308) scale(0.1 -0.1)">
       <defs>
        <path id="DejaVuSans-31" d="M 794 531 
L 1825 531 
L 1825 4091 
L 703 3866 
L 703 4441 
L 1819 4666 
L 2450 4666 
L 2450 531 
L 3481 531 
L 3481 0 
L 794 0 
L 794 531 
z
" transform="scale(0.015625)"/>
        <path id="DejaVuSans-33" d="M 2597 2516 
Q 3050 2419 3304 2112 
Q 3559 1806 3559 1356 
Q 3559 666 3084 287 
Q 2609 -91 1734 -91 
Q 1441 -91 1130 -33 
Q 819 25 488 141 
L 488 750 
Q 750 597 1062 519 
Q 1375 441 1716 441 
Q 2309 441 2620 675 
Q 2931 909 2931 1356 
Q 2931 1769 2642 2001 
Q 2353 2234 1838 2234 
L 1294 2234 
L 1294 2753 
L 1863 2753 
Q 2328 2753 2575 2939 
Q 2822 3125 2822 3475 
Q 2822 3834 2567 4026 
Q 2313 4219 1838 4219 
Q 1578 4219 1281 4162 
Q 984 4106 628 3988 
L 628 4550 
Q 988 4650 1302 4700 
Q 1616 4750 1894 4750 
Q 2613 4750 3031 4423 
Q 3450 4097 3450 3541 
Q 3450 3153 3228 2886 
Q 3006 2619 2597 2516 
z
" transform="scale(0.015625)"/>
       </defs>
       <use xlink:href="#DejaVuSans-31"/>
       <use xlink:href="#DejaVuSans-33" x="63.623047"/>
       <use xlink:href="#DejaVuSans-35" x="127.246094"/>
       <use xlink:href="#DejaVuSans-b0" x="190.869141"/>
      </g>
     </g>
    </g>
    <g id="xtick_5">
     <g id="line2d_5">
      <path d="M 236.16 174.528 
L 103.104 174.528 
" clip-path="url(#p4245aaf16f)" style="fill: none; stroke: #b0b0b0; stroke-width: 0.8; stroke-linecap: square"/>
     </g>
     <g id="text_5">
      <!-- 180° -->
      <g transform="translate(77.06025 177.287375) scale(0.1 -0.1)">
       <defs>
        <path id="DejaVuSans-38" d="M 2034 2216 
Q 1584 2216 1326 1975 
Q 1069 1734 1069 1313 
Q 1069 891 1326 650 
Q 1584 409 2034 409 
Q 2484 409 2743 651 
Q 3003 894 3003 1313 
Q 3003 1734 2745 1975 
Q 2488 2216 2034 2216 
z
M 1403 2484 
Q 997 2584 770 2862 
Q 544 3141 544 3541 
Q 544 4100 942 4425 
Q 1341 4750 2034 4750 
Q 2731 4750 3128 4425 
Q 3525 4100 3525 3541 
Q 3525 3141 3298 2862 
Q 3072 2584 2669 2484 
Q 3125 2378 3379 2068 
Q 3634 1759 3634 1313 
Q 3634 634 3220 271 
Q 2806 -91 2034 -91 
Q 1263 -91 848 271 
Q 434 634 434 1313 
Q 434 1759 690 2068 
Q 947 2378 1403 2484 
z
M 1172 3481 
Q 1172 3119 1398 2916 
Q 1625 2713 2034 2713 
Q 2441 2713 2670 2916 
Q 2900 3119 2900 3481 
Q 2900 3844 2670 4047 
Q 2441 4250 2034 4250 
Q 1625 4250 1398 4047 
Q 1172 3844 1172 3481 
z
" transform="scale(0.015625)"/>
       </defs>
       <use xlink:href="#DejaVuSans-31"/>
       <use xlink:href="#DejaVuSans-38" x="63.623047"/>
       <use xlink:href="#DejaVuSans-30" x="127.246094"/>
       <use xlink:href="#DejaVuSans-b0" x="190.869141"/>
      </g>
     </g>
    </g>
    <g id="xtick_6">
     <g id="line2d_6">
      <path d="M 236.16 174.528 
L 142.0752 268.6128 
" clip-path="url(#p4245aaf16f)" style="fill: none; stroke: #b0b0b0; stroke-width: 0.8; stroke-linecap: square"/>
     </g>
     <g id="text_6">
      <!-- 225° -->
      <g transform="translate(120.131955 281.27167) scale(0.1 -0.1)">
       <defs>
        <path id="DejaVuSans-32" d="M 1228 531 
L 3431 531 
L 3431 0 
L 469 0 
L 469 531 
Q 828 903 1448 1529 
Q 2069 2156 2228 2338 
Q 2531 2678 2651 2914 
Q 2772 3150 2772 3378 
Q 2772 3750 2511 3984 
Q 2250 4219 1831 4219 
Q 1534 4219 1204 4116 
Q 875 4013 500 3803 
L 500 4441 
Q 881 4594 1212 4672 
Q 1544 4750 1819 4750 
Q 2544 4750 2975 4387 
Q 3406 4025 3406 3419 
Q 3406 3131 3298 2873 
Q 3191 2616 2906 2266 
Q 2828 2175 2409 1742 
Q 1991 1309 1228 531 
z
" transform="scale(0.015625)"/>
       </defs>
       <use xlink:href="#DejaVuSans-32"/>
       <use xlink:href="#DejaVuSans-32" x="63.623047"/>
       <use xlink:href="#DejaVuSans-35" x="127.246094"/>
       <use xlink:href="#DejaVuSans-b0" x="190.869141"/>
      </g>
     </g>
    </g>
    <g id="xtick_7">
     <g id="line2d_7">
      <path d="M 236.16 174.528 
L 236.16 307.584 
" clip-path="url(#p4245aaf16f)" style="fill: none; stroke: #b0b0b0; stroke-width: 0.8; stroke-linecap: square"/>
     </g>
     <g id="text_7">
      <!-- 270° -->
      <g transform="translate(224.11625 324.343375) scale(0.1 -0.1)">
       <defs>
        <path id="DejaVuSans-37" d="M 525 4666 
L 3525 4666 
L 3525 4397 
L 1831 0 
L 1172 0 
L 2766 4134 
L 525 4134 
L 525 4666 
z
" transform="scale(0.015625)"/>
       </defs>
       <use xlink:href="#DejaVuSans-32"/>
       <use xlink:href="#DejaVuSans-37" x="63.623047"/>
       <use xlink:href="#DejaVuSans-30" x="127.246094"/>
       <use xlink:href="#DejaVuSans-b0" x="190.869141"/>
      </g>
     </g>
    </g>
    <g id="xtick_8">
     <g id="line2d_8">
      <path d="M 236.16 174.528 
L 330.2448 268.6128 
" clip-path="url(#p4245aaf16f)" style="fill: none; stroke: #b0b0b0; stroke-width: 0.8; stroke-linecap: square"/>
     </g>
     <g id="text_8">
      <!-- 315° -->
      <g transform="translate(328.100545 281.27167) scale(0.1 -0.1)">
       <use xlink:href="#DejaVuSans-33"/>
       <use xlink:href="#DejaVuSans-31" x="63.623047"/>
       <use xlink:href="#DejaVuSans-35" x="127.246094"/>
       <use xlink:href="#DejaVuSans-b0" x="190.869141"/>
      </g>
     </g>
    </g>
   </g>
   <g id="matplotlib.axis_2">
    <g id="ytick_1">
     <g id="line2d_9">
      <path d="M 262.7712 174.528 
C 262.7712 171.033449 262.08285 167.572879 260.745543 164.344335 
C 259.408236 161.115791 257.447981 158.182061 254.97696 155.71104 
C 252.505939 153.240019 249.572209 151.279764 246.343665 149.942457 
C 243.115121 148.60515 239.654551 147.9168 236.16 147.9168 
C 232.665449 147.9168 229.204879 148.60515 225.976335 149.942457 
C 222.747791 151.279764 219.814061 153.240019 217.34304 155.71104 
C 214.872019 158.182061 212.911764 161.115791 211.574457 164.344335 
C 210.23715 167.572879 209.5488 171.033449 209.5488 174.528 
C 209.5488 178.022551 210.23715 181.483121 211.574457 184.711665 
C 212.911764 187.940209 214.872019 190.873939 217.34304 193.34496 
C 219.814061 195.815981 222.747791 197.776236 225.976335 199.113543 
C 229.204879 200.45085 232.665449 201.1392 236.16 201.1392 
C 239.654551 201.1392 243.115121 200.45085 246.343665 199.113543 
C 249.572209 197.776236 252.505939 195.815981 254.97696 193.34496 
C 257.447981 190.873939 259.408236 187.940209 260.745543 184.711665 
C 262.08285 181.483121 262.7712 178.022551 262.7712 174.528 
" clip-path="url(#p4245aaf16f)" style="fill: none; stroke: #b0b0b0; stroke-width: 0.8; stroke-linecap: square"/>
     </g>
     <g id="text_9">
      <!-- 20 -->
      <g transform="translate(260.745543 162.264647) scale(0.1 -0.1)">
       <use xlink:href="#DejaVuSans-32"/>
       <use xlink:href="#DejaVuSans-30" x="63.623047"/>
      </g>
     </g>
    </g>
    <g id="ytick_2">
     <g id="line2d_10">
      <path d="M 289.3824 174.528 
C 289.3824 167.538898 288.005699 160.617757 285.331086 154.160669 
C 282.656473 147.703581 278.735961 141.836121 273.79392 136.89408 
C 268.851879 131.952039 262.984419 128.031527 256.527331 125.356914 
C 250.070243 122.682301 243.149102 121.3056 236.16 121.3056 
C 229.170898 121.3056 222.249757 122.682301 215.792669 125.356914 
C 209.335581 128.031527 203.468121 131.952039 198.52608 136.89408 
C 193.584039 141.836121 189.663527 147.703581 186.988914 154.160669 
C 184.314301 160.617757 182.9376 167.538898 182.9376 174.528 
C 182.9376 181.517102 184.314301 188.438243 186.988914 194.895331 
C 189.663527 201.352419 193.584039 207.219879 198.52608 212.16192 
C 203.468121 217.103961 209.335581 221.024473 215.792669 223.699086 
C 222.249757 226.373699 229.170898 227.7504 236.16 227.7504 
C 243.149102 227.7504 250.070243 226.373699 256.527331 223.699086 
C 262.984419 221.024473 268.851879 217.103961 273.79392 212.16192 
C 278.735961 207.219879 282.656473 201.352419 285.331086 194.895331 
C 288.005699 188.438243 289.3824 181.517102 289.3824 174.528 
" clip-path="url(#p4245aaf16f)" style="fill: none; stroke: #b0b0b0; stroke-width: 0.8; stroke-linecap: square"/>
     </g>
     <g id="text_10">
      <!-- 40 -->
      <g transform="translate(285.331086 152.080982) scale(0.1 -0.1)">
       <use xlink:href="#DejaVuSans-34"/>
       <use xlink:href="#DejaVuSans-30" x="63.623047"/>
      </g>
     </g>
    </g>
    <g id="ytick_3">
     <g id="line2d_11">
      <path d="M 315.9936 174.528 
C 315.9936 164.044348 313.928549 153.662636 309.916629 143.977004 
C 305.904709 134.291372 300.023942 125.490182 292.61088 118.07712 
C 285.197818 110.664058 276.396628 104.783291 266.710996 100.771371 
C 257.025364 96.759451 246.643652 94.6944 236.16 94.6944 
C 225.676348 94.6944 215.294636 96.759451 205.609004 100.771371 
C 195.923372 104.783291 187.122182 110.664058 179.70912 118.07712 
C 172.296058 125.490182 166.415291 134.291372 162.403371 143.977004 
C 158.391451 153.662636 156.3264 164.044348 156.3264 174.528 
C 156.3264 185.011652 158.391451 195.393364 162.403371 205.078996 
C 166.415291 214.764628 172.296058 223.565818 179.70912 230.97888 
C 187.122182 238.391942 195.923372 244.272709 205.609004 248.284629 
C 215.294636 252.296549 225.676348 254.3616 236.16 254.3616 
C 246.643652 254.3616 257.025364 252.296549 266.710996 248.284629 
C 276.396628 244.272709 285.197818 238.391942 292.61088 230.97888 
C 300.023942 223.565818 305.904709 214.764628 309.916629 205.078996 
C 313.928549 195.393364 315.9936 185.011652 315.9936 174.528 
" clip-path="url(#p4245aaf16f)" style="fill: none; stroke: #b0b0b0; stroke-width: 0.8; stroke-linecap: square"/>
     </g>
     <g id="text_11">
      <!-- 60 -->
      <g transform="translate(309.916629 141.897316) scale(0.1 -0.1)">
       <defs>
        <path id="DejaVuSans-36" d="M 2113 2584 
Q 1688 2584 1439 2293 
Q 1191 2003 1191 1497 
Q 1191 994 1439 701 
Q 1688 409 2113 409 
Q 2538 409 2786 701 
Q 3034 994 3034 1497 
Q 3034 2003 2786 2293 
Q 2538 2584 2113 2584 
z
M 3366 4563 
L 3366 3988 
Q 3128 4100 2886 4159 
Q 2644 4219 2406 4219 
Q 1781 4219 1451 3797 
Q 1122 3375 1075 2522 
Q 1259 2794 1537 2939 
Q 1816 3084 2150 3084 
Q 2853 3084 3261 2657 
Q 3669 2231 3669 1497 
Q 3669 778 3244 343 
Q 2819 -91 2113 -91 
Q 1303 -91 875 529 
Q 447 1150 447 2328 
Q 447 3434 972 4092 
Q 1497 4750 2381 4750 
Q 2619 4750 2861 4703 
Q 3103 4656 3366 4563 
z
" transform="scale(0.015625)"/>
       </defs>
       <use xlink:href="#DejaVuSans-36"/>
       <use xlink:href="#DejaVuSans-30" x="63.623047"/>
      </g>
     </g>
    </g>
    <g id="ytick_4">
     <g id="line2d_12">
      <path d="M 342.6048 174.528 
C 342.6048 160.549797 339.851399 146.707514 334.502172 133.793339 
C 329.152945 120.879163 321.311922 109.144242 311.42784 99.26016 
C 301.543758 89.376078 289.808837 81.535055 276.894661 76.185828 
C 263.980486 70.836601 250.138203 68.0832 236.16 68.0832 
C 222.181797 68.0832 208.339514 70.836601 195.425339 76.185828 
C 182.511163 81.535055 170.776242 89.376078 160.89216 99.26016 
C 151.008078 109.144242 143.167055 120.879163 137.817828 133.793339 
C 132.468601 146.707514 129.7152 160.549797 129.7152 174.528 
C 129.7152 188.506203 132.468601 202.348486 137.817828 215.262661 
C 143.167055 228.176837 151.008078 239.911758 160.89216 249.79584 
C 170.776242 259.679922 182.511163 267.520945 195.425339 272.870172 
C 208.339514 278.219399 222.181797 280.9728 236.16 280.9728 
C 250.138203 280.9728 263.980486 278.219399 276.894661 272.870172 
C 289.808837 267.520945 301.543758 259.679922 311.42784 249.79584 
C 321.311922 239.911758 329.152945 228.176837 334.502172 215.262661 
C 339.851399 202.348486 342.6048 188.506203 342.6048 174.528 
" clip-path="url(#p4245aaf16f)" style="fill: none; stroke: #b0b0b0; stroke-width: 0.8; stroke-linecap: square"/>
     </g>
     <g id="text_12">
      <!-- 80 -->
      <g transform="translate(334.502172 131.713651) scale(0.1 -0.1)">
       <use xlink:href="#DejaVuSans-38"/>
       <use xlink:href="#DejaVuSans-30" x="63.623047"/>
      </g>
     </g>
    </g>
    <g id="ytick_5">
     <g id="line2d_13">
      <path d="M 369.216 174.528 
C 369.216 157.055246 365.774248 139.752393 359.087715 123.609673 
C 352.401182 107.466954 342.599903 92.798303 330.2448 80.4432 
C 317.889697 68.088097 303.221046 58.286818 287.078327 51.600285 
C 270.935607 44.913752 253.632754 41.472 236.16 41.472 
C 218.687246 41.472 201.384393 44.913752 185.241673 51.600285 
C 169.098954 58.286818 154.430303 68.088097 142.0752 80.4432 
C 129.720097 92.798303 119.918818 107.466954 113.232285 123.609673 
C 106.545752 139.752393 103.104 157.055246 103.104 174.528 
C 103.104 192.000754 106.545752 209.303607 113.232285 225.446327 
C 119.918818 241.589046 129.720097 256.257697 142.0752 268.6128 
C 154.430303 280.967903 169.098954 290.769182 185.241673 297.455715 
C 201.384393 304.142248 218.687246 307.584 236.16 307.584 
C 253.632754 307.584 270.935607 304.142248 287.078327 297.455715 
C 303.221046 290.769182 317.889697 280.967903 330.2448 268.6128 
C 342.599903 256.257697 352.401182 241.589046 359.087715 225.446327 
C 365.774248 209.303607 369.216 192.000754 369.216 174.528 
" clip-path="url(#p4245aaf16f)" style="fill: none; stroke: #b0b0b0; stroke-width: 0.8; stroke-linecap: square"/>
     </g>
     <g id="text_13">
      <!-- 100 -->
      <g transform="translate(359.087715 121.529986) scale(0.1 -0.1)">
       <use xlink:href="#DejaVuSans-31"/>
       <use xlink:href="#DejaVuSans-30" x="63.623047"/>
       <use xlink:href="#DejaVuSans-30" x="127.246094"/>
      </g>
     </g>
    </g>
   </g>
   <g id="patch_3">
    <path d="M 369.216 174.528 
C 369.216 157.055246 365.774248 139.752393 359.087715 123.609673 
C 352.401182 107.466954 342.599903 92.798303 330.2448 80.4432 
C 317.889697 68.088097 303.221046 58.286818 287.078327 51.600285 
C 270.935607 44.913752 253.632754 41.472 236.16 41.472 
C 218.687246 41.472 201.384393 44.913752 185.241673 51.600285 
C 169.098954 58.286818 154.430303 68.088097 142.0752 80.4432 
C 129.720097 92.798303 119.918818 107.466954 113.232285 123.609673 
C 106.545752 139.752393 103.104 157.055246 103.104 174.528 
C 103.104 192.000754 106.545752 209.303607 113.232285 225.446327 
C 119.918818 241.589046 129.720097 256.257697 142.0752 268.6128 
C 154.430303 280.967903 169.098954 290.769182 185.241673 297.455715 
C 201.384393 304.142248 218.687246 307.584 236.16 307.584 
C 253.632754 307.584 270.935607 304.142248 287.078327 297.455715 
C 303.221046 290.769182 317.889697 280.967903 330.2448 268.6128 
C 342.599903 256.257697 352.401182 241.589046 359.087715 225.446327 
C 365.774248 209.303607 369.216 192.000754 369.216 174.528 
" style="fill: none; stroke: #000000; stroke-width: 0.8; stroke-linejoin: miter; stroke-linecap: square"/>
   </g>
  </g>
 </g>
 <defs>
  <clipPath id="p4245aaf16f">
   <path d="M 369.216 174.528 
C 369.216 157.055246 365.774248 139.752393 359.087715 123.609673 
C 352.401182 107.466954 342.599903 92.798303 330.2448 80.4432 
C 317.889697 68.088097 303.221046 58.286818 287.078327 51.600285 
C 270.935607 44.913752 253.632754 41.472 236.16 41.472 
C 218.687246 41.472 201.384393 44.913752 185.241673 51.600285 
C 169.098954 58.286818 154.430303 68.088097 142.0752 80.4432 
C 129.720097 92.798303 119.918818 107.466954 113.232285 123.609673 
C 106.545752 139.752393 103.104 157.055246 103.104 174.528 
C 103.104 192.000754 106.545752 209.303607 113.232285 225.446327 
C 119.918818 241.589046 129.720097 256.257697 142.0752 268.6128 
C 154.430303 280.967903 169.098954 290.769182 185.241673 297.455715 
C 201.384393 304.142248 218.687246 307.584 236.16 307.584 
C 253.632754 307.584 270.935607 304.142248 287.078327 297.455715 
C 303.221046 290.769182 317.889697 280.967903 330.2448 268.6128 
C 342.599903 256.257697 352.401182 241.589046 359.087715 225.446327 
C 365.774248 209.303607 369.216 192.000754 369.216 174.528 
M 236.16 174.528 
C 236.16 174.528 236.16 174.528 236.16 174.528 
C 236.16 174.528 236.16 174.528 236.16 174.528 
C 236.16 174.528 236.16 174.528 236.16 174.528 
C 236.16 174.528 236.16 174.528 236.16 174.528 
C 236.16 174.528 236.16 174.528 236.16 174.528 
C 236.16 174.528 236.16 174.528 236.16 174.528 
C 236.16 174.528 236.16 174.528 236.16 174.528 
C 236.16 174.528 236.16 174.528 236.16 174.528 
C 236.16 174.528 236.16 174.528 236.16 174.528 
C 236.16 174.528 236.16 174.528 236.16 174.528 
C 236.16 174.528 236.16 174.528 236.16 174.528 
C 236.16 174.528 236.16 174.528 236.16 174.528 
C 236.16 174.528 236.16 174.528 236.16 174.528 
C 236.16 174.528 236.16 174.528 236.16 174.528 
C 236.16 174.528 236.16 174.528 236.16 174.528 
C 236.16 174.528 236.16 174.528 236.16 174.528 
z
"/>
  </clipPath>
 </defs>
</svg>
