<?xml version="1.0" encoding="utf-8" standalone="no"?>
<!DOCTYPE svg PUBLIC "-//W3C//DTD SVG 1.1//EN"
  "http://www.w3.org/Graphics/SVG/1.1/DTD/svg11.dtd">
<svg xmlns:xlink="http://www.w3.org/1999/xlink" width="460.8pt" height="345.6pt" viewBox="0 0 460.8 345.6" xmlns="http://www.w3.org/2000/svg" version="1.1">
 <metadata>
  <rdf:RDF xmlns:dc="http://purl.org/dc/elements/1.1/" xmlns:cc="http://creativecommons.org/ns#" xmlns:rdf="http://www.w3.org/1999/02/22-rdf-syntax-ns#">
   <cc:Work>
    <dc:type rdf:resource="http://purl.org/dc/dcmitype/StillImage"/>
    <dc:date>2024-06-02T22:03:00.759834</dc:date>
    <dc:format>image/svg+xml</dc:format>
    <dc:creator>
     <cc:Agent>
      <dc:title>Matplotlib v3.9.0, https://matplotlib.org/</dc:title>
     </cc:Agent>
    </dc:creator>
   </cc:Work>
  </rdf:RDF>
 </metadata>
 <defs>
  <style type="text/css">*{stroke-linejoin: round; stroke-linecap: butt}</style>
 </defs>
 <g id="figure_1">
  <g id="patch_1">
   <path d="M 0 345.6 
L 460.8 345.6 
L 460.8 0 
L 0 0 
z
" style="fill: #ffffff"/>
  </g>
  <g id="patch_2">
   <path d="M 103.104 307.584 
L 369.216 307.584 
L 369.216 41.472 
L 103.104 41.472 
z
" style="fill: #ffffff"/>
  </g>
  <g id="pane3d_1">
   <g id="patch_3">
    <path d="M 123.197291 241.969309 
L 211.076164 168.307495 
L 209.854564 62.073991 
L 117.770234 129.272941 
" style="fill: #f2f2f2; opacity: 0.5; stroke: #f2f2f2; stroke-linejoin: miter"/>
   </g>
  </g>
  <g id="pane3d_2">
   <g id="patch_4">
    <path d="M 211.076164 168.307495 
L 352.090401 209.294766 
L 357.122702 99.402171 
L 209.854564 62.073991 
" style="fill: #e6e6e6; opacity: 0.5; stroke: #e6e6e6; stroke-linejoin: miter"/>
   </g>
  </g>
  <g id="pane3d_3">
   <g id="patch_5">
    <path d="M 123.197291 241.969309 
L 272.679269 290.790123 
L 352.090401 209.294766 
L 211.076164 168.307495 
" style="fill: #ececec; opacity: 0.5; stroke: #ececec; stroke-linejoin: miter"/>
   </g>
  </g>
  <g id="grid3d_1">
   <g id="Line3DCollection_1">
    <path d="M 123.197291 241.969309 
L 211.076164 168.307495 
L 209.854564 62.073991 
" style="fill: none; stroke: #b0b0b0; stroke-width: 0.8"/>
    <path d="M 151.852268 251.328024 
L 238.204516 176.192636 
L 238.13777 69.242959 
" style="fill: none; stroke: #b0b0b0; stroke-width: 0.8"/>
    <path d="M 181.108421 260.883084 
L 265.854616 184.229428 
L 266.988571 76.555796 
" style="fill: none; stroke: #b0b0b0; stroke-width: 0.8"/>
    <path d="M 210.984869 270.640732 
L 294.041663 192.42229 
L 296.424225 84.016876 
" style="fill: none; stroke: #b0b0b0; stroke-width: 0.8"/>
    <path d="M 241.501551 280.60748 
L 322.781451 200.775812 
L 326.462699 91.630754 
" style="fill: none; stroke: #b0b0b0; stroke-width: 0.8"/>
    <path d="M 272.679269 290.790123 
L 352.090401 209.294766 
L 357.122702 99.402171 
" style="fill: none; stroke: #b0b0b0; stroke-width: 0.8"/>
   </g>
  </g>
  <g id="grid3d_2">
   <g id="Line3DCollection_2">
    <path d="M 127.743298 121.995053 
L 132.682711 234.018442 
L 281.28452 281.959018 
" style="fill: none; stroke: #b0b0b0; stroke-width: 0.8"/>
    <path d="M 147.147347 107.834862 
L 151.160319 218.530145 
L 298.023988 264.780206 
" style="fill: none; stroke: #b0b0b0; stroke-width: 0.8"/>
    <path d="M 165.860779 94.178651 
L 169.008295 203.569617 
L 314.163547 248.217048 
" style="fill: none; stroke: #b0b0b0; stroke-width: 0.8"/>
    <path d="M 183.91982 80.999986 
L 186.258282 189.110336 
L 329.734877 232.237033 
" style="fill: none; stroke: #b0b0b0; stroke-width: 0.8"/>
    <path d="M 201.358204 68.274247 
L 202.939839 175.127524 
L 344.767469 216.809895 
" style="fill: none; stroke: #b0b0b0; stroke-width: 0.8"/>
   </g>
  </g>
  <g id="grid3d_3">
   <g id="Line3DCollection_3">
    <path d="M 352.574128 198.731398 
L 210.958514 158.076353 
L 122.676413 231.152928 
" style="fill: none; stroke: #b0b0b0; stroke-width: 0.8"/>
    <path d="M 353.554189 177.329368 
L 210.720295 137.360168 
L 121.620563 209.227534 
" style="fill: none; stroke: #b0b0b0; stroke-width: 0.8"/>
    <path d="M 354.551427 155.552235 
L 210.478101 116.298387 
L 120.545497 186.903085 
" style="fill: none; stroke: #b0b0b0; stroke-width: 0.8"/>
    <path d="M 355.566298 133.390053 
L 210.231833 94.882289 
L 119.450684 164.168588 
" style="fill: none; stroke: #b0b0b0; stroke-width: 0.8"/>
    <path d="M 356.599273 110.832517 
L 209.981387 73.102858 
L 118.335576 141.012639 
" style="fill: none; stroke: #b0b0b0; stroke-width: 0.8"/>
   </g>
  </g>
  <g id="axis3d_1">
   <g id="line2d_1">
    <path d="M 123.197291 241.969309 
L 272.679269 290.790123 
" style="fill: none; stroke: #000000; stroke-width: 0.8; stroke-linecap: square"/>
   </g>
   <g id="xtick_1">
    <g id="line2d_2">
     <path d="M 123.962332 241.328036 
L 121.663937 243.254597 
" style="fill: none; stroke: #000000; stroke-width: 0.8; stroke-linecap: square"/>
    </g>
    <g id="text_1">
     <!-- 0 -->
     <g transform="translate(112.478153 265.215952) scale(0.1 -0.1)">
      <defs>
       <path id="DejaVuSans-30" d="M 2034 4250 
Q 1547 4250 1301 3770 
Q 1056 3291 1056 2328 
Q 1056 1369 1301 889 
Q 1547 409 2034 409 
Q 2525 409 2770 889 
Q 3016 1369 3016 2328 
Q 3016 3291 2770 3770 
Q 2525 4250 2034 4250 
z
M 2034 4750 
Q 2819 4750 3233 4129 
Q 3647 3509 3647 2328 
Q 3647 1150 3233 529 
Q 2819 -91 2034 -91 
Q 1250 -91 836 529 
Q 422 1150 422 2328 
Q 422 3509 836 4129 
Q 1250 4750 2034 4750 
z
" transform="scale(0.015625)"/>
      </defs>
      <use xlink:href="#DejaVuSans-30"/>
     </g>
    </g>
   </g>
   <g id="xtick_2">
    <g id="line2d_3">
     <path d="M 152.604651 250.673373 
L 150.344251 252.640155 
" style="fill: none; stroke: #000000; stroke-width: 0.8; stroke-linecap: square"/>
    </g>
    <g id="text_2">
     <!-- 20 -->
     <g transform="translate(137.980611 274.772756) scale(0.1 -0.1)">
      <defs>
       <path id="DejaVuSans-32" d="M 1228 531 
L 3431 531 
L 3431 0 
L 469 0 
L 469 531 
Q 828 903 1448 1529 
Q 2069 2156 2228 2338 
Q 2531 2678 2651 2914 
Q 2772 3150 2772 3378 
Q 2772 3750 2511 3984 
Q 2250 4219 1831 4219 
Q 1534 4219 1204 4116 
Q 875 4013 500 3803 
L 500 4441 
Q 881 4594 1212 4672 
Q 1544 4750 1819 4750 
Q 2544 4750 2975 4387 
Q 3406 4025 3406 3419 
Q 3406 3131 3298 2873 
Q 3191 2616 2906 2266 
Q 2828 2175 2409 1742 
Q 1991 1309 1228 531 
z
" transform="scale(0.015625)"/>
      </defs>
      <use xlink:href="#DejaVuSans-32"/>
      <use xlink:href="#DejaVuSans-30" x="63.623047"/>
     </g>
    </g>
   </g>
   <g id="xtick_3">
    <g id="line2d_4">
     <path d="M 181.847444 260.214631 
L 179.627148 262.222908 
" style="fill: none; stroke: #000000; stroke-width: 0.8; stroke-linecap: square"/>
    </g>
    <g id="text_3">
     <!-- 40 -->
     <g transform="translate(167.268374 284.530818) scale(0.1 -0.1)">
      <defs>
       <path id="DejaVuSans-34" d="M 2419 4116 
L 825 1625 
L 2419 1625 
L 2419 4116 
z
M 2253 4666 
L 3047 4666 
L 3047 1625 
L 3713 1625 
L 3713 1100 
L 3047 1100 
L 3047 0 
L 2419 0 
L 2419 1100 
L 313 1100 
L 313 1709 
L 2253 4666 
z
" transform="scale(0.015625)"/>
      </defs>
      <use xlink:href="#DejaVuSans-34"/>
      <use xlink:href="#DejaVuSans-30" x="63.623047"/>
     </g>
    </g>
   </g>
   <g id="xtick_4">
    <g id="line2d_5">
     <path d="M 211.709793 269.958037 
L 209.531821 272.009134 
" style="fill: none; stroke: #000000; stroke-width: 0.8; stroke-linecap: square"/>
    </g>
    <g id="text_4">
     <!-- 60 -->
     <g transform="translate(197.179476 294.496563) scale(0.1 -0.1)">
      <defs>
       <path id="DejaVuSans-36" d="M 2113 2584 
Q 1688 2584 1439 2293 
Q 1191 2003 1191 1497 
Q 1191 994 1439 701 
Q 1688 409 2113 409 
Q 2538 409 2786 701 
Q 3034 994 3034 1497 
Q 3034 2003 2786 2293 
Q 2538 2584 2113 2584 
z
M 3366 4563 
L 3366 3988 
Q 3128 4100 2886 4159 
Q 2644 4219 2406 4219 
Q 1781 4219 1451 3797 
Q 1122 3375 1075 2522 
Q 1259 2794 1537 2939 
Q 1816 3084 2150 3084 
Q 2853 3084 3261 2657 
Q 3669 2231 3669 1497 
Q 3669 778 3244 343 
Q 2819 -91 2113 -91 
Q 1303 -91 875 529 
Q 447 1150 447 2328 
Q 447 3434 972 4092 
Q 1497 4750 2381 4750 
Q 2619 4750 2861 4703 
Q 3103 4656 3366 4563 
z
" transform="scale(0.015625)"/>
      </defs>
      <use xlink:href="#DejaVuSans-36"/>
      <use xlink:href="#DejaVuSans-30" x="63.623047"/>
     </g>
    </g>
   </g>
   <g id="xtick_5">
    <g id="line2d_6">
     <path d="M 242.2116 279.910082 
L 240.078285 282.005386 
" style="fill: none; stroke: #000000; stroke-width: 0.8; stroke-linecap: square"/>
    </g>
    <g id="text_5">
     <!-- 80 -->
     <g transform="translate(227.734032 304.676694) scale(0.1 -0.1)">
      <defs>
       <path id="DejaVuSans-38" d="M 2034 2216 
Q 1584 2216 1326 1975 
Q 1069 1734 1069 1313 
Q 1069 891 1326 650 
Q 1584 409 2034 409 
Q 2484 409 2743 651 
Q 3003 894 3003 1313 
Q 3003 1734 2745 1975 
Q 2488 2216 2034 2216 
z
M 1403 2484 
Q 997 2584 770 2862 
Q 544 3141 544 3541 
Q 544 4100 942 4425 
Q 1341 4750 2034 4750 
Q 2731 4750 3128 4425 
Q 3525 4100 3525 3541 
Q 3525 3141 3298 2862 
Q 3072 2584 2669 2484 
Q 3125 2378 3379 2068 
Q 3634 1759 3634 1313 
Q 3634 634 3220 271 
Q 2806 -91 2034 -91 
Q 1263 -91 848 271 
Q 434 634 434 1313 
Q 434 1759 690 2068 
Q 947 2378 1403 2484 
z
M 1172 3481 
Q 1172 3119 1398 2916 
Q 1625 2713 2034 2713 
Q 2441 2713 2670 2916 
Q 2900 3119 2900 3481 
Q 2900 3844 2670 4047 
Q 2441 4250 2034 4250 
Q 1625 4250 1398 4047 
Q 1172 3844 1172 3481 
z
" transform="scale(0.015625)"/>
      </defs>
      <use xlink:href="#DejaVuSans-38"/>
      <use xlink:href="#DejaVuSans-30" x="63.623047"/>
     </g>
    </g>
   </g>
   <g id="xtick_6">
    <g id="line2d_7">
     <path d="M 273.373625 290.077542 
L 271.287426 292.218496 
" style="fill: none; stroke: #000000; stroke-width: 0.8; stroke-linecap: square"/>
    </g>
    <g id="text_6">
     <!-- 100 -->
     <g transform="translate(255.771781 315.078203) scale(0.1 -0.1)">
      <defs>
       <path id="DejaVuSans-31" d="M 794 531 
L 1825 531 
L 1825 4091 
L 703 3866 
L 703 4441 
L 1819 4666 
L 2450 4666 
L 2450 531 
L 3481 531 
L 3481 0 
L 794 0 
L 794 531 
z
" transform="scale(0.015625)"/>
      </defs>
      <use xlink:href="#DejaVuSans-31"/>
      <use xlink:href="#DejaVuSans-30" x="63.623047"/>
      <use xlink:href="#DejaVuSans-30" x="127.246094"/>
     </g>
    </g>
   </g>
  </g>
  <g id="axis3d_2">
   <g id="line2d_8">
    <path d="M 352.090401 209.294766 
L 272.679269 290.790123 
" style="fill: none; stroke: #000000; stroke-width: 0.8; stroke-linecap: square"/>
   </g>
   <g id="xtick_7">
    <g id="line2d_9">
     <path d="M 280.032462 281.555091 
L 283.791862 282.767914 
" style="fill: none; stroke: #000000; stroke-width: 0.8; stroke-linecap: square"/>
    </g>
    <g id="text_7">
     <!-- −40 -->
     <g transform="translate(283.571115 302.933458) scale(0.1 -0.1)">
      <defs>
       <path id="DejaVuSans-2212" d="M 678 2272 
L 4684 2272 
L 4684 1741 
L 678 1741 
L 678 2272 
z
" transform="scale(0.015625)"/>
      </defs>
      <use xlink:href="#DejaVuSans-2212"/>
      <use xlink:href="#DejaVuSans-34" x="83.789062"/>
      <use xlink:href="#DejaVuSans-30" x="147.412109"/>
     </g>
    </g>
   </g>
   <g id="xtick_8">
    <g id="line2d_10">
     <path d="M 296.787715 264.390881 
L 300.499662 265.559841 
" style="fill: none; stroke: #000000; stroke-width: 0.8; stroke-linecap: square"/>
    </g>
    <g id="text_8">
     <!-- −20 -->
     <g transform="translate(300.085994 285.50038) scale(0.1 -0.1)">
      <use xlink:href="#DejaVuSans-2212"/>
      <use xlink:href="#DejaVuSans-32" x="83.789062"/>
      <use xlink:href="#DejaVuSans-30" x="147.412109"/>
     </g>
    </g>
   </g>
   <g id="xtick_9">
    <g id="line2d_11">
     <path d="M 312.942742 247.841548 
L 316.608191 248.968982 
" style="fill: none; stroke: #000000; stroke-width: 0.8; stroke-linecap: square"/>
    </g>
    <g id="text_9">
     <!-- 0 -->
     <g transform="translate(323.379766 268.692429) scale(0.1 -0.1)">
      <use xlink:href="#DejaVuSans-30"/>
     </g>
    </g>
   </g>
   <g id="xtick_10">
    <g id="line2d_12">
     <path d="M 328.529226 231.874634 
L 332.149123 232.962715 
" style="fill: none; stroke: #000000; stroke-width: 0.8; stroke-linecap: square"/>
    </g>
    <g id="text_10">
     <!-- 20 -->
     <g transform="translate(335.560284 252.476572) scale(0.1 -0.1)">
      <use xlink:href="#DejaVuSans-32"/>
      <use xlink:href="#DejaVuSans-30" x="63.623047"/>
     </g>
    </g>
   </g>
   <g id="xtick_11">
    <g id="line2d_13">
     <path d="M 343.576663 216.459924 
L 347.151938 217.510678 
" style="fill: none; stroke: #000000; stroke-width: 0.8; stroke-linecap: square"/>
    </g>
    <g id="text_11">
     <!-- 40 -->
     <g transform="translate(350.390269 236.822066) scale(0.1 -0.1)">
      <use xlink:href="#DejaVuSans-34"/>
      <use xlink:href="#DejaVuSans-30" x="63.623047"/>
     </g>
    </g>
   </g>
  </g>
  <g id="axis3d_3">
   <g id="line2d_14">
    <path d="M 352.090401 209.294766 
L 357.122702 99.402171 
" style="fill: none; stroke: #000000; stroke-width: 0.8; stroke-linecap: square"/>
   </g>
   <g id="xtick_12">
    <g id="line2d_15">
     <path d="M 351.385343 198.390122 
L 354.954536 199.414767 
" style="fill: none; stroke: #000000; stroke-width: 0.8; stroke-linecap: square"/>
    </g>
    <g id="text_12">
     <!-- −40 -->
     <g transform="translate(360.347311 203.745462) scale(0.1 -0.1)">
      <use xlink:href="#DejaVuSans-2212"/>
      <use xlink:href="#DejaVuSans-34" x="83.789062"/>
      <use xlink:href="#DejaVuSans-30" x="147.412109"/>
     </g>
    </g>
   </g>
   <g id="xtick_13">
    <g id="line2d_16">
     <path d="M 352.354688 176.993712 
L 355.95608 178.001489 
" style="fill: none; stroke: #000000; stroke-width: 0.8; stroke-linecap: square"/>
    </g>
    <g id="text_13">
     <!-- −20 -->
     <g transform="translate(361.483108 182.38605) scale(0.1 -0.1)">
      <use xlink:href="#DejaVuSans-2212"/>
      <use xlink:href="#DejaVuSans-32" x="83.789062"/>
      <use xlink:href="#DejaVuSans-30" x="147.412109"/>
     </g>
    </g>
   </g>
   <g id="xtick_14">
    <g id="line2d_17">
     <path d="M 353.341016 155.22245 
L 356.975191 156.212608 
" style="fill: none; stroke: #000000; stroke-width: 0.8; stroke-linecap: square"/>
    </g>
    <g id="text_14">
     <!-- 0 -->
     <g transform="translate(370.009844 160.653431) scale(0.1 -0.1)">
      <use xlink:href="#DejaVuSans-30"/>
     </g>
    </g>
   </g>
   <g id="xtick_15">
    <g id="line2d_18">
     <path d="M 354.344776 133.066399 
L 358.012337 134.038155 
" style="fill: none; stroke: #000000; stroke-width: 0.8; stroke-linecap: square"/>
    </g>
    <g id="text_15">
     <!-- 20 -->
     <g transform="translate(368.004606 138.537736) scale(0.1 -0.1)">
      <use xlink:href="#DejaVuSans-32"/>
      <use xlink:href="#DejaVuSans-30" x="63.623047"/>
     </g>
    </g>
   </g>
   <g id="xtick_16">
    <g id="line2d_19">
     <path d="M 355.366435 110.515267 
L 359.067999 111.467803 
" style="fill: none; stroke: #000000; stroke-width: 0.8; stroke-linecap: square"/>
    </g>
    <g id="text_16">
     <!-- 40 -->
     <g transform="translate(369.201532 116.028748) scale(0.1 -0.1)">
      <use xlink:href="#DejaVuSans-34"/>
      <use xlink:href="#DejaVuSans-30" x="63.623047"/>
     </g>
    </g>
   </g>
  </g>
  <g id="axes_1">
   <g id="Path3DCollection_1">
    <defs>
     <path id="C0_0_ad683f335a" d="M 0 2.236068 
C 0.593012 2.236068 1.161816 2.000462 1.581139 1.581139 
C 2.000462 1.161816 2.236068 0.593012 2.236068 -0 
C 2.236068 -0.593012 2.000462 -1.161816 1.581139 -1.581139 
C 1.161816 -2.000462 0.593012 -2.236068 0 -2.236068 
C -0.593012 -2.236068 -1.161816 -2.000462 -1.581139 -1.581139 
C -2.000462 -1.161816 -2.236068 -0.593012 -2.236068 0 
C -2.236068 0.593012 -2.000462 1.161816 -1.581139 1.581139 
C -1.161816 2.000462 -0.593012 2.236068 0 2.236068 
z
"/>
    </defs>
    <g clip-path="url(#p8b938a8dc0)">
     <use xlink:href="#C0_0_ad683f335a" x="225.052128" y="137.589235" style="fill: #620031; stroke: #620031"/>
    </g>
    <g clip-path="url(#p8b938a8dc0)">
     <use xlink:href="#C0_0_ad683f335a" x="216.079369" y="157.925607" style="fill: #510059; stroke: #510059"/>
    </g>
    <g clip-path="url(#p8b938a8dc0)">
     <use xlink:href="#C0_0_ad683f335a" x="204.69123" y="141.364" style="fill: #38001c; stroke: #38001c"/>
    </g>
    <g clip-path="url(#p8b938a8dc0)">
     <use xlink:href="#C0_0_ad683f335a" x="199.221216" y="155.691453" style="fill: #2e0231; stroke: #2e0231"/>
    </g>
    <g clip-path="url(#p8b938a8dc0)">
     <use xlink:href="#C0_0_ad683f335a" x="268.525202" y="173.229765" style="fill: #bf20cd; stroke: #bf20cd"/>
    </g>
    <g clip-path="url(#p8b938a8dc0)">
     <use xlink:href="#C0_0_ad683f335a" x="250.169879" y="169.184051" style="fill: #942a9e; stroke: #942a9e"/>
    </g>
    <g clip-path="url(#p8b938a8dc0)">
     <use xlink:href="#C0_0_ad683f335a" x="258.783377" y="146.692616" style="fill: #ad1b68; stroke: #ad1b68"/>
    </g>
    <g clip-path="url(#p8b938a8dc0)">
     <use xlink:href="#C0_0_ad683f335a" x="278.437388" y="148.165397" style="fill: #dc1884; stroke: #dc1884"/>
    </g>
    <g clip-path="url(#p8b938a8dc0)">
     <use xlink:href="#C0_0_ad683f335a" x="197.16664" y="183.955238" style="fill: #271c6e; stroke: #271c6e"/>
    </g>
    <g clip-path="url(#p8b938a8dc0)">
     <use xlink:href="#C0_0_ad683f335a" x="186.297943" y="173.41831" style="fill: #15153c; stroke: #15153c"/>
    </g>
    <g clip-path="url(#p8b938a8dc0)">
     <use xlink:href="#C0_0_ad683f335a" x="199.980274" y="130.97759" style="fill: #370900; stroke: #370900"/>
    </g>
    <g clip-path="url(#p8b938a8dc0)">
     <use xlink:href="#C0_0_ad683f335a" x="167.468783" y="150.064339" style="stroke: #000000"/>
    </g>
    <g clip-path="url(#p8b938a8dc0)">
     <use xlink:href="#C0_0_ad683f335a" x="217.066416" y="108.871209" style="fill: #600000; stroke: #600000"/>
    </g>
    <g clip-path="url(#p8b938a8dc0)">
     <use xlink:href="#C0_0_ad683f335a" x="231.587285" y="197.774865" style="fill: #5954ba; stroke: #5954ba"/>
    </g>
    <g clip-path="url(#p8b938a8dc0)">
     <use xlink:href="#C0_0_ad683f335a" x="254.536979" y="133.409938" style="fill: #aa3d28; stroke: #aa3d28"/>
    </g>
    <g clip-path="url(#p8b938a8dc0)">
     <use xlink:href="#C0_0_ad683f335a" x="246.807427" y="206.869593" style="fill: #7164f5; stroke: #7164f5"/>
    </g>
    <g clip-path="url(#p8b938a8dc0)">
     <use xlink:href="#C0_0_ad683f335a" x="276.141739" y="128.77723" style="fill: #df3e25; stroke: #df3e25"/>
    </g>
    <g clip-path="url(#p8b938a8dc0)">
     <use xlink:href="#C0_0_ad683f335a" x="203.152578" y="160.365363" style="fill: #383636; stroke: #383636"/>
    </g>
    <g clip-path="url(#p8b938a8dc0)">
     <use xlink:href="#C0_0_ad683f335a" x="176.707865" y="178.081793" style="fill: #002735; stroke: #002735"/>
    </g>
    <g clip-path="url(#p8b938a8dc0)">
     <use xlink:href="#C0_0_ad683f335a" x="174.721259" y="179.215848" style="fill: #002635; stroke: #002635"/>
    </g>
    <g clip-path="url(#p8b938a8dc0)">
     <use xlink:href="#C0_0_ad683f335a" x="183.903123" y="180.223708" style="fill: #003341; stroke: #003341"/>
    </g>
    <g clip-path="url(#p8b938a8dc0)">
     <use xlink:href="#C0_0_ad683f335a" x="182.659804" y="193.369302" style="fill: #004160; stroke: #004160"/>
    </g>
    <g clip-path="url(#p8b938a8dc0)">
     <use xlink:href="#C0_0_ad683f335a" x="239.756108" y="170.931892" style="fill: #727070; stroke: #727070"/>
    </g>
    <g clip-path="url(#p8b938a8dc0)">
     <use xlink:href="#C0_0_ad683f335a" x="171.644548" y="170.036554" style="fill: #002d1f; stroke: #002d1f"/>
    </g>
    <g clip-path="url(#p8b938a8dc0)">
     <use xlink:href="#C0_0_ad683f335a" x="175.310129" y="151.907722" style="fill: #002a00; stroke: #002a00"/>
    </g>
    <g clip-path="url(#p8b938a8dc0)">
     <use xlink:href="#C0_0_ad683f335a" x="181.151251" y="123.806044" style="fill: #281d00; stroke: #281d00"/>
    </g>
    <g clip-path="url(#p8b938a8dc0)">
     <use xlink:href="#C0_0_ad683f335a" x="223.863004" y="184.693231" style="fill: #4d6b74; stroke: #4d6b74"/>
    </g>
    <g clip-path="url(#p8b938a8dc0)">
     <use xlink:href="#C0_0_ad683f335a" x="231.617747" y="186.239703" style="fill: #5b777f; stroke: #5b777f"/>
    </g>
    <g clip-path="url(#p8b938a8dc0)">
     <use xlink:href="#C0_0_ad683f335a" x="295.08805" y="187.522524" style="fill: #d6c0d8; stroke: #d6c0d8"/>
    </g>
    <g clip-path="url(#p8b938a8dc0)">
     <use xlink:href="#C0_0_ad683f335a" x="297.03583" y="179.270311" style="fill: #e0bdc9; stroke: #e0bdc9"/>
    </g>
    <g clip-path="url(#p8b938a8dc0)">
     <use xlink:href="#C0_0_ad683f335a" x="248.855498" y="183.905925" style="fill: #7e8d8e; stroke: #7e8d8e"/>
    </g>
    <g clip-path="url(#p8b938a8dc0)">
     <use xlink:href="#C0_0_ad683f335a" x="215.96061" y="208.690273" style="fill: #007fa7; stroke: #007fa7"/>
    </g>
    <g clip-path="url(#p8b938a8dc0)">
     <use xlink:href="#C0_0_ad683f335a" x="256.298362" y="185.920842" style="fill: #8a9a9b; stroke: #8a9a9b"/>
    </g>
    <g clip-path="url(#p8b938a8dc0)">
     <use xlink:href="#C0_0_ad683f335a" x="193.983572" y="114.630307" style="fill: #473000; stroke: #473000"/>
    </g>
    <g clip-path="url(#p8b938a8dc0)">
     <use xlink:href="#C0_0_ad683f335a" x="288.800738" y="197.922485" style="fill: #c4c8df; stroke: #c4c8df"/>
    </g>
    <g clip-path="url(#p8b938a8dc0)">
     <use xlink:href="#C0_0_ad683f335a" x="277.315395" y="181.774324" style="fill: #b4b0b0; stroke: #b4b0b0"/>
    </g>
    <g clip-path="url(#p8b938a8dc0)">
     <use xlink:href="#C0_0_ad683f335a" x="179.528382" y="180.35411" style="fill: #005036; stroke: #005036"/>
    </g>
    <g clip-path="url(#p8b938a8dc0)">
     <use xlink:href="#C0_0_ad683f335a" x="294.99101" y="176.322995" style="fill: #dec2bb; stroke: #dec2bb"/>
    </g>
    <g clip-path="url(#p8b938a8dc0)">
     <use xlink:href="#C0_0_ad683f335a" x="235.672044" y="138.242326" style="fill: #846900; stroke: #846900"/>
    </g>
    <g clip-path="url(#p8b938a8dc0)">
     <use xlink:href="#C0_0_ad683f335a" x="183.460056" y="152.509599" style="fill: #004900; stroke: #004900"/>
    </g>
    <g clip-path="url(#p8b938a8dc0)">
     <use xlink:href="#C0_0_ad683f335a" x="230.184428" y="220.622326" style="fill: #00a2da; stroke: #00a2da"/>
    </g>
    <g clip-path="url(#p8b938a8dc0)">
     <use xlink:href="#C0_0_ad683f335a" x="290.360971" y="178.86918" style="fill: #d0cbb5; stroke: #d0cbb5"/>
    </g>
    <g clip-path="url(#p8b938a8dc0)">
     <use xlink:href="#C0_0_ad683f335a" x="282.410542" y="201.124454" style="fill: #b3d1d9; stroke: #b3d1d9"/>
    </g>
    <g clip-path="url(#p8b938a8dc0)">
     <use xlink:href="#C0_0_ad683f335a" x="308.232871" y="184.993034" style="fill: #f5eddc; stroke: #f5eddc"/>
    </g>
    <g clip-path="url(#p8b938a8dc0)">
     <use xlink:href="#C0_0_ad683f335a" x="314.277224" y="195.703229" style="fill: #ffffff; stroke: #ffffff"/>
    </g>
    <g clip-path="url(#p8b938a8dc0)">
     <use xlink:href="#C0_0_ad683f335a" x="312.914077" y="186.335312" style="fill: #fff7e6; stroke: #fff7e6"/>
    </g>
    <g clip-path="url(#p8b938a8dc0)">
     <use xlink:href="#C0_0_ad683f335a" x="284.580171" y="186.259235" style="fill: #bdd4bc; stroke: #bdd4bc"/>
    </g>
    <g clip-path="url(#p8b938a8dc0)">
     <use xlink:href="#C0_0_ad683f335a" x="281.143841" y="195.531328" style="fill: #b0d6cb; stroke: #b0d6cb"/>
    </g>
    <g clip-path="url(#p8b938a8dc0)">
     <use xlink:href="#C0_0_ad683f335a" x="213.261713" y="193.907809" style="fill: #00936e; stroke: #00936e"/>
    </g>
    <g clip-path="url(#p8b938a8dc0)">
     <use xlink:href="#C0_0_ad683f335a" x="220.064513" y="166.16526" style="fill: #188925; stroke: #188925"/>
    </g>
    <g clip-path="url(#p8b938a8dc0)">
     <use xlink:href="#C0_0_ad683f335a" x="255.138926" y="127.101635" style="fill: #c29000; stroke: #c29000"/>
    </g>
    <g clip-path="url(#p8b938a8dc0)">
     <use xlink:href="#C0_0_ad683f335a" x="228.056741" y="203.465391" style="fill: #00bd8c; stroke: #00bd8c"/>
    </g>
    <g clip-path="url(#p8b938a8dc0)">
     <use xlink:href="#C0_0_ad683f335a" x="235.648787" y="170.512533" style="fill: #00b023; stroke: #00b023"/>
    </g>
   </g>
  </g>
 </g>
 <defs>
  <clipPath id="p8b938a8dc0">
   <rect x="103.104" y="41.472" width="266.112" height="266.112"/>
  </clipPath>
 </defs>
</svg>
