<?xml version="1.0" encoding="utf-8" standalone="no"?>
<!DOCTYPE svg PUBLIC "-//W3C//DTD SVG 1.1//EN"
  "http://www.w3.org/Graphics/SVG/1.1/DTD/svg11.dtd">
<svg xmlns:xlink="http://www.w3.org/1999/xlink" width="460.8pt" height="345.6pt" viewBox="0 0 460.8 345.6" xmlns="http://www.w3.org/2000/svg" version="1.1">
 <metadata>
  <rdf:RDF xmlns:dc="http://purl.org/dc/elements/1.1/" xmlns:cc="http://creativecommons.org/ns#" xmlns:rdf="http://www.w3.org/1999/02/22-rdf-syntax-ns#">
   <cc:Work>
    <dc:type rdf:resource="http://purl.org/dc/dcmitype/StillImage"/>
    <dc:date>2024-06-03T01:03:21.056923</dc:date>
    <dc:format>image/svg+xml</dc:format>
    <dc:creator>
     <cc:Agent>
      <dc:title>Matplotlib v3.9.0, https://matplotlib.org/</dc:title>
     </cc:Agent>
    </dc:creator>
   </cc:Work>
  </rdf:RDF>
 </metadata>
 <defs>
  <style type="text/css">*{stroke-linejoin: round; stroke-linecap: butt}</style>
 </defs>
 <g id="figure_1">
  <g id="patch_1">
   <path d="M 0 345.6 
L 460.8 345.6 
L 460.8 0 
L 0 0 
z
" style="fill: #ffffff"/>
  </g>
  <g id="patch_2">
   <path d="M 103.104 307.584 
L 369.216 307.584 
L 369.216 41.472 
L 103.104 41.472 
z
" style="fill: #ffffff"/>
  </g>
  <g id="pane3d_1">
   <g id="patch_3">
    <path d="M 123.197291 241.969309 
L 211.076164 168.307495 
L 209.854564 62.073991 
L 117.770234 129.272941 
" style="fill: #f2f2f2; opacity: 0.5; stroke: #f2f2f2; stroke-linejoin: miter"/>
   </g>
  </g>
  <g id="pane3d_2">
   <g id="patch_4">
    <path d="M 211.076164 168.307495 
L 352.090401 209.294766 
L 357.122702 99.402171 
L 209.854564 62.073991 
" style="fill: #e6e6e6; opacity: 0.5; stroke: #e6e6e6; stroke-linejoin: miter"/>
   </g>
  </g>
  <g id="pane3d_3">
   <g id="patch_5">
    <path d="M 123.197291 241.969309 
L 272.679269 290.790123 
L 352.090401 209.294766 
L 211.076164 168.307495 
" style="fill: #ececec; opacity: 0.5; stroke: #ececec; stroke-linejoin: miter"/>
   </g>
  </g>
  <g id="grid3d_1">
   <g id="Line3DCollection_1">
    <path d="M 123.197291 241.969309 
L 211.076164 168.307495 
L 209.854564 62.073991 
" style="fill: none; stroke: #b0b0b0; stroke-width: 0.8"/>
    <path d="M 151.852268 251.328024 
L 238.204516 176.192636 
L 238.13777 69.242959 
" style="fill: none; stroke: #b0b0b0; stroke-width: 0.8"/>
    <path d="M 181.108421 260.883084 
L 265.854616 184.229428 
L 266.988571 76.555796 
" style="fill: none; stroke: #b0b0b0; stroke-width: 0.8"/>
    <path d="M 210.984869 270.640732 
L 294.041663 192.42229 
L 296.424225 84.016876 
" style="fill: none; stroke: #b0b0b0; stroke-width: 0.8"/>
    <path d="M 241.501551 280.60748 
L 322.781451 200.775812 
L 326.462699 91.630754 
" style="fill: none; stroke: #b0b0b0; stroke-width: 0.8"/>
    <path d="M 272.679269 290.790123 
L 352.090401 209.294766 
L 357.122702 99.402171 
" style="fill: none; stroke: #b0b0b0; stroke-width: 0.8"/>
   </g>
  </g>
  <g id="grid3d_2">
   <g id="Line3DCollection_2">
    <path d="M 127.743298 121.995053 
L 132.682711 234.018442 
L 281.28452 281.959018 
" style="fill: none; stroke: #b0b0b0; stroke-width: 0.8"/>
    <path d="M 147.147347 107.834862 
L 151.160319 218.530145 
L 298.023988 264.780206 
" style="fill: none; stroke: #b0b0b0; stroke-width: 0.8"/>
    <path d="M 165.860779 94.178651 
L 169.008295 203.569617 
L 314.163547 248.217048 
" style="fill: none; stroke: #b0b0b0; stroke-width: 0.8"/>
    <path d="M 183.91982 80.999986 
L 186.258282 189.110336 
L 329.734877 232.237033 
" style="fill: none; stroke: #b0b0b0; stroke-width: 0.8"/>
    <path d="M 201.358204 68.274247 
L 202.939839 175.127524 
L 344.767469 216.809895 
" style="fill: none; stroke: #b0b0b0; stroke-width: 0.8"/>
   </g>
  </g>
  <g id="grid3d_3">
   <g id="Line3DCollection_3">
    <path d="M 352.574128 198.731398 
L 210.958514 158.076353 
L 122.676413 231.152928 
" style="fill: none; stroke: #b0b0b0; stroke-width: 0.8"/>
    <path d="M 353.554189 177.329368 
L 210.720295 137.360168 
L 121.620563 209.227534 
" style="fill: none; stroke: #b0b0b0; stroke-width: 0.8"/>
    <path d="M 354.551427 155.552235 
L 210.478101 116.298387 
L 120.545497 186.903085 
" style="fill: none; stroke: #b0b0b0; stroke-width: 0.8"/>
    <path d="M 355.566298 133.390053 
L 210.231833 94.882289 
L 119.450684 164.168588 
" style="fill: none; stroke: #b0b0b0; stroke-width: 0.8"/>
    <path d="M 356.599273 110.832517 
L 209.981387 73.102858 
L 118.335576 141.012639 
" style="fill: none; stroke: #b0b0b0; stroke-width: 0.8"/>
   </g>
  </g>
  <g id="axis3d_1">
   <g id="line2d_1">
    <path d="M 123.197291 241.969309 
L 272.679269 290.790123 
" style="fill: none; stroke: #000000; stroke-width: 0.8; stroke-linecap: square"/>
   </g>
   <g id="xtick_1">
    <g id="line2d_2">
     <path d="M 123.962332 241.328036 
L 121.663937 243.254597 
" style="fill: none; stroke: #000000; stroke-width: 0.8; stroke-linecap: square"/>
    </g>
    <g id="text_1">
     <!-- 0 -->
     <g transform="translate(112.478153 265.215952) scale(0.1 -0.1)">
      <defs>
       <path id="DejaVuSans-30" d="M 2034 4250 
Q 1547 4250 1301 3770 
Q 1056 3291 1056 2328 
Q 1056 1369 1301 889 
Q 1547 409 2034 409 
Q 2525 409 2770 889 
Q 3016 1369 3016 2328 
Q 3016 3291 2770 3770 
Q 2525 4250 2034 4250 
z
M 2034 4750 
Q 2819 4750 3233 4129 
Q 3647 3509 3647 2328 
Q 3647 1150 3233 529 
Q 2819 -91 2034 -91 
Q 1250 -91 836 529 
Q 422 1150 422 2328 
Q 422 3509 836 4129 
Q 1250 4750 2034 4750 
z
" transform="scale(0.015625)"/>
      </defs>
      <use xlink:href="#DejaVuSans-30"/>
     </g>
    </g>
   </g>
   <g id="xtick_2">
    <g id="line2d_3">
     <path d="M 152.604651 250.673373 
L 150.344251 252.640155 
" style="fill: none; stroke: #000000; stroke-width: 0.8; stroke-linecap: square"/>
    </g>
    <g id="text_2">
     <!-- 20 -->
     <g transform="translate(137.980611 274.772756) scale(0.1 -0.1)">
      <defs>
       <path id="DejaVuSans-32" d="M 1228 531 
L 3431 531 
L 3431 0 
L 469 0 
L 469 531 
Q 828 903 1448 1529 
Q 2069 2156 2228 2338 
Q 2531 2678 2651 2914 
Q 2772 3150 2772 3378 
Q 2772 3750 2511 3984 
Q 2250 4219 1831 4219 
Q 1534 4219 1204 4116 
Q 875 4013 500 3803 
L 500 4441 
Q 881 4594 1212 4672 
Q 1544 4750 1819 4750 
Q 2544 4750 2975 4387 
Q 3406 4025 3406 3419 
Q 3406 3131 3298 2873 
Q 3191 2616 2906 2266 
Q 2828 2175 2409 1742 
Q 1991 1309 1228 531 
z
" transform="scale(0.015625)"/>
      </defs>
      <use xlink:href="#DejaVuSans-32"/>
      <use xlink:href="#DejaVuSans-30" x="63.623047"/>
     </g>
    </g>
   </g>
   <g id="xtick_3">
    <g id="line2d_4">
     <path d="M 181.847444 260.214631 
L 179.627148 262.222908 
" style="fill: none; stroke: #000000; stroke-width: 0.8; stroke-linecap: square"/>
    </g>
    <g id="text_3">
     <!-- 40 -->
     <g transform="translate(167.268374 284.530818) scale(0.1 -0.1)">
      <defs>
       <path id="DejaVuSans-34" d="M 2419 4116 
L 825 1625 
L 2419 1625 
L 2419 4116 
z
M 2253 4666 
L 3047 4666 
L 3047 1625 
L 3713 1625 
L 3713 1100 
L 3047 1100 
L 3047 0 
L 2419 0 
L 2419 1100 
L 313 1100 
L 313 1709 
L 2253 4666 
z
" transform="scale(0.015625)"/>
      </defs>
      <use xlink:href="#DejaVuSans-34"/>
      <use xlink:href="#DejaVuSans-30" x="63.623047"/>
     </g>
    </g>
   </g>
   <g id="xtick_4">
    <g id="line2d_5">
     <path d="M 211.709793 269.958037 
L 209.531821 272.009134 
" style="fill: none; stroke: #000000; stroke-width: 0.8; stroke-linecap: square"/>
    </g>
    <g id="text_4">
     <!-- 60 -->
     <g transform="translate(197.179476 294.496563) scale(0.1 -0.1)">
      <defs>
       <path id="DejaVuSans-36" d="M 2113 2584 
Q 1688 2584 1439 2293 
Q 1191 2003 1191 1497 
Q 1191 994 1439 701 
Q 1688 409 2113 409 
Q 2538 409 2786 701 
Q 3034 994 3034 1497 
Q 3034 2003 2786 2293 
Q 2538 2584 2113 2584 
z
M 3366 4563 
L 3366 3988 
Q 3128 4100 2886 4159 
Q 2644 4219 2406 4219 
Q 1781 4219 1451 3797 
Q 1122 3375 1075 2522 
Q 1259 2794 1537 2939 
Q 1816 3084 2150 3084 
Q 2853 3084 3261 2657 
Q 3669 2231 3669 1497 
Q 3669 778 3244 343 
Q 2819 -91 2113 -91 
Q 1303 -91 875 529 
Q 447 1150 447 2328 
Q 447 3434 972 4092 
Q 1497 4750 2381 4750 
Q 2619 4750 2861 4703 
Q 3103 4656 3366 4563 
z
" transform="scale(0.015625)"/>
      </defs>
      <use xlink:href="#DejaVuSans-36"/>
      <use xlink:href="#DejaVuSans-30" x="63.623047"/>
     </g>
    </g>
   </g>
   <g id="xtick_5">
    <g id="line2d_6">
     <path d="M 242.2116 279.910082 
L 240.078285 282.005386 
" style="fill: none; stroke: #000000; stroke-width: 0.8; stroke-linecap: square"/>
    </g>
    <g id="text_5">
     <!-- 80 -->
     <g transform="translate(227.734032 304.676694) scale(0.1 -0.1)">
      <defs>
       <path id="DejaVuSans-38" d="M 2034 2216 
Q 1584 2216 1326 1975 
Q 1069 1734 1069 1313 
Q 1069 891 1326 650 
Q 1584 409 2034 409 
Q 2484 409 2743 651 
Q 3003 894 3003 1313 
Q 3003 1734 2745 1975 
Q 2488 2216 2034 2216 
z
M 1403 2484 
Q 997 2584 770 2862 
Q 544 3141 544 3541 
Q 544 4100 942 4425 
Q 1341 4750 2034 4750 
Q 2731 4750 3128 4425 
Q 3525 4100 3525 3541 
Q 3525 3141 3298 2862 
Q 3072 2584 2669 2484 
Q 3125 2378 3379 2068 
Q 3634 1759 3634 1313 
Q 3634 634 3220 271 
Q 2806 -91 2034 -91 
Q 1263 -91 848 271 
Q 434 634 434 1313 
Q 434 1759 690 2068 
Q 947 2378 1403 2484 
z
M 1172 3481 
Q 1172 3119 1398 2916 
Q 1625 2713 2034 2713 
Q 2441 2713 2670 2916 
Q 2900 3119 2900 3481 
Q 2900 3844 2670 4047 
Q 2441 4250 2034 4250 
Q 1625 4250 1398 4047 
Q 1172 3844 1172 3481 
z
" transform="scale(0.015625)"/>
      </defs>
      <use xlink:href="#DejaVuSans-38"/>
      <use xlink:href="#DejaVuSans-30" x="63.623047"/>
     </g>
    </g>
   </g>
   <g id="xtick_6">
    <g id="line2d_7">
     <path d="M 273.373625 290.077542 
L 271.287426 292.218496 
" style="fill: none; stroke: #000000; stroke-width: 0.8; stroke-linecap: square"/>
    </g>
    <g id="text_6">
     <!-- 100 -->
     <g transform="translate(255.771781 315.078203) scale(0.1 -0.1)">
      <defs>
       <path id="DejaVuSans-31" d="M 794 531 
L 1825 531 
L 1825 4091 
L 703 3866 
L 703 4441 
L 1819 4666 
L 2450 4666 
L 2450 531 
L 3481 531 
L 3481 0 
L 794 0 
L 794 531 
z
" transform="scale(0.015625)"/>
      </defs>
      <use xlink:href="#DejaVuSans-31"/>
      <use xlink:href="#DejaVuSans-30" x="63.623047"/>
      <use xlink:href="#DejaVuSans-30" x="127.246094"/>
     </g>
    </g>
   </g>
  </g>
  <g id="axis3d_2">
   <g id="line2d_8">
    <path d="M 352.090401 209.294766 
L 272.679269 290.790123 
" style="fill: none; stroke: #000000; stroke-width: 0.8; stroke-linecap: square"/>
   </g>
   <g id="xtick_7">
    <g id="line2d_9">
     <path d="M 280.032462 281.555091 
L 283.791862 282.767914 
" style="fill: none; stroke: #000000; stroke-width: 0.8; stroke-linecap: square"/>
    </g>
    <g id="text_7">
     <!-- −40 -->
     <g transform="translate(283.571115 302.933458) scale(0.1 -0.1)">
      <defs>
       <path id="DejaVuSans-2212" d="M 678 2272 
L 4684 2272 
L 4684 1741 
L 678 1741 
L 678 2272 
z
" transform="scale(0.015625)"/>
      </defs>
      <use xlink:href="#DejaVuSans-2212"/>
      <use xlink:href="#DejaVuSans-34" x="83.789062"/>
      <use xlink:href="#DejaVuSans-30" x="147.412109"/>
     </g>
    </g>
   </g>
   <g id="xtick_8">
    <g id="line2d_10">
     <path d="M 296.787715 264.390881 
L 300.499662 265.559841 
" style="fill: none; stroke: #000000; stroke-width: 0.8; stroke-linecap: square"/>
    </g>
    <g id="text_8">
     <!-- −20 -->
     <g transform="translate(300.085994 285.50038) scale(0.1 -0.1)">
      <use xlink:href="#DejaVuSans-2212"/>
      <use xlink:href="#DejaVuSans-32" x="83.789062"/>
      <use xlink:href="#DejaVuSans-30" x="147.412109"/>
     </g>
    </g>
   </g>
   <g id="xtick_9">
    <g id="line2d_11">
     <path d="M 312.942742 247.841548 
L 316.608191 248.968982 
" style="fill: none; stroke: #000000; stroke-width: 0.8; stroke-linecap: square"/>
    </g>
    <g id="text_9">
     <!-- 0 -->
     <g transform="translate(323.379766 268.692429) scale(0.1 -0.1)">
      <use xlink:href="#DejaVuSans-30"/>
     </g>
    </g>
   </g>
   <g id="xtick_10">
    <g id="line2d_12">
     <path d="M 328.529226 231.874634 
L 332.149123 232.962715 
" style="fill: none; stroke: #000000; stroke-width: 0.8; stroke-linecap: square"/>
    </g>
    <g id="text_10">
     <!-- 20 -->
     <g transform="translate(335.560284 252.476572) scale(0.1 -0.1)">
      <use xlink:href="#DejaVuSans-32"/>
      <use xlink:href="#DejaVuSans-30" x="63.623047"/>
     </g>
    </g>
   </g>
   <g id="xtick_11">
    <g id="line2d_13">
     <path d="M 343.576663 216.459924 
L 347.151938 217.510678 
" style="fill: none; stroke: #000000; stroke-width: 0.8; stroke-linecap: square"/>
    </g>
    <g id="text_11">
     <!-- 40 -->
     <g transform="translate(350.390269 236.822066) scale(0.1 -0.1)">
      <use xlink:href="#DejaVuSans-34"/>
      <use xlink:href="#DejaVuSans-30" x="63.623047"/>
     </g>
    </g>
   </g>
  </g>
  <g id="axis3d_3">
   <g id="line2d_14">
    <path d="M 352.090401 209.294766 
L 357.122702 99.402171 
" style="fill: none; stroke: #000000; stroke-width: 0.8; stroke-linecap: square"/>
   </g>
   <g id="xtick_12">
    <g id="line2d_15">
     <path d="M 351.385343 198.390122 
L 354.954536 199.414767 
" style="fill: none; stroke: #000000; stroke-width: 0.8; stroke-linecap: square"/>
    </g>
    <g id="text_12">
     <!-- −40 -->
     <g transform="translate(360.347311 203.745462) scale(0.1 -0.1)">
      <use xlink:href="#DejaVuSans-2212"/>
      <use xlink:href="#DejaVuSans-34" x="83.789062"/>
      <use xlink:href="#DejaVuSans-30" x="147.412109"/>
     </g>
    </g>
   </g>
   <g id="xtick_13">
    <g id="line2d_16">
     <path d="M 352.354688 176.993712 
L 355.95608 178.001489 
" style="fill: none; stroke: #000000; stroke-width: 0.8; stroke-linecap: square"/>
    </g>
    <g id="text_13">
     <!-- −20 -->
     <g transform="translate(361.483108 182.38605) scale(0.1 -0.1)">
      <use xlink:href="#DejaVuSans-2212"/>
      <use xlink:href="#DejaVuSans-32" x="83.789062"/>
      <use xlink:href="#DejaVuSans-30" x="147.412109"/>
     </g>
    </g>
   </g>
   <g id="xtick_14">
    <g id="line2d_17">
     <path d="M 353.341016 155.22245 
L 356.975191 156.212608 
" style="fill: none; stroke: #000000; stroke-width: 0.8; stroke-linecap: square"/>
    </g>
    <g id="text_14">
     <!-- 0 -->
     <g transform="translate(370.009844 160.653431) scale(0.1 -0.1)">
      <use xlink:href="#DejaVuSans-30"/>
     </g>
    </g>
   </g>
   <g id="xtick_15">
    <g id="line2d_18">
     <path d="M 354.344776 133.066399 
L 358.012337 134.038155 
" style="fill: none; stroke: #000000; stroke-width: 0.8; stroke-linecap: square"/>
    </g>
    <g id="text_15">
     <!-- 20 -->
     <g transform="translate(368.004606 138.537736) scale(0.1 -0.1)">
      <use xlink:href="#DejaVuSans-32"/>
      <use xlink:href="#DejaVuSans-30" x="63.623047"/>
     </g>
    </g>
   </g>
   <g id="xtick_16">
    <g id="line2d_19">
     <path d="M 355.366435 110.515267 
L 359.067999 111.467803 
" style="fill: none; stroke: #000000; stroke-width: 0.8; stroke-linecap: square"/>
    </g>
    <g id="text_16">
     <!-- 40 -->
     <g transform="translate(369.201532 116.028748) scale(0.1 -0.1)">
      <use xlink:href="#DejaVuSans-34"/>
      <use xlink:href="#DejaVuSans-30" x="63.623047"/>
     </g>
    </g>
   </g>
  </g>
  <g id="axes_1">
   <g id="line2d_20">
    <path d="M 199.998428 114.870863 
L 222.490264 97.21951 
" clip-path="url(#pccf30f6114)" style="fill: none; stroke: #670000; stroke-opacity: 0.25; stroke-width: 1.5; stroke-linecap: square"/>
   </g>
   <g id="line2d_21">
    <path d="M 222.490264 97.21951 
L 257.428544 126.250764 
" clip-path="url(#pccf30f6114)" style="fill: none; stroke: #b42a13; stroke-opacity: 0.25; stroke-width: 1.5; stroke-linecap: square"/>
   </g>
   <g id="line2d_22">
    <path d="M 257.428544 126.250764 
L 300.21219 130.322843 
" clip-path="url(#pccf30f6114)" style="fill: none; stroke: #ff5236; stroke-opacity: 0.25; stroke-width: 1.5; stroke-linecap: square"/>
   </g>
   <g id="line2d_23">
    <path d="M 300.21219 130.322843 
L 310.837836 172.937738 
" clip-path="url(#pccf30f6114)" style="fill: none; stroke: #ffd3c5; stroke-opacity: 0.25; stroke-width: 1.5; stroke-linecap: square"/>
   </g>
   <g id="line2d_24">
    <path d="M 310.837836 172.937738 
L 199.998428 114.870863 
" clip-path="url(#pccf30f6114)" style="fill: none; stroke: #ffd3c5; stroke-opacity: 0.25; stroke-width: 1.5; stroke-linecap: square"/>
   </g>
   <g id="line2d_25">
    <path d="M 181.291208 118.079219 
L 195.826055 108.94249 
" clip-path="url(#pccf30f6114)" style="fill: none; stroke: #4c2d00; stroke-opacity: 0.25; stroke-width: 1.5; stroke-linecap: square"/>
   </g>
   <g id="line2d_26">
    <path d="M 195.826055 108.94249 
L 228.616108 119.402817 
" clip-path="url(#pccf30f6114)" style="fill: none; stroke: #8b6600; stroke-opacity: 0.25; stroke-width: 1.5; stroke-linecap: square"/>
   </g>
   <g id="line2d_27">
    <path d="M 228.616108 119.402817 
L 273.673213 132.520086 
" clip-path="url(#pccf30f6114)" style="fill: none; stroke: #eeae00; stroke-opacity: 0.25; stroke-width: 1.5; stroke-linecap: square"/>
   </g>
   <g id="line2d_28">
    <path d="M 273.673213 132.520086 
L 303.417489 176.594272 
" clip-path="url(#pccf30f6114)" style="fill: none; stroke: #f0e5b8; stroke-opacity: 0.25; stroke-width: 1.5; stroke-linecap: square"/>
   </g>
   <g id="line2d_29">
    <path d="M 303.417489 176.594272 
L 181.291208 118.079219 
" clip-path="url(#pccf30f6114)" style="fill: none; stroke: #f0e5b8; stroke-opacity: 0.25; stroke-width: 1.5; stroke-linecap: square"/>
   </g>
   <g id="line2d_30">
    <path d="M 172.916033 149.67187 
L 176.077143 140.33523 
" clip-path="url(#pccf30f6114)" style="fill: none; stroke: #004c00; stroke-opacity: 0.25; stroke-width: 1.5; stroke-linecap: square"/>
   </g>
   <g id="line2d_31">
    <path d="M 176.077143 140.33523 
L 217.981969 164.6858 
" clip-path="url(#pccf30f6114)" style="fill: none; stroke: #008e00; stroke-opacity: 0.25; stroke-width: 1.5; stroke-linecap: square"/>
   </g>
   <g id="line2d_32">
    <path d="M 217.981969 164.6858 
L 250.536372 174.244529 
" clip-path="url(#pccf30f6114)" style="fill: none; stroke: #00da00; stroke-opacity: 0.25; stroke-width: 1.5; stroke-linecap: square"/>
   </g>
   <g id="line2d_33">
    <path d="M 250.536372 174.244529 
L 294.254153 189.378121 
" clip-path="url(#pccf30f6114)" style="fill: none; stroke: #c9f5c7; stroke-opacity: 0.25; stroke-width: 1.5; stroke-linecap: square"/>
   </g>
   <g id="line2d_34">
    <path d="M 294.254153 189.378121 
L 172.916033 149.67187 
" clip-path="url(#pccf30f6114)" style="fill: none; stroke: #c9f5c7; stroke-opacity: 0.25; stroke-width: 1.5; stroke-linecap: square"/>
   </g>
   <g id="line2d_35">
    <path d="M 169.917251 171.705439 
L 177.6522 182.556106 
" clip-path="url(#pccf30f6114)" style="fill: none; stroke: #005536; stroke-opacity: 0.25; stroke-width: 1.5; stroke-linecap: square"/>
   </g>
   <g id="line2d_36">
    <path d="M 177.6522 182.556106 
L 211.307324 196.520734 
" clip-path="url(#pccf30f6114)" style="fill: none; stroke: #00996f; stroke-opacity: 0.25; stroke-width: 1.5; stroke-linecap: square"/>
   </g>
   <g id="line2d_37">
    <path d="M 211.307324 196.520734 
L 242.366264 213.412096 
" clip-path="url(#pccf30f6114)" style="fill: none; stroke: #00ecac; stroke-opacity: 0.25; stroke-width: 1.5; stroke-linecap: square"/>
   </g>
   <g id="line2d_38">
    <path d="M 242.366264 213.412096 
L 288.968601 204.284158 
" clip-path="url(#pccf30f6114)" style="fill: none; stroke: #adf9e5; stroke-opacity: 0.25; stroke-width: 1.5; stroke-linecap: square"/>
   </g>
   <g id="line2d_39">
    <path d="M 288.968601 204.284158 
L 169.917251 171.705439 
" clip-path="url(#pccf30f6114)" style="fill: none; stroke: #adf9e5; stroke-opacity: 0.25; stroke-width: 1.5; stroke-linecap: square"/>
   </g>
   <g id="line2d_40">
    <path d="M 173.158659 181.908425 
L 180.405428 196.808937 
" clip-path="url(#pccf30f6114)" style="fill: none; stroke: #004269; stroke-opacity: 0.25; stroke-width: 1.5; stroke-linecap: square"/>
   </g>
   <g id="line2d_41">
    <path d="M 180.405428 196.808937 
L 213.657475 212.727364 
" clip-path="url(#pccf30f6114)" style="fill: none; stroke: #0081b3; stroke-opacity: 0.25; stroke-width: 1.5; stroke-linecap: square"/>
   </g>
   <g id="line2d_42">
    <path d="M 213.657475 212.727364 
L 243.439726 233.084199 
" clip-path="url(#pccf30f6114)" style="fill: none; stroke: #00c6ff; stroke-opacity: 0.25; stroke-width: 1.5; stroke-linecap: square"/>
   </g>
   <g id="line2d_43">
    <path d="M 243.439726 233.084199 
L 290.776174 213.176209 
" clip-path="url(#pccf30f6114)" style="fill: none; stroke: #b5f0ff; stroke-opacity: 0.25; stroke-width: 1.5; stroke-linecap: square"/>
   </g>
   <g id="line2d_44">
    <path d="M 290.776174 213.176209 
L 173.158659 181.908425 
" clip-path="url(#pccf30f6114)" style="fill: none; stroke: #b5f0ff; stroke-opacity: 0.25; stroke-width: 1.5; stroke-linecap: square"/>
   </g>
   <g id="line2d_45">
    <path d="M 185.681084 175.196252 
L 195.045367 185.707939 
" clip-path="url(#pccf30f6114)" style="fill: none; stroke: #27097a; stroke-opacity: 0.25; stroke-width: 1.5; stroke-linecap: square"/>
   </g>
   <g id="line2d_46">
    <path d="M 195.045367 185.707939 
L 229.765194 199.905516 
" clip-path="url(#pccf30f6114)" style="fill: none; stroke: #5849cb; stroke-opacity: 0.25; stroke-width: 1.5; stroke-linecap: square"/>
   </g>
   <g id="line2d_47">
    <path d="M 229.765194 199.905516 
L 260.271373 215.656299 
" clip-path="url(#pccf30f6114)" style="fill: none; stroke: #8b69ff; stroke-opacity: 0.25; stroke-width: 1.5; stroke-linecap: square"/>
   </g>
   <g id="line2d_48">
    <path d="M 260.271373 215.656299 
L 300.642844 207.68904 
" clip-path="url(#pccf30f6114)" style="fill: none; stroke: #d8deff; stroke-opacity: 0.25; stroke-width: 1.5; stroke-linecap: square"/>
   </g>
   <g id="line2d_49">
    <path d="M 300.642844 207.68904 
L 185.681084 175.196252 
" clip-path="url(#pccf30f6114)" style="fill: none; stroke: #d8deff; stroke-opacity: 0.25; stroke-width: 1.5; stroke-linecap: square"/>
   </g>
   <g id="line2d_50">
    <path d="M 200.77705 154.923779 
L 217.701658 156.005057 
" clip-path="url(#pccf30f6114)" style="fill: none; stroke: #560060; stroke-opacity: 0.25; stroke-width: 1.5; stroke-linecap: square"/>
   </g>
   <g id="line2d_51">
    <path d="M 217.701658 156.005057 
L 251.186616 167.968399 
" clip-path="url(#pccf30f6114)" style="fill: none; stroke: #9b00a8; stroke-opacity: 0.25; stroke-width: 1.5; stroke-linecap: square"/>
   </g>
   <g id="line2d_52">
    <path d="M 251.186616 167.968399 
L 286.026008 176.474761 
" clip-path="url(#pccf30f6114)" style="fill: none; stroke: #ef00ff; stroke-opacity: 0.25; stroke-width: 1.5; stroke-linecap: square"/>
   </g>
   <g id="line2d_53">
    <path d="M 286.026008 176.474761 
L 310.376241 191.036442 
" clip-path="url(#pccf30f6114)" style="fill: none; stroke: #facefd; stroke-opacity: 0.25; stroke-width: 1.5; stroke-linecap: square"/>
   </g>
   <g id="line2d_54">
    <path d="M 310.376241 191.036442 
L 200.77705 154.923779 
" clip-path="url(#pccf30f6114)" style="fill: none; stroke: #facefd; stroke-opacity: 0.25; stroke-width: 1.5; stroke-linecap: square"/>
   </g>
   <g id="line2d_55">
    <path d="M 207.59282 138.753373 
L 228.851597 133.705623 
" clip-path="url(#pccf30f6114)" style="fill: none; stroke: #680030; stroke-opacity: 0.25; stroke-width: 1.5; stroke-linecap: square"/>
   </g>
   <g id="line2d_56">
    <path d="M 228.851597 133.705623 
L 261.718822 143.155936 
" clip-path="url(#pccf30f6114)" style="fill: none; stroke: #b60067; stroke-opacity: 0.25; stroke-width: 1.5; stroke-linecap: square"/>
   </g>
   <g id="line2d_57">
    <path d="M 261.718822 143.155936 
L 299.088902 147.198597 
" clip-path="url(#pccf30f6114)" style="fill: none; stroke: #ff00a0; stroke-opacity: 0.25; stroke-width: 1.5; stroke-linecap: square"/>
   </g>
   <g id="line2d_58">
    <path d="M 299.088902 147.198597 
L 313.693332 177.987052 
" clip-path="url(#pccf30f6114)" style="fill: none; stroke: #ffcae1; stroke-opacity: 0.25; stroke-width: 1.5; stroke-linecap: square"/>
   </g>
   <g id="line2d_59">
    <path d="M 313.693332 177.987052 
L 207.59282 138.753373 
" clip-path="url(#pccf30f6114)" style="fill: none; stroke: #ffcae1; stroke-opacity: 0.25; stroke-width: 1.5; stroke-linecap: square"/>
   </g>
   <g id="line2d_60">
    <path d="M 176.707865 178.081793 
L 183.903123 180.223708 
" clip-path="url(#pccf30f6114)" style="fill: none; stroke: #003341; stroke-opacity: 0.25; stroke-width: 1.5; stroke-linecap: square"/>
   </g>
   <g id="line2d_61">
    <path d="M 183.903123 180.223708 
L 223.863004 184.693231 
" clip-path="url(#pccf30f6114)" style="fill: none; stroke: #4d6b74; stroke-opacity: 0.25; stroke-width: 1.5; stroke-linecap: square"/>
   </g>
   <g id="line2d_62">
    <path d="M 223.863004 184.693231 
L 231.617747 186.239703 
" clip-path="url(#pccf30f6114)" style="fill: none; stroke: #5b777f; stroke-opacity: 0.25; stroke-width: 1.5; stroke-linecap: square"/>
   </g>
   <g id="line2d_63">
    <path d="M 231.617747 186.239703 
L 248.855498 183.905925 
" clip-path="url(#pccf30f6114)" style="fill: none; stroke: #7e8d8e; stroke-opacity: 0.25; stroke-width: 1.5; stroke-linecap: square"/>
   </g>
   <g id="line2d_64">
    <path d="M 248.855498 183.905925 
L 256.298362 185.920842 
" clip-path="url(#pccf30f6114)" style="fill: none; stroke: #8a9a9b; stroke-opacity: 0.25; stroke-width: 1.5; stroke-linecap: square"/>
   </g>
   <g id="line2d_65">
    <path d="M 256.298362 185.920842 
L 308.232871 184.993034 
" clip-path="url(#pccf30f6114)" style="fill: none; stroke: #f5eddc; stroke-opacity: 0.25; stroke-width: 1.5; stroke-linecap: square"/>
   </g>
   <g id="line2d_66">
    <path d="M 308.232871 184.993034 
L 312.914077 186.335312 
" clip-path="url(#pccf30f6114)" style="fill: none; stroke: #fff7e6; stroke-opacity: 0.25; stroke-width: 1.5; stroke-linecap: square"/>
   </g>
   <g id="line2d_67">
    <path d="M 312.914077 186.335312 
L 176.707865 178.081793 
" clip-path="url(#pccf30f6114)" style="fill: none; stroke: #fff7e6; stroke-opacity: 0.25; stroke-width: 1.5; stroke-linecap: square"/>
   </g>
   <g id="line2d_68">
    <path d="M 167.468783 150.064339 
L 203.152578 160.365363 
" clip-path="url(#pccf30f6114)" style="fill: none; stroke: #383636; stroke-opacity: 0.25; stroke-width: 1.5; stroke-linecap: square"/>
   </g>
   <g id="line2d_69">
    <path d="M 203.152578 160.365363 
L 239.756108 170.931892 
" clip-path="url(#pccf30f6114)" style="fill: none; stroke: #727070; stroke-opacity: 0.25; stroke-width: 1.5; stroke-linecap: square"/>
   </g>
   <g id="line2d_70">
    <path d="M 239.756108 170.931892 
L 277.315395 181.774324 
" clip-path="url(#pccf30f6114)" style="fill: none; stroke: #b4b0b0; stroke-opacity: 0.25; stroke-width: 1.5; stroke-linecap: square"/>
   </g>
   <g id="line2d_71">
    <path d="M 277.315395 181.774324 
L 314.277224 195.703229 
" clip-path="url(#pccf30f6114)" style="fill: none; stroke: #ffffff; stroke-opacity: 0.25; stroke-width: 1.5; stroke-linecap: square"/>
   </g>
   <g id="line2d_72">
    <path d="M 314.277224 195.703229 
L 167.468783 150.064339 
" clip-path="url(#pccf30f6114)" style="fill: none; stroke: #ffffff; stroke-opacity: 0.25; stroke-width: 1.5; stroke-linecap: square"/>
   </g>
   <g id="Path3DCollection_1">
    <defs>
     <path id="C0_0_6022cab884" d="M 0 2.236068 
C 0.593012 2.236068 1.161816 2.000462 1.581139 1.581139 
C 2.000462 1.161816 2.236068 0.593012 2.236068 -0 
C 2.236068 -0.593012 2.000462 -1.161816 1.581139 -1.581139 
C 1.161816 -2.000462 0.593012 -2.236068 0 -2.236068 
C -0.593012 -2.236068 -1.161816 -2.000462 -1.581139 -1.581139 
C -2.000462 -1.161816 -2.236068 -0.593012 -2.236068 0 
C -2.236068 0.593012 -2.000462 1.161816 -1.581139 1.581139 
C -1.161816 2.000462 -0.593012 2.236068 0 2.236068 
z
"/>
    </defs>
    <g clip-path="url(#pccf30f6114)">
     <use xlink:href="#C0_0_6022cab884" x="217.701658" y="156.005057" style="fill: #560060; stroke: #560060"/>
    </g>
    <g clip-path="url(#pccf30f6114)">
     <use xlink:href="#C0_0_6022cab884" x="200.77705" y="154.923779" style="fill: #310035; stroke: #310035"/>
    </g>
    <g clip-path="url(#pccf30f6114)">
     <use xlink:href="#C0_0_6022cab884" x="251.186616" y="167.968399" style="fill: #9b00a8; stroke: #9b00a8"/>
    </g>
    <g clip-path="url(#pccf30f6114)">
     <use xlink:href="#C0_0_6022cab884" x="286.026008" y="176.474761" style="fill: #ef00ff; stroke: #ef00ff"/>
    </g>
    <g clip-path="url(#pccf30f6114)">
     <use xlink:href="#C0_0_6022cab884" x="310.376241" y="191.036442" style="fill: #facefd; stroke: #facefd"/>
    </g>
   </g>
   <g id="Path3DCollection_2">
    <defs>
     <path id="C1_0_cf1f7b5f39" d="M 0 2.236068 
C 0.593012 2.236068 1.161816 2.000462 1.581139 1.581139 
C 2.000462 1.161816 2.236068 0.593012 2.236068 -0 
C 2.236068 -0.593012 2.000462 -1.161816 1.581139 -1.581139 
C 1.161816 -2.000462 0.593012 -2.236068 0 -2.236068 
C -0.593012 -2.236068 -1.161816 -2.000462 -1.581139 -1.581139 
C -2.000462 -1.161816 -2.236068 -0.593012 -2.236068 0 
C -2.236068 0.593012 -2.000462 1.161816 -1.581139 1.581139 
C -1.161816 2.000462 -0.593012 2.236068 0 2.236068 
z
"/>
    </defs>
    <g clip-path="url(#pccf30f6114)">
     <use xlink:href="#C1_0_cf1f7b5f39" x="228.851597" y="133.705623" style="fill: #680030; stroke: #680030"/>
    </g>
    <g clip-path="url(#pccf30f6114)">
     <use xlink:href="#C1_0_cf1f7b5f39" x="207.59282" y="138.753373" style="fill: #3b001c; stroke: #3b001c"/>
    </g>
    <g clip-path="url(#pccf30f6114)">
     <use xlink:href="#C1_0_cf1f7b5f39" x="261.718822" y="143.155936" style="fill: #b60067; stroke: #b60067"/>
    </g>
    <g clip-path="url(#pccf30f6114)">
     <use xlink:href="#C1_0_cf1f7b5f39" x="299.088902" y="147.198597" style="fill: #ff00a0; stroke: #ff00a0"/>
    </g>
    <g clip-path="url(#pccf30f6114)">
     <use xlink:href="#C1_0_cf1f7b5f39" x="313.693332" y="177.987052" style="fill: #ffcae1; stroke: #ffcae1"/>
    </g>
   </g>
   <g id="Path3DCollection_3">
    <defs>
     <path id="C2_0_24f1d5807b" d="M 0 2.236068 
C 0.593012 2.236068 1.161816 2.000462 1.581139 1.581139 
C 2.000462 1.161816 2.236068 0.593012 2.236068 -0 
C 2.236068 -0.593012 2.000462 -1.161816 1.581139 -1.581139 
C 1.161816 -2.000462 0.593012 -2.236068 0 -2.236068 
C -0.593012 -2.236068 -1.161816 -2.000462 -1.581139 -1.581139 
C -2.000462 -1.161816 -2.236068 -0.593012 -2.236068 0 
C -2.236068 0.593012 -2.000462 1.161816 -1.581139 1.581139 
C -1.161816 2.000462 -0.593012 2.236068 0 2.236068 
z
"/>
    </defs>
    <g clip-path="url(#pccf30f6114)">
     <use xlink:href="#C2_0_24f1d5807b" x="195.045367" y="185.707939" style="fill: #27097a; stroke: #27097a"/>
    </g>
    <g clip-path="url(#pccf30f6114)">
     <use xlink:href="#C2_0_24f1d5807b" x="185.681084" y="175.196252" style="fill: #141142; stroke: #141142"/>
    </g>
    <g clip-path="url(#pccf30f6114)">
     <use xlink:href="#C2_0_24f1d5807b" x="229.765194" y="199.905516" style="fill: #5849cb; stroke: #5849cb"/>
    </g>
    <g clip-path="url(#pccf30f6114)">
     <use xlink:href="#C2_0_24f1d5807b" x="260.271373" y="215.656299" style="fill: #8b69ff; stroke: #8b69ff"/>
    </g>
    <g clip-path="url(#pccf30f6114)">
     <use xlink:href="#C2_0_24f1d5807b" x="300.642844" y="207.68904" style="fill: #d8deff; stroke: #d8deff"/>
    </g>
   </g>
   <g id="Path3DCollection_4">
    <defs>
     <path id="C3_0_3802e60de1" d="M 0 2.236068 
C 0.593012 2.236068 1.161816 2.000462 1.581139 1.581139 
C 2.000462 1.161816 2.236068 0.593012 2.236068 -0 
C 2.236068 -0.593012 2.000462 -1.161816 1.581139 -1.581139 
C 1.161816 -2.000462 0.593012 -2.236068 0 -2.236068 
C -0.593012 -2.236068 -1.161816 -2.000462 -1.581139 -1.581139 
C -2.000462 -1.161816 -2.236068 -0.593012 -2.236068 0 
C -2.236068 0.593012 -2.000462 1.161816 -1.581139 1.581139 
C -1.161816 2.000462 -0.593012 2.236068 0 2.236068 
z
"/>
    </defs>
    <g clip-path="url(#pccf30f6114)">
     <use xlink:href="#C3_0_3802e60de1" x="222.490264" y="97.21951" style="fill: #670000; stroke: #670000"/>
    </g>
    <g clip-path="url(#pccf30f6114)">
     <use xlink:href="#C3_0_3802e60de1" x="199.998428" y="114.870863" style="fill: #3a0200; stroke: #3a0200"/>
    </g>
    <g clip-path="url(#pccf30f6114)">
     <use xlink:href="#C3_0_3802e60de1" x="257.428544" y="126.250764" style="fill: #b42a13; stroke: #b42a13"/>
    </g>
    <g clip-path="url(#pccf30f6114)">
     <use xlink:href="#C3_0_3802e60de1" x="300.21219" y="130.322843" style="fill: #ff5236; stroke: #ff5236"/>
    </g>
    <g clip-path="url(#pccf30f6114)">
     <use xlink:href="#C3_0_3802e60de1" x="310.837836" y="172.937738" style="fill: #ffd3c5; stroke: #ffd3c5"/>
    </g>
   </g>
   <g id="Path3DCollection_5">
    <defs>
     <path id="C4_0_34bae43d8a" d="M 0 2.236068 
C 0.593012 2.236068 1.161816 2.000462 1.581139 1.581139 
C 2.000462 1.161816 2.236068 0.593012 2.236068 -0 
C 2.236068 -0.593012 2.000462 -1.161816 1.581139 -1.581139 
C 1.161816 -2.000462 0.593012 -2.236068 0 -2.236068 
C -0.593012 -2.236068 -1.161816 -2.000462 -1.581139 -1.581139 
C -2.000462 -1.161816 -2.236068 -0.593012 -2.236068 0 
C -2.236068 0.593012 -2.000462 1.161816 -1.581139 1.581139 
C -1.161816 2.000462 -0.593012 2.236068 0 2.236068 
z
"/>
    </defs>
    <g clip-path="url(#pccf30f6114)">
     <use xlink:href="#C4_0_34bae43d8a" x="167.468783" y="150.064339" style="stroke: #000000"/>
    </g>
    <g clip-path="url(#pccf30f6114)">
     <use xlink:href="#C4_0_34bae43d8a" x="203.152578" y="160.365363" style="fill: #383636; stroke: #383636"/>
    </g>
    <g clip-path="url(#pccf30f6114)">
     <use xlink:href="#C4_0_34bae43d8a" x="239.756108" y="170.931892" style="fill: #727070; stroke: #727070"/>
    </g>
    <g clip-path="url(#pccf30f6114)">
     <use xlink:href="#C4_0_34bae43d8a" x="277.315395" y="181.774324" style="fill: #b4b0b0; stroke: #b4b0b0"/>
    </g>
    <g clip-path="url(#pccf30f6114)">
     <use xlink:href="#C4_0_34bae43d8a" x="314.277224" y="195.703229" style="fill: #ffffff; stroke: #ffffff"/>
    </g>
   </g>
   <g id="Path3DCollection_6">
    <defs>
     <path id="C5_0_a6dc7d3020" d="M 0 2.236068 
C 0.593012 2.236068 1.161816 2.000462 1.581139 1.581139 
C 2.000462 1.161816 2.236068 0.593012 2.236068 -0 
C 2.236068 -0.593012 2.000462 -1.161816 1.581139 -1.581139 
C 1.161816 -2.000462 0.593012 -2.236068 0 -2.236068 
C -0.593012 -2.236068 -1.161816 -2.000462 -1.581139 -1.581139 
C -2.000462 -1.161816 -2.236068 -0.593012 -2.236068 0 
C -2.236068 0.593012 -2.000462 1.161816 -1.581139 1.581139 
C -1.161816 2.000462 -0.593012 2.236068 0 2.236068 
z
"/>
    </defs>
    <g clip-path="url(#pccf30f6114)">
     <use xlink:href="#C5_0_a6dc7d3020" x="176.707865" y="178.081793" style="fill: #002735; stroke: #002735"/>
    </g>
    <g clip-path="url(#pccf30f6114)">
     <use xlink:href="#C5_0_a6dc7d3020" x="183.903123" y="180.223708" style="fill: #003341; stroke: #003341"/>
    </g>
    <g clip-path="url(#pccf30f6114)">
     <use xlink:href="#C5_0_a6dc7d3020" x="223.863004" y="184.693231" style="fill: #4d6b74; stroke: #4d6b74"/>
    </g>
    <g clip-path="url(#pccf30f6114)">
     <use xlink:href="#C5_0_a6dc7d3020" x="231.617747" y="186.239703" style="fill: #5b777f; stroke: #5b777f"/>
    </g>
    <g clip-path="url(#pccf30f6114)">
     <use xlink:href="#C5_0_a6dc7d3020" x="248.855498" y="183.905925" style="fill: #7e8d8e; stroke: #7e8d8e"/>
    </g>
    <g clip-path="url(#pccf30f6114)">
     <use xlink:href="#C5_0_a6dc7d3020" x="256.298362" y="185.920842" style="fill: #8a9a9b; stroke: #8a9a9b"/>
    </g>
    <g clip-path="url(#pccf30f6114)">
     <use xlink:href="#C5_0_a6dc7d3020" x="308.232871" y="184.993034" style="fill: #f5eddc; stroke: #f5eddc"/>
    </g>
    <g clip-path="url(#pccf30f6114)">
     <use xlink:href="#C5_0_a6dc7d3020" x="312.914077" y="186.335312" style="fill: #fff7e6; stroke: #fff7e6"/>
    </g>
   </g>
   <g id="Path3DCollection_7">
    <defs>
     <path id="C6_0_f085d9fc8b" d="M 0 2.236068 
C 0.593012 2.236068 1.161816 2.000462 1.581139 1.581139 
C 2.000462 1.161816 2.236068 0.593012 2.236068 -0 
C 2.236068 -0.593012 2.000462 -1.161816 1.581139 -1.581139 
C 1.161816 -2.000462 0.593012 -2.236068 0 -2.236068 
C -0.593012 -2.236068 -1.161816 -2.000462 -1.581139 -1.581139 
C -2.000462 -1.161816 -2.236068 -0.593012 -2.236068 0 
C -2.236068 0.593012 -2.000462 1.161816 -1.581139 1.581139 
C -1.161816 2.000462 -0.593012 2.236068 0 2.236068 
z
"/>
    </defs>
    <g clip-path="url(#pccf30f6114)">
     <use xlink:href="#C6_0_f085d9fc8b" x="173.158659" y="181.908425" style="fill: #002739; stroke: #002739"/>
    </g>
    <g clip-path="url(#pccf30f6114)">
     <use xlink:href="#C6_0_f085d9fc8b" x="180.405428" y="196.808937" style="fill: #004269; stroke: #004269"/>
    </g>
    <g clip-path="url(#pccf30f6114)">
     <use xlink:href="#C6_0_f085d9fc8b" x="213.657475" y="212.727364" style="fill: #0081b3; stroke: #0081b3"/>
    </g>
    <g clip-path="url(#pccf30f6114)">
     <use xlink:href="#C6_0_f085d9fc8b" x="243.439726" y="233.084199" style="fill: #00c6ff; stroke: #00c6ff"/>
    </g>
    <g clip-path="url(#pccf30f6114)">
     <use xlink:href="#C6_0_f085d9fc8b" x="290.776174" y="213.176209" style="fill: #b5f0ff; stroke: #b5f0ff"/>
    </g>
   </g>
   <g id="Path3DCollection_8">
    <defs>
     <path id="C7_0_e6a9abee3d" d="M 0 2.236068 
C 0.593012 2.236068 1.161816 2.000462 1.581139 1.581139 
C 2.000462 1.161816 2.236068 0.593012 2.236068 -0 
C 2.236068 -0.593012 2.000462 -1.161816 1.581139 -1.581139 
C 1.161816 -2.000462 0.593012 -2.236068 0 -2.236068 
C -0.593012 -2.236068 -1.161816 -2.000462 -1.581139 -1.581139 
C -2.000462 -1.161816 -2.236068 -0.593012 -2.236068 0 
C -2.236068 0.593012 -2.000462 1.161816 -1.581139 1.581139 
C -1.161816 2.000462 -0.593012 2.236068 0 2.236068 
z
"/>
    </defs>
    <g clip-path="url(#pccf30f6114)">
     <use xlink:href="#C7_0_e6a9abee3d" x="181.291208" y="118.079219" style="fill: #2a1b00; stroke: #2a1b00"/>
    </g>
    <g clip-path="url(#pccf30f6114)">
     <use xlink:href="#C7_0_e6a9abee3d" x="195.826055" y="108.94249" style="fill: #4c2d00; stroke: #4c2d00"/>
    </g>
    <g clip-path="url(#pccf30f6114)">
     <use xlink:href="#C7_0_e6a9abee3d" x="303.417489" y="176.594272" style="fill: #f0e5b8; stroke: #f0e5b8"/>
    </g>
    <g clip-path="url(#pccf30f6114)">
     <use xlink:href="#C7_0_e6a9abee3d" x="228.616108" y="119.402817" style="fill: #8b6600; stroke: #8b6600"/>
    </g>
    <g clip-path="url(#pccf30f6114)">
     <use xlink:href="#C7_0_e6a9abee3d" x="273.673213" y="132.520086" style="fill: #eeae00; stroke: #eeae00"/>
    </g>
   </g>
   <g id="Path3DCollection_9">
    <defs>
     <path id="C8_0_27f01f08e7" d="M 0 2.236068 
C 0.593012 2.236068 1.161816 2.000462 1.581139 1.581139 
C 2.000462 1.161816 2.236068 0.593012 2.236068 -0 
C 2.236068 -0.593012 2.000462 -1.161816 1.581139 -1.581139 
C 1.161816 -2.000462 0.593012 -2.236068 0 -2.236068 
C -0.593012 -2.236068 -1.161816 -2.000462 -1.581139 -1.581139 
C -2.000462 -1.161816 -2.236068 -0.593012 -2.236068 0 
C -2.236068 0.593012 -2.000462 1.161816 -1.581139 1.581139 
C -1.161816 2.000462 -0.593012 2.236068 0 2.236068 
z
"/>
    </defs>
    <g clip-path="url(#pccf30f6114)">
     <use xlink:href="#C8_0_27f01f08e7" x="169.917251" y="171.705439" style="fill: #00301f; stroke: #00301f"/>
    </g>
    <g clip-path="url(#pccf30f6114)">
     <use xlink:href="#C8_0_27f01f08e7" x="177.6522" y="182.556106" style="fill: #005536; stroke: #005536"/>
    </g>
    <g clip-path="url(#pccf30f6114)">
     <use xlink:href="#C8_0_27f01f08e7" x="211.307324" y="196.520734" style="fill: #00996f; stroke: #00996f"/>
    </g>
    <g clip-path="url(#pccf30f6114)">
     <use xlink:href="#C8_0_27f01f08e7" x="288.968601" y="204.284158" style="fill: #adf9e5; stroke: #adf9e5"/>
    </g>
    <g clip-path="url(#pccf30f6114)">
     <use xlink:href="#C8_0_27f01f08e7" x="242.366264" y="213.412096" style="fill: #00ecac; stroke: #00ecac"/>
    </g>
   </g>
   <g id="Path3DCollection_10">
    <defs>
     <path id="C9_0_01d98c2f10" d="M 0 2.236068 
C 0.593012 2.236068 1.161816 2.000462 1.581139 1.581139 
C 2.000462 1.161816 2.236068 0.593012 2.236068 -0 
C 2.236068 -0.593012 2.000462 -1.161816 1.581139 -1.581139 
C 1.161816 -2.000462 0.593012 -2.236068 0 -2.236068 
C -0.593012 -2.236068 -1.161816 -2.000462 -1.581139 -1.581139 
C -2.000462 -1.161816 -2.236068 -0.593012 -2.236068 0 
C -2.236068 0.593012 -2.000462 1.161816 -1.581139 1.581139 
C -1.161816 2.000462 -0.593012 2.236068 0 2.236068 
z
"/>
    </defs>
    <g clip-path="url(#pccf30f6114)">
     <use xlink:href="#C9_0_01d98c2f10" x="172.916033" y="149.67187" style="fill: #002c00; stroke: #002c00"/>
    </g>
    <g clip-path="url(#pccf30f6114)">
     <use xlink:href="#C9_0_01d98c2f10" x="176.077143" y="140.33523" style="fill: #004c00; stroke: #004c00"/>
    </g>
    <g clip-path="url(#pccf30f6114)">
     <use xlink:href="#C9_0_01d98c2f10" x="217.981969" y="164.6858" style="fill: #008e00; stroke: #008e00"/>
    </g>
    <g clip-path="url(#pccf30f6114)">
     <use xlink:href="#C9_0_01d98c2f10" x="294.254153" y="189.378121" style="fill: #c9f5c7; stroke: #c9f5c7"/>
    </g>
    <g clip-path="url(#pccf30f6114)">
     <use xlink:href="#C9_0_01d98c2f10" x="250.536372" y="174.244529" style="fill: #00da00; stroke: #00da00"/>
    </g>
   </g>
  </g>
 </g>
 <defs>
  <clipPath id="pccf30f6114">
   <rect x="103.104" y="41.472" width="266.112" height="266.112"/>
  </clipPath>
 </defs>
</svg>
