<?xml version="1.0" encoding="utf-8" standalone="no"?>
<!DOCTYPE svg PUBLIC "-//W3C//DTD SVG 1.1//EN"
  "http://www.w3.org/Graphics/SVG/1.1/DTD/svg11.dtd">
<svg xmlns:xlink="http://www.w3.org/1999/xlink" width="460.8pt" height="345.6pt" viewBox="0 0 460.8 345.6" xmlns="http://www.w3.org/2000/svg" version="1.1">
 <metadata>
  <rdf:RDF xmlns:dc="http://purl.org/dc/elements/1.1/" xmlns:cc="http://creativecommons.org/ns#" xmlns:rdf="http://www.w3.org/1999/02/22-rdf-syntax-ns#">
   <cc:Work>
    <dc:type rdf:resource="http://purl.org/dc/dcmitype/StillImage"/>
    <dc:date>2024-06-07T00:31:08.329880</dc:date>
    <dc:format>image/svg+xml</dc:format>
    <dc:creator>
     <cc:Agent>
      <dc:title>Matplotlib v3.9.0, https://matplotlib.org/</dc:title>
     </cc:Agent>
    </dc:creator>
   </cc:Work>
  </rdf:RDF>
 </metadata>
 <defs>
  <style type="text/css">*{stroke-linejoin: round; stroke-linecap: butt}</style>
 </defs>
 <g id="figure_1">
  <g id="patch_1">
   <path d="M 0 345.6 
L 460.8 345.6 
L 460.8 0 
L 0 0 
z
" style="fill: #ffffff"/>
  </g>
  <g id="patch_2">
   <path d="M 103.104 307.584 
L 369.216 307.584 
L 369.216 41.472 
L 103.104 41.472 
z
" style="fill: #ffffff"/>
  </g>
  <g id="pane3d_1">
   <g id="patch_3">
    <path d="M 123.197291 241.969309 
L 211.076164 168.307495 
L 209.854564 62.073991 
L 117.770234 129.272941 
" style="fill: #f2f2f2; opacity: 0.5; stroke: #f2f2f2; stroke-linejoin: miter"/>
   </g>
  </g>
  <g id="pane3d_2">
   <g id="patch_4">
    <path d="M 211.076164 168.307495 
L 352.090401 209.294766 
L 357.122702 99.402171 
L 209.854564 62.073991 
" style="fill: #e6e6e6; opacity: 0.5; stroke: #e6e6e6; stroke-linejoin: miter"/>
   </g>
  </g>
  <g id="pane3d_3">
   <g id="patch_5">
    <path d="M 123.197291 241.969309 
L 272.679269 290.790123 
L 352.090401 209.294766 
L 211.076164 168.307495 
" style="fill: #ececec; opacity: 0.5; stroke: #ececec; stroke-linejoin: miter"/>
   </g>
  </g>
  <g id="grid3d_1">
   <g id="Line3DCollection_1">
    <path d="M 132.250704 244.926154 
L 219.652219 170.800215 
L 218.79322 64.33968 
" style="fill: none; stroke: #b0b0b0; stroke-width: 0.8"/>
    <path d="M 160.584743 254.180051 
L 246.462619 178.59294 
L 246.75198 71.42641 
" style="fill: none; stroke: #b0b0b0; stroke-width: 0.8"/>
    <path d="M 189.504557 263.625262 
L 273.781009 186.533318 
L 275.26357 78.653267 
" style="fill: none; stroke: #b0b0b0; stroke-width: 0.8"/>
    <path d="M 219.0285 273.267782 
L 301.621963 194.625584 
L 304.344551 86.024448 
" style="fill: none; stroke: #b0b0b0; stroke-width: 0.8"/>
    <path d="M 249.175703 283.113858 
L 330.000621 202.874139 
L 334.012151 93.54432 
" style="fill: none; stroke: #b0b0b0; stroke-width: 0.8"/>
   </g>
  </g>
  <g id="grid3d_2">
   <g id="Line3DCollection_2">
    <path d="M 124.138093 124.625967 
L 129.252888 236.893387 
L 278.173905 285.151275 
" style="fill: none; stroke: #b0b0b0; stroke-width: 0.8"/>
    <path d="M 139.556208 113.374529 
L 143.9281 224.592334 
L 291.47579 271.500268 
" style="fill: none; stroke: #b0b0b0; stroke-width: 0.8"/>
    <path d="M 154.538142 102.441396 
L 158.206016 212.624302 
L 304.398727 258.238156 
" style="fill: none; stroke: #b0b0b0; stroke-width: 0.8"/>
    <path d="M 169.102147 91.813249 
L 172.102556 200.975947 
L 316.95868 245.348554 
" style="fill: none; stroke: #b0b0b0; stroke-width: 0.8"/>
    <path d="M 183.265469 81.477502 
L 185.632797 189.63463 
L 329.170732 232.815985 
" style="fill: none; stroke: #b0b0b0; stroke-width: 0.8"/>
    <path d="M 197.044419 71.422251 
L 198.811036 178.588369 
L 341.049139 220.625816 
" style="fill: none; stroke: #b0b0b0; stroke-width: 0.8"/>
   </g>
  </g>
  <g id="grid3d_3">
   <g id="Line3DCollection_3">
    <path d="M 352.487413 200.625029 
L 210.979601 159.910123 
L 122.7698 233.092173 
" style="fill: none; stroke: #b0b0b0; stroke-width: 0.8"/>
    <path d="M 353.634179 175.582592 
L 210.700861 135.670122 
L 121.534357 207.437408 
" style="fill: none; stroke: #b0b0b0; stroke-width: 0.8"/>
    <path d="M 354.804516 150.025428 
L 210.416667 110.955932 
L 120.272542 181.235001 
" style="fill: none; stroke: #b0b0b0; stroke-width: 0.8"/>
    <path d="M 355.999158 123.937502 
L 210.126859 85.7535 
L 118.983501 154.467228 
" style="fill: none; stroke: #b0b0b0; stroke-width: 0.8"/>
   </g>
  </g>
  <g id="axis3d_1">
   <g id="line2d_1">
    <path d="M 123.197291 241.969309 
L 272.679269 290.790123 
" style="fill: none; stroke: #000000; stroke-width: 0.8; stroke-linecap: square"/>
   </g>
   <g id="xtick_1">
    <g id="line2d_2">
     <path d="M 133.011792 244.280669 
L 130.725263 246.219892 
" style="fill: none; stroke: #000000; stroke-width: 0.8; stroke-linecap: square"/>
    </g>
    <g id="text_1">
     <!-- 0.00 -->
     <g transform="translate(113.588842 268.235303) scale(0.1 -0.1)">
      <defs>
       <path id="DejaVuSans-30" d="M 2034 4250 
Q 1547 4250 1301 3770 
Q 1056 3291 1056 2328 
Q 1056 1369 1301 889 
Q 1547 409 2034 409 
Q 2525 409 2770 889 
Q 3016 1369 3016 2328 
Q 3016 3291 2770 3770 
Q 2525 4250 2034 4250 
z
M 2034 4750 
Q 2819 4750 3233 4129 
Q 3647 3509 3647 2328 
Q 3647 1150 3233 529 
Q 2819 -91 2034 -91 
Q 1250 -91 836 529 
Q 422 1150 422 2328 
Q 422 3509 836 4129 
Q 1250 4750 2034 4750 
z
" transform="scale(0.015625)"/>
       <path id="DejaVuSans-2e" d="M 684 794 
L 1344 794 
L 1344 0 
L 684 0 
L 684 794 
z
" transform="scale(0.015625)"/>
      </defs>
      <use xlink:href="#DejaVuSans-30"/>
      <use xlink:href="#DejaVuSans-2e" x="63.623047"/>
      <use xlink:href="#DejaVuSans-30" x="95.410156"/>
      <use xlink:href="#DejaVuSans-30" x="159.033203"/>
     </g>
    </g>
   </g>
   <g id="xtick_2">
    <g id="line2d_3">
     <path d="M 161.333184 253.521295 
L 159.084616 255.500417 
" style="fill: none; stroke: #000000; stroke-width: 0.8; stroke-linecap: square"/>
    </g>
    <g id="text_2">
     <!-- 0.05 -->
     <g transform="translate(141.951967 277.685295) scale(0.1 -0.1)">
      <defs>
       <path id="DejaVuSans-35" d="M 691 4666 
L 3169 4666 
L 3169 4134 
L 1269 4134 
L 1269 2991 
Q 1406 3038 1543 3061 
Q 1681 3084 1819 3084 
Q 2600 3084 3056 2656 
Q 3513 2228 3513 1497 
Q 3513 744 3044 326 
Q 2575 -91 1722 -91 
Q 1428 -91 1123 -41 
Q 819 9 494 109 
L 494 744 
Q 775 591 1075 516 
Q 1375 441 1709 441 
Q 2250 441 2565 725 
Q 2881 1009 2881 1497 
Q 2881 1984 2565 2268 
Q 2250 2553 1709 2553 
Q 1456 2553 1204 2497 
Q 953 2441 691 2322 
L 691 4666 
z
" transform="scale(0.015625)"/>
      </defs>
      <use xlink:href="#DejaVuSans-30"/>
      <use xlink:href="#DejaVuSans-2e" x="63.623047"/>
      <use xlink:href="#DejaVuSans-30" x="95.410156"/>
      <use xlink:href="#DejaVuSans-35" x="159.033203"/>
     </g>
    </g>
   </g>
   <g id="xtick_3">
    <g id="line2d_4">
     <path d="M 190.239664 262.952822 
L 188.031123 264.973087 
" style="fill: none; stroke: #000000; stroke-width: 0.8; stroke-linecap: square"/>
    </g>
    <g id="text_3">
     <!-- 0.10 -->
     <g transform="translate(170.903694 287.331397) scale(0.1 -0.1)">
      <defs>
       <path id="DejaVuSans-31" d="M 794 531 
L 1825 531 
L 1825 4091 
L 703 3866 
L 703 4441 
L 1819 4666 
L 2450 4666 
L 2450 531 
L 3481 531 
L 3481 0 
L 794 0 
L 794 531 
z
" transform="scale(0.015625)"/>
      </defs>
      <use xlink:href="#DejaVuSans-30"/>
      <use xlink:href="#DejaVuSans-2e" x="63.623047"/>
      <use xlink:href="#DejaVuSans-31" x="95.410156"/>
      <use xlink:href="#DejaVuSans-30" x="159.033203"/>
     </g>
    </g>
   </g>
   <g id="xtick_4">
    <g id="line2d_5">
     <path d="M 219.74955 272.581227 
L 217.583209 274.64393 
" style="fill: none; stroke: #000000; stroke-width: 0.8; stroke-linecap: square"/>
    </g>
    <g id="text_4">
     <!-- 0.15 -->
     <g transform="translate(200.462535 297.179776) scale(0.1 -0.1)">
      <use xlink:href="#DejaVuSans-30"/>
      <use xlink:href="#DejaVuSans-2e" x="63.623047"/>
      <use xlink:href="#DejaVuSans-31" x="95.410156"/>
      <use xlink:href="#DejaVuSans-35" x="159.033203"/>
     </g>
    </g>
   </g>
   <g id="xtick_5">
    <g id="line2d_6">
     <path d="M 249.881936 282.412739 
L 247.760078 284.519233 
" style="fill: none; stroke: #000000; stroke-width: 0.8; stroke-linecap: square"/>
    </g>
    <g id="text_5">
     <!-- 0.20 -->
     <g transform="translate(230.647791 307.236864) scale(0.1 -0.1)">
      <defs>
       <path id="DejaVuSans-32" d="M 1228 531 
L 3431 531 
L 3431 0 
L 469 0 
L 469 531 
Q 828 903 1448 1529 
Q 2069 2156 2228 2338 
Q 2531 2678 2651 2914 
Q 2772 3150 2772 3378 
Q 2772 3750 2511 3984 
Q 2250 4219 1831 4219 
Q 1534 4219 1204 4116 
Q 875 4013 500 3803 
L 500 4441 
Q 881 4594 1212 4672 
Q 1544 4750 1819 4750 
Q 2544 4750 2975 4387 
Q 3406 4025 3406 3419 
Q 3406 3131 3298 2873 
Q 3191 2616 2906 2266 
Q 2828 2175 2409 1742 
Q 1991 1309 1228 531 
z
" transform="scale(0.015625)"/>
      </defs>
      <use xlink:href="#DejaVuSans-30"/>
      <use xlink:href="#DejaVuSans-2e" x="63.623047"/>
      <use xlink:href="#DejaVuSans-32" x="95.410156"/>
      <use xlink:href="#DejaVuSans-30" x="159.033203"/>
     </g>
    </g>
   </g>
  </g>
  <g id="axis3d_2">
   <g id="line2d_7">
    <path d="M 352.090401 209.294766 
L 272.679269 290.790123 
" style="fill: none; stroke: #000000; stroke-width: 0.8; stroke-linecap: square"/>
   </g>
   <g id="xtick_6">
    <g id="line2d_8">
     <path d="M 276.918943 284.744604 
L 280.687074 285.965668 
" style="fill: none; stroke: #000000; stroke-width: 0.8; stroke-linecap: square"/>
    </g>
    <g id="text_6">
     <!-- −0.15 -->
     <g transform="translate(275.731882 306.173005) scale(0.1 -0.1)">
      <defs>
       <path id="DejaVuSans-2212" d="M 678 2272 
L 4684 2272 
L 4684 1741 
L 678 1741 
L 678 2272 
z
" transform="scale(0.015625)"/>
      </defs>
      <use xlink:href="#DejaVuSans-2212"/>
      <use xlink:href="#DejaVuSans-30" x="83.789062"/>
      <use xlink:href="#DejaVuSans-2e" x="147.412109"/>
      <use xlink:href="#DejaVuSans-31" x="179.199219"/>
      <use xlink:href="#DejaVuSans-35" x="242.822266"/>
     </g>
    </g>
   </g>
   <g id="xtick_7">
    <g id="line2d_9">
     <path d="M 290.233312 271.105262 
L 293.963915 272.291285 
" style="fill: none; stroke: #000000; stroke-width: 0.8; stroke-linecap: square"/>
    </g>
    <g id="text_7">
     <!-- −0.10 -->
     <g transform="translate(288.855383 292.319861) scale(0.1 -0.1)">
      <use xlink:href="#DejaVuSans-2212"/>
      <use xlink:href="#DejaVuSans-30" x="83.789062"/>
      <use xlink:href="#DejaVuSans-2e" x="147.412109"/>
      <use xlink:href="#DejaVuSans-31" x="179.199219"/>
      <use xlink:href="#DejaVuSans-30" x="242.822266"/>
     </g>
    </g>
   </g>
   <g id="xtick_8">
    <g id="line2d_10">
     <path d="M 303.168534 257.854321 
L 306.862203 259.006789 
" style="fill: none; stroke: #000000; stroke-width: 0.8; stroke-linecap: square"/>
    </g>
    <g id="text_8">
     <!-- −0.05 -->
     <g transform="translate(301.604798 278.8616) scale(0.1 -0.1)">
      <use xlink:href="#DejaVuSans-2212"/>
      <use xlink:href="#DejaVuSans-30" x="83.789062"/>
      <use xlink:href="#DejaVuSans-2e" x="147.412109"/>
      <use xlink:href="#DejaVuSans-30" x="179.199219"/>
      <use xlink:href="#DejaVuSans-35" x="242.822266"/>
     </g>
    </g>
   </g>
   <g id="xtick_9">
    <g id="line2d_11">
     <path d="M 315.740578 244.975423 
L 319.397901 246.095741 
" style="fill: none; stroke: #000000; stroke-width: 0.8; stroke-linecap: square"/>
    </g>
    <g id="text_9">
     <!-- 0.00 -->
     <g transform="translate(318.185742 265.781575) scale(0.1 -0.1)">
      <use xlink:href="#DejaVuSans-30"/>
      <use xlink:href="#DejaVuSans-2e" x="63.623047"/>
      <use xlink:href="#DejaVuSans-30" x="95.410156"/>
      <use xlink:href="#DejaVuSans-30" x="159.033203"/>
     </g>
    </g>
   </g>
   <g id="xtick_10">
    <g id="line2d_12">
     <path d="M 327.964528 232.453115 
L 331.586087 233.54261 
" style="fill: none; stroke: #000000; stroke-width: 0.8; stroke-linecap: square"/>
    </g>
    <g id="text_10">
     <!-- 0.05 -->
     <g transform="translate(330.233424 253.064063) scale(0.1 -0.1)">
      <use xlink:href="#DejaVuSans-30"/>
      <use xlink:href="#DejaVuSans-2e" x="63.623047"/>
      <use xlink:href="#DejaVuSans-30" x="95.410156"/>
      <use xlink:href="#DejaVuSans-35" x="159.033203"/>
     </g>
    </g>
   </g>
   <g id="xtick_11">
    <g id="line2d_13">
     <path d="M 339.854642 220.272791 
L 343.441013 221.332717 
" style="fill: none; stroke: #000000; stroke-width: 0.8; stroke-linecap: square"/>
    </g>
    <g id="text_11">
     <!-- 0.10 -->
     <g transform="translate(341.951769 240.694199) scale(0.1 -0.1)">
      <use xlink:href="#DejaVuSans-30"/>
      <use xlink:href="#DejaVuSans-2e" x="63.623047"/>
      <use xlink:href="#DejaVuSans-31" x="95.410156"/>
      <use xlink:href="#DejaVuSans-30" x="159.033203"/>
     </g>
    </g>
   </g>
  </g>
  <g id="axis3d_3">
   <g id="line2d_14">
    <path d="M 352.090401 209.294766 
L 357.122702 99.402171 
" style="fill: none; stroke: #000000; stroke-width: 0.8; stroke-linecap: square"/>
   </g>
   <g id="xtick_12">
    <g id="line2d_15">
     <path d="M 351.299576 200.283263 
L 354.865921 201.309379 
" style="fill: none; stroke: #000000; stroke-width: 0.8; stroke-linecap: square"/>
    </g>
    <g id="text_12">
     <!-- −0.2 -->
     <g transform="translate(358.657752 205.635376) scale(0.1 -0.1)">
      <use xlink:href="#DejaVuSans-2212"/>
      <use xlink:href="#DejaVuSans-30" x="83.789062"/>
      <use xlink:href="#DejaVuSans-2e" x="147.412109"/>
      <use xlink:href="#DejaVuSans-32" x="179.199219"/>
     </g>
    </g>
   </g>
   <g id="xtick_13">
    <g id="line2d_16">
     <path d="M 352.433803 175.247401 
L 356.037824 176.253782 
" style="fill: none; stroke: #000000; stroke-width: 0.8; stroke-linecap: square"/>
    </g>
    <g id="text_13">
     <!-- −0.1 -->
     <g transform="translate(359.986744 180.642803) scale(0.1 -0.1)">
      <use xlink:href="#DejaVuSans-2212"/>
      <use xlink:href="#DejaVuSans-30" x="83.789062"/>
      <use xlink:href="#DejaVuSans-2e" x="147.412109"/>
      <use xlink:href="#DejaVuSans-31" x="179.199219"/>
     </g>
    </g>
   </g>
   <g id="xtick_14">
    <g id="line2d_17">
     <path d="M 353.591334 149.697157 
L 357.233833 150.68277 
" style="fill: none; stroke: #000000; stroke-width: 0.8; stroke-linecap: square"/>
    </g>
    <g id="text_14">
     <!-- 0.0 -->
     <g transform="translate(365.532812 155.138105) scale(0.1 -0.1)">
      <use xlink:href="#DejaVuSans-30"/>
      <use xlink:href="#DejaVuSans-2e" x="63.623047"/>
      <use xlink:href="#DejaVuSans-30" x="95.410156"/>
     </g>
    </g>
   </g>
   <g id="xtick_15">
    <g id="line2d_18">
     <path d="M 354.772894 123.616511 
L 358.454702 124.580273 
" style="fill: none; stroke: #000000; stroke-width: 0.8; stroke-linecap: square"/>
    </g>
    <g id="text_15">
     <!-- 0.1 -->
     <g transform="translate(366.917114 129.105377) scale(0.1 -0.1)">
      <use xlink:href="#DejaVuSans-30"/>
      <use xlink:href="#DejaVuSans-2e" x="63.623047"/>
      <use xlink:href="#DejaVuSans-31" x="95.410156"/>
     </g>
    </g>
   </g>
  </g>
  <g id="axes_1">
   <g id="line2d_19">
    <path d="M 209.631975 129.703399 
L 227.834209 123.092961 
" clip-path="url(#p41731becf2)" style="fill: none; stroke: #670a00; stroke-opacity: 0.25; stroke-width: 1.5; stroke-linecap: square"/>
   </g>
   <g id="line2d_20">
    <path d="M 227.834209 123.092961 
L 264.102965 123.652258 
" clip-path="url(#p41731becf2)" style="fill: none; stroke: #c13e28; stroke-opacity: 0.25; stroke-width: 1.5; stroke-linecap: square"/>
   </g>
   <g id="line2d_21">
    <path d="M 264.102965 123.652258 
L 310.834467 116.361666 
" clip-path="url(#p41731becf2)" style="fill: none; stroke: #ff5034; stroke-opacity: 0.25; stroke-width: 1.5; stroke-linecap: square"/>
   </g>
   <g id="line2d_22">
    <path d="M 310.834467 116.361666 
L 308.928411 166.920564 
" clip-path="url(#p41731becf2)" style="fill: none; stroke: #ffe0d2; stroke-opacity: 0.25; stroke-width: 1.5; stroke-linecap: square"/>
   </g>
   <g id="line2d_23">
    <path d="M 308.928411 166.920564 
L 209.631975 129.703399 
" clip-path="url(#p41731becf2)" style="fill: none; stroke: #ffe0d2; stroke-opacity: 0.25; stroke-width: 1.5; stroke-linecap: square"/>
   </g>
   <g id="line2d_24">
    <path d="M 197.915155 134.406963 
L 210.499589 130.066045 
" clip-path="url(#p41731becf2)" style="fill: none; stroke: #4d3700; stroke-opacity: 0.25; stroke-width: 1.5; stroke-linecap: square"/>
   </g>
   <g id="line2d_25">
    <path d="M 210.499589 130.066045 
L 242.806231 126.192218 
" clip-path="url(#p41731becf2)" style="fill: none; stroke: #9c7200; stroke-opacity: 0.25; stroke-width: 1.5; stroke-linecap: square"/>
   </g>
   <g id="line2d_26">
    <path d="M 242.806231 126.192218 
L 286.320813 130.679048 
" clip-path="url(#p41731becf2)" style="fill: none; stroke: #ffc600; stroke-opacity: 0.25; stroke-width: 1.5; stroke-linecap: square"/>
   </g>
   <g id="line2d_27">
    <path d="M 286.320813 130.679048 
L 302.495828 170.153744 
" clip-path="url(#p41731becf2)" style="fill: none; stroke: #fef3c7; stroke-opacity: 0.25; stroke-width: 1.5; stroke-linecap: square"/>
   </g>
   <g id="line2d_28">
    <path d="M 302.495828 170.153744 
L 197.915155 134.406963 
" clip-path="url(#p41731becf2)" style="fill: none; stroke: #fef3c7; stroke-opacity: 0.25; stroke-width: 1.5; stroke-linecap: square"/>
   </g>
   <g id="line2d_29">
    <path d="M 186.072849 148.502777 
L 192.700848 151.414579 
" clip-path="url(#p41731becf2)" style="fill: none; stroke: #005000; stroke-opacity: 0.25; stroke-width: 1.5; stroke-linecap: square"/>
   </g>
   <g id="line2d_30">
    <path d="M 192.700848 151.414579 
L 219.265235 160.073268 
" clip-path="url(#p41731becf2)" style="fill: none; stroke: #009c16; stroke-opacity: 0.25; stroke-width: 1.5; stroke-linecap: square"/>
   </g>
   <g id="line2d_31">
    <path d="M 219.265235 160.073268 
L 246.978429 169.104032 
" clip-path="url(#p41731becf2)" style="fill: none; stroke: #00f02e; stroke-opacity: 0.25; stroke-width: 1.5; stroke-linecap: square"/>
   </g>
   <g id="line2d_32">
    <path d="M 246.978429 169.104032 
L 295.82614 179.090504 
" clip-path="url(#p41731becf2)" style="fill: none; stroke: #d6ffd4; stroke-opacity: 0.25; stroke-width: 1.5; stroke-linecap: square"/>
   </g>
   <g id="line2d_33">
    <path d="M 295.82614 179.090504 
L 186.072849 148.502777 
" clip-path="url(#p41731becf2)" style="fill: none; stroke: #d6ffd4; stroke-opacity: 0.25; stroke-width: 1.5; stroke-linecap: square"/>
   </g>
   <g id="line2d_34">
    <path d="M 181.312873 163.636337 
L 185.472456 174.414357 
" clip-path="url(#p41731becf2)" style="fill: none; stroke: #00573c; stroke-opacity: 0.25; stroke-width: 1.5; stroke-linecap: square"/>
   </g>
   <g id="line2d_35">
    <path d="M 185.472456 174.414357 
L 209.458976 191.372192 
" clip-path="url(#p41731becf2)" style="fill: none; stroke: #00a87c; stroke-opacity: 0.25; stroke-width: 1.5; stroke-linecap: square"/>
   </g>
   <g id="line2d_36">
    <path d="M 209.458976 191.372192 
L 234.502618 209.052551 
" clip-path="url(#p41731becf2)" style="fill: none; stroke: #00ffc0; stroke-opacity: 0.25; stroke-width: 1.5; stroke-linecap: square"/>
   </g>
   <g id="line2d_37">
    <path d="M 234.502618 209.052551 
L 292.91811 188.45388 
" clip-path="url(#p41731becf2)" style="fill: none; stroke: #b9fff2; stroke-opacity: 0.25; stroke-width: 1.5; stroke-linecap: square"/>
   </g>
   <g id="line2d_38">
    <path d="M 292.91811 188.45388 
L 181.312873 163.636337 
" clip-path="url(#p41731becf2)" style="fill: none; stroke: #b9fff2; stroke-opacity: 0.25; stroke-width: 1.5; stroke-linecap: square"/>
   </g>
   <g id="line2d_39">
    <path d="M 186.544442 170.586554 
L 193.326002 184.774183 
" clip-path="url(#p41731becf2)" style="fill: none; stroke: #004867; stroke-opacity: 0.25; stroke-width: 1.5; stroke-linecap: square"/>
   </g>
   <g id="line2d_40">
    <path d="M 193.326002 184.774183 
L 219.633727 205.072991 
" clip-path="url(#p41731becf2)" style="fill: none; stroke: #008fc3; stroke-opacity: 0.25; stroke-width: 1.5; stroke-linecap: square"/>
   </g>
   <g id="line2d_41">
    <path d="M 219.633727 205.072991 
L 246.813569 226.016765 
" clip-path="url(#p41731becf2)" style="fill: none; stroke: #00dcff; stroke-opacity: 0.25; stroke-width: 1.5; stroke-linecap: square"/>
   </g>
   <g id="line2d_42">
    <path d="M 246.813569 226.016765 
L 295.520612 192.622125 
" clip-path="url(#p41731becf2)" style="fill: none; stroke: #c1feff; stroke-opacity: 0.25; stroke-width: 1.5; stroke-linecap: square"/>
   </g>
   <g id="line2d_43">
    <path d="M 295.520612 192.622125 
L 186.544442 170.586554 
" clip-path="url(#p41731becf2)" style="fill: none; stroke: #c1feff; stroke-opacity: 0.25; stroke-width: 1.5; stroke-linecap: square"/>
   </g>
   <g id="line2d_44">
    <path d="M 198.427978 165.391122 
L 211.038179 176.684208 
" clip-path="url(#p41731becf2)" style="fill: none; stroke: #2c2475; stroke-opacity: 0.25; stroke-width: 1.5; stroke-linecap: square"/>
   </g>
   <g id="line2d_45">
    <path d="M 211.038179 176.684208 
L 242.725104 193.649269 
" clip-path="url(#p41731becf2)" style="fill: none; stroke: #6356db; stroke-opacity: 0.25; stroke-width: 1.5; stroke-linecap: square"/>
   </g>
   <g id="line2d_46">
    <path d="M 242.725104 193.649269 
L 276.922964 235.91454 
" clip-path="url(#p41731becf2)" style="fill: none; stroke: #816bff; stroke-opacity: 0.25; stroke-width: 1.5; stroke-linecap: square"/>
   </g>
   <g id="line2d_47">
    <path d="M 276.922964 235.91454 
L 293.846228 191.977743 
" clip-path="url(#p41731becf2)" style="fill: none; stroke: #cce1ff; stroke-opacity: 0.25; stroke-width: 1.5; stroke-linecap: square"/>
   </g>
   <g id="line2d_48">
    <path d="M 293.846228 191.977743 
L 198.427978 165.391122 
" clip-path="url(#p41731becf2)" style="fill: none; stroke: #cce1ff; stroke-opacity: 0.25; stroke-width: 1.5; stroke-linecap: square"/>
   </g>
   <g id="line2d_49">
    <path d="M 209.890503 151.439146 
L 227.987138 155.66578 
" clip-path="url(#p41731becf2)" style="fill: none; stroke: #590061; stroke-opacity: 0.25; stroke-width: 1.5; stroke-linecap: square"/>
   </g>
   <g id="line2d_50">
    <path d="M 227.987138 155.66578 
L 264.239699 165.150443 
" clip-path="url(#p41731becf2)" style="fill: none; stroke: #aa12b7; stroke-opacity: 0.25; stroke-width: 1.5; stroke-linecap: square"/>
   </g>
   <g id="line2d_51">
    <path d="M 264.239699 165.150443 
L 288.386418 171.692407 
" clip-path="url(#p41731becf2)" style="fill: none; stroke: #e43af4; stroke-opacity: 0.25; stroke-width: 1.5; stroke-linecap: square"/>
   </g>
   <g id="line2d_52">
    <path d="M 288.386418 171.692407 
L 308.556928 180.322234 
" clip-path="url(#p41731becf2)" style="fill: none; stroke: #ffdbff; stroke-opacity: 0.25; stroke-width: 1.5; stroke-linecap: square"/>
   </g>
   <g id="line2d_53">
    <path d="M 308.556928 180.322234 
L 209.890503 151.439146 
" clip-path="url(#p41731becf2)" style="fill: none; stroke: #ffdbff; stroke-opacity: 0.25; stroke-width: 1.5; stroke-linecap: square"/>
   </g>
   <g id="line2d_54">
    <path d="M 214.483721 136.797565 
L 234.837752 133.783466 
" clip-path="url(#p41731becf2)" style="fill: none; stroke: #6a0037; stroke-opacity: 0.25; stroke-width: 1.5; stroke-linecap: square"/>
   </g>
   <g id="line2d_55">
    <path d="M 234.837752 133.783466 
L 267.769976 139.4145 
" clip-path="url(#p41731becf2)" style="fill: none; stroke: #bb1f71; stroke-opacity: 0.25; stroke-width: 1.5; stroke-linecap: square"/>
   </g>
   <g id="line2d_56">
    <path d="M 267.769976 139.4145 
L 298.10998 140.416652 
" clip-path="url(#p41731becf2)" style="fill: none; stroke: #ff21a0; stroke-opacity: 0.25; stroke-width: 1.5; stroke-linecap: square"/>
   </g>
   <g id="line2d_57">
    <path d="M 298.10998 140.416652 
L 311.401747 171.149551 
" clip-path="url(#p41731becf2)" style="fill: none; stroke: #ffd6ef; stroke-opacity: 0.25; stroke-width: 1.5; stroke-linecap: square"/>
   </g>
   <g id="line2d_58">
    <path d="M 311.401747 171.149551 
L 214.483721 136.797565 
" clip-path="url(#p41731becf2)" style="fill: none; stroke: #ffd6ef; stroke-opacity: 0.25; stroke-width: 1.5; stroke-linecap: square"/>
   </g>
   <g id="line2d_59">
    <path d="M 192.317972 161.970978 
L 198.609804 163.797799 
" clip-path="url(#p41731becf2)" style="fill: none; stroke: #0b3340; stroke-opacity: 0.25; stroke-width: 1.5; stroke-linecap: square"/>
   </g>
   <g id="line2d_60">
    <path d="M 198.609804 163.797799 
L 232.158126 169.569419 
" clip-path="url(#p41731becf2)" style="fill: none; stroke: #56707b; stroke-opacity: 0.25; stroke-width: 1.5; stroke-linecap: square"/>
   </g>
   <g id="line2d_61">
    <path d="M 232.158126 169.569419 
L 238.618967 171.436374 
" clip-path="url(#p41731becf2)" style="fill: none; stroke: #627d89; stroke-opacity: 0.25; stroke-width: 1.5; stroke-linecap: square"/>
   </g>
   <g id="line2d_62">
    <path d="M 238.618967 171.436374 
L 254.110072 169.935817 
" clip-path="url(#p41731becf2)" style="fill: none; stroke: #899499; stroke-opacity: 0.25; stroke-width: 1.5; stroke-linecap: square"/>
   </g>
   <g id="line2d_63">
    <path d="M 254.110072 169.935817 
L 260.655658 171.813729 
" clip-path="url(#p41731becf2)" style="fill: none; stroke: #96a1a6; stroke-opacity: 0.25; stroke-width: 1.5; stroke-linecap: square"/>
   </g>
   <g id="line2d_64">
    <path d="M 260.655658 171.813729 
L 302.890592 175.277546 
" clip-path="url(#p41731becf2)" style="fill: none; stroke: #f9f1e0; stroke-opacity: 0.25; stroke-width: 1.5; stroke-linecap: square"/>
   </g>
   <g id="line2d_65">
    <path d="M 302.890592 175.277546 
L 306.925974 176.42341 
" clip-path="url(#p41731becf2)" style="fill: none; stroke: #fff9e8; stroke-opacity: 0.25; stroke-width: 1.5; stroke-linecap: square"/>
   </g>
   <g id="line2d_66">
    <path d="M 306.925974 176.42341 
L 192.317972 161.970978 
" clip-path="url(#p41731becf2)" style="fill: none; stroke: #fff9e8; stroke-opacity: 0.25; stroke-width: 1.5; stroke-linecap: square"/>
   </g>
   <g id="line2d_67">
    <path d="M 179.483403 144.658189 
L 210.781361 153.594519 
" clip-path="url(#p41731becf2)" style="fill: none; stroke: #3a3939; stroke-opacity: 0.25; stroke-width: 1.5; stroke-linecap: square"/>
   </g>
   <g id="line2d_68">
    <path d="M 210.781361 153.594519 
L 242.782695 162.73168 
" clip-path="url(#p41731becf2)" style="fill: none; stroke: #787878; stroke-opacity: 0.25; stroke-width: 1.5; stroke-linecap: square"/>
   </g>
   <g id="line2d_69">
    <path d="M 242.782695 162.73168 
L 275.511386 172.076519 
" clip-path="url(#p41731becf2)" style="fill: none; stroke: #bab9b9; stroke-opacity: 0.25; stroke-width: 1.5; stroke-linecap: square"/>
   </g>
   <g id="line2d_70">
    <path d="M 275.511386 172.076519 
L 308.992516 181.636198 
" clip-path="url(#p41731becf2)" style="fill: none; stroke: #ffffff; stroke-opacity: 0.25; stroke-width: 1.5; stroke-linecap: square"/>
   </g>
   <g id="line2d_71">
    <path d="M 308.992516 181.636198 
L 179.483403 144.658189 
" clip-path="url(#p41731becf2)" style="fill: none; stroke: #ffffff; stroke-opacity: 0.25; stroke-width: 1.5; stroke-linecap: square"/>
   </g>
   <g id="Path3DCollection_1">
    <defs>
     <path id="C0_0_2232ae300a" d="M 0 2.236068 
C 0.593012 2.236068 1.161816 2.000462 1.581139 1.581139 
C 2.000462 1.161816 2.236068 0.593012 2.236068 -0 
C 2.236068 -0.593012 2.000462 -1.161816 1.581139 -1.581139 
C 1.161816 -2.000462 0.593012 -2.236068 0 -2.236068 
C -0.593012 -2.236068 -1.161816 -2.000462 -1.581139 -1.581139 
C -2.000462 -1.161816 -2.236068 -0.593012 -2.236068 0 
C -2.236068 0.593012 -2.000462 1.161816 -1.581139 1.581139 
C -1.161816 2.000462 -0.593012 2.236068 0 2.236068 
z
"/>
    </defs>
    <g clip-path="url(#p41731becf2)">
     <use xlink:href="#C0_0_2232ae300a" x="234.837752" y="133.783466" style="fill: #6a0037; stroke: #6a0037"/>
    </g>
    <g clip-path="url(#p41731becf2)">
     <use xlink:href="#C0_0_2232ae300a" x="214.483721" y="136.797565" style="fill: #40001f; stroke: #40001f"/>
    </g>
    <g clip-path="url(#p41731becf2)">
     <use xlink:href="#C0_0_2232ae300a" x="267.769976" y="139.4145" style="fill: #bb1f71; stroke: #bb1f71"/>
    </g>
    <g clip-path="url(#p41731becf2)">
     <use xlink:href="#C0_0_2232ae300a" x="298.10998" y="140.416652" style="fill: #ff21a0; stroke: #ff21a0"/>
    </g>
    <g clip-path="url(#p41731becf2)">
     <use xlink:href="#C0_0_2232ae300a" x="311.401747" y="171.149551" style="fill: #ffd6ef; stroke: #ffd6ef"/>
    </g>
   </g>
   <g id="Path3DCollection_2">
    <defs>
     <path id="C1_0_1601b83957" d="M 0 2.236068 
C 0.593012 2.236068 1.161816 2.000462 1.581139 1.581139 
C 2.000462 1.161816 2.236068 0.593012 2.236068 -0 
C 2.236068 -0.593012 2.000462 -1.161816 1.581139 -1.581139 
C 1.161816 -2.000462 0.593012 -2.236068 0 -2.236068 
C -0.593012 -2.236068 -1.161816 -2.000462 -1.581139 -1.581139 
C -2.000462 -1.161816 -2.236068 -0.593012 -2.236068 0 
C -2.236068 0.593012 -2.000462 1.161816 -1.581139 1.581139 
C -1.161816 2.000462 -0.593012 2.236068 0 2.236068 
z
"/>
    </defs>
    <g clip-path="url(#p41731becf2)">
     <use xlink:href="#C1_0_1601b83957" x="227.987138" y="155.66578" style="fill: #590061; stroke: #590061"/>
    </g>
    <g clip-path="url(#p41731becf2)">
     <use xlink:href="#C1_0_1601b83957" x="209.890503" y="151.439146" style="fill: #35003a; stroke: #35003a"/>
    </g>
    <g clip-path="url(#p41731becf2)">
     <use xlink:href="#C1_0_1601b83957" x="264.239699" y="165.150443" style="fill: #aa12b7; stroke: #aa12b7"/>
    </g>
    <g clip-path="url(#p41731becf2)">
     <use xlink:href="#C1_0_1601b83957" x="288.386418" y="171.692407" style="fill: #e43af4; stroke: #e43af4"/>
    </g>
    <g clip-path="url(#p41731becf2)">
     <use xlink:href="#C1_0_1601b83957" x="308.556928" y="180.322234" style="fill: #ffdbff; stroke: #ffdbff"/>
    </g>
   </g>
   <g id="Path3DCollection_3">
    <defs>
     <path id="C2_0_28962e4f54" d="M 0 2.236068 
C 0.593012 2.236068 1.161816 2.000462 1.581139 1.581139 
C 2.000462 1.161816 2.236068 0.593012 2.236068 -0 
C 2.236068 -0.593012 2.000462 -1.161816 1.581139 -1.581139 
C 1.161816 -2.000462 0.593012 -2.236068 0 -2.236068 
C -0.593012 -2.236068 -1.161816 -2.000462 -1.581139 -1.581139 
C -2.000462 -1.161816 -2.236068 -0.593012 -2.236068 0 
C -2.236068 0.593012 -2.000462 1.161816 -1.581139 1.581139 
C -1.161816 2.000462 -0.593012 2.236068 0 2.236068 
z
"/>
    </defs>
    <g clip-path="url(#p41731becf2)">
     <use xlink:href="#C2_0_28962e4f54" x="198.427978" y="165.391122" style="fill: #181546; stroke: #181546"/>
    </g>
    <g clip-path="url(#p41731becf2)">
     <use xlink:href="#C2_0_28962e4f54" x="211.038179" y="176.684208" style="fill: #2c2475; stroke: #2c2475"/>
    </g>
    <g clip-path="url(#p41731becf2)">
     <use xlink:href="#C2_0_28962e4f54" x="242.725104" y="193.649269" style="fill: #6356db; stroke: #6356db"/>
    </g>
    <g clip-path="url(#p41731becf2)">
     <use xlink:href="#C2_0_28962e4f54" x="276.922964" y="235.91454" style="fill: #816bff; stroke: #816bff"/>
    </g>
    <g clip-path="url(#p41731becf2)">
     <use xlink:href="#C2_0_28962e4f54" x="293.846228" y="191.977743" style="fill: #cce1ff; stroke: #cce1ff"/>
    </g>
   </g>
   <g id="Path3DCollection_4">
    <defs>
     <path id="C3_0_57333a19ec" d="M 0 2.236068 
C 0.593012 2.236068 1.161816 2.000462 1.581139 1.581139 
C 2.000462 1.161816 2.236068 0.593012 2.236068 -0 
C 2.236068 -0.593012 2.000462 -1.161816 1.581139 -1.581139 
C 1.161816 -2.000462 0.593012 -2.236068 0 -2.236068 
C -0.593012 -2.236068 -1.161816 -2.000462 -1.581139 -1.581139 
C -2.000462 -1.161816 -2.236068 -0.593012 -2.236068 0 
C -2.236068 0.593012 -2.000462 1.161816 -1.581139 1.581139 
C -1.161816 2.000462 -0.593012 2.236068 0 2.236068 
z
"/>
    </defs>
    <g clip-path="url(#p41731becf2)">
     <use xlink:href="#C3_0_57333a19ec" x="209.631975" y="129.703399" style="fill: #3f0600; stroke: #3f0600"/>
    </g>
    <g clip-path="url(#p41731becf2)">
     <use xlink:href="#C3_0_57333a19ec" x="227.834209" y="123.092961" style="fill: #670a00; stroke: #670a00"/>
    </g>
    <g clip-path="url(#p41731becf2)">
     <use xlink:href="#C3_0_57333a19ec" x="264.102965" y="123.652258" style="fill: #c13e28; stroke: #c13e28"/>
    </g>
    <g clip-path="url(#p41731becf2)">
     <use xlink:href="#C3_0_57333a19ec" x="310.834467" y="116.361666" style="fill: #ff5034; stroke: #ff5034"/>
    </g>
    <g clip-path="url(#p41731becf2)">
     <use xlink:href="#C3_0_57333a19ec" x="308.928411" y="166.920564" style="fill: #ffe0d2; stroke: #ffe0d2"/>
    </g>
   </g>
   <g id="Path3DCollection_5">
    <defs>
     <path id="C4_0_e66e525dc0" d="M 0 2.236068 
C 0.593012 2.236068 1.161816 2.000462 1.581139 1.581139 
C 2.000462 1.161816 2.236068 0.593012 2.236068 -0 
C 2.236068 -0.593012 2.000462 -1.161816 1.581139 -1.581139 
C 1.161816 -2.000462 0.593012 -2.236068 0 -2.236068 
C -0.593012 -2.236068 -1.161816 -2.000462 -1.581139 -1.581139 
C -2.000462 -1.161816 -2.236068 -0.593012 -2.236068 0 
C -2.236068 0.593012 -2.000462 1.161816 -1.581139 1.581139 
C -1.161816 2.000462 -0.593012 2.236068 0 2.236068 
z
"/>
    </defs>
    <g clip-path="url(#p41731becf2)">
     <use xlink:href="#C4_0_e66e525dc0" x="179.483403" y="144.658189" style="stroke: #000000"/>
    </g>
    <g clip-path="url(#p41731becf2)">
     <use xlink:href="#C4_0_e66e525dc0" x="210.781361" y="153.594519" style="fill: #3a3939; stroke: #3a3939"/>
    </g>
    <g clip-path="url(#p41731becf2)">
     <use xlink:href="#C4_0_e66e525dc0" x="242.782695" y="162.73168" style="fill: #787878; stroke: #787878"/>
    </g>
    <g clip-path="url(#p41731becf2)">
     <use xlink:href="#C4_0_e66e525dc0" x="275.511386" y="172.076519" style="fill: #bab9b9; stroke: #bab9b9"/>
    </g>
    <g clip-path="url(#p41731becf2)">
     <use xlink:href="#C4_0_e66e525dc0" x="308.992516" y="181.636198" style="fill: #ffffff; stroke: #ffffff"/>
    </g>
   </g>
   <g id="Path3DCollection_6">
    <defs>
     <path id="C5_0_2ca75dcf17" d="M 0 2.236068 
C 0.593012 2.236068 1.161816 2.000462 1.581139 1.581139 
C 2.000462 1.161816 2.236068 0.593012 2.236068 -0 
C 2.236068 -0.593012 2.000462 -1.161816 1.581139 -1.581139 
C 1.161816 -2.000462 0.593012 -2.236068 0 -2.236068 
C -0.593012 -2.236068 -1.161816 -2.000462 -1.581139 -1.581139 
C -2.000462 -1.161816 -2.236068 -0.593012 -2.236068 0 
C -2.236068 0.593012 -2.000462 1.161816 -1.581139 1.581139 
C -1.161816 2.000462 -0.593012 2.236068 0 2.236068 
z
"/>
    </defs>
    <g clip-path="url(#p41731becf2)">
     <use xlink:href="#C5_0_2ca75dcf17" x="192.317972" y="161.970978" style="fill: #002633; stroke: #002633"/>
    </g>
    <g clip-path="url(#p41731becf2)">
     <use xlink:href="#C5_0_2ca75dcf17" x="198.609804" y="163.797799" style="fill: #0b3340; stroke: #0b3340"/>
    </g>
    <g clip-path="url(#p41731becf2)">
     <use xlink:href="#C5_0_2ca75dcf17" x="232.158126" y="169.569419" style="fill: #56707b; stroke: #56707b"/>
    </g>
    <g clip-path="url(#p41731becf2)">
     <use xlink:href="#C5_0_2ca75dcf17" x="238.618967" y="171.436374" style="fill: #627d89; stroke: #627d89"/>
    </g>
    <g clip-path="url(#p41731becf2)">
     <use xlink:href="#C5_0_2ca75dcf17" x="254.110072" y="169.935817" style="fill: #899499; stroke: #899499"/>
    </g>
    <g clip-path="url(#p41731becf2)">
     <use xlink:href="#C5_0_2ca75dcf17" x="260.655658" y="171.813729" style="fill: #96a1a6; stroke: #96a1a6"/>
    </g>
    <g clip-path="url(#p41731becf2)">
     <use xlink:href="#C5_0_2ca75dcf17" x="302.890592" y="175.277546" style="fill: #f9f1e0; stroke: #f9f1e0"/>
    </g>
    <g clip-path="url(#p41731becf2)">
     <use xlink:href="#C5_0_2ca75dcf17" x="306.925974" y="176.42341" style="fill: #fff9e8; stroke: #fff9e8"/>
    </g>
   </g>
   <g id="Path3DCollection_7">
    <defs>
     <path id="C6_0_ad0c735804" d="M 0 2.236068 
C 0.593012 2.236068 1.161816 2.000462 1.581139 1.581139 
C 2.000462 1.161816 2.236068 0.593012 2.236068 -0 
C 2.236068 -0.593012 2.000462 -1.161816 1.581139 -1.581139 
C 1.161816 -2.000462 0.593012 -2.236068 0 -2.236068 
C -0.593012 -2.236068 -1.161816 -2.000462 -1.581139 -1.581139 
C -2.000462 -1.161816 -2.236068 -0.593012 -2.236068 0 
C -2.236068 0.593012 -2.000462 1.161816 -1.581139 1.581139 
C -1.161816 2.000462 -0.593012 2.236068 0 2.236068 
z
"/>
    </defs>
    <g clip-path="url(#p41731becf2)">
     <use xlink:href="#C6_0_ad0c735804" x="186.544442" y="170.586554" style="fill: #002b3d; stroke: #002b3d"/>
    </g>
    <g clip-path="url(#p41731becf2)">
     <use xlink:href="#C6_0_ad0c735804" x="193.326002" y="184.774183" style="fill: #004867; stroke: #004867"/>
    </g>
    <g clip-path="url(#p41731becf2)">
     <use xlink:href="#C6_0_ad0c735804" x="219.633727" y="205.072991" style="fill: #008fc3; stroke: #008fc3"/>
    </g>
    <g clip-path="url(#p41731becf2)">
     <use xlink:href="#C6_0_ad0c735804" x="295.520612" y="192.622125" style="fill: #c1feff; stroke: #c1feff"/>
    </g>
    <g clip-path="url(#p41731becf2)">
     <use xlink:href="#C6_0_ad0c735804" x="246.813569" y="226.016765" style="fill: #00dcff; stroke: #00dcff"/>
    </g>
   </g>
   <g id="Path3DCollection_8">
    <defs>
     <path id="C7_0_f2609dbc68" d="M 0 2.236068 
C 0.593012 2.236068 1.161816 2.000462 1.581139 1.581139 
C 2.000462 1.161816 2.236068 0.593012 2.236068 -0 
C 2.236068 -0.593012 2.000462 -1.161816 1.581139 -1.581139 
C 1.161816 -2.000462 0.593012 -2.236068 0 -2.236068 
C -0.593012 -2.236068 -1.161816 -2.000462 -1.581139 -1.581139 
C -2.000462 -1.161816 -2.236068 -0.593012 -2.236068 0 
C -2.236068 0.593012 -2.000462 1.161816 -1.581139 1.581139 
C -1.161816 2.000462 -0.593012 2.236068 0 2.236068 
z
"/>
    </defs>
    <g clip-path="url(#p41731becf2)">
     <use xlink:href="#C7_0_f2609dbc68" x="197.915155" y="134.406963" style="fill: #2d2000; stroke: #2d2000"/>
    </g>
    <g clip-path="url(#p41731becf2)">
     <use xlink:href="#C7_0_f2609dbc68" x="210.499589" y="130.066045" style="fill: #4d3700; stroke: #4d3700"/>
    </g>
    <g clip-path="url(#p41731becf2)">
     <use xlink:href="#C7_0_f2609dbc68" x="242.806231" y="126.192218" style="fill: #9c7200; stroke: #9c7200"/>
    </g>
    <g clip-path="url(#p41731becf2)">
     <use xlink:href="#C7_0_f2609dbc68" x="302.495828" y="170.153744" style="fill: #fef3c7; stroke: #fef3c7"/>
    </g>
    <g clip-path="url(#p41731becf2)">
     <use xlink:href="#C7_0_f2609dbc68" x="286.320813" y="130.679048" style="fill: #ffc600; stroke: #ffc600"/>
    </g>
   </g>
   <g id="Path3DCollection_9">
    <defs>
     <path id="C8_0_2bae165dd3" d="M 0 2.236068 
C 0.593012 2.236068 1.161816 2.000462 1.581139 1.581139 
C 2.000462 1.161816 2.236068 0.593012 2.236068 -0 
C 2.236068 -0.593012 2.000462 -1.161816 1.581139 -1.581139 
C 1.161816 -2.000462 0.593012 -2.236068 0 -2.236068 
C -0.593012 -2.236068 -1.161816 -2.000462 -1.581139 -1.581139 
C -2.000462 -1.161816 -2.236068 -0.593012 -2.236068 0 
C -2.236068 0.593012 -2.000462 1.161816 -1.581139 1.581139 
C -1.161816 2.000462 -0.593012 2.236068 0 2.236068 
z
"/>
    </defs>
    <g clip-path="url(#p41731becf2)">
     <use xlink:href="#C8_0_2bae165dd3" x="186.072849" y="148.502777" style="fill: #002f00; stroke: #002f00"/>
    </g>
    <g clip-path="url(#p41731becf2)">
     <use xlink:href="#C8_0_2bae165dd3" x="192.700848" y="151.414579" style="fill: #005000; stroke: #005000"/>
    </g>
    <g clip-path="url(#p41731becf2)">
     <use xlink:href="#C8_0_2bae165dd3" x="295.82614" y="179.090504" style="fill: #d6ffd4; stroke: #d6ffd4"/>
    </g>
    <g clip-path="url(#p41731becf2)">
     <use xlink:href="#C8_0_2bae165dd3" x="219.265235" y="160.073268" style="fill: #009c16; stroke: #009c16"/>
    </g>
    <g clip-path="url(#p41731becf2)">
     <use xlink:href="#C8_0_2bae165dd3" x="246.978429" y="169.104032" style="fill: #00f02e; stroke: #00f02e"/>
    </g>
   </g>
   <g id="Path3DCollection_10">
    <defs>
     <path id="C9_0_de1810b859" d="M 0 2.236068 
C 0.593012 2.236068 1.161816 2.000462 1.581139 1.581139 
C 2.000462 1.161816 2.236068 0.593012 2.236068 -0 
C 2.236068 -0.593012 2.000462 -1.161816 1.581139 -1.581139 
C 1.161816 -2.000462 0.593012 -2.236068 0 -2.236068 
C -0.593012 -2.236068 -1.161816 -2.000462 -1.581139 -1.581139 
C -2.000462 -1.161816 -2.236068 -0.593012 -2.236068 0 
C -2.236068 0.593012 -2.000462 1.161816 -1.581139 1.581139 
C -1.161816 2.000462 -0.593012 2.236068 0 2.236068 
z
"/>
    </defs>
    <g clip-path="url(#p41731becf2)">
     <use xlink:href="#C9_0_de1810b859" x="181.312873" y="163.636337" style="fill: #003423; stroke: #003423"/>
    </g>
    <g clip-path="url(#p41731becf2)">
     <use xlink:href="#C9_0_de1810b859" x="185.472456" y="174.414357" style="fill: #00573c; stroke: #00573c"/>
    </g>
    <g clip-path="url(#p41731becf2)">
     <use xlink:href="#C9_0_de1810b859" x="292.91811" y="188.45388" style="fill: #b9fff2; stroke: #b9fff2"/>
    </g>
    <g clip-path="url(#p41731becf2)">
     <use xlink:href="#C9_0_de1810b859" x="209.458976" y="191.372192" style="fill: #00a87c; stroke: #00a87c"/>
    </g>
    <g clip-path="url(#p41731becf2)">
     <use xlink:href="#C9_0_de1810b859" x="234.502618" y="209.052551" style="fill: #00ffc0; stroke: #00ffc0"/>
    </g>
   </g>
  </g>
 </g>
 <defs>
  <clipPath id="p41731becf2">
   <rect x="103.104" y="41.472" width="266.112" height="266.112"/>
  </clipPath>
 </defs>
</svg>
