<?xml version="1.0" encoding="utf-8" standalone="no"?>
<!DOCTYPE svg PUBLIC "-//W3C//DTD SVG 1.1//EN"
  "http://www.w3.org/Graphics/SVG/1.1/DTD/svg11.dtd">
<svg xmlns:xlink="http://www.w3.org/1999/xlink" width="460.8pt" height="345.6pt" viewBox="0 0 460.8 345.6" xmlns="http://www.w3.org/2000/svg" version="1.1">
 <metadata>
  <rdf:RDF xmlns:dc="http://purl.org/dc/elements/1.1/" xmlns:cc="http://creativecommons.org/ns#" xmlns:rdf="http://www.w3.org/1999/02/22-rdf-syntax-ns#">
   <cc:Work>
    <dc:type rdf:resource="http://purl.org/dc/dcmitype/StillImage"/>
    <dc:date>2024-06-03T12:47:09.039815</dc:date>
    <dc:format>image/svg+xml</dc:format>
    <dc:creator>
     <cc:Agent>
      <dc:title>Matplotlib v3.9.0, https://matplotlib.org/</dc:title>
     </cc:Agent>
    </dc:creator>
   </cc:Work>
  </rdf:RDF>
 </metadata>
 <defs>
  <style type="text/css">*{stroke-linejoin: round; stroke-linecap: butt}</style>
 </defs>
 <g id="figure_1">
  <g id="patch_1">
   <path d="M 0 345.6 
L 460.8 345.6 
L 460.8 0 
L 0 0 
z
" style="fill: #ffffff"/>
  </g>
  <g id="patch_2">
   <path d="M 103.104 307.584 
L 369.216 307.584 
L 369.216 41.472 
L 103.104 41.472 
z
" style="fill: #ffffff"/>
  </g>
  <g id="pane3d_1">
   <g id="patch_3">
    <path d="M 123.197291 241.969309 
L 211.076164 168.307495 
L 209.854564 62.073991 
L 117.770234 129.272941 
" style="fill: #f2f2f2; opacity: 0.5; stroke: #f2f2f2; stroke-linejoin: miter"/>
   </g>
  </g>
  <g id="pane3d_2">
   <g id="patch_4">
    <path d="M 211.076164 168.307495 
L 352.090401 209.294766 
L 357.122702 99.402171 
L 209.854564 62.073991 
" style="fill: #e6e6e6; opacity: 0.5; stroke: #e6e6e6; stroke-linejoin: miter"/>
   </g>
  </g>
  <g id="pane3d_3">
   <g id="patch_5">
    <path d="M 123.197291 241.969309 
L 272.679269 290.790123 
L 352.090401 209.294766 
L 211.076164 168.307495 
" style="fill: #ececec; opacity: 0.5; stroke: #ececec; stroke-linejoin: miter"/>
   </g>
  </g>
  <g id="grid3d_1">
   <g id="Line3DCollection_1">
    <path d="M 132.250704 244.926154 
L 219.652219 170.800215 
L 218.79322 64.33968 
" style="fill: none; stroke: #b0b0b0; stroke-width: 0.8"/>
    <path d="M 160.585577 254.180323 
L 246.463407 178.593169 
L 246.752802 71.426619 
" style="fill: none; stroke: #b0b0b0; stroke-width: 0.8"/>
    <path d="M 189.506258 263.625817 
L 273.782614 186.533784 
L 275.265247 78.653692 
" style="fill: none; stroke: #b0b0b0; stroke-width: 0.8"/>
    <path d="M 219.031106 273.268633 
L 301.624418 194.626297 
L 304.347116 86.025098 
" style="fill: none; stroke: #b0b0b0; stroke-width: 0.8"/>
    <path d="M 249.179251 283.115017 
L 330.003958 202.875109 
L 334.015641 93.545205 
" style="fill: none; stroke: #b0b0b0; stroke-width: 0.8"/>
   </g>
  </g>
  <g id="grid3d_2">
   <g id="Line3DCollection_2">
    <path d="M 125.826113 123.394127 
L 130.858664 235.547394 
L 279.630368 283.656586 
" style="fill: none; stroke: #b0b0b0; stroke-width: 0.8"/>
    <path d="M 139.689368 113.277355 
L 144.054924 224.486027 
L 291.590661 271.382382 
" style="fill: none; stroke: #b0b0b0; stroke-width: 0.8"/>
    <path d="M 153.198928 103.418693 
L 156.929015 213.694709 
L 303.243669 259.423529 
" style="fill: none; stroke: #b0b0b0; stroke-width: 0.8"/>
    <path d="M 166.368159 93.808388 
L 169.492593 203.163669 
L 314.601085 247.768027 
" style="fill: none; stroke: #b0b0b0; stroke-width: 0.8"/>
    <path d="M 179.209761 84.437172 
L 181.756758 192.883603 
L 325.674013 236.404478 
" style="fill: none; stroke: #b0b0b0; stroke-width: 0.8"/>
    <path d="M 191.73581 75.296233 
L 193.732087 182.845644 
L 336.473011 225.322049 
" style="fill: none; stroke: #b0b0b0; stroke-width: 0.8"/>
    <path d="M 203.957795 66.377184 
L 205.428666 173.04134 
L 347.00812 214.510436 
" style="fill: none; stroke: #b0b0b0; stroke-width: 0.8"/>
   </g>
  </g>
  <g id="grid3d_3">
   <g id="Line3DCollection_3">
    <path d="M 352.477099 200.85026 
L 210.98211 160.128242 
L 122.780907 233.322822 
" style="fill: none; stroke: #b0b0b0; stroke-width: 0.8"/>
    <path d="M 353.14275 186.314144 
L 210.820278 146.054945 
L 122.063903 218.433777 
" style="fill: none; stroke: #b0b0b0; stroke-width: 0.8"/>
    <path d="M 353.816309 171.605329 
L 210.656616 131.822449 
L 121.338056 203.36108 
" style="fill: none; stroke: #b0b0b0; stroke-width: 0.8"/>
    <path d="M 354.497919 156.720718 
L 210.491091 117.428039 
L 120.603199 188.101313 
" style="fill: none; stroke: #b0b0b0; stroke-width: 0.8"/>
    <path d="M 355.187724 141.65714 
L 210.323673 102.868935 
L 119.859166 172.650972 
" style="fill: none; stroke: #b0b0b0; stroke-width: 0.8"/>
    <path d="M 355.885873 126.411348 
L 210.154329 88.142294 
L 119.105782 157.006462 
" style="fill: none; stroke: #b0b0b0; stroke-width: 0.8"/>
    <path d="M 356.592518 110.980015 
L 209.983024 73.245207 
L 118.34287 141.164102 
" style="fill: none; stroke: #b0b0b0; stroke-width: 0.8"/>
   </g>
  </g>
  <g id="axis3d_1">
   <g id="line2d_1">
    <path d="M 123.197291 241.969309 
L 272.679269 290.790123 
" style="fill: none; stroke: #000000; stroke-width: 0.8; stroke-linecap: square"/>
   </g>
   <g id="xtick_1">
    <g id="line2d_2">
     <path d="M 133.011792 244.280669 
L 130.725263 246.219892 
" style="fill: none; stroke: #000000; stroke-width: 0.8; stroke-linecap: square"/>
    </g>
    <g id="text_1">
     <!-- 0.00 -->
     <g transform="translate(113.588842 268.235303) scale(0.1 -0.1)">
      <defs>
       <path id="DejaVuSans-30" d="M 2034 4250 
Q 1547 4250 1301 3770 
Q 1056 3291 1056 2328 
Q 1056 1369 1301 889 
Q 1547 409 2034 409 
Q 2525 409 2770 889 
Q 3016 1369 3016 2328 
Q 3016 3291 2770 3770 
Q 2525 4250 2034 4250 
z
M 2034 4750 
Q 2819 4750 3233 4129 
Q 3647 3509 3647 2328 
Q 3647 1150 3233 529 
Q 2819 -91 2034 -91 
Q 1250 -91 836 529 
Q 422 1150 422 2328 
Q 422 3509 836 4129 
Q 1250 4750 2034 4750 
z
" transform="scale(0.015625)"/>
       <path id="DejaVuSans-2e" d="M 684 794 
L 1344 794 
L 1344 0 
L 684 0 
L 684 794 
z
" transform="scale(0.015625)"/>
      </defs>
      <use xlink:href="#DejaVuSans-30"/>
      <use xlink:href="#DejaVuSans-2e" x="63.623047"/>
      <use xlink:href="#DejaVuSans-30" x="95.410156"/>
      <use xlink:href="#DejaVuSans-30" x="159.033203"/>
     </g>
    </g>
   </g>
   <g id="xtick_2">
    <g id="line2d_3">
     <path d="M 161.334017 253.521567 
L 159.08545 255.50069 
" style="fill: none; stroke: #000000; stroke-width: 0.8; stroke-linecap: square"/>
    </g>
    <g id="text_2">
     <!-- 0.05 -->
     <g transform="translate(141.952802 277.685573) scale(0.1 -0.1)">
      <defs>
       <path id="DejaVuSans-35" d="M 691 4666 
L 3169 4666 
L 3169 4134 
L 1269 4134 
L 1269 2991 
Q 1406 3038 1543 3061 
Q 1681 3084 1819 3084 
Q 2600 3084 3056 2656 
Q 3513 2228 3513 1497 
Q 3513 744 3044 326 
Q 2575 -91 1722 -91 
Q 1428 -91 1123 -41 
Q 819 9 494 109 
L 494 744 
Q 775 591 1075 516 
Q 1375 441 1709 441 
Q 2250 441 2565 725 
Q 2881 1009 2881 1497 
Q 2881 1984 2565 2268 
Q 2250 2553 1709 2553 
Q 1456 2553 1204 2497 
Q 953 2441 691 2322 
L 691 4666 
z
" transform="scale(0.015625)"/>
      </defs>
      <use xlink:href="#DejaVuSans-30"/>
      <use xlink:href="#DejaVuSans-2e" x="63.623047"/>
      <use xlink:href="#DejaVuSans-30" x="95.410156"/>
      <use xlink:href="#DejaVuSans-35" x="159.033203"/>
     </g>
    </g>
   </g>
   <g id="xtick_3">
    <g id="line2d_4">
     <path d="M 190.241364 262.953377 
L 188.032826 264.973644 
" style="fill: none; stroke: #000000; stroke-width: 0.8; stroke-linecap: square"/>
    </g>
    <g id="text_3">
     <!-- 0.10 -->
     <g transform="translate(170.905397 287.331964) scale(0.1 -0.1)">
      <defs>
       <path id="DejaVuSans-31" d="M 794 531 
L 1825 531 
L 1825 4091 
L 703 3866 
L 703 4441 
L 1819 4666 
L 2450 4666 
L 2450 531 
L 3481 531 
L 3481 0 
L 794 0 
L 794 531 
z
" transform="scale(0.015625)"/>
      </defs>
      <use xlink:href="#DejaVuSans-30"/>
      <use xlink:href="#DejaVuSans-2e" x="63.623047"/>
      <use xlink:href="#DejaVuSans-31" x="95.410156"/>
      <use xlink:href="#DejaVuSans-30" x="159.033203"/>
     </g>
    </g>
   </g>
   <g id="xtick_4">
    <g id="line2d_5">
     <path d="M 219.752154 272.582076 
L 217.585817 274.644784 
" style="fill: none; stroke: #000000; stroke-width: 0.8; stroke-linecap: square"/>
    </g>
    <g id="text_4">
     <!-- 0.15 -->
     <g transform="translate(200.465144 297.180645) scale(0.1 -0.1)">
      <use xlink:href="#DejaVuSans-30"/>
      <use xlink:href="#DejaVuSans-2e" x="63.623047"/>
      <use xlink:href="#DejaVuSans-31" x="95.410156"/>
      <use xlink:href="#DejaVuSans-35" x="159.033203"/>
     </g>
    </g>
   </g>
   <g id="xtick_5">
    <g id="line2d_6">
     <path d="M 249.885482 282.413896 
L 247.76363 284.520395 
" style="fill: none; stroke: #000000; stroke-width: 0.8; stroke-linecap: square"/>
    </g>
    <g id="text_5">
     <!-- 0.20 -->
     <g transform="translate(230.651343 307.238047) scale(0.1 -0.1)">
      <defs>
       <path id="DejaVuSans-32" d="M 1228 531 
L 3431 531 
L 3431 0 
L 469 0 
L 469 531 
Q 828 903 1448 1529 
Q 2069 2156 2228 2338 
Q 2531 2678 2651 2914 
Q 2772 3150 2772 3378 
Q 2772 3750 2511 3984 
Q 2250 4219 1831 4219 
Q 1534 4219 1204 4116 
Q 875 4013 500 3803 
L 500 4441 
Q 881 4594 1212 4672 
Q 1544 4750 1819 4750 
Q 2544 4750 2975 4387 
Q 3406 4025 3406 3419 
Q 3406 3131 3298 2873 
Q 3191 2616 2906 2266 
Q 2828 2175 2409 1742 
Q 1991 1309 1228 531 
z
" transform="scale(0.015625)"/>
      </defs>
      <use xlink:href="#DejaVuSans-30"/>
      <use xlink:href="#DejaVuSans-2e" x="63.623047"/>
      <use xlink:href="#DejaVuSans-32" x="95.410156"/>
      <use xlink:href="#DejaVuSans-30" x="159.033203"/>
     </g>
    </g>
   </g>
  </g>
  <g id="axis3d_2">
   <g id="line2d_7">
    <path d="M 352.090401 209.294766 
L 272.679269 290.790123 
" style="fill: none; stroke: #000000; stroke-width: 0.8; stroke-linecap: square"/>
   </g>
   <g id="xtick_6">
    <g id="line2d_8">
     <path d="M 278.376764 283.2512 
L 282.140811 284.468402 
" style="fill: none; stroke: #000000; stroke-width: 0.8; stroke-linecap: square"/>
    </g>
    <g id="text_6">
     <!-- −0.15 -->
     <g transform="translate(277.168824 304.656171) scale(0.1 -0.1)">
      <defs>
       <path id="DejaVuSans-2212" d="M 678 2272 
L 4684 2272 
L 4684 1741 
L 678 1741 
L 678 2272 
z
" transform="scale(0.015625)"/>
      </defs>
      <use xlink:href="#DejaVuSans-2212"/>
      <use xlink:href="#DejaVuSans-30" x="83.789062"/>
      <use xlink:href="#DejaVuSans-2e" x="147.412109"/>
      <use xlink:href="#DejaVuSans-31" x="179.199219"/>
      <use xlink:href="#DejaVuSans-35" x="242.822266"/>
     </g>
    </g>
   </g>
   <g id="xtick_7">
    <g id="line2d_9">
     <path d="M 290.348291 270.987477 
L 294.078568 272.173199 
" style="fill: none; stroke: #000000; stroke-width: 0.8; stroke-linecap: square"/>
    </g>
    <g id="text_7">
     <!-- −0.10 -->
     <g transform="translate(288.968712 292.200231) scale(0.1 -0.1)">
      <use xlink:href="#DejaVuSans-2212"/>
      <use xlink:href="#DejaVuSans-30" x="83.789062"/>
      <use xlink:href="#DejaVuSans-2e" x="147.412109"/>
      <use xlink:href="#DejaVuSans-31" x="179.199219"/>
      <use xlink:href="#DejaVuSans-30" x="242.822266"/>
     </g>
    </g>
   </g>
   <g id="xtick_8">
    <g id="line2d_10">
     <path d="M 302.012372 259.038702 
L 305.709361 260.19415 
" style="fill: none; stroke: #000000; stroke-width: 0.8; stroke-linecap: square"/>
    </g>
    <g id="text_8">
     <!-- −0.05 -->
     <g transform="translate(300.465258 280.064496) scale(0.1 -0.1)">
      <use xlink:href="#DejaVuSans-2212"/>
      <use xlink:href="#DejaVuSans-30" x="83.789062"/>
      <use xlink:href="#DejaVuSans-2e" x="147.412109"/>
      <use xlink:href="#DejaVuSans-30" x="179.199219"/>
      <use xlink:href="#DejaVuSans-35" x="242.822266"/>
     </g>
    </g>
   </g>
   <g id="xtick_9">
    <g id="line2d_11">
     <path d="M 313.380702 247.392898 
L 317.044881 248.519216 
" style="fill: none; stroke: #000000; stroke-width: 0.8; stroke-linecap: square"/>
    </g>
    <g id="text_9">
     <!-- 0.00 -->
     <g transform="translate(315.859857 268.236776) scale(0.1 -0.1)">
      <use xlink:href="#DejaVuSans-30"/>
      <use xlink:href="#DejaVuSans-2e" x="63.623047"/>
      <use xlink:href="#DejaVuSans-30" x="95.410156"/>
      <use xlink:href="#DejaVuSans-30" x="159.033203"/>
     </g>
    </g>
   </g>
   <g id="xtick_10">
    <g id="line2d_12">
     <path d="M 324.464388 236.038685 
L 328.09623 237.136962 
" style="fill: none; stroke: #000000; stroke-width: 0.8; stroke-linecap: square"/>
    </g>
    <g id="text_10">
     <!-- 0.05 -->
     <g transform="translate(326.783789 256.705492) scale(0.1 -0.1)">
      <use xlink:href="#DejaVuSans-30"/>
      <use xlink:href="#DejaVuSans-2e" x="63.623047"/>
      <use xlink:href="#DejaVuSans-30" x="95.410156"/>
      <use xlink:href="#DejaVuSans-35" x="159.033203"/>
     </g>
    </g>
   </g>
   <g id="xtick_11">
    <g id="line2d_13">
     <path d="M 335.273988 224.965248 
L 338.873962 226.036517 
" style="fill: none; stroke: #000000; stroke-width: 0.8; stroke-linecap: square"/>
    </g>
    <g id="text_11">
     <!-- 0.10 -->
     <g transform="translate(337.437326 245.459637) scale(0.1 -0.1)">
      <use xlink:href="#DejaVuSans-30"/>
      <use xlink:href="#DejaVuSans-2e" x="63.623047"/>
      <use xlink:href="#DejaVuSans-31" x="95.410156"/>
      <use xlink:href="#DejaVuSans-30" x="159.033203"/>
     </g>
    </g>
   </g>
   <g id="xtick_12">
    <g id="line2d_14">
     <path d="M 345.819545 214.162298 
L 349.388115 215.207544 
" style="fill: none; stroke: #000000; stroke-width: 0.8; stroke-linecap: square"/>
    </g>
    <g id="text_12">
     <!-- 0.15 -->
     <g transform="translate(347.830384 234.488742) scale(0.1 -0.1)">
      <use xlink:href="#DejaVuSans-30"/>
      <use xlink:href="#DejaVuSans-2e" x="63.623047"/>
      <use xlink:href="#DejaVuSans-31" x="95.410156"/>
      <use xlink:href="#DejaVuSans-35" x="159.033203"/>
     </g>
    </g>
   </g>
  </g>
  <g id="axis3d_3">
   <g id="line2d_15">
    <path d="M 352.090401 209.294766 
L 357.122702 99.402171 
" style="fill: none; stroke: #000000; stroke-width: 0.8; stroke-linecap: square"/>
   </g>
   <g id="xtick_13">
    <g id="line2d_16">
     <path d="M 351.289375 200.508435 
L 354.855381 201.534725 
" style="fill: none; stroke: #000000; stroke-width: 0.8; stroke-linecap: square"/>
    </g>
    <g id="text_13">
     <!-- −0.15 -->
     <g transform="translate(355.464549 205.860165) scale(0.1 -0.1)">
      <use xlink:href="#DejaVuSans-2212"/>
      <use xlink:href="#DejaVuSans-30" x="83.789062"/>
      <use xlink:href="#DejaVuSans-2e" x="147.412109"/>
      <use xlink:href="#DejaVuSans-31" x="179.199219"/>
      <use xlink:href="#DejaVuSans-35" x="242.822266"/>
     </g>
    </g>
   </g>
   <g id="xtick_14">
    <g id="line2d_17">
     <path d="M 351.947749 185.976111 
L 355.535621 186.991023 
" style="fill: none; stroke: #000000; stroke-width: 0.8; stroke-linecap: square"/>
    </g>
    <g id="text_14">
     <!-- −0.10 -->
     <g transform="translate(356.235985 191.352799) scale(0.1 -0.1)">
      <use xlink:href="#DejaVuSans-2212"/>
      <use xlink:href="#DejaVuSans-30" x="83.789062"/>
      <use xlink:href="#DejaVuSans-2e" x="147.412109"/>
      <use xlink:href="#DejaVuSans-31" x="179.199219"/>
      <use xlink:href="#DejaVuSans-30" x="242.822266"/>
     </g>
    </g>
   </g>
   <g id="xtick_15">
    <g id="line2d_18">
     <path d="M 352.613942 171.271201 
L 356.223948 172.274392 
" style="fill: none; stroke: #000000; stroke-width: 0.8; stroke-linecap: square"/>
    </g>
    <g id="text_15">
     <!-- −0.05 -->
     <g transform="translate(357.016558 176.6736) scale(0.1 -0.1)">
      <use xlink:href="#DejaVuSans-2212"/>
      <use xlink:href="#DejaVuSans-30" x="83.789062"/>
      <use xlink:href="#DejaVuSans-2e" x="147.412109"/>
      <use xlink:href="#DejaVuSans-30" x="179.199219"/>
      <use xlink:href="#DejaVuSans-35" x="242.822266"/>
     </g>
    </g>
   </g>
   <g id="xtick_16">
    <g id="line2d_19">
     <path d="M 353.288093 156.390613 
L 356.920509 157.381728 
" style="fill: none; stroke: #000000; stroke-width: 0.8; stroke-linecap: square"/>
    </g>
    <g id="text_16">
     <!-- 0.00 -->
     <g transform="translate(361.996275 161.819496) scale(0.1 -0.1)">
      <use xlink:href="#DejaVuSans-30"/>
      <use xlink:href="#DejaVuSans-2e" x="63.623047"/>
      <use xlink:href="#DejaVuSans-30" x="95.410156"/>
      <use xlink:href="#DejaVuSans-30" x="159.033203"/>
     </g>
    </g>
   </g>
   <g id="xtick_17">
    <g id="line2d_20">
     <path d="M 353.970347 141.33118 
L 357.625452 142.309856 
" style="fill: none; stroke: #000000; stroke-width: 0.8; stroke-linecap: square"/>
    </g>
    <g id="text_17">
     <!-- 0.05 -->
     <g transform="translate(362.795617 146.787342) scale(0.1 -0.1)">
      <use xlink:href="#DejaVuSans-30"/>
      <use xlink:href="#DejaVuSans-2e" x="63.623047"/>
      <use xlink:href="#DejaVuSans-30" x="95.410156"/>
      <use xlink:href="#DejaVuSans-35" x="159.033203"/>
     </g>
    </g>
   </g>
   <g id="xtick_18">
    <g id="line2d_21">
     <path d="M 354.660851 126.089657 
L 358.338929 127.055519 
" style="fill: none; stroke: #000000; stroke-width: 0.8; stroke-linecap: square"/>
    </g>
    <g id="text_18">
     <!-- 0.10 -->
     <g transform="translate(363.604598 131.573918) scale(0.1 -0.1)">
      <use xlink:href="#DejaVuSans-30"/>
      <use xlink:href="#DejaVuSans-2e" x="63.623047"/>
      <use xlink:href="#DejaVuSans-31" x="95.410156"/>
      <use xlink:href="#DejaVuSans-30" x="159.033203"/>
     </g>
    </g>
   </g>
   <g id="xtick_19">
    <g id="line2d_22">
     <path d="M 355.359754 110.662723 
L 359.061097 111.615386 
" style="fill: none; stroke: #000000; stroke-width: 0.8; stroke-linecap: square"/>
    </g>
    <g id="text_19">
     <!-- 0.15 -->
     <g transform="translate(364.423394 116.175924) scale(0.1 -0.1)">
      <use xlink:href="#DejaVuSans-30"/>
      <use xlink:href="#DejaVuSans-2e" x="63.623047"/>
      <use xlink:href="#DejaVuSans-31" x="95.410156"/>
      <use xlink:href="#DejaVuSans-35" x="159.033203"/>
     </g>
    </g>
   </g>
  </g>
  <g id="axes_1">
   <g id="line2d_23">
    <path d="M 204.108683 137.060697 
L 223.557373 123.328488 
" clip-path="url(#p40e4db0e5e)" style="fill: none; stroke: #670000; stroke-opacity: 0.25; stroke-width: 1.5; stroke-linecap: square"/>
   </g>
   <g id="line2d_24">
    <path d="M 223.557373 123.328488 
L 254.172405 126.902718 
" clip-path="url(#p40e4db0e5e)" style="fill: none; stroke: #b42a13; stroke-opacity: 0.25; stroke-width: 1.5; stroke-linecap: square"/>
   </g>
   <g id="line2d_25">
    <path d="M 254.172405 126.902718 
L 292.449341 125.943508 
" clip-path="url(#p40e4db0e5e)" style="fill: none; stroke: #ff5236; stroke-opacity: 0.25; stroke-width: 1.5; stroke-linecap: square"/>
   </g>
   <g id="line2d_26">
    <path d="M 292.449341 125.943508 
L 299.070434 173.638709 
" clip-path="url(#p40e4db0e5e)" style="fill: none; stroke: #ffd3c5; stroke-opacity: 0.25; stroke-width: 1.5; stroke-linecap: square"/>
   </g>
   <g id="line2d_27">
    <path d="M 299.070434 173.638709 
L 204.108683 137.060697 
" clip-path="url(#p40e4db0e5e)" style="fill: none; stroke: #ffd3c5; stroke-opacity: 0.25; stroke-width: 1.5; stroke-linecap: square"/>
   </g>
   <g id="line2d_28">
    <path d="M 193.467281 140.170468 
L 204.663769 128.663387 
" clip-path="url(#p40e4db0e5e)" style="fill: none; stroke: #4a2e00; stroke-opacity: 0.25; stroke-width: 1.5; stroke-linecap: square"/>
   </g>
   <g id="line2d_29">
    <path d="M 204.663769 128.663387 
L 233.726102 131.121295 
" clip-path="url(#p40e4db0e5e)" style="fill: none; stroke: #8b6600; stroke-opacity: 0.25; stroke-width: 1.5; stroke-linecap: square"/>
   </g>
   <g id="line2d_30">
    <path d="M 233.726102 131.121295 
L 272.668368 129.838026 
" clip-path="url(#p40e4db0e5e)" style="fill: none; stroke: #ebaf00; stroke-opacity: 0.25; stroke-width: 1.5; stroke-linecap: square"/>
   </g>
   <g id="line2d_31">
    <path d="M 272.668368 129.838026 
L 293.229381 175.853335 
" clip-path="url(#p40e4db0e5e)" style="fill: none; stroke: #efe5ba; stroke-opacity: 0.25; stroke-width: 1.5; stroke-linecap: square"/>
   </g>
   <g id="line2d_32">
    <path d="M 293.229381 175.853335 
L 193.467281 140.170468 
" clip-path="url(#p40e4db0e5e)" style="fill: none; stroke: #efe5ba; stroke-opacity: 0.25; stroke-width: 1.5; stroke-linecap: square"/>
   </g>
   <g id="line2d_33">
    <path d="M 182.795764 154.130891 
L 185.303678 154.039457 
" clip-path="url(#p40e4db0e5e)" style="fill: none; stroke: #004c00; stroke-opacity: 0.25; stroke-width: 1.5; stroke-linecap: square"/>
   </g>
   <g id="line2d_34">
    <path d="M 185.303678 154.039457 
L 212.438637 161.65147 
" clip-path="url(#p40e4db0e5e)" style="fill: none; stroke: #008e00; stroke-opacity: 0.25; stroke-width: 1.5; stroke-linecap: square"/>
   </g>
   <g id="line2d_35">
    <path d="M 212.438637 161.65147 
L 236.006666 167.798139 
" clip-path="url(#p40e4db0e5e)" style="fill: none; stroke: #00da00; stroke-opacity: 0.25; stroke-width: 1.5; stroke-linecap: square"/>
   </g>
   <g id="line2d_36">
    <path d="M 236.006666 167.798139 
L 287.169928 184.660146 
" clip-path="url(#p40e4db0e5e)" style="fill: none; stroke: #c9f5c7; stroke-opacity: 0.25; stroke-width: 1.5; stroke-linecap: square"/>
   </g>
   <g id="line2d_37">
    <path d="M 287.169928 184.660146 
L 182.795764 154.130891 
" clip-path="url(#p40e4db0e5e)" style="fill: none; stroke: #c9f5c7; stroke-opacity: 0.25; stroke-width: 1.5; stroke-linecap: square"/>
   </g>
   <g id="line2d_38">
    <path d="M 178.584153 170.675443 
L 177.594974 184.308799 
" clip-path="url(#p40e4db0e5e)" style="fill: none; stroke: #005536; stroke-opacity: 0.25; stroke-width: 1.5; stroke-linecap: square"/>
   </g>
   <g id="line2d_39">
    <path d="M 177.594974 184.308799 
L 203.717107 195.727851 
" clip-path="url(#p40e4db0e5e)" style="fill: none; stroke: #00996f; stroke-opacity: 0.25; stroke-width: 1.5; stroke-linecap: square"/>
   </g>
   <g id="line2d_40">
    <path d="M 203.717107 195.727851 
L 224.393454 212.978811 
" clip-path="url(#p40e4db0e5e)" style="fill: none; stroke: #00ecac; stroke-opacity: 0.25; stroke-width: 1.5; stroke-linecap: square"/>
   </g>
   <g id="line2d_41">
    <path d="M 224.393454 212.978811 
L 284.522771 194.86245 
" clip-path="url(#p40e4db0e5e)" style="fill: none; stroke: #adf9e5; stroke-opacity: 0.25; stroke-width: 1.5; stroke-linecap: square"/>
   </g>
   <g id="line2d_42">
    <path d="M 284.522771 194.86245 
L 178.584153 170.675443 
" clip-path="url(#p40e4db0e5e)" style="fill: none; stroke: #adf9e5; stroke-opacity: 0.25; stroke-width: 1.5; stroke-linecap: square"/>
   </g>
   <g id="line2d_43">
    <path d="M 183.377715 179.757183 
L 186.313553 200.559307 
" clip-path="url(#p40e4db0e5e)" style="fill: none; stroke: #004269; stroke-opacity: 0.25; stroke-width: 1.5; stroke-linecap: square"/>
   </g>
   <g id="line2d_44">
    <path d="M 186.313553 200.559307 
L 213.007938 213.767272 
" clip-path="url(#p40e4db0e5e)" style="fill: none; stroke: #0081b3; stroke-opacity: 0.25; stroke-width: 1.5; stroke-linecap: square"/>
   </g>
   <g id="line2d_45">
    <path d="M 213.007938 213.767272 
L 236.109645 236.312159 
" clip-path="url(#p40e4db0e5e)" style="fill: none; stroke: #00c6ff; stroke-opacity: 0.25; stroke-width: 1.5; stroke-linecap: square"/>
   </g>
   <g id="line2d_46">
    <path d="M 236.109645 236.312159 
L 286.869719 200.34828 
" clip-path="url(#p40e4db0e5e)" style="fill: none; stroke: #b5f0ff; stroke-opacity: 0.25; stroke-width: 1.5; stroke-linecap: square"/>
   </g>
   <g id="line2d_47">
    <path d="M 286.869719 200.34828 
L 183.377715 179.757183 
" clip-path="url(#p40e4db0e5e)" style="fill: none; stroke: #b5f0ff; stroke-opacity: 0.25; stroke-width: 1.5; stroke-linecap: square"/>
   </g>
   <g id="line2d_48">
    <path d="M 194.127693 176.155473 
L 205.563397 193.618066 
" clip-path="url(#p40e4db0e5e)" style="fill: none; stroke: #27097a; stroke-opacity: 0.25; stroke-width: 1.5; stroke-linecap: square"/>
   </g>
   <g id="line2d_49">
    <path d="M 205.563397 193.618066 
L 233.903657 205.655054 
" clip-path="url(#p40e4db0e5e)" style="fill: none; stroke: #5849cb; stroke-opacity: 0.25; stroke-width: 1.5; stroke-linecap: square"/>
   </g>
   <g id="line2d_50">
    <path d="M 233.903657 205.655054 
L 262.664374 224.960968 
" clip-path="url(#p40e4db0e5e)" style="fill: none; stroke: #8b69ff; stroke-opacity: 0.25; stroke-width: 1.5; stroke-linecap: square"/>
   </g>
   <g id="line2d_51">
    <path d="M 262.664374 224.960968 
L 292.754309 197.944413 
" clip-path="url(#p40e4db0e5e)" style="fill: none; stroke: #d8deff; stroke-opacity: 0.25; stroke-width: 1.5; stroke-linecap: square"/>
   </g>
   <g id="line2d_52">
    <path d="M 292.754309 197.944413 
L 194.127693 176.155473 
" clip-path="url(#p40e4db0e5e)" style="fill: none; stroke: #d8deff; stroke-opacity: 0.25; stroke-width: 1.5; stroke-linecap: square"/>
   </g>
   <g id="line2d_53">
    <path d="M 204.46532 162.325538 
L 223.846657 168.672147 
" clip-path="url(#p40e4db0e5e)" style="fill: none; stroke: #570061; stroke-opacity: 0.25; stroke-width: 1.5; stroke-linecap: square"/>
   </g>
   <g id="line2d_54">
    <path d="M 223.846657 168.672147 
L 253.397813 177.364785 
" clip-path="url(#p40e4db0e5e)" style="fill: none; stroke: #9b00a8; stroke-opacity: 0.25; stroke-width: 1.5; stroke-linecap: square"/>
   </g>
   <g id="line2d_55">
    <path d="M 253.397813 177.364785 
L 288.033282 187.988662 
" clip-path="url(#p40e4db0e5e)" style="fill: none; stroke: #f100ff; stroke-opacity: 0.25; stroke-width: 1.5; stroke-linecap: square"/>
   </g>
   <g id="line2d_56">
    <path d="M 288.033282 187.988662 
L 298.699748 189.19219 
" clip-path="url(#p40e4db0e5e)" style="fill: none; stroke: #facefe; stroke-opacity: 0.25; stroke-width: 1.5; stroke-linecap: square"/>
   </g>
   <g id="line2d_57">
    <path d="M 298.699748 189.19219 
L 204.46532 162.325538 
" clip-path="url(#p40e4db0e5e)" style="fill: none; stroke: #facefe; stroke-opacity: 0.25; stroke-width: 1.5; stroke-linecap: square"/>
   </g>
   <g id="line2d_58">
    <path d="M 208.568341 146.273017 
L 231.198973 140.010128 
" clip-path="url(#p40e4db0e5e)" style="fill: none; stroke: #690030; stroke-opacity: 0.25; stroke-width: 1.5; stroke-linecap: square"/>
   </g>
   <g id="line2d_59">
    <path d="M 231.198973 140.010128 
L 261.463796 146.090042 
" clip-path="url(#p40e4db0e5e)" style="fill: none; stroke: #b60067; stroke-opacity: 0.25; stroke-width: 1.5; stroke-linecap: square"/>
   </g>
   <g id="line2d_60">
    <path d="M 261.463796 146.090042 
L 297.993414 147.068185 
" clip-path="url(#p40e4db0e5e)" style="fill: none; stroke: #ff009f; stroke-opacity: 0.25; stroke-width: 1.5; stroke-linecap: square"/>
   </g>
   <g id="line2d_61">
    <path d="M 297.993414 147.068185 
L 301.303365 179.17914 
" clip-path="url(#p40e4db0e5e)" style="fill: none; stroke: #ffc9e1; stroke-opacity: 0.25; stroke-width: 1.5; stroke-linecap: square"/>
   </g>
   <g id="line2d_62">
    <path d="M 301.303365 179.17914 
L 208.568341 146.273017 
" clip-path="url(#p40e4db0e5e)" style="fill: none; stroke: #ffc9e1; stroke-opacity: 0.25; stroke-width: 1.5; stroke-linecap: square"/>
   </g>
   <g id="line2d_63">
    <path d="M 186.966206 174.663402 
L 193.007069 176.412962 
" clip-path="url(#p40e4db0e5e)" style="fill: none; stroke: #003341; stroke-opacity: 0.25; stroke-width: 1.5; stroke-linecap: square"/>
   </g>
   <g id="line2d_64">
    <path d="M 193.007069 176.412962 
L 226.293037 178.140237 
" clip-path="url(#p40e4db0e5e)" style="fill: none; stroke: #4d6b74; stroke-opacity: 0.25; stroke-width: 1.5; stroke-linecap: square"/>
   </g>
   <g id="line2d_65">
    <path d="M 226.293037 178.140237 
L 232.698143 179.222772 
" clip-path="url(#p40e4db0e5e)" style="fill: none; stroke: #5b777f; stroke-opacity: 0.25; stroke-width: 1.5; stroke-linecap: square"/>
   </g>
   <g id="line2d_66">
    <path d="M 232.698143 179.222772 
L 246.716892 177.981601 
" clip-path="url(#p40e4db0e5e)" style="fill: none; stroke: #7e8d8e; stroke-opacity: 0.25; stroke-width: 1.5; stroke-linecap: square"/>
   </g>
   <g id="line2d_67">
    <path d="M 246.716892 177.981601 
L 253.11232 179.643877 
" clip-path="url(#p40e4db0e5e)" style="fill: none; stroke: #8a9a9b; stroke-opacity: 0.25; stroke-width: 1.5; stroke-linecap: square"/>
   </g>
   <g id="line2d_68">
    <path d="M 253.11232 179.643877 
L 298.518562 183.447197 
" clip-path="url(#p40e4db0e5e)" style="fill: none; stroke: #f5eddc; stroke-opacity: 0.25; stroke-width: 1.5; stroke-linecap: square"/>
   </g>
   <g id="line2d_69">
    <path d="M 298.518562 183.447197 
L 303.348507 184.860416 
" clip-path="url(#p40e4db0e5e)" style="fill: none; stroke: #fff7e6; stroke-opacity: 0.25; stroke-width: 1.5; stroke-linecap: square"/>
   </g>
   <g id="line2d_70">
    <path d="M 303.348507 184.860416 
L 186.966206 174.663402 
" clip-path="url(#p40e4db0e5e)" style="fill: none; stroke: #fff7e6; stroke-opacity: 0.25; stroke-width: 1.5; stroke-linecap: square"/>
   </g>
   <g id="line2d_71">
    <path d="M 176.988566 153.435519 
L 207.043786 161.673472 
" clip-path="url(#p40e4db0e5e)" style="fill: none; stroke: #383636; stroke-opacity: 0.25; stroke-width: 1.5; stroke-linecap: square"/>
   </g>
   <g id="line2d_72">
    <path d="M 207.043786 161.673472 
L 237.106819 170.100881 
" clip-path="url(#p40e4db0e5e)" style="fill: none; stroke: #727070; stroke-opacity: 0.25; stroke-width: 1.5; stroke-linecap: square"/>
   </g>
   <g id="line2d_73">
    <path d="M 237.106819 170.100881 
L 269.335485 179.216302 
" clip-path="url(#p40e4db0e5e)" style="fill: none; stroke: #b4b0b0; stroke-opacity: 0.25; stroke-width: 1.5; stroke-linecap: square"/>
   </g>
   <g id="line2d_74">
    <path d="M 269.335485 179.216302 
L 306.341353 190.882145 
" clip-path="url(#p40e4db0e5e)" style="fill: none; stroke: #ffffff; stroke-opacity: 0.25; stroke-width: 1.5; stroke-linecap: square"/>
   </g>
   <g id="line2d_75">
    <path d="M 306.341353 190.882145 
L 176.988566 153.435519 
" clip-path="url(#p40e4db0e5e)" style="fill: none; stroke: #ffffff; stroke-opacity: 0.25; stroke-width: 1.5; stroke-linecap: square"/>
   </g>
   <g id="Path3DCollection_1">
    <defs>
     <path id="C0_0_6056fae627" d="M 0 2.236068 
C 0.593012 2.236068 1.161816 2.000462 1.581139 1.581139 
C 2.000462 1.161816 2.236068 0.593012 2.236068 -0 
C 2.236068 -0.593012 2.000462 -1.161816 1.581139 -1.581139 
C 1.161816 -2.000462 0.593012 -2.236068 0 -2.236068 
C -0.593012 -2.236068 -1.161816 -2.000462 -1.581139 -1.581139 
C -2.000462 -1.161816 -2.236068 -0.593012 -2.236068 0 
C -2.236068 0.593012 -2.000462 1.161816 -1.581139 1.581139 
C -1.161816 2.000462 -0.593012 2.236068 0 2.236068 
z
"/>
    </defs>
    <g clip-path="url(#p40e4db0e5e)">
     <use xlink:href="#C0_0_6056fae627" x="223.846657" y="168.672147" style="fill: #570061; stroke: #570061"/>
    </g>
    <g clip-path="url(#p40e4db0e5e)">
     <use xlink:href="#C0_0_6056fae627" x="288.033282" y="187.988662" style="fill: #f100ff; stroke: #f100ff"/>
    </g>
    <g clip-path="url(#p40e4db0e5e)">
     <use xlink:href="#C0_0_6056fae627" x="253.397813" y="177.364785" style="fill: #9b00a8; stroke: #9b00a8"/>
    </g>
    <g clip-path="url(#p40e4db0e5e)">
     <use xlink:href="#C0_0_6056fae627" x="204.46532" y="162.325538" style="fill: #310036; stroke: #310036"/>
    </g>
    <g clip-path="url(#p40e4db0e5e)">
     <use xlink:href="#C0_0_6056fae627" x="298.699748" y="189.19219" style="fill: #facefe; stroke: #facefe"/>
    </g>
   </g>
   <g id="Path3DCollection_2">
    <defs>
     <path id="C1_0_8e5f760046" d="M 0 2.236068 
C 0.593012 2.236068 1.161816 2.000462 1.581139 1.581139 
C 2.000462 1.161816 2.236068 0.593012 2.236068 -0 
C 2.236068 -0.593012 2.000462 -1.161816 1.581139 -1.581139 
C 1.161816 -2.000462 0.593012 -2.236068 0 -2.236068 
C -0.593012 -2.236068 -1.161816 -2.000462 -1.581139 -1.581139 
C -2.000462 -1.161816 -2.236068 -0.593012 -2.236068 0 
C -2.236068 0.593012 -2.000462 1.161816 -1.581139 1.581139 
C -1.161816 2.000462 -0.593012 2.236068 0 2.236068 
z
"/>
    </defs>
    <g clip-path="url(#p40e4db0e5e)">
     <use xlink:href="#C1_0_8e5f760046" x="231.198973" y="140.010128" style="fill: #690030; stroke: #690030"/>
    </g>
    <g clip-path="url(#p40e4db0e5e)">
     <use xlink:href="#C1_0_8e5f760046" x="261.463796" y="146.090042" style="fill: #b60067; stroke: #b60067"/>
    </g>
    <g clip-path="url(#p40e4db0e5e)">
     <use xlink:href="#C1_0_8e5f760046" x="208.568341" y="146.273017" style="fill: #3c001c; stroke: #3c001c"/>
    </g>
    <g clip-path="url(#p40e4db0e5e)">
     <use xlink:href="#C1_0_8e5f760046" x="297.993414" y="147.068185" style="fill: #ff009f; stroke: #ff009f"/>
    </g>
    <g clip-path="url(#p40e4db0e5e)">
     <use xlink:href="#C1_0_8e5f760046" x="301.303365" y="179.17914" style="fill: #ffc9e1; stroke: #ffc9e1"/>
    </g>
   </g>
   <g id="Path3DCollection_3">
    <defs>
     <path id="C2_0_dff2cbe62f" d="M 0 2.236068 
C 0.593012 2.236068 1.161816 2.000462 1.581139 1.581139 
C 2.000462 1.161816 2.236068 0.593012 2.236068 -0 
C 2.236068 -0.593012 2.000462 -1.161816 1.581139 -1.581139 
C 1.161816 -2.000462 0.593012 -2.236068 0 -2.236068 
C -0.593012 -2.236068 -1.161816 -2.000462 -1.581139 -1.581139 
C -2.000462 -1.161816 -2.236068 -0.593012 -2.236068 0 
C -2.236068 0.593012 -2.000462 1.161816 -1.581139 1.581139 
C -1.161816 2.000462 -0.593012 2.236068 0 2.236068 
z
"/>
    </defs>
    <g clip-path="url(#p40e4db0e5e)">
     <use xlink:href="#C2_0_dff2cbe62f" x="205.563397" y="193.618066" style="fill: #27097a; stroke: #27097a"/>
    </g>
    <g clip-path="url(#p40e4db0e5e)">
     <use xlink:href="#C2_0_dff2cbe62f" x="194.127693" y="176.155473" style="fill: #141142; stroke: #141142"/>
    </g>
    <g clip-path="url(#p40e4db0e5e)">
     <use xlink:href="#C2_0_dff2cbe62f" x="233.903657" y="205.655054" style="fill: #5849cb; stroke: #5849cb"/>
    </g>
    <g clip-path="url(#p40e4db0e5e)">
     <use xlink:href="#C2_0_dff2cbe62f" x="262.664374" y="224.960968" style="fill: #8b69ff; stroke: #8b69ff"/>
    </g>
    <g clip-path="url(#p40e4db0e5e)">
     <use xlink:href="#C2_0_dff2cbe62f" x="292.754309" y="197.944413" style="fill: #d8deff; stroke: #d8deff"/>
    </g>
   </g>
   <g id="Path3DCollection_4">
    <defs>
     <path id="C3_0_7fc4857acc" d="M 0 2.236068 
C 0.593012 2.236068 1.161816 2.000462 1.581139 1.581139 
C 2.000462 1.161816 2.236068 0.593012 2.236068 -0 
C 2.236068 -0.593012 2.000462 -1.161816 1.581139 -1.581139 
C 1.161816 -2.000462 0.593012 -2.236068 0 -2.236068 
C -0.593012 -2.236068 -1.161816 -2.000462 -1.581139 -1.581139 
C -2.000462 -1.161816 -2.236068 -0.593012 -2.236068 0 
C -2.236068 0.593012 -2.000462 1.161816 -1.581139 1.581139 
C -1.161816 2.000462 -0.593012 2.236068 0 2.236068 
z
"/>
    </defs>
    <g clip-path="url(#p40e4db0e5e)">
     <use xlink:href="#C3_0_7fc4857acc" x="223.557373" y="123.328488" style="fill: #670000; stroke: #670000"/>
    </g>
    <g clip-path="url(#p40e4db0e5e)">
     <use xlink:href="#C3_0_7fc4857acc" x="204.108683" y="137.060697" style="fill: #3a0200; stroke: #3a0200"/>
    </g>
    <g clip-path="url(#p40e4db0e5e)">
     <use xlink:href="#C3_0_7fc4857acc" x="254.172405" y="126.902718" style="fill: #b42a13; stroke: #b42a13"/>
    </g>
    <g clip-path="url(#p40e4db0e5e)">
     <use xlink:href="#C3_0_7fc4857acc" x="292.449341" y="125.943508" style="fill: #ff5236; stroke: #ff5236"/>
    </g>
    <g clip-path="url(#p40e4db0e5e)">
     <use xlink:href="#C3_0_7fc4857acc" x="299.070434" y="173.638709" style="fill: #ffd3c5; stroke: #ffd3c5"/>
    </g>
   </g>
   <g id="Path3DCollection_5">
    <defs>
     <path id="C4_0_c62d8e80c4" d="M 0 2.236068 
C 0.593012 2.236068 1.161816 2.000462 1.581139 1.581139 
C 2.000462 1.161816 2.236068 0.593012 2.236068 -0 
C 2.236068 -0.593012 2.000462 -1.161816 1.581139 -1.581139 
C 1.161816 -2.000462 0.593012 -2.236068 0 -2.236068 
C -0.593012 -2.236068 -1.161816 -2.000462 -1.581139 -1.581139 
C -2.000462 -1.161816 -2.236068 -0.593012 -2.236068 0 
C -2.236068 0.593012 -2.000462 1.161816 -1.581139 1.581139 
C -1.161816 2.000462 -0.593012 2.236068 0 2.236068 
z
"/>
    </defs>
    <g clip-path="url(#p40e4db0e5e)">
     <use xlink:href="#C4_0_c62d8e80c4" x="183.377715" y="179.757183" style="fill: #002739; stroke: #002739"/>
    </g>
    <g clip-path="url(#p40e4db0e5e)">
     <use xlink:href="#C4_0_c62d8e80c4" x="186.313553" y="200.559307" style="fill: #004269; stroke: #004269"/>
    </g>
    <g clip-path="url(#p40e4db0e5e)">
     <use xlink:href="#C4_0_c62d8e80c4" x="213.007938" y="213.767272" style="fill: #0081b3; stroke: #0081b3"/>
    </g>
    <g clip-path="url(#p40e4db0e5e)">
     <use xlink:href="#C4_0_c62d8e80c4" x="286.869719" y="200.34828" style="fill: #b5f0ff; stroke: #b5f0ff"/>
    </g>
    <g clip-path="url(#p40e4db0e5e)">
     <use xlink:href="#C4_0_c62d8e80c4" x="236.109645" y="236.312159" style="fill: #00c6ff; stroke: #00c6ff"/>
    </g>
   </g>
   <g id="Path3DCollection_6">
    <defs>
     <path id="C5_0_56edb34a7b" d="M 0 2.236068 
C 0.593012 2.236068 1.161816 2.000462 1.581139 1.581139 
C 2.000462 1.161816 2.236068 0.593012 2.236068 -0 
C 2.236068 -0.593012 2.000462 -1.161816 1.581139 -1.581139 
C 1.161816 -2.000462 0.593012 -2.236068 0 -2.236068 
C -0.593012 -2.236068 -1.161816 -2.000462 -1.581139 -1.581139 
C -2.000462 -1.161816 -2.236068 -0.593012 -2.236068 0 
C -2.236068 0.593012 -2.000462 1.161816 -1.581139 1.581139 
C -1.161816 2.000462 -0.593012 2.236068 0 2.236068 
z
"/>
    </defs>
    <g clip-path="url(#p40e4db0e5e)">
     <use xlink:href="#C5_0_56edb34a7b" x="186.966206" y="174.663402" style="fill: #002735; stroke: #002735"/>
    </g>
    <g clip-path="url(#p40e4db0e5e)">
     <use xlink:href="#C5_0_56edb34a7b" x="193.007069" y="176.412962" style="fill: #003341; stroke: #003341"/>
    </g>
    <g clip-path="url(#p40e4db0e5e)">
     <use xlink:href="#C5_0_56edb34a7b" x="226.293037" y="178.140237" style="fill: #4d6b74; stroke: #4d6b74"/>
    </g>
    <g clip-path="url(#p40e4db0e5e)">
     <use xlink:href="#C5_0_56edb34a7b" x="232.698143" y="179.222772" style="fill: #5b777f; stroke: #5b777f"/>
    </g>
    <g clip-path="url(#p40e4db0e5e)">
     <use xlink:href="#C5_0_56edb34a7b" x="246.716892" y="177.981601" style="fill: #7e8d8e; stroke: #7e8d8e"/>
    </g>
    <g clip-path="url(#p40e4db0e5e)">
     <use xlink:href="#C5_0_56edb34a7b" x="253.11232" y="179.643877" style="fill: #8a9a9b; stroke: #8a9a9b"/>
    </g>
    <g clip-path="url(#p40e4db0e5e)">
     <use xlink:href="#C5_0_56edb34a7b" x="298.518562" y="183.447197" style="fill: #f5eddc; stroke: #f5eddc"/>
    </g>
    <g clip-path="url(#p40e4db0e5e)">
     <use xlink:href="#C5_0_56edb34a7b" x="303.348507" y="184.860416" style="fill: #fff7e6; stroke: #fff7e6"/>
    </g>
   </g>
   <g id="Path3DCollection_7">
    <defs>
     <path id="C6_0_4eccd75376" d="M 0 2.236068 
C 0.593012 2.236068 1.161816 2.000462 1.581139 1.581139 
C 2.000462 1.161816 2.236068 0.593012 2.236068 -0 
C 2.236068 -0.593012 2.000462 -1.161816 1.581139 -1.581139 
C 1.161816 -2.000462 0.593012 -2.236068 0 -2.236068 
C -0.593012 -2.236068 -1.161816 -2.000462 -1.581139 -1.581139 
C -2.000462 -1.161816 -2.236068 -0.593012 -2.236068 0 
C -2.236068 0.593012 -2.000462 1.161816 -1.581139 1.581139 
C -1.161816 2.000462 -0.593012 2.236068 0 2.236068 
z
"/>
    </defs>
    <g clip-path="url(#p40e4db0e5e)">
     <use xlink:href="#C6_0_4eccd75376" x="176.988566" y="153.435519" style="stroke: #000000"/>
    </g>
    <g clip-path="url(#p40e4db0e5e)">
     <use xlink:href="#C6_0_4eccd75376" x="207.043786" y="161.673472" style="fill: #383636; stroke: #383636"/>
    </g>
    <g clip-path="url(#p40e4db0e5e)">
     <use xlink:href="#C6_0_4eccd75376" x="237.106819" y="170.100881" style="fill: #727070; stroke: #727070"/>
    </g>
    <g clip-path="url(#p40e4db0e5e)">
     <use xlink:href="#C6_0_4eccd75376" x="269.335485" y="179.216302" style="fill: #b4b0b0; stroke: #b4b0b0"/>
    </g>
    <g clip-path="url(#p40e4db0e5e)">
     <use xlink:href="#C6_0_4eccd75376" x="306.341353" y="190.882145" style="fill: #ffffff; stroke: #ffffff"/>
    </g>
   </g>
   <g id="Path3DCollection_8">
    <defs>
     <path id="C7_0_877968bb4c" d="M 0 2.236068 
C 0.593012 2.236068 1.161816 2.000462 1.581139 1.581139 
C 2.000462 1.161816 2.236068 0.593012 2.236068 -0 
C 2.236068 -0.593012 2.000462 -1.161816 1.581139 -1.581139 
C 1.161816 -2.000462 0.593012 -2.236068 0 -2.236068 
C -0.593012 -2.236068 -1.161816 -2.000462 -1.581139 -1.581139 
C -2.000462 -1.161816 -2.236068 -0.593012 -2.236068 0 
C -2.236068 0.593012 -2.000462 1.161816 -1.581139 1.581139 
C -1.161816 2.000462 -0.593012 2.236068 0 2.236068 
z
"/>
    </defs>
    <g clip-path="url(#p40e4db0e5e)">
     <use xlink:href="#C7_0_877968bb4c" x="193.467281" y="140.170468" style="fill: #2a1c00; stroke: #2a1c00"/>
    </g>
    <g clip-path="url(#p40e4db0e5e)">
     <use xlink:href="#C7_0_877968bb4c" x="204.663769" y="128.663387" style="fill: #4a2e00; stroke: #4a2e00"/>
    </g>
    <g clip-path="url(#p40e4db0e5e)">
     <use xlink:href="#C7_0_877968bb4c" x="233.726102" y="131.121295" style="fill: #8b6600; stroke: #8b6600"/>
    </g>
    <g clip-path="url(#p40e4db0e5e)">
     <use xlink:href="#C7_0_877968bb4c" x="293.229381" y="175.853335" style="fill: #efe5ba; stroke: #efe5ba"/>
    </g>
    <g clip-path="url(#p40e4db0e5e)">
     <use xlink:href="#C7_0_877968bb4c" x="272.668368" y="129.838026" style="fill: #ebaf00; stroke: #ebaf00"/>
    </g>
   </g>
   <g id="Path3DCollection_9">
    <defs>
     <path id="C8_0_00f22e1686" d="M 0 2.236068 
C 0.593012 2.236068 1.161816 2.000462 1.581139 1.581139 
C 2.000462 1.161816 2.236068 0.593012 2.236068 -0 
C 2.236068 -0.593012 2.000462 -1.161816 1.581139 -1.581139 
C 1.161816 -2.000462 0.593012 -2.236068 0 -2.236068 
C -0.593012 -2.236068 -1.161816 -2.000462 -1.581139 -1.581139 
C -2.000462 -1.161816 -2.236068 -0.593012 -2.236068 0 
C -2.236068 0.593012 -2.000462 1.161816 -1.581139 1.581139 
C -1.161816 2.000462 -0.593012 2.236068 0 2.236068 
z
"/>
    </defs>
    <g clip-path="url(#p40e4db0e5e)">
     <use xlink:href="#C8_0_00f22e1686" x="178.584153" y="170.675443" style="fill: #00301f; stroke: #00301f"/>
    </g>
    <g clip-path="url(#p40e4db0e5e)">
     <use xlink:href="#C8_0_00f22e1686" x="177.594974" y="184.308799" style="fill: #005536; stroke: #005536"/>
    </g>
    <g clip-path="url(#p40e4db0e5e)">
     <use xlink:href="#C8_0_00f22e1686" x="284.522771" y="194.86245" style="fill: #adf9e5; stroke: #adf9e5"/>
    </g>
    <g clip-path="url(#p40e4db0e5e)">
     <use xlink:href="#C8_0_00f22e1686" x="203.717107" y="195.727851" style="fill: #00996f; stroke: #00996f"/>
    </g>
    <g clip-path="url(#p40e4db0e5e)">
     <use xlink:href="#C8_0_00f22e1686" x="224.393454" y="212.978811" style="fill: #00ecac; stroke: #00ecac"/>
    </g>
   </g>
   <g id="Path3DCollection_10">
    <defs>
     <path id="C9_0_2e51ba210a" d="M 0 2.236068 
C 0.593012 2.236068 1.161816 2.000462 1.581139 1.581139 
C 2.000462 1.161816 2.236068 0.593012 2.236068 -0 
C 2.236068 -0.593012 2.000462 -1.161816 1.581139 -1.581139 
C 1.161816 -2.000462 0.593012 -2.236068 0 -2.236068 
C -0.593012 -2.236068 -1.161816 -2.000462 -1.581139 -1.581139 
C -2.000462 -1.161816 -2.236068 -0.593012 -2.236068 0 
C -2.236068 0.593012 -2.000462 1.161816 -1.581139 1.581139 
C -1.161816 2.000462 -0.593012 2.236068 0 2.236068 
z
"/>
    </defs>
    <g clip-path="url(#p40e4db0e5e)">
     <use xlink:href="#C9_0_2e51ba210a" x="182.795764" y="154.130891" style="fill: #002c00; stroke: #002c00"/>
    </g>
    <g clip-path="url(#p40e4db0e5e)">
     <use xlink:href="#C9_0_2e51ba210a" x="185.303678" y="154.039457" style="fill: #004c00; stroke: #004c00"/>
    </g>
    <g clip-path="url(#p40e4db0e5e)">
     <use xlink:href="#C9_0_2e51ba210a" x="287.169928" y="184.660146" style="fill: #c9f5c7; stroke: #c9f5c7"/>
    </g>
    <g clip-path="url(#p40e4db0e5e)">
     <use xlink:href="#C9_0_2e51ba210a" x="212.438637" y="161.65147" style="fill: #008e00; stroke: #008e00"/>
    </g>
    <g clip-path="url(#p40e4db0e5e)">
     <use xlink:href="#C9_0_2e51ba210a" x="236.006666" y="167.798139" style="fill: #00da00; stroke: #00da00"/>
    </g>
   </g>
  </g>
 </g>
 <defs>
  <clipPath id="p40e4db0e5e">
   <rect x="103.104" y="41.472" width="266.112" height="266.112"/>
  </clipPath>
 </defs>
</svg>
