<?xml version="1.0" encoding="utf-8" standalone="no"?>
<!DOCTYPE svg PUBLIC "-//W3C//DTD SVG 1.1//EN"
  "http://www.w3.org/Graphics/SVG/1.1/DTD/svg11.dtd">
<svg xmlns:xlink="http://www.w3.org/1999/xlink" width="460.8pt" height="345.6pt" viewBox="0 0 460.8 345.6" xmlns="http://www.w3.org/2000/svg" version="1.1">
 <metadata>
  <rdf:RDF xmlns:dc="http://purl.org/dc/elements/1.1/" xmlns:cc="http://creativecommons.org/ns#" xmlns:rdf="http://www.w3.org/1999/02/22-rdf-syntax-ns#">
   <cc:Work>
    <dc:type rdf:resource="http://purl.org/dc/dcmitype/StillImage"/>
    <dc:date>2024-06-03T22:47:48.740803</dc:date>
    <dc:format>image/svg+xml</dc:format>
    <dc:creator>
     <cc:Agent>
      <dc:title>Matplotlib v3.9.0, https://matplotlib.org/</dc:title>
     </cc:Agent>
    </dc:creator>
   </cc:Work>
  </rdf:RDF>
 </metadata>
 <defs>
  <style type="text/css">*{stroke-linejoin: round; stroke-linecap: butt}</style>
 </defs>
 <g id="figure_1">
  <g id="patch_1">
   <path d="M 0 345.6 
L 460.8 345.6 
L 460.8 0 
L 0 0 
z
" style="fill: #ffffff"/>
  </g>
  <g id="patch_2">
   <path d="M 103.104 307.584 
L 369.216 307.584 
L 369.216 41.472 
L 103.104 41.472 
z
" style="fill: #ffffff"/>
  </g>
  <g id="pane3d_1">
   <g id="patch_3">
    <path d="M 123.197291 241.969309 
L 211.076164 168.307495 
L 209.854564 62.073991 
L 117.770234 129.272941 
" style="fill: #f2f2f2; opacity: 0.5; stroke: #f2f2f2; stroke-linejoin: miter"/>
   </g>
  </g>
  <g id="pane3d_2">
   <g id="patch_4">
    <path d="M 211.076164 168.307495 
L 352.090401 209.294766 
L 357.122702 99.402171 
L 209.854564 62.073991 
" style="fill: #e6e6e6; opacity: 0.5; stroke: #e6e6e6; stroke-linejoin: miter"/>
   </g>
  </g>
  <g id="pane3d_3">
   <g id="patch_5">
    <path d="M 123.197291 241.969309 
L 272.679269 290.790123 
L 352.090401 209.294766 
L 211.076164 168.307495 
" style="fill: #ececec; opacity: 0.5; stroke: #ececec; stroke-linejoin: miter"/>
   </g>
  </g>
  <g id="grid3d_1">
   <g id="Line3DCollection_1">
    <path d="M 132.250704 244.926154 
L 219.652219 170.800215 
L 218.79322 64.33968 
" style="fill: none; stroke: #b0b0b0; stroke-width: 0.8"/>
    <path d="M 160.561561 254.172479 
L 246.440702 178.58657 
L 246.729115 71.420615 
" style="fill: none; stroke: #b0b0b0; stroke-width: 0.8"/>
    <path d="M 189.457229 263.609805 
L 273.73634 186.520334 
L 275.216931 78.641446 
" style="fill: none; stroke: #b0b0b0; stroke-width: 0.8"/>
    <path d="M 218.956018 273.244109 
L 301.553673 194.605735 
L 304.273189 86.00636 
" style="fill: none; stroke: #b0b0b0; stroke-width: 0.8"/>
    <path d="M 249.077011 283.081625 
L 329.907801 202.84716 
L 333.915074 93.519714 
" style="fill: none; stroke: #b0b0b0; stroke-width: 0.8"/>
   </g>
  </g>
  <g id="grid3d_2">
   <g id="Line3DCollection_2">
    <path d="M 124.138093 124.625967 
L 129.252888 236.893387 
L 278.173905 285.151275 
" style="fill: none; stroke: #b0b0b0; stroke-width: 0.8"/>
    <path d="M 138.593505 114.077066 
L 143.011238 225.360866 
L 290.645305 272.35255 
" style="fill: none; stroke: #b0b0b0; stroke-width: 0.8"/>
    <path d="M 152.665167 103.808208 
L 156.420089 214.121301 
L 302.7833 259.895981 
" style="fill: none; stroke: #b0b0b0; stroke-width: 0.8"/>
    <path d="M 166.368159 93.808388 
L 169.492593 203.163669 
L 314.601085 247.768027 
" style="fill: none; stroke: #b0b0b0; stroke-width: 0.8"/>
    <path d="M 179.716783 84.067171 
L 182.241248 192.477493 
L 326.111164 235.955854 
" style="fill: none; stroke: #b0b0b0; stroke-width: 0.8"/>
    <path d="M 192.72461 74.574651 
L 194.677941 182.052811 
L 337.325402 224.447287 
" style="fill: none; stroke: #b0b0b0; stroke-width: 0.8"/>
    <path d="M 205.404525 65.321426 
L 206.813984 171.880139 
L 348.255059 213.23077 
" style="fill: none; stroke: #b0b0b0; stroke-width: 0.8"/>
   </g>
  </g>
  <g id="grid3d_3">
   <g id="Line3DCollection_3">
    <path d="M 352.397746 202.583133 
L 211.001408 161.806466 
L 122.866361 235.097325 
" style="fill: none; stroke: #b0b0b0; stroke-width: 0.8"/>
    <path d="M 353.089209 187.483349 
L 210.833291 147.186632 
L 122.121587 219.631614 
" style="fill: none; stroke: #b0b0b0; stroke-width: 0.8"/>
    <path d="M 353.789213 172.197036 
L 210.663198 132.39484 
L 121.367261 203.967557 
" style="fill: none; stroke: #b0b0b0; stroke-width: 0.8"/>
    <path d="M 354.497919 156.720718 
L 210.491091 117.428039 
L 120.603199 188.101313 
" style="fill: none; stroke: #b0b0b0; stroke-width: 0.8"/>
    <path d="M 355.215489 141.050828 
L 210.316937 102.283105 
L 119.829211 172.028943 
" style="fill: none; stroke: #b0b0b0; stroke-width: 0.8"/>
    <path d="M 355.94209 125.183714 
L 210.140697 86.956838 
L 119.045102 155.746404 
" style="fill: none; stroke: #b0b0b0; stroke-width: 0.8"/>
    <path d="M 356.677894 109.115626 
L 209.962334 71.445963 
L 118.250671 139.249545 
" style="fill: none; stroke: #b0b0b0; stroke-width: 0.8"/>
   </g>
  </g>
  <g id="axis3d_1">
   <g id="line2d_1">
    <path d="M 123.197291 241.969309 
L 272.679269 290.790123 
" style="fill: none; stroke: #000000; stroke-width: 0.8; stroke-linecap: square"/>
   </g>
   <g id="xtick_1">
    <g id="line2d_2">
     <path d="M 133.011792 244.280669 
L 130.725263 246.219892 
" style="fill: none; stroke: #000000; stroke-width: 0.8; stroke-linecap: square"/>
    </g>
    <g id="text_1">
     <!-- 0.00 -->
     <g transform="translate(113.588842 268.235303) scale(0.1 -0.1)">
      <defs>
       <path id="DejaVuSans-30" d="M 2034 4250 
Q 1547 4250 1301 3770 
Q 1056 3291 1056 2328 
Q 1056 1369 1301 889 
Q 1547 409 2034 409 
Q 2525 409 2770 889 
Q 3016 1369 3016 2328 
Q 3016 3291 2770 3770 
Q 2525 4250 2034 4250 
z
M 2034 4750 
Q 2819 4750 3233 4129 
Q 3647 3509 3647 2328 
Q 3647 1150 3233 529 
Q 2819 -91 2034 -91 
Q 1250 -91 836 529 
Q 422 1150 422 2328 
Q 422 3509 836 4129 
Q 1250 4750 2034 4750 
z
" transform="scale(0.015625)"/>
       <path id="DejaVuSans-2e" d="M 684 794 
L 1344 794 
L 1344 0 
L 684 0 
L 684 794 
z
" transform="scale(0.015625)"/>
      </defs>
      <use xlink:href="#DejaVuSans-30"/>
      <use xlink:href="#DejaVuSans-2e" x="63.623047"/>
      <use xlink:href="#DejaVuSans-30" x="95.410156"/>
      <use xlink:href="#DejaVuSans-30" x="159.033203"/>
     </g>
    </g>
   </g>
   <g id="xtick_2">
    <g id="line2d_3">
     <path d="M 161.310013 253.513735 
L 159.061413 255.492824 
" style="fill: none; stroke: #000000; stroke-width: 0.8; stroke-linecap: square"/>
    </g>
    <g id="text_2">
     <!-- 0.05 -->
     <g transform="translate(141.928761 277.677563) scale(0.1 -0.1)">
      <defs>
       <path id="DejaVuSans-35" d="M 691 4666 
L 3169 4666 
L 3169 4134 
L 1269 4134 
L 1269 2991 
Q 1406 3038 1543 3061 
Q 1681 3084 1819 3084 
Q 2600 3084 3056 2656 
Q 3513 2228 3513 1497 
Q 3513 744 3044 326 
Q 2575 -91 1722 -91 
Q 1428 -91 1123 -41 
Q 819 9 494 109 
L 494 744 
Q 775 591 1075 516 
Q 1375 441 1709 441 
Q 2250 441 2565 725 
Q 2881 1009 2881 1497 
Q 2881 1984 2565 2268 
Q 2250 2553 1709 2553 
Q 1456 2553 1204 2497 
Q 953 2441 691 2322 
L 691 4666 
z
" transform="scale(0.015625)"/>
      </defs>
      <use xlink:href="#DejaVuSans-30"/>
      <use xlink:href="#DejaVuSans-2e" x="63.623047"/>
      <use xlink:href="#DejaVuSans-30" x="95.410156"/>
      <use xlink:href="#DejaVuSans-35" x="159.033203"/>
     </g>
    </g>
   </g>
   <g id="xtick_3">
    <g id="line2d_4">
     <path d="M 190.192358 262.937387 
L 187.983751 264.957584 
" style="fill: none; stroke: #000000; stroke-width: 0.8; stroke-linecap: square"/>
    </g>
    <g id="text_3">
     <!-- 0.10 -->
     <g transform="translate(170.856312 287.31561) scale(0.1 -0.1)">
      <defs>
       <path id="DejaVuSans-31" d="M 794 531 
L 1825 531 
L 1825 4091 
L 703 3866 
L 703 4441 
L 1819 4666 
L 2450 4666 
L 2450 531 
L 3481 531 
L 3481 0 
L 794 0 
L 794 531 
z
" transform="scale(0.015625)"/>
      </defs>
      <use xlink:href="#DejaVuSans-30"/>
      <use xlink:href="#DejaVuSans-2e" x="63.623047"/>
      <use xlink:href="#DejaVuSans-31" x="95.410156"/>
      <use xlink:href="#DejaVuSans-30" x="159.033203"/>
     </g>
    </g>
   </g>
   <g id="xtick_4">
    <g id="line2d_5">
     <path d="M 219.677103 272.557589 
L 217.510657 274.620188 
" style="fill: none; stroke: #000000; stroke-width: 0.8; stroke-linecap: square"/>
    </g>
    <g id="text_4">
     <!-- 0.15 -->
     <g transform="translate(200.389965 297.155597) scale(0.1 -0.1)">
      <use xlink:href="#DejaVuSans-30"/>
      <use xlink:href="#DejaVuSans-2e" x="63.623047"/>
      <use xlink:href="#DejaVuSans-31" x="95.410156"/>
      <use xlink:href="#DejaVuSans-35" x="159.033203"/>
     </g>
    </g>
   </g>
   <g id="xtick_5">
    <g id="line2d_6">
     <path d="M 249.783293 282.380554 
L 247.661288 284.486904 
" style="fill: none; stroke: #000000; stroke-width: 0.8; stroke-linecap: square"/>
    </g>
    <g id="text_5">
     <!-- 0.20 -->
     <g transform="translate(230.54897 307.203939) scale(0.1 -0.1)">
      <defs>
       <path id="DejaVuSans-32" d="M 1228 531 
L 3431 531 
L 3431 0 
L 469 0 
L 469 531 
Q 828 903 1448 1529 
Q 2069 2156 2228 2338 
Q 2531 2678 2651 2914 
Q 2772 3150 2772 3378 
Q 2772 3750 2511 3984 
Q 2250 4219 1831 4219 
Q 1534 4219 1204 4116 
Q 875 4013 500 3803 
L 500 4441 
Q 881 4594 1212 4672 
Q 1544 4750 1819 4750 
Q 2544 4750 2975 4387 
Q 3406 4025 3406 3419 
Q 3406 3131 3298 2873 
Q 3191 2616 2906 2266 
Q 2828 2175 2409 1742 
Q 1991 1309 1228 531 
z
" transform="scale(0.015625)"/>
      </defs>
      <use xlink:href="#DejaVuSans-30"/>
      <use xlink:href="#DejaVuSans-2e" x="63.623047"/>
      <use xlink:href="#DejaVuSans-32" x="95.410156"/>
      <use xlink:href="#DejaVuSans-30" x="159.033203"/>
     </g>
    </g>
   </g>
  </g>
  <g id="axis3d_2">
   <g id="line2d_7">
    <path d="M 352.090401 209.294766 
L 272.679269 290.790123 
" style="fill: none; stroke: #000000; stroke-width: 0.8; stroke-linecap: square"/>
   </g>
   <g id="xtick_6">
    <g id="line2d_8">
     <path d="M 276.918943 284.744604 
L 280.687074 285.965668 
" style="fill: none; stroke: #000000; stroke-width: 0.8; stroke-linecap: square"/>
    </g>
    <g id="text_6">
     <!-- −0.15 -->
     <g transform="translate(275.731882 306.173005) scale(0.1 -0.1)">
      <defs>
       <path id="DejaVuSans-2212" d="M 678 2272 
L 4684 2272 
L 4684 1741 
L 678 1741 
L 678 2272 
z
" transform="scale(0.015625)"/>
      </defs>
      <use xlink:href="#DejaVuSans-2212"/>
      <use xlink:href="#DejaVuSans-30" x="83.789062"/>
      <use xlink:href="#DejaVuSans-2e" x="147.412109"/>
      <use xlink:href="#DejaVuSans-31" x="179.199219"/>
      <use xlink:href="#DejaVuSans-35" x="242.822266"/>
     </g>
    </g>
   </g>
   <g id="xtick_7">
    <g id="line2d_9">
     <path d="M 289.402042 271.956822 
L 293.135002 273.145017 
" style="fill: none; stroke: #000000; stroke-width: 0.8; stroke-linecap: square"/>
    </g>
    <g id="text_7">
     <!-- −0.10 -->
     <g transform="translate(288.036041 293.184756) scale(0.1 -0.1)">
      <use xlink:href="#DejaVuSans-2212"/>
      <use xlink:href="#DejaVuSans-30" x="83.789062"/>
      <use xlink:href="#DejaVuSans-2e" x="147.412109"/>
      <use xlink:href="#DejaVuSans-31" x="179.199219"/>
      <use xlink:href="#DejaVuSans-30" x="242.822266"/>
     </g>
    </g>
   </g>
   <g id="xtick_8">
    <g id="line2d_10">
     <path d="M 301.551563 259.510759 
L 305.249874 260.667395 
" style="fill: none; stroke: #000000; stroke-width: 0.8; stroke-linecap: square"/>
    </g>
    <g id="text_8">
     <!-- −0.05 -->
     <g transform="translate(300.011074 280.543932) scale(0.1 -0.1)">
      <use xlink:href="#DejaVuSans-2212"/>
      <use xlink:href="#DejaVuSans-30" x="83.789062"/>
      <use xlink:href="#DejaVuSans-2e" x="147.412109"/>
      <use xlink:href="#DejaVuSans-30" x="179.199219"/>
      <use xlink:href="#DejaVuSans-35" x="242.822266"/>
     </g>
    </g>
   </g>
   <g id="xtick_9">
    <g id="line2d_11">
     <path d="M 313.380702 247.392898 
L 317.044881 248.519216 
" style="fill: none; stroke: #000000; stroke-width: 0.8; stroke-linecap: square"/>
    </g>
    <g id="text_9">
     <!-- 0.00 -->
     <g transform="translate(315.859857 268.236776) scale(0.1 -0.1)">
      <use xlink:href="#DejaVuSans-30"/>
      <use xlink:href="#DejaVuSans-2e" x="63.623047"/>
      <use xlink:href="#DejaVuSans-30" x="95.410156"/>
      <use xlink:href="#DejaVuSans-30" x="159.033203"/>
     </g>
    </g>
   </g>
   <g id="xtick_10">
    <g id="line2d_12">
     <path d="M 324.901966 235.590427 
L 328.532524 236.687604 
" style="fill: none; stroke: #000000; stroke-width: 0.8; stroke-linecap: square"/>
    </g>
    <g id="text_10">
     <!-- 0.05 -->
     <g transform="translate(327.215055 256.250249) scale(0.1 -0.1)">
      <use xlink:href="#DejaVuSans-30"/>
      <use xlink:href="#DejaVuSans-2e" x="63.623047"/>
      <use xlink:href="#DejaVuSans-30" x="95.410156"/>
      <use xlink:href="#DejaVuSans-35" x="159.033203"/>
     </g>
    </g>
   </g>
   <g id="xtick_11">
    <g id="line2d_13">
     <path d="M 336.12722 224.091191 
L 339.724665 225.160342 
" style="fill: none; stroke: #000000; stroke-width: 0.8; stroke-linecap: square"/>
    </g>
    <g id="text_11">
     <!-- 0.10 -->
     <g transform="translate(338.278228 244.571982) scale(0.1 -0.1)">
      <use xlink:href="#DejaVuSans-30"/>
      <use xlink:href="#DejaVuSans-2e" x="63.623047"/>
      <use xlink:href="#DejaVuSans-31" x="95.410156"/>
      <use xlink:href="#DejaVuSans-30" x="159.033203"/>
     </g>
    </g>
   </g>
   <g id="xtick_12">
    <g id="line2d_14">
     <path d="M 347.067727 212.883651 
L 350.632559 213.925838 
" style="fill: none; stroke: #000000; stroke-width: 0.8; stroke-linecap: square"/>
    </g>
    <g id="text_12">
     <!-- 0.15 -->
     <g transform="translate(349.0605 233.190234) scale(0.1 -0.1)">
      <use xlink:href="#DejaVuSans-30"/>
      <use xlink:href="#DejaVuSans-2e" x="63.623047"/>
      <use xlink:href="#DejaVuSans-31" x="95.410156"/>
      <use xlink:href="#DejaVuSans-35" x="159.033203"/>
     </g>
    </g>
   </g>
  </g>
  <g id="axis3d_3">
   <g id="line2d_15">
    <path d="M 352.090401 209.294766 
L 357.122702 99.402171 
" style="fill: none; stroke: #000000; stroke-width: 0.8; stroke-linecap: square"/>
   </g>
   <g id="xtick_13">
    <g id="line2d_16">
     <path d="M 351.210889 202.24086 
L 354.77429 203.268494 
" style="fill: none; stroke: #000000; stroke-width: 0.8; stroke-linecap: square"/>
    </g>
    <g id="text_13">
     <!-- −0.15 -->
     <g transform="translate(355.372583 207.589645) scale(0.1 -0.1)">
      <use xlink:href="#DejaVuSans-2212"/>
      <use xlink:href="#DejaVuSans-30" x="83.789062"/>
      <use xlink:href="#DejaVuSans-2e" x="147.412109"/>
      <use xlink:href="#DejaVuSans-31" x="179.199219"/>
      <use xlink:href="#DejaVuSans-35" x="242.822266"/>
     </g>
    </g>
   </g>
   <g id="xtick_14">
    <g id="line2d_17">
     <path d="M 351.894793 187.145007 
L 355.480906 188.160843 
" style="fill: none; stroke: #000000; stroke-width: 0.8; stroke-linecap: square"/>
    </g>
    <g id="text_14">
     <!-- −0.10 -->
     <g transform="translate(356.173936 192.519672) scale(0.1 -0.1)">
      <use xlink:href="#DejaVuSans-2212"/>
      <use xlink:href="#DejaVuSans-30" x="83.789062"/>
      <use xlink:href="#DejaVuSans-2e" x="147.412109"/>
      <use xlink:href="#DejaVuSans-31" x="179.199219"/>
      <use xlink:href="#DejaVuSans-30" x="242.822266"/>
     </g>
    </g>
   </g>
   <g id="xtick_15">
    <g id="line2d_18">
     <path d="M 352.587142 171.86275 
L 356.196258 172.866416 
" style="fill: none; stroke: #000000; stroke-width: 0.8; stroke-linecap: square"/>
    </g>
    <g id="text_15">
     <!-- −0.05 -->
     <g transform="translate(356.985157 177.264105) scale(0.1 -0.1)">
      <use xlink:href="#DejaVuSans-2212"/>
      <use xlink:href="#DejaVuSans-30" x="83.789062"/>
      <use xlink:href="#DejaVuSans-2e" x="147.412109"/>
      <use xlink:href="#DejaVuSans-30" x="179.199219"/>
      <use xlink:href="#DejaVuSans-35" x="242.822266"/>
     </g>
    </g>
   </g>
   <g id="xtick_16">
    <g id="line2d_19">
     <path d="M 353.288093 156.390613 
L 356.920509 157.381728 
" style="fill: none; stroke: #000000; stroke-width: 0.8; stroke-linecap: square"/>
    </g>
    <g id="text_16">
     <!-- 0.00 -->
     <g transform="translate(361.996275 161.819496) scale(0.1 -0.1)">
      <use xlink:href="#DejaVuSans-30"/>
      <use xlink:href="#DejaVuSans-2e" x="63.623047"/>
      <use xlink:href="#DejaVuSans-30" x="95.410156"/>
      <use xlink:href="#DejaVuSans-30" x="159.033203"/>
     </g>
    </g>
   </g>
   <g id="xtick_17">
    <g id="line2d_20">
     <path d="M 353.997808 140.725037 
L 357.653826 141.703208 
" style="fill: none; stroke: #000000; stroke-width: 0.8; stroke-linecap: square"/>
    </g>
    <g id="text_17">
     <!-- 0.05 -->
     <g transform="translate(362.82779 146.182307) scale(0.1 -0.1)">
      <use xlink:href="#DejaVuSans-30"/>
      <use xlink:href="#DejaVuSans-2e" x="63.623047"/>
      <use xlink:href="#DejaVuSans-30" x="95.410156"/>
      <use xlink:href="#DejaVuSans-35" x="159.033203"/>
     </g>
    </g>
   </g>
   <g id="xtick_18">
    <g id="line2d_21">
     <path d="M 354.716452 124.86237 
L 358.396381 125.827191 
" style="fill: none; stroke: #000000; stroke-width: 0.8; stroke-linecap: square"/>
    </g>
    <g id="text_18">
     <!-- 0.10 -->
     <g transform="translate(363.669738 130.348914) scale(0.1 -0.1)">
      <use xlink:href="#DejaVuSans-30"/>
      <use xlink:href="#DejaVuSans-2e" x="63.623047"/>
      <use xlink:href="#DejaVuSans-31" x="95.410156"/>
      <use xlink:href="#DejaVuSans-30" x="159.033203"/>
     </g>
    </g>
   </g>
   <g id="xtick_19">
    <g id="line2d_22">
     <path d="M 355.444194 108.79887 
L 359.148348 109.749923 
" style="fill: none; stroke: #000000; stroke-width: 0.8; stroke-linecap: square"/>
    </g>
    <g id="text_19">
     <!-- 0.15 -->
     <g transform="translate(364.522317 114.315602) scale(0.1 -0.1)">
      <use xlink:href="#DejaVuSans-30"/>
      <use xlink:href="#DejaVuSans-2e" x="63.623047"/>
      <use xlink:href="#DejaVuSans-31" x="95.410156"/>
      <use xlink:href="#DejaVuSans-35" x="159.033203"/>
     </g>
    </g>
   </g>
  </g>
  <g id="axes_1">
   <g id="line2d_23">
    <path d="M 201.69641 135.425886 
L 221.09608 128.37652 
" clip-path="url(#pace047afb8)" style="fill: none; stroke: #600000; stroke-opacity: 0.25; stroke-width: 1.5; stroke-linecap: square"/>
   </g>
   <g id="line2d_24">
    <path d="M 221.09608 128.37652 
L 254.928844 125.191128 
" clip-path="url(#pace047afb8)" style="fill: none; stroke: #b42a13; stroke-opacity: 0.25; stroke-width: 1.5; stroke-linecap: square"/>
   </g>
   <g id="line2d_25">
    <path d="M 254.928844 125.191128 
L 292.371329 125.922591 
" clip-path="url(#pace047afb8)" style="fill: none; stroke: #ff593d; stroke-opacity: 0.25; stroke-width: 1.5; stroke-linecap: square"/>
   </g>
   <g id="line2d_26">
    <path d="M 292.371329 125.922591 
L 299.21157 173.079509 
" clip-path="url(#pace047afb8)" style="fill: none; stroke: #ffd3c5; stroke-opacity: 0.25; stroke-width: 1.5; stroke-linecap: square"/>
   </g>
   <g id="line2d_27">
    <path d="M 299.21157 173.079509 
L 201.69641 135.425886 
" clip-path="url(#pace047afb8)" style="fill: none; stroke: #ffd3c5; stroke-opacity: 0.25; stroke-width: 1.5; stroke-linecap: square"/>
   </g>
   <g id="line2d_28">
    <path d="M 190.605342 138.636078 
L 204.701109 133.093127 
" clip-path="url(#pace047afb8)" style="fill: none; stroke: #473000; stroke-opacity: 0.25; stroke-width: 1.5; stroke-linecap: square"/>
   </g>
   <g id="line2d_29">
    <path d="M 204.701109 133.093127 
L 233.672926 129.533369 
" clip-path="url(#pace047afb8)" style="fill: none; stroke: #8b6600; stroke-opacity: 0.25; stroke-width: 1.5; stroke-linecap: square"/>
   </g>
   <g id="line2d_30">
    <path d="M 233.672926 129.533369 
L 272.584246 129.815205 
" clip-path="url(#pace047afb8)" style="fill: none; stroke: #e9b000; stroke-opacity: 0.25; stroke-width: 1.5; stroke-linecap: square"/>
   </g>
   <g id="line2d_31">
    <path d="M 272.584246 129.815205 
L 293.137155 175.378463 
" clip-path="url(#pace047afb8)" style="fill: none; stroke: #efe5ba; stroke-opacity: 0.25; stroke-width: 1.5; stroke-linecap: square"/>
   </g>
   <g id="line2d_32">
    <path d="M 293.137155 175.378463 
L 190.605342 138.636078 
" clip-path="url(#pace047afb8)" style="fill: none; stroke: #efe5ba; stroke-opacity: 0.25; stroke-width: 1.5; stroke-linecap: square"/>
   </g>
   <g id="line2d_33">
    <path d="M 179.485671 153.135712 
L 187.98778 155.060684 
" clip-path="url(#pace047afb8)" style="fill: none; stroke: #004900; stroke-opacity: 0.25; stroke-width: 1.5; stroke-linecap: square"/>
   </g>
   <g id="line2d_34">
    <path d="M 187.98778 155.060684 
L 211.504387 161.297825 
" clip-path="url(#pace047afb8)" style="fill: none; stroke: #008e00; stroke-opacity: 0.25; stroke-width: 1.5; stroke-linecap: square"/>
   </g>
   <g id="line2d_35">
    <path d="M 211.504387 161.297825 
L 235.9297 167.775976 
" clip-path="url(#pace047afb8)" style="fill: none; stroke: #00d810; stroke-opacity: 0.25; stroke-width: 1.5; stroke-linecap: square"/>
   </g>
   <g id="line2d_36">
    <path d="M 235.9297 167.775976 
L 286.832565 184.538202 
" clip-path="url(#pace047afb8)" style="fill: none; stroke: #c9f5c7; stroke-opacity: 0.25; stroke-width: 1.5; stroke-linecap: square"/>
   </g>
   <g id="line2d_37">
    <path d="M 286.832565 184.538202 
L 179.485671 153.135712 
" clip-path="url(#pace047afb8)" style="fill: none; stroke: #c9f5c7; stroke-opacity: 0.25; stroke-width: 1.5; stroke-linecap: square"/>
   </g>
   <g id="line2d_38">
    <path d="M 175.109874 170.335755 
L 181.328482 181.196184 
" clip-path="url(#pace047afb8)" style="fill: none; stroke: #005036; stroke-opacity: 0.25; stroke-width: 1.5; stroke-linecap: square"/>
   </g>
   <g id="line2d_39">
    <path d="M 181.328482 181.196184 
L 202.42427 196.781467 
" clip-path="url(#pace047afb8)" style="fill: none; stroke: #00996f; stroke-opacity: 0.25; stroke-width: 1.5; stroke-linecap: square"/>
   </g>
   <g id="line2d_40">
    <path d="M 202.42427 196.781467 
L 224.316951 212.955484 
" clip-path="url(#pace047afb8)" style="fill: none; stroke: #00eaab; stroke-opacity: 0.25; stroke-width: 1.5; stroke-linecap: square"/>
   </g>
   <g id="line2d_41">
    <path d="M 224.316951 212.955484 
L 284.078744 195.152253 
" clip-path="url(#pace047afb8)" style="fill: none; stroke: #adf9e5; stroke-opacity: 0.25; stroke-width: 1.5; stroke-linecap: square"/>
   </g>
   <g id="line2d_42">
    <path d="M 284.078744 195.152253 
L 175.109874 170.335755 
" clip-path="url(#pace047afb8)" style="fill: none; stroke: #adf9e5; stroke-opacity: 0.25; stroke-width: 1.5; stroke-linecap: square"/>
   </g>
   <g id="line2d_43">
    <path d="M 180.125568 179.776706 
L 188.81875 195.30759 
" clip-path="url(#pace047afb8)" style="fill: none; stroke: #004160; stroke-opacity: 0.25; stroke-width: 1.5; stroke-linecap: square"/>
   </g>
   <g id="line2d_44">
    <path d="M 188.81875 195.30759 
L 212.116973 215.529316 
" clip-path="url(#pace047afb8)" style="fill: none; stroke: #0081b3; stroke-opacity: 0.25; stroke-width: 1.5; stroke-linecap: square"/>
   </g>
   <g id="line2d_45">
    <path d="M 212.116973 215.529316 
L 236.03479 236.288819 
" clip-path="url(#pace047afb8)" style="fill: none; stroke: #00c5ff; stroke-opacity: 0.25; stroke-width: 1.5; stroke-linecap: square"/>
   </g>
   <g id="line2d_46">
    <path d="M 236.03479 236.288819 
L 286.522538 200.856322 
" clip-path="url(#pace047afb8)" style="fill: none; stroke: #b5f0ff; stroke-opacity: 0.25; stroke-width: 1.5; stroke-linecap: square"/>
   </g>
   <g id="line2d_47">
    <path d="M 286.522538 200.856322 
L 180.125568 179.776706 
" clip-path="url(#pace047afb8)" style="fill: none; stroke: #b5f0ff; stroke-opacity: 0.25; stroke-width: 1.5; stroke-linecap: square"/>
   </g>
   <g id="line2d_48">
    <path d="M 191.333705 176.035454 
L 205.481284 189.384502 
" clip-path="url(#pace047afb8)" style="fill: none; stroke: #271c6e; stroke-opacity: 0.25; stroke-width: 1.5; stroke-linecap: square"/>
   </g>
   <g id="line2d_49">
    <path d="M 205.481284 189.384502 
L 233.859101 207.051275 
" clip-path="url(#pace047afb8)" style="fill: none; stroke: #5849cb; stroke-opacity: 0.25; stroke-width: 1.5; stroke-linecap: square"/>
   </g>
   <g id="line2d_50">
    <path d="M 233.859101 207.051275 
L 262.591325 224.938687 
" clip-path="url(#pace047afb8)" style="fill: none; stroke: #8b6fff; stroke-opacity: 0.25; stroke-width: 1.5; stroke-linecap: square"/>
   </g>
   <g id="line2d_51">
    <path d="M 262.591325 224.938687 
L 292.644038 198.352699 
" clip-path="url(#pace047afb8)" style="fill: none; stroke: #d8deff; stroke-opacity: 0.25; stroke-width: 1.5; stroke-linecap: square"/>
   </g>
   <g id="line2d_52">
    <path d="M 292.644038 198.352699 
L 191.333705 176.035454 
" clip-path="url(#pace047afb8)" style="fill: none; stroke: #d8deff; stroke-opacity: 0.25; stroke-width: 1.5; stroke-linecap: square"/>
   </g>
   <g id="line2d_53">
    <path d="M 202.091779 161.676332 
L 221.385947 167.74006 
" clip-path="url(#pace047afb8)" style="fill: none; stroke: #52005a; stroke-opacity: 0.25; stroke-width: 1.5; stroke-linecap: square"/>
   </g>
   <g id="line2d_54">
    <path d="M 221.385947 167.74006 
L 254.109142 177.642139 
" clip-path="url(#pace047afb8)" style="fill: none; stroke: #9b00a8; stroke-opacity: 0.25; stroke-width: 1.5; stroke-linecap: square"/>
   </g>
   <g id="line2d_55">
    <path d="M 254.109142 177.642139 
L 287.961186 187.967773 
" clip-path="url(#pace047afb8)" style="fill: none; stroke: #ee00ff; stroke-opacity: 0.25; stroke-width: 1.5; stroke-linecap: square"/>
   </g>
   <g id="line2d_56">
    <path d="M 287.961186 187.967773 
L 298.825301 189.251992 
" clip-path="url(#pace047afb8)" style="fill: none; stroke: #facefe; stroke-opacity: 0.25; stroke-width: 1.5; stroke-linecap: square"/>
   </g>
   <g id="line2d_57">
    <path d="M 298.825301 189.251992 
L 202.091779 161.676332 
" clip-path="url(#pace047afb8)" style="fill: none; stroke: #facefe; stroke-opacity: 0.25; stroke-width: 1.5; stroke-linecap: square"/>
   </g>
   <g id="line2d_58">
    <path d="M 206.350491 145.007456 
L 227.777599 142.811594 
" clip-path="url(#pace047afb8)" style="fill: none; stroke: #620031; stroke-opacity: 0.25; stroke-width: 1.5; stroke-linecap: square"/>
   </g>
   <g id="line2d_59">
    <path d="M 227.777599 142.811594 
L 262.489034 145.154568 
" clip-path="url(#pace047afb8)" style="fill: none; stroke: #b60067; stroke-opacity: 0.25; stroke-width: 1.5; stroke-linecap: square"/>
   </g>
   <g id="line2d_60">
    <path d="M 262.489034 145.154568 
L 297.920871 147.048249 
" clip-path="url(#pace047afb8)" style="fill: none; stroke: #ff00a0; stroke-opacity: 0.25; stroke-width: 1.5; stroke-linecap: square"/>
   </g>
   <g id="line2d_61">
    <path d="M 297.920871 147.048249 
L 301.532033 178.842626 
" clip-path="url(#pace047afb8)" style="fill: none; stroke: #ffc9e1; stroke-opacity: 0.25; stroke-width: 1.5; stroke-linecap: square"/>
   </g>
   <g id="line2d_62">
    <path d="M 301.532033 178.842626 
L 206.350491 145.007456 
" clip-path="url(#pace047afb8)" style="fill: none; stroke: #ffc9e1; stroke-opacity: 0.25; stroke-width: 1.5; stroke-linecap: square"/>
   </g>
   <g id="line2d_63">
    <path d="M 188.333551 171.47344 
L 199.645945 174.800648 
" clip-path="url(#pace047afb8)" style="fill: none; stroke: #133947; stroke-opacity: 0.25; stroke-width: 1.5; stroke-linecap: square"/>
   </g>
   <g id="line2d_64">
    <path d="M 199.645945 174.800648 
L 218.34367 176.025597 
" clip-path="url(#pace047afb8)" style="fill: none; stroke: #405964; stroke-opacity: 0.25; stroke-width: 1.5; stroke-linecap: square"/>
   </g>
   <g id="line2d_65">
    <path d="M 218.34367 176.025597 
L 229.884647 179.40276 
" clip-path="url(#pace047afb8)" style="fill: none; stroke: #56707b; stroke-opacity: 0.25; stroke-width: 1.5; stroke-linecap: square"/>
   </g>
   <g id="line2d_66">
    <path d="M 229.884647 179.40276 
L 246.773457 177.888124 
" clip-path="url(#pace047afb8)" style="fill: none; stroke: #7f8a8f; stroke-opacity: 0.25; stroke-width: 1.5; stroke-linecap: square"/>
   </g>
   <g id="line2d_67">
    <path d="M 246.773457 177.888124 
L 252.637421 179.59093 
" clip-path="url(#pace047afb8)" style="fill: none; stroke: #8b969b; stroke-opacity: 0.25; stroke-width: 1.5; stroke-linecap: square"/>
   </g>
   <g id="line2d_68">
    <path d="M 252.637421 179.59093 
L 293.498009 181.699346 
" clip-path="url(#pace047afb8)" style="fill: none; stroke: #ebe3d2; stroke-opacity: 0.25; stroke-width: 1.5; stroke-linecap: square"/>
   </g>
   <g id="line2d_69">
    <path d="M 293.498009 181.699346 
L 301.071486 183.873354 
" clip-path="url(#pace047afb8)" style="fill: none; stroke: #fbf2e1; stroke-opacity: 0.25; stroke-width: 1.5; stroke-linecap: square"/>
   </g>
   <g id="line2d_70">
    <path d="M 301.071486 183.873354 
L 188.333551 171.47344 
" clip-path="url(#pace047afb8)" style="fill: none; stroke: #fbf2e1; stroke-opacity: 0.25; stroke-width: 1.5; stroke-linecap: square"/>
   </g>
   <g id="line2d_71">
    <path d="M 176.988566 153.435519 
L 205.095586 161.55554 
" clip-path="url(#pace047afb8)" style="fill: none; stroke: #333333; stroke-opacity: 0.25; stroke-width: 1.5; stroke-linecap: square"/>
   </g>
   <g id="line2d_72">
    <path d="M 205.095586 161.55554 
L 233.769729 169.839401 
" clip-path="url(#pace047afb8)" style="fill: none; stroke: #6b6b6b; stroke-opacity: 0.25; stroke-width: 1.5; stroke-linecap: square"/>
   </g>
   <g id="line2d_73">
    <path d="M 233.769729 169.839401 
L 263.028333 178.29211 
" clip-path="url(#pace047afb8)" style="fill: none; stroke: #a6a5a5; stroke-opacity: 0.25; stroke-width: 1.5; stroke-linecap: square"/>
   </g>
   <g id="line2d_74">
    <path d="M 263.028333 178.29211 
L 306.376266 190.815178 
" clip-path="url(#pace047afb8)" style="fill: none; stroke: #ffffff; stroke-opacity: 0.25; stroke-width: 1.5; stroke-linecap: square"/>
   </g>
   <g id="line2d_75">
    <path d="M 306.376266 190.815178 
L 176.988566 153.435519 
" clip-path="url(#pace047afb8)" style="fill: none; stroke: #ffffff; stroke-opacity: 0.25; stroke-width: 1.5; stroke-linecap: square"/>
   </g>
   <g id="Path3DCollection_1">
    <defs>
     <path id="C0_0_831d0438a8" d="M 0 2.236068 
C 0.593012 2.236068 1.161816 2.000462 1.581139 1.581139 
C 2.000462 1.161816 2.236068 0.593012 2.236068 -0 
C 2.236068 -0.593012 2.000462 -1.161816 1.581139 -1.581139 
C 1.161816 -2.000462 0.593012 -2.236068 0 -2.236068 
C -0.593012 -2.236068 -1.161816 -2.000462 -1.581139 -1.581139 
C -2.000462 -1.161816 -2.236068 -0.593012 -2.236068 0 
C -2.236068 0.593012 -2.000462 1.161816 -1.581139 1.581139 
C -1.161816 2.000462 -0.593012 2.236068 0 2.236068 
z
"/>
    </defs>
    <g clip-path="url(#pace047afb8)">
     <use xlink:href="#C0_0_831d0438a8" x="221.385947" y="167.74006" style="fill: #52005a; stroke: #52005a"/>
    </g>
    <g clip-path="url(#pace047afb8)">
     <use xlink:href="#C0_0_831d0438a8" x="254.109142" y="177.642139" style="fill: #9b00a8; stroke: #9b00a8"/>
    </g>
    <g clip-path="url(#pace047afb8)">
     <use xlink:href="#C0_0_831d0438a8" x="202.091779" y="161.676332" style="fill: #2b0030; stroke: #2b0030"/>
    </g>
    <g clip-path="url(#pace047afb8)">
     <use xlink:href="#C0_0_831d0438a8" x="287.961186" y="187.967773" style="fill: #ee00ff; stroke: #ee00ff"/>
    </g>
    <g clip-path="url(#pace047afb8)">
     <use xlink:href="#C0_0_831d0438a8" x="298.825301" y="189.251992" style="fill: #facefe; stroke: #facefe"/>
    </g>
   </g>
   <g id="Path3DCollection_2">
    <defs>
     <path id="C1_0_678727228e" d="M 0 2.236068 
C 0.593012 2.236068 1.161816 2.000462 1.581139 1.581139 
C 2.000462 1.161816 2.236068 0.593012 2.236068 -0 
C 2.236068 -0.593012 2.000462 -1.161816 1.581139 -1.581139 
C 1.161816 -2.000462 0.593012 -2.236068 0 -2.236068 
C -0.593012 -2.236068 -1.161816 -2.000462 -1.581139 -1.581139 
C -2.000462 -1.161816 -2.236068 -0.593012 -2.236068 0 
C -2.236068 0.593012 -2.000462 1.161816 -1.581139 1.581139 
C -1.161816 2.000462 -0.593012 2.236068 0 2.236068 
z
"/>
    </defs>
    <g clip-path="url(#pace047afb8)">
     <use xlink:href="#C1_0_678727228e" x="227.777599" y="142.811594" style="fill: #620031; stroke: #620031"/>
    </g>
    <g clip-path="url(#pace047afb8)">
     <use xlink:href="#C1_0_678727228e" x="206.350491" y="145.007456" style="fill: #350016; stroke: #350016"/>
    </g>
    <g clip-path="url(#pace047afb8)">
     <use xlink:href="#C1_0_678727228e" x="262.489034" y="145.154568" style="fill: #b60067; stroke: #b60067"/>
    </g>
    <g clip-path="url(#pace047afb8)">
     <use xlink:href="#C1_0_678727228e" x="297.920871" y="147.048249" style="fill: #ff00a0; stroke: #ff00a0"/>
    </g>
    <g clip-path="url(#pace047afb8)">
     <use xlink:href="#C1_0_678727228e" x="301.532033" y="178.842626" style="fill: #ffc9e1; stroke: #ffc9e1"/>
    </g>
   </g>
   <g id="Path3DCollection_3">
    <defs>
     <path id="C2_0_a9318db962" d="M 0 2.236068 
C 0.593012 2.236068 1.161816 2.000462 1.581139 1.581139 
C 2.000462 1.161816 2.236068 0.593012 2.236068 -0 
C 2.236068 -0.593012 2.000462 -1.161816 1.581139 -1.581139 
C 1.161816 -2.000462 0.593012 -2.236068 0 -2.236068 
C -0.593012 -2.236068 -1.161816 -2.000462 -1.581139 -1.581139 
C -2.000462 -1.161816 -2.236068 -0.593012 -2.236068 0 
C -2.236068 0.593012 -2.000462 1.161816 -1.581139 1.581139 
C -1.161816 2.000462 -0.593012 2.236068 0 2.236068 
z
"/>
    </defs>
    <g clip-path="url(#pace047afb8)">
     <use xlink:href="#C2_0_a9318db962" x="191.333705" y="176.035454" style="fill: #0f093c; stroke: #0f093c"/>
    </g>
    <g clip-path="url(#pace047afb8)">
     <use xlink:href="#C2_0_a9318db962" x="205.481284" y="189.384502" style="fill: #271c6e; stroke: #271c6e"/>
    </g>
    <g clip-path="url(#pace047afb8)">
     <use xlink:href="#C2_0_a9318db962" x="233.859101" y="207.051275" style="fill: #5849cb; stroke: #5849cb"/>
    </g>
    <g clip-path="url(#pace047afb8)">
     <use xlink:href="#C2_0_a9318db962" x="262.591325" y="224.938687" style="fill: #8b6fff; stroke: #8b6fff"/>
    </g>
    <g clip-path="url(#pace047afb8)">
     <use xlink:href="#C2_0_a9318db962" x="292.644038" y="198.352699" style="fill: #d8deff; stroke: #d8deff"/>
    </g>
   </g>
   <g id="Path3DCollection_4">
    <defs>
     <path id="C3_0_e0ce7ae215" d="M 0 2.236068 
C 0.593012 2.236068 1.161816 2.000462 1.581139 1.581139 
C 2.000462 1.161816 2.236068 0.593012 2.236068 -0 
C 2.236068 -0.593012 2.000462 -1.161816 1.581139 -1.581139 
C 1.161816 -2.000462 0.593012 -2.236068 0 -2.236068 
C -0.593012 -2.236068 -1.161816 -2.000462 -1.581139 -1.581139 
C -2.000462 -1.161816 -2.236068 -0.593012 -2.236068 0 
C -2.236068 0.593012 -2.000462 1.161816 -1.581139 1.581139 
C -1.161816 2.000462 -0.593012 2.236068 0 2.236068 
z
"/>
    </defs>
    <g clip-path="url(#pace047afb8)">
     <use xlink:href="#C3_0_e0ce7ae215" x="201.69641" y="135.425886" style="fill: #340000; stroke: #340000"/>
    </g>
    <g clip-path="url(#pace047afb8)">
     <use xlink:href="#C3_0_e0ce7ae215" x="221.09608" y="128.37652" style="fill: #600000; stroke: #600000"/>
    </g>
    <g clip-path="url(#pace047afb8)">
     <use xlink:href="#C3_0_e0ce7ae215" x="254.928844" y="125.191128" style="fill: #b42a13; stroke: #b42a13"/>
    </g>
    <g clip-path="url(#pace047afb8)">
     <use xlink:href="#C3_0_e0ce7ae215" x="292.371329" y="125.922591" style="fill: #ff593d; stroke: #ff593d"/>
    </g>
    <g clip-path="url(#pace047afb8)">
     <use xlink:href="#C3_0_e0ce7ae215" x="299.21157" y="173.079509" style="fill: #ffd3c5; stroke: #ffd3c5"/>
    </g>
   </g>
   <g id="Path3DCollection_5">
    <defs>
     <path id="C4_0_04e12b48f3" d="M 0 2.236068 
C 0.593012 2.236068 1.161816 2.000462 1.581139 1.581139 
C 2.000462 1.161816 2.236068 0.593012 2.236068 -0 
C 2.236068 -0.593012 2.000462 -1.161816 1.581139 -1.581139 
C 1.161816 -2.000462 0.593012 -2.236068 0 -2.236068 
C -0.593012 -2.236068 -1.161816 -2.000462 -1.581139 -1.581139 
C -2.000462 -1.161816 -2.236068 -0.593012 -2.236068 0 
C -2.236068 0.593012 -2.000462 1.161816 -1.581139 1.581139 
C -1.161816 2.000462 -0.593012 2.236068 0 2.236068 
z
"/>
    </defs>
    <g clip-path="url(#pace047afb8)">
     <use xlink:href="#C4_0_04e12b48f3" x="188.333551" y="171.47344" style="fill: #002330; stroke: #002330"/>
    </g>
    <g clip-path="url(#pace047afb8)">
     <use xlink:href="#C4_0_04e12b48f3" x="199.645945" y="174.800648" style="fill: #133947; stroke: #133947"/>
    </g>
    <g clip-path="url(#pace047afb8)">
     <use xlink:href="#C4_0_04e12b48f3" x="218.34367" y="176.025597" style="fill: #405964; stroke: #405964"/>
    </g>
    <g clip-path="url(#pace047afb8)">
     <use xlink:href="#C4_0_04e12b48f3" x="229.884647" y="179.40276" style="fill: #56707b; stroke: #56707b"/>
    </g>
    <g clip-path="url(#pace047afb8)">
     <use xlink:href="#C4_0_04e12b48f3" x="246.773457" y="177.888124" style="fill: #7f8a8f; stroke: #7f8a8f"/>
    </g>
    <g clip-path="url(#pace047afb8)">
     <use xlink:href="#C4_0_04e12b48f3" x="252.637421" y="179.59093" style="fill: #8b969b; stroke: #8b969b"/>
    </g>
    <g clip-path="url(#pace047afb8)">
     <use xlink:href="#C4_0_04e12b48f3" x="293.498009" y="181.699346" style="fill: #ebe3d2; stroke: #ebe3d2"/>
    </g>
    <g clip-path="url(#pace047afb8)">
     <use xlink:href="#C4_0_04e12b48f3" x="301.071486" y="183.873354" style="fill: #fbf2e1; stroke: #fbf2e1"/>
    </g>
   </g>
   <g id="Path3DCollection_6">
    <defs>
     <path id="C5_0_283d85b222" d="M 0 2.236068 
C 0.593012 2.236068 1.161816 2.000462 1.581139 1.581139 
C 2.000462 1.161816 2.236068 0.593012 2.236068 -0 
C 2.236068 -0.593012 2.000462 -1.161816 1.581139 -1.581139 
C 1.161816 -2.000462 0.593012 -2.236068 0 -2.236068 
C -0.593012 -2.236068 -1.161816 -2.000462 -1.581139 -1.581139 
C -2.000462 -1.161816 -2.236068 -0.593012 -2.236068 0 
C -2.236068 0.593012 -2.000462 1.161816 -1.581139 1.581139 
C -1.161816 2.000462 -0.593012 2.236068 0 2.236068 
z
"/>
    </defs>
    <g clip-path="url(#pace047afb8)">
     <use xlink:href="#C5_0_283d85b222" x="180.125568" y="179.776706" style="fill: #002133; stroke: #002133"/>
    </g>
    <g clip-path="url(#pace047afb8)">
     <use xlink:href="#C5_0_283d85b222" x="188.81875" y="195.30759" style="fill: #004160; stroke: #004160"/>
    </g>
    <g clip-path="url(#pace047afb8)">
     <use xlink:href="#C5_0_283d85b222" x="212.116973" y="215.529316" style="fill: #0081b3; stroke: #0081b3"/>
    </g>
    <g clip-path="url(#pace047afb8)">
     <use xlink:href="#C5_0_283d85b222" x="286.522538" y="200.856322" style="fill: #b5f0ff; stroke: #b5f0ff"/>
    </g>
    <g clip-path="url(#pace047afb8)">
     <use xlink:href="#C5_0_283d85b222" x="236.03479" y="236.288819" style="fill: #00c5ff; stroke: #00c5ff"/>
    </g>
   </g>
   <g id="Path3DCollection_7">
    <defs>
     <path id="C6_0_1eba53cab0" d="M 0 2.236068 
C 0.593012 2.236068 1.161816 2.000462 1.581139 1.581139 
C 2.000462 1.161816 2.236068 0.593012 2.236068 -0 
C 2.236068 -0.593012 2.000462 -1.161816 1.581139 -1.581139 
C 1.161816 -2.000462 0.593012 -2.236068 0 -2.236068 
C -0.593012 -2.236068 -1.161816 -2.000462 -1.581139 -1.581139 
C -2.000462 -1.161816 -2.236068 -0.593012 -2.236068 0 
C -2.236068 0.593012 -2.000462 1.161816 -1.581139 1.581139 
C -1.161816 2.000462 -0.593012 2.236068 0 2.236068 
z
"/>
    </defs>
    <g clip-path="url(#pace047afb8)">
     <use xlink:href="#C6_0_1eba53cab0" x="176.988566" y="153.435519" style="stroke: #000000"/>
    </g>
    <g clip-path="url(#pace047afb8)">
     <use xlink:href="#C6_0_1eba53cab0" x="205.095586" y="161.55554" style="fill: #333333; stroke: #333333"/>
    </g>
    <g clip-path="url(#pace047afb8)">
     <use xlink:href="#C6_0_1eba53cab0" x="233.769729" y="169.839401" style="fill: #6b6b6b; stroke: #6b6b6b"/>
    </g>
    <g clip-path="url(#pace047afb8)">
     <use xlink:href="#C6_0_1eba53cab0" x="263.028333" y="178.29211" style="fill: #a6a5a5; stroke: #a6a5a5"/>
    </g>
    <g clip-path="url(#pace047afb8)">
     <use xlink:href="#C6_0_1eba53cab0" x="306.376266" y="190.815178" style="fill: #ffffff; stroke: #ffffff"/>
    </g>
   </g>
   <g id="Path3DCollection_8">
    <defs>
     <path id="C7_0_b4f724f0cb" d="M 0 2.236068 
C 0.593012 2.236068 1.161816 2.000462 1.581139 1.581139 
C 2.000462 1.161816 2.236068 0.593012 2.236068 -0 
C 2.236068 -0.593012 2.000462 -1.161816 1.581139 -1.581139 
C 1.161816 -2.000462 0.593012 -2.236068 0 -2.236068 
C -0.593012 -2.236068 -1.161816 -2.000462 -1.581139 -1.581139 
C -2.000462 -1.161816 -2.236068 -0.593012 -2.236068 0 
C -2.236068 0.593012 -2.000462 1.161816 -1.581139 1.581139 
C -1.161816 2.000462 -0.593012 2.236068 0 2.236068 
z
"/>
    </defs>
    <g clip-path="url(#pace047afb8)">
     <use xlink:href="#C7_0_b4f724f0cb" x="190.605342" y="138.636078" style="fill: #241600; stroke: #241600"/>
    </g>
    <g clip-path="url(#pace047afb8)">
     <use xlink:href="#C7_0_b4f724f0cb" x="204.701109" y="133.093127" style="fill: #473000; stroke: #473000"/>
    </g>
    <g clip-path="url(#pace047afb8)">
     <use xlink:href="#C7_0_b4f724f0cb" x="233.672926" y="129.533369" style="fill: #8b6600; stroke: #8b6600"/>
    </g>
    <g clip-path="url(#pace047afb8)">
     <use xlink:href="#C7_0_b4f724f0cb" x="293.137155" y="175.378463" style="fill: #efe5ba; stroke: #efe5ba"/>
    </g>
    <g clip-path="url(#pace047afb8)">
     <use xlink:href="#C7_0_b4f724f0cb" x="272.584246" y="129.815205" style="fill: #e9b000; stroke: #e9b000"/>
    </g>
   </g>
   <g id="Path3DCollection_9">
    <defs>
     <path id="C8_0_f225be2bf6" d="M 0 2.236068 
C 0.593012 2.236068 1.161816 2.000462 1.581139 1.581139 
C 2.000462 1.161816 2.236068 0.593012 2.236068 -0 
C 2.236068 -0.593012 2.000462 -1.161816 1.581139 -1.581139 
C 1.161816 -2.000462 0.593012 -2.236068 0 -2.236068 
C -0.593012 -2.236068 -1.161816 -2.000462 -1.581139 -1.581139 
C -2.000462 -1.161816 -2.236068 -0.593012 -2.236068 0 
C -2.236068 0.593012 -2.000462 1.161816 -1.581139 1.581139 
C -1.161816 2.000462 -0.593012 2.236068 0 2.236068 
z
"/>
    </defs>
    <g clip-path="url(#pace047afb8)">
     <use xlink:href="#C8_0_f225be2bf6" x="175.109874" y="170.335755" style="fill: #002a1a; stroke: #002a1a"/>
    </g>
    <g clip-path="url(#pace047afb8)">
     <use xlink:href="#C8_0_f225be2bf6" x="181.328482" y="181.196184" style="fill: #005036; stroke: #005036"/>
    </g>
    <g clip-path="url(#pace047afb8)">
     <use xlink:href="#C8_0_f225be2bf6" x="284.078744" y="195.152253" style="fill: #adf9e5; stroke: #adf9e5"/>
    </g>
    <g clip-path="url(#pace047afb8)">
     <use xlink:href="#C8_0_f225be2bf6" x="202.42427" y="196.781467" style="fill: #00996f; stroke: #00996f"/>
    </g>
    <g clip-path="url(#pace047afb8)">
     <use xlink:href="#C8_0_f225be2bf6" x="224.316951" y="212.955484" style="fill: #00eaab; stroke: #00eaab"/>
    </g>
   </g>
   <g id="Path3DCollection_10">
    <defs>
     <path id="C9_0_bfb6320d2a" d="M 0 2.236068 
C 0.593012 2.236068 1.161816 2.000462 1.581139 1.581139 
C 2.000462 1.161816 2.236068 0.593012 2.236068 -0 
C 2.236068 -0.593012 2.000462 -1.161816 1.581139 -1.581139 
C 1.161816 -2.000462 0.593012 -2.236068 0 -2.236068 
C -0.593012 -2.236068 -1.161816 -2.000462 -1.581139 -1.581139 
C -2.000462 -1.161816 -2.236068 -0.593012 -2.236068 0 
C -2.236068 0.593012 -2.000462 1.161816 -1.581139 1.581139 
C -1.161816 2.000462 -0.593012 2.236068 0 2.236068 
z
"/>
    </defs>
    <g clip-path="url(#pace047afb8)">
     <use xlink:href="#C9_0_bfb6320d2a" x="179.485671" y="153.135712" style="fill: #002600; stroke: #002600"/>
    </g>
    <g clip-path="url(#pace047afb8)">
     <use xlink:href="#C9_0_bfb6320d2a" x="187.98778" y="155.060684" style="fill: #004900; stroke: #004900"/>
    </g>
    <g clip-path="url(#pace047afb8)">
     <use xlink:href="#C9_0_bfb6320d2a" x="286.832565" y="184.538202" style="fill: #c9f5c7; stroke: #c9f5c7"/>
    </g>
    <g clip-path="url(#pace047afb8)">
     <use xlink:href="#C9_0_bfb6320d2a" x="211.504387" y="161.297825" style="fill: #008e00; stroke: #008e00"/>
    </g>
    <g clip-path="url(#pace047afb8)">
     <use xlink:href="#C9_0_bfb6320d2a" x="235.9297" y="167.775976" style="fill: #00d810; stroke: #00d810"/>
    </g>
   </g>
  </g>
 </g>
 <defs>
  <clipPath id="pace047afb8">
   <rect x="103.104" y="41.472" width="266.112" height="266.112"/>
  </clipPath>
 </defs>
</svg>
