<?xml version="1.0" encoding="utf-8" standalone="no"?>
<!DOCTYPE svg PUBLIC "-//W3C//DTD SVG 1.1//EN"
  "http://www.w3.org/Graphics/SVG/1.1/DTD/svg11.dtd">
<svg xmlns:xlink="http://www.w3.org/1999/xlink" width="460.8pt" height="345.6pt" viewBox="0 0 460.8 345.6" xmlns="http://www.w3.org/2000/svg" version="1.1">
 <metadata>
  <rdf:RDF xmlns:dc="http://purl.org/dc/elements/1.1/" xmlns:cc="http://creativecommons.org/ns#" xmlns:rdf="http://www.w3.org/1999/02/22-rdf-syntax-ns#">
   <cc:Work>
    <dc:type rdf:resource="http://purl.org/dc/dcmitype/StillImage"/>
    <dc:date>2024-06-04T21:57:05.298362</dc:date>
    <dc:format>image/svg+xml</dc:format>
    <dc:creator>
     <cc:Agent>
      <dc:title>Matplotlib v3.9.0, https://matplotlib.org/</dc:title>
     </cc:Agent>
    </dc:creator>
   </cc:Work>
  </rdf:RDF>
 </metadata>
 <defs>
  <style type="text/css">*{stroke-linejoin: round; stroke-linecap: butt}</style>
 </defs>
 <g id="figure_1">
  <g id="patch_1">
   <path d="M 0 345.6 
L 460.8 345.6 
L 460.8 0 
L 0 0 
z
" style="fill: #ffffff"/>
  </g>
  <g id="patch_2">
   <path d="M 103.104 307.584 
L 369.216 307.584 
L 369.216 41.472 
L 103.104 41.472 
z
" style="fill: #ffffff"/>
  </g>
  <g id="pane3d_1">
   <g id="patch_3">
    <path d="M 123.197291 241.969309 
L 211.076164 168.307495 
L 209.854564 62.073991 
L 117.770234 129.272941 
" style="fill: #f2f2f2; opacity: 0.5; stroke: #f2f2f2; stroke-linejoin: miter"/>
   </g>
  </g>
  <g id="pane3d_2">
   <g id="patch_4">
    <path d="M 211.076164 168.307495 
L 352.090401 209.294766 
L 357.122702 99.402171 
L 209.854564 62.073991 
" style="fill: #e6e6e6; opacity: 0.5; stroke: #e6e6e6; stroke-linejoin: miter"/>
   </g>
  </g>
  <g id="pane3d_3">
   <g id="patch_5">
    <path d="M 123.197291 241.969309 
L 272.679269 290.790123 
L 352.090401 209.294766 
L 211.076164 168.307495 
" style="fill: #ececec; opacity: 0.5; stroke: #ececec; stroke-linejoin: miter"/>
   </g>
  </g>
  <g id="grid3d_1">
   <g id="Line3DCollection_1">
    <path d="M 132.250704 244.926154 
L 219.652219 170.800215 
L 218.79322 64.33968 
" style="fill: none; stroke: #b0b0b0; stroke-width: 0.8"/>
    <path d="M 160.584743 254.180051 
L 246.462619 178.59294 
L 246.75198 71.42641 
" style="fill: none; stroke: #b0b0b0; stroke-width: 0.8"/>
    <path d="M 189.504557 263.625262 
L 273.781009 186.533318 
L 275.26357 78.653267 
" style="fill: none; stroke: #b0b0b0; stroke-width: 0.8"/>
    <path d="M 219.0285 273.267782 
L 301.621963 194.625584 
L 304.344551 86.024448 
" style="fill: none; stroke: #b0b0b0; stroke-width: 0.8"/>
    <path d="M 249.175703 283.113858 
L 330.000621 202.874139 
L 334.012151 93.54432 
" style="fill: none; stroke: #b0b0b0; stroke-width: 0.8"/>
   </g>
  </g>
  <g id="grid3d_2">
   <g id="Line3DCollection_2">
    <path d="M 124.138093 124.625967 
L 129.252888 236.893387 
L 278.173905 285.151275 
" style="fill: none; stroke: #b0b0b0; stroke-width: 0.8"/>
    <path d="M 139.556208 113.374529 
L 143.9281 224.592334 
L 291.47579 271.500268 
" style="fill: none; stroke: #b0b0b0; stroke-width: 0.8"/>
    <path d="M 154.538142 102.441396 
L 158.206016 212.624302 
L 304.398727 258.238156 
" style="fill: none; stroke: #b0b0b0; stroke-width: 0.8"/>
    <path d="M 169.102147 91.813249 
L 172.102556 200.975947 
L 316.95868 245.348554 
" style="fill: none; stroke: #b0b0b0; stroke-width: 0.8"/>
    <path d="M 183.265469 81.477502 
L 185.632797 189.63463 
L 329.170732 232.815985 
" style="fill: none; stroke: #b0b0b0; stroke-width: 0.8"/>
    <path d="M 197.044419 71.422251 
L 198.811036 178.588369 
L 341.049139 220.625816 
" style="fill: none; stroke: #b0b0b0; stroke-width: 0.8"/>
   </g>
  </g>
  <g id="grid3d_3">
   <g id="Line3DCollection_3">
    <path d="M 352.489255 200.584806 
L 210.979153 159.87117 
L 122.767816 233.050983 
" style="fill: none; stroke: #b0b0b0; stroke-width: 0.8"/>
    <path d="M 353.659841 175.022192 
L 210.694626 135.127946 
L 121.5067 206.86308 
" style="fill: none; stroke: #b0b0b0; stroke-width: 0.8"/>
    <path d="M 354.854993 148.923139 
L 210.404416 109.890547 
L 120.218097 180.104421 
" style="fill: none; stroke: #b0b0b0; stroke-width: 0.8"/>
    <path d="M 356.075491 122.270582 
L 210.108352 84.144019 
L 118.901101 152.756141 
" style="fill: none; stroke: #b0b0b0; stroke-width: 0.8"/>
   </g>
  </g>
  <g id="axis3d_1">
   <g id="line2d_1">
    <path d="M 123.197291 241.969309 
L 272.679269 290.790123 
" style="fill: none; stroke: #000000; stroke-width: 0.8; stroke-linecap: square"/>
   </g>
   <g id="xtick_1">
    <g id="line2d_2">
     <path d="M 133.011792 244.280669 
L 130.725263 246.219892 
" style="fill: none; stroke: #000000; stroke-width: 0.8; stroke-linecap: square"/>
    </g>
    <g id="text_1">
     <!-- 0.00 -->
     <g transform="translate(113.588842 268.235303) scale(0.1 -0.1)">
      <defs>
       <path id="DejaVuSans-30" d="M 2034 4250 
Q 1547 4250 1301 3770 
Q 1056 3291 1056 2328 
Q 1056 1369 1301 889 
Q 1547 409 2034 409 
Q 2525 409 2770 889 
Q 3016 1369 3016 2328 
Q 3016 3291 2770 3770 
Q 2525 4250 2034 4250 
z
M 2034 4750 
Q 2819 4750 3233 4129 
Q 3647 3509 3647 2328 
Q 3647 1150 3233 529 
Q 2819 -91 2034 -91 
Q 1250 -91 836 529 
Q 422 1150 422 2328 
Q 422 3509 836 4129 
Q 1250 4750 2034 4750 
z
" transform="scale(0.015625)"/>
       <path id="DejaVuSans-2e" d="M 684 794 
L 1344 794 
L 1344 0 
L 684 0 
L 684 794 
z
" transform="scale(0.015625)"/>
      </defs>
      <use xlink:href="#DejaVuSans-30"/>
      <use xlink:href="#DejaVuSans-2e" x="63.623047"/>
      <use xlink:href="#DejaVuSans-30" x="95.410156"/>
      <use xlink:href="#DejaVuSans-30" x="159.033203"/>
     </g>
    </g>
   </g>
   <g id="xtick_2">
    <g id="line2d_3">
     <path d="M 161.333184 253.521295 
L 159.084616 255.500417 
" style="fill: none; stroke: #000000; stroke-width: 0.8; stroke-linecap: square"/>
    </g>
    <g id="text_2">
     <!-- 0.05 -->
     <g transform="translate(141.951967 277.685295) scale(0.1 -0.1)">
      <defs>
       <path id="DejaVuSans-35" d="M 691 4666 
L 3169 4666 
L 3169 4134 
L 1269 4134 
L 1269 2991 
Q 1406 3038 1543 3061 
Q 1681 3084 1819 3084 
Q 2600 3084 3056 2656 
Q 3513 2228 3513 1497 
Q 3513 744 3044 326 
Q 2575 -91 1722 -91 
Q 1428 -91 1123 -41 
Q 819 9 494 109 
L 494 744 
Q 775 591 1075 516 
Q 1375 441 1709 441 
Q 2250 441 2565 725 
Q 2881 1009 2881 1497 
Q 2881 1984 2565 2268 
Q 2250 2553 1709 2553 
Q 1456 2553 1204 2497 
Q 953 2441 691 2322 
L 691 4666 
z
" transform="scale(0.015625)"/>
      </defs>
      <use xlink:href="#DejaVuSans-30"/>
      <use xlink:href="#DejaVuSans-2e" x="63.623047"/>
      <use xlink:href="#DejaVuSans-30" x="95.410156"/>
      <use xlink:href="#DejaVuSans-35" x="159.033203"/>
     </g>
    </g>
   </g>
   <g id="xtick_3">
    <g id="line2d_4">
     <path d="M 190.239664 262.952822 
L 188.031123 264.973087 
" style="fill: none; stroke: #000000; stroke-width: 0.8; stroke-linecap: square"/>
    </g>
    <g id="text_3">
     <!-- 0.10 -->
     <g transform="translate(170.903694 287.331397) scale(0.1 -0.1)">
      <defs>
       <path id="DejaVuSans-31" d="M 794 531 
L 1825 531 
L 1825 4091 
L 703 3866 
L 703 4441 
L 1819 4666 
L 2450 4666 
L 2450 531 
L 3481 531 
L 3481 0 
L 794 0 
L 794 531 
z
" transform="scale(0.015625)"/>
      </defs>
      <use xlink:href="#DejaVuSans-30"/>
      <use xlink:href="#DejaVuSans-2e" x="63.623047"/>
      <use xlink:href="#DejaVuSans-31" x="95.410156"/>
      <use xlink:href="#DejaVuSans-30" x="159.033203"/>
     </g>
    </g>
   </g>
   <g id="xtick_4">
    <g id="line2d_5">
     <path d="M 219.74955 272.581227 
L 217.583209 274.64393 
" style="fill: none; stroke: #000000; stroke-width: 0.8; stroke-linecap: square"/>
    </g>
    <g id="text_4">
     <!-- 0.15 -->
     <g transform="translate(200.462535 297.179776) scale(0.1 -0.1)">
      <use xlink:href="#DejaVuSans-30"/>
      <use xlink:href="#DejaVuSans-2e" x="63.623047"/>
      <use xlink:href="#DejaVuSans-31" x="95.410156"/>
      <use xlink:href="#DejaVuSans-35" x="159.033203"/>
     </g>
    </g>
   </g>
   <g id="xtick_5">
    <g id="line2d_6">
     <path d="M 249.881936 282.412739 
L 247.760078 284.519233 
" style="fill: none; stroke: #000000; stroke-width: 0.8; stroke-linecap: square"/>
    </g>
    <g id="text_5">
     <!-- 0.20 -->
     <g transform="translate(230.647791 307.236864) scale(0.1 -0.1)">
      <defs>
       <path id="DejaVuSans-32" d="M 1228 531 
L 3431 531 
L 3431 0 
L 469 0 
L 469 531 
Q 828 903 1448 1529 
Q 2069 2156 2228 2338 
Q 2531 2678 2651 2914 
Q 2772 3150 2772 3378 
Q 2772 3750 2511 3984 
Q 2250 4219 1831 4219 
Q 1534 4219 1204 4116 
Q 875 4013 500 3803 
L 500 4441 
Q 881 4594 1212 4672 
Q 1544 4750 1819 4750 
Q 2544 4750 2975 4387 
Q 3406 4025 3406 3419 
Q 3406 3131 3298 2873 
Q 3191 2616 2906 2266 
Q 2828 2175 2409 1742 
Q 1991 1309 1228 531 
z
" transform="scale(0.015625)"/>
      </defs>
      <use xlink:href="#DejaVuSans-30"/>
      <use xlink:href="#DejaVuSans-2e" x="63.623047"/>
      <use xlink:href="#DejaVuSans-32" x="95.410156"/>
      <use xlink:href="#DejaVuSans-30" x="159.033203"/>
     </g>
    </g>
   </g>
  </g>
  <g id="axis3d_2">
   <g id="line2d_7">
    <path d="M 352.090401 209.294766 
L 272.679269 290.790123 
" style="fill: none; stroke: #000000; stroke-width: 0.8; stroke-linecap: square"/>
   </g>
   <g id="xtick_6">
    <g id="line2d_8">
     <path d="M 276.918943 284.744604 
L 280.687074 285.965668 
" style="fill: none; stroke: #000000; stroke-width: 0.8; stroke-linecap: square"/>
    </g>
    <g id="text_6">
     <!-- −0.15 -->
     <g transform="translate(275.731882 306.173005) scale(0.1 -0.1)">
      <defs>
       <path id="DejaVuSans-2212" d="M 678 2272 
L 4684 2272 
L 4684 1741 
L 678 1741 
L 678 2272 
z
" transform="scale(0.015625)"/>
      </defs>
      <use xlink:href="#DejaVuSans-2212"/>
      <use xlink:href="#DejaVuSans-30" x="83.789062"/>
      <use xlink:href="#DejaVuSans-2e" x="147.412109"/>
      <use xlink:href="#DejaVuSans-31" x="179.199219"/>
      <use xlink:href="#DejaVuSans-35" x="242.822266"/>
     </g>
    </g>
   </g>
   <g id="xtick_7">
    <g id="line2d_9">
     <path d="M 290.233312 271.105262 
L 293.963915 272.291285 
" style="fill: none; stroke: #000000; stroke-width: 0.8; stroke-linecap: square"/>
    </g>
    <g id="text_7">
     <!-- −0.10 -->
     <g transform="translate(288.855383 292.319861) scale(0.1 -0.1)">
      <use xlink:href="#DejaVuSans-2212"/>
      <use xlink:href="#DejaVuSans-30" x="83.789062"/>
      <use xlink:href="#DejaVuSans-2e" x="147.412109"/>
      <use xlink:href="#DejaVuSans-31" x="179.199219"/>
      <use xlink:href="#DejaVuSans-30" x="242.822266"/>
     </g>
    </g>
   </g>
   <g id="xtick_8">
    <g id="line2d_10">
     <path d="M 303.168534 257.854321 
L 306.862203 259.006789 
" style="fill: none; stroke: #000000; stroke-width: 0.8; stroke-linecap: square"/>
    </g>
    <g id="text_8">
     <!-- −0.05 -->
     <g transform="translate(301.604798 278.8616) scale(0.1 -0.1)">
      <use xlink:href="#DejaVuSans-2212"/>
      <use xlink:href="#DejaVuSans-30" x="83.789062"/>
      <use xlink:href="#DejaVuSans-2e" x="147.412109"/>
      <use xlink:href="#DejaVuSans-30" x="179.199219"/>
      <use xlink:href="#DejaVuSans-35" x="242.822266"/>
     </g>
    </g>
   </g>
   <g id="xtick_9">
    <g id="line2d_11">
     <path d="M 315.740578 244.975423 
L 319.397901 246.095741 
" style="fill: none; stroke: #000000; stroke-width: 0.8; stroke-linecap: square"/>
    </g>
    <g id="text_9">
     <!-- 0.00 -->
     <g transform="translate(318.185742 265.781575) scale(0.1 -0.1)">
      <use xlink:href="#DejaVuSans-30"/>
      <use xlink:href="#DejaVuSans-2e" x="63.623047"/>
      <use xlink:href="#DejaVuSans-30" x="95.410156"/>
      <use xlink:href="#DejaVuSans-30" x="159.033203"/>
     </g>
    </g>
   </g>
   <g id="xtick_10">
    <g id="line2d_12">
     <path d="M 327.964528 232.453115 
L 331.586087 233.54261 
" style="fill: none; stroke: #000000; stroke-width: 0.8; stroke-linecap: square"/>
    </g>
    <g id="text_10">
     <!-- 0.05 -->
     <g transform="translate(330.233424 253.064063) scale(0.1 -0.1)">
      <use xlink:href="#DejaVuSans-30"/>
      <use xlink:href="#DejaVuSans-2e" x="63.623047"/>
      <use xlink:href="#DejaVuSans-30" x="95.410156"/>
      <use xlink:href="#DejaVuSans-35" x="159.033203"/>
     </g>
    </g>
   </g>
   <g id="xtick_11">
    <g id="line2d_13">
     <path d="M 339.854642 220.272791 
L 343.441013 221.332717 
" style="fill: none; stroke: #000000; stroke-width: 0.8; stroke-linecap: square"/>
    </g>
    <g id="text_11">
     <!-- 0.10 -->
     <g transform="translate(341.951769 240.694199) scale(0.1 -0.1)">
      <use xlink:href="#DejaVuSans-30"/>
      <use xlink:href="#DejaVuSans-2e" x="63.623047"/>
      <use xlink:href="#DejaVuSans-31" x="95.410156"/>
      <use xlink:href="#DejaVuSans-30" x="159.033203"/>
     </g>
    </g>
   </g>
  </g>
  <g id="axis3d_3">
   <g id="line2d_14">
    <path d="M 352.090401 209.294766 
L 357.122702 99.402171 
" style="fill: none; stroke: #000000; stroke-width: 0.8; stroke-linecap: square"/>
   </g>
   <g id="xtick_12">
    <g id="line2d_15">
     <path d="M 351.301398 200.24305 
L 354.867804 201.269135 
" style="fill: none; stroke: #000000; stroke-width: 0.8; stroke-linecap: square"/>
    </g>
    <g id="text_12">
     <!-- −0.2 -->
     <g transform="translate(358.659887 205.595232) scale(0.1 -0.1)">
      <use xlink:href="#DejaVuSans-2212"/>
      <use xlink:href="#DejaVuSans-30" x="83.789062"/>
      <use xlink:href="#DejaVuSans-2e" x="147.412109"/>
      <use xlink:href="#DejaVuSans-32" x="179.199219"/>
     </g>
    </g>
   </g>
   <g id="xtick_13">
    <g id="line2d_16">
     <path d="M 352.459185 174.687151 
L 356.064049 175.693083 
" style="fill: none; stroke: #000000; stroke-width: 0.8; stroke-linecap: square"/>
    </g>
    <g id="text_13">
     <!-- −0.1 -->
     <g transform="translate(360.016483 180.083536) scale(0.1 -0.1)">
      <use xlink:href="#DejaVuSans-2212"/>
      <use xlink:href="#DejaVuSans-30" x="83.789062"/>
      <use xlink:href="#DejaVuSans-2e" x="147.412109"/>
      <use xlink:href="#DejaVuSans-31" x="179.199219"/>
     </g>
    </g>
   </g>
   <g id="xtick_14">
    <g id="line2d_17">
     <path d="M 353.641259 148.595171 
L 357.285418 149.579875 
" style="fill: none; stroke: #000000; stroke-width: 0.8; stroke-linecap: square"/>
    </g>
    <g id="text_14">
     <!-- 0.0 -->
     <g transform="translate(365.591304 154.038115) scale(0.1 -0.1)">
      <use xlink:href="#DejaVuSans-30"/>
      <use xlink:href="#DejaVuSans-2e" x="63.623047"/>
      <use xlink:href="#DejaVuSans-30" x="95.410156"/>
     </g>
    </g>
   </g>
   <g id="xtick_15">
    <g id="line2d_18">
     <path d="M 354.848391 121.950064 
L 358.532711 122.912407 
" style="fill: none; stroke: #000000; stroke-width: 0.8; stroke-linecap: square"/>
    </g>
    <g id="text_15">
     <!-- 0.1 -->
     <g transform="translate(367.005563 127.442041) scale(0.1 -0.1)">
      <use xlink:href="#DejaVuSans-30"/>
      <use xlink:href="#DejaVuSans-2e" x="63.623047"/>
      <use xlink:href="#DejaVuSans-31" x="95.410156"/>
     </g>
    </g>
   </g>
  </g>
  <g id="axes_1">
   <g id="line2d_19">
    <path d="M 209.616177 128.375144 
L 227.827422 121.647255 
" clip-path="url(#pa76abf9d4a)" style="fill: none; stroke: #670a00; stroke-opacity: 0.25; stroke-width: 1.5; stroke-linecap: square"/>
   </g>
   <g id="line2d_20">
    <path d="M 227.827422 121.647255 
L 265.225357 120.054899 
" clip-path="url(#pa76abf9d4a)" style="fill: none; stroke: #c43921; stroke-opacity: 0.25; stroke-width: 1.5; stroke-linecap: square"/>
   </g>
   <g id="line2d_21">
    <path d="M 265.225357 120.054899 
L 310.883556 114.603317 
" clip-path="url(#pa76abf9d4a)" style="fill: none; stroke: #ff5034; stroke-opacity: 0.25; stroke-width: 1.5; stroke-linecap: square"/>
   </g>
   <g id="line2d_22">
    <path d="M 310.883556 114.603317 
L 308.963566 165.652283 
" clip-path="url(#pa76abf9d4a)" style="fill: none; stroke: #ffe0d2; stroke-opacity: 0.25; stroke-width: 1.5; stroke-linecap: square"/>
   </g>
   <g id="line2d_23">
    <path d="M 308.963566 165.652283 
L 209.616177 128.375144 
" clip-path="url(#pa76abf9d4a)" style="fill: none; stroke: #ffe0d2; stroke-opacity: 0.25; stroke-width: 1.5; stroke-linecap: square"/>
   </g>
   <g id="line2d_24">
    <path d="M 197.891351 132.968731 
L 210.480938 128.451711 
" clip-path="url(#pa76abf9d4a)" style="fill: none; stroke: #4d3700; stroke-opacity: 0.25; stroke-width: 1.5; stroke-linecap: square"/>
   </g>
   <g id="line2d_25">
    <path d="M 210.480938 128.451711 
L 242.804569 127.573856 
" clip-path="url(#pa76abf9d4a)" style="fill: none; stroke: #997300; stroke-opacity: 0.25; stroke-width: 1.5; stroke-linecap: square"/>
   </g>
   <g id="line2d_26">
    <path d="M 242.804569 127.573856 
L 286.320813 130.679048 
" clip-path="url(#pa76abf9d4a)" style="fill: none; stroke: #ffc700; stroke-opacity: 0.25; stroke-width: 1.5; stroke-linecap: square"/>
   </g>
   <g id="line2d_27">
    <path d="M 286.320813 130.679048 
L 302.529437 168.818658 
" clip-path="url(#pa76abf9d4a)" style="fill: none; stroke: #fef3c7; stroke-opacity: 0.25; stroke-width: 1.5; stroke-linecap: square"/>
   </g>
   <g id="line2d_28">
    <path d="M 302.529437 168.818658 
L 197.891351 132.968731 
" clip-path="url(#pa76abf9d4a)" style="fill: none; stroke: #fef3c7; stroke-opacity: 0.25; stroke-width: 1.5; stroke-linecap: square"/>
   </g>
   <g id="line2d_29">
    <path d="M 186.044024 147.152961 
L 192.673088 149.933235 
" clip-path="url(#pa76abf9d4a)" style="fill: none; stroke: #005000; stroke-opacity: 0.25; stroke-width: 1.5; stroke-linecap: square"/>
   </g>
   <g id="line2d_30">
    <path d="M 192.673088 149.933235 
L 219.25194 158.449696 
" clip-path="url(#pa76abf9d4a)" style="fill: none; stroke: #009c16; stroke-opacity: 0.25; stroke-width: 1.5; stroke-linecap: square"/>
   </g>
   <g id="line2d_31">
    <path d="M 219.25194 158.449696 
L 246.983557 167.33345 
" clip-path="url(#pa76abf9d4a)" style="fill: none; stroke: #00f02e; stroke-opacity: 0.25; stroke-width: 1.5; stroke-linecap: square"/>
   </g>
   <g id="line2d_32">
    <path d="M 246.983557 167.33345 
L 295.855057 177.809814 
" clip-path="url(#pa76abf9d4a)" style="fill: none; stroke: #d6ffd4; stroke-opacity: 0.25; stroke-width: 1.5; stroke-linecap: square"/>
   </g>
   <g id="line2d_33">
    <path d="M 295.855057 177.809814 
L 186.044024 147.152961 
" clip-path="url(#pa76abf9d4a)" style="fill: none; stroke: #d6ffd4; stroke-opacity: 0.25; stroke-width: 1.5; stroke-linecap: square"/>
   </g>
   <g id="line2d_34">
    <path d="M 181.2868 162.52158 
L 185.447922 173.289869 
" clip-path="url(#pa76abf9d4a)" style="fill: none; stroke: #00573c; stroke-opacity: 0.25; stroke-width: 1.5; stroke-linecap: square"/>
   </g>
   <g id="line2d_35">
    <path d="M 185.447922 173.289869 
L 209.445005 190.232649 
" clip-path="url(#pa76abf9d4a)" style="fill: none; stroke: #00a87c; stroke-opacity: 0.25; stroke-width: 1.5; stroke-linecap: square"/>
   </g>
   <g id="line2d_36">
    <path d="M 209.445005 190.232649 
L 234.500145 207.897643 
" clip-path="url(#pa76abf9d4a)" style="fill: none; stroke: #00ffc0; stroke-opacity: 0.25; stroke-width: 1.5; stroke-linecap: square"/>
   </g>
   <g id="line2d_37">
    <path d="M 234.500145 207.897643 
L 292.942542 187.316906 
" clip-path="url(#pa76abf9d4a)" style="fill: none; stroke: #b9fff2; stroke-opacity: 0.25; stroke-width: 1.5; stroke-linecap: square"/>
   </g>
   <g id="line2d_38">
    <path d="M 292.942542 187.316906 
L 181.2868 162.52158 
" clip-path="url(#pa76abf9d4a)" style="fill: none; stroke: #b9fff2; stroke-opacity: 0.25; stroke-width: 1.5; stroke-linecap: square"/>
   </g>
   <g id="line2d_39">
    <path d="M 186.525724 169.710045 
L 193.311647 184.008167 
" clip-path="url(#pa76abf9d4a)" style="fill: none; stroke: #004867; stroke-opacity: 0.25; stroke-width: 1.5; stroke-linecap: square"/>
   </g>
   <g id="line2d_40">
    <path d="M 193.311647 184.008167 
L 219.62834 204.415144 
" clip-path="url(#pa76abf9d4a)" style="fill: none; stroke: #008fc3; stroke-opacity: 0.25; stroke-width: 1.5; stroke-linecap: square"/>
   </g>
   <g id="line2d_41">
    <path d="M 219.62834 204.415144 
L 246.815157 225.468648 
" clip-path="url(#pa76abf9d4a)" style="fill: none; stroke: #00dcff; stroke-opacity: 0.25; stroke-width: 1.5; stroke-linecap: square"/>
   </g>
   <g id="line2d_42">
    <path d="M 246.815157 225.468648 
L 295.542971 191.631836 
" clip-path="url(#pa76abf9d4a)" style="fill: none; stroke: #c1feff; stroke-opacity: 0.25; stroke-width: 1.5; stroke-linecap: square"/>
   </g>
   <g id="line2d_43">
    <path d="M 295.542971 191.631836 
L 186.525724 169.710045 
" clip-path="url(#pa76abf9d4a)" style="fill: none; stroke: #c1feff; stroke-opacity: 0.25; stroke-width: 1.5; stroke-linecap: square"/>
   </g>
   <g id="line2d_44">
    <path d="M 198.41516 164.616648 
L 211.03107 176.068833 
" clip-path="url(#pa76abf9d4a)" style="fill: none; stroke: #2c2475; stroke-opacity: 0.25; stroke-width: 1.5; stroke-linecap: square"/>
   </g>
   <g id="line2d_45">
    <path d="M 211.03107 176.068833 
L 242.725657 193.189985 
" clip-path="url(#pa76abf9d4a)" style="fill: none; stroke: #6356db; stroke-opacity: 0.25; stroke-width: 1.5; stroke-linecap: square"/>
   </g>
   <g id="line2d_46">
    <path d="M 242.725657 193.189985 
L 276.922964 235.91454 
" clip-path="url(#pa76abf9d4a)" style="fill: none; stroke: #816bff; stroke-opacity: 0.25; stroke-width: 1.5; stroke-linecap: square"/>
   </g>
   <g id="line2d_47">
    <path d="M 276.922964 235.91454 
L 293.865119 191.11495 
" clip-path="url(#pa76abf9d4a)" style="fill: none; stroke: #cce1ff; stroke-opacity: 0.25; stroke-width: 1.5; stroke-linecap: square"/>
   </g>
   <g id="line2d_48">
    <path d="M 293.865119 191.11495 
L 198.41516 164.616648 
" clip-path="url(#pa76abf9d4a)" style="fill: none; stroke: #cce1ff; stroke-opacity: 0.25; stroke-width: 1.5; stroke-linecap: square"/>
   </g>
   <g id="line2d_49">
    <path d="M 209.88024 150.576281 
L 227.983624 154.917491 
" clip-path="url(#pa76abf9d4a)" style="fill: none; stroke: #590061; stroke-opacity: 0.25; stroke-width: 1.5; stroke-linecap: square"/>
   </g>
   <g id="line2d_50">
    <path d="M 227.983624 154.917491 
L 264.246064 164.501228 
" clip-path="url(#pa76abf9d4a)" style="fill: none; stroke: #aa12b7; stroke-opacity: 0.25; stroke-width: 1.5; stroke-linecap: square"/>
   </g>
   <g id="line2d_51">
    <path d="M 264.246064 164.501228 
L 288.398369 171.080329 
" clip-path="url(#pa76abf9d4a)" style="fill: none; stroke: #e43af4; stroke-opacity: 0.25; stroke-width: 1.5; stroke-linecap: square"/>
   </g>
   <g id="line2d_52">
    <path d="M 288.398369 171.080329 
L 308.584116 179.341383 
" clip-path="url(#pa76abf9d4a)" style="fill: none; stroke: #ffdbff; stroke-opacity: 0.25; stroke-width: 1.5; stroke-linecap: square"/>
   </g>
   <g id="line2d_53">
    <path d="M 308.584116 179.341383 
L 209.88024 150.576281 
" clip-path="url(#pa76abf9d4a)" style="fill: none; stroke: #ffdbff; stroke-opacity: 0.25; stroke-width: 1.5; stroke-linecap: square"/>
   </g>
   <g id="line2d_54">
    <path d="M 214.472814 135.707585 
L 234.835638 132.696318 
" clip-path="url(#pa76abf9d4a)" style="fill: none; stroke: #6a0037; stroke-opacity: 0.25; stroke-width: 1.5; stroke-linecap: square"/>
   </g>
   <g id="line2d_55">
    <path d="M 234.835638 132.696318 
L 273.157124 135.503898 
" clip-path="url(#pa76abf9d4a)" style="fill: none; stroke: #c70074; stroke-opacity: 0.25; stroke-width: 1.5; stroke-linecap: square"/>
   </g>
   <g id="line2d_56">
    <path d="M 273.157124 135.503898 
L 298.135279 139.323286 
" clip-path="url(#pa76abf9d4a)" style="fill: none; stroke: #ff21a0; stroke-opacity: 0.25; stroke-width: 1.5; stroke-linecap: square"/>
   </g>
   <g id="line2d_57">
    <path d="M 298.135279 139.323286 
L 311.434002 170.027998 
" clip-path="url(#pa76abf9d4a)" style="fill: none; stroke: #ffd6ef; stroke-opacity: 0.25; stroke-width: 1.5; stroke-linecap: square"/>
   </g>
   <g id="line2d_58">
    <path d="M 311.434002 170.027998 
L 214.472814 135.707585 
" clip-path="url(#pa76abf9d4a)" style="fill: none; stroke: #ffd6ef; stroke-opacity: 0.25; stroke-width: 1.5; stroke-linecap: square"/>
   </g>
   <g id="line2d_59">
    <path d="M 192.299865 161.016578 
L 198.594064 162.841975 
" clip-path="url(#pa76abf9d4a)" style="fill: none; stroke: #0b3340; stroke-opacity: 0.25; stroke-width: 1.5; stroke-linecap: square"/>
   </g>
   <g id="line2d_60">
    <path d="M 198.594064 162.841975 
L 232.155061 168.563829 
" clip-path="url(#pa76abf9d4a)" style="fill: none; stroke: #56707b; stroke-opacity: 0.25; stroke-width: 1.5; stroke-linecap: square"/>
   </g>
   <g id="line2d_61">
    <path d="M 232.155061 168.563829 
L 238.618507 170.429274 
" clip-path="url(#pa76abf9d4a)" style="fill: none; stroke: #627d89; stroke-opacity: 0.25; stroke-width: 1.5; stroke-linecap: square"/>
   </g>
   <g id="line2d_62">
    <path d="M 238.618507 170.429274 
L 254.11626 168.861416 
" clip-path="url(#pa76abf9d4a)" style="fill: none; stroke: #899499; stroke-opacity: 0.25; stroke-width: 1.5; stroke-linecap: square"/>
   </g>
   <g id="line2d_63">
    <path d="M 254.11626 168.861416 
L 260.664687 170.737706 
" clip-path="url(#pa76abf9d4a)" style="fill: none; stroke: #96a1a6; stroke-opacity: 0.25; stroke-width: 1.5; stroke-linecap: square"/>
   </g>
   <g id="line2d_64">
    <path d="M 260.664687 170.737706 
L 302.921391 174.064246 
" clip-path="url(#pa76abf9d4a)" style="fill: none; stroke: #f9f1e0; stroke-opacity: 0.25; stroke-width: 1.5; stroke-linecap: square"/>
   </g>
   <g id="line2d_65">
    <path d="M 302.921391 174.064246 
L 306.958787 175.209004 
" clip-path="url(#pa76abf9d4a)" style="fill: none; stroke: #fff9e8; stroke-opacity: 0.25; stroke-width: 1.5; stroke-linecap: square"/>
   </g>
   <g id="line2d_66">
    <path d="M 306.958787 175.209004 
L 192.299865 161.016578 
" clip-path="url(#pa76abf9d4a)" style="fill: none; stroke: #fff9e8; stroke-opacity: 0.25; stroke-width: 1.5; stroke-linecap: square"/>
   </g>
   <g id="line2d_67">
    <path d="M 179.457134 143.560872 
L 210.768592 152.488942 
" clip-path="url(#pa76abf9d4a)" style="fill: none; stroke: #3a3939; stroke-opacity: 0.25; stroke-width: 1.5; stroke-linecap: square"/>
   </g>
   <g id="line2d_68">
    <path d="M 210.768592 152.488942 
L 242.784044 161.617746 
" clip-path="url(#pa76abf9d4a)" style="fill: none; stroke: #787878; stroke-opacity: 0.25; stroke-width: 1.5; stroke-linecap: square"/>
   </g>
   <g id="line2d_69">
    <path d="M 242.784044 161.617746 
L 275.527501 170.954131 
" clip-path="url(#pa76abf9d4a)" style="fill: none; stroke: #bab9b9; stroke-opacity: 0.25; stroke-width: 1.5; stroke-linecap: square"/>
   </g>
   <g id="line2d_70">
    <path d="M 275.527501 170.954131 
L 309.02408 180.505261 
" clip-path="url(#pa76abf9d4a)" style="fill: none; stroke: #ffffff; stroke-opacity: 0.25; stroke-width: 1.5; stroke-linecap: square"/>
   </g>
   <g id="line2d_71">
    <path d="M 309.02408 180.505261 
L 179.457134 143.560872 
" clip-path="url(#pa76abf9d4a)" style="fill: none; stroke: #ffffff; stroke-opacity: 0.25; stroke-width: 1.5; stroke-linecap: square"/>
   </g>
   <g id="Path3DCollection_1">
    <defs>
     <path id="C0_0_885bc9c0e0" d="M 0 2.236068 
C 0.593012 2.236068 1.161816 2.000462 1.581139 1.581139 
C 2.000462 1.161816 2.236068 0.593012 2.236068 -0 
C 2.236068 -0.593012 2.000462 -1.161816 1.581139 -1.581139 
C 1.161816 -2.000462 0.593012 -2.236068 0 -2.236068 
C -0.593012 -2.236068 -1.161816 -2.000462 -1.581139 -1.581139 
C -2.000462 -1.161816 -2.236068 -0.593012 -2.236068 0 
C -2.236068 0.593012 -2.000462 1.161816 -1.581139 1.581139 
C -1.161816 2.000462 -0.593012 2.236068 0 2.236068 
z
"/>
    </defs>
    <g clip-path="url(#pa76abf9d4a)">
     <use xlink:href="#C0_0_885bc9c0e0" x="234.835638" y="132.696318" style="fill: #6a0037; stroke: #6a0037"/>
    </g>
    <g clip-path="url(#pa76abf9d4a)">
     <use xlink:href="#C0_0_885bc9c0e0" x="273.157124" y="135.503898" style="fill: #c70074; stroke: #c70074"/>
    </g>
    <g clip-path="url(#pa76abf9d4a)">
     <use xlink:href="#C0_0_885bc9c0e0" x="214.472814" y="135.707585" style="fill: #40001f; stroke: #40001f"/>
    </g>
    <g clip-path="url(#pa76abf9d4a)">
     <use xlink:href="#C0_0_885bc9c0e0" x="298.135279" y="139.323286" style="fill: #ff21a0; stroke: #ff21a0"/>
    </g>
    <g clip-path="url(#pa76abf9d4a)">
     <use xlink:href="#C0_0_885bc9c0e0" x="311.434002" y="170.027998" style="fill: #ffd6ef; stroke: #ffd6ef"/>
    </g>
   </g>
   <g id="Path3DCollection_2">
    <defs>
     <path id="C1_0_34f18cc819" d="M 0 2.236068 
C 0.593012 2.236068 1.161816 2.000462 1.581139 1.581139 
C 2.000462 1.161816 2.236068 0.593012 2.236068 -0 
C 2.236068 -0.593012 2.000462 -1.161816 1.581139 -1.581139 
C 1.161816 -2.000462 0.593012 -2.236068 0 -2.236068 
C -0.593012 -2.236068 -1.161816 -2.000462 -1.581139 -1.581139 
C -2.000462 -1.161816 -2.236068 -0.593012 -2.236068 0 
C -2.236068 0.593012 -2.000462 1.161816 -1.581139 1.581139 
C -1.161816 2.000462 -0.593012 2.236068 0 2.236068 
z
"/>
    </defs>
    <g clip-path="url(#pa76abf9d4a)">
     <use xlink:href="#C1_0_34f18cc819" x="227.983624" y="154.917491" style="fill: #590061; stroke: #590061"/>
    </g>
    <g clip-path="url(#pa76abf9d4a)">
     <use xlink:href="#C1_0_34f18cc819" x="209.88024" y="150.576281" style="fill: #35003a; stroke: #35003a"/>
    </g>
    <g clip-path="url(#pa76abf9d4a)">
     <use xlink:href="#C1_0_34f18cc819" x="264.246064" y="164.501228" style="fill: #aa12b7; stroke: #aa12b7"/>
    </g>
    <g clip-path="url(#pa76abf9d4a)">
     <use xlink:href="#C1_0_34f18cc819" x="288.398369" y="171.080329" style="fill: #e43af4; stroke: #e43af4"/>
    </g>
    <g clip-path="url(#pa76abf9d4a)">
     <use xlink:href="#C1_0_34f18cc819" x="308.584116" y="179.341383" style="fill: #ffdbff; stroke: #ffdbff"/>
    </g>
   </g>
   <g id="Path3DCollection_3">
    <defs>
     <path id="C2_0_c1290343e6" d="M 0 2.236068 
C 0.593012 2.236068 1.161816 2.000462 1.581139 1.581139 
C 2.000462 1.161816 2.236068 0.593012 2.236068 -0 
C 2.236068 -0.593012 2.000462 -1.161816 1.581139 -1.581139 
C 1.161816 -2.000462 0.593012 -2.236068 0 -2.236068 
C -0.593012 -2.236068 -1.161816 -2.000462 -1.581139 -1.581139 
C -2.000462 -1.161816 -2.236068 -0.593012 -2.236068 0 
C -2.236068 0.593012 -2.000462 1.161816 -1.581139 1.581139 
C -1.161816 2.000462 -0.593012 2.236068 0 2.236068 
z
"/>
    </defs>
    <g clip-path="url(#pa76abf9d4a)">
     <use xlink:href="#C2_0_c1290343e6" x="198.41516" y="164.616648" style="fill: #181546; stroke: #181546"/>
    </g>
    <g clip-path="url(#pa76abf9d4a)">
     <use xlink:href="#C2_0_c1290343e6" x="211.03107" y="176.068833" style="fill: #2c2475; stroke: #2c2475"/>
    </g>
    <g clip-path="url(#pa76abf9d4a)">
     <use xlink:href="#C2_0_c1290343e6" x="242.725657" y="193.189985" style="fill: #6356db; stroke: #6356db"/>
    </g>
    <g clip-path="url(#pa76abf9d4a)">
     <use xlink:href="#C2_0_c1290343e6" x="276.922964" y="235.91454" style="fill: #816bff; stroke: #816bff"/>
    </g>
    <g clip-path="url(#pa76abf9d4a)">
     <use xlink:href="#C2_0_c1290343e6" x="293.865119" y="191.11495" style="fill: #cce1ff; stroke: #cce1ff"/>
    </g>
   </g>
   <g id="Path3DCollection_4">
    <defs>
     <path id="C3_0_c304cc820a" d="M 0 2.236068 
C 0.593012 2.236068 1.161816 2.000462 1.581139 1.581139 
C 2.000462 1.161816 2.236068 0.593012 2.236068 -0 
C 2.236068 -0.593012 2.000462 -1.161816 1.581139 -1.581139 
C 1.161816 -2.000462 0.593012 -2.236068 0 -2.236068 
C -0.593012 -2.236068 -1.161816 -2.000462 -1.581139 -1.581139 
C -2.000462 -1.161816 -2.236068 -0.593012 -2.236068 0 
C -2.236068 0.593012 -2.000462 1.161816 -1.581139 1.581139 
C -1.161816 2.000462 -0.593012 2.236068 0 2.236068 
z
"/>
    </defs>
    <g clip-path="url(#pa76abf9d4a)">
     <use xlink:href="#C3_0_c304cc820a" x="209.616177" y="128.375144" style="fill: #3f0600; stroke: #3f0600"/>
    </g>
    <g clip-path="url(#pa76abf9d4a)">
     <use xlink:href="#C3_0_c304cc820a" x="227.827422" y="121.647255" style="fill: #670a00; stroke: #670a00"/>
    </g>
    <g clip-path="url(#pa76abf9d4a)">
     <use xlink:href="#C3_0_c304cc820a" x="265.225357" y="120.054899" style="fill: #c43921; stroke: #c43921"/>
    </g>
    <g clip-path="url(#pa76abf9d4a)">
     <use xlink:href="#C3_0_c304cc820a" x="310.883556" y="114.603317" style="fill: #ff5034; stroke: #ff5034"/>
    </g>
    <g clip-path="url(#pa76abf9d4a)">
     <use xlink:href="#C3_0_c304cc820a" x="308.963566" y="165.652283" style="fill: #ffe0d2; stroke: #ffe0d2"/>
    </g>
   </g>
   <g id="Path3DCollection_5">
    <defs>
     <path id="C4_0_45d6adde35" d="M 0 2.236068 
C 0.593012 2.236068 1.161816 2.000462 1.581139 1.581139 
C 2.000462 1.161816 2.236068 0.593012 2.236068 -0 
C 2.236068 -0.593012 2.000462 -1.161816 1.581139 -1.581139 
C 1.161816 -2.000462 0.593012 -2.236068 0 -2.236068 
C -0.593012 -2.236068 -1.161816 -2.000462 -1.581139 -1.581139 
C -2.000462 -1.161816 -2.236068 -0.593012 -2.236068 0 
C -2.236068 0.593012 -2.000462 1.161816 -1.581139 1.581139 
C -1.161816 2.000462 -0.593012 2.236068 0 2.236068 
z
"/>
    </defs>
    <g clip-path="url(#pa76abf9d4a)">
     <use xlink:href="#C4_0_45d6adde35" x="179.457134" y="143.560872" style="stroke: #000000"/>
    </g>
    <g clip-path="url(#pa76abf9d4a)">
     <use xlink:href="#C4_0_45d6adde35" x="210.768592" y="152.488942" style="fill: #3a3939; stroke: #3a3939"/>
    </g>
    <g clip-path="url(#pa76abf9d4a)">
     <use xlink:href="#C4_0_45d6adde35" x="242.784044" y="161.617746" style="fill: #787878; stroke: #787878"/>
    </g>
    <g clip-path="url(#pa76abf9d4a)">
     <use xlink:href="#C4_0_45d6adde35" x="275.527501" y="170.954131" style="fill: #bab9b9; stroke: #bab9b9"/>
    </g>
    <g clip-path="url(#pa76abf9d4a)">
     <use xlink:href="#C4_0_45d6adde35" x="309.02408" y="180.505261" style="fill: #ffffff; stroke: #ffffff"/>
    </g>
   </g>
   <g id="Path3DCollection_6">
    <defs>
     <path id="C5_0_541f94b48a" d="M 0 2.236068 
C 0.593012 2.236068 1.161816 2.000462 1.581139 1.581139 
C 2.000462 1.161816 2.236068 0.593012 2.236068 -0 
C 2.236068 -0.593012 2.000462 -1.161816 1.581139 -1.581139 
C 1.161816 -2.000462 0.593012 -2.236068 0 -2.236068 
C -0.593012 -2.236068 -1.161816 -2.000462 -1.581139 -1.581139 
C -2.000462 -1.161816 -2.236068 -0.593012 -2.236068 0 
C -2.236068 0.593012 -2.000462 1.161816 -1.581139 1.581139 
C -1.161816 2.000462 -0.593012 2.236068 0 2.236068 
z
"/>
    </defs>
    <g clip-path="url(#pa76abf9d4a)">
     <use xlink:href="#C5_0_541f94b48a" x="192.299865" y="161.016578" style="fill: #002633; stroke: #002633"/>
    </g>
    <g clip-path="url(#pa76abf9d4a)">
     <use xlink:href="#C5_0_541f94b48a" x="198.594064" y="162.841975" style="fill: #0b3340; stroke: #0b3340"/>
    </g>
    <g clip-path="url(#pa76abf9d4a)">
     <use xlink:href="#C5_0_541f94b48a" x="232.155061" y="168.563829" style="fill: #56707b; stroke: #56707b"/>
    </g>
    <g clip-path="url(#pa76abf9d4a)">
     <use xlink:href="#C5_0_541f94b48a" x="238.618507" y="170.429274" style="fill: #627d89; stroke: #627d89"/>
    </g>
    <g clip-path="url(#pa76abf9d4a)">
     <use xlink:href="#C5_0_541f94b48a" x="254.11626" y="168.861416" style="fill: #899499; stroke: #899499"/>
    </g>
    <g clip-path="url(#pa76abf9d4a)">
     <use xlink:href="#C5_0_541f94b48a" x="260.664687" y="170.737706" style="fill: #96a1a6; stroke: #96a1a6"/>
    </g>
    <g clip-path="url(#pa76abf9d4a)">
     <use xlink:href="#C5_0_541f94b48a" x="302.921391" y="174.064246" style="fill: #f9f1e0; stroke: #f9f1e0"/>
    </g>
    <g clip-path="url(#pa76abf9d4a)">
     <use xlink:href="#C5_0_541f94b48a" x="306.958787" y="175.209004" style="fill: #fff9e8; stroke: #fff9e8"/>
    </g>
   </g>
   <g id="Path3DCollection_7">
    <defs>
     <path id="C6_0_86b6372923" d="M 0 2.236068 
C 0.593012 2.236068 1.161816 2.000462 1.581139 1.581139 
C 2.000462 1.161816 2.236068 0.593012 2.236068 -0 
C 2.236068 -0.593012 2.000462 -1.161816 1.581139 -1.581139 
C 1.161816 -2.000462 0.593012 -2.236068 0 -2.236068 
C -0.593012 -2.236068 -1.161816 -2.000462 -1.581139 -1.581139 
C -2.000462 -1.161816 -2.236068 -0.593012 -2.236068 0 
C -2.236068 0.593012 -2.000462 1.161816 -1.581139 1.581139 
C -1.161816 2.000462 -0.593012 2.236068 0 2.236068 
z
"/>
    </defs>
    <g clip-path="url(#pa76abf9d4a)">
     <use xlink:href="#C6_0_86b6372923" x="186.525724" y="169.710045" style="fill: #002b3d; stroke: #002b3d"/>
    </g>
    <g clip-path="url(#pa76abf9d4a)">
     <use xlink:href="#C6_0_86b6372923" x="193.311647" y="184.008167" style="fill: #004867; stroke: #004867"/>
    </g>
    <g clip-path="url(#pa76abf9d4a)">
     <use xlink:href="#C6_0_86b6372923" x="219.62834" y="204.415144" style="fill: #008fc3; stroke: #008fc3"/>
    </g>
    <g clip-path="url(#pa76abf9d4a)">
     <use xlink:href="#C6_0_86b6372923" x="295.542971" y="191.631836" style="fill: #c1feff; stroke: #c1feff"/>
    </g>
    <g clip-path="url(#pa76abf9d4a)">
     <use xlink:href="#C6_0_86b6372923" x="246.815157" y="225.468648" style="fill: #00dcff; stroke: #00dcff"/>
    </g>
   </g>
   <g id="Path3DCollection_8">
    <defs>
     <path id="C7_0_ab47210eea" d="M 0 2.236068 
C 0.593012 2.236068 1.161816 2.000462 1.581139 1.581139 
C 2.000462 1.161816 2.236068 0.593012 2.236068 -0 
C 2.236068 -0.593012 2.000462 -1.161816 1.581139 -1.581139 
C 1.161816 -2.000462 0.593012 -2.236068 0 -2.236068 
C -0.593012 -2.236068 -1.161816 -2.000462 -1.581139 -1.581139 
C -2.000462 -1.161816 -2.236068 -0.593012 -2.236068 0 
C -2.236068 0.593012 -2.000462 1.161816 -1.581139 1.581139 
C -1.161816 2.000462 -0.593012 2.236068 0 2.236068 
z
"/>
    </defs>
    <g clip-path="url(#pa76abf9d4a)">
     <use xlink:href="#C7_0_ab47210eea" x="197.891351" y="132.968731" style="fill: #2d2000; stroke: #2d2000"/>
    </g>
    <g clip-path="url(#pa76abf9d4a)">
     <use xlink:href="#C7_0_ab47210eea" x="210.480938" y="128.451711" style="fill: #4d3700; stroke: #4d3700"/>
    </g>
    <g clip-path="url(#pa76abf9d4a)">
     <use xlink:href="#C7_0_ab47210eea" x="242.804569" y="127.573856" style="fill: #997300; stroke: #997300"/>
    </g>
    <g clip-path="url(#pa76abf9d4a)">
     <use xlink:href="#C7_0_ab47210eea" x="302.529437" y="168.818658" style="fill: #fef3c7; stroke: #fef3c7"/>
    </g>
    <g clip-path="url(#pa76abf9d4a)">
     <use xlink:href="#C7_0_ab47210eea" x="286.320813" y="130.679048" style="fill: #ffc700; stroke: #ffc700"/>
    </g>
   </g>
   <g id="Path3DCollection_9">
    <defs>
     <path id="C8_0_fbc7e9dd15" d="M 0 2.236068 
C 0.593012 2.236068 1.161816 2.000462 1.581139 1.581139 
C 2.000462 1.161816 2.236068 0.593012 2.236068 -0 
C 2.236068 -0.593012 2.000462 -1.161816 1.581139 -1.581139 
C 1.161816 -2.000462 0.593012 -2.236068 0 -2.236068 
C -0.593012 -2.236068 -1.161816 -2.000462 -1.581139 -1.581139 
C -2.000462 -1.161816 -2.236068 -0.593012 -2.236068 0 
C -2.236068 0.593012 -2.000462 1.161816 -1.581139 1.581139 
C -1.161816 2.000462 -0.593012 2.236068 0 2.236068 
z
"/>
    </defs>
    <g clip-path="url(#pa76abf9d4a)">
     <use xlink:href="#C8_0_fbc7e9dd15" x="186.044024" y="147.152961" style="fill: #002f00; stroke: #002f00"/>
    </g>
    <g clip-path="url(#pa76abf9d4a)">
     <use xlink:href="#C8_0_fbc7e9dd15" x="192.673088" y="149.933235" style="fill: #005000; stroke: #005000"/>
    </g>
    <g clip-path="url(#pa76abf9d4a)">
     <use xlink:href="#C8_0_fbc7e9dd15" x="295.855057" y="177.809814" style="fill: #d6ffd4; stroke: #d6ffd4"/>
    </g>
    <g clip-path="url(#pa76abf9d4a)">
     <use xlink:href="#C8_0_fbc7e9dd15" x="219.25194" y="158.449696" style="fill: #009c16; stroke: #009c16"/>
    </g>
    <g clip-path="url(#pa76abf9d4a)">
     <use xlink:href="#C8_0_fbc7e9dd15" x="246.983557" y="167.33345" style="fill: #00f02e; stroke: #00f02e"/>
    </g>
   </g>
   <g id="Path3DCollection_10">
    <defs>
     <path id="C9_0_a6f5af7b87" d="M 0 2.236068 
C 0.593012 2.236068 1.161816 2.000462 1.581139 1.581139 
C 2.000462 1.161816 2.236068 0.593012 2.236068 -0 
C 2.236068 -0.593012 2.000462 -1.161816 1.581139 -1.581139 
C 1.161816 -2.000462 0.593012 -2.236068 0 -2.236068 
C -0.593012 -2.236068 -1.161816 -2.000462 -1.581139 -1.581139 
C -2.000462 -1.161816 -2.236068 -0.593012 -2.236068 0 
C -2.236068 0.593012 -2.000462 1.161816 -1.581139 1.581139 
C -1.161816 2.000462 -0.593012 2.236068 0 2.236068 
z
"/>
    </defs>
    <g clip-path="url(#pa76abf9d4a)">
     <use xlink:href="#C9_0_a6f5af7b87" x="181.2868" y="162.52158" style="fill: #003423; stroke: #003423"/>
    </g>
    <g clip-path="url(#pa76abf9d4a)">
     <use xlink:href="#C9_0_a6f5af7b87" x="185.447922" y="173.289869" style="fill: #00573c; stroke: #00573c"/>
    </g>
    <g clip-path="url(#pa76abf9d4a)">
     <use xlink:href="#C9_0_a6f5af7b87" x="292.942542" y="187.316906" style="fill: #b9fff2; stroke: #b9fff2"/>
    </g>
    <g clip-path="url(#pa76abf9d4a)">
     <use xlink:href="#C9_0_a6f5af7b87" x="209.445005" y="190.232649" style="fill: #00a87c; stroke: #00a87c"/>
    </g>
    <g clip-path="url(#pa76abf9d4a)">
     <use xlink:href="#C9_0_a6f5af7b87" x="234.500145" y="207.897643" style="fill: #00ffc0; stroke: #00ffc0"/>
    </g>
   </g>
  </g>
 </g>
 <defs>
  <clipPath id="pa76abf9d4a">
   <rect x="103.104" y="41.472" width="266.112" height="266.112"/>
  </clipPath>
 </defs>
</svg>
