<?xml version="1.0" encoding="utf-8" standalone="no"?>
<!DOCTYPE svg PUBLIC "-//W3C//DTD SVG 1.1//EN"
  "http://www.w3.org/Graphics/SVG/1.1/DTD/svg11.dtd">
<svg xmlns:xlink="http://www.w3.org/1999/xlink" width="460.8pt" height="345.6pt" viewBox="0 0 460.8 345.6" xmlns="http://www.w3.org/2000/svg" version="1.1">
 <metadata>
  <rdf:RDF xmlns:dc="http://purl.org/dc/elements/1.1/" xmlns:cc="http://creativecommons.org/ns#" xmlns:rdf="http://www.w3.org/1999/02/22-rdf-syntax-ns#">
   <cc:Work>
    <dc:type rdf:resource="http://purl.org/dc/dcmitype/StillImage"/>
    <dc:date>2024-06-04T20:29:19.806628</dc:date>
    <dc:format>image/svg+xml</dc:format>
    <dc:creator>
     <cc:Agent>
      <dc:title>Matplotlib v3.9.0, https://matplotlib.org/</dc:title>
     </cc:Agent>
    </dc:creator>
   </cc:Work>
  </rdf:RDF>
 </metadata>
 <defs>
  <style type="text/css">*{stroke-linejoin: round; stroke-linecap: butt}</style>
 </defs>
 <g id="figure_1">
  <g id="patch_1">
   <path d="M 0 345.6 
L 460.8 345.6 
L 460.8 0 
L 0 0 
z
" style="fill: #ffffff"/>
  </g>
  <g id="patch_2">
   <path d="M 103.104 307.584 
L 369.216 307.584 
L 369.216 41.472 
L 103.104 41.472 
z
" style="fill: #ffffff"/>
  </g>
  <g id="pane3d_1">
   <g id="patch_3">
    <path d="M 123.197291 241.969309 
L 211.076164 168.307495 
L 209.854564 62.073991 
L 117.770234 129.272941 
" style="fill: #f2f2f2; opacity: 0.5; stroke: #f2f2f2; stroke-linejoin: miter"/>
   </g>
  </g>
  <g id="pane3d_2">
   <g id="patch_4">
    <path d="M 211.076164 168.307495 
L 352.090401 209.294766 
L 357.122702 99.402171 
L 209.854564 62.073991 
" style="fill: #e6e6e6; opacity: 0.5; stroke: #e6e6e6; stroke-linejoin: miter"/>
   </g>
  </g>
  <g id="pane3d_3">
   <g id="patch_5">
    <path d="M 123.197291 241.969309 
L 272.679269 290.790123 
L 352.090401 209.294766 
L 211.076164 168.307495 
" style="fill: #ececec; opacity: 0.5; stroke: #ececec; stroke-linejoin: miter"/>
   </g>
  </g>
  <g id="grid3d_1">
   <g id="Line3DCollection_1">
    <path d="M 132.250704 244.926154 
L 219.652219 170.800215 
L 218.79322 64.33968 
" style="fill: none; stroke: #b0b0b0; stroke-width: 0.8"/>
    <path d="M 160.584743 254.180051 
L 246.462619 178.59294 
L 246.75198 71.42641 
" style="fill: none; stroke: #b0b0b0; stroke-width: 0.8"/>
    <path d="M 189.504557 263.625262 
L 273.781009 186.533318 
L 275.26357 78.653267 
" style="fill: none; stroke: #b0b0b0; stroke-width: 0.8"/>
    <path d="M 219.0285 273.267782 
L 301.621963 194.625584 
L 304.344551 86.024448 
" style="fill: none; stroke: #b0b0b0; stroke-width: 0.8"/>
    <path d="M 249.175703 283.113858 
L 330.000621 202.874139 
L 334.012151 93.54432 
" style="fill: none; stroke: #b0b0b0; stroke-width: 0.8"/>
   </g>
  </g>
  <g id="grid3d_2">
   <g id="Line3DCollection_2">
    <path d="M 124.138093 124.625967 
L 129.252888 236.893387 
L 278.173905 285.151275 
" style="fill: none; stroke: #b0b0b0; stroke-width: 0.8"/>
    <path d="M 138.593505 114.077066 
L 143.011238 225.360866 
L 290.645305 272.35255 
" style="fill: none; stroke: #b0b0b0; stroke-width: 0.8"/>
    <path d="M 152.665167 103.808208 
L 156.420089 214.121301 
L 302.7833 259.895981 
" style="fill: none; stroke: #b0b0b0; stroke-width: 0.8"/>
    <path d="M 166.368159 93.808388 
L 169.492593 203.163669 
L 314.601085 247.768027 
" style="fill: none; stroke: #b0b0b0; stroke-width: 0.8"/>
    <path d="M 179.716783 84.067171 
L 182.241248 192.477493 
L 326.111164 235.955854 
" style="fill: none; stroke: #b0b0b0; stroke-width: 0.8"/>
    <path d="M 192.72461 74.574651 
L 194.677941 182.052811 
L 337.325402 224.447287 
" style="fill: none; stroke: #b0b0b0; stroke-width: 0.8"/>
    <path d="M 205.404525 65.321426 
L 206.813984 171.880139 
L 348.255059 213.23077 
" style="fill: none; stroke: #b0b0b0; stroke-width: 0.8"/>
   </g>
  </g>
  <g id="grid3d_3">
   <g id="Line3DCollection_3">
    <path d="M 352.397746 202.583133 
L 211.001408 161.806466 
L 122.866361 235.097325 
" style="fill: none; stroke: #b0b0b0; stroke-width: 0.8"/>
    <path d="M 353.089209 187.483349 
L 210.833291 147.186632 
L 122.121587 219.631614 
" style="fill: none; stroke: #b0b0b0; stroke-width: 0.8"/>
    <path d="M 353.789213 172.197036 
L 210.663198 132.39484 
L 121.367261 203.967557 
" style="fill: none; stroke: #b0b0b0; stroke-width: 0.8"/>
    <path d="M 354.497919 156.720718 
L 210.491091 117.428039 
L 120.603199 188.101313 
" style="fill: none; stroke: #b0b0b0; stroke-width: 0.8"/>
    <path d="M 355.215489 141.050828 
L 210.316937 102.283105 
L 119.829211 172.028943 
" style="fill: none; stroke: #b0b0b0; stroke-width: 0.8"/>
    <path d="M 355.94209 125.183714 
L 210.140697 86.956838 
L 119.045102 155.746404 
" style="fill: none; stroke: #b0b0b0; stroke-width: 0.8"/>
    <path d="M 356.677894 109.115626 
L 209.962334 71.445963 
L 118.250671 139.249545 
" style="fill: none; stroke: #b0b0b0; stroke-width: 0.8"/>
   </g>
  </g>
  <g id="axis3d_1">
   <g id="line2d_1">
    <path d="M 123.197291 241.969309 
L 272.679269 290.790123 
" style="fill: none; stroke: #000000; stroke-width: 0.8; stroke-linecap: square"/>
   </g>
   <g id="xtick_1">
    <g id="line2d_2">
     <path d="M 133.011792 244.280669 
L 130.725263 246.219892 
" style="fill: none; stroke: #000000; stroke-width: 0.8; stroke-linecap: square"/>
    </g>
    <g id="text_1">
     <!-- 0.00 -->
     <g transform="translate(113.588842 268.235303) scale(0.1 -0.1)">
      <defs>
       <path id="DejaVuSans-30" d="M 2034 4250 
Q 1547 4250 1301 3770 
Q 1056 3291 1056 2328 
Q 1056 1369 1301 889 
Q 1547 409 2034 409 
Q 2525 409 2770 889 
Q 3016 1369 3016 2328 
Q 3016 3291 2770 3770 
Q 2525 4250 2034 4250 
z
M 2034 4750 
Q 2819 4750 3233 4129 
Q 3647 3509 3647 2328 
Q 3647 1150 3233 529 
Q 2819 -91 2034 -91 
Q 1250 -91 836 529 
Q 422 1150 422 2328 
Q 422 3509 836 4129 
Q 1250 4750 2034 4750 
z
" transform="scale(0.015625)"/>
       <path id="DejaVuSans-2e" d="M 684 794 
L 1344 794 
L 1344 0 
L 684 0 
L 684 794 
z
" transform="scale(0.015625)"/>
      </defs>
      <use xlink:href="#DejaVuSans-30"/>
      <use xlink:href="#DejaVuSans-2e" x="63.623047"/>
      <use xlink:href="#DejaVuSans-30" x="95.410156"/>
      <use xlink:href="#DejaVuSans-30" x="159.033203"/>
     </g>
    </g>
   </g>
   <g id="xtick_2">
    <g id="line2d_3">
     <path d="M 161.333184 253.521295 
L 159.084616 255.500417 
" style="fill: none; stroke: #000000; stroke-width: 0.8; stroke-linecap: square"/>
    </g>
    <g id="text_2">
     <!-- 0.05 -->
     <g transform="translate(141.951967 277.685295) scale(0.1 -0.1)">
      <defs>
       <path id="DejaVuSans-35" d="M 691 4666 
L 3169 4666 
L 3169 4134 
L 1269 4134 
L 1269 2991 
Q 1406 3038 1543 3061 
Q 1681 3084 1819 3084 
Q 2600 3084 3056 2656 
Q 3513 2228 3513 1497 
Q 3513 744 3044 326 
Q 2575 -91 1722 -91 
Q 1428 -91 1123 -41 
Q 819 9 494 109 
L 494 744 
Q 775 591 1075 516 
Q 1375 441 1709 441 
Q 2250 441 2565 725 
Q 2881 1009 2881 1497 
Q 2881 1984 2565 2268 
Q 2250 2553 1709 2553 
Q 1456 2553 1204 2497 
Q 953 2441 691 2322 
L 691 4666 
z
" transform="scale(0.015625)"/>
      </defs>
      <use xlink:href="#DejaVuSans-30"/>
      <use xlink:href="#DejaVuSans-2e" x="63.623047"/>
      <use xlink:href="#DejaVuSans-30" x="95.410156"/>
      <use xlink:href="#DejaVuSans-35" x="159.033203"/>
     </g>
    </g>
   </g>
   <g id="xtick_3">
    <g id="line2d_4">
     <path d="M 190.239664 262.952822 
L 188.031123 264.973087 
" style="fill: none; stroke: #000000; stroke-width: 0.8; stroke-linecap: square"/>
    </g>
    <g id="text_3">
     <!-- 0.10 -->
     <g transform="translate(170.903694 287.331397) scale(0.1 -0.1)">
      <defs>
       <path id="DejaVuSans-31" d="M 794 531 
L 1825 531 
L 1825 4091 
L 703 3866 
L 703 4441 
L 1819 4666 
L 2450 4666 
L 2450 531 
L 3481 531 
L 3481 0 
L 794 0 
L 794 531 
z
" transform="scale(0.015625)"/>
      </defs>
      <use xlink:href="#DejaVuSans-30"/>
      <use xlink:href="#DejaVuSans-2e" x="63.623047"/>
      <use xlink:href="#DejaVuSans-31" x="95.410156"/>
      <use xlink:href="#DejaVuSans-30" x="159.033203"/>
     </g>
    </g>
   </g>
   <g id="xtick_4">
    <g id="line2d_5">
     <path d="M 219.74955 272.581227 
L 217.583209 274.64393 
" style="fill: none; stroke: #000000; stroke-width: 0.8; stroke-linecap: square"/>
    </g>
    <g id="text_4">
     <!-- 0.15 -->
     <g transform="translate(200.462535 297.179776) scale(0.1 -0.1)">
      <use xlink:href="#DejaVuSans-30"/>
      <use xlink:href="#DejaVuSans-2e" x="63.623047"/>
      <use xlink:href="#DejaVuSans-31" x="95.410156"/>
      <use xlink:href="#DejaVuSans-35" x="159.033203"/>
     </g>
    </g>
   </g>
   <g id="xtick_5">
    <g id="line2d_6">
     <path d="M 249.881936 282.412739 
L 247.760078 284.519233 
" style="fill: none; stroke: #000000; stroke-width: 0.8; stroke-linecap: square"/>
    </g>
    <g id="text_5">
     <!-- 0.20 -->
     <g transform="translate(230.647791 307.236864) scale(0.1 -0.1)">
      <defs>
       <path id="DejaVuSans-32" d="M 1228 531 
L 3431 531 
L 3431 0 
L 469 0 
L 469 531 
Q 828 903 1448 1529 
Q 2069 2156 2228 2338 
Q 2531 2678 2651 2914 
Q 2772 3150 2772 3378 
Q 2772 3750 2511 3984 
Q 2250 4219 1831 4219 
Q 1534 4219 1204 4116 
Q 875 4013 500 3803 
L 500 4441 
Q 881 4594 1212 4672 
Q 1544 4750 1819 4750 
Q 2544 4750 2975 4387 
Q 3406 4025 3406 3419 
Q 3406 3131 3298 2873 
Q 3191 2616 2906 2266 
Q 2828 2175 2409 1742 
Q 1991 1309 1228 531 
z
" transform="scale(0.015625)"/>
      </defs>
      <use xlink:href="#DejaVuSans-30"/>
      <use xlink:href="#DejaVuSans-2e" x="63.623047"/>
      <use xlink:href="#DejaVuSans-32" x="95.410156"/>
      <use xlink:href="#DejaVuSans-30" x="159.033203"/>
     </g>
    </g>
   </g>
  </g>
  <g id="axis3d_2">
   <g id="line2d_7">
    <path d="M 352.090401 209.294766 
L 272.679269 290.790123 
" style="fill: none; stroke: #000000; stroke-width: 0.8; stroke-linecap: square"/>
   </g>
   <g id="xtick_6">
    <g id="line2d_8">
     <path d="M 276.918943 284.744604 
L 280.687074 285.965668 
" style="fill: none; stroke: #000000; stroke-width: 0.8; stroke-linecap: square"/>
    </g>
    <g id="text_6">
     <!-- −0.15 -->
     <g transform="translate(275.731882 306.173005) scale(0.1 -0.1)">
      <defs>
       <path id="DejaVuSans-2212" d="M 678 2272 
L 4684 2272 
L 4684 1741 
L 678 1741 
L 678 2272 
z
" transform="scale(0.015625)"/>
      </defs>
      <use xlink:href="#DejaVuSans-2212"/>
      <use xlink:href="#DejaVuSans-30" x="83.789062"/>
      <use xlink:href="#DejaVuSans-2e" x="147.412109"/>
      <use xlink:href="#DejaVuSans-31" x="179.199219"/>
      <use xlink:href="#DejaVuSans-35" x="242.822266"/>
     </g>
    </g>
   </g>
   <g id="xtick_7">
    <g id="line2d_9">
     <path d="M 289.402042 271.956822 
L 293.135002 273.145017 
" style="fill: none; stroke: #000000; stroke-width: 0.8; stroke-linecap: square"/>
    </g>
    <g id="text_7">
     <!-- −0.10 -->
     <g transform="translate(288.036041 293.184756) scale(0.1 -0.1)">
      <use xlink:href="#DejaVuSans-2212"/>
      <use xlink:href="#DejaVuSans-30" x="83.789062"/>
      <use xlink:href="#DejaVuSans-2e" x="147.412109"/>
      <use xlink:href="#DejaVuSans-31" x="179.199219"/>
      <use xlink:href="#DejaVuSans-30" x="242.822266"/>
     </g>
    </g>
   </g>
   <g id="xtick_8">
    <g id="line2d_10">
     <path d="M 301.551563 259.510759 
L 305.249874 260.667395 
" style="fill: none; stroke: #000000; stroke-width: 0.8; stroke-linecap: square"/>
    </g>
    <g id="text_8">
     <!-- −0.05 -->
     <g transform="translate(300.011074 280.543932) scale(0.1 -0.1)">
      <use xlink:href="#DejaVuSans-2212"/>
      <use xlink:href="#DejaVuSans-30" x="83.789062"/>
      <use xlink:href="#DejaVuSans-2e" x="147.412109"/>
      <use xlink:href="#DejaVuSans-30" x="179.199219"/>
      <use xlink:href="#DejaVuSans-35" x="242.822266"/>
     </g>
    </g>
   </g>
   <g id="xtick_9">
    <g id="line2d_11">
     <path d="M 313.380702 247.392898 
L 317.044881 248.519216 
" style="fill: none; stroke: #000000; stroke-width: 0.8; stroke-linecap: square"/>
    </g>
    <g id="text_9">
     <!-- 0.00 -->
     <g transform="translate(315.859857 268.236776) scale(0.1 -0.1)">
      <use xlink:href="#DejaVuSans-30"/>
      <use xlink:href="#DejaVuSans-2e" x="63.623047"/>
      <use xlink:href="#DejaVuSans-30" x="95.410156"/>
      <use xlink:href="#DejaVuSans-30" x="159.033203"/>
     </g>
    </g>
   </g>
   <g id="xtick_10">
    <g id="line2d_12">
     <path d="M 324.901966 235.590427 
L 328.532524 236.687604 
" style="fill: none; stroke: #000000; stroke-width: 0.8; stroke-linecap: square"/>
    </g>
    <g id="text_10">
     <!-- 0.05 -->
     <g transform="translate(327.215055 256.250249) scale(0.1 -0.1)">
      <use xlink:href="#DejaVuSans-30"/>
      <use xlink:href="#DejaVuSans-2e" x="63.623047"/>
      <use xlink:href="#DejaVuSans-30" x="95.410156"/>
      <use xlink:href="#DejaVuSans-35" x="159.033203"/>
     </g>
    </g>
   </g>
   <g id="xtick_11">
    <g id="line2d_13">
     <path d="M 336.12722 224.091191 
L 339.724665 225.160342 
" style="fill: none; stroke: #000000; stroke-width: 0.8; stroke-linecap: square"/>
    </g>
    <g id="text_11">
     <!-- 0.10 -->
     <g transform="translate(338.278228 244.571982) scale(0.1 -0.1)">
      <use xlink:href="#DejaVuSans-30"/>
      <use xlink:href="#DejaVuSans-2e" x="63.623047"/>
      <use xlink:href="#DejaVuSans-31" x="95.410156"/>
      <use xlink:href="#DejaVuSans-30" x="159.033203"/>
     </g>
    </g>
   </g>
   <g id="xtick_12">
    <g id="line2d_14">
     <path d="M 347.067727 212.883651 
L 350.632559 213.925838 
" style="fill: none; stroke: #000000; stroke-width: 0.8; stroke-linecap: square"/>
    </g>
    <g id="text_12">
     <!-- 0.15 -->
     <g transform="translate(349.0605 233.190234) scale(0.1 -0.1)">
      <use xlink:href="#DejaVuSans-30"/>
      <use xlink:href="#DejaVuSans-2e" x="63.623047"/>
      <use xlink:href="#DejaVuSans-31" x="95.410156"/>
      <use xlink:href="#DejaVuSans-35" x="159.033203"/>
     </g>
    </g>
   </g>
  </g>
  <g id="axis3d_3">
   <g id="line2d_15">
    <path d="M 352.090401 209.294766 
L 357.122702 99.402171 
" style="fill: none; stroke: #000000; stroke-width: 0.8; stroke-linecap: square"/>
   </g>
   <g id="xtick_13">
    <g id="line2d_16">
     <path d="M 351.210889 202.24086 
L 354.77429 203.268494 
" style="fill: none; stroke: #000000; stroke-width: 0.8; stroke-linecap: square"/>
    </g>
    <g id="text_13">
     <!-- −0.15 -->
     <g transform="translate(355.372583 207.589645) scale(0.1 -0.1)">
      <use xlink:href="#DejaVuSans-2212"/>
      <use xlink:href="#DejaVuSans-30" x="83.789062"/>
      <use xlink:href="#DejaVuSans-2e" x="147.412109"/>
      <use xlink:href="#DejaVuSans-31" x="179.199219"/>
      <use xlink:href="#DejaVuSans-35" x="242.822266"/>
     </g>
    </g>
   </g>
   <g id="xtick_14">
    <g id="line2d_17">
     <path d="M 351.894793 187.145007 
L 355.480906 188.160843 
" style="fill: none; stroke: #000000; stroke-width: 0.8; stroke-linecap: square"/>
    </g>
    <g id="text_14">
     <!-- −0.10 -->
     <g transform="translate(356.173936 192.519672) scale(0.1 -0.1)">
      <use xlink:href="#DejaVuSans-2212"/>
      <use xlink:href="#DejaVuSans-30" x="83.789062"/>
      <use xlink:href="#DejaVuSans-2e" x="147.412109"/>
      <use xlink:href="#DejaVuSans-31" x="179.199219"/>
      <use xlink:href="#DejaVuSans-30" x="242.822266"/>
     </g>
    </g>
   </g>
   <g id="xtick_15">
    <g id="line2d_18">
     <path d="M 352.587142 171.86275 
L 356.196258 172.866416 
" style="fill: none; stroke: #000000; stroke-width: 0.8; stroke-linecap: square"/>
    </g>
    <g id="text_15">
     <!-- −0.05 -->
     <g transform="translate(356.985157 177.264105) scale(0.1 -0.1)">
      <use xlink:href="#DejaVuSans-2212"/>
      <use xlink:href="#DejaVuSans-30" x="83.789062"/>
      <use xlink:href="#DejaVuSans-2e" x="147.412109"/>
      <use xlink:href="#DejaVuSans-30" x="179.199219"/>
      <use xlink:href="#DejaVuSans-35" x="242.822266"/>
     </g>
    </g>
   </g>
   <g id="xtick_16">
    <g id="line2d_19">
     <path d="M 353.288093 156.390613 
L 356.920509 157.381728 
" style="fill: none; stroke: #000000; stroke-width: 0.8; stroke-linecap: square"/>
    </g>
    <g id="text_16">
     <!-- 0.00 -->
     <g transform="translate(361.996275 161.819496) scale(0.1 -0.1)">
      <use xlink:href="#DejaVuSans-30"/>
      <use xlink:href="#DejaVuSans-2e" x="63.623047"/>
      <use xlink:href="#DejaVuSans-30" x="95.410156"/>
      <use xlink:href="#DejaVuSans-30" x="159.033203"/>
     </g>
    </g>
   </g>
   <g id="xtick_17">
    <g id="line2d_20">
     <path d="M 353.997808 140.725037 
L 357.653826 141.703208 
" style="fill: none; stroke: #000000; stroke-width: 0.8; stroke-linecap: square"/>
    </g>
    <g id="text_17">
     <!-- 0.05 -->
     <g transform="translate(362.82779 146.182307) scale(0.1 -0.1)">
      <use xlink:href="#DejaVuSans-30"/>
      <use xlink:href="#DejaVuSans-2e" x="63.623047"/>
      <use xlink:href="#DejaVuSans-30" x="95.410156"/>
      <use xlink:href="#DejaVuSans-35" x="159.033203"/>
     </g>
    </g>
   </g>
   <g id="xtick_18">
    <g id="line2d_21">
     <path d="M 354.716452 124.86237 
L 358.396381 125.827191 
" style="fill: none; stroke: #000000; stroke-width: 0.8; stroke-linecap: square"/>
    </g>
    <g id="text_18">
     <!-- 0.10 -->
     <g transform="translate(363.669738 130.348914) scale(0.1 -0.1)">
      <use xlink:href="#DejaVuSans-30"/>
      <use xlink:href="#DejaVuSans-2e" x="63.623047"/>
      <use xlink:href="#DejaVuSans-31" x="95.410156"/>
      <use xlink:href="#DejaVuSans-30" x="159.033203"/>
     </g>
    </g>
   </g>
   <g id="xtick_19">
    <g id="line2d_22">
     <path d="M 355.444194 108.79887 
L 359.148348 109.749923 
" style="fill: none; stroke: #000000; stroke-width: 0.8; stroke-linecap: square"/>
    </g>
    <g id="text_19">
     <!-- 0.15 -->
     <g transform="translate(364.522317 114.315602) scale(0.1 -0.1)">
      <use xlink:href="#DejaVuSans-30"/>
      <use xlink:href="#DejaVuSans-2e" x="63.623047"/>
      <use xlink:href="#DejaVuSans-31" x="95.410156"/>
      <use xlink:href="#DejaVuSans-35" x="159.033203"/>
     </g>
    </g>
   </g>
  </g>
  <g id="axes_1">
   <g id="line2d_23">
    <path d="M 206.37615 136.736392 
L 224.238573 129.242814 
" clip-path="url(#p50803c01da)" style="fill: none; stroke: #670a00; stroke-opacity: 0.25; stroke-width: 1.5; stroke-linecap: square"/>
   </g>
   <g id="line2d_24">
    <path d="M 224.238573 129.242814 
L 261.340678 126.930945 
" clip-path="url(#p50803c01da)" style="fill: none; stroke: #c43921; stroke-opacity: 0.25; stroke-width: 1.5; stroke-linecap: square"/>
   </g>
   <g id="line2d_25">
    <path d="M 261.340678 126.930945 
L 302.77302 128.711557 
" clip-path="url(#p50803c01da)" style="fill: none; stroke: #ff6d4f; stroke-opacity: 0.25; stroke-width: 1.5; stroke-linecap: square"/>
   </g>
   <g id="line2d_26">
    <path d="M 302.77302 128.711557 
L 305.958096 174.992564 
" clip-path="url(#p50803c01da)" style="fill: none; stroke: #ffe0d2; stroke-opacity: 0.25; stroke-width: 1.5; stroke-linecap: square"/>
   </g>
   <g id="line2d_27">
    <path d="M 305.958096 174.992564 
L 206.37615 136.736392 
" clip-path="url(#p50803c01da)" style="fill: none; stroke: #ffe0d2; stroke-opacity: 0.25; stroke-width: 1.5; stroke-linecap: square"/>
   </g>
   <g id="line2d_28">
    <path d="M 195.328634 139.96933 
L 207.888261 133.982091 
" clip-path="url(#p50803c01da)" style="fill: none; stroke: #4d3700; stroke-opacity: 0.25; stroke-width: 1.5; stroke-linecap: square"/>
   </g>
   <g id="line2d_29">
    <path d="M 207.888261 133.982091 
L 240.215535 131.331712 
" clip-path="url(#p50803c01da)" style="fill: none; stroke: #997300; stroke-opacity: 0.25; stroke-width: 1.5; stroke-linecap: square"/>
   </g>
   <g id="line2d_30">
    <path d="M 240.215535 131.331712 
L 283.803904 132.858957 
" clip-path="url(#p50803c01da)" style="fill: none; stroke: #ffc700; stroke-opacity: 0.25; stroke-width: 1.5; stroke-linecap: square"/>
   </g>
   <g id="line2d_31">
    <path d="M 283.803904 132.858957 
L 299.925119 177.312583 
" clip-path="url(#p50803c01da)" style="fill: none; stroke: #fef3c7; stroke-opacity: 0.25; stroke-width: 1.5; stroke-linecap: square"/>
   </g>
   <g id="line2d_32">
    <path d="M 299.925119 177.312583 
L 195.328634 139.96933 
" clip-path="url(#p50803c01da)" style="fill: none; stroke: #fef3c7; stroke-opacity: 0.25; stroke-width: 1.5; stroke-linecap: square"/>
   </g>
   <g id="line2d_33">
    <path d="M 184.232407 154.505307 
L 191.199182 155.986682 
" clip-path="url(#p50803c01da)" style="fill: none; stroke: #005000; stroke-opacity: 0.25; stroke-width: 1.5; stroke-linecap: square"/>
   </g>
   <g id="line2d_34">
    <path d="M 191.199182 155.986682 
L 218.111204 163.20162 
" clip-path="url(#p50803c01da)" style="fill: none; stroke: #009c16; stroke-opacity: 0.25; stroke-width: 1.5; stroke-linecap: square"/>
   </g>
   <g id="line2d_35">
    <path d="M 218.111204 163.20162 
L 246.192119 170.731154 
" clip-path="url(#p50803c01da)" style="fill: none; stroke: #00f02e; stroke-opacity: 0.25; stroke-width: 1.5; stroke-linecap: square"/>
   </g>
   <g id="line2d_36">
    <path d="M 246.192119 170.731154 
L 293.643319 186.504336 
" clip-path="url(#p50803c01da)" style="fill: none; stroke: #d6ffd4; stroke-opacity: 0.25; stroke-width: 1.5; stroke-linecap: square"/>
   </g>
   <g id="line2d_37">
    <path d="M 293.643319 186.504336 
L 184.232407 154.505307 
" clip-path="url(#p50803c01da)" style="fill: none; stroke: #d6ffd4; stroke-opacity: 0.25; stroke-width: 1.5; stroke-linecap: square"/>
   </g>
   <g id="line2d_38">
    <path d="M 179.845669 171.733283 
L 184.528653 182.150799 
" clip-path="url(#p50803c01da)" style="fill: none; stroke: #00573c; stroke-opacity: 0.25; stroke-width: 1.5; stroke-linecap: square"/>
   </g>
   <g id="line2d_39">
    <path d="M 184.528653 182.150799 
L 208.999794 198.764473 
" clip-path="url(#p50803c01da)" style="fill: none; stroke: #00a87c; stroke-opacity: 0.25; stroke-width: 1.5; stroke-linecap: square"/>
   </g>
   <g id="line2d_40">
    <path d="M 208.999794 198.764473 
L 234.517636 216.065865 
" clip-path="url(#p50803c01da)" style="fill: none; stroke: #00ffc0; stroke-opacity: 0.25; stroke-width: 1.5; stroke-linecap: square"/>
   </g>
   <g id="line2d_41">
    <path d="M 234.517636 216.065865 
L 290.879918 197.142184 
" clip-path="url(#p50803c01da)" style="fill: none; stroke: #b9fff2; stroke-opacity: 0.25; stroke-width: 1.5; stroke-linecap: square"/>
   </g>
   <g id="line2d_42">
    <path d="M 290.879918 197.142184 
L 179.845669 171.733283 
" clip-path="url(#p50803c01da)" style="fill: none; stroke: #b9fff2; stroke-opacity: 0.25; stroke-width: 1.5; stroke-linecap: square"/>
   </g>
   <g id="line2d_43">
    <path d="M 184.822891 181.176154 
L 191.979476 196.263723 
" clip-path="url(#p50803c01da)" style="fill: none; stroke: #004867; stroke-opacity: 0.25; stroke-width: 1.5; stroke-linecap: square"/>
   </g>
   <g id="line2d_44">
    <path d="M 191.979476 196.263723 
L 218.581598 217.514782 
" clip-path="url(#p50803c01da)" style="fill: none; stroke: #008fc3; stroke-opacity: 0.25; stroke-width: 1.5; stroke-linecap: square"/>
   </g>
   <g id="line2d_45">
    <path d="M 218.581598 217.514782 
L 246.014744 239.400533 
" clip-path="url(#p50803c01da)" style="fill: none; stroke: #00dcff; stroke-opacity: 0.25; stroke-width: 1.5; stroke-linecap: square"/>
   </g>
   <g id="line2d_46">
    <path d="M 246.014744 239.400533 
L 293.287618 202.847236 
" clip-path="url(#p50803c01da)" style="fill: none; stroke: #c1feff; stroke-opacity: 0.25; stroke-width: 1.5; stroke-linecap: square"/>
   </g>
   <g id="line2d_47">
    <path d="M 293.287618 202.847236 
L 184.822891 181.176154 
" clip-path="url(#p50803c01da)" style="fill: none; stroke: #c1feff; stroke-opacity: 0.25; stroke-width: 1.5; stroke-linecap: square"/>
   </g>
   <g id="line2d_48">
    <path d="M 195.988086 177.410458 
L 208.598281 190.315384 
" clip-path="url(#p50803c01da)" style="fill: none; stroke: #2c2475; stroke-opacity: 0.25; stroke-width: 1.5; stroke-linecap: square"/>
   </g>
   <g id="line2d_49">
    <path d="M 208.598281 190.315384 
L 240.201443 208.965704 
" clip-path="url(#p50803c01da)" style="fill: none; stroke: #6356db; stroke-opacity: 0.25; stroke-width: 1.5; stroke-linecap: square"/>
   </g>
   <g id="line2d_50">
    <path d="M 240.201443 208.965704 
L 272.329372 227.90905 
" clip-path="url(#p50803c01da)" style="fill: none; stroke: #9d84ff; stroke-opacity: 0.25; stroke-width: 1.5; stroke-linecap: square"/>
   </g>
   <g id="line2d_51">
    <path d="M 272.329372 227.90905 
L 299.368021 200.321638 
" clip-path="url(#p50803c01da)" style="fill: none; stroke: #e6ecff; stroke-opacity: 0.25; stroke-width: 1.5; stroke-linecap: square"/>
   </g>
   <g id="line2d_52">
    <path d="M 299.368021 200.321638 
L 195.988086 177.410458 
" clip-path="url(#p50803c01da)" style="fill: none; stroke: #e6ecff; stroke-opacity: 0.25; stroke-width: 1.5; stroke-linecap: square"/>
   </g>
   <g id="line2d_53">
    <path d="M 206.723471 163.016024 
L 224.479885 168.635488 
" clip-path="url(#p50803c01da)" style="fill: none; stroke: #590061; stroke-opacity: 0.25; stroke-width: 1.5; stroke-linecap: square"/>
   </g>
   <g id="line2d_54">
    <path d="M 224.479885 168.635488 
L 260.39089 179.461101 
" clip-path="url(#p50803c01da)" style="fill: none; stroke: #aa12b7; stroke-opacity: 0.25; stroke-width: 1.5; stroke-linecap: square"/>
   </g>
   <g id="line2d_55">
    <path d="M 260.39089 179.461101 
L 297.571666 190.752331 
" clip-path="url(#p50803c01da)" style="fill: none; stroke: #ff00ff; stroke-opacity: 0.25; stroke-width: 1.5; stroke-linecap: square"/>
   </g>
   <g id="line2d_56">
    <path d="M 297.571666 190.752331 
L 305.527015 191.189505 
" clip-path="url(#p50803c01da)" style="fill: none; stroke: #ffdbff; stroke-opacity: 0.25; stroke-width: 1.5; stroke-linecap: square"/>
   </g>
   <g id="line2d_57">
    <path d="M 305.527015 191.189505 
L 206.723471 163.016024 
" clip-path="url(#p50803c01da)" style="fill: none; stroke: #ffdbff; stroke-opacity: 0.25; stroke-width: 1.5; stroke-linecap: square"/>
   </g>
   <g id="line2d_58">
    <path d="M 210.992514 146.320914 
L 230.881837 143.680987 
" clip-path="url(#p50803c01da)" style="fill: none; stroke: #6a0037; stroke-opacity: 0.25; stroke-width: 1.5; stroke-linecap: square"/>
   </g>
   <g id="line2d_59">
    <path d="M 230.881837 143.680987 
L 268.797957 146.905433 
" clip-path="url(#p50803c01da)" style="fill: none; stroke: #c70074; stroke-opacity: 0.25; stroke-width: 1.5; stroke-linecap: square"/>
   </g>
   <g id="line2d_60">
    <path d="M 268.797957 146.905433 
L 307.590985 149.705761 
" clip-path="url(#p50803c01da)" style="fill: none; stroke: #ff00b3; stroke-opacity: 0.25; stroke-width: 1.5; stroke-linecap: square"/>
   </g>
   <g id="line2d_61">
    <path d="M 307.590985 149.705761 
L 308.242987 180.757252 
" clip-path="url(#p50803c01da)" style="fill: none; stroke: #ffd6ef; stroke-opacity: 0.25; stroke-width: 1.5; stroke-linecap: square"/>
   </g>
   <g id="line2d_62">
    <path d="M 308.242987 180.757252 
L 210.992514 146.320914 
" clip-path="url(#p50803c01da)" style="fill: none; stroke: #ffd6ef; stroke-opacity: 0.25; stroke-width: 1.5; stroke-linecap: square"/>
   </g>
   <g id="line2d_63">
    <path d="M 190.209103 172.025078 
L 196.489746 173.872345 
" clip-path="url(#p50803c01da)" style="fill: none; stroke: #0b3340; stroke-opacity: 0.25; stroke-width: 1.5; stroke-linecap: square"/>
   </g>
   <g id="line2d_64">
    <path d="M 196.489746 173.872345 
L 229.873624 179.399534 
" clip-path="url(#p50803c01da)" style="fill: none; stroke: #56707b; stroke-opacity: 0.25; stroke-width: 1.5; stroke-linecap: square"/>
   </g>
   <g id="line2d_65">
    <path d="M 229.873624 179.399534 
L 236.324399 181.287184 
" clip-path="url(#p50803c01da)" style="fill: none; stroke: #627d89; stroke-opacity: 0.25; stroke-width: 1.5; stroke-linecap: square"/>
   </g>
   <g id="line2d_66">
    <path d="M 236.324399 181.287184 
L 251.643543 179.302323 
" clip-path="url(#p50803c01da)" style="fill: none; stroke: #899499; stroke-opacity: 0.25; stroke-width: 1.5; stroke-linecap: square"/>
   </g>
   <g id="line2d_67">
    <path d="M 251.643543 179.302323 
L 258.181338 181.200799 
" clip-path="url(#p50803c01da)" style="fill: none; stroke: #96a1a6; stroke-opacity: 0.25; stroke-width: 1.5; stroke-linecap: square"/>
   </g>
   <g id="line2d_68">
    <path d="M 258.181338 181.200799 
L 300.264431 183.641684 
" clip-path="url(#p50803c01da)" style="fill: none; stroke: #f9f1e0; stroke-opacity: 0.25; stroke-width: 1.5; stroke-linecap: square"/>
   </g>
   <g id="line2d_69">
    <path d="M 300.264431 183.641684 
L 304.297513 184.799403 
" clip-path="url(#p50803c01da)" style="fill: none; stroke: #fff9e8; stroke-opacity: 0.25; stroke-width: 1.5; stroke-linecap: square"/>
   </g>
   <g id="line2d_70">
    <path d="M 304.297513 184.799403 
L 190.209103 172.025078 
" clip-path="url(#p50803c01da)" style="fill: none; stroke: #fff9e8; stroke-opacity: 0.25; stroke-width: 1.5; stroke-linecap: square"/>
   </g>
   <g id="line2d_71">
    <path d="M 176.988566 153.435519 
L 208.257236 162.46893 
" clip-path="url(#p50803c01da)" style="fill: none; stroke: #3a3939; stroke-opacity: 0.25; stroke-width: 1.5; stroke-linecap: square"/>
   </g>
   <g id="line2d_72">
    <path d="M 208.257236 162.46893 
L 240.228589 171.705343 
" clip-path="url(#p50803c01da)" style="fill: none; stroke: #787878; stroke-opacity: 0.25; stroke-width: 1.5; stroke-linecap: square"/>
   </g>
   <g id="line2d_73">
    <path d="M 240.228589 171.705343 
L 272.92658 181.15168 
" clip-path="url(#p50803c01da)" style="fill: none; stroke: #bab9b9; stroke-opacity: 0.25; stroke-width: 1.5; stroke-linecap: square"/>
   </g>
   <g id="line2d_74">
    <path d="M 272.92658 181.15168 
L 306.376266 190.815178 
" clip-path="url(#p50803c01da)" style="fill: none; stroke: #ffffff; stroke-opacity: 0.25; stroke-width: 1.5; stroke-linecap: square"/>
   </g>
   <g id="line2d_75">
    <path d="M 306.376266 190.815178 
L 176.988566 153.435519 
" clip-path="url(#p50803c01da)" style="fill: none; stroke: #ffffff; stroke-opacity: 0.25; stroke-width: 1.5; stroke-linecap: square"/>
   </g>
   <g id="Path3DCollection_1">
    <defs>
     <path id="C0_0_48c79704f3" d="M 0 2.236068 
C 0.593012 2.236068 1.161816 2.000462 1.581139 1.581139 
C 2.000462 1.161816 2.236068 0.593012 2.236068 -0 
C 2.236068 -0.593012 2.000462 -1.161816 1.581139 -1.581139 
C 1.161816 -2.000462 0.593012 -2.236068 0 -2.236068 
C -0.593012 -2.236068 -1.161816 -2.000462 -1.581139 -1.581139 
C -2.000462 -1.161816 -2.236068 -0.593012 -2.236068 0 
C -2.236068 0.593012 -2.000462 1.161816 -1.581139 1.581139 
C -1.161816 2.000462 -0.593012 2.236068 0 2.236068 
z
"/>
    </defs>
    <g clip-path="url(#p50803c01da)">
     <use xlink:href="#C0_0_48c79704f3" x="224.479885" y="168.635488" style="fill: #590061; stroke: #590061"/>
    </g>
    <g clip-path="url(#p50803c01da)">
     <use xlink:href="#C0_0_48c79704f3" x="206.723471" y="163.016024" style="fill: #35003a; stroke: #35003a"/>
    </g>
    <g clip-path="url(#p50803c01da)">
     <use xlink:href="#C0_0_48c79704f3" x="260.39089" y="179.461101" style="fill: #aa12b7; stroke: #aa12b7"/>
    </g>
    <g clip-path="url(#p50803c01da)">
     <use xlink:href="#C0_0_48c79704f3" x="297.571666" y="190.752331" style="fill: #ff00ff; stroke: #ff00ff"/>
    </g>
    <g clip-path="url(#p50803c01da)">
     <use xlink:href="#C0_0_48c79704f3" x="305.527015" y="191.189505" style="fill: #ffdbff; stroke: #ffdbff"/>
    </g>
   </g>
   <g id="Path3DCollection_2">
    <defs>
     <path id="C1_0_8e3f621b7a" d="M 0 2.236068 
C 0.593012 2.236068 1.161816 2.000462 1.581139 1.581139 
C 2.000462 1.161816 2.236068 0.593012 2.236068 -0 
C 2.236068 -0.593012 2.000462 -1.161816 1.581139 -1.581139 
C 1.161816 -2.000462 0.593012 -2.236068 0 -2.236068 
C -0.593012 -2.236068 -1.161816 -2.000462 -1.581139 -1.581139 
C -2.000462 -1.161816 -2.236068 -0.593012 -2.236068 0 
C -2.236068 0.593012 -2.000462 1.161816 -1.581139 1.581139 
C -1.161816 2.000462 -0.593012 2.236068 0 2.236068 
z
"/>
    </defs>
    <g clip-path="url(#p50803c01da)">
     <use xlink:href="#C1_0_8e3f621b7a" x="230.881837" y="143.680987" style="fill: #6a0037; stroke: #6a0037"/>
    </g>
    <g clip-path="url(#p50803c01da)">
     <use xlink:href="#C1_0_8e3f621b7a" x="210.992514" y="146.320914" style="fill: #40001f; stroke: #40001f"/>
    </g>
    <g clip-path="url(#p50803c01da)">
     <use xlink:href="#C1_0_8e3f621b7a" x="268.797957" y="146.905433" style="fill: #c70074; stroke: #c70074"/>
    </g>
    <g clip-path="url(#p50803c01da)">
     <use xlink:href="#C1_0_8e3f621b7a" x="307.590985" y="149.705761" style="fill: #ff00b3; stroke: #ff00b3"/>
    </g>
    <g clip-path="url(#p50803c01da)">
     <use xlink:href="#C1_0_8e3f621b7a" x="308.242987" y="180.757252" style="fill: #ffd6ef; stroke: #ffd6ef"/>
    </g>
   </g>
   <g id="Path3DCollection_3">
    <defs>
     <path id="C2_0_8d318ee5b1" d="M 0 2.236068 
C 0.593012 2.236068 1.161816 2.000462 1.581139 1.581139 
C 2.000462 1.161816 2.236068 0.593012 2.236068 -0 
C 2.236068 -0.593012 2.000462 -1.161816 1.581139 -1.581139 
C 1.161816 -2.000462 0.593012 -2.236068 0 -2.236068 
C -0.593012 -2.236068 -1.161816 -2.000462 -1.581139 -1.581139 
C -2.000462 -1.161816 -2.236068 -0.593012 -2.236068 0 
C -2.236068 0.593012 -2.000462 1.161816 -1.581139 1.581139 
C -1.161816 2.000462 -0.593012 2.236068 0 2.236068 
z
"/>
    </defs>
    <g clip-path="url(#p50803c01da)">
     <use xlink:href="#C2_0_8d318ee5b1" x="195.988086" y="177.410458" style="fill: #181546; stroke: #181546"/>
    </g>
    <g clip-path="url(#p50803c01da)">
     <use xlink:href="#C2_0_8d318ee5b1" x="208.598281" y="190.315384" style="fill: #2c2475; stroke: #2c2475"/>
    </g>
    <g clip-path="url(#p50803c01da)">
     <use xlink:href="#C2_0_8d318ee5b1" x="240.201443" y="208.965704" style="fill: #6356db; stroke: #6356db"/>
    </g>
    <g clip-path="url(#p50803c01da)">
     <use xlink:href="#C2_0_8d318ee5b1" x="272.329372" y="227.90905" style="fill: #9d84ff; stroke: #9d84ff"/>
    </g>
    <g clip-path="url(#p50803c01da)">
     <use xlink:href="#C2_0_8d318ee5b1" x="299.368021" y="200.321638" style="fill: #e6ecff; stroke: #e6ecff"/>
    </g>
   </g>
   <g id="Path3DCollection_4">
    <defs>
     <path id="C3_0_93764afa31" d="M 0 2.236068 
C 0.593012 2.236068 1.161816 2.000462 1.581139 1.581139 
C 2.000462 1.161816 2.236068 0.593012 2.236068 -0 
C 2.236068 -0.593012 2.000462 -1.161816 1.581139 -1.581139 
C 1.161816 -2.000462 0.593012 -2.236068 0 -2.236068 
C -0.593012 -2.236068 -1.161816 -2.000462 -1.581139 -1.581139 
C -2.000462 -1.161816 -2.236068 -0.593012 -2.236068 0 
C -2.236068 0.593012 -2.000462 1.161816 -1.581139 1.581139 
C -1.161816 2.000462 -0.593012 2.236068 0 2.236068 
z
"/>
    </defs>
    <g clip-path="url(#p50803c01da)">
     <use xlink:href="#C3_0_93764afa31" x="206.37615" y="136.736392" style="fill: #3f0600; stroke: #3f0600"/>
    </g>
    <g clip-path="url(#p50803c01da)">
     <use xlink:href="#C3_0_93764afa31" x="224.238573" y="129.242814" style="fill: #670a00; stroke: #670a00"/>
    </g>
    <g clip-path="url(#p50803c01da)">
     <use xlink:href="#C3_0_93764afa31" x="261.340678" y="126.930945" style="fill: #c43921; stroke: #c43921"/>
    </g>
    <g clip-path="url(#p50803c01da)">
     <use xlink:href="#C3_0_93764afa31" x="302.77302" y="128.711557" style="fill: #ff6d4f; stroke: #ff6d4f"/>
    </g>
    <g clip-path="url(#p50803c01da)">
     <use xlink:href="#C3_0_93764afa31" x="305.958096" y="174.992564" style="fill: #ffe0d2; stroke: #ffe0d2"/>
    </g>
   </g>
   <g id="Path3DCollection_5">
    <defs>
     <path id="C4_0_cc0f0a3019" d="M 0 2.236068 
C 0.593012 2.236068 1.161816 2.000462 1.581139 1.581139 
C 2.000462 1.161816 2.236068 0.593012 2.236068 -0 
C 2.236068 -0.593012 2.000462 -1.161816 1.581139 -1.581139 
C 1.161816 -2.000462 0.593012 -2.236068 0 -2.236068 
C -0.593012 -2.236068 -1.161816 -2.000462 -1.581139 -1.581139 
C -2.000462 -1.161816 -2.236068 -0.593012 -2.236068 0 
C -2.236068 0.593012 -2.000462 1.161816 -1.581139 1.581139 
C -1.161816 2.000462 -0.593012 2.236068 0 2.236068 
z
"/>
    </defs>
    <g clip-path="url(#p50803c01da)">
     <use xlink:href="#C4_0_cc0f0a3019" x="176.988566" y="153.435519" style="stroke: #000000"/>
    </g>
    <g clip-path="url(#p50803c01da)">
     <use xlink:href="#C4_0_cc0f0a3019" x="208.257236" y="162.46893" style="fill: #3a3939; stroke: #3a3939"/>
    </g>
    <g clip-path="url(#p50803c01da)">
     <use xlink:href="#C4_0_cc0f0a3019" x="240.228589" y="171.705343" style="fill: #787878; stroke: #787878"/>
    </g>
    <g clip-path="url(#p50803c01da)">
     <use xlink:href="#C4_0_cc0f0a3019" x="272.92658" y="181.15168" style="fill: #bab9b9; stroke: #bab9b9"/>
    </g>
    <g clip-path="url(#p50803c01da)">
     <use xlink:href="#C4_0_cc0f0a3019" x="306.376266" y="190.815178" style="fill: #ffffff; stroke: #ffffff"/>
    </g>
   </g>
   <g id="Path3DCollection_6">
    <defs>
     <path id="C5_0_cac8e83fb6" d="M 0 2.236068 
C 0.593012 2.236068 1.161816 2.000462 1.581139 1.581139 
C 2.000462 1.161816 2.236068 0.593012 2.236068 -0 
C 2.236068 -0.593012 2.000462 -1.161816 1.581139 -1.581139 
C 1.161816 -2.000462 0.593012 -2.236068 0 -2.236068 
C -0.593012 -2.236068 -1.161816 -2.000462 -1.581139 -1.581139 
C -2.000462 -1.161816 -2.236068 -0.593012 -2.236068 0 
C -2.236068 0.593012 -2.000462 1.161816 -1.581139 1.581139 
C -1.161816 2.000462 -0.593012 2.236068 0 2.236068 
z
"/>
    </defs>
    <g clip-path="url(#p50803c01da)">
     <use xlink:href="#C5_0_cac8e83fb6" x="190.209103" y="172.025078" style="fill: #002633; stroke: #002633"/>
    </g>
    <g clip-path="url(#p50803c01da)">
     <use xlink:href="#C5_0_cac8e83fb6" x="196.489746" y="173.872345" style="fill: #0b3340; stroke: #0b3340"/>
    </g>
    <g clip-path="url(#p50803c01da)">
     <use xlink:href="#C5_0_cac8e83fb6" x="229.873624" y="179.399534" style="fill: #56707b; stroke: #56707b"/>
    </g>
    <g clip-path="url(#p50803c01da)">
     <use xlink:href="#C5_0_cac8e83fb6" x="236.324399" y="181.287184" style="fill: #627d89; stroke: #627d89"/>
    </g>
    <g clip-path="url(#p50803c01da)">
     <use xlink:href="#C5_0_cac8e83fb6" x="251.643543" y="179.302323" style="fill: #899499; stroke: #899499"/>
    </g>
    <g clip-path="url(#p50803c01da)">
     <use xlink:href="#C5_0_cac8e83fb6" x="258.181338" y="181.200799" style="fill: #96a1a6; stroke: #96a1a6"/>
    </g>
    <g clip-path="url(#p50803c01da)">
     <use xlink:href="#C5_0_cac8e83fb6" x="300.264431" y="183.641684" style="fill: #f9f1e0; stroke: #f9f1e0"/>
    </g>
    <g clip-path="url(#p50803c01da)">
     <use xlink:href="#C5_0_cac8e83fb6" x="304.297513" y="184.799403" style="fill: #fff9e8; stroke: #fff9e8"/>
    </g>
   </g>
   <g id="Path3DCollection_7">
    <defs>
     <path id="C6_0_2cee4a1f3c" d="M 0 2.236068 
C 0.593012 2.236068 1.161816 2.000462 1.581139 1.581139 
C 2.000462 1.161816 2.236068 0.593012 2.236068 -0 
C 2.236068 -0.593012 2.000462 -1.161816 1.581139 -1.581139 
C 1.161816 -2.000462 0.593012 -2.236068 0 -2.236068 
C -0.593012 -2.236068 -1.161816 -2.000462 -1.581139 -1.581139 
C -2.000462 -1.161816 -2.236068 -0.593012 -2.236068 0 
C -2.236068 0.593012 -2.000462 1.161816 -1.581139 1.581139 
C -1.161816 2.000462 -0.593012 2.236068 0 2.236068 
z
"/>
    </defs>
    <g clip-path="url(#p50803c01da)">
     <use xlink:href="#C6_0_2cee4a1f3c" x="184.822891" y="181.176154" style="fill: #002b3d; stroke: #002b3d"/>
    </g>
    <g clip-path="url(#p50803c01da)">
     <use xlink:href="#C6_0_2cee4a1f3c" x="191.979476" y="196.263723" style="fill: #004867; stroke: #004867"/>
    </g>
    <g clip-path="url(#p50803c01da)">
     <use xlink:href="#C6_0_2cee4a1f3c" x="218.581598" y="217.514782" style="fill: #008fc3; stroke: #008fc3"/>
    </g>
    <g clip-path="url(#p50803c01da)">
     <use xlink:href="#C6_0_2cee4a1f3c" x="293.287618" y="202.847236" style="fill: #c1feff; stroke: #c1feff"/>
    </g>
    <g clip-path="url(#p50803c01da)">
     <use xlink:href="#C6_0_2cee4a1f3c" x="246.014744" y="239.400533" style="fill: #00dcff; stroke: #00dcff"/>
    </g>
   </g>
   <g id="Path3DCollection_8">
    <defs>
     <path id="C7_0_dc9d34adcb" d="M 0 2.236068 
C 0.593012 2.236068 1.161816 2.000462 1.581139 1.581139 
C 2.000462 1.161816 2.236068 0.593012 2.236068 -0 
C 2.236068 -0.593012 2.000462 -1.161816 1.581139 -1.581139 
C 1.161816 -2.000462 0.593012 -2.236068 0 -2.236068 
C -0.593012 -2.236068 -1.161816 -2.000462 -1.581139 -1.581139 
C -2.000462 -1.161816 -2.236068 -0.593012 -2.236068 0 
C -2.236068 0.593012 -2.000462 1.161816 -1.581139 1.581139 
C -1.161816 2.000462 -0.593012 2.236068 0 2.236068 
z
"/>
    </defs>
    <g clip-path="url(#p50803c01da)">
     <use xlink:href="#C7_0_dc9d34adcb" x="195.328634" y="139.96933" style="fill: #2d2000; stroke: #2d2000"/>
    </g>
    <g clip-path="url(#p50803c01da)">
     <use xlink:href="#C7_0_dc9d34adcb" x="207.888261" y="133.982091" style="fill: #4d3700; stroke: #4d3700"/>
    </g>
    <g clip-path="url(#p50803c01da)">
     <use xlink:href="#C7_0_dc9d34adcb" x="240.215535" y="131.331712" style="fill: #997300; stroke: #997300"/>
    </g>
    <g clip-path="url(#p50803c01da)">
     <use xlink:href="#C7_0_dc9d34adcb" x="299.925119" y="177.312583" style="fill: #fef3c7; stroke: #fef3c7"/>
    </g>
    <g clip-path="url(#p50803c01da)">
     <use xlink:href="#C7_0_dc9d34adcb" x="283.803904" y="132.858957" style="fill: #ffc700; stroke: #ffc700"/>
    </g>
   </g>
   <g id="Path3DCollection_9">
    <defs>
     <path id="C8_0_da247d4b17" d="M 0 2.236068 
C 0.593012 2.236068 1.161816 2.000462 1.581139 1.581139 
C 2.000462 1.161816 2.236068 0.593012 2.236068 -0 
C 2.236068 -0.593012 2.000462 -1.161816 1.581139 -1.581139 
C 1.161816 -2.000462 0.593012 -2.236068 0 -2.236068 
C -0.593012 -2.236068 -1.161816 -2.000462 -1.581139 -1.581139 
C -2.000462 -1.161816 -2.236068 -0.593012 -2.236068 0 
C -2.236068 0.593012 -2.000462 1.161816 -1.581139 1.581139 
C -1.161816 2.000462 -0.593012 2.236068 0 2.236068 
z
"/>
    </defs>
    <g clip-path="url(#p50803c01da)">
     <use xlink:href="#C8_0_da247d4b17" x="179.845669" y="171.733283" style="fill: #003423; stroke: #003423"/>
    </g>
    <g clip-path="url(#p50803c01da)">
     <use xlink:href="#C8_0_da247d4b17" x="184.528653" y="182.150799" style="fill: #00573c; stroke: #00573c"/>
    </g>
    <g clip-path="url(#p50803c01da)">
     <use xlink:href="#C8_0_da247d4b17" x="290.879918" y="197.142184" style="fill: #b9fff2; stroke: #b9fff2"/>
    </g>
    <g clip-path="url(#p50803c01da)">
     <use xlink:href="#C8_0_da247d4b17" x="208.999794" y="198.764473" style="fill: #00a87c; stroke: #00a87c"/>
    </g>
    <g clip-path="url(#p50803c01da)">
     <use xlink:href="#C8_0_da247d4b17" x="234.517636" y="216.065865" style="fill: #00ffc0; stroke: #00ffc0"/>
    </g>
   </g>
   <g id="Path3DCollection_10">
    <defs>
     <path id="C9_0_1ce810dd32" d="M 0 2.236068 
C 0.593012 2.236068 1.161816 2.000462 1.581139 1.581139 
C 2.000462 1.161816 2.236068 0.593012 2.236068 -0 
C 2.236068 -0.593012 2.000462 -1.161816 1.581139 -1.581139 
C 1.161816 -2.000462 0.593012 -2.236068 0 -2.236068 
C -0.593012 -2.236068 -1.161816 -2.000462 -1.581139 -1.581139 
C -2.000462 -1.161816 -2.236068 -0.593012 -2.236068 0 
C -2.236068 0.593012 -2.000462 1.161816 -1.581139 1.581139 
C -1.161816 2.000462 -0.593012 2.236068 0 2.236068 
z
"/>
    </defs>
    <g clip-path="url(#p50803c01da)">
     <use xlink:href="#C9_0_1ce810dd32" x="184.232407" y="154.505307" style="fill: #002f00; stroke: #002f00"/>
    </g>
    <g clip-path="url(#p50803c01da)">
     <use xlink:href="#C9_0_1ce810dd32" x="191.199182" y="155.986682" style="fill: #005000; stroke: #005000"/>
    </g>
    <g clip-path="url(#p50803c01da)">
     <use xlink:href="#C9_0_1ce810dd32" x="293.643319" y="186.504336" style="fill: #d6ffd4; stroke: #d6ffd4"/>
    </g>
    <g clip-path="url(#p50803c01da)">
     <use xlink:href="#C9_0_1ce810dd32" x="218.111204" y="163.20162" style="fill: #009c16; stroke: #009c16"/>
    </g>
    <g clip-path="url(#p50803c01da)">
     <use xlink:href="#C9_0_1ce810dd32" x="246.192119" y="170.731154" style="fill: #00f02e; stroke: #00f02e"/>
    </g>
   </g>
  </g>
 </g>
 <defs>
  <clipPath id="p50803c01da">
   <rect x="103.104" y="41.472" width="266.112" height="266.112"/>
  </clipPath>
 </defs>
</svg>
