<?xml version="1.0" encoding="utf-8" standalone="no"?>
<!DOCTYPE svg PUBLIC "-//W3C//DTD SVG 1.1//EN"
  "http://www.w3.org/Graphics/SVG/1.1/DTD/svg11.dtd">
<svg xmlns:xlink="http://www.w3.org/1999/xlink" width="460.8pt" height="345.6pt" viewBox="0 0 460.8 345.6" xmlns="http://www.w3.org/2000/svg" version="1.1">
 <metadata>
  <rdf:RDF xmlns:dc="http://purl.org/dc/elements/1.1/" xmlns:cc="http://creativecommons.org/ns#" xmlns:rdf="http://www.w3.org/1999/02/22-rdf-syntax-ns#">
   <cc:Work>
    <dc:type rdf:resource="http://purl.org/dc/dcmitype/StillImage"/>
    <dc:date>2024-06-03T01:03:22.428044</dc:date>
    <dc:format>image/svg+xml</dc:format>
    <dc:creator>
     <cc:Agent>
      <dc:title>Matplotlib v3.9.0, https://matplotlib.org/</dc:title>
     </cc:Agent>
    </dc:creator>
   </cc:Work>
  </rdf:RDF>
 </metadata>
 <defs>
  <style type="text/css">*{stroke-linejoin: round; stroke-linecap: butt}</style>
 </defs>
 <g id="figure_1">
  <g id="patch_1">
   <path d="M 0 345.6 
L 460.8 345.6 
L 460.8 0 
L 0 0 
z
" style="fill: #ffffff"/>
  </g>
  <g id="patch_2">
   <path d="M 103.104 307.584 
L 369.216 307.584 
L 369.216 41.472 
L 103.104 41.472 
z
" style="fill: #ffffff"/>
  </g>
  <g id="pane3d_1">
   <g id="patch_3">
    <path d="M 123.197291 241.969309 
L 211.076164 168.307495 
L 209.854564 62.073991 
L 117.770234 129.272941 
" style="fill: #f2f2f2; opacity: 0.5; stroke: #f2f2f2; stroke-linejoin: miter"/>
   </g>
  </g>
  <g id="pane3d_2">
   <g id="patch_4">
    <path d="M 211.076164 168.307495 
L 352.090401 209.294766 
L 357.122702 99.402171 
L 209.854564 62.073991 
" style="fill: #e6e6e6; opacity: 0.5; stroke: #e6e6e6; stroke-linejoin: miter"/>
   </g>
  </g>
  <g id="pane3d_3">
   <g id="patch_5">
    <path d="M 123.197291 241.969309 
L 272.679269 290.790123 
L 352.090401 209.294766 
L 211.076164 168.307495 
" style="fill: #ececec; opacity: 0.5; stroke: #ececec; stroke-linejoin: miter"/>
   </g>
  </g>
  <g id="grid3d_1">
   <g id="Line3DCollection_1">
    <path d="M 132.250704 244.926154 
L 219.652219 170.800215 
L 218.79322 64.33968 
" style="fill: none; stroke: #b0b0b0; stroke-width: 0.8"/>
    <path d="M 160.585577 254.180323 
L 246.463407 178.593169 
L 246.752802 71.426619 
" style="fill: none; stroke: #b0b0b0; stroke-width: 0.8"/>
    <path d="M 189.506258 263.625817 
L 273.782614 186.533784 
L 275.265247 78.653692 
" style="fill: none; stroke: #b0b0b0; stroke-width: 0.8"/>
    <path d="M 219.031106 273.268633 
L 301.624418 194.626297 
L 304.347116 86.025098 
" style="fill: none; stroke: #b0b0b0; stroke-width: 0.8"/>
    <path d="M 249.179251 283.115017 
L 330.003958 202.875109 
L 334.015641 93.545205 
" style="fill: none; stroke: #b0b0b0; stroke-width: 0.8"/>
   </g>
  </g>
  <g id="grid3d_2">
   <g id="Line3DCollection_2">
    <path d="M 125.847173 123.378759 
L 130.8787 235.5306 
L 279.648538 283.637938 
" style="fill: none; stroke: #b0b0b0; stroke-width: 0.8"/>
    <path d="M 139.88085 113.137621 
L 144.237299 224.333157 
L 291.755843 271.212865 
" style="fill: none; stroke: #b0b0b0; stroke-width: 0.8"/>
    <path d="M 153.552132 103.160941 
L 157.265797 213.412412 
L 303.548306 259.110897 
" style="fill: none; stroke: #b0b0b0; stroke-width: 0.8"/>
    <path d="M 166.874879 93.438608 
L 169.976281 202.758232 
L 315.03805 247.319593 
" style="fill: none; stroke: #b0b0b0; stroke-width: 0.8"/>
    <path d="M 179.86225 83.961016 
L 182.380254 192.360976 
L 326.236584 235.827143 
" style="fill: none; stroke: #b0b0b0; stroke-width: 0.8"/>
    <path d="M 192.526752 74.719039 
L 194.488671 182.211461 
L 337.15484 224.622325 
" style="fill: none; stroke: #b0b0b0; stroke-width: 0.8"/>
    <path d="M 204.880277 65.703999 
L 206.31197 172.300937 
L 347.803211 213.694477 
" style="fill: none; stroke: #b0b0b0; stroke-width: 0.8"/>
   </g>
  </g>
  <g id="grid3d_3">
   <g id="Line3DCollection_3">
    <path d="M 352.475116 200.89356 
L 210.982592 160.170175 
L 122.783042 233.367163 
" style="fill: none; stroke: #b0b0b0; stroke-width: 0.8"/>
    <path d="M 353.124027 186.723005 
L 210.824829 146.45068 
L 122.084075 218.852655 
" style="fill: none; stroke: #b0b0b0; stroke-width: 0.8"/>
    <path d="M 353.780453 172.388349 
L 210.665326 132.579909 
L 121.376704 204.163642 
" style="fill: none; stroke: #b0b0b0; stroke-width: 0.8"/>
    <path d="M 354.444524 157.886724 
L 210.504054 118.555347 
L 120.660778 189.296959 
" style="fill: none; stroke: #b0b0b0; stroke-width: 0.8"/>
    <path d="M 355.116376 143.215196 
L 210.340985 104.374422 
L 119.936139 174.249363 
" style="fill: none; stroke: #b0b0b0; stroke-width: 0.8"/>
    <path d="M 355.796146 128.370762 
L 210.176087 90.034503 
L 119.202628 159.017531 
" style="fill: none; stroke: #b0b0b0; stroke-width: 0.8"/>
    <path d="M 356.483974 113.350347 
L 210.009331 75.532903 
L 118.46008 143.598058 
" style="fill: none; stroke: #b0b0b0; stroke-width: 0.8"/>
   </g>
  </g>
  <g id="axis3d_1">
   <g id="line2d_1">
    <path d="M 123.197291 241.969309 
L 272.679269 290.790123 
" style="fill: none; stroke: #000000; stroke-width: 0.8; stroke-linecap: square"/>
   </g>
   <g id="xtick_1">
    <g id="line2d_2">
     <path d="M 133.011792 244.280669 
L 130.725263 246.219892 
" style="fill: none; stroke: #000000; stroke-width: 0.8; stroke-linecap: square"/>
    </g>
    <g id="text_1">
     <!-- 0.00 -->
     <g transform="translate(113.588842 268.235303) scale(0.1 -0.1)">
      <defs>
       <path id="DejaVuSans-30" d="M 2034 4250 
Q 1547 4250 1301 3770 
Q 1056 3291 1056 2328 
Q 1056 1369 1301 889 
Q 1547 409 2034 409 
Q 2525 409 2770 889 
Q 3016 1369 3016 2328 
Q 3016 3291 2770 3770 
Q 2525 4250 2034 4250 
z
M 2034 4750 
Q 2819 4750 3233 4129 
Q 3647 3509 3647 2328 
Q 3647 1150 3233 529 
Q 2819 -91 2034 -91 
Q 1250 -91 836 529 
Q 422 1150 422 2328 
Q 422 3509 836 4129 
Q 1250 4750 2034 4750 
z
" transform="scale(0.015625)"/>
       <path id="DejaVuSans-2e" d="M 684 794 
L 1344 794 
L 1344 0 
L 684 0 
L 684 794 
z
" transform="scale(0.015625)"/>
      </defs>
      <use xlink:href="#DejaVuSans-30"/>
      <use xlink:href="#DejaVuSans-2e" x="63.623047"/>
      <use xlink:href="#DejaVuSans-30" x="95.410156"/>
      <use xlink:href="#DejaVuSans-30" x="159.033203"/>
     </g>
    </g>
   </g>
   <g id="xtick_2">
    <g id="line2d_3">
     <path d="M 161.334017 253.521567 
L 159.08545 255.50069 
" style="fill: none; stroke: #000000; stroke-width: 0.8; stroke-linecap: square"/>
    </g>
    <g id="text_2">
     <!-- 0.05 -->
     <g transform="translate(141.952802 277.685573) scale(0.1 -0.1)">
      <defs>
       <path id="DejaVuSans-35" d="M 691 4666 
L 3169 4666 
L 3169 4134 
L 1269 4134 
L 1269 2991 
Q 1406 3038 1543 3061 
Q 1681 3084 1819 3084 
Q 2600 3084 3056 2656 
Q 3513 2228 3513 1497 
Q 3513 744 3044 326 
Q 2575 -91 1722 -91 
Q 1428 -91 1123 -41 
Q 819 9 494 109 
L 494 744 
Q 775 591 1075 516 
Q 1375 441 1709 441 
Q 2250 441 2565 725 
Q 2881 1009 2881 1497 
Q 2881 1984 2565 2268 
Q 2250 2553 1709 2553 
Q 1456 2553 1204 2497 
Q 953 2441 691 2322 
L 691 4666 
z
" transform="scale(0.015625)"/>
      </defs>
      <use xlink:href="#DejaVuSans-30"/>
      <use xlink:href="#DejaVuSans-2e" x="63.623047"/>
      <use xlink:href="#DejaVuSans-30" x="95.410156"/>
      <use xlink:href="#DejaVuSans-35" x="159.033203"/>
     </g>
    </g>
   </g>
   <g id="xtick_3">
    <g id="line2d_4">
     <path d="M 190.241364 262.953377 
L 188.032826 264.973644 
" style="fill: none; stroke: #000000; stroke-width: 0.8; stroke-linecap: square"/>
    </g>
    <g id="text_3">
     <!-- 0.10 -->
     <g transform="translate(170.905397 287.331964) scale(0.1 -0.1)">
      <defs>
       <path id="DejaVuSans-31" d="M 794 531 
L 1825 531 
L 1825 4091 
L 703 3866 
L 703 4441 
L 1819 4666 
L 2450 4666 
L 2450 531 
L 3481 531 
L 3481 0 
L 794 0 
L 794 531 
z
" transform="scale(0.015625)"/>
      </defs>
      <use xlink:href="#DejaVuSans-30"/>
      <use xlink:href="#DejaVuSans-2e" x="63.623047"/>
      <use xlink:href="#DejaVuSans-31" x="95.410156"/>
      <use xlink:href="#DejaVuSans-30" x="159.033203"/>
     </g>
    </g>
   </g>
   <g id="xtick_4">
    <g id="line2d_5">
     <path d="M 219.752154 272.582076 
L 217.585817 274.644784 
" style="fill: none; stroke: #000000; stroke-width: 0.8; stroke-linecap: square"/>
    </g>
    <g id="text_4">
     <!-- 0.15 -->
     <g transform="translate(200.465144 297.180645) scale(0.1 -0.1)">
      <use xlink:href="#DejaVuSans-30"/>
      <use xlink:href="#DejaVuSans-2e" x="63.623047"/>
      <use xlink:href="#DejaVuSans-31" x="95.410156"/>
      <use xlink:href="#DejaVuSans-35" x="159.033203"/>
     </g>
    </g>
   </g>
   <g id="xtick_5">
    <g id="line2d_6">
     <path d="M 249.885482 282.413896 
L 247.76363 284.520395 
" style="fill: none; stroke: #000000; stroke-width: 0.8; stroke-linecap: square"/>
    </g>
    <g id="text_5">
     <!-- 0.20 -->
     <g transform="translate(230.651343 307.238047) scale(0.1 -0.1)">
      <defs>
       <path id="DejaVuSans-32" d="M 1228 531 
L 3431 531 
L 3431 0 
L 469 0 
L 469 531 
Q 828 903 1448 1529 
Q 2069 2156 2228 2338 
Q 2531 2678 2651 2914 
Q 2772 3150 2772 3378 
Q 2772 3750 2511 3984 
Q 2250 4219 1831 4219 
Q 1534 4219 1204 4116 
Q 875 4013 500 3803 
L 500 4441 
Q 881 4594 1212 4672 
Q 1544 4750 1819 4750 
Q 2544 4750 2975 4387 
Q 3406 4025 3406 3419 
Q 3406 3131 3298 2873 
Q 3191 2616 2906 2266 
Q 2828 2175 2409 1742 
Q 1991 1309 1228 531 
z
" transform="scale(0.015625)"/>
      </defs>
      <use xlink:href="#DejaVuSans-30"/>
      <use xlink:href="#DejaVuSans-2e" x="63.623047"/>
      <use xlink:href="#DejaVuSans-32" x="95.410156"/>
      <use xlink:href="#DejaVuSans-30" x="159.033203"/>
     </g>
    </g>
   </g>
  </g>
  <g id="axis3d_2">
   <g id="line2d_7">
    <path d="M 352.090401 209.294766 
L 272.679269 290.790123 
" style="fill: none; stroke: #000000; stroke-width: 0.8; stroke-linecap: square"/>
   </g>
   <g id="xtick_6">
    <g id="line2d_8">
     <path d="M 278.394952 283.232569 
L 282.158947 284.449723 
" style="fill: none; stroke: #000000; stroke-width: 0.8; stroke-linecap: square"/>
    </g>
    <g id="text_6">
     <!-- −0.15 -->
     <g transform="translate(277.186752 304.637247) scale(0.1 -0.1)">
      <defs>
       <path id="DejaVuSans-2212" d="M 678 2272 
L 4684 2272 
L 4684 1741 
L 678 1741 
L 678 2272 
z
" transform="scale(0.015625)"/>
      </defs>
      <use xlink:href="#DejaVuSans-2212"/>
      <use xlink:href="#DejaVuSans-30" x="83.789062"/>
      <use xlink:href="#DejaVuSans-2e" x="147.412109"/>
      <use xlink:href="#DejaVuSans-31" x="179.199219"/>
      <use xlink:href="#DejaVuSans-35" x="242.822266"/>
     </g>
    </g>
   </g>
   <g id="xtick_7">
    <g id="line2d_9">
     <path d="M 290.513629 270.818103 
L 294.243436 272.003393 
" style="fill: none; stroke: #000000; stroke-width: 0.8; stroke-linecap: square"/>
    </g>
    <g id="text_7">
     <!-- −0.10 -->
     <g transform="translate(289.131677 292.028205) scale(0.1 -0.1)">
      <use xlink:href="#DejaVuSans-2212"/>
      <use xlink:href="#DejaVuSans-30" x="83.789062"/>
      <use xlink:href="#DejaVuSans-2e" x="147.412109"/>
      <use xlink:href="#DejaVuSans-31" x="179.199219"/>
      <use xlink:href="#DejaVuSans-30" x="242.822266"/>
     </g>
    </g>
   </g>
   <g id="xtick_8">
    <g id="line2d_10">
     <path d="M 302.3173 258.726332 
L 306.013413 259.880994 
" style="fill: none; stroke: #000000; stroke-width: 0.8; stroke-linecap: square"/>
    </g>
    <g id="text_8">
     <!-- −0.05 -->
     <g transform="translate(300.765802 279.747242) scale(0.1 -0.1)">
      <use xlink:href="#DejaVuSans-2212"/>
      <use xlink:href="#DejaVuSans-30" x="83.789062"/>
      <use xlink:href="#DejaVuSans-2e" x="147.412109"/>
      <use xlink:href="#DejaVuSans-30" x="179.199219"/>
      <use xlink:href="#DejaVuSans-35" x="242.822266"/>
     </g>
    </g>
   </g>
   <g id="xtick_9">
    <g id="line2d_11">
     <path d="M 313.81809 246.944835 
L 317.480999 248.07004 
" style="fill: none; stroke: #000000; stroke-width: 0.8; stroke-linecap: square"/>
    </g>
    <g id="text_9">
     <!-- 0.00 -->
     <g transform="translate(316.290945 267.78172) scale(0.1 -0.1)">
      <use xlink:href="#DejaVuSans-30"/>
      <use xlink:href="#DejaVuSans-2e" x="63.623047"/>
      <use xlink:href="#DejaVuSans-30" x="95.410156"/>
      <use xlink:href="#DejaVuSans-30" x="159.033203"/>
     </g>
    </g>
   </g>
   <g id="xtick_10">
    <g id="line2d_12">
     <path d="M 325.027508 235.461821 
L 328.657698 236.558682 
" style="fill: none; stroke: #000000; stroke-width: 0.8; stroke-linecap: square"/>
    </g>
    <g id="text_10">
     <!-- 0.05 -->
     <g transform="translate(327.338786 256.119638) scale(0.1 -0.1)">
      <use xlink:href="#DejaVuSans-30"/>
      <use xlink:href="#DejaVuSans-2e" x="63.623047"/>
      <use xlink:href="#DejaVuSans-30" x="95.410156"/>
      <use xlink:href="#DejaVuSans-35" x="159.033203"/>
     </g>
    </g>
   </g>
   <g id="xtick_11">
    <g id="line2d_13">
     <path d="M 335.95649 224.266088 
L 339.554441 225.335663 
" style="fill: none; stroke: #000000; stroke-width: 0.8; stroke-linecap: square"/>
    </g>
    <g id="text_11">
     <!-- 0.10 -->
     <g transform="translate(338.109966 244.749599) scale(0.1 -0.1)">
      <use xlink:href="#DejaVuSans-30"/>
      <use xlink:href="#DejaVuSans-2e" x="63.623047"/>
      <use xlink:href="#DejaVuSans-31" x="95.410156"/>
      <use xlink:href="#DejaVuSans-30" x="159.033203"/>
     </g>
    </g>
   </g>
   <g id="xtick_12">
    <g id="line2d_14">
     <path d="M 346.615429 213.346989 
L 350.181616 214.390284 
" style="fill: none; stroke: #000000; stroke-width: 0.8; stroke-linecap: square"/>
    </g>
    <g id="text_12">
     <!-- 0.15 -->
     <g transform="translate(348.614748 233.660769) scale(0.1 -0.1)">
      <use xlink:href="#DejaVuSans-30"/>
      <use xlink:href="#DejaVuSans-2e" x="63.623047"/>
      <use xlink:href="#DejaVuSans-31" x="95.410156"/>
      <use xlink:href="#DejaVuSans-35" x="159.033203"/>
     </g>
    </g>
   </g>
  </g>
  <g id="axis3d_3">
   <g id="line2d_15">
    <path d="M 352.090401 209.294766 
L 357.122702 99.402171 
" style="fill: none; stroke: #000000; stroke-width: 0.8; stroke-linecap: square"/>
   </g>
   <g id="xtick_13">
    <g id="line2d_16">
     <path d="M 351.287414 200.551724 
L 354.853355 201.578048 
" style="fill: none; stroke: #000000; stroke-width: 0.8; stroke-linecap: square"/>
    </g>
    <g id="text_13">
     <!-- −0.15 -->
     <g transform="translate(355.462251 205.90338) scale(0.1 -0.1)">
      <use xlink:href="#DejaVuSans-2212"/>
      <use xlink:href="#DejaVuSans-30" x="83.789062"/>
      <use xlink:href="#DejaVuSans-2e" x="147.412109"/>
      <use xlink:href="#DejaVuSans-31" x="179.199219"/>
      <use xlink:href="#DejaVuSans-35" x="242.822266"/>
     </g>
    </g>
   </g>
   <g id="xtick_14">
    <g id="line2d_17">
     <path d="M 351.929231 186.384864 
L 355.516487 187.400099 
" style="fill: none; stroke: #000000; stroke-width: 0.8; stroke-linecap: square"/>
    </g>
    <g id="text_14">
     <!-- −0.10 -->
     <g transform="translate(356.214287 191.760844) scale(0.1 -0.1)">
      <use xlink:href="#DejaVuSans-2212"/>
      <use xlink:href="#DejaVuSans-30" x="83.789062"/>
      <use xlink:href="#DejaVuSans-2e" x="147.412109"/>
      <use xlink:href="#DejaVuSans-31" x="179.199219"/>
      <use xlink:href="#DejaVuSans-30" x="242.822266"/>
     </g>
    </g>
   </g>
   <g id="xtick_15">
    <g id="line2d_18">
     <path d="M 352.578477 172.054011 
L 356.187305 173.057831 
" style="fill: none; stroke: #000000; stroke-width: 0.8; stroke-linecap: square"/>
    </g>
    <g id="text_15">
     <!-- −0.05 -->
     <g transform="translate(356.975005 177.455029) scale(0.1 -0.1)">
      <use xlink:href="#DejaVuSans-2212"/>
      <use xlink:href="#DejaVuSans-30" x="83.789062"/>
      <use xlink:href="#DejaVuSans-2e" x="147.412109"/>
      <use xlink:href="#DejaVuSans-30" x="179.199219"/>
      <use xlink:href="#DejaVuSans-35" x="242.822266"/>
     </g>
    </g>
   </g>
   <g id="xtick_16">
    <g id="line2d_19">
     <path d="M 353.235283 157.556302 
L 356.865943 158.548371 
" style="fill: none; stroke: #000000; stroke-width: 0.8; stroke-linecap: square"/>
    </g>
    <g id="text_16">
     <!-- 0.00 -->
     <g transform="translate(361.934401 162.983092) scale(0.1 -0.1)">
      <use xlink:href="#DejaVuSans-30"/>
      <use xlink:href="#DejaVuSans-2e" x="63.623047"/>
      <use xlink:href="#DejaVuSans-30" x="95.410156"/>
      <use xlink:href="#DejaVuSans-30" x="159.033203"/>
     </g>
    </g>
   </g>
   <g id="xtick_17">
    <g id="line2d_20">
     <path d="M 353.899781 142.888804 
L 357.552538 143.868777 
" style="fill: none; stroke: #000000; stroke-width: 0.8; stroke-linecap: square"/>
    </g>
    <g id="text_17">
     <!-- 0.05 -->
     <g transform="translate(362.712941 148.342122) scale(0.1 -0.1)">
      <use xlink:href="#DejaVuSans-30"/>
      <use xlink:href="#DejaVuSans-2e" x="63.623047"/>
      <use xlink:href="#DejaVuSans-30" x="95.410156"/>
      <use xlink:href="#DejaVuSans-35" x="159.033203"/>
     </g>
    </g>
   </g>
   <g id="xtick_18">
    <g id="line2d_21">
     <path d="M 354.572106 128.048519 
L 358.247232 129.016041 
" style="fill: none; stroke: #000000; stroke-width: 0.8; stroke-linecap: square"/>
    </g>
    <g id="text_18">
     <!-- 0.10 -->
     <g transform="translate(363.500628 133.52914) scale(0.1 -0.1)">
      <use xlink:href="#DejaVuSans-30"/>
      <use xlink:href="#DejaVuSans-2e" x="63.623047"/>
      <use xlink:href="#DejaVuSans-31" x="95.410156"/>
      <use xlink:href="#DejaVuSans-30" x="159.033203"/>
     </g>
    </g>
   </g>
   <g id="xtick_19">
    <g id="line2d_22">
     <path d="M 355.252399 113.032374 
L 358.950168 113.987079 
" style="fill: none; stroke: #000000; stroke-width: 0.8; stroke-linecap: square"/>
    </g>
    <g id="text_19">
     <!-- 0.15 -->
     <g transform="translate(364.297624 118.541097) scale(0.1 -0.1)">
      <use xlink:href="#DejaVuSans-30"/>
      <use xlink:href="#DejaVuSans-2e" x="63.623047"/>
      <use xlink:href="#DejaVuSans-31" x="95.410156"/>
      <use xlink:href="#DejaVuSans-35" x="159.033203"/>
     </g>
    </g>
   </g>
  </g>
  <g id="axes_1">
   <g id="line2d_23">
    <path d="M 204.738692 138.061324 
L 224.267356 124.518891 
" clip-path="url(#p81e4c2dbe3)" style="fill: none; stroke: #670000; stroke-opacity: 0.25; stroke-width: 1.5; stroke-linecap: square"/>
   </g>
   <g id="line2d_24">
    <path d="M 224.267356 124.518891 
L 254.869786 128.142223 
" clip-path="url(#p81e4c2dbe3)" style="fill: none; stroke: #b42a13; stroke-opacity: 0.25; stroke-width: 1.5; stroke-linecap: square"/>
   </g>
   <g id="line2d_25">
    <path d="M 254.869786 128.142223 
L 293.149651 127.299052 
" clip-path="url(#p81e4c2dbe3)" style="fill: none; stroke: #ff5236; stroke-opacity: 0.25; stroke-width: 1.5; stroke-linecap: square"/>
   </g>
   <g id="line2d_26">
    <path d="M 293.149651 127.299052 
L 299.559775 174.546139 
" clip-path="url(#p81e4c2dbe3)" style="fill: none; stroke: #ffd3c5; stroke-opacity: 0.25; stroke-width: 1.5; stroke-linecap: square"/>
   </g>
   <g id="line2d_27">
    <path d="M 299.559775 174.546139 
L 204.738692 138.061324 
" clip-path="url(#p81e4c2dbe3)" style="fill: none; stroke: #ffd3c5; stroke-opacity: 0.25; stroke-width: 1.5; stroke-linecap: square"/>
   </g>
   <g id="line2d_28">
    <path d="M 193.971332 140.53079 
L 205.159119 128.684382 
" clip-path="url(#p81e4c2dbe3)" style="fill: none; stroke: #4c2d00; stroke-opacity: 0.25; stroke-width: 1.5; stroke-linecap: square"/>
   </g>
   <g id="line2d_29">
    <path d="M 205.159119 128.684382 
L 234.212285 132.922435 
" clip-path="url(#p81e4c2dbe3)" style="fill: none; stroke: #8b6600; stroke-opacity: 0.25; stroke-width: 1.5; stroke-linecap: square"/>
   </g>
   <g id="line2d_30">
    <path d="M 234.212285 132.922435 
L 273.138771 129.43704 
" clip-path="url(#p81e4c2dbe3)" style="fill: none; stroke: #eeae00; stroke-opacity: 0.25; stroke-width: 1.5; stroke-linecap: square"/>
   </g>
   <g id="line2d_31">
    <path d="M 273.138771 129.43704 
L 293.664969 176.37284 
" clip-path="url(#p81e4c2dbe3)" style="fill: none; stroke: #f0e5b8; stroke-opacity: 0.25; stroke-width: 1.5; stroke-linecap: square"/>
   </g>
   <g id="line2d_32">
    <path d="M 293.664969 176.37284 
L 193.971332 140.53079 
" clip-path="url(#p81e4c2dbe3)" style="fill: none; stroke: #f0e5b8; stroke-opacity: 0.25; stroke-width: 1.5; stroke-linecap: square"/>
   </g>
   <g id="line2d_33">
    <path d="M 183.193824 155.349919 
L 185.601482 155.63062 
" clip-path="url(#p81e4c2dbe3)" style="fill: none; stroke: #004c00; stroke-opacity: 0.25; stroke-width: 1.5; stroke-linecap: square"/>
   </g>
   <g id="line2d_34">
    <path d="M 185.601482 155.63062 
L 212.687292 163.345944 
" clip-path="url(#p81e4c2dbe3)" style="fill: none; stroke: #008e00; stroke-opacity: 0.25; stroke-width: 1.5; stroke-linecap: square"/>
   </g>
   <g id="line2d_35">
    <path d="M 212.687292 163.345944 
L 236.155775 169.794063 
" clip-path="url(#p81e4c2dbe3)" style="fill: none; stroke: #00da00; stroke-opacity: 0.25; stroke-width: 1.5; stroke-linecap: square"/>
   </g>
   <g id="line2d_36">
    <path d="M 236.155775 169.794063 
L 287.529036 185.706394 
" clip-path="url(#p81e4c2dbe3)" style="fill: none; stroke: #c9f5c7; stroke-opacity: 0.25; stroke-width: 1.5; stroke-linecap: square"/>
   </g>
   <g id="line2d_37">
    <path d="M 287.529036 185.706394 
L 183.193824 155.349919 
" clip-path="url(#p81e4c2dbe3)" style="fill: none; stroke: #c9f5c7; stroke-opacity: 0.25; stroke-width: 1.5; stroke-linecap: square"/>
   </g>
   <g id="line2d_38">
    <path d="M 178.92168 171.603273 
L 177.781873 185.370994 
" clip-path="url(#p81e4c2dbe3)" style="fill: none; stroke: #005536; stroke-opacity: 0.25; stroke-width: 1.5; stroke-linecap: square"/>
   </g>
   <g id="line2d_39">
    <path d="M 177.781873 185.370994 
L 203.85097 196.830426 
" clip-path="url(#p81e4c2dbe3)" style="fill: none; stroke: #00996f; stroke-opacity: 0.25; stroke-width: 1.5; stroke-linecap: square"/>
   </g>
   <g id="line2d_40">
    <path d="M 203.85097 196.830426 
L 224.401096 214.197156 
" clip-path="url(#p81e4c2dbe3)" style="fill: none; stroke: #00ecac; stroke-opacity: 0.25; stroke-width: 1.5; stroke-linecap: square"/>
   </g>
   <g id="line2d_41">
    <path d="M 224.401096 214.197156 
L 284.856681 195.73142 
" clip-path="url(#p81e4c2dbe3)" style="fill: none; stroke: #adf9e5; stroke-opacity: 0.25; stroke-width: 1.5; stroke-linecap: square"/>
   </g>
   <g id="line2d_42">
    <path d="M 284.856681 195.73142 
L 178.92168 171.603273 
" clip-path="url(#p81e4c2dbe3)" style="fill: none; stroke: #adf9e5; stroke-opacity: 0.25; stroke-width: 1.5; stroke-linecap: square"/>
   </g>
   <g id="line2d_43">
    <path d="M 183.756886 180.306797 
L 186.580273 200.937779 
" clip-path="url(#p81e4c2dbe3)" style="fill: none; stroke: #004269; stroke-opacity: 0.25; stroke-width: 1.5; stroke-linecap: square"/>
   </g>
   <g id="line2d_44">
    <path d="M 186.580273 200.937779 
L 213.23708 214.103391 
" clip-path="url(#p81e4c2dbe3)" style="fill: none; stroke: #0081b3; stroke-opacity: 0.25; stroke-width: 1.5; stroke-linecap: square"/>
   </g>
   <g id="line2d_45">
    <path d="M 213.23708 214.103391 
L 236.252162 236.524495 
" clip-path="url(#p81e4c2dbe3)" style="fill: none; stroke: #00c6ff; stroke-opacity: 0.25; stroke-width: 1.5; stroke-linecap: square"/>
   </g>
   <g id="line2d_46">
    <path d="M 236.252162 236.524495 
L 287.234351 200.983705 
" clip-path="url(#p81e4c2dbe3)" style="fill: none; stroke: #b5f0ff; stroke-opacity: 0.25; stroke-width: 1.5; stroke-linecap: square"/>
   </g>
   <g id="line2d_47">
    <path d="M 287.234351 200.983705 
L 183.756886 180.306797 
" clip-path="url(#p81e4c2dbe3)" style="fill: none; stroke: #b5f0ff; stroke-opacity: 0.25; stroke-width: 1.5; stroke-linecap: square"/>
   </g>
   <g id="line2d_48">
    <path d="M 194.623665 176.461736 
L 206.04497 193.559517 
" clip-path="url(#p81e4c2dbe3)" style="fill: none; stroke: #27097a; stroke-opacity: 0.25; stroke-width: 1.5; stroke-linecap: square"/>
   </g>
   <g id="line2d_49">
    <path d="M 206.04497 193.559517 
L 234.371353 205.500391 
" clip-path="url(#p81e4c2dbe3)" style="fill: none; stroke: #5849cb; stroke-opacity: 0.25; stroke-width: 1.5; stroke-linecap: square"/>
   </g>
   <g id="line2d_50">
    <path d="M 234.371353 205.500391 
L 263.120137 224.5303 
" clip-path="url(#p81e4c2dbe3)" style="fill: none; stroke: #8b69ff; stroke-opacity: 0.25; stroke-width: 1.5; stroke-linecap: square"/>
   </g>
   <g id="line2d_51">
    <path d="M 263.120137 224.5303 
L 293.186728 198.427005 
" clip-path="url(#p81e4c2dbe3)" style="fill: none; stroke: #d8deff; stroke-opacity: 0.25; stroke-width: 1.5; stroke-linecap: square"/>
   </g>
   <g id="line2d_52">
    <path d="M 293.186728 198.427005 
L 194.623665 176.461736 
" clip-path="url(#p81e4c2dbe3)" style="fill: none; stroke: #d8deff; stroke-opacity: 0.25; stroke-width: 1.5; stroke-linecap: square"/>
   </g>
   <g id="line2d_53">
    <path d="M 204.814692 162.573748 
L 224.076512 168.514068 
" clip-path="url(#p81e4c2dbe3)" style="fill: none; stroke: #560060; stroke-opacity: 0.25; stroke-width: 1.5; stroke-linecap: square"/>
   </g>
   <g id="line2d_54">
    <path d="M 224.076512 168.514068 
L 254.083862 177.28987 
" clip-path="url(#p81e4c2dbe3)" style="fill: none; stroke: #9b00a8; stroke-opacity: 0.25; stroke-width: 1.5; stroke-linecap: square"/>
   </g>
   <g id="line2d_55">
    <path d="M 254.083862 177.28987 
L 288.161351 187.426534 
" clip-path="url(#p81e4c2dbe3)" style="fill: none; stroke: #ef00ff; stroke-opacity: 0.25; stroke-width: 1.5; stroke-linecap: square"/>
   </g>
   <g id="line2d_56">
    <path d="M 288.161351 187.426534 
L 299.052653 189.642044 
" clip-path="url(#p81e4c2dbe3)" style="fill: none; stroke: #facefd; stroke-opacity: 0.25; stroke-width: 1.5; stroke-linecap: square"/>
   </g>
   <g id="line2d_57">
    <path d="M 299.052653 189.642044 
L 204.814692 162.573748 
" clip-path="url(#p81e4c2dbe3)" style="fill: none; stroke: #facefd; stroke-opacity: 0.25; stroke-width: 1.5; stroke-linecap: square"/>
   </g>
   <g id="line2d_58">
    <path d="M 208.868723 147.195765 
L 231.335696 141.049969 
" clip-path="url(#p81e4c2dbe3)" style="fill: none; stroke: #680030; stroke-opacity: 0.25; stroke-width: 1.5; stroke-linecap: square"/>
   </g>
   <g id="line2d_59">
    <path d="M 231.335696 141.049969 
L 262.235793 146.572632 
" clip-path="url(#p81e4c2dbe3)" style="fill: none; stroke: #b60067; stroke-opacity: 0.25; stroke-width: 1.5; stroke-linecap: square"/>
   </g>
   <g id="line2d_60">
    <path d="M 262.235793 146.572632 
L 297.966634 148.224848 
" clip-path="url(#p81e4c2dbe3)" style="fill: none; stroke: #ff00a0; stroke-opacity: 0.25; stroke-width: 1.5; stroke-linecap: square"/>
   </g>
   <g id="line2d_61">
    <path d="M 297.966634 148.224848 
L 301.614086 180.048127 
" clip-path="url(#p81e4c2dbe3)" style="fill: none; stroke: #ffcae1; stroke-opacity: 0.25; stroke-width: 1.5; stroke-linecap: square"/>
   </g>
   <g id="line2d_62">
    <path d="M 301.614086 180.048127 
L 208.868723 147.195765 
" clip-path="url(#p81e4c2dbe3)" style="fill: none; stroke: #ffcae1; stroke-opacity: 0.25; stroke-width: 1.5; stroke-linecap: square"/>
   </g>
   <g id="line2d_63">
    <path d="M 187.37802 175.265893 
L 193.415252 177.01606 
" clip-path="url(#p81e4c2dbe3)" style="fill: none; stroke: #003341; stroke-opacity: 0.25; stroke-width: 1.5; stroke-linecap: square"/>
   </g>
   <g id="line2d_64">
    <path d="M 193.415252 177.01606 
L 226.722981 178.811689 
" clip-path="url(#p81e4c2dbe3)" style="fill: none; stroke: #4d6b74; stroke-opacity: 0.25; stroke-width: 1.5; stroke-linecap: square"/>
   </g>
   <g id="line2d_65">
    <path d="M 226.722981 178.811689 
L 233.127623 179.901088 
" clip-path="url(#p81e4c2dbe3)" style="fill: none; stroke: #5b777f; stroke-opacity: 0.25; stroke-width: 1.5; stroke-linecap: square"/>
   </g>
   <g id="line2d_66">
    <path d="M 233.127623 179.901088 
L 247.156365 178.729892 
" clip-path="url(#p81e4c2dbe3)" style="fill: none; stroke: #7e8d8e; stroke-opacity: 0.25; stroke-width: 1.5; stroke-linecap: square"/>
   </g>
   <g id="line2d_67">
    <path d="M 247.156365 178.729892 
L 253.546968 180.396817 
" clip-path="url(#p81e4c2dbe3)" style="fill: none; stroke: #8a9a9b; stroke-opacity: 0.25; stroke-width: 1.5; stroke-linecap: square"/>
   </g>
   <g id="line2d_68">
    <path d="M 253.546968 180.396817 
L 298.945952 184.328663 
" clip-path="url(#p81e4c2dbe3)" style="fill: none; stroke: #f5eddc; stroke-opacity: 0.25; stroke-width: 1.5; stroke-linecap: square"/>
   </g>
   <g id="line2d_69">
    <path d="M 298.945952 184.328663 
L 303.771677 185.740896 
" clip-path="url(#p81e4c2dbe3)" style="fill: none; stroke: #fff7e6; stroke-opacity: 0.25; stroke-width: 1.5; stroke-linecap: square"/>
   </g>
   <g id="line2d_70">
    <path d="M 303.771677 185.740896 
L 187.37802 175.265893 
" clip-path="url(#p81e4c2dbe3)" style="fill: none; stroke: #fff7e6; stroke-opacity: 0.25; stroke-width: 1.5; stroke-linecap: square"/>
   </g>
   <g id="line2d_71">
    <path d="M 177.509363 154.206537 
L 207.544003 162.44791 
" clip-path="url(#p81e4c2dbe3)" style="fill: none; stroke: #383636; stroke-opacity: 0.25; stroke-width: 1.5; stroke-linecap: square"/>
   </g>
   <g id="line2d_72">
    <path d="M 207.544003 162.44791 
L 237.584553 170.877051 
" clip-path="url(#p81e4c2dbe3)" style="fill: none; stroke: #727070; stroke-opacity: 0.25; stroke-width: 1.5; stroke-linecap: square"/>
   </g>
   <g id="line2d_73">
    <path d="M 237.584553 170.877051 
L 269.787853 179.993468 
" clip-path="url(#p81e4c2dbe3)" style="fill: none; stroke: #b4b0b0; stroke-opacity: 0.25; stroke-width: 1.5; stroke-linecap: square"/>
   </g>
   <g id="line2d_74">
    <path d="M 269.787853 179.993468 
L 306.757893 191.651144 
" clip-path="url(#p81e4c2dbe3)" style="fill: none; stroke: #ffffff; stroke-opacity: 0.25; stroke-width: 1.5; stroke-linecap: square"/>
   </g>
   <g id="line2d_75">
    <path d="M 306.757893 191.651144 
L 177.509363 154.206537 
" clip-path="url(#p81e4c2dbe3)" style="fill: none; stroke: #ffffff; stroke-opacity: 0.25; stroke-width: 1.5; stroke-linecap: square"/>
   </g>
   <g id="Path3DCollection_1">
    <defs>
     <path id="C0_0_2ae6828b5c" d="M 0 2.236068 
C 0.593012 2.236068 1.161816 2.000462 1.581139 1.581139 
C 2.000462 1.161816 2.236068 0.593012 2.236068 -0 
C 2.236068 -0.593012 2.000462 -1.161816 1.581139 -1.581139 
C 1.161816 -2.000462 0.593012 -2.236068 0 -2.236068 
C -0.593012 -2.236068 -1.161816 -2.000462 -1.581139 -1.581139 
C -2.000462 -1.161816 -2.236068 -0.593012 -2.236068 0 
C -2.236068 0.593012 -2.000462 1.161816 -1.581139 1.581139 
C -1.161816 2.000462 -0.593012 2.236068 0 2.236068 
z
"/>
    </defs>
    <g clip-path="url(#p81e4c2dbe3)">
     <use xlink:href="#C0_0_2ae6828b5c" x="224.076512" y="168.514068" style="fill: #560060; stroke: #560060"/>
    </g>
    <g clip-path="url(#p81e4c2dbe3)">
     <use xlink:href="#C0_0_2ae6828b5c" x="254.083862" y="177.28987" style="fill: #9b00a8; stroke: #9b00a8"/>
    </g>
    <g clip-path="url(#p81e4c2dbe3)">
     <use xlink:href="#C0_0_2ae6828b5c" x="288.161351" y="187.426534" style="fill: #ef00ff; stroke: #ef00ff"/>
    </g>
    <g clip-path="url(#p81e4c2dbe3)">
     <use xlink:href="#C0_0_2ae6828b5c" x="204.814692" y="162.573748" style="fill: #310035; stroke: #310035"/>
    </g>
    <g clip-path="url(#p81e4c2dbe3)">
     <use xlink:href="#C0_0_2ae6828b5c" x="299.052653" y="189.642044" style="fill: #facefd; stroke: #facefd"/>
    </g>
   </g>
   <g id="Path3DCollection_2">
    <defs>
     <path id="C1_0_7a7c02175f" d="M 0 2.236068 
C 0.593012 2.236068 1.161816 2.000462 1.581139 1.581139 
C 2.000462 1.161816 2.236068 0.593012 2.236068 -0 
C 2.236068 -0.593012 2.000462 -1.161816 1.581139 -1.581139 
C 1.161816 -2.000462 0.593012 -2.236068 0 -2.236068 
C -0.593012 -2.236068 -1.161816 -2.000462 -1.581139 -1.581139 
C -2.000462 -1.161816 -2.236068 -0.593012 -2.236068 0 
C -2.236068 0.593012 -2.000462 1.161816 -1.581139 1.581139 
C -1.161816 2.000462 -0.593012 2.236068 0 2.236068 
z
"/>
    </defs>
    <g clip-path="url(#p81e4c2dbe3)">
     <use xlink:href="#C1_0_7a7c02175f" x="231.335696" y="141.049969" style="fill: #680030; stroke: #680030"/>
    </g>
    <g clip-path="url(#p81e4c2dbe3)">
     <use xlink:href="#C1_0_7a7c02175f" x="262.235793" y="146.572632" style="fill: #b60067; stroke: #b60067"/>
    </g>
    <g clip-path="url(#p81e4c2dbe3)">
     <use xlink:href="#C1_0_7a7c02175f" x="208.868723" y="147.195765" style="fill: #3b001c; stroke: #3b001c"/>
    </g>
    <g clip-path="url(#p81e4c2dbe3)">
     <use xlink:href="#C1_0_7a7c02175f" x="297.966634" y="148.224848" style="fill: #ff00a0; stroke: #ff00a0"/>
    </g>
    <g clip-path="url(#p81e4c2dbe3)">
     <use xlink:href="#C1_0_7a7c02175f" x="301.614086" y="180.048127" style="fill: #ffcae1; stroke: #ffcae1"/>
    </g>
   </g>
   <g id="Path3DCollection_3">
    <defs>
     <path id="C2_0_d5ddd7c7b9" d="M 0 2.236068 
C 0.593012 2.236068 1.161816 2.000462 1.581139 1.581139 
C 2.000462 1.161816 2.236068 0.593012 2.236068 -0 
C 2.236068 -0.593012 2.000462 -1.161816 1.581139 -1.581139 
C 1.161816 -2.000462 0.593012 -2.236068 0 -2.236068 
C -0.593012 -2.236068 -1.161816 -2.000462 -1.581139 -1.581139 
C -2.000462 -1.161816 -2.236068 -0.593012 -2.236068 0 
C -2.236068 0.593012 -2.000462 1.161816 -1.581139 1.581139 
C -1.161816 2.000462 -0.593012 2.236068 0 2.236068 
z
"/>
    </defs>
    <g clip-path="url(#p81e4c2dbe3)">
     <use xlink:href="#C2_0_d5ddd7c7b9" x="206.04497" y="193.559517" style="fill: #27097a; stroke: #27097a"/>
    </g>
    <g clip-path="url(#p81e4c2dbe3)">
     <use xlink:href="#C2_0_d5ddd7c7b9" x="194.623665" y="176.461736" style="fill: #141142; stroke: #141142"/>
    </g>
    <g clip-path="url(#p81e4c2dbe3)">
     <use xlink:href="#C2_0_d5ddd7c7b9" x="234.371353" y="205.500391" style="fill: #5849cb; stroke: #5849cb"/>
    </g>
    <g clip-path="url(#p81e4c2dbe3)">
     <use xlink:href="#C2_0_d5ddd7c7b9" x="263.120137" y="224.5303" style="fill: #8b69ff; stroke: #8b69ff"/>
    </g>
    <g clip-path="url(#p81e4c2dbe3)">
     <use xlink:href="#C2_0_d5ddd7c7b9" x="293.186728" y="198.427005" style="fill: #d8deff; stroke: #d8deff"/>
    </g>
   </g>
   <g id="Path3DCollection_4">
    <defs>
     <path id="C3_0_a472b63e3b" d="M 0 2.236068 
C 0.593012 2.236068 1.161816 2.000462 1.581139 1.581139 
C 2.000462 1.161816 2.236068 0.593012 2.236068 -0 
C 2.236068 -0.593012 2.000462 -1.161816 1.581139 -1.581139 
C 1.161816 -2.000462 0.593012 -2.236068 0 -2.236068 
C -0.593012 -2.236068 -1.161816 -2.000462 -1.581139 -1.581139 
C -2.000462 -1.161816 -2.236068 -0.593012 -2.236068 0 
C -2.236068 0.593012 -2.000462 1.161816 -1.581139 1.581139 
C -1.161816 2.000462 -0.593012 2.236068 0 2.236068 
z
"/>
    </defs>
    <g clip-path="url(#p81e4c2dbe3)">
     <use xlink:href="#C3_0_a472b63e3b" x="224.267356" y="124.518891" style="fill: #670000; stroke: #670000"/>
    </g>
    <g clip-path="url(#p81e4c2dbe3)">
     <use xlink:href="#C3_0_a472b63e3b" x="204.738692" y="138.061324" style="fill: #3a0200; stroke: #3a0200"/>
    </g>
    <g clip-path="url(#p81e4c2dbe3)">
     <use xlink:href="#C3_0_a472b63e3b" x="254.869786" y="128.142223" style="fill: #b42a13; stroke: #b42a13"/>
    </g>
    <g clip-path="url(#p81e4c2dbe3)">
     <use xlink:href="#C3_0_a472b63e3b" x="293.149651" y="127.299052" style="fill: #ff5236; stroke: #ff5236"/>
    </g>
    <g clip-path="url(#p81e4c2dbe3)">
     <use xlink:href="#C3_0_a472b63e3b" x="299.559775" y="174.546139" style="fill: #ffd3c5; stroke: #ffd3c5"/>
    </g>
   </g>
   <g id="Path3DCollection_5">
    <defs>
     <path id="C4_0_a3ce8f2499" d="M 0 2.236068 
C 0.593012 2.236068 1.161816 2.000462 1.581139 1.581139 
C 2.000462 1.161816 2.236068 0.593012 2.236068 -0 
C 2.236068 -0.593012 2.000462 -1.161816 1.581139 -1.581139 
C 1.161816 -2.000462 0.593012 -2.236068 0 -2.236068 
C -0.593012 -2.236068 -1.161816 -2.000462 -1.581139 -1.581139 
C -2.000462 -1.161816 -2.236068 -0.593012 -2.236068 0 
C -2.236068 0.593012 -2.000462 1.161816 -1.581139 1.581139 
C -1.161816 2.000462 -0.593012 2.236068 0 2.236068 
z
"/>
    </defs>
    <g clip-path="url(#p81e4c2dbe3)">
     <use xlink:href="#C4_0_a3ce8f2499" x="187.37802" y="175.265893" style="fill: #002735; stroke: #002735"/>
    </g>
    <g clip-path="url(#p81e4c2dbe3)">
     <use xlink:href="#C4_0_a3ce8f2499" x="193.415252" y="177.01606" style="fill: #003341; stroke: #003341"/>
    </g>
    <g clip-path="url(#p81e4c2dbe3)">
     <use xlink:href="#C4_0_a3ce8f2499" x="226.722981" y="178.811689" style="fill: #4d6b74; stroke: #4d6b74"/>
    </g>
    <g clip-path="url(#p81e4c2dbe3)">
     <use xlink:href="#C4_0_a3ce8f2499" x="233.127623" y="179.901088" style="fill: #5b777f; stroke: #5b777f"/>
    </g>
    <g clip-path="url(#p81e4c2dbe3)">
     <use xlink:href="#C4_0_a3ce8f2499" x="247.156365" y="178.729892" style="fill: #7e8d8e; stroke: #7e8d8e"/>
    </g>
    <g clip-path="url(#p81e4c2dbe3)">
     <use xlink:href="#C4_0_a3ce8f2499" x="253.546968" y="180.396817" style="fill: #8a9a9b; stroke: #8a9a9b"/>
    </g>
    <g clip-path="url(#p81e4c2dbe3)">
     <use xlink:href="#C4_0_a3ce8f2499" x="298.945952" y="184.328663" style="fill: #f5eddc; stroke: #f5eddc"/>
    </g>
    <g clip-path="url(#p81e4c2dbe3)">
     <use xlink:href="#C4_0_a3ce8f2499" x="303.771677" y="185.740896" style="fill: #fff7e6; stroke: #fff7e6"/>
    </g>
   </g>
   <g id="Path3DCollection_6">
    <defs>
     <path id="C5_0_a5be3726eb" d="M 0 2.236068 
C 0.593012 2.236068 1.161816 2.000462 1.581139 1.581139 
C 2.000462 1.161816 2.236068 0.593012 2.236068 -0 
C 2.236068 -0.593012 2.000462 -1.161816 1.581139 -1.581139 
C 1.161816 -2.000462 0.593012 -2.236068 0 -2.236068 
C -0.593012 -2.236068 -1.161816 -2.000462 -1.581139 -1.581139 
C -2.000462 -1.161816 -2.236068 -0.593012 -2.236068 0 
C -2.236068 0.593012 -2.000462 1.161816 -1.581139 1.581139 
C -1.161816 2.000462 -0.593012 2.236068 0 2.236068 
z
"/>
    </defs>
    <g clip-path="url(#p81e4c2dbe3)">
     <use xlink:href="#C5_0_a5be3726eb" x="177.509363" y="154.206537" style="stroke: #000000"/>
    </g>
    <g clip-path="url(#p81e4c2dbe3)">
     <use xlink:href="#C5_0_a5be3726eb" x="207.544003" y="162.44791" style="fill: #383636; stroke: #383636"/>
    </g>
    <g clip-path="url(#p81e4c2dbe3)">
     <use xlink:href="#C5_0_a5be3726eb" x="237.584553" y="170.877051" style="fill: #727070; stroke: #727070"/>
    </g>
    <g clip-path="url(#p81e4c2dbe3)">
     <use xlink:href="#C5_0_a5be3726eb" x="269.787853" y="179.993468" style="fill: #b4b0b0; stroke: #b4b0b0"/>
    </g>
    <g clip-path="url(#p81e4c2dbe3)">
     <use xlink:href="#C5_0_a5be3726eb" x="306.757893" y="191.651144" style="fill: #ffffff; stroke: #ffffff"/>
    </g>
   </g>
   <g id="Path3DCollection_7">
    <defs>
     <path id="C6_0_b6d19fcf69" d="M 0 2.236068 
C 0.593012 2.236068 1.161816 2.000462 1.581139 1.581139 
C 2.000462 1.161816 2.236068 0.593012 2.236068 -0 
C 2.236068 -0.593012 2.000462 -1.161816 1.581139 -1.581139 
C 1.161816 -2.000462 0.593012 -2.236068 0 -2.236068 
C -0.593012 -2.236068 -1.161816 -2.000462 -1.581139 -1.581139 
C -2.000462 -1.161816 -2.236068 -0.593012 -2.236068 0 
C -2.236068 0.593012 -2.000462 1.161816 -1.581139 1.581139 
C -1.161816 2.000462 -0.593012 2.236068 0 2.236068 
z
"/>
    </defs>
    <g clip-path="url(#p81e4c2dbe3)">
     <use xlink:href="#C6_0_b6d19fcf69" x="183.756886" y="180.306797" style="fill: #002739; stroke: #002739"/>
    </g>
    <g clip-path="url(#p81e4c2dbe3)">
     <use xlink:href="#C6_0_b6d19fcf69" x="186.580273" y="200.937779" style="fill: #004269; stroke: #004269"/>
    </g>
    <g clip-path="url(#p81e4c2dbe3)">
     <use xlink:href="#C6_0_b6d19fcf69" x="213.23708" y="214.103391" style="fill: #0081b3; stroke: #0081b3"/>
    </g>
    <g clip-path="url(#p81e4c2dbe3)">
     <use xlink:href="#C6_0_b6d19fcf69" x="287.234351" y="200.983705" style="fill: #b5f0ff; stroke: #b5f0ff"/>
    </g>
    <g clip-path="url(#p81e4c2dbe3)">
     <use xlink:href="#C6_0_b6d19fcf69" x="236.252162" y="236.524495" style="fill: #00c6ff; stroke: #00c6ff"/>
    </g>
   </g>
   <g id="Path3DCollection_8">
    <defs>
     <path id="C7_0_a256c1553b" d="M 0 2.236068 
C 0.593012 2.236068 1.161816 2.000462 1.581139 1.581139 
C 2.000462 1.161816 2.236068 0.593012 2.236068 -0 
C 2.236068 -0.593012 2.000462 -1.161816 1.581139 -1.581139 
C 1.161816 -2.000462 0.593012 -2.236068 0 -2.236068 
C -0.593012 -2.236068 -1.161816 -2.000462 -1.581139 -1.581139 
C -2.000462 -1.161816 -2.236068 -0.593012 -2.236068 0 
C -2.236068 0.593012 -2.000462 1.161816 -1.581139 1.581139 
C -1.161816 2.000462 -0.593012 2.236068 0 2.236068 
z
"/>
    </defs>
    <g clip-path="url(#p81e4c2dbe3)">
     <use xlink:href="#C7_0_a256c1553b" x="193.971332" y="140.53079" style="fill: #2a1b00; stroke: #2a1b00"/>
    </g>
    <g clip-path="url(#p81e4c2dbe3)">
     <use xlink:href="#C7_0_a256c1553b" x="205.159119" y="128.684382" style="fill: #4c2d00; stroke: #4c2d00"/>
    </g>
    <g clip-path="url(#p81e4c2dbe3)">
     <use xlink:href="#C7_0_a256c1553b" x="234.212285" y="132.922435" style="fill: #8b6600; stroke: #8b6600"/>
    </g>
    <g clip-path="url(#p81e4c2dbe3)">
     <use xlink:href="#C7_0_a256c1553b" x="293.664969" y="176.37284" style="fill: #f0e5b8; stroke: #f0e5b8"/>
    </g>
    <g clip-path="url(#p81e4c2dbe3)">
     <use xlink:href="#C7_0_a256c1553b" x="273.138771" y="129.43704" style="fill: #eeae00; stroke: #eeae00"/>
    </g>
   </g>
   <g id="Path3DCollection_9">
    <defs>
     <path id="C8_0_7df21696b4" d="M 0 2.236068 
C 0.593012 2.236068 1.161816 2.000462 1.581139 1.581139 
C 2.000462 1.161816 2.236068 0.593012 2.236068 -0 
C 2.236068 -0.593012 2.000462 -1.161816 1.581139 -1.581139 
C 1.161816 -2.000462 0.593012 -2.236068 0 -2.236068 
C -0.593012 -2.236068 -1.161816 -2.000462 -1.581139 -1.581139 
C -2.000462 -1.161816 -2.236068 -0.593012 -2.236068 0 
C -2.236068 0.593012 -2.000462 1.161816 -1.581139 1.581139 
C -1.161816 2.000462 -0.593012 2.236068 0 2.236068 
z
"/>
    </defs>
    <g clip-path="url(#p81e4c2dbe3)">
     <use xlink:href="#C8_0_7df21696b4" x="178.92168" y="171.603273" style="fill: #00301f; stroke: #00301f"/>
    </g>
    <g clip-path="url(#p81e4c2dbe3)">
     <use xlink:href="#C8_0_7df21696b4" x="177.781873" y="185.370994" style="fill: #005536; stroke: #005536"/>
    </g>
    <g clip-path="url(#p81e4c2dbe3)">
     <use xlink:href="#C8_0_7df21696b4" x="284.856681" y="195.73142" style="fill: #adf9e5; stroke: #adf9e5"/>
    </g>
    <g clip-path="url(#p81e4c2dbe3)">
     <use xlink:href="#C8_0_7df21696b4" x="203.85097" y="196.830426" style="fill: #00996f; stroke: #00996f"/>
    </g>
    <g clip-path="url(#p81e4c2dbe3)">
     <use xlink:href="#C8_0_7df21696b4" x="224.401096" y="214.197156" style="fill: #00ecac; stroke: #00ecac"/>
    </g>
   </g>
   <g id="Path3DCollection_10">
    <defs>
     <path id="C9_0_51288afb5a" d="M 0 2.236068 
C 0.593012 2.236068 1.161816 2.000462 1.581139 1.581139 
C 2.000462 1.161816 2.236068 0.593012 2.236068 -0 
C 2.236068 -0.593012 2.000462 -1.161816 1.581139 -1.581139 
C 1.161816 -2.000462 0.593012 -2.236068 0 -2.236068 
C -0.593012 -2.236068 -1.161816 -2.000462 -1.581139 -1.581139 
C -2.000462 -1.161816 -2.236068 -0.593012 -2.236068 0 
C -2.236068 0.593012 -2.000462 1.161816 -1.581139 1.581139 
C -1.161816 2.000462 -0.593012 2.236068 0 2.236068 
z
"/>
    </defs>
    <g clip-path="url(#p81e4c2dbe3)">
     <use xlink:href="#C9_0_51288afb5a" x="183.193824" y="155.349919" style="fill: #002c00; stroke: #002c00"/>
    </g>
    <g clip-path="url(#p81e4c2dbe3)">
     <use xlink:href="#C9_0_51288afb5a" x="185.601482" y="155.63062" style="fill: #004c00; stroke: #004c00"/>
    </g>
    <g clip-path="url(#p81e4c2dbe3)">
     <use xlink:href="#C9_0_51288afb5a" x="287.529036" y="185.706394" style="fill: #c9f5c7; stroke: #c9f5c7"/>
    </g>
    <g clip-path="url(#p81e4c2dbe3)">
     <use xlink:href="#C9_0_51288afb5a" x="212.687292" y="163.345944" style="fill: #008e00; stroke: #008e00"/>
    </g>
    <g clip-path="url(#p81e4c2dbe3)">
     <use xlink:href="#C9_0_51288afb5a" x="236.155775" y="169.794063" style="fill: #00da00; stroke: #00da00"/>
    </g>
   </g>
  </g>
 </g>
 <defs>
  <clipPath id="p81e4c2dbe3">
   <rect x="103.104" y="41.472" width="266.112" height="266.112"/>
  </clipPath>
 </defs>
</svg>
