<?xml version="1.0" encoding="utf-8" standalone="no"?>
<!DOCTYPE svg PUBLIC "-//W3C//DTD SVG 1.1//EN"
  "http://www.w3.org/Graphics/SVG/1.1/DTD/svg11.dtd">
<svg xmlns:xlink="http://www.w3.org/1999/xlink" width="460.8pt" height="345.6pt" viewBox="0 0 460.8 345.6" xmlns="http://www.w3.org/2000/svg" version="1.1">
 <metadata>
  <rdf:RDF xmlns:dc="http://purl.org/dc/elements/1.1/" xmlns:cc="http://creativecommons.org/ns#" xmlns:rdf="http://www.w3.org/1999/02/22-rdf-syntax-ns#">
   <cc:Work>
    <dc:type rdf:resource="http://purl.org/dc/dcmitype/StillImage"/>
    <dc:date>2024-06-02T22:03:00.889721</dc:date>
    <dc:format>image/svg+xml</dc:format>
    <dc:creator>
     <cc:Agent>
      <dc:title>Matplotlib v3.9.0, https://matplotlib.org/</dc:title>
     </cc:Agent>
    </dc:creator>
   </cc:Work>
  </rdf:RDF>
 </metadata>
 <defs>
  <style type="text/css">*{stroke-linejoin: round; stroke-linecap: butt}</style>
 </defs>
 <g id="figure_1">
  <g id="patch_1">
   <path d="M 0 345.6 
L 460.8 345.6 
L 460.8 0 
L 0 0 
z
" style="fill: #ffffff"/>
  </g>
  <g id="patch_2">
   <path d="M 103.104 307.584 
L 369.216 307.584 
L 369.216 41.472 
L 103.104 41.472 
z
" style="fill: #ffffff"/>
  </g>
  <g id="pane3d_1">
   <g id="patch_3">
    <path d="M 123.197291 241.969309 
L 211.076164 168.307495 
L 209.854564 62.073991 
L 117.770234 129.272941 
" style="fill: #f2f2f2; opacity: 0.5; stroke: #f2f2f2; stroke-linejoin: miter"/>
   </g>
  </g>
  <g id="pane3d_2">
   <g id="patch_4">
    <path d="M 211.076164 168.307495 
L 352.090401 209.294766 
L 357.122702 99.402171 
L 209.854564 62.073991 
" style="fill: #e6e6e6; opacity: 0.5; stroke: #e6e6e6; stroke-linejoin: miter"/>
   </g>
  </g>
  <g id="pane3d_3">
   <g id="patch_5">
    <path d="M 123.197291 241.969309 
L 272.679269 290.790123 
L 352.090401 209.294766 
L 211.076164 168.307495 
" style="fill: #ececec; opacity: 0.5; stroke: #ececec; stroke-linejoin: miter"/>
   </g>
  </g>
  <g id="grid3d_1">
   <g id="Line3DCollection_1">
    <path d="M 123.197291 241.969309 
L 211.076164 168.307495 
L 209.854564 62.073991 
" style="fill: none; stroke: #b0b0b0; stroke-width: 0.8"/>
    <path d="M 151.284689 251.142653 
L 237.667621 176.036581 
L 237.577797 69.101022 
" style="fill: none; stroke: #b0b0b0; stroke-width: 0.8"/>
    <path d="M 179.949562 260.504601 
L 264.760284 183.911349 
L 265.846264 76.266255 
" style="fill: none; stroke: #b0b0b0; stroke-width: 0.8"/>
    <path d="M 209.209907 270.061029 
L 292.368458 191.935955 
L 294.676208 83.573805 
" style="fill: none; stroke: #b0b0b0; stroke-width: 0.8"/>
    <path d="M 239.084471 279.818062 
L 320.506998 200.114718 
L 324.084526 91.027956 
" style="fill: none; stroke: #b0b0b0; stroke-width: 0.8"/>
    <path d="M 269.592802 289.782082 
L 349.191336 208.452123 
L 354.088799 98.633165 
" style="fill: none; stroke: #b0b0b0; stroke-width: 0.8"/>
   </g>
  </g>
  <g id="grid3d_2">
   <g id="Line3DCollection_2">
    <path d="M 117.770234 129.272941 
L 123.197291 241.969309 
L 272.679269 290.790123 
" style="fill: none; stroke: #b0b0b0; stroke-width: 0.8"/>
    <path d="M 137.153441 115.127959 
L 141.639881 226.510365 
L 289.402998 273.627462 
" style="fill: none; stroke: #b0b0b0; stroke-width: 0.8"/>
    <path d="M 155.853747 101.481327 
L 159.460641 211.57265 
L 305.533401 257.073701 
" style="fill: none; stroke: #b0b0b0; stroke-width: 0.8"/>
    <path d="M 173.906617 88.307165 
L 176.690501 197.13024 
L 321.101502 241.096999 
" style="fill: none; stroke: #b0b0b0; stroke-width: 0.8"/>
    <path d="M 191.345101 75.581354 
L 193.35837 183.158902 
L 336.1362 225.667701 
" style="fill: none; stroke: #b0b0b0; stroke-width: 0.8"/>
    <path d="M 208.200039 63.281388 
L 209.491303 169.635957 
L 350.664447 210.758145 
" style="fill: none; stroke: #b0b0b0; stroke-width: 0.8"/>
   </g>
  </g>
  <g id="grid3d_3">
   <g id="Line3DCollection_3">
    <path d="M 352.090401 209.294766 
L 211.076164 168.307495 
L 123.197291 241.969309 
" style="fill: none; stroke: #b0b0b0; stroke-width: 0.8"/>
    <path d="M 353.042826 188.496231 
L 210.844565 148.167054 
L 122.171557 220.669267 
" style="fill: none; stroke: #b0b0b0; stroke-width: 0.8"/>
    <path d="M 354.01154 167.342 
L 210.609196 127.698685 
L 121.127609 198.991009 
" style="fill: none; stroke: #b0b0b0; stroke-width: 0.8"/>
    <path d="M 354.996963 145.822869 
L 210.369962 106.894312 
L 120.064958 176.924372 
" style="fill: none; stroke: #b0b0b0; stroke-width: 0.8"/>
    <path d="M 355.999532 123.929315 
L 210.126768 85.745595 
L 118.983096 154.458825 
" style="fill: none; stroke: #b0b0b0; stroke-width: 0.8"/>
    <path d="M 357.019699 101.65148 
L 209.879516 64.243913 
L 117.8815 131.583451 
" style="fill: none; stroke: #b0b0b0; stroke-width: 0.8"/>
   </g>
  </g>
  <g id="axis3d_1">
   <g id="line2d_1">
    <path d="M 123.197291 241.969309 
L 272.679269 290.790123 
" style="fill: none; stroke: #000000; stroke-width: 0.8; stroke-linecap: square"/>
   </g>
   <g id="xtick_1">
    <g id="line2d_2">
     <path d="M 123.962332 241.328036 
L 121.663937 243.254597 
" style="fill: none; stroke: #000000; stroke-width: 0.8; stroke-linecap: square"/>
    </g>
    <g id="text_1">
     <!-- 0 -->
     <g transform="translate(112.478153 265.215952) scale(0.1 -0.1)">
      <defs>
       <path id="DejaVuSans-30" d="M 2034 4250 
Q 1547 4250 1301 3770 
Q 1056 3291 1056 2328 
Q 1056 1369 1301 889 
Q 1547 409 2034 409 
Q 2525 409 2770 889 
Q 3016 1369 3016 2328 
Q 3016 3291 2770 3770 
Q 2525 4250 2034 4250 
z
M 2034 4750 
Q 2819 4750 3233 4129 
Q 3647 3509 3647 2328 
Q 3647 1150 3233 529 
Q 2819 -91 2034 -91 
Q 1250 -91 836 529 
Q 422 1150 422 2328 
Q 422 3509 836 4129 
Q 1250 4750 2034 4750 
z
" transform="scale(0.015625)"/>
      </defs>
      <use xlink:href="#DejaVuSans-30"/>
     </g>
    </g>
   </g>
   <g id="xtick_2">
    <g id="line2d_3">
     <path d="M 152.037326 250.488268 
L 149.776161 252.45425 
" style="fill: none; stroke: #000000; stroke-width: 0.8; stroke-linecap: square"/>
    </g>
    <g id="text_2">
     <!-- 50 -->
     <g transform="translate(137.412441 274.583454) scale(0.1 -0.1)">
      <defs>
       <path id="DejaVuSans-35" d="M 691 4666 
L 3169 4666 
L 3169 4134 
L 1269 4134 
L 1269 2991 
Q 1406 3038 1543 3061 
Q 1681 3084 1819 3084 
Q 2600 3084 3056 2656 
Q 3513 2228 3513 1497 
Q 3513 744 3044 326 
Q 2575 -91 1722 -91 
Q 1428 -91 1123 -41 
Q 819 9 494 109 
L 494 744 
Q 775 591 1075 516 
Q 1375 441 1709 441 
Q 2250 441 2565 725 
Q 2881 1009 2881 1497 
Q 2881 1984 2565 2268 
Q 2250 2553 1709 2553 
Q 1456 2553 1204 2497 
Q 953 2441 691 2322 
L 691 4666 
z
" transform="scale(0.015625)"/>
      </defs>
      <use xlink:href="#DejaVuSans-35"/>
      <use xlink:href="#DejaVuSans-30" x="63.623047"/>
     </g>
    </g>
   </g>
   <g id="xtick_3">
    <g id="line2d_4">
     <path d="M 180.689123 259.836698 
L 178.467213 261.843322 
" style="fill: none; stroke: #000000; stroke-width: 0.8; stroke-linecap: square"/>
    </g>
    <g id="text_3">
     <!-- 100 -->
     <g transform="translate(162.926969 284.144279) scale(0.1 -0.1)">
      <defs>
       <path id="DejaVuSans-31" d="M 794 531 
L 1825 531 
L 1825 4091 
L 703 3866 
L 703 4441 
L 1819 4666 
L 2450 4666 
L 2450 531 
L 3481 531 
L 3481 0 
L 794 0 
L 794 531 
z
" transform="scale(0.015625)"/>
      </defs>
      <use xlink:href="#DejaVuSans-31"/>
      <use xlink:href="#DejaVuSans-30" x="63.623047"/>
      <use xlink:href="#DejaVuSans-30" x="127.246094"/>
     </g>
    </g>
   </g>
   <g id="xtick_4">
    <g id="line2d_5">
     <path d="M 209.935681 269.379184 
L 207.755156 271.427725 
" style="fill: none; stroke: #000000; stroke-width: 0.8; stroke-linecap: square"/>
    </g>
    <g id="text_4">
     <!-- 150 -->
     <g transform="translate(192.221138 293.904475) scale(0.1 -0.1)">
      <use xlink:href="#DejaVuSans-31"/>
      <use xlink:href="#DejaVuSans-35" x="63.623047"/>
      <use xlink:href="#DejaVuSans-30" x="127.246094"/>
     </g>
    </g>
   </g>
   <g id="xtick_5">
    <g id="line2d_6">
     <path d="M 239.795716 279.121834 
L 237.658812 281.213619 
" style="fill: none; stroke: #000000; stroke-width: 0.8; stroke-linecap: square"/>
    </g>
    <g id="text_5">
     <!-- 200 -->
     <g transform="translate(222.132612 303.870345) scale(0.1 -0.1)">
      <defs>
       <path id="DejaVuSans-32" d="M 1228 531 
L 3431 531 
L 3431 0 
L 469 0 
L 469 531 
Q 828 903 1448 1529 
Q 2069 2156 2228 2338 
Q 2531 2678 2651 2914 
Q 2772 3150 2772 3378 
Q 2772 3750 2511 3984 
Q 2250 4219 1831 4219 
Q 1534 4219 1204 4116 
Q 875 4013 500 3803 
L 500 4441 
Q 881 4594 1212 4672 
Q 1544 4750 1819 4750 
Q 2544 4750 2975 4387 
Q 3406 4025 3406 3419 
Q 3406 3131 3298 2873 
Q 3191 2616 2906 2266 
Q 2828 2175 2409 1742 
Q 1991 1309 1228 531 
z
" transform="scale(0.015625)"/>
      </defs>
      <use xlink:href="#DejaVuSans-32"/>
      <use xlink:href="#DejaVuSans-30" x="63.623047"/>
      <use xlink:href="#DejaVuSans-30" x="127.246094"/>
     </g>
    </g>
   </g>
   <g id="xtick_6">
    <g id="line2d_7">
     <path d="M 270.288734 289.071012 
L 268.197803 291.207425 
" style="fill: none; stroke: #000000; stroke-width: 0.8; stroke-linecap: square"/>
    </g>
    <g id="text_6">
     <!-- 250 -->
     <g transform="translate(252.681111 314.048457) scale(0.1 -0.1)">
      <use xlink:href="#DejaVuSans-32"/>
      <use xlink:href="#DejaVuSans-35" x="63.623047"/>
      <use xlink:href="#DejaVuSans-30" x="127.246094"/>
     </g>
    </g>
   </g>
  </g>
  <g id="axis3d_2">
   <g id="line2d_8">
    <path d="M 352.090401 209.294766 
L 272.679269 290.790123 
" style="fill: none; stroke: #000000; stroke-width: 0.8; stroke-linecap: square"/>
   </g>
   <g id="xtick_7">
    <g id="line2d_9">
     <path d="M 271.419199 290.378584 
L 275.202687 291.614271 
" style="fill: none; stroke: #000000; stroke-width: 0.8; stroke-linecap: square"/>
    </g>
    <g id="text_7">
     <!-- 0 -->
     <g transform="translate(282.452273 311.89542) scale(0.1 -0.1)">
      <use xlink:href="#DejaVuSans-30"/>
     </g>
    </g>
   </g>
   <g id="xtick_8">
    <g id="line2d_10">
     <path d="M 288.158564 273.23065 
L 291.895047 274.4221 
" style="fill: none; stroke: #000000; stroke-width: 0.8; stroke-linecap: square"/>
    </g>
    <g id="text_8">
     <!-- 50 -->
     <g transform="translate(295.770559 294.478538) scale(0.1 -0.1)">
      <use xlink:href="#DejaVuSans-35"/>
      <use xlink:href="#DejaVuSans-30" x="63.623047"/>
     </g>
    </g>
   </g>
   <g id="xtick_9">
    <g id="line2d_11">
     <path d="M 304.304295 256.690839 
L 307.994698 257.840384 
" style="fill: none; stroke: #000000; stroke-width: 0.8; stroke-linecap: square"/>
    </g>
    <g id="text_9">
     <!-- 100 -->
     <g transform="translate(308.503132 277.679933) scale(0.1 -0.1)">
      <use xlink:href="#DejaVuSans-31"/>
      <use xlink:href="#DejaVuSans-30" x="63.623047"/>
      <use xlink:href="#DejaVuSans-30" x="127.246094"/>
     </g>
    </g>
   </g>
   <g id="xtick_10">
    <g id="line2d_12">
     <path d="M 319.887421 240.727365 
L 323.532658 241.837179 
" style="fill: none; stroke: #000000; stroke-width: 0.8; stroke-linecap: square"/>
    </g>
    <g id="text_10">
     <!-- 150 -->
     <g transform="translate(323.861887 261.467258) scale(0.1 -0.1)">
      <use xlink:href="#DejaVuSans-31"/>
      <use xlink:href="#DejaVuSans-35" x="63.623047"/>
      <use xlink:href="#DejaVuSans-30" x="127.246094"/>
     </g>
    </g>
   </g>
   <g id="xtick_11">
    <g id="line2d_13">
     <path d="M 334.936845 225.31062 
L 338.537818 226.382727 
" style="fill: none; stroke: #000000; stroke-width: 0.8; stroke-linecap: square"/>
    </g>
    <g id="text_11">
     <!-- 200 -->
     <g transform="translate(338.694117 245.810382) scale(0.1 -0.1)">
      <use xlink:href="#DejaVuSans-32"/>
      <use xlink:href="#DejaVuSans-30" x="63.623047"/>
      <use xlink:href="#DejaVuSans-30" x="127.246094"/>
     </g>
    </g>
   </g>
   <g id="xtick_12">
    <g id="line2d_14">
     <path d="M 349.479522 210.41299 
L 353.03712 211.449279 
" style="fill: none; stroke: #000000; stroke-width: 0.8; stroke-linecap: square"/>
    </g>
    <g id="text_12">
     <!-- 250 -->
     <g transform="translate(353.02644 230.681207) scale(0.1 -0.1)">
      <use xlink:href="#DejaVuSans-32"/>
      <use xlink:href="#DejaVuSans-35" x="63.623047"/>
      <use xlink:href="#DejaVuSans-30" x="127.246094"/>
     </g>
    </g>
   </g>
  </g>
  <g id="axis3d_3">
   <g id="line2d_15">
    <path d="M 352.090401 209.294766 
L 357.122702 99.402171 
" style="fill: none; stroke: #000000; stroke-width: 0.8; stroke-linecap: square"/>
   </g>
   <g id="xtick_13">
    <g id="line2d_16">
     <path d="M 350.906903 208.95077 
L 354.460211 209.983577 
" style="fill: none; stroke: #000000; stroke-width: 0.8; stroke-linecap: square"/>
    </g>
    <g id="text_13">
     <!-- 0 -->
     <g transform="translate(367.15779 214.288206) scale(0.1 -0.1)">
      <use xlink:href="#DejaVuSans-30"/>
     </g>
    </g>
   </g>
   <g id="xtick_14">
    <g id="line2d_17">
     <path d="M 351.848917 188.157624 
L 355.433506 189.174257 
" style="fill: none; stroke: #000000; stroke-width: 0.8; stroke-linecap: square"/>
    </g>
    <g id="text_14">
     <!-- 50 -->
     <g transform="translate(365.080339 193.530537) scale(0.1 -0.1)">
      <use xlink:href="#DejaVuSans-35"/>
      <use xlink:href="#DejaVuSans-30" x="63.623047"/>
     </g>
    </g>
   </g>
   <g id="xtick_15">
    <g id="line2d_18">
     <path d="M 352.807036 167.009017 
L 356.42346 168.008771 
" style="fill: none; stroke: #000000; stroke-width: 0.8; stroke-linecap: square"/>
    </g>
    <g id="text_15">
     <!-- 100 -->
     <g transform="translate(363.021707 172.418953) scale(0.1 -0.1)">
      <use xlink:href="#DejaVuSans-31"/>
      <use xlink:href="#DejaVuSans-30" x="63.623047"/>
      <use xlink:href="#DejaVuSans-30" x="127.246094"/>
     </g>
    </g>
   </g>
   <g id="xtick_16">
    <g id="line2d_19">
     <path d="M 353.781675 145.495756 
L 357.430504 146.477894 
" style="fill: none; stroke: #000000; stroke-width: 0.8; stroke-linecap: square"/>
    </g>
    <g id="text_16">
     <!-- 150 -->
     <g transform="translate(364.16363 150.944325) scale(0.1 -0.1)">
      <use xlink:href="#DejaVuSans-31"/>
      <use xlink:href="#DejaVuSans-35" x="63.623047"/>
      <use xlink:href="#DejaVuSans-30" x="127.246094"/>
     </g>
    </g>
   </g>
   <g id="xtick_17">
    <g id="line2d_20">
     <path d="M 354.773265 123.608327 
L 358.455085 124.572081 
" style="fill: none; stroke: #000000; stroke-width: 0.8; stroke-linecap: square"/>
    </g>
    <g id="text_17">
     <!-- 200 -->
     <g transform="translate(365.325361 129.097208) scale(0.1 -0.1)">
      <use xlink:href="#DejaVuSans-32"/>
      <use xlink:href="#DejaVuSans-30" x="63.623047"/>
      <use xlink:href="#DejaVuSans-30" x="127.246094"/>
     </g>
    </g>
   </g>
   <g id="xtick_18">
    <g id="line2d_21">
     <path d="M 355.782253 101.336883 
L 359.497664 102.281455 
" style="fill: none; stroke: #000000; stroke-width: 0.8; stroke-linecap: square"/>
    </g>
    <g id="text_18">
     <!-- 250 -->
     <g transform="translate(366.507419 106.867824) scale(0.1 -0.1)">
      <use xlink:href="#DejaVuSans-32"/>
      <use xlink:href="#DejaVuSans-35" x="63.623047"/>
      <use xlink:href="#DejaVuSans-30" x="127.246094"/>
     </g>
    </g>
   </g>
  </g>
  <g id="axes_1">
   <g id="Path3DCollection_1">
    <defs>
     <path id="C0_0_29062bcfcf" d="M 0 2.236068 
C 0.593012 2.236068 1.161816 2.000462 1.581139 1.581139 
C 2.000462 1.161816 2.236068 0.593012 2.236068 -0 
C 2.236068 -0.593012 2.000462 -1.161816 1.581139 -1.581139 
C 1.161816 -2.000462 0.593012 -2.236068 0 -2.236068 
C -0.593012 -2.236068 -1.161816 -2.000462 -1.581139 -1.581139 
C -2.000462 -1.161816 -2.236068 -0.593012 -2.236068 0 
C -2.236068 0.593012 -2.000462 1.161816 -1.581139 1.581139 
C -1.161816 2.000462 -0.593012 2.236068 0 2.236068 
z
"/>
    </defs>
    <g clip-path="url(#pcf09be3170)">
     <use xlink:href="#C0_0_29062bcfcf" x="185.063624" y="175.691317" style="fill: #00b023; stroke: #00b023"/>
    </g>
    <g clip-path="url(#pcf09be3170)">
     <use xlink:href="#C0_0_29062bcfcf" x="188.581676" y="127.962946" style="fill: #00bd8c; stroke: #00bd8c"/>
    </g>
    <g clip-path="url(#pcf09be3170)">
     <use xlink:href="#C0_0_29062bcfcf" x="185.203087" y="189.60789" style="fill: #188925; stroke: #188925"/>
    </g>
    <g clip-path="url(#pcf09be3170)">
     <use xlink:href="#C0_0_29062bcfcf" x="174.380207" y="152.109206" style="fill: #00936e; stroke: #00936e"/>
    </g>
    <g clip-path="url(#pcf09be3170)">
     <use xlink:href="#C0_0_29062bcfcf" x="149.886199" y="219.598137" style="fill: #004900; stroke: #004900"/>
    </g>
    <g clip-path="url(#pcf09be3170)">
     <use xlink:href="#C0_0_29062bcfcf" x="151.651511" y="194.838198" style="fill: #005036; stroke: #005036"/>
    </g>
    <g clip-path="url(#pcf09be3170)">
     <use xlink:href="#C0_0_29062bcfcf" x="178.411125" y="101.487571" style="fill: #00a2da; stroke: #00a2da"/>
    </g>
    <g clip-path="url(#pcf09be3170)">
     <use xlink:href="#C0_0_29062bcfcf" x="166.845357" y="133.164872" style="fill: #007fa7; stroke: #007fa7"/>
    </g>
    <g clip-path="url(#pcf09be3170)">
     <use xlink:href="#C0_0_29062bcfcf" x="138.635192" y="229.028955" style="fill: #002a00; stroke: #002a00"/>
    </g>
    <g clip-path="url(#pcf09be3170)">
     <use xlink:href="#C0_0_29062bcfcf" x="283.018789" y="232.026911" style="fill: #c29000; stroke: #c29000"/>
    </g>
    <g clip-path="url(#pcf09be3170)">
     <use xlink:href="#C0_0_29062bcfcf" x="139.471035" y="214.917509" style="fill: #002d1f; stroke: #002d1f"/>
    </g>
    <g clip-path="url(#pcf09be3170)">
     <use xlink:href="#C0_0_29062bcfcf" x="235.022645" y="233.026518" style="fill: #846900; stroke: #846900"/>
    </g>
    <g clip-path="url(#pcf09be3170)">
     <use xlink:href="#C0_0_29062bcfcf" x="141.080729" y="198.672284" style="fill: #003341; stroke: #003341"/>
    </g>
    <g clip-path="url(#pcf09be3170)">
     <use xlink:href="#C0_0_29062bcfcf" x="145.607112" y="181.275064" style="fill: #004160; stroke: #004160"/>
    </g>
    <g clip-path="url(#pcf09be3170)">
     <use xlink:href="#C0_0_29062bcfcf" x="136.797318" y="207.587052" style="fill: #002735; stroke: #002735"/>
    </g>
    <g clip-path="url(#pcf09be3170)">
     <use xlink:href="#C0_0_29062bcfcf" x="136.323937" y="207.857715" style="fill: #002635; stroke: #002635"/>
    </g>
    <g clip-path="url(#pcf09be3170)">
     <use xlink:href="#C0_0_29062bcfcf" x="296.523022" y="121.416868" style="fill: #b0d6cb; stroke: #b0d6cb"/>
    </g>
    <g clip-path="url(#pcf09be3170)">
     <use xlink:href="#C0_0_29062bcfcf" x="303.346709" y="130.861649" style="fill: #bdd4bc; stroke: #bdd4bc"/>
    </g>
    <g clip-path="url(#pcf09be3170)">
     <use xlink:href="#C0_0_29062bcfcf" x="180.382432" y="239.663171" style="fill: #473000; stroke: #473000"/>
    </g>
    <g clip-path="url(#pcf09be3170)">
     <use xlink:href="#C0_0_29062bcfcf" x="155.987991" y="240.153817" style="fill: #281d00; stroke: #281d00"/>
    </g>
    <g clip-path="url(#pcf09be3170)">
     <use xlink:href="#C0_0_29062bcfcf" x="203.92378" y="173.650672" style="fill: #4d6b74; stroke: #4d6b74"/>
    </g>
    <g clip-path="url(#pcf09be3170)">
     <use xlink:href="#C0_0_29062bcfcf" x="215.583514" y="167.597052" style="fill: #5b777f; stroke: #5b777f"/>
    </g>
    <g clip-path="url(#pcf09be3170)">
     <use xlink:href="#C0_0_29062bcfcf" x="123.197291" y="241.969309" style="stroke: #000000"/>
    </g>
    <g clip-path="url(#pcf09be3170)">
     <use xlink:href="#C0_0_29062bcfcf" x="243.247183" y="160.111194" style="fill: #7e8d8e; stroke: #7e8d8e"/>
    </g>
    <g clip-path="url(#pcf09be3170)">
     <use xlink:href="#C0_0_29062bcfcf" x="254.930006" y="153.049182" style="fill: #8a9a9b; stroke: #8a9a9b"/>
    </g>
    <g clip-path="url(#pcf09be3170)">
     <use xlink:href="#C0_0_29062bcfcf" x="297.167303" y="116.830982" style="fill: #b3d1d9; stroke: #b3d1d9"/>
    </g>
    <g clip-path="url(#pcf09be3170)">
     <use xlink:href="#C0_0_29062bcfcf" x="173.516068" y="212.02943" style="fill: #383636; stroke: #383636"/>
    </g>
    <g clip-path="url(#pcf09be3170)">
     <use xlink:href="#C0_0_29062bcfcf" x="312.232935" y="139.247062" style="fill: #d0cbb5; stroke: #d0cbb5"/>
    </g>
    <g clip-path="url(#pcf09be3170)">
     <use xlink:href="#C0_0_29062bcfcf" x="227.043064" y="180.024047" style="fill: #727070; stroke: #727070"/>
    </g>
    <g clip-path="url(#pcf09be3170)">
     <use xlink:href="#C0_0_29062bcfcf" x="345.052198" y="118.189625" style="fill: #f5eddc; stroke: #f5eddc"/>
    </g>
    <g clip-path="url(#pcf09be3170)">
     <use xlink:href="#C0_0_29062bcfcf" x="286.681357" y="144.364537" style="fill: #b4b0b0; stroke: #b4b0b0"/>
    </g>
    <g clip-path="url(#pcf09be3170)">
     <use xlink:href="#C0_0_29062bcfcf" x="354.253082" y="112.621797" style="fill: #fff7e6; stroke: #fff7e6"/>
    </g>
    <g clip-path="url(#pcf09be3170)">
     <use xlink:href="#C0_0_29062bcfcf" x="357.122702" y="99.402171" style="fill: #ffffff; stroke: #ffffff"/>
    </g>
    <g clip-path="url(#pcf09be3170)">
     <use xlink:href="#C0_0_29062bcfcf" x="141.831455" y="213.699147" style="fill: #15153c; stroke: #15153c"/>
    </g>
    <g clip-path="url(#pcf09be3170)">
     <use xlink:href="#C0_0_29062bcfcf" x="157.183995" y="248.919523" style="fill: #370900; stroke: #370900"/>
    </g>
    <g clip-path="url(#pcf09be3170)">
     <use xlink:href="#C0_0_29062bcfcf" x="304.333676" y="119.665909" style="fill: #c4c8df; stroke: #c4c8df"/>
    </g>
    <g clip-path="url(#pcf09be3170)">
     <use xlink:href="#C0_0_29062bcfcf" x="317.776726" y="141.627905" style="fill: #dec2bb; stroke: #dec2bb"/>
    </g>
    <g clip-path="url(#pcf09be3170)">
     <use xlink:href="#C0_0_29062bcfcf" x="312.519383" y="127.979696" style="fill: #d6c0d8; stroke: #d6c0d8"/>
    </g>
    <g clip-path="url(#pcf09be3170)">
     <use xlink:href="#C0_0_29062bcfcf" x="317.584043" y="136.745611" style="fill: #e0bdc9; stroke: #e0bdc9"/>
    </g>
    <g clip-path="url(#pcf09be3170)">
     <use xlink:href="#C0_0_29062bcfcf" x="154.07965" y="240.178508" style="fill: #38001c; stroke: #38001c"/>
    </g>
    <g clip-path="url(#pcf09be3170)">
     <use xlink:href="#C0_0_29062bcfcf" x="153.661048" y="192.925985" style="fill: #271c6e; stroke: #271c6e"/>
    </g>
    <g clip-path="url(#pcf09be3170)">
     <use xlink:href="#C0_0_29062bcfcf" x="148.805453" y="228.630416" style="fill: #2e0231; stroke: #2e0231"/>
    </g>
    <g clip-path="url(#pcf09be3170)">
     <use xlink:href="#C0_0_29062bcfcf" x="177.654767" y="259.75512" style="fill: #600000; stroke: #600000"/>
    </g>
    <g clip-path="url(#pcf09be3170)">
     <use xlink:href="#C0_0_29062bcfcf" x="242.033162" y="236.440758" style="fill: #aa3d28; stroke: #aa3d28"/>
    </g>
    <g clip-path="url(#pcf09be3170)">
     <use xlink:href="#C0_0_29062bcfcf" x="202.246519" y="151.011866" style="fill: #5954ba; stroke: #5954ba"/>
    </g>
    <g clip-path="url(#pcf09be3170)">
     <use xlink:href="#C0_0_29062bcfcf" x="178.02021" y="238.960492" style="fill: #620031; stroke: #620031"/>
    </g>
    <g clip-path="url(#pcf09be3170)">
     <use xlink:href="#C0_0_29062bcfcf" x="274.169184" y="247.389634" style="fill: #df3e25; stroke: #df3e25"/>
    </g>
    <g clip-path="url(#pcf09be3170)">
     <use xlink:href="#C0_0_29062bcfcf" x="221.910966" y="123.863487" style="fill: #7164f5; stroke: #7164f5"/>
    </g>
    <g clip-path="url(#pcf09be3170)">
     <use xlink:href="#C0_0_29062bcfcf" x="167.942702" y="218.391565" style="fill: #510059; stroke: #510059"/>
    </g>
    <g clip-path="url(#pcf09be3170)">
     <use xlink:href="#C0_0_29062bcfcf" x="222.173995" y="186.698687" style="fill: #942a9e; stroke: #942a9e"/>
    </g>
    <g clip-path="url(#pcf09be3170)">
     <use xlink:href="#C0_0_29062bcfcf" x="231.884921" y="220.083789" style="fill: #ad1b68; stroke: #ad1b68"/>
    </g>
    <g clip-path="url(#pcf09be3170)">
     <use xlink:href="#C0_0_29062bcfcf" x="259.603147" y="217.381372" style="fill: #dc1884; stroke: #dc1884"/>
    </g>
    <g clip-path="url(#pcf09be3170)">
     <use xlink:href="#C0_0_29062bcfcf" x="244.964618" y="175.659668" style="fill: #bf20cd; stroke: #bf20cd"/>
    </g>
   </g>
  </g>
 </g>
 <defs>
  <clipPath id="pcf09be3170">
   <rect x="103.104" y="41.472" width="266.112" height="266.112"/>
  </clipPath>
 </defs>
</svg>
