<?xml version="1.0" encoding="utf-8" standalone="no"?>
<!DOCTYPE svg PUBLIC "-//W3C//DTD SVG 1.1//EN"
  "http://www.w3.org/Graphics/SVG/1.1/DTD/svg11.dtd">
<svg xmlns:xlink="http://www.w3.org/1999/xlink" width="460.8pt" height="345.6pt" viewBox="0 0 460.8 345.6" xmlns="http://www.w3.org/2000/svg" version="1.1">
 <metadata>
  <rdf:RDF xmlns:dc="http://purl.org/dc/elements/1.1/" xmlns:cc="http://creativecommons.org/ns#" xmlns:rdf="http://www.w3.org/1999/02/22-rdf-syntax-ns#">
   <cc:Work>
    <dc:type rdf:resource="http://purl.org/dc/dcmitype/StillImage"/>
    <dc:date>2024-06-03T12:47:07.901723</dc:date>
    <dc:format>image/svg+xml</dc:format>
    <dc:creator>
     <cc:Agent>
      <dc:title>Matplotlib v3.9.0, https://matplotlib.org/</dc:title>
     </cc:Agent>
    </dc:creator>
   </cc:Work>
  </rdf:RDF>
 </metadata>
 <defs>
  <style type="text/css">*{stroke-linejoin: round; stroke-linecap: butt}</style>
 </defs>
 <g id="figure_1">
  <g id="patch_1">
   <path d="M 0 345.6 
L 460.8 345.6 
L 460.8 0 
L 0 0 
z
" style="fill: #ffffff"/>
  </g>
  <g id="patch_2">
   <path d="M 103.104 307.584 
L 369.216 307.584 
L 369.216 41.472 
L 103.104 41.472 
z
" style="fill: #ffffff"/>
  </g>
  <g id="pane3d_1">
   <g id="patch_3">
    <path d="M 123.197291 241.969309 
L 211.076164 168.307495 
L 209.854564 62.073991 
L 117.770234 129.272941 
" style="fill: #f2f2f2; opacity: 0.5; stroke: #f2f2f2; stroke-linejoin: miter"/>
   </g>
  </g>
  <g id="pane3d_2">
   <g id="patch_4">
    <path d="M 211.076164 168.307495 
L 352.090401 209.294766 
L 357.122702 99.402171 
L 209.854564 62.073991 
" style="fill: #e6e6e6; opacity: 0.5; stroke: #e6e6e6; stroke-linejoin: miter"/>
   </g>
  </g>
  <g id="pane3d_3">
   <g id="patch_5">
    <path d="M 123.197291 241.969309 
L 272.679269 290.790123 
L 352.090401 209.294766 
L 211.076164 168.307495 
" style="fill: #ececec; opacity: 0.5; stroke: #ececec; stroke-linejoin: miter"/>
   </g>
  </g>
  <g id="grid3d_1">
   <g id="Line3DCollection_1">
    <path d="M 123.197291 241.969309 
L 211.076164 168.307495 
L 209.854564 62.073991 
" style="fill: none; stroke: #b0b0b0; stroke-width: 0.8"/>
    <path d="M 151.284689 251.142653 
L 237.667621 176.036581 
L 237.577797 69.101022 
" style="fill: none; stroke: #b0b0b0; stroke-width: 0.8"/>
    <path d="M 179.949562 260.504601 
L 264.760284 183.911349 
L 265.846264 76.266255 
" style="fill: none; stroke: #b0b0b0; stroke-width: 0.8"/>
    <path d="M 209.209907 270.061029 
L 292.368458 191.935955 
L 294.676208 83.573805 
" style="fill: none; stroke: #b0b0b0; stroke-width: 0.8"/>
    <path d="M 239.084471 279.818062 
L 320.506998 200.114718 
L 324.084526 91.027956 
" style="fill: none; stroke: #b0b0b0; stroke-width: 0.8"/>
    <path d="M 269.592802 289.782082 
L 349.191336 208.452123 
L 354.088799 98.633165 
" style="fill: none; stroke: #b0b0b0; stroke-width: 0.8"/>
   </g>
  </g>
  <g id="grid3d_2">
   <g id="Line3DCollection_2">
    <path d="M 117.770234 129.272941 
L 123.197291 241.969309 
L 272.679269 290.790123 
" style="fill: none; stroke: #b0b0b0; stroke-width: 0.8"/>
    <path d="M 137.153441 115.127959 
L 141.639881 226.510365 
L 289.402998 273.627462 
" style="fill: none; stroke: #b0b0b0; stroke-width: 0.8"/>
    <path d="M 155.853747 101.481327 
L 159.460641 211.57265 
L 305.533401 257.073701 
" style="fill: none; stroke: #b0b0b0; stroke-width: 0.8"/>
    <path d="M 173.906617 88.307165 
L 176.690501 197.13024 
L 321.101502 241.096999 
" style="fill: none; stroke: #b0b0b0; stroke-width: 0.8"/>
    <path d="M 191.345101 75.581354 
L 193.35837 183.158902 
L 336.1362 225.667701 
" style="fill: none; stroke: #b0b0b0; stroke-width: 0.8"/>
    <path d="M 208.200039 63.281388 
L 209.491303 169.635957 
L 350.664447 210.758145 
" style="fill: none; stroke: #b0b0b0; stroke-width: 0.8"/>
   </g>
  </g>
  <g id="grid3d_3">
   <g id="Line3DCollection_3">
    <path d="M 352.090401 209.294766 
L 211.076164 168.307495 
L 123.197291 241.969309 
" style="fill: none; stroke: #b0b0b0; stroke-width: 0.8"/>
    <path d="M 353.042826 188.496231 
L 210.844565 148.167054 
L 122.171557 220.669267 
" style="fill: none; stroke: #b0b0b0; stroke-width: 0.8"/>
    <path d="M 354.01154 167.342 
L 210.609196 127.698685 
L 121.127609 198.991009 
" style="fill: none; stroke: #b0b0b0; stroke-width: 0.8"/>
    <path d="M 354.996963 145.822869 
L 210.369962 106.894312 
L 120.064958 176.924372 
" style="fill: none; stroke: #b0b0b0; stroke-width: 0.8"/>
    <path d="M 355.999532 123.929315 
L 210.126768 85.745595 
L 118.983096 154.458825 
" style="fill: none; stroke: #b0b0b0; stroke-width: 0.8"/>
    <path d="M 357.019699 101.65148 
L 209.879516 64.243913 
L 117.8815 131.583451 
" style="fill: none; stroke: #b0b0b0; stroke-width: 0.8"/>
   </g>
  </g>
  <g id="axis3d_1">
   <g id="line2d_1">
    <path d="M 123.197291 241.969309 
L 272.679269 290.790123 
" style="fill: none; stroke: #000000; stroke-width: 0.8; stroke-linecap: square"/>
   </g>
   <g id="xtick_1">
    <g id="line2d_2">
     <path d="M 123.962332 241.328036 
L 121.663937 243.254597 
" style="fill: none; stroke: #000000; stroke-width: 0.8; stroke-linecap: square"/>
    </g>
    <g id="text_1">
     <!-- 0 -->
     <g transform="translate(112.478153 265.215952) scale(0.1 -0.1)">
      <defs>
       <path id="DejaVuSans-30" d="M 2034 4250 
Q 1547 4250 1301 3770 
Q 1056 3291 1056 2328 
Q 1056 1369 1301 889 
Q 1547 409 2034 409 
Q 2525 409 2770 889 
Q 3016 1369 3016 2328 
Q 3016 3291 2770 3770 
Q 2525 4250 2034 4250 
z
M 2034 4750 
Q 2819 4750 3233 4129 
Q 3647 3509 3647 2328 
Q 3647 1150 3233 529 
Q 2819 -91 2034 -91 
Q 1250 -91 836 529 
Q 422 1150 422 2328 
Q 422 3509 836 4129 
Q 1250 4750 2034 4750 
z
" transform="scale(0.015625)"/>
      </defs>
      <use xlink:href="#DejaVuSans-30"/>
     </g>
    </g>
   </g>
   <g id="xtick_2">
    <g id="line2d_3">
     <path d="M 152.037326 250.488268 
L 149.776161 252.45425 
" style="fill: none; stroke: #000000; stroke-width: 0.8; stroke-linecap: square"/>
    </g>
    <g id="text_2">
     <!-- 50 -->
     <g transform="translate(137.412441 274.583454) scale(0.1 -0.1)">
      <defs>
       <path id="DejaVuSans-35" d="M 691 4666 
L 3169 4666 
L 3169 4134 
L 1269 4134 
L 1269 2991 
Q 1406 3038 1543 3061 
Q 1681 3084 1819 3084 
Q 2600 3084 3056 2656 
Q 3513 2228 3513 1497 
Q 3513 744 3044 326 
Q 2575 -91 1722 -91 
Q 1428 -91 1123 -41 
Q 819 9 494 109 
L 494 744 
Q 775 591 1075 516 
Q 1375 441 1709 441 
Q 2250 441 2565 725 
Q 2881 1009 2881 1497 
Q 2881 1984 2565 2268 
Q 2250 2553 1709 2553 
Q 1456 2553 1204 2497 
Q 953 2441 691 2322 
L 691 4666 
z
" transform="scale(0.015625)"/>
      </defs>
      <use xlink:href="#DejaVuSans-35"/>
      <use xlink:href="#DejaVuSans-30" x="63.623047"/>
     </g>
    </g>
   </g>
   <g id="xtick_3">
    <g id="line2d_4">
     <path d="M 180.689123 259.836698 
L 178.467213 261.843322 
" style="fill: none; stroke: #000000; stroke-width: 0.8; stroke-linecap: square"/>
    </g>
    <g id="text_3">
     <!-- 100 -->
     <g transform="translate(162.926969 284.144279) scale(0.1 -0.1)">
      <defs>
       <path id="DejaVuSans-31" d="M 794 531 
L 1825 531 
L 1825 4091 
L 703 3866 
L 703 4441 
L 1819 4666 
L 2450 4666 
L 2450 531 
L 3481 531 
L 3481 0 
L 794 0 
L 794 531 
z
" transform="scale(0.015625)"/>
      </defs>
      <use xlink:href="#DejaVuSans-31"/>
      <use xlink:href="#DejaVuSans-30" x="63.623047"/>
      <use xlink:href="#DejaVuSans-30" x="127.246094"/>
     </g>
    </g>
   </g>
   <g id="xtick_4">
    <g id="line2d_5">
     <path d="M 209.935681 269.379184 
L 207.755156 271.427725 
" style="fill: none; stroke: #000000; stroke-width: 0.8; stroke-linecap: square"/>
    </g>
    <g id="text_4">
     <!-- 150 -->
     <g transform="translate(192.221138 293.904475) scale(0.1 -0.1)">
      <use xlink:href="#DejaVuSans-31"/>
      <use xlink:href="#DejaVuSans-35" x="63.623047"/>
      <use xlink:href="#DejaVuSans-30" x="127.246094"/>
     </g>
    </g>
   </g>
   <g id="xtick_5">
    <g id="line2d_6">
     <path d="M 239.795716 279.121834 
L 237.658812 281.213619 
" style="fill: none; stroke: #000000; stroke-width: 0.8; stroke-linecap: square"/>
    </g>
    <g id="text_5">
     <!-- 200 -->
     <g transform="translate(222.132612 303.870345) scale(0.1 -0.1)">
      <defs>
       <path id="DejaVuSans-32" d="M 1228 531 
L 3431 531 
L 3431 0 
L 469 0 
L 469 531 
Q 828 903 1448 1529 
Q 2069 2156 2228 2338 
Q 2531 2678 2651 2914 
Q 2772 3150 2772 3378 
Q 2772 3750 2511 3984 
Q 2250 4219 1831 4219 
Q 1534 4219 1204 4116 
Q 875 4013 500 3803 
L 500 4441 
Q 881 4594 1212 4672 
Q 1544 4750 1819 4750 
Q 2544 4750 2975 4387 
Q 3406 4025 3406 3419 
Q 3406 3131 3298 2873 
Q 3191 2616 2906 2266 
Q 2828 2175 2409 1742 
Q 1991 1309 1228 531 
z
" transform="scale(0.015625)"/>
      </defs>
      <use xlink:href="#DejaVuSans-32"/>
      <use xlink:href="#DejaVuSans-30" x="63.623047"/>
      <use xlink:href="#DejaVuSans-30" x="127.246094"/>
     </g>
    </g>
   </g>
   <g id="xtick_6">
    <g id="line2d_7">
     <path d="M 270.288734 289.071012 
L 268.197803 291.207425 
" style="fill: none; stroke: #000000; stroke-width: 0.8; stroke-linecap: square"/>
    </g>
    <g id="text_6">
     <!-- 250 -->
     <g transform="translate(252.681111 314.048457) scale(0.1 -0.1)">
      <use xlink:href="#DejaVuSans-32"/>
      <use xlink:href="#DejaVuSans-35" x="63.623047"/>
      <use xlink:href="#DejaVuSans-30" x="127.246094"/>
     </g>
    </g>
   </g>
  </g>
  <g id="axis3d_2">
   <g id="line2d_8">
    <path d="M 352.090401 209.294766 
L 272.679269 290.790123 
" style="fill: none; stroke: #000000; stroke-width: 0.8; stroke-linecap: square"/>
   </g>
   <g id="xtick_7">
    <g id="line2d_9">
     <path d="M 271.419199 290.378584 
L 275.202687 291.614271 
" style="fill: none; stroke: #000000; stroke-width: 0.8; stroke-linecap: square"/>
    </g>
    <g id="text_7">
     <!-- 0 -->
     <g transform="translate(282.452273 311.89542) scale(0.1 -0.1)">
      <use xlink:href="#DejaVuSans-30"/>
     </g>
    </g>
   </g>
   <g id="xtick_8">
    <g id="line2d_10">
     <path d="M 288.158564 273.23065 
L 291.895047 274.4221 
" style="fill: none; stroke: #000000; stroke-width: 0.8; stroke-linecap: square"/>
    </g>
    <g id="text_8">
     <!-- 50 -->
     <g transform="translate(295.770559 294.478538) scale(0.1 -0.1)">
      <use xlink:href="#DejaVuSans-35"/>
      <use xlink:href="#DejaVuSans-30" x="63.623047"/>
     </g>
    </g>
   </g>
   <g id="xtick_9">
    <g id="line2d_11">
     <path d="M 304.304295 256.690839 
L 307.994698 257.840384 
" style="fill: none; stroke: #000000; stroke-width: 0.8; stroke-linecap: square"/>
    </g>
    <g id="text_9">
     <!-- 100 -->
     <g transform="translate(308.503132 277.679933) scale(0.1 -0.1)">
      <use xlink:href="#DejaVuSans-31"/>
      <use xlink:href="#DejaVuSans-30" x="63.623047"/>
      <use xlink:href="#DejaVuSans-30" x="127.246094"/>
     </g>
    </g>
   </g>
   <g id="xtick_10">
    <g id="line2d_12">
     <path d="M 319.887421 240.727365 
L 323.532658 241.837179 
" style="fill: none; stroke: #000000; stroke-width: 0.8; stroke-linecap: square"/>
    </g>
    <g id="text_10">
     <!-- 150 -->
     <g transform="translate(323.861887 261.467258) scale(0.1 -0.1)">
      <use xlink:href="#DejaVuSans-31"/>
      <use xlink:href="#DejaVuSans-35" x="63.623047"/>
      <use xlink:href="#DejaVuSans-30" x="127.246094"/>
     </g>
    </g>
   </g>
   <g id="xtick_11">
    <g id="line2d_13">
     <path d="M 334.936845 225.31062 
L 338.537818 226.382727 
" style="fill: none; stroke: #000000; stroke-width: 0.8; stroke-linecap: square"/>
    </g>
    <g id="text_11">
     <!-- 200 -->
     <g transform="translate(338.694117 245.810382) scale(0.1 -0.1)">
      <use xlink:href="#DejaVuSans-32"/>
      <use xlink:href="#DejaVuSans-30" x="63.623047"/>
      <use xlink:href="#DejaVuSans-30" x="127.246094"/>
     </g>
    </g>
   </g>
   <g id="xtick_12">
    <g id="line2d_14">
     <path d="M 349.479522 210.41299 
L 353.03712 211.449279 
" style="fill: none; stroke: #000000; stroke-width: 0.8; stroke-linecap: square"/>
    </g>
    <g id="text_12">
     <!-- 250 -->
     <g transform="translate(353.02644 230.681207) scale(0.1 -0.1)">
      <use xlink:href="#DejaVuSans-32"/>
      <use xlink:href="#DejaVuSans-35" x="63.623047"/>
      <use xlink:href="#DejaVuSans-30" x="127.246094"/>
     </g>
    </g>
   </g>
  </g>
  <g id="axis3d_3">
   <g id="line2d_15">
    <path d="M 352.090401 209.294766 
L 357.122702 99.402171 
" style="fill: none; stroke: #000000; stroke-width: 0.8; stroke-linecap: square"/>
   </g>
   <g id="xtick_13">
    <g id="line2d_16">
     <path d="M 350.906903 208.95077 
L 354.460211 209.983577 
" style="fill: none; stroke: #000000; stroke-width: 0.8; stroke-linecap: square"/>
    </g>
    <g id="text_13">
     <!-- 0 -->
     <g transform="translate(367.15779 214.288206) scale(0.1 -0.1)">
      <use xlink:href="#DejaVuSans-30"/>
     </g>
    </g>
   </g>
   <g id="xtick_14">
    <g id="line2d_17">
     <path d="M 351.848917 188.157624 
L 355.433506 189.174257 
" style="fill: none; stroke: #000000; stroke-width: 0.8; stroke-linecap: square"/>
    </g>
    <g id="text_14">
     <!-- 50 -->
     <g transform="translate(365.080339 193.530537) scale(0.1 -0.1)">
      <use xlink:href="#DejaVuSans-35"/>
      <use xlink:href="#DejaVuSans-30" x="63.623047"/>
     </g>
    </g>
   </g>
   <g id="xtick_15">
    <g id="line2d_18">
     <path d="M 352.807036 167.009017 
L 356.42346 168.008771 
" style="fill: none; stroke: #000000; stroke-width: 0.8; stroke-linecap: square"/>
    </g>
    <g id="text_15">
     <!-- 100 -->
     <g transform="translate(363.021707 172.418953) scale(0.1 -0.1)">
      <use xlink:href="#DejaVuSans-31"/>
      <use xlink:href="#DejaVuSans-30" x="63.623047"/>
      <use xlink:href="#DejaVuSans-30" x="127.246094"/>
     </g>
    </g>
   </g>
   <g id="xtick_16">
    <g id="line2d_19">
     <path d="M 353.781675 145.495756 
L 357.430504 146.477894 
" style="fill: none; stroke: #000000; stroke-width: 0.8; stroke-linecap: square"/>
    </g>
    <g id="text_16">
     <!-- 150 -->
     <g transform="translate(364.16363 150.944325) scale(0.1 -0.1)">
      <use xlink:href="#DejaVuSans-31"/>
      <use xlink:href="#DejaVuSans-35" x="63.623047"/>
      <use xlink:href="#DejaVuSans-30" x="127.246094"/>
     </g>
    </g>
   </g>
   <g id="xtick_17">
    <g id="line2d_20">
     <path d="M 354.773265 123.608327 
L 358.455085 124.572081 
" style="fill: none; stroke: #000000; stroke-width: 0.8; stroke-linecap: square"/>
    </g>
    <g id="text_17">
     <!-- 200 -->
     <g transform="translate(365.325361 129.097208) scale(0.1 -0.1)">
      <use xlink:href="#DejaVuSans-32"/>
      <use xlink:href="#DejaVuSans-30" x="63.623047"/>
      <use xlink:href="#DejaVuSans-30" x="127.246094"/>
     </g>
    </g>
   </g>
   <g id="xtick_18">
    <g id="line2d_21">
     <path d="M 355.782253 101.336883 
L 359.497664 102.281455 
" style="fill: none; stroke: #000000; stroke-width: 0.8; stroke-linecap: square"/>
    </g>
    <g id="text_18">
     <!-- 250 -->
     <g transform="translate(366.507419 106.867824) scale(0.1 -0.1)">
      <use xlink:href="#DejaVuSans-32"/>
      <use xlink:href="#DejaVuSans-35" x="63.623047"/>
      <use xlink:href="#DejaVuSans-30" x="127.246094"/>
     </g>
    </g>
   </g>
  </g>
  <g id="axes_1">
   <g id="line2d_22">
    <path d="M 156.607641 252.208677 
L 181.505302 261.012705 
" clip-path="url(#pc7f3f7bfb8)" style="fill: none; stroke: #670000; stroke-opacity: 0.25; stroke-width: 1.5; stroke-linecap: square"/>
   </g>
   <g id="line2d_23">
    <path d="M 181.505302 261.012705 
L 241.520171 253.684262 
" clip-path="url(#pc7f3f7bfb8)" style="fill: none; stroke: #b42a13; stroke-opacity: 0.25; stroke-width: 1.5; stroke-linecap: square"/>
   </g>
   <g id="line2d_24">
    <path d="M 241.520171 253.684262 
L 300.32661 239.473517 
" clip-path="url(#pc7f3f7bfb8)" style="fill: none; stroke: #ff5236; stroke-opacity: 0.25; stroke-width: 1.5; stroke-linecap: square"/>
   </g>
   <g id="line2d_25">
    <path d="M 300.32661 239.473517 
L 342.829871 137.257245 
" clip-path="url(#pc7f3f7bfb8)" style="fill: none; stroke: #ffd3c5; stroke-opacity: 0.25; stroke-width: 1.5; stroke-linecap: square"/>
   </g>
   <g id="line2d_26">
    <path d="M 342.829871 137.257245 
L 156.607641 252.208677 
" clip-path="url(#pc7f3f7bfb8)" style="fill: none; stroke: #ffd3c5; stroke-opacity: 0.25; stroke-width: 1.5; stroke-linecap: square"/>
   </g>
   <g id="line2d_27">
    <path d="M 156.797003 240.824963 
L 181.651686 241.128576 
" clip-path="url(#pc7f3f7bfb8)" style="fill: none; stroke: #4a2e00; stroke-opacity: 0.25; stroke-width: 1.5; stroke-linecap: square"/>
   </g>
   <g id="line2d_28">
    <path d="M 181.651686 241.128576 
L 237.850118 235.089453 
" clip-path="url(#pc7f3f7bfb8)" style="fill: none; stroke: #8b6600; stroke-opacity: 0.25; stroke-width: 1.5; stroke-linecap: square"/>
   </g>
   <g id="line2d_29">
    <path d="M 237.850118 235.089453 
L 317.000694 229.66669 
" clip-path="url(#pc7f3f7bfb8)" style="fill: none; stroke: #ebaf00; stroke-opacity: 0.25; stroke-width: 1.5; stroke-linecap: square"/>
   </g>
   <g id="line2d_30">
    <path d="M 317.000694 229.66669 
L 338.533577 134.66156 
" clip-path="url(#pc7f3f7bfb8)" style="fill: none; stroke: #efe5ba; stroke-opacity: 0.25; stroke-width: 1.5; stroke-linecap: square"/>
   </g>
   <g id="line2d_31">
    <path d="M 338.533577 134.66156 
L 156.797003 240.824963 
" clip-path="url(#pc7f3f7bfb8)" style="fill: none; stroke: #efe5ba; stroke-opacity: 0.25; stroke-width: 1.5; stroke-linecap: square"/>
   </g>
   <g id="line2d_32">
    <path d="M 139.299499 228.472119 
L 150.967929 218.69141 
" clip-path="url(#pc7f3f7bfb8)" style="fill: none; stroke: #004c00; stroke-opacity: 0.25; stroke-width: 1.5; stroke-linecap: square"/>
   </g>
   <g id="line2d_33">
    <path d="M 150.967929 218.69141 
L 173.870779 199.493787 
" clip-path="url(#pc7f3f7bfb8)" style="fill: none; stroke: #008e00; stroke-opacity: 0.25; stroke-width: 1.5; stroke-linecap: square"/>
   </g>
   <g id="line2d_34">
    <path d="M 173.870779 199.493787 
L 199.211684 178.252538 
" clip-path="url(#pc7f3f7bfb8)" style="fill: none; stroke: #00da00; stroke-opacity: 0.25; stroke-width: 1.5; stroke-linecap: square"/>
   </g>
   <g id="line2d_35">
    <path d="M 199.211684 178.252538 
L 320.888908 118.661028 
" clip-path="url(#pc7f3f7bfb8)" style="fill: none; stroke: #c9f5c7; stroke-opacity: 0.25; stroke-width: 1.5; stroke-linecap: square"/>
   </g>
   <g id="line2d_36">
    <path d="M 320.888908 118.661028 
L 139.299499 228.472119 
" clip-path="url(#pc7f3f7bfb8)" style="fill: none; stroke: #c9f5c7; stroke-opacity: 0.25; stroke-width: 1.5; stroke-linecap: square"/>
   </g>
   <g id="line2d_37">
    <path d="M 140.414362 214.017713 
L 153.274151 193.289254 
" clip-path="url(#pc7f3f7bfb8)" style="fill: none; stroke: #005536; stroke-opacity: 0.25; stroke-width: 1.5; stroke-linecap: square"/>
   </g>
   <g id="line2d_38">
    <path d="M 153.274151 193.289254 
L 176.649001 150.01922 
" clip-path="url(#pc7f3f7bfb8)" style="fill: none; stroke: #00996f; stroke-opacity: 0.25; stroke-width: 1.5; stroke-linecap: square"/>
   </g>
   <g id="line2d_39">
    <path d="M 176.649001 150.01922 
L 204.066663 102.560757 
" clip-path="url(#pc7f3f7bfb8)" style="fill: none; stroke: #00ecac; stroke-opacity: 0.25; stroke-width: 1.5; stroke-linecap: square"/>
   </g>
   <g id="line2d_40">
    <path d="M 204.066663 102.560757 
L 305.988264 100.155143 
" clip-path="url(#pc7f3f7bfb8)" style="fill: none; stroke: #adf9e5; stroke-opacity: 0.25; stroke-width: 1.5; stroke-linecap: square"/>
   </g>
   <g id="line2d_41">
    <path d="M 305.988264 100.155143 
L 140.414362 214.017713 
" clip-path="url(#pc7f3f7bfb8)" style="fill: none; stroke: #adf9e5; stroke-opacity: 0.25; stroke-width: 1.5; stroke-linecap: square"/>
   </g>
   <g id="line2d_42">
    <path d="M 136.608821 205.621482 
L 145.822261 177.106656 
" clip-path="url(#pc7f3f7bfb8)" style="fill: none; stroke: #004269; stroke-opacity: 0.25; stroke-width: 1.5; stroke-linecap: square"/>
   </g>
   <g id="line2d_43">
    <path d="M 145.822261 177.106656 
L 167.419112 127.223082 
" clip-path="url(#pc7f3f7bfb8)" style="fill: none; stroke: #0081b3; stroke-opacity: 0.25; stroke-width: 1.5; stroke-linecap: square"/>
   </g>
   <g id="line2d_44">
    <path d="M 167.419112 127.223082 
L 190.498224 76.199366 
" clip-path="url(#pc7f3f7bfb8)" style="fill: none; stroke: #00c6ff; stroke-opacity: 0.25; stroke-width: 1.5; stroke-linecap: square"/>
   </g>
   <g id="line2d_45">
    <path d="M 190.498224 76.199366 
L 308.144474 92.050534 
" clip-path="url(#pc7f3f7bfb8)" style="fill: none; stroke: #b5f0ff; stroke-opacity: 0.25; stroke-width: 1.5; stroke-linecap: square"/>
   </g>
   <g id="line2d_46">
    <path d="M 308.144474 92.050534 
L 136.608821 205.621482 
" clip-path="url(#pc7f3f7bfb8)" style="fill: none; stroke: #b5f0ff; stroke-opacity: 0.25; stroke-width: 1.5; stroke-linecap: square"/>
   </g>
   <g id="line2d_47">
    <path d="M 139.692419 212.231204 
L 146.324459 193.513804 
" clip-path="url(#pc7f3f7bfb8)" style="fill: none; stroke: #27097a; stroke-opacity: 0.25; stroke-width: 1.5; stroke-linecap: square"/>
   </g>
   <g id="line2d_48">
    <path d="M 146.324459 193.513804 
L 197.34742 146.706295 
" clip-path="url(#pc7f3f7bfb8)" style="fill: none; stroke: #5849cb; stroke-opacity: 0.25; stroke-width: 1.5; stroke-linecap: square"/>
   </g>
   <g id="line2d_49">
    <path d="M 197.34742 146.706295 
L 239.12534 122.12611 
" clip-path="url(#pc7f3f7bfb8)" style="fill: none; stroke: #8b69ff; stroke-opacity: 0.25; stroke-width: 1.5; stroke-linecap: square"/>
   </g>
   <g id="line2d_50">
    <path d="M 239.12534 122.12611 
L 323.558348 102.25228 
" clip-path="url(#pc7f3f7bfb8)" style="fill: none; stroke: #d8deff; stroke-opacity: 0.25; stroke-width: 1.5; stroke-linecap: square"/>
   </g>
   <g id="line2d_51">
    <path d="M 323.558348 102.25228 
L 139.692419 212.231204 
" clip-path="url(#pc7f3f7bfb8)" style="fill: none; stroke: #d8deff; stroke-opacity: 0.25; stroke-width: 1.5; stroke-linecap: square"/>
   </g>
   <g id="line2d_52">
    <path d="M 149.894499 227.89246 
L 171.153362 215.780276 
" clip-path="url(#pc7f3f7bfb8)" style="fill: none; stroke: #570061; stroke-opacity: 0.25; stroke-width: 1.5; stroke-linecap: square"/>
   </g>
   <g id="line2d_53">
    <path d="M 171.153362 215.780276 
L 211.266227 196.581696 
" clip-path="url(#pc7f3f7bfb8)" style="fill: none; stroke: #9b00a8; stroke-opacity: 0.25; stroke-width: 1.5; stroke-linecap: square"/>
   </g>
   <g id="line2d_54">
    <path d="M 211.266227 196.581696 
L 264.924651 171.408517 
" clip-path="url(#pc7f3f7bfb8)" style="fill: none; stroke: #f100ff; stroke-opacity: 0.25; stroke-width: 1.5; stroke-linecap: square"/>
   </g>
   <g id="line2d_55">
    <path d="M 264.924651 171.408517 
L 339.407228 112.693179 
" clip-path="url(#pc7f3f7bfb8)" style="fill: none; stroke: #facefe; stroke-opacity: 0.25; stroke-width: 1.5; stroke-linecap: square"/>
   </g>
   <g id="line2d_56">
    <path d="M 339.407228 112.693179 
L 149.894499 227.89246 
" clip-path="url(#pc7f3f7bfb8)" style="fill: none; stroke: #facefe; stroke-opacity: 0.25; stroke-width: 1.5; stroke-linecap: square"/>
   </g>
   <g id="line2d_57">
    <path d="M 156.588498 241.118607 
L 182.410249 240.607149 
" clip-path="url(#pc7f3f7bfb8)" style="fill: none; stroke: #690030; stroke-opacity: 0.25; stroke-width: 1.5; stroke-linecap: square"/>
   </g>
   <g id="line2d_58">
    <path d="M 182.410249 240.607149 
L 228.243224 230.962007 
" clip-path="url(#pc7f3f7bfb8)" style="fill: none; stroke: #b60067; stroke-opacity: 0.25; stroke-width: 1.5; stroke-linecap: square"/>
   </g>
   <g id="line2d_59">
    <path d="M 228.243224 230.962007 
L 273.674028 219.133318 
" clip-path="url(#pc7f3f7bfb8)" style="fill: none; stroke: #ff009f; stroke-opacity: 0.25; stroke-width: 1.5; stroke-linecap: square"/>
   </g>
   <g id="line2d_60">
    <path d="M 273.674028 219.133318 
L 340.374634 127.543327 
" clip-path="url(#pc7f3f7bfb8)" style="fill: none; stroke: #ffc9e1; stroke-opacity: 0.25; stroke-width: 1.5; stroke-linecap: square"/>
   </g>
   <g id="line2d_61">
    <path d="M 340.374634 127.543327 
L 156.588498 241.118607 
" clip-path="url(#pc7f3f7bfb8)" style="fill: none; stroke: #ffc9e1; stroke-opacity: 0.25; stroke-width: 1.5; stroke-linecap: square"/>
   </g>
   <g id="line2d_62">
    <path d="M 136.797318 207.587052 
L 141.080729 198.672284 
" clip-path="url(#pc7f3f7bfb8)" style="fill: none; stroke: #003341; stroke-opacity: 0.25; stroke-width: 1.5; stroke-linecap: square"/>
   </g>
   <g id="line2d_63">
    <path d="M 141.080729 198.672284 
L 203.92378 173.650672 
" clip-path="url(#pc7f3f7bfb8)" style="fill: none; stroke: #4d6b74; stroke-opacity: 0.25; stroke-width: 1.5; stroke-linecap: square"/>
   </g>
   <g id="line2d_64">
    <path d="M 203.92378 173.650672 
L 215.583514 167.597052 
" clip-path="url(#pc7f3f7bfb8)" style="fill: none; stroke: #5b777f; stroke-opacity: 0.25; stroke-width: 1.5; stroke-linecap: square"/>
   </g>
   <g id="line2d_65">
    <path d="M 215.583514 167.597052 
L 243.247183 160.111194 
" clip-path="url(#pc7f3f7bfb8)" style="fill: none; stroke: #7e8d8e; stroke-opacity: 0.25; stroke-width: 1.5; stroke-linecap: square"/>
   </g>
   <g id="line2d_66">
    <path d="M 243.247183 160.111194 
L 254.930006 153.049182 
" clip-path="url(#pc7f3f7bfb8)" style="fill: none; stroke: #8a9a9b; stroke-opacity: 0.25; stroke-width: 1.5; stroke-linecap: square"/>
   </g>
   <g id="line2d_67">
    <path d="M 254.930006 153.049182 
L 345.052198 118.189625 
" clip-path="url(#pc7f3f7bfb8)" style="fill: none; stroke: #f5eddc; stroke-opacity: 0.25; stroke-width: 1.5; stroke-linecap: square"/>
   </g>
   <g id="line2d_68">
    <path d="M 345.052198 118.189625 
L 354.253082 112.621797 
" clip-path="url(#pc7f3f7bfb8)" style="fill: none; stroke: #fff7e6; stroke-opacity: 0.25; stroke-width: 1.5; stroke-linecap: square"/>
   </g>
   <g id="line2d_69">
    <path d="M 354.253082 112.621797 
L 136.797318 207.587052 
" clip-path="url(#pc7f3f7bfb8)" style="fill: none; stroke: #fff7e6; stroke-opacity: 0.25; stroke-width: 1.5; stroke-linecap: square"/>
   </g>
   <g id="line2d_70">
    <path d="M 123.197291 241.969309 
L 173.516068 212.02943 
" clip-path="url(#pc7f3f7bfb8)" style="fill: none; stroke: #383636; stroke-opacity: 0.25; stroke-width: 1.5; stroke-linecap: square"/>
   </g>
   <g id="line2d_71">
    <path d="M 173.516068 212.02943 
L 227.043064 180.024047 
" clip-path="url(#pc7f3f7bfb8)" style="fill: none; stroke: #727070; stroke-opacity: 0.25; stroke-width: 1.5; stroke-linecap: square"/>
   </g>
   <g id="line2d_72">
    <path d="M 227.043064 180.024047 
L 286.681357 144.364537 
" clip-path="url(#pc7f3f7bfb8)" style="fill: none; stroke: #b4b0b0; stroke-opacity: 0.25; stroke-width: 1.5; stroke-linecap: square"/>
   </g>
   <g id="line2d_73">
    <path d="M 286.681357 144.364537 
L 357.122702 99.402171 
" clip-path="url(#pc7f3f7bfb8)" style="fill: none; stroke: #ffffff; stroke-opacity: 0.25; stroke-width: 1.5; stroke-linecap: square"/>
   </g>
   <g id="line2d_74">
    <path d="M 357.122702 99.402171 
L 123.197291 241.969309 
" clip-path="url(#pc7f3f7bfb8)" style="fill: none; stroke: #ffffff; stroke-opacity: 0.25; stroke-width: 1.5; stroke-linecap: square"/>
   </g>
   <g id="Path3DCollection_1">
    <defs>
     <path id="C0_0_7cdd596986" d="M 0 2.236068 
C 0.593012 2.236068 1.161816 2.000462 1.581139 1.581139 
C 2.000462 1.161816 2.236068 0.593012 2.236068 -0 
C 2.236068 -0.593012 2.000462 -1.161816 1.581139 -1.581139 
C 1.161816 -2.000462 0.593012 -2.236068 0 -2.236068 
C -0.593012 -2.236068 -1.161816 -2.000462 -1.581139 -1.581139 
C -2.000462 -1.161816 -2.236068 -0.593012 -2.236068 0 
C -2.236068 0.593012 -2.000462 1.161816 -1.581139 1.581139 
C -1.161816 2.000462 -0.593012 2.236068 0 2.236068 
z
"/>
    </defs>
    <g clip-path="url(#pc7f3f7bfb8)">
     <use xlink:href="#C0_0_7cdd596986" x="204.066663" y="102.560757" style="fill: #00ecac; stroke: #00ecac"/>
    </g>
    <g clip-path="url(#pc7f3f7bfb8)">
     <use xlink:href="#C0_0_7cdd596986" x="176.649001" y="150.01922" style="fill: #00996f; stroke: #00996f"/>
    </g>
    <g clip-path="url(#pc7f3f7bfb8)">
     <use xlink:href="#C0_0_7cdd596986" x="153.274151" y="193.289254" style="fill: #005536; stroke: #005536"/>
    </g>
    <g clip-path="url(#pc7f3f7bfb8)">
     <use xlink:href="#C0_0_7cdd596986" x="305.988264" y="100.155143" style="fill: #adf9e5; stroke: #adf9e5"/>
    </g>
    <g clip-path="url(#pc7f3f7bfb8)">
     <use xlink:href="#C0_0_7cdd596986" x="140.414362" y="214.017713" style="fill: #00301f; stroke: #00301f"/>
    </g>
   </g>
   <g id="Path3DCollection_2">
    <defs>
     <path id="C1_0_12b4613d27" d="M 0 2.236068 
C 0.593012 2.236068 1.161816 2.000462 1.581139 1.581139 
C 2.000462 1.161816 2.236068 0.593012 2.236068 -0 
C 2.236068 -0.593012 2.000462 -1.161816 1.581139 -1.581139 
C 1.161816 -2.000462 0.593012 -2.236068 0 -2.236068 
C -0.593012 -2.236068 -1.161816 -2.000462 -1.581139 -1.581139 
C -2.000462 -1.161816 -2.236068 -0.593012 -2.236068 0 
C -2.236068 0.593012 -2.000462 1.161816 -1.581139 1.581139 
C -1.161816 2.000462 -0.593012 2.236068 0 2.236068 
z
"/>
    </defs>
    <g clip-path="url(#pc7f3f7bfb8)">
     <use xlink:href="#C1_0_12b4613d27" x="199.211684" y="178.252538" style="fill: #00da00; stroke: #00da00"/>
    </g>
    <g clip-path="url(#pc7f3f7bfb8)">
     <use xlink:href="#C1_0_12b4613d27" x="173.870779" y="199.493787" style="fill: #008e00; stroke: #008e00"/>
    </g>
    <g clip-path="url(#pc7f3f7bfb8)">
     <use xlink:href="#C1_0_12b4613d27" x="150.967929" y="218.69141" style="fill: #004c00; stroke: #004c00"/>
    </g>
    <g clip-path="url(#pc7f3f7bfb8)">
     <use xlink:href="#C1_0_12b4613d27" x="139.299499" y="228.472119" style="fill: #002c00; stroke: #002c00"/>
    </g>
    <g clip-path="url(#pc7f3f7bfb8)">
     <use xlink:href="#C1_0_12b4613d27" x="320.888908" y="118.661028" style="fill: #c9f5c7; stroke: #c9f5c7"/>
    </g>
   </g>
   <g id="Path3DCollection_3">
    <defs>
     <path id="C2_0_7c5b42b5c3" d="M 0 2.236068 
C 0.593012 2.236068 1.161816 2.000462 1.581139 1.581139 
C 2.000462 1.161816 2.236068 0.593012 2.236068 -0 
C 2.236068 -0.593012 2.000462 -1.161816 1.581139 -1.581139 
C 1.161816 -2.000462 0.593012 -2.236068 0 -2.236068 
C -0.593012 -2.236068 -1.161816 -2.000462 -1.581139 -1.581139 
C -2.000462 -1.161816 -2.236068 -0.593012 -2.236068 0 
C -2.236068 0.593012 -2.000462 1.161816 -1.581139 1.581139 
C -1.161816 2.000462 -0.593012 2.236068 0 2.236068 
z
"/>
    </defs>
    <g clip-path="url(#pc7f3f7bfb8)">
     <use xlink:href="#C2_0_7c5b42b5c3" x="190.498224" y="76.199366" style="fill: #00c6ff; stroke: #00c6ff"/>
    </g>
    <g clip-path="url(#pc7f3f7bfb8)">
     <use xlink:href="#C2_0_7c5b42b5c3" x="167.419112" y="127.223082" style="fill: #0081b3; stroke: #0081b3"/>
    </g>
    <g clip-path="url(#pc7f3f7bfb8)">
     <use xlink:href="#C2_0_7c5b42b5c3" x="145.822261" y="177.106656" style="fill: #004269; stroke: #004269"/>
    </g>
    <g clip-path="url(#pc7f3f7bfb8)">
     <use xlink:href="#C2_0_7c5b42b5c3" x="136.608821" y="205.621482" style="fill: #002739; stroke: #002739"/>
    </g>
    <g clip-path="url(#pc7f3f7bfb8)">
     <use xlink:href="#C2_0_7c5b42b5c3" x="308.144474" y="92.050534" style="fill: #b5f0ff; stroke: #b5f0ff"/>
    </g>
   </g>
   <g id="Path3DCollection_4">
    <defs>
     <path id="C3_0_9e63c7db7a" d="M 0 2.236068 
C 0.593012 2.236068 1.161816 2.000462 1.581139 1.581139 
C 2.000462 1.161816 2.236068 0.593012 2.236068 -0 
C 2.236068 -0.593012 2.000462 -1.161816 1.581139 -1.581139 
C 1.161816 -2.000462 0.593012 -2.236068 0 -2.236068 
C -0.593012 -2.236068 -1.161816 -2.000462 -1.581139 -1.581139 
C -2.000462 -1.161816 -2.236068 -0.593012 -2.236068 0 
C -2.236068 0.593012 -2.000462 1.161816 -1.581139 1.581139 
C -1.161816 2.000462 -0.593012 2.236068 0 2.236068 
z
"/>
    </defs>
    <g clip-path="url(#pc7f3f7bfb8)">
     <use xlink:href="#C3_0_9e63c7db7a" x="317.000694" y="229.66669" style="fill: #ebaf00; stroke: #ebaf00"/>
    </g>
    <g clip-path="url(#pc7f3f7bfb8)">
     <use xlink:href="#C3_0_9e63c7db7a" x="237.850118" y="235.089453" style="fill: #8b6600; stroke: #8b6600"/>
    </g>
    <g clip-path="url(#pc7f3f7bfb8)">
     <use xlink:href="#C3_0_9e63c7db7a" x="156.797003" y="240.824963" style="fill: #2a1c00; stroke: #2a1c00"/>
    </g>
    <g clip-path="url(#pc7f3f7bfb8)">
     <use xlink:href="#C3_0_9e63c7db7a" x="181.651686" y="241.128576" style="fill: #4a2e00; stroke: #4a2e00"/>
    </g>
    <g clip-path="url(#pc7f3f7bfb8)">
     <use xlink:href="#C3_0_9e63c7db7a" x="338.533577" y="134.66156" style="fill: #efe5ba; stroke: #efe5ba"/>
    </g>
   </g>
   <g id="Path3DCollection_5">
    <defs>
     <path id="C4_0_e9d54e212e" d="M 0 2.236068 
C 0.593012 2.236068 1.161816 2.000462 1.581139 1.581139 
C 2.000462 1.161816 2.236068 0.593012 2.236068 -0 
C 2.236068 -0.593012 2.000462 -1.161816 1.581139 -1.581139 
C 1.161816 -2.000462 0.593012 -2.236068 0 -2.236068 
C -0.593012 -2.236068 -1.161816 -2.000462 -1.581139 -1.581139 
C -2.000462 -1.161816 -2.236068 -0.593012 -2.236068 0 
C -2.236068 0.593012 -2.000462 1.161816 -1.581139 1.581139 
C -1.161816 2.000462 -0.593012 2.236068 0 2.236068 
z
"/>
    </defs>
    <g clip-path="url(#pc7f3f7bfb8)">
     <use xlink:href="#C4_0_e9d54e212e" x="141.080729" y="198.672284" style="fill: #003341; stroke: #003341"/>
    </g>
    <g clip-path="url(#pc7f3f7bfb8)">
     <use xlink:href="#C4_0_e9d54e212e" x="136.797318" y="207.587052" style="fill: #002735; stroke: #002735"/>
    </g>
    <g clip-path="url(#pc7f3f7bfb8)">
     <use xlink:href="#C4_0_e9d54e212e" x="203.92378" y="173.650672" style="fill: #4d6b74; stroke: #4d6b74"/>
    </g>
    <g clip-path="url(#pc7f3f7bfb8)">
     <use xlink:href="#C4_0_e9d54e212e" x="215.583514" y="167.597052" style="fill: #5b777f; stroke: #5b777f"/>
    </g>
    <g clip-path="url(#pc7f3f7bfb8)">
     <use xlink:href="#C4_0_e9d54e212e" x="243.247183" y="160.111194" style="fill: #7e8d8e; stroke: #7e8d8e"/>
    </g>
    <g clip-path="url(#pc7f3f7bfb8)">
     <use xlink:href="#C4_0_e9d54e212e" x="254.930006" y="153.049182" style="fill: #8a9a9b; stroke: #8a9a9b"/>
    </g>
    <g clip-path="url(#pc7f3f7bfb8)">
     <use xlink:href="#C4_0_e9d54e212e" x="345.052198" y="118.189625" style="fill: #f5eddc; stroke: #f5eddc"/>
    </g>
    <g clip-path="url(#pc7f3f7bfb8)">
     <use xlink:href="#C4_0_e9d54e212e" x="354.253082" y="112.621797" style="fill: #fff7e6; stroke: #fff7e6"/>
    </g>
   </g>
   <g id="Path3DCollection_6">
    <defs>
     <path id="C5_0_d8fc1e7b83" d="M 0 2.236068 
C 0.593012 2.236068 1.161816 2.000462 1.581139 1.581139 
C 2.000462 1.161816 2.236068 0.593012 2.236068 -0 
C 2.236068 -0.593012 2.000462 -1.161816 1.581139 -1.581139 
C 1.161816 -2.000462 0.593012 -2.236068 0 -2.236068 
C -0.593012 -2.236068 -1.161816 -2.000462 -1.581139 -1.581139 
C -2.000462 -1.161816 -2.236068 -0.593012 -2.236068 0 
C -2.236068 0.593012 -2.000462 1.161816 -1.581139 1.581139 
C -1.161816 2.000462 -0.593012 2.236068 0 2.236068 
z
"/>
    </defs>
    <g clip-path="url(#pc7f3f7bfb8)">
     <use xlink:href="#C5_0_d8fc1e7b83" x="123.197291" y="241.969309" style="stroke: #000000"/>
    </g>
    <g clip-path="url(#pc7f3f7bfb8)">
     <use xlink:href="#C5_0_d8fc1e7b83" x="173.516068" y="212.02943" style="fill: #383636; stroke: #383636"/>
    </g>
    <g clip-path="url(#pc7f3f7bfb8)">
     <use xlink:href="#C5_0_d8fc1e7b83" x="227.043064" y="180.024047" style="fill: #727070; stroke: #727070"/>
    </g>
    <g clip-path="url(#pc7f3f7bfb8)">
     <use xlink:href="#C5_0_d8fc1e7b83" x="286.681357" y="144.364537" style="fill: #b4b0b0; stroke: #b4b0b0"/>
    </g>
    <g clip-path="url(#pc7f3f7bfb8)">
     <use xlink:href="#C5_0_d8fc1e7b83" x="357.122702" y="99.402171" style="fill: #ffffff; stroke: #ffffff"/>
    </g>
   </g>
   <g id="Path3DCollection_7">
    <defs>
     <path id="C6_0_165da382f6" d="M 0 2.236068 
C 0.593012 2.236068 1.161816 2.000462 1.581139 1.581139 
C 2.000462 1.161816 2.236068 0.593012 2.236068 -0 
C 2.236068 -0.593012 2.000462 -1.161816 1.581139 -1.581139 
C 1.161816 -2.000462 0.593012 -2.236068 0 -2.236068 
C -0.593012 -2.236068 -1.161816 -2.000462 -1.581139 -1.581139 
C -2.000462 -1.161816 -2.236068 -0.593012 -2.236068 0 
C -2.236068 0.593012 -2.000462 1.161816 -1.581139 1.581139 
C -1.161816 2.000462 -0.593012 2.236068 0 2.236068 
z
"/>
    </defs>
    <g clip-path="url(#pc7f3f7bfb8)">
     <use xlink:href="#C6_0_165da382f6" x="156.607641" y="252.208677" style="fill: #3a0200; stroke: #3a0200"/>
    </g>
    <g clip-path="url(#pc7f3f7bfb8)">
     <use xlink:href="#C6_0_165da382f6" x="342.829871" y="137.257245" style="fill: #ffd3c5; stroke: #ffd3c5"/>
    </g>
    <g clip-path="url(#pc7f3f7bfb8)">
     <use xlink:href="#C6_0_165da382f6" x="181.505302" y="261.012705" style="fill: #670000; stroke: #670000"/>
    </g>
    <g clip-path="url(#pc7f3f7bfb8)">
     <use xlink:href="#C6_0_165da382f6" x="241.520171" y="253.684262" style="fill: #b42a13; stroke: #b42a13"/>
    </g>
    <g clip-path="url(#pc7f3f7bfb8)">
     <use xlink:href="#C6_0_165da382f6" x="300.32661" y="239.473517" style="fill: #ff5236; stroke: #ff5236"/>
    </g>
   </g>
   <g id="Path3DCollection_8">
    <defs>
     <path id="C7_0_d4018e8061" d="M 0 2.236068 
C 0.593012 2.236068 1.161816 2.000462 1.581139 1.581139 
C 2.000462 1.161816 2.236068 0.593012 2.236068 -0 
C 2.236068 -0.593012 2.000462 -1.161816 1.581139 -1.581139 
C 1.161816 -2.000462 0.593012 -2.236068 0 -2.236068 
C -0.593012 -2.236068 -1.161816 -2.000462 -1.581139 -1.581139 
C -2.000462 -1.161816 -2.236068 -0.593012 -2.236068 0 
C -2.236068 0.593012 -2.000462 1.161816 -1.581139 1.581139 
C -1.161816 2.000462 -0.593012 2.236068 0 2.236068 
z
"/>
    </defs>
    <g clip-path="url(#pc7f3f7bfb8)">
     <use xlink:href="#C7_0_d4018e8061" x="139.692419" y="212.231204" style="fill: #141142; stroke: #141142"/>
    </g>
    <g clip-path="url(#pc7f3f7bfb8)">
     <use xlink:href="#C7_0_d4018e8061" x="323.558348" y="102.25228" style="fill: #d8deff; stroke: #d8deff"/>
    </g>
    <g clip-path="url(#pc7f3f7bfb8)">
     <use xlink:href="#C7_0_d4018e8061" x="146.324459" y="193.513804" style="fill: #27097a; stroke: #27097a"/>
    </g>
    <g clip-path="url(#pc7f3f7bfb8)">
     <use xlink:href="#C7_0_d4018e8061" x="197.34742" y="146.706295" style="fill: #5849cb; stroke: #5849cb"/>
    </g>
    <g clip-path="url(#pc7f3f7bfb8)">
     <use xlink:href="#C7_0_d4018e8061" x="239.12534" y="122.12611" style="fill: #8b69ff; stroke: #8b69ff"/>
    </g>
   </g>
   <g id="Path3DCollection_9">
    <defs>
     <path id="C8_0_1efa976928" d="M 0 2.236068 
C 0.593012 2.236068 1.161816 2.000462 1.581139 1.581139 
C 2.000462 1.161816 2.236068 0.593012 2.236068 -0 
C 2.236068 -0.593012 2.000462 -1.161816 1.581139 -1.581139 
C 1.161816 -2.000462 0.593012 -2.236068 0 -2.236068 
C -0.593012 -2.236068 -1.161816 -2.000462 -1.581139 -1.581139 
C -2.000462 -1.161816 -2.236068 -0.593012 -2.236068 0 
C -2.236068 0.593012 -2.000462 1.161816 -1.581139 1.581139 
C -1.161816 2.000462 -0.593012 2.236068 0 2.236068 
z
"/>
    </defs>
    <g clip-path="url(#pc7f3f7bfb8)">
     <use xlink:href="#C8_0_1efa976928" x="156.588498" y="241.118607" style="fill: #3c001c; stroke: #3c001c"/>
    </g>
    <g clip-path="url(#pc7f3f7bfb8)">
     <use xlink:href="#C8_0_1efa976928" x="340.374634" y="127.543327" style="fill: #ffc9e1; stroke: #ffc9e1"/>
    </g>
    <g clip-path="url(#pc7f3f7bfb8)">
     <use xlink:href="#C8_0_1efa976928" x="182.410249" y="240.607149" style="fill: #690030; stroke: #690030"/>
    </g>
    <g clip-path="url(#pc7f3f7bfb8)">
     <use xlink:href="#C8_0_1efa976928" x="228.243224" y="230.962007" style="fill: #b60067; stroke: #b60067"/>
    </g>
    <g clip-path="url(#pc7f3f7bfb8)">
     <use xlink:href="#C8_0_1efa976928" x="273.674028" y="219.133318" style="fill: #ff009f; stroke: #ff009f"/>
    </g>
   </g>
   <g id="Path3DCollection_10">
    <defs>
     <path id="C9_0_84432fcdb4" d="M 0 2.236068 
C 0.593012 2.236068 1.161816 2.000462 1.581139 1.581139 
C 2.000462 1.161816 2.236068 0.593012 2.236068 -0 
C 2.236068 -0.593012 2.000462 -1.161816 1.581139 -1.581139 
C 1.161816 -2.000462 0.593012 -2.236068 0 -2.236068 
C -0.593012 -2.236068 -1.161816 -2.000462 -1.581139 -1.581139 
C -2.000462 -1.161816 -2.236068 -0.593012 -2.236068 0 
C -2.236068 0.593012 -2.000462 1.161816 -1.581139 1.581139 
C -1.161816 2.000462 -0.593012 2.236068 0 2.236068 
z
"/>
    </defs>
    <g clip-path="url(#pc7f3f7bfb8)">
     <use xlink:href="#C9_0_84432fcdb4" x="149.894499" y="227.89246" style="fill: #310036; stroke: #310036"/>
    </g>
    <g clip-path="url(#pc7f3f7bfb8)">
     <use xlink:href="#C9_0_84432fcdb4" x="339.407228" y="112.693179" style="fill: #facefe; stroke: #facefe"/>
    </g>
    <g clip-path="url(#pc7f3f7bfb8)">
     <use xlink:href="#C9_0_84432fcdb4" x="171.153362" y="215.780276" style="fill: #570061; stroke: #570061"/>
    </g>
    <g clip-path="url(#pc7f3f7bfb8)">
     <use xlink:href="#C9_0_84432fcdb4" x="211.266227" y="196.581696" style="fill: #9b00a8; stroke: #9b00a8"/>
    </g>
    <g clip-path="url(#pc7f3f7bfb8)">
     <use xlink:href="#C9_0_84432fcdb4" x="264.924651" y="171.408517" style="fill: #f100ff; stroke: #f100ff"/>
    </g>
   </g>
  </g>
 </g>
 <defs>
  <clipPath id="pc7f3f7bfb8">
   <rect x="103.104" y="41.472" width="266.112" height="266.112"/>
  </clipPath>
 </defs>
</svg>
