<?xml version="1.0" encoding="utf-8" standalone="no"?>
<!DOCTYPE svg PUBLIC "-//W3C//DTD SVG 1.1//EN"
  "http://www.w3.org/Graphics/SVG/1.1/DTD/svg11.dtd">
<svg xmlns:xlink="http://www.w3.org/1999/xlink" width="460.8pt" height="345.6pt" viewBox="0 0 460.8 345.6" xmlns="http://www.w3.org/2000/svg" version="1.1">
 <metadata>
  <rdf:RDF xmlns:dc="http://purl.org/dc/elements/1.1/" xmlns:cc="http://creativecommons.org/ns#" xmlns:rdf="http://www.w3.org/1999/02/22-rdf-syntax-ns#">
   <cc:Work>
    <dc:type rdf:resource="http://purl.org/dc/dcmitype/StillImage"/>
    <dc:date>2024-06-03T22:47:48.609473</dc:date>
    <dc:format>image/svg+xml</dc:format>
    <dc:creator>
     <cc:Agent>
      <dc:title>Matplotlib v3.9.0, https://matplotlib.org/</dc:title>
     </cc:Agent>
    </dc:creator>
   </cc:Work>
  </rdf:RDF>
 </metadata>
 <defs>
  <style type="text/css">*{stroke-linejoin: round; stroke-linecap: butt}</style>
 </defs>
 <g id="figure_1">
  <g id="patch_1">
   <path d="M 0 345.6 
L 460.8 345.6 
L 460.8 0 
L 0 0 
z
" style="fill: #ffffff"/>
  </g>
  <g id="patch_2">
   <path d="M 103.104 307.584 
L 369.216 307.584 
L 369.216 41.472 
L 103.104 41.472 
z
" style="fill: #ffffff"/>
  </g>
  <g id="pane3d_1">
   <g id="patch_3">
    <path d="M 123.197291 241.969309 
L 211.076164 168.307495 
L 209.854564 62.073991 
L 117.770234 129.272941 
" style="fill: #f2f2f2; opacity: 0.5; stroke: #f2f2f2; stroke-linejoin: miter"/>
   </g>
  </g>
  <g id="pane3d_2">
   <g id="patch_4">
    <path d="M 211.076164 168.307495 
L 352.090401 209.294766 
L 357.122702 99.402171 
L 209.854564 62.073991 
" style="fill: #e6e6e6; opacity: 0.5; stroke: #e6e6e6; stroke-linejoin: miter"/>
   </g>
  </g>
  <g id="pane3d_3">
   <g id="patch_5">
    <path d="M 123.197291 241.969309 
L 272.679269 290.790123 
L 352.090401 209.294766 
L 211.076164 168.307495 
" style="fill: #ececec; opacity: 0.5; stroke: #ececec; stroke-linejoin: miter"/>
   </g>
  </g>
  <g id="grid3d_1">
   <g id="Line3DCollection_1">
    <path d="M 123.197291 241.969309 
L 211.076164 168.307495 
L 209.854564 62.073991 
" style="fill: none; stroke: #b0b0b0; stroke-width: 0.8"/>
    <path d="M 151.284689 251.142653 
L 237.667621 176.036581 
L 237.577797 69.101022 
" style="fill: none; stroke: #b0b0b0; stroke-width: 0.8"/>
    <path d="M 179.949562 260.504601 
L 264.760284 183.911349 
L 265.846264 76.266255 
" style="fill: none; stroke: #b0b0b0; stroke-width: 0.8"/>
    <path d="M 209.209907 270.061029 
L 292.368458 191.935955 
L 294.676208 83.573805 
" style="fill: none; stroke: #b0b0b0; stroke-width: 0.8"/>
    <path d="M 239.084471 279.818062 
L 320.506998 200.114718 
L 324.084526 91.027956 
" style="fill: none; stroke: #b0b0b0; stroke-width: 0.8"/>
    <path d="M 269.592802 289.782082 
L 349.191336 208.452123 
L 354.088799 98.633165 
" style="fill: none; stroke: #b0b0b0; stroke-width: 0.8"/>
   </g>
  </g>
  <g id="grid3d_2">
   <g id="Line3DCollection_2">
    <path d="M 117.770234 129.272941 
L 123.197291 241.969309 
L 272.679269 290.790123 
" style="fill: none; stroke: #b0b0b0; stroke-width: 0.8"/>
    <path d="M 137.153441 115.127959 
L 141.639881 226.510365 
L 289.402998 273.627462 
" style="fill: none; stroke: #b0b0b0; stroke-width: 0.8"/>
    <path d="M 155.853747 101.481327 
L 159.460641 211.57265 
L 305.533401 257.073701 
" style="fill: none; stroke: #b0b0b0; stroke-width: 0.8"/>
    <path d="M 173.906617 88.307165 
L 176.690501 197.13024 
L 321.101502 241.096999 
" style="fill: none; stroke: #b0b0b0; stroke-width: 0.8"/>
    <path d="M 191.345101 75.581354 
L 193.35837 183.158902 
L 336.1362 225.667701 
" style="fill: none; stroke: #b0b0b0; stroke-width: 0.8"/>
    <path d="M 208.200039 63.281388 
L 209.491303 169.635957 
L 350.664447 210.758145 
" style="fill: none; stroke: #b0b0b0; stroke-width: 0.8"/>
   </g>
  </g>
  <g id="grid3d_3">
   <g id="Line3DCollection_3">
    <path d="M 352.090401 209.294766 
L 211.076164 168.307495 
L 123.197291 241.969309 
" style="fill: none; stroke: #b0b0b0; stroke-width: 0.8"/>
    <path d="M 353.042826 188.496231 
L 210.844565 148.167054 
L 122.171557 220.669267 
" style="fill: none; stroke: #b0b0b0; stroke-width: 0.8"/>
    <path d="M 354.01154 167.342 
L 210.609196 127.698685 
L 121.127609 198.991009 
" style="fill: none; stroke: #b0b0b0; stroke-width: 0.8"/>
    <path d="M 354.996963 145.822869 
L 210.369962 106.894312 
L 120.064958 176.924372 
" style="fill: none; stroke: #b0b0b0; stroke-width: 0.8"/>
    <path d="M 355.999532 123.929315 
L 210.126768 85.745595 
L 118.983096 154.458825 
" style="fill: none; stroke: #b0b0b0; stroke-width: 0.8"/>
    <path d="M 357.019699 101.65148 
L 209.879516 64.243913 
L 117.8815 131.583451 
" style="fill: none; stroke: #b0b0b0; stroke-width: 0.8"/>
   </g>
  </g>
  <g id="axis3d_1">
   <g id="line2d_1">
    <path d="M 123.197291 241.969309 
L 272.679269 290.790123 
" style="fill: none; stroke: #000000; stroke-width: 0.8; stroke-linecap: square"/>
   </g>
   <g id="xtick_1">
    <g id="line2d_2">
     <path d="M 123.962332 241.328036 
L 121.663937 243.254597 
" style="fill: none; stroke: #000000; stroke-width: 0.8; stroke-linecap: square"/>
    </g>
    <g id="text_1">
     <!-- 0 -->
     <g transform="translate(112.478153 265.215952) scale(0.1 -0.1)">
      <defs>
       <path id="DejaVuSans-30" d="M 2034 4250 
Q 1547 4250 1301 3770 
Q 1056 3291 1056 2328 
Q 1056 1369 1301 889 
Q 1547 409 2034 409 
Q 2525 409 2770 889 
Q 3016 1369 3016 2328 
Q 3016 3291 2770 3770 
Q 2525 4250 2034 4250 
z
M 2034 4750 
Q 2819 4750 3233 4129 
Q 3647 3509 3647 2328 
Q 3647 1150 3233 529 
Q 2819 -91 2034 -91 
Q 1250 -91 836 529 
Q 422 1150 422 2328 
Q 422 3509 836 4129 
Q 1250 4750 2034 4750 
z
" transform="scale(0.015625)"/>
      </defs>
      <use xlink:href="#DejaVuSans-30"/>
     </g>
    </g>
   </g>
   <g id="xtick_2">
    <g id="line2d_3">
     <path d="M 152.037326 250.488268 
L 149.776161 252.45425 
" style="fill: none; stroke: #000000; stroke-width: 0.8; stroke-linecap: square"/>
    </g>
    <g id="text_2">
     <!-- 50 -->
     <g transform="translate(137.412441 274.583454) scale(0.1 -0.1)">
      <defs>
       <path id="DejaVuSans-35" d="M 691 4666 
L 3169 4666 
L 3169 4134 
L 1269 4134 
L 1269 2991 
Q 1406 3038 1543 3061 
Q 1681 3084 1819 3084 
Q 2600 3084 3056 2656 
Q 3513 2228 3513 1497 
Q 3513 744 3044 326 
Q 2575 -91 1722 -91 
Q 1428 -91 1123 -41 
Q 819 9 494 109 
L 494 744 
Q 775 591 1075 516 
Q 1375 441 1709 441 
Q 2250 441 2565 725 
Q 2881 1009 2881 1497 
Q 2881 1984 2565 2268 
Q 2250 2553 1709 2553 
Q 1456 2553 1204 2497 
Q 953 2441 691 2322 
L 691 4666 
z
" transform="scale(0.015625)"/>
      </defs>
      <use xlink:href="#DejaVuSans-35"/>
      <use xlink:href="#DejaVuSans-30" x="63.623047"/>
     </g>
    </g>
   </g>
   <g id="xtick_3">
    <g id="line2d_4">
     <path d="M 180.689123 259.836698 
L 178.467213 261.843322 
" style="fill: none; stroke: #000000; stroke-width: 0.8; stroke-linecap: square"/>
    </g>
    <g id="text_3">
     <!-- 100 -->
     <g transform="translate(162.926969 284.144279) scale(0.1 -0.1)">
      <defs>
       <path id="DejaVuSans-31" d="M 794 531 
L 1825 531 
L 1825 4091 
L 703 3866 
L 703 4441 
L 1819 4666 
L 2450 4666 
L 2450 531 
L 3481 531 
L 3481 0 
L 794 0 
L 794 531 
z
" transform="scale(0.015625)"/>
      </defs>
      <use xlink:href="#DejaVuSans-31"/>
      <use xlink:href="#DejaVuSans-30" x="63.623047"/>
      <use xlink:href="#DejaVuSans-30" x="127.246094"/>
     </g>
    </g>
   </g>
   <g id="xtick_4">
    <g id="line2d_5">
     <path d="M 209.935681 269.379184 
L 207.755156 271.427725 
" style="fill: none; stroke: #000000; stroke-width: 0.8; stroke-linecap: square"/>
    </g>
    <g id="text_4">
     <!-- 150 -->
     <g transform="translate(192.221138 293.904475) scale(0.1 -0.1)">
      <use xlink:href="#DejaVuSans-31"/>
      <use xlink:href="#DejaVuSans-35" x="63.623047"/>
      <use xlink:href="#DejaVuSans-30" x="127.246094"/>
     </g>
    </g>
   </g>
   <g id="xtick_5">
    <g id="line2d_6">
     <path d="M 239.795716 279.121834 
L 237.658812 281.213619 
" style="fill: none; stroke: #000000; stroke-width: 0.8; stroke-linecap: square"/>
    </g>
    <g id="text_5">
     <!-- 200 -->
     <g transform="translate(222.132612 303.870345) scale(0.1 -0.1)">
      <defs>
       <path id="DejaVuSans-32" d="M 1228 531 
L 3431 531 
L 3431 0 
L 469 0 
L 469 531 
Q 828 903 1448 1529 
Q 2069 2156 2228 2338 
Q 2531 2678 2651 2914 
Q 2772 3150 2772 3378 
Q 2772 3750 2511 3984 
Q 2250 4219 1831 4219 
Q 1534 4219 1204 4116 
Q 875 4013 500 3803 
L 500 4441 
Q 881 4594 1212 4672 
Q 1544 4750 1819 4750 
Q 2544 4750 2975 4387 
Q 3406 4025 3406 3419 
Q 3406 3131 3298 2873 
Q 3191 2616 2906 2266 
Q 2828 2175 2409 1742 
Q 1991 1309 1228 531 
z
" transform="scale(0.015625)"/>
      </defs>
      <use xlink:href="#DejaVuSans-32"/>
      <use xlink:href="#DejaVuSans-30" x="63.623047"/>
      <use xlink:href="#DejaVuSans-30" x="127.246094"/>
     </g>
    </g>
   </g>
   <g id="xtick_6">
    <g id="line2d_7">
     <path d="M 270.288734 289.071012 
L 268.197803 291.207425 
" style="fill: none; stroke: #000000; stroke-width: 0.8; stroke-linecap: square"/>
    </g>
    <g id="text_6">
     <!-- 250 -->
     <g transform="translate(252.681111 314.048457) scale(0.1 -0.1)">
      <use xlink:href="#DejaVuSans-32"/>
      <use xlink:href="#DejaVuSans-35" x="63.623047"/>
      <use xlink:href="#DejaVuSans-30" x="127.246094"/>
     </g>
    </g>
   </g>
  </g>
  <g id="axis3d_2">
   <g id="line2d_8">
    <path d="M 352.090401 209.294766 
L 272.679269 290.790123 
" style="fill: none; stroke: #000000; stroke-width: 0.8; stroke-linecap: square"/>
   </g>
   <g id="xtick_7">
    <g id="line2d_9">
     <path d="M 271.419199 290.378584 
L 275.202687 291.614271 
" style="fill: none; stroke: #000000; stroke-width: 0.8; stroke-linecap: square"/>
    </g>
    <g id="text_7">
     <!-- 0 -->
     <g transform="translate(282.452273 311.89542) scale(0.1 -0.1)">
      <use xlink:href="#DejaVuSans-30"/>
     </g>
    </g>
   </g>
   <g id="xtick_8">
    <g id="line2d_10">
     <path d="M 288.158564 273.23065 
L 291.895047 274.4221 
" style="fill: none; stroke: #000000; stroke-width: 0.8; stroke-linecap: square"/>
    </g>
    <g id="text_8">
     <!-- 50 -->
     <g transform="translate(295.770559 294.478538) scale(0.1 -0.1)">
      <use xlink:href="#DejaVuSans-35"/>
      <use xlink:href="#DejaVuSans-30" x="63.623047"/>
     </g>
    </g>
   </g>
   <g id="xtick_9">
    <g id="line2d_11">
     <path d="M 304.304295 256.690839 
L 307.994698 257.840384 
" style="fill: none; stroke: #000000; stroke-width: 0.8; stroke-linecap: square"/>
    </g>
    <g id="text_9">
     <!-- 100 -->
     <g transform="translate(308.503132 277.679933) scale(0.1 -0.1)">
      <use xlink:href="#DejaVuSans-31"/>
      <use xlink:href="#DejaVuSans-30" x="63.623047"/>
      <use xlink:href="#DejaVuSans-30" x="127.246094"/>
     </g>
    </g>
   </g>
   <g id="xtick_10">
    <g id="line2d_12">
     <path d="M 319.887421 240.727365 
L 323.532658 241.837179 
" style="fill: none; stroke: #000000; stroke-width: 0.8; stroke-linecap: square"/>
    </g>
    <g id="text_10">
     <!-- 150 -->
     <g transform="translate(323.861887 261.467258) scale(0.1 -0.1)">
      <use xlink:href="#DejaVuSans-31"/>
      <use xlink:href="#DejaVuSans-35" x="63.623047"/>
      <use xlink:href="#DejaVuSans-30" x="127.246094"/>
     </g>
    </g>
   </g>
   <g id="xtick_11">
    <g id="line2d_13">
     <path d="M 334.936845 225.31062 
L 338.537818 226.382727 
" style="fill: none; stroke: #000000; stroke-width: 0.8; stroke-linecap: square"/>
    </g>
    <g id="text_11">
     <!-- 200 -->
     <g transform="translate(338.694117 245.810382) scale(0.1 -0.1)">
      <use xlink:href="#DejaVuSans-32"/>
      <use xlink:href="#DejaVuSans-30" x="63.623047"/>
      <use xlink:href="#DejaVuSans-30" x="127.246094"/>
     </g>
    </g>
   </g>
   <g id="xtick_12">
    <g id="line2d_14">
     <path d="M 349.479522 210.41299 
L 353.03712 211.449279 
" style="fill: none; stroke: #000000; stroke-width: 0.8; stroke-linecap: square"/>
    </g>
    <g id="text_12">
     <!-- 250 -->
     <g transform="translate(353.02644 230.681207) scale(0.1 -0.1)">
      <use xlink:href="#DejaVuSans-32"/>
      <use xlink:href="#DejaVuSans-35" x="63.623047"/>
      <use xlink:href="#DejaVuSans-30" x="127.246094"/>
     </g>
    </g>
   </g>
  </g>
  <g id="axis3d_3">
   <g id="line2d_15">
    <path d="M 352.090401 209.294766 
L 357.122702 99.402171 
" style="fill: none; stroke: #000000; stroke-width: 0.8; stroke-linecap: square"/>
   </g>
   <g id="xtick_13">
    <g id="line2d_16">
     <path d="M 350.906903 208.95077 
L 354.460211 209.983577 
" style="fill: none; stroke: #000000; stroke-width: 0.8; stroke-linecap: square"/>
    </g>
    <g id="text_13">
     <!-- 0 -->
     <g transform="translate(367.15779 214.288206) scale(0.1 -0.1)">
      <use xlink:href="#DejaVuSans-30"/>
     </g>
    </g>
   </g>
   <g id="xtick_14">
    <g id="line2d_17">
     <path d="M 351.848917 188.157624 
L 355.433506 189.174257 
" style="fill: none; stroke: #000000; stroke-width: 0.8; stroke-linecap: square"/>
    </g>
    <g id="text_14">
     <!-- 50 -->
     <g transform="translate(365.080339 193.530537) scale(0.1 -0.1)">
      <use xlink:href="#DejaVuSans-35"/>
      <use xlink:href="#DejaVuSans-30" x="63.623047"/>
     </g>
    </g>
   </g>
   <g id="xtick_15">
    <g id="line2d_18">
     <path d="M 352.807036 167.009017 
L 356.42346 168.008771 
" style="fill: none; stroke: #000000; stroke-width: 0.8; stroke-linecap: square"/>
    </g>
    <g id="text_15">
     <!-- 100 -->
     <g transform="translate(363.021707 172.418953) scale(0.1 -0.1)">
      <use xlink:href="#DejaVuSans-31"/>
      <use xlink:href="#DejaVuSans-30" x="63.623047"/>
      <use xlink:href="#DejaVuSans-30" x="127.246094"/>
     </g>
    </g>
   </g>
   <g id="xtick_16">
    <g id="line2d_19">
     <path d="M 353.781675 145.495756 
L 357.430504 146.477894 
" style="fill: none; stroke: #000000; stroke-width: 0.8; stroke-linecap: square"/>
    </g>
    <g id="text_16">
     <!-- 150 -->
     <g transform="translate(364.16363 150.944325) scale(0.1 -0.1)">
      <use xlink:href="#DejaVuSans-31"/>
      <use xlink:href="#DejaVuSans-35" x="63.623047"/>
      <use xlink:href="#DejaVuSans-30" x="127.246094"/>
     </g>
    </g>
   </g>
   <g id="xtick_17">
    <g id="line2d_20">
     <path d="M 354.773265 123.608327 
L 358.455085 124.572081 
" style="fill: none; stroke: #000000; stroke-width: 0.8; stroke-linecap: square"/>
    </g>
    <g id="text_17">
     <!-- 200 -->
     <g transform="translate(365.325361 129.097208) scale(0.1 -0.1)">
      <use xlink:href="#DejaVuSans-32"/>
      <use xlink:href="#DejaVuSans-30" x="63.623047"/>
      <use xlink:href="#DejaVuSans-30" x="127.246094"/>
     </g>
    </g>
   </g>
   <g id="xtick_18">
    <g id="line2d_21">
     <path d="M 355.782253 101.336883 
L 359.497664 102.281455 
" style="fill: none; stroke: #000000; stroke-width: 0.8; stroke-linecap: square"/>
    </g>
    <g id="text_18">
     <!-- 250 -->
     <g transform="translate(366.507419 106.867824) scale(0.1 -0.1)">
      <use xlink:href="#DejaVuSans-32"/>
      <use xlink:href="#DejaVuSans-35" x="63.623047"/>
      <use xlink:href="#DejaVuSans-30" x="127.246094"/>
     </g>
    </g>
   </g>
  </g>
  <g id="axes_1">
   <g id="line2d_22">
    <path d="M 152.362998 251.494829 
L 177.654767 259.75512 
" clip-path="url(#pf529148b52)" style="fill: none; stroke: #600000; stroke-opacity: 0.25; stroke-width: 1.5; stroke-linecap: square"/>
   </g>
   <g id="line2d_23">
    <path d="M 177.654767 259.75512 
L 241.520171 253.684262 
" clip-path="url(#pf529148b52)" style="fill: none; stroke: #b42a13; stroke-opacity: 0.25; stroke-width: 1.5; stroke-linecap: square"/>
   </g>
   <g id="line2d_24">
    <path d="M 241.520171 253.684262 
L 302.579374 234.434226 
" clip-path="url(#pf529148b52)" style="fill: none; stroke: #ff593d; stroke-opacity: 0.25; stroke-width: 1.5; stroke-linecap: square"/>
   </g>
   <g id="line2d_25">
    <path d="M 302.579374 234.434226 
L 342.829871 137.257245 
" clip-path="url(#pf529148b52)" style="fill: none; stroke: #ffd3c5; stroke-opacity: 0.25; stroke-width: 1.5; stroke-linecap: square"/>
   </g>
   <g id="line2d_26">
    <path d="M 342.829871 137.257245 
L 152.362998 251.494829 
" clip-path="url(#pf529148b52)" style="fill: none; stroke: #ffd3c5; stroke-opacity: 0.25; stroke-width: 1.5; stroke-linecap: square"/>
   </g>
   <g id="line2d_27">
    <path d="M 151.383229 241.771322 
L 180.382432 239.663171 
" clip-path="url(#pf529148b52)" style="fill: none; stroke: #473000; stroke-opacity: 0.25; stroke-width: 1.5; stroke-linecap: square"/>
   </g>
   <g id="line2d_28">
    <path d="M 180.382432 239.663171 
L 237.850118 235.089453 
" clip-path="url(#pf529148b52)" style="fill: none; stroke: #8b6600; stroke-opacity: 0.25; stroke-width: 1.5; stroke-linecap: square"/>
   </g>
   <g id="line2d_29">
    <path d="M 237.850118 235.089453 
L 316.139335 229.019697 
" clip-path="url(#pf529148b52)" style="fill: none; stroke: #e9b000; stroke-opacity: 0.25; stroke-width: 1.5; stroke-linecap: square"/>
   </g>
   <g id="line2d_30">
    <path d="M 316.139335 229.019697 
L 338.533577 134.66156 
" clip-path="url(#pf529148b52)" style="fill: none; stroke: #efe5ba; stroke-opacity: 0.25; stroke-width: 1.5; stroke-linecap: square"/>
   </g>
   <g id="line2d_31">
    <path d="M 338.533577 134.66156 
L 151.383229 241.771322 
" clip-path="url(#pf529148b52)" style="fill: none; stroke: #efe5ba; stroke-opacity: 0.25; stroke-width: 1.5; stroke-linecap: square"/>
   </g>
   <g id="line2d_32">
    <path d="M 137.098603 230.316954 
L 149.886199 219.598137 
" clip-path="url(#pf529148b52)" style="fill: none; stroke: #004900; stroke-opacity: 0.25; stroke-width: 1.5; stroke-linecap: square"/>
   </g>
   <g id="line2d_33">
    <path d="M 149.886199 219.598137 
L 173.870779 199.493787 
" clip-path="url(#pf529148b52)" style="fill: none; stroke: #008e00; stroke-opacity: 0.25; stroke-width: 1.5; stroke-linecap: square"/>
   </g>
   <g id="line2d_34">
    <path d="M 173.870779 199.493787 
L 198.602941 172.034207 
" clip-path="url(#pf529148b52)" style="fill: none; stroke: #00d810; stroke-opacity: 0.25; stroke-width: 1.5; stroke-linecap: square"/>
   </g>
   <g id="line2d_35">
    <path d="M 198.602941 172.034207 
L 320.888908 118.661028 
" clip-path="url(#pf529148b52)" style="fill: none; stroke: #c9f5c7; stroke-opacity: 0.25; stroke-width: 1.5; stroke-linecap: square"/>
   </g>
   <g id="line2d_36">
    <path d="M 320.888908 118.661028 
L 137.098603 230.316954 
" clip-path="url(#pf529148b52)" style="fill: none; stroke: #c9f5c7; stroke-opacity: 0.25; stroke-width: 1.5; stroke-linecap: square"/>
   </g>
   <g id="line2d_37">
    <path d="M 138.299888 218.203028 
L 151.651511 194.838198 
" clip-path="url(#pf529148b52)" style="fill: none; stroke: #005036; stroke-opacity: 0.25; stroke-width: 1.5; stroke-linecap: square"/>
   </g>
   <g id="line2d_38">
    <path d="M 151.651511 194.838198 
L 176.649001 150.01922 
" clip-path="url(#pf529148b52)" style="fill: none; stroke: #00996f; stroke-opacity: 0.25; stroke-width: 1.5; stroke-linecap: square"/>
   </g>
   <g id="line2d_39">
    <path d="M 176.649001 150.01922 
L 203.317864 103.237323 
" clip-path="url(#pf529148b52)" style="fill: none; stroke: #00eaab; stroke-opacity: 0.25; stroke-width: 1.5; stroke-linecap: square"/>
   </g>
   <g id="line2d_40">
    <path d="M 203.317864 103.237323 
L 305.988264 100.155143 
" clip-path="url(#pf529148b52)" style="fill: none; stroke: #adf9e5; stroke-opacity: 0.25; stroke-width: 1.5; stroke-linecap: square"/>
   </g>
   <g id="line2d_41">
    <path d="M 305.988264 100.155143 
L 138.299888 218.203028 
" clip-path="url(#pf529148b52)" style="fill: none; stroke: #adf9e5; stroke-opacity: 0.25; stroke-width: 1.5; stroke-linecap: square"/>
   </g>
   <g id="line2d_42">
    <path d="M 134.489347 209.968725 
L 145.607112 181.275064 
" clip-path="url(#pf529148b52)" style="fill: none; stroke: #004160; stroke-opacity: 0.25; stroke-width: 1.5; stroke-linecap: square"/>
   </g>
   <g id="line2d_43">
    <path d="M 145.607112 181.275064 
L 167.419112 127.223082 
" clip-path="url(#pf529148b52)" style="fill: none; stroke: #0081b3; stroke-opacity: 0.25; stroke-width: 1.5; stroke-linecap: square"/>
   </g>
   <g id="line2d_44">
    <path d="M 167.419112 127.223082 
L 190.335823 76.317879 
" clip-path="url(#pf529148b52)" style="fill: none; stroke: #00c5ff; stroke-opacity: 0.25; stroke-width: 1.5; stroke-linecap: square"/>
   </g>
   <g id="line2d_45">
    <path d="M 190.335823 76.317879 
L 308.144474 92.050534 
" clip-path="url(#pf529148b52)" style="fill: none; stroke: #b5f0ff; stroke-opacity: 0.25; stroke-width: 1.5; stroke-linecap: square"/>
   </g>
   <g id="line2d_46">
    <path d="M 308.144474 92.050534 
L 134.489347 209.968725 
" clip-path="url(#pf529148b52)" style="fill: none; stroke: #b5f0ff; stroke-opacity: 0.25; stroke-width: 1.5; stroke-linecap: square"/>
   </g>
   <g id="line2d_47">
    <path d="M 133.97547 216.296019 
L 153.661048 192.925985 
" clip-path="url(#pf529148b52)" style="fill: none; stroke: #271c6e; stroke-opacity: 0.25; stroke-width: 1.5; stroke-linecap: square"/>
   </g>
   <g id="line2d_48">
    <path d="M 153.661048 192.925985 
L 197.34742 146.706295 
" clip-path="url(#pf529148b52)" style="fill: none; stroke: #5849cb; stroke-opacity: 0.25; stroke-width: 1.5; stroke-linecap: square"/>
   </g>
   <g id="line2d_49">
    <path d="M 197.34742 146.706295 
L 241.127083 120.488413 
" clip-path="url(#pf529148b52)" style="fill: none; stroke: #8b6fff; stroke-opacity: 0.25; stroke-width: 1.5; stroke-linecap: square"/>
   </g>
   <g id="line2d_50">
    <path d="M 241.127083 120.488413 
L 323.558348 102.25228 
" clip-path="url(#pf529148b52)" style="fill: none; stroke: #d8deff; stroke-opacity: 0.25; stroke-width: 1.5; stroke-linecap: square"/>
   </g>
   <g id="line2d_51">
    <path d="M 323.558348 102.25228 
L 133.97547 216.296019 
" clip-path="url(#pf529148b52)" style="fill: none; stroke: #d8deff; stroke-opacity: 0.25; stroke-width: 1.5; stroke-linecap: square"/>
   </g>
   <g id="line2d_52">
    <path d="M 146.544363 229.364392 
L 168.30636 218.103777 
" clip-path="url(#pf529148b52)" style="fill: none; stroke: #52005a; stroke-opacity: 0.25; stroke-width: 1.5; stroke-linecap: square"/>
   </g>
   <g id="line2d_53">
    <path d="M 168.30636 218.103777 
L 211.266227 196.581696 
" clip-path="url(#pf529148b52)" style="fill: none; stroke: #9b00a8; stroke-opacity: 0.25; stroke-width: 1.5; stroke-linecap: square"/>
   </g>
   <g id="line2d_54">
    <path d="M 211.266227 196.581696 
L 263.304518 170.944615 
" clip-path="url(#pf529148b52)" style="fill: none; stroke: #ee00ff; stroke-opacity: 0.25; stroke-width: 1.5; stroke-linecap: square"/>
   </g>
   <g id="line2d_55">
    <path d="M 263.304518 170.944615 
L 339.407228 112.693179 
" clip-path="url(#pf529148b52)" style="fill: none; stroke: #facefe; stroke-opacity: 0.25; stroke-width: 1.5; stroke-linecap: square"/>
   </g>
   <g id="line2d_56">
    <path d="M 339.407228 112.693179 
L 146.544363 229.364392 
" clip-path="url(#pf529148b52)" style="fill: none; stroke: #facefe; stroke-opacity: 0.25; stroke-width: 1.5; stroke-linecap: square"/>
   </g>
   <g id="line2d_57">
    <path d="M 152.861991 242.288026 
L 178.526246 239.149311 
" clip-path="url(#pf529148b52)" style="fill: none; stroke: #620031; stroke-opacity: 0.25; stroke-width: 1.5; stroke-linecap: square"/>
   </g>
   <g id="line2d_58">
    <path d="M 178.526246 239.149311 
L 228.243224 230.962007 
" clip-path="url(#pf529148b52)" style="fill: none; stroke: #b60067; stroke-opacity: 0.25; stroke-width: 1.5; stroke-linecap: square"/>
   </g>
   <g id="line2d_59">
    <path d="M 228.243224 230.962007 
L 273.675467 219.029635 
" clip-path="url(#pf529148b52)" style="fill: none; stroke: #ff00a0; stroke-opacity: 0.25; stroke-width: 1.5; stroke-linecap: square"/>
   </g>
   <g id="line2d_60">
    <path d="M 273.675467 219.029635 
L 340.374634 127.543327 
" clip-path="url(#pf529148b52)" style="fill: none; stroke: #ffc9e1; stroke-opacity: 0.25; stroke-width: 1.5; stroke-linecap: square"/>
   </g>
   <g id="line2d_61">
    <path d="M 340.374634 127.543327 
L 152.861991 242.288026 
" clip-path="url(#pf529148b52)" style="fill: none; stroke: #ffc9e1; stroke-opacity: 0.25; stroke-width: 1.5; stroke-linecap: square"/>
   </g>
   <g id="line2d_62">
    <path d="M 135.187372 211.097321 
L 153.625131 197.766994 
" clip-path="url(#pf529148b52)" style="fill: none; stroke: #133947; stroke-opacity: 0.25; stroke-width: 1.5; stroke-linecap: square"/>
   </g>
   <g id="line2d_63">
    <path d="M 153.625131 197.766994 
L 190.380344 183.4334 
" clip-path="url(#pf529148b52)" style="fill: none; stroke: #405964; stroke-opacity: 0.25; stroke-width: 1.5; stroke-linecap: square"/>
   </g>
   <g id="line2d_64">
    <path d="M 190.380344 183.4334 
L 210.549597 170.143971 
" clip-path="url(#pf529148b52)" style="fill: none; stroke: #56707b; stroke-opacity: 0.25; stroke-width: 1.5; stroke-linecap: square"/>
   </g>
   <g id="line2d_65">
    <path d="M 210.549597 170.143971 
L 243.33419 161.051363 
" clip-path="url(#pf529148b52)" style="fill: none; stroke: #7f8a8f; stroke-opacity: 0.25; stroke-width: 1.5; stroke-linecap: square"/>
   </g>
   <g id="line2d_66">
    <path d="M 243.33419 161.051363 
L 253.990366 154.310857 
" clip-path="url(#pf529148b52)" style="fill: none; stroke: #8b969b; stroke-opacity: 0.25; stroke-width: 1.5; stroke-linecap: square"/>
   </g>
   <g id="line2d_67">
    <path d="M 253.990366 154.310857 
L 335.515881 123.940352 
" clip-path="url(#pf529148b52)" style="fill: none; stroke: #ebe3d2; stroke-opacity: 0.25; stroke-width: 1.5; stroke-linecap: square"/>
   </g>
   <g id="line2d_68">
    <path d="M 335.515881 123.940352 
L 350.248589 115.380126 
" clip-path="url(#pf529148b52)" style="fill: none; stroke: #fbf2e1; stroke-opacity: 0.25; stroke-width: 1.5; stroke-linecap: square"/>
   </g>
   <g id="line2d_69">
    <path d="M 350.248589 115.380126 
L 135.187372 211.097321 
" clip-path="url(#pf529148b52)" style="fill: none; stroke: #fbf2e1; stroke-opacity: 0.25; stroke-width: 1.5; stroke-linecap: square"/>
   </g>
   <g id="line2d_70">
    <path d="M 123.197291 241.969309 
L 170.136921 213.408851 
" clip-path="url(#pf529148b52)" style="fill: none; stroke: #333333; stroke-opacity: 0.25; stroke-width: 1.5; stroke-linecap: square"/>
   </g>
   <g id="line2d_71">
    <path d="M 170.136921 213.408851 
L 221.00711 182.445908 
" clip-path="url(#pf529148b52)" style="fill: none; stroke: #6b6b6b; stroke-opacity: 0.25; stroke-width: 1.5; stroke-linecap: square"/>
   </g>
   <g id="line2d_72">
    <path d="M 221.00711 182.445908 
L 274.700196 149.764765 
" clip-path="url(#pf529148b52)" style="fill: none; stroke: #a6a5a5; stroke-opacity: 0.25; stroke-width: 1.5; stroke-linecap: square"/>
   </g>
   <g id="line2d_73">
    <path d="M 274.700196 149.764765 
L 357.122702 99.402171 
" clip-path="url(#pf529148b52)" style="fill: none; stroke: #ffffff; stroke-opacity: 0.25; stroke-width: 1.5; stroke-linecap: square"/>
   </g>
   <g id="line2d_74">
    <path d="M 357.122702 99.402171 
L 123.197291 241.969309 
" clip-path="url(#pf529148b52)" style="fill: none; stroke: #ffffff; stroke-opacity: 0.25; stroke-width: 1.5; stroke-linecap: square"/>
   </g>
   <g id="Path3DCollection_1">
    <defs>
     <path id="C0_0_f9ef61f0dc" d="M 0 2.236068 
C 0.593012 2.236068 1.161816 2.000462 1.581139 1.581139 
C 2.000462 1.161816 2.236068 0.593012 2.236068 -0 
C 2.236068 -0.593012 2.000462 -1.161816 1.581139 -1.581139 
C 1.161816 -2.000462 0.593012 -2.236068 0 -2.236068 
C -0.593012 -2.236068 -1.161816 -2.000462 -1.581139 -1.581139 
C -2.000462 -1.161816 -2.236068 -0.593012 -2.236068 0 
C -2.236068 0.593012 -2.000462 1.161816 -1.581139 1.581139 
C -1.161816 2.000462 -0.593012 2.236068 0 2.236068 
z
"/>
    </defs>
    <g clip-path="url(#pf529148b52)">
     <use xlink:href="#C0_0_f9ef61f0dc" x="203.317864" y="103.237323" style="fill: #00eaab; stroke: #00eaab"/>
    </g>
    <g clip-path="url(#pf529148b52)">
     <use xlink:href="#C0_0_f9ef61f0dc" x="176.649001" y="150.01922" style="fill: #00996f; stroke: #00996f"/>
    </g>
    <g clip-path="url(#pf529148b52)">
     <use xlink:href="#C0_0_f9ef61f0dc" x="151.651511" y="194.838198" style="fill: #005036; stroke: #005036"/>
    </g>
    <g clip-path="url(#pf529148b52)">
     <use xlink:href="#C0_0_f9ef61f0dc" x="305.988264" y="100.155143" style="fill: #adf9e5; stroke: #adf9e5"/>
    </g>
    <g clip-path="url(#pf529148b52)">
     <use xlink:href="#C0_0_f9ef61f0dc" x="138.299888" y="218.203028" style="fill: #002a1a; stroke: #002a1a"/>
    </g>
   </g>
   <g id="Path3DCollection_2">
    <defs>
     <path id="C1_0_700045c153" d="M 0 2.236068 
C 0.593012 2.236068 1.161816 2.000462 1.581139 1.581139 
C 2.000462 1.161816 2.236068 0.593012 2.236068 -0 
C 2.236068 -0.593012 2.000462 -1.161816 1.581139 -1.581139 
C 1.161816 -2.000462 0.593012 -2.236068 0 -2.236068 
C -0.593012 -2.236068 -1.161816 -2.000462 -1.581139 -1.581139 
C -2.000462 -1.161816 -2.236068 -0.593012 -2.236068 0 
C -2.236068 0.593012 -2.000462 1.161816 -1.581139 1.581139 
C -1.161816 2.000462 -0.593012 2.236068 0 2.236068 
z
"/>
    </defs>
    <g clip-path="url(#pf529148b52)">
     <use xlink:href="#C1_0_700045c153" x="198.602941" y="172.034207" style="fill: #00d810; stroke: #00d810"/>
    </g>
    <g clip-path="url(#pf529148b52)">
     <use xlink:href="#C1_0_700045c153" x="173.870779" y="199.493787" style="fill: #008e00; stroke: #008e00"/>
    </g>
    <g clip-path="url(#pf529148b52)">
     <use xlink:href="#C1_0_700045c153" x="149.886199" y="219.598137" style="fill: #004900; stroke: #004900"/>
    </g>
    <g clip-path="url(#pf529148b52)">
     <use xlink:href="#C1_0_700045c153" x="137.098603" y="230.316954" style="fill: #002600; stroke: #002600"/>
    </g>
    <g clip-path="url(#pf529148b52)">
     <use xlink:href="#C1_0_700045c153" x="320.888908" y="118.661028" style="fill: #c9f5c7; stroke: #c9f5c7"/>
    </g>
   </g>
   <g id="Path3DCollection_3">
    <defs>
     <path id="C2_0_0788794b50" d="M 0 2.236068 
C 0.593012 2.236068 1.161816 2.000462 1.581139 1.581139 
C 2.000462 1.161816 2.236068 0.593012 2.236068 -0 
C 2.236068 -0.593012 2.000462 -1.161816 1.581139 -1.581139 
C 1.161816 -2.000462 0.593012 -2.236068 0 -2.236068 
C -0.593012 -2.236068 -1.161816 -2.000462 -1.581139 -1.581139 
C -2.000462 -1.161816 -2.236068 -0.593012 -2.236068 0 
C -2.236068 0.593012 -2.000462 1.161816 -1.581139 1.581139 
C -1.161816 2.000462 -0.593012 2.236068 0 2.236068 
z
"/>
    </defs>
    <g clip-path="url(#pf529148b52)">
     <use xlink:href="#C2_0_0788794b50" x="190.335823" y="76.317879" style="fill: #00c5ff; stroke: #00c5ff"/>
    </g>
    <g clip-path="url(#pf529148b52)">
     <use xlink:href="#C2_0_0788794b50" x="167.419112" y="127.223082" style="fill: #0081b3; stroke: #0081b3"/>
    </g>
    <g clip-path="url(#pf529148b52)">
     <use xlink:href="#C2_0_0788794b50" x="145.607112" y="181.275064" style="fill: #004160; stroke: #004160"/>
    </g>
    <g clip-path="url(#pf529148b52)">
     <use xlink:href="#C2_0_0788794b50" x="308.144474" y="92.050534" style="fill: #b5f0ff; stroke: #b5f0ff"/>
    </g>
    <g clip-path="url(#pf529148b52)">
     <use xlink:href="#C2_0_0788794b50" x="134.489347" y="209.968725" style="fill: #002133; stroke: #002133"/>
    </g>
   </g>
   <g id="Path3DCollection_4">
    <defs>
     <path id="C3_0_cd9f6f4138" d="M 0 2.236068 
C 0.593012 2.236068 1.161816 2.000462 1.581139 1.581139 
C 2.000462 1.161816 2.236068 0.593012 2.236068 -0 
C 2.236068 -0.593012 2.000462 -1.161816 1.581139 -1.581139 
C 1.161816 -2.000462 0.593012 -2.236068 0 -2.236068 
C -0.593012 -2.236068 -1.161816 -2.000462 -1.581139 -1.581139 
C -2.000462 -1.161816 -2.236068 -0.593012 -2.236068 0 
C -2.236068 0.593012 -2.000462 1.161816 -1.581139 1.581139 
C -1.161816 2.000462 -0.593012 2.236068 0 2.236068 
z
"/>
    </defs>
    <g clip-path="url(#pf529148b52)">
     <use xlink:href="#C3_0_cd9f6f4138" x="316.139335" y="229.019697" style="fill: #e9b000; stroke: #e9b000"/>
    </g>
    <g clip-path="url(#pf529148b52)">
     <use xlink:href="#C3_0_cd9f6f4138" x="237.850118" y="235.089453" style="fill: #8b6600; stroke: #8b6600"/>
    </g>
    <g clip-path="url(#pf529148b52)">
     <use xlink:href="#C3_0_cd9f6f4138" x="180.382432" y="239.663171" style="fill: #473000; stroke: #473000"/>
    </g>
    <g clip-path="url(#pf529148b52)">
     <use xlink:href="#C3_0_cd9f6f4138" x="151.383229" y="241.771322" style="fill: #241600; stroke: #241600"/>
    </g>
    <g clip-path="url(#pf529148b52)">
     <use xlink:href="#C3_0_cd9f6f4138" x="338.533577" y="134.66156" style="fill: #efe5ba; stroke: #efe5ba"/>
    </g>
   </g>
   <g id="Path3DCollection_5">
    <defs>
     <path id="C4_0_19dc089d47" d="M 0 2.236068 
C 0.593012 2.236068 1.161816 2.000462 1.581139 1.581139 
C 2.000462 1.161816 2.236068 0.593012 2.236068 -0 
C 2.236068 -0.593012 2.000462 -1.161816 1.581139 -1.581139 
C 1.161816 -2.000462 0.593012 -2.236068 0 -2.236068 
C -0.593012 -2.236068 -1.161816 -2.000462 -1.581139 -1.581139 
C -2.000462 -1.161816 -2.236068 -0.593012 -2.236068 0 
C -2.236068 0.593012 -2.000462 1.161816 -1.581139 1.581139 
C -1.161816 2.000462 -0.593012 2.236068 0 2.236068 
z
"/>
    </defs>
    <g clip-path="url(#pf529148b52)">
     <use xlink:href="#C4_0_19dc089d47" x="153.625131" y="197.766994" style="fill: #133947; stroke: #133947"/>
    </g>
    <g clip-path="url(#pf529148b52)">
     <use xlink:href="#C4_0_19dc089d47" x="135.187372" y="211.097321" style="fill: #002330; stroke: #002330"/>
    </g>
    <g clip-path="url(#pf529148b52)">
     <use xlink:href="#C4_0_19dc089d47" x="190.380344" y="183.4334" style="fill: #405964; stroke: #405964"/>
    </g>
    <g clip-path="url(#pf529148b52)">
     <use xlink:href="#C4_0_19dc089d47" x="210.549597" y="170.143971" style="fill: #56707b; stroke: #56707b"/>
    </g>
    <g clip-path="url(#pf529148b52)">
     <use xlink:href="#C4_0_19dc089d47" x="243.33419" y="161.051363" style="fill: #7f8a8f; stroke: #7f8a8f"/>
    </g>
    <g clip-path="url(#pf529148b52)">
     <use xlink:href="#C4_0_19dc089d47" x="253.990366" y="154.310857" style="fill: #8b969b; stroke: #8b969b"/>
    </g>
    <g clip-path="url(#pf529148b52)">
     <use xlink:href="#C4_0_19dc089d47" x="335.515881" y="123.940352" style="fill: #ebe3d2; stroke: #ebe3d2"/>
    </g>
    <g clip-path="url(#pf529148b52)">
     <use xlink:href="#C4_0_19dc089d47" x="350.248589" y="115.380126" style="fill: #fbf2e1; stroke: #fbf2e1"/>
    </g>
   </g>
   <g id="Path3DCollection_6">
    <defs>
     <path id="C5_0_26d281c55b" d="M 0 2.236068 
C 0.593012 2.236068 1.161816 2.000462 1.581139 1.581139 
C 2.000462 1.161816 2.236068 0.593012 2.236068 -0 
C 2.236068 -0.593012 2.000462 -1.161816 1.581139 -1.581139 
C 1.161816 -2.000462 0.593012 -2.236068 0 -2.236068 
C -0.593012 -2.236068 -1.161816 -2.000462 -1.581139 -1.581139 
C -2.000462 -1.161816 -2.236068 -0.593012 -2.236068 0 
C -2.236068 0.593012 -2.000462 1.161816 -1.581139 1.581139 
C -1.161816 2.000462 -0.593012 2.236068 0 2.236068 
z
"/>
    </defs>
    <g clip-path="url(#pf529148b52)">
     <use xlink:href="#C5_0_26d281c55b" x="123.197291" y="241.969309" style="stroke: #000000"/>
    </g>
    <g clip-path="url(#pf529148b52)">
     <use xlink:href="#C5_0_26d281c55b" x="170.136921" y="213.408851" style="fill: #333333; stroke: #333333"/>
    </g>
    <g clip-path="url(#pf529148b52)">
     <use xlink:href="#C5_0_26d281c55b" x="221.00711" y="182.445908" style="fill: #6b6b6b; stroke: #6b6b6b"/>
    </g>
    <g clip-path="url(#pf529148b52)">
     <use xlink:href="#C5_0_26d281c55b" x="274.700196" y="149.764765" style="fill: #a6a5a5; stroke: #a6a5a5"/>
    </g>
    <g clip-path="url(#pf529148b52)">
     <use xlink:href="#C5_0_26d281c55b" x="357.122702" y="99.402171" style="fill: #ffffff; stroke: #ffffff"/>
    </g>
   </g>
   <g id="Path3DCollection_7">
    <defs>
     <path id="C6_0_78dd3fb085" d="M 0 2.236068 
C 0.593012 2.236068 1.161816 2.000462 1.581139 1.581139 
C 2.000462 1.161816 2.236068 0.593012 2.236068 -0 
C 2.236068 -0.593012 2.000462 -1.161816 1.581139 -1.581139 
C 1.161816 -2.000462 0.593012 -2.236068 0 -2.236068 
C -0.593012 -2.236068 -1.161816 -2.000462 -1.581139 -1.581139 
C -2.000462 -1.161816 -2.236068 -0.593012 -2.236068 0 
C -2.236068 0.593012 -2.000462 1.161816 -1.581139 1.581139 
C -1.161816 2.000462 -0.593012 2.236068 0 2.236068 
z
"/>
    </defs>
    <g clip-path="url(#pf529148b52)">
     <use xlink:href="#C6_0_78dd3fb085" x="152.362998" y="251.494829" style="fill: #340000; stroke: #340000"/>
    </g>
    <g clip-path="url(#pf529148b52)">
     <use xlink:href="#C6_0_78dd3fb085" x="342.829871" y="137.257245" style="fill: #ffd3c5; stroke: #ffd3c5"/>
    </g>
    <g clip-path="url(#pf529148b52)">
     <use xlink:href="#C6_0_78dd3fb085" x="177.654767" y="259.75512" style="fill: #600000; stroke: #600000"/>
    </g>
    <g clip-path="url(#pf529148b52)">
     <use xlink:href="#C6_0_78dd3fb085" x="241.520171" y="253.684262" style="fill: #b42a13; stroke: #b42a13"/>
    </g>
    <g clip-path="url(#pf529148b52)">
     <use xlink:href="#C6_0_78dd3fb085" x="302.579374" y="234.434226" style="fill: #ff593d; stroke: #ff593d"/>
    </g>
   </g>
   <g id="Path3DCollection_8">
    <defs>
     <path id="C7_0_9110d5cf95" d="M 0 2.236068 
C 0.593012 2.236068 1.161816 2.000462 1.581139 1.581139 
C 2.000462 1.161816 2.236068 0.593012 2.236068 -0 
C 2.236068 -0.593012 2.000462 -1.161816 1.581139 -1.581139 
C 1.161816 -2.000462 0.593012 -2.236068 0 -2.236068 
C -0.593012 -2.236068 -1.161816 -2.000462 -1.581139 -1.581139 
C -2.000462 -1.161816 -2.236068 -0.593012 -2.236068 0 
C -2.236068 0.593012 -2.000462 1.161816 -1.581139 1.581139 
C -1.161816 2.000462 -0.593012 2.236068 0 2.236068 
z
"/>
    </defs>
    <g clip-path="url(#pf529148b52)">
     <use xlink:href="#C7_0_9110d5cf95" x="133.97547" y="216.296019" style="fill: #0f093c; stroke: #0f093c"/>
    </g>
    <g clip-path="url(#pf529148b52)">
     <use xlink:href="#C7_0_9110d5cf95" x="323.558348" y="102.25228" style="fill: #d8deff; stroke: #d8deff"/>
    </g>
    <g clip-path="url(#pf529148b52)">
     <use xlink:href="#C7_0_9110d5cf95" x="153.661048" y="192.925985" style="fill: #271c6e; stroke: #271c6e"/>
    </g>
    <g clip-path="url(#pf529148b52)">
     <use xlink:href="#C7_0_9110d5cf95" x="197.34742" y="146.706295" style="fill: #5849cb; stroke: #5849cb"/>
    </g>
    <g clip-path="url(#pf529148b52)">
     <use xlink:href="#C7_0_9110d5cf95" x="241.127083" y="120.488413" style="fill: #8b6fff; stroke: #8b6fff"/>
    </g>
   </g>
   <g id="Path3DCollection_9">
    <defs>
     <path id="C8_0_ae008e70ab" d="M 0 2.236068 
C 0.593012 2.236068 1.161816 2.000462 1.581139 1.581139 
C 2.000462 1.161816 2.236068 0.593012 2.236068 -0 
C 2.236068 -0.593012 2.000462 -1.161816 1.581139 -1.581139 
C 1.161816 -2.000462 0.593012 -2.236068 0 -2.236068 
C -0.593012 -2.236068 -1.161816 -2.000462 -1.581139 -1.581139 
C -2.000462 -1.161816 -2.236068 -0.593012 -2.236068 0 
C -2.236068 0.593012 -2.000462 1.161816 -1.581139 1.581139 
C -1.161816 2.000462 -0.593012 2.236068 0 2.236068 
z
"/>
    </defs>
    <g clip-path="url(#pf529148b52)">
     <use xlink:href="#C8_0_ae008e70ab" x="152.861991" y="242.288026" style="fill: #350016; stroke: #350016"/>
    </g>
    <g clip-path="url(#pf529148b52)">
     <use xlink:href="#C8_0_ae008e70ab" x="340.374634" y="127.543327" style="fill: #ffc9e1; stroke: #ffc9e1"/>
    </g>
    <g clip-path="url(#pf529148b52)">
     <use xlink:href="#C8_0_ae008e70ab" x="178.526246" y="239.149311" style="fill: #620031; stroke: #620031"/>
    </g>
    <g clip-path="url(#pf529148b52)">
     <use xlink:href="#C8_0_ae008e70ab" x="228.243224" y="230.962007" style="fill: #b60067; stroke: #b60067"/>
    </g>
    <g clip-path="url(#pf529148b52)">
     <use xlink:href="#C8_0_ae008e70ab" x="273.675467" y="219.029635" style="fill: #ff00a0; stroke: #ff00a0"/>
    </g>
   </g>
   <g id="Path3DCollection_10">
    <defs>
     <path id="C9_0_1e0013cd79" d="M 0 2.236068 
C 0.593012 2.236068 1.161816 2.000462 1.581139 1.581139 
C 2.000462 1.161816 2.236068 0.593012 2.236068 -0 
C 2.236068 -0.593012 2.000462 -1.161816 1.581139 -1.581139 
C 1.161816 -2.000462 0.593012 -2.236068 0 -2.236068 
C -0.593012 -2.236068 -1.161816 -2.000462 -1.581139 -1.581139 
C -2.000462 -1.161816 -2.236068 -0.593012 -2.236068 0 
C -2.236068 0.593012 -2.000462 1.161816 -1.581139 1.581139 
C -1.161816 2.000462 -0.593012 2.236068 0 2.236068 
z
"/>
    </defs>
    <g clip-path="url(#pf529148b52)">
     <use xlink:href="#C9_0_1e0013cd79" x="146.544363" y="229.364392" style="fill: #2b0030; stroke: #2b0030"/>
    </g>
    <g clip-path="url(#pf529148b52)">
     <use xlink:href="#C9_0_1e0013cd79" x="339.407228" y="112.693179" style="fill: #facefe; stroke: #facefe"/>
    </g>
    <g clip-path="url(#pf529148b52)">
     <use xlink:href="#C9_0_1e0013cd79" x="168.30636" y="218.103777" style="fill: #52005a; stroke: #52005a"/>
    </g>
    <g clip-path="url(#pf529148b52)">
     <use xlink:href="#C9_0_1e0013cd79" x="211.266227" y="196.581696" style="fill: #9b00a8; stroke: #9b00a8"/>
    </g>
    <g clip-path="url(#pf529148b52)">
     <use xlink:href="#C9_0_1e0013cd79" x="263.304518" y="170.944615" style="fill: #ee00ff; stroke: #ee00ff"/>
    </g>
   </g>
  </g>
 </g>
 <defs>
  <clipPath id="pf529148b52">
   <rect x="103.104" y="41.472" width="266.112" height="266.112"/>
  </clipPath>
 </defs>
</svg>
