<?xml version="1.0" encoding="utf-8" standalone="no"?>
<!DOCTYPE svg PUBLIC "-//W3C//DTD SVG 1.1//EN"
  "http://www.w3.org/Graphics/SVG/1.1/DTD/svg11.dtd">
<svg xmlns:xlink="http://www.w3.org/1999/xlink" width="460.8pt" height="345.6pt" viewBox="0 0 460.8 345.6" xmlns="http://www.w3.org/2000/svg" version="1.1">
 <metadata>
  <rdf:RDF xmlns:dc="http://purl.org/dc/elements/1.1/" xmlns:cc="http://creativecommons.org/ns#" xmlns:rdf="http://www.w3.org/1999/02/22-rdf-syntax-ns#">
   <cc:Work>
    <dc:type rdf:resource="http://purl.org/dc/dcmitype/StillImage"/>
    <dc:date>2024-06-11T21:41:08.350764</dc:date>
    <dc:format>image/svg+xml</dc:format>
    <dc:creator>
     <cc:Agent>
      <dc:title>Matplotlib v3.9.0, https://matplotlib.org/</dc:title>
     </cc:Agent>
    </dc:creator>
   </cc:Work>
  </rdf:RDF>
 </metadata>
 <defs>
  <style type="text/css">*{stroke-linejoin: round; stroke-linecap: butt}</style>
 </defs>
 <g id="figure_1">
  <g id="patch_1">
   <path d="M 0 345.6 
L 460.8 345.6 
L 460.8 0 
L 0 0 
z
" style="fill: #ffffff"/>
  </g>
  <g id="patch_2">
   <path d="M 103.104 307.584 
L 369.216 307.584 
L 369.216 41.472 
L 103.104 41.472 
z
" style="fill: #ffffff"/>
  </g>
  <g id="pane3d_1">
   <g id="patch_3">
    <path d="M 123.197291 241.969309 
L 211.076164 168.307495 
L 209.854564 62.073991 
L 117.770234 129.272941 
" style="fill: #f2f2f2; opacity: 0.5; stroke: #f2f2f2; stroke-linejoin: miter"/>
   </g>
  </g>
  <g id="pane3d_2">
   <g id="patch_4">
    <path d="M 211.076164 168.307495 
L 352.090401 209.294766 
L 357.122702 99.402171 
L 209.854564 62.073991 
" style="fill: #e6e6e6; opacity: 0.5; stroke: #e6e6e6; stroke-linejoin: miter"/>
   </g>
  </g>
  <g id="pane3d_3">
   <g id="patch_5">
    <path d="M 123.197291 241.969309 
L 272.679269 290.790123 
L 352.090401 209.294766 
L 211.076164 168.307495 
" style="fill: #ececec; opacity: 0.5; stroke: #ececec; stroke-linejoin: miter"/>
   </g>
  </g>
  <g id="grid3d_1">
   <g id="Line3DCollection_1">
    <path d="M 123.197291 241.969309 
L 211.076164 168.307495 
L 209.854564 62.073991 
" style="fill: none; stroke: #b0b0b0; stroke-width: 0.8"/>
    <path d="M 151.284689 251.142653 
L 237.667621 176.036581 
L 237.577797 69.101022 
" style="fill: none; stroke: #b0b0b0; stroke-width: 0.8"/>
    <path d="M 179.949562 260.504601 
L 264.760284 183.911349 
L 265.846264 76.266255 
" style="fill: none; stroke: #b0b0b0; stroke-width: 0.8"/>
    <path d="M 209.209907 270.061029 
L 292.368458 191.935955 
L 294.676208 83.573805 
" style="fill: none; stroke: #b0b0b0; stroke-width: 0.8"/>
    <path d="M 239.084471 279.818062 
L 320.506998 200.114718 
L 324.084526 91.027956 
" style="fill: none; stroke: #b0b0b0; stroke-width: 0.8"/>
    <path d="M 269.592802 289.782082 
L 349.191336 208.452123 
L 354.088799 98.633165 
" style="fill: none; stroke: #b0b0b0; stroke-width: 0.8"/>
   </g>
  </g>
  <g id="grid3d_2">
   <g id="Line3DCollection_2">
    <path d="M 117.770234 129.272941 
L 123.197291 241.969309 
L 272.679269 290.790123 
" style="fill: none; stroke: #b0b0b0; stroke-width: 0.8"/>
    <path d="M 137.153441 115.127959 
L 141.639881 226.510365 
L 289.402998 273.627462 
" style="fill: none; stroke: #b0b0b0; stroke-width: 0.8"/>
    <path d="M 155.853747 101.481327 
L 159.460641 211.57265 
L 305.533401 257.073701 
" style="fill: none; stroke: #b0b0b0; stroke-width: 0.8"/>
    <path d="M 173.906617 88.307165 
L 176.690501 197.13024 
L 321.101502 241.096999 
" style="fill: none; stroke: #b0b0b0; stroke-width: 0.8"/>
    <path d="M 191.345101 75.581354 
L 193.35837 183.158902 
L 336.1362 225.667701 
" style="fill: none; stroke: #b0b0b0; stroke-width: 0.8"/>
    <path d="M 208.200039 63.281388 
L 209.491303 169.635957 
L 350.664447 210.758145 
" style="fill: none; stroke: #b0b0b0; stroke-width: 0.8"/>
   </g>
  </g>
  <g id="grid3d_3">
   <g id="Line3DCollection_3">
    <path d="M 352.090401 209.294766 
L 211.076164 168.307495 
L 123.197291 241.969309 
" style="fill: none; stroke: #b0b0b0; stroke-width: 0.8"/>
    <path d="M 353.042826 188.496231 
L 210.844565 148.167054 
L 122.171557 220.669267 
" style="fill: none; stroke: #b0b0b0; stroke-width: 0.8"/>
    <path d="M 354.01154 167.342 
L 210.609196 127.698685 
L 121.127609 198.991009 
" style="fill: none; stroke: #b0b0b0; stroke-width: 0.8"/>
    <path d="M 354.996963 145.822869 
L 210.369962 106.894312 
L 120.064958 176.924372 
" style="fill: none; stroke: #b0b0b0; stroke-width: 0.8"/>
    <path d="M 355.999532 123.929315 
L 210.126768 85.745595 
L 118.983096 154.458825 
" style="fill: none; stroke: #b0b0b0; stroke-width: 0.8"/>
    <path d="M 357.019699 101.65148 
L 209.879516 64.243913 
L 117.8815 131.583451 
" style="fill: none; stroke: #b0b0b0; stroke-width: 0.8"/>
   </g>
  </g>
  <g id="axis3d_1">
   <g id="line2d_1">
    <path d="M 123.197291 241.969309 
L 272.679269 290.790123 
" style="fill: none; stroke: #000000; stroke-width: 0.8; stroke-linecap: square"/>
   </g>
   <g id="xtick_1">
    <g id="line2d_2">
     <path d="M 123.962332 241.328036 
L 121.663937 243.254597 
" style="fill: none; stroke: #000000; stroke-width: 0.8; stroke-linecap: square"/>
    </g>
    <g id="text_1">
     <!-- 0 -->
     <g transform="translate(112.478153 265.215952) scale(0.1 -0.1)">
      <defs>
       <path id="DejaVuSans-30" d="M 2034 4250 
Q 1547 4250 1301 3770 
Q 1056 3291 1056 2328 
Q 1056 1369 1301 889 
Q 1547 409 2034 409 
Q 2525 409 2770 889 
Q 3016 1369 3016 2328 
Q 3016 3291 2770 3770 
Q 2525 4250 2034 4250 
z
M 2034 4750 
Q 2819 4750 3233 4129 
Q 3647 3509 3647 2328 
Q 3647 1150 3233 529 
Q 2819 -91 2034 -91 
Q 1250 -91 836 529 
Q 422 1150 422 2328 
Q 422 3509 836 4129 
Q 1250 4750 2034 4750 
z
" transform="scale(0.015625)"/>
      </defs>
      <use xlink:href="#DejaVuSans-30"/>
     </g>
    </g>
   </g>
   <g id="xtick_2">
    <g id="line2d_3">
     <path d="M 152.037326 250.488268 
L 149.776161 252.45425 
" style="fill: none; stroke: #000000; stroke-width: 0.8; stroke-linecap: square"/>
    </g>
    <g id="text_2">
     <!-- 50 -->
     <g transform="translate(137.412441 274.583454) scale(0.1 -0.1)">
      <defs>
       <path id="DejaVuSans-35" d="M 691 4666 
L 3169 4666 
L 3169 4134 
L 1269 4134 
L 1269 2991 
Q 1406 3038 1543 3061 
Q 1681 3084 1819 3084 
Q 2600 3084 3056 2656 
Q 3513 2228 3513 1497 
Q 3513 744 3044 326 
Q 2575 -91 1722 -91 
Q 1428 -91 1123 -41 
Q 819 9 494 109 
L 494 744 
Q 775 591 1075 516 
Q 1375 441 1709 441 
Q 2250 441 2565 725 
Q 2881 1009 2881 1497 
Q 2881 1984 2565 2268 
Q 2250 2553 1709 2553 
Q 1456 2553 1204 2497 
Q 953 2441 691 2322 
L 691 4666 
z
" transform="scale(0.015625)"/>
      </defs>
      <use xlink:href="#DejaVuSans-35"/>
      <use xlink:href="#DejaVuSans-30" x="63.623047"/>
     </g>
    </g>
   </g>
   <g id="xtick_3">
    <g id="line2d_4">
     <path d="M 180.689123 259.836698 
L 178.467213 261.843322 
" style="fill: none; stroke: #000000; stroke-width: 0.8; stroke-linecap: square"/>
    </g>
    <g id="text_3">
     <!-- 100 -->
     <g transform="translate(162.926969 284.144279) scale(0.1 -0.1)">
      <defs>
       <path id="DejaVuSans-31" d="M 794 531 
L 1825 531 
L 1825 4091 
L 703 3866 
L 703 4441 
L 1819 4666 
L 2450 4666 
L 2450 531 
L 3481 531 
L 3481 0 
L 794 0 
L 794 531 
z
" transform="scale(0.015625)"/>
      </defs>
      <use xlink:href="#DejaVuSans-31"/>
      <use xlink:href="#DejaVuSans-30" x="63.623047"/>
      <use xlink:href="#DejaVuSans-30" x="127.246094"/>
     </g>
    </g>
   </g>
   <g id="xtick_4">
    <g id="line2d_5">
     <path d="M 209.935681 269.379184 
L 207.755156 271.427725 
" style="fill: none; stroke: #000000; stroke-width: 0.8; stroke-linecap: square"/>
    </g>
    <g id="text_4">
     <!-- 150 -->
     <g transform="translate(192.221138 293.904475) scale(0.1 -0.1)">
      <use xlink:href="#DejaVuSans-31"/>
      <use xlink:href="#DejaVuSans-35" x="63.623047"/>
      <use xlink:href="#DejaVuSans-30" x="127.246094"/>
     </g>
    </g>
   </g>
   <g id="xtick_5">
    <g id="line2d_6">
     <path d="M 239.795716 279.121834 
L 237.658812 281.213619 
" style="fill: none; stroke: #000000; stroke-width: 0.8; stroke-linecap: square"/>
    </g>
    <g id="text_5">
     <!-- 200 -->
     <g transform="translate(222.132612 303.870345) scale(0.1 -0.1)">
      <defs>
       <path id="DejaVuSans-32" d="M 1228 531 
L 3431 531 
L 3431 0 
L 469 0 
L 469 531 
Q 828 903 1448 1529 
Q 2069 2156 2228 2338 
Q 2531 2678 2651 2914 
Q 2772 3150 2772 3378 
Q 2772 3750 2511 3984 
Q 2250 4219 1831 4219 
Q 1534 4219 1204 4116 
Q 875 4013 500 3803 
L 500 4441 
Q 881 4594 1212 4672 
Q 1544 4750 1819 4750 
Q 2544 4750 2975 4387 
Q 3406 4025 3406 3419 
Q 3406 3131 3298 2873 
Q 3191 2616 2906 2266 
Q 2828 2175 2409 1742 
Q 1991 1309 1228 531 
z
" transform="scale(0.015625)"/>
      </defs>
      <use xlink:href="#DejaVuSans-32"/>
      <use xlink:href="#DejaVuSans-30" x="63.623047"/>
      <use xlink:href="#DejaVuSans-30" x="127.246094"/>
     </g>
    </g>
   </g>
   <g id="xtick_6">
    <g id="line2d_7">
     <path d="M 270.288734 289.071012 
L 268.197803 291.207425 
" style="fill: none; stroke: #000000; stroke-width: 0.8; stroke-linecap: square"/>
    </g>
    <g id="text_6">
     <!-- 250 -->
     <g transform="translate(252.681111 314.048457) scale(0.1 -0.1)">
      <use xlink:href="#DejaVuSans-32"/>
      <use xlink:href="#DejaVuSans-35" x="63.623047"/>
      <use xlink:href="#DejaVuSans-30" x="127.246094"/>
     </g>
    </g>
   </g>
  </g>
  <g id="axis3d_2">
   <g id="line2d_8">
    <path d="M 352.090401 209.294766 
L 272.679269 290.790123 
" style="fill: none; stroke: #000000; stroke-width: 0.8; stroke-linecap: square"/>
   </g>
   <g id="xtick_7">
    <g id="line2d_9">
     <path d="M 271.419199 290.378584 
L 275.202687 291.614271 
" style="fill: none; stroke: #000000; stroke-width: 0.8; stroke-linecap: square"/>
    </g>
    <g id="text_7">
     <!-- 0 -->
     <g transform="translate(282.452273 311.89542) scale(0.1 -0.1)">
      <use xlink:href="#DejaVuSans-30"/>
     </g>
    </g>
   </g>
   <g id="xtick_8">
    <g id="line2d_10">
     <path d="M 288.158564 273.23065 
L 291.895047 274.4221 
" style="fill: none; stroke: #000000; stroke-width: 0.8; stroke-linecap: square"/>
    </g>
    <g id="text_8">
     <!-- 50 -->
     <g transform="translate(295.770559 294.478538) scale(0.1 -0.1)">
      <use xlink:href="#DejaVuSans-35"/>
      <use xlink:href="#DejaVuSans-30" x="63.623047"/>
     </g>
    </g>
   </g>
   <g id="xtick_9">
    <g id="line2d_11">
     <path d="M 304.304295 256.690839 
L 307.994698 257.840384 
" style="fill: none; stroke: #000000; stroke-width: 0.8; stroke-linecap: square"/>
    </g>
    <g id="text_9">
     <!-- 100 -->
     <g transform="translate(308.503132 277.679933) scale(0.1 -0.1)">
      <use xlink:href="#DejaVuSans-31"/>
      <use xlink:href="#DejaVuSans-30" x="63.623047"/>
      <use xlink:href="#DejaVuSans-30" x="127.246094"/>
     </g>
    </g>
   </g>
   <g id="xtick_10">
    <g id="line2d_12">
     <path d="M 319.887421 240.727365 
L 323.532658 241.837179 
" style="fill: none; stroke: #000000; stroke-width: 0.8; stroke-linecap: square"/>
    </g>
    <g id="text_10">
     <!-- 150 -->
     <g transform="translate(323.861887 261.467258) scale(0.1 -0.1)">
      <use xlink:href="#DejaVuSans-31"/>
      <use xlink:href="#DejaVuSans-35" x="63.623047"/>
      <use xlink:href="#DejaVuSans-30" x="127.246094"/>
     </g>
    </g>
   </g>
   <g id="xtick_11">
    <g id="line2d_13">
     <path d="M 334.936845 225.31062 
L 338.537818 226.382727 
" style="fill: none; stroke: #000000; stroke-width: 0.8; stroke-linecap: square"/>
    </g>
    <g id="text_11">
     <!-- 200 -->
     <g transform="translate(338.694117 245.810382) scale(0.1 -0.1)">
      <use xlink:href="#DejaVuSans-32"/>
      <use xlink:href="#DejaVuSans-30" x="63.623047"/>
      <use xlink:href="#DejaVuSans-30" x="127.246094"/>
     </g>
    </g>
   </g>
   <g id="xtick_12">
    <g id="line2d_14">
     <path d="M 349.479522 210.41299 
L 353.03712 211.449279 
" style="fill: none; stroke: #000000; stroke-width: 0.8; stroke-linecap: square"/>
    </g>
    <g id="text_12">
     <!-- 250 -->
     <g transform="translate(353.02644 230.681207) scale(0.1 -0.1)">
      <use xlink:href="#DejaVuSans-32"/>
      <use xlink:href="#DejaVuSans-35" x="63.623047"/>
      <use xlink:href="#DejaVuSans-30" x="127.246094"/>
     </g>
    </g>
   </g>
  </g>
  <g id="axis3d_3">
   <g id="line2d_15">
    <path d="M 352.090401 209.294766 
L 357.122702 99.402171 
" style="fill: none; stroke: #000000; stroke-width: 0.8; stroke-linecap: square"/>
   </g>
   <g id="xtick_13">
    <g id="line2d_16">
     <path d="M 350.906903 208.95077 
L 354.460211 209.983577 
" style="fill: none; stroke: #000000; stroke-width: 0.8; stroke-linecap: square"/>
    </g>
    <g id="text_13">
     <!-- 0 -->
     <g transform="translate(367.15779 214.288206) scale(0.1 -0.1)">
      <use xlink:href="#DejaVuSans-30"/>
     </g>
    </g>
   </g>
   <g id="xtick_14">
    <g id="line2d_17">
     <path d="M 351.848917 188.157624 
L 355.433506 189.174257 
" style="fill: none; stroke: #000000; stroke-width: 0.8; stroke-linecap: square"/>
    </g>
    <g id="text_14">
     <!-- 50 -->
     <g transform="translate(365.080339 193.530537) scale(0.1 -0.1)">
      <use xlink:href="#DejaVuSans-35"/>
      <use xlink:href="#DejaVuSans-30" x="63.623047"/>
     </g>
    </g>
   </g>
   <g id="xtick_15">
    <g id="line2d_18">
     <path d="M 352.807036 167.009017 
L 356.42346 168.008771 
" style="fill: none; stroke: #000000; stroke-width: 0.8; stroke-linecap: square"/>
    </g>
    <g id="text_15">
     <!-- 100 -->
     <g transform="translate(363.021707 172.418953) scale(0.1 -0.1)">
      <use xlink:href="#DejaVuSans-31"/>
      <use xlink:href="#DejaVuSans-30" x="63.623047"/>
      <use xlink:href="#DejaVuSans-30" x="127.246094"/>
     </g>
    </g>
   </g>
   <g id="xtick_16">
    <g id="line2d_19">
     <path d="M 353.781675 145.495756 
L 357.430504 146.477894 
" style="fill: none; stroke: #000000; stroke-width: 0.8; stroke-linecap: square"/>
    </g>
    <g id="text_16">
     <!-- 150 -->
     <g transform="translate(364.16363 150.944325) scale(0.1 -0.1)">
      <use xlink:href="#DejaVuSans-31"/>
      <use xlink:href="#DejaVuSans-35" x="63.623047"/>
      <use xlink:href="#DejaVuSans-30" x="127.246094"/>
     </g>
    </g>
   </g>
   <g id="xtick_17">
    <g id="line2d_20">
     <path d="M 354.773265 123.608327 
L 358.455085 124.572081 
" style="fill: none; stroke: #000000; stroke-width: 0.8; stroke-linecap: square"/>
    </g>
    <g id="text_17">
     <!-- 200 -->
     <g transform="translate(365.325361 129.097208) scale(0.1 -0.1)">
      <use xlink:href="#DejaVuSans-32"/>
      <use xlink:href="#DejaVuSans-30" x="63.623047"/>
      <use xlink:href="#DejaVuSans-30" x="127.246094"/>
     </g>
    </g>
   </g>
   <g id="xtick_18">
    <g id="line2d_21">
     <path d="M 355.782253 101.336883 
L 359.497664 102.281455 
" style="fill: none; stroke: #000000; stroke-width: 0.8; stroke-linecap: square"/>
    </g>
    <g id="text_18">
     <!-- 250 -->
     <g transform="translate(366.507419 106.867824) scale(0.1 -0.1)">
      <use xlink:href="#DejaVuSans-32"/>
      <use xlink:href="#DejaVuSans-35" x="63.623047"/>
      <use xlink:href="#DejaVuSans-30" x="127.246094"/>
     </g>
    </g>
   </g>
  </g>
  <g id="axes_1">
   <g id="line2d_22">
    <path d="M 160.645221 251.570188 
L 185.558534 257.92178 
" clip-path="url(#pc644791e61)" style="fill: none; stroke: #670a00; stroke-opacity: 0.25; stroke-width: 1.5; stroke-linecap: square"/>
   </g>
   <g id="line2d_23">
    <path d="M 185.558534 257.92178 
L 256.209452 240.614984 
" clip-path="url(#pc644791e61)" style="fill: none; stroke: #c13e28; stroke-opacity: 0.25; stroke-width: 1.5; stroke-linecap: square"/>
   </g>
   <g id="line2d_24">
    <path d="M 256.209452 240.614984 
L 299.645255 241.109122 
" clip-path="url(#pc644791e61)" style="fill: none; stroke: #ff5034; stroke-opacity: 0.25; stroke-width: 1.5; stroke-linecap: square"/>
   </g>
   <g id="line2d_25">
    <path d="M 299.645255 241.109122 
L 347.115225 127.710684 
" clip-path="url(#pc644791e61)" style="fill: none; stroke: #ffe0d2; stroke-opacity: 0.25; stroke-width: 1.5; stroke-linecap: square"/>
   </g>
   <g id="line2d_26">
    <path d="M 347.115225 127.710684 
L 160.645221 251.570188 
" clip-path="url(#pc644791e61)" style="fill: none; stroke: #ffe0d2; stroke-opacity: 0.25; stroke-width: 1.5; stroke-linecap: square"/>
   </g>
   <g id="line2d_27">
    <path d="M 160.307098 240.251952 
L 186.242557 238.796976 
" clip-path="url(#pc644791e61)" style="fill: none; stroke: #4d3700; stroke-opacity: 0.25; stroke-width: 1.5; stroke-linecap: square"/>
   </g>
   <g id="line2d_28">
    <path d="M 186.242557 238.796976 
L 251.40649 234.582986 
" clip-path="url(#pc644791e61)" style="fill: none; stroke: #9c7200; stroke-opacity: 0.25; stroke-width: 1.5; stroke-linecap: square"/>
   </g>
   <g id="line2d_29">
    <path d="M 251.40649 234.582986 
L 335.513751 226.306486 
" clip-path="url(#pc644791e61)" style="fill: none; stroke: #ffc600; stroke-opacity: 0.25; stroke-width: 1.5; stroke-linecap: square"/>
   </g>
   <g id="line2d_30">
    <path d="M 335.513751 226.306486 
L 351.536412 127.480632 
" clip-path="url(#pc644791e61)" style="fill: none; stroke: #fef3c7; stroke-opacity: 0.25; stroke-width: 1.5; stroke-linecap: square"/>
   </g>
   <g id="line2d_31">
    <path d="M 351.536412 127.480632 
L 160.307098 240.251952 
" clip-path="url(#pc644791e61)" style="fill: none; stroke: #fef3c7; stroke-opacity: 0.25; stroke-width: 1.5; stroke-linecap: square"/>
   </g>
   <g id="line2d_32">
    <path d="M 140.729741 227.273262 
L 152.277311 217.59386 
" clip-path="url(#pc644791e61)" style="fill: none; stroke: #005000; stroke-opacity: 0.25; stroke-width: 1.5; stroke-linecap: square"/>
   </g>
   <g id="line2d_33">
    <path d="M 152.277311 217.59386 
L 178.520243 186.266951 
" clip-path="url(#pc644791e61)" style="fill: none; stroke: #009c16; stroke-opacity: 0.25; stroke-width: 1.5; stroke-linecap: square"/>
   </g>
   <g id="line2d_34">
    <path d="M 178.520243 186.266951 
L 206.006301 153.749614 
" clip-path="url(#pc644791e61)" style="fill: none; stroke: #00f02e; stroke-opacity: 0.25; stroke-width: 1.5; stroke-linecap: square"/>
   </g>
   <g id="line2d_35">
    <path d="M 206.006301 153.749614 
L 331.946464 112.20339 
" clip-path="url(#pc644791e61)" style="fill: none; stroke: #d6ffd4; stroke-opacity: 0.25; stroke-width: 1.5; stroke-linecap: square"/>
   </g>
   <g id="line2d_36">
    <path d="M 331.946464 112.20339 
L 140.729741 227.273262 
" clip-path="url(#pc644791e61)" style="fill: none; stroke: #d6ffd4; stroke-opacity: 0.25; stroke-width: 1.5; stroke-linecap: square"/>
   </g>
   <g id="line2d_37">
    <path d="M 141.795523 211.284386 
L 154.011543 190.284355 
" clip-path="url(#pc644791e61)" style="fill: none; stroke: #00573c; stroke-opacity: 0.25; stroke-width: 1.5; stroke-linecap: square"/>
   </g>
   <g id="line2d_38">
    <path d="M 154.011543 190.284355 
L 181.614994 140.593827 
" clip-path="url(#pc644791e61)" style="fill: none; stroke: #00a87c; stroke-opacity: 0.25; stroke-width: 1.5; stroke-linecap: square"/>
   </g>
   <g id="line2d_39">
    <path d="M 181.614994 140.593827 
L 210.167223 89.2636 
" clip-path="url(#pc644791e61)" style="fill: none; stroke: #00ffc0; stroke-opacity: 0.25; stroke-width: 1.5; stroke-linecap: square"/>
   </g>
   <g id="line2d_40">
    <path d="M 210.167223 89.2636 
L 315.200445 94.396104 
" clip-path="url(#pc644791e61)" style="fill: none; stroke: #b9fff2; stroke-opacity: 0.25; stroke-width: 1.5; stroke-linecap: square"/>
   </g>
   <g id="line2d_41">
    <path d="M 315.200445 94.396104 
L 141.795523 211.284386 
" clip-path="url(#pc644791e61)" style="fill: none; stroke: #b9fff2; stroke-opacity: 0.25; stroke-width: 1.5; stroke-linecap: square"/>
   </g>
   <g id="line2d_42">
    <path d="M 137.982863 202.775854 
L 147.910161 176.35954 
" clip-path="url(#pc644791e61)" style="fill: none; stroke: #004867; stroke-opacity: 0.25; stroke-width: 1.5; stroke-linecap: square"/>
   </g>
   <g id="line2d_43">
    <path d="M 147.910161 176.35954 
L 172.173494 116.672048 
" clip-path="url(#pc644791e61)" style="fill: none; stroke: #008fc3; stroke-opacity: 0.25; stroke-width: 1.5; stroke-linecap: square"/>
   </g>
   <g id="line2d_44">
    <path d="M 172.173494 116.672048 
L 198.014273 70.714496 
" clip-path="url(#pc644791e61)" style="fill: none; stroke: #00dcff; stroke-opacity: 0.25; stroke-width: 1.5; stroke-linecap: square"/>
   </g>
   <g id="line2d_45">
    <path d="M 198.014273 70.714496 
L 320.030714 90.209353 
" clip-path="url(#pc644791e61)" style="fill: none; stroke: #c1feff; stroke-opacity: 0.25; stroke-width: 1.5; stroke-linecap: square"/>
   </g>
   <g id="line2d_46">
    <path d="M 320.030714 90.209353 
L 137.982863 202.775854 
" clip-path="url(#pc644791e61)" style="fill: none; stroke: #c1feff; stroke-opacity: 0.25; stroke-width: 1.5; stroke-linecap: square"/>
   </g>
   <g id="line2d_47">
    <path d="M 143.250225 209.717247 
L 159.445226 188.392921 
" clip-path="url(#pc644791e61)" style="fill: none; stroke: #2c2475; stroke-opacity: 0.25; stroke-width: 1.5; stroke-linecap: square"/>
   </g>
   <g id="line2d_48">
    <path d="M 159.445226 188.392921 
L 208.689054 137.21481 
" clip-path="url(#pc644791e61)" style="fill: none; stroke: #6356db; stroke-opacity: 0.25; stroke-width: 1.5; stroke-linecap: square"/>
   </g>
   <g id="line2d_49">
    <path d="M 208.689054 137.21481 
L 233.434075 119.893549 
" clip-path="url(#pc644791e61)" style="fill: none; stroke: #816bff; stroke-opacity: 0.25; stroke-width: 1.5; stroke-linecap: square"/>
   </g>
   <g id="line2d_50">
    <path d="M 233.434075 119.893549 
L 316.995156 99.601896 
" clip-path="url(#pc644791e61)" style="fill: none; stroke: #cce1ff; stroke-opacity: 0.25; stroke-width: 1.5; stroke-linecap: square"/>
   </g>
   <g id="line2d_51">
    <path d="M 316.995156 99.601896 
L 143.250225 209.717247 
" clip-path="url(#pc644791e61)" style="fill: none; stroke: #cce1ff; stroke-opacity: 0.25; stroke-width: 1.5; stroke-linecap: square"/>
   </g>
   <g id="line2d_52">
    <path d="M 152.097461 226.916219 
L 172.228972 216.317069 
" clip-path="url(#pc644791e61)" style="fill: none; stroke: #590061; stroke-opacity: 0.25; stroke-width: 1.5; stroke-linecap: square"/>
   </g>
   <g id="line2d_53">
    <path d="M 172.228972 216.317069 
L 226.89487 186.598902 
" clip-path="url(#pc644791e61)" style="fill: none; stroke: #aa12b7; stroke-opacity: 0.25; stroke-width: 1.5; stroke-linecap: square"/>
   </g>
   <g id="line2d_54">
    <path d="M 226.89487 186.598902 
L 277.551983 156.021628 
" clip-path="url(#pc644791e61)" style="fill: none; stroke: #e43af4; stroke-opacity: 0.25; stroke-width: 1.5; stroke-linecap: square"/>
   </g>
   <g id="line2d_55">
    <path d="M 277.551983 156.021628 
L 346.342332 109.123972 
" clip-path="url(#pc644791e61)" style="fill: none; stroke: #ffdbff; stroke-opacity: 0.25; stroke-width: 1.5; stroke-linecap: square"/>
   </g>
   <g id="line2d_56">
    <path d="M 346.342332 109.123972 
L 152.097461 226.916219 
" clip-path="url(#pc644791e61)" style="fill: none; stroke: #ffdbff; stroke-opacity: 0.25; stroke-width: 1.5; stroke-linecap: square"/>
   </g>
   <g id="line2d_57">
    <path d="M 159.027062 240.352596 
L 182.939906 237.973286 
" clip-path="url(#pc644791e61)" style="fill: none; stroke: #6a0037; stroke-opacity: 0.25; stroke-width: 1.5; stroke-linecap: square"/>
   </g>
   <g id="line2d_58">
    <path d="M 182.939906 237.973286 
L 241.907861 217.465112 
" clip-path="url(#pc644791e61)" style="fill: none; stroke: #bb1f71; stroke-opacity: 0.25; stroke-width: 1.5; stroke-linecap: square"/>
   </g>
   <g id="line2d_59">
    <path d="M 241.907861 217.465112 
L 285.060025 207.924002 
" clip-path="url(#pc644791e61)" style="fill: none; stroke: #ff21a0; stroke-opacity: 0.25; stroke-width: 1.5; stroke-linecap: square"/>
   </g>
   <g id="line2d_60">
    <path d="M 285.060025 207.924002 
L 344.629481 117.63098 
" clip-path="url(#pc644791e61)" style="fill: none; stroke: #ffd6ef; stroke-opacity: 0.25; stroke-width: 1.5; stroke-linecap: square"/>
   </g>
   <g id="line2d_61">
    <path d="M 344.629481 117.63098 
L 159.027062 240.352596 
" clip-path="url(#pc644791e61)" style="fill: none; stroke: #ffd6ef; stroke-opacity: 0.25; stroke-width: 1.5; stroke-linecap: square"/>
   </g>
   <g id="line2d_62">
    <path d="M 136.506983 208.345747 
L 146.856012 200.997436 
" clip-path="url(#pc644791e61)" style="fill: none; stroke: #0b3340; stroke-opacity: 0.25; stroke-width: 1.5; stroke-linecap: square"/>
   </g>
   <g id="line2d_63">
    <path d="M 146.856012 200.997436 
L 210.447978 170.211293 
" clip-path="url(#pc644791e61)" style="fill: none; stroke: #56707b; stroke-opacity: 0.25; stroke-width: 1.5; stroke-linecap: square"/>
   </g>
   <g id="line2d_64">
    <path d="M 210.447978 170.211293 
L 221.783724 162.685798 
" clip-path="url(#pc644791e61)" style="fill: none; stroke: #627d89; stroke-opacity: 0.25; stroke-width: 1.5; stroke-linecap: square"/>
   </g>
   <g id="line2d_65">
    <path d="M 221.783724 162.685798 
L 252.06357 155.529841 
" clip-path="url(#pc644791e61)" style="fill: none; stroke: #899499; stroke-opacity: 0.25; stroke-width: 1.5; stroke-linecap: square"/>
   </g>
   <g id="line2d_66">
    <path d="M 252.06357 155.529841 
L 264.00601 147.973285 
" clip-path="url(#pc644791e61)" style="fill: none; stroke: #96a1a6; stroke-opacity: 0.25; stroke-width: 1.5; stroke-linecap: square"/>
   </g>
   <g id="line2d_67">
    <path d="M 264.00601 147.973285 
L 348.471979 116.41235 
" clip-path="url(#pc644791e61)" style="fill: none; stroke: #f9f1e0; stroke-opacity: 0.25; stroke-width: 1.5; stroke-linecap: square"/>
   </g>
   <g id="line2d_68">
    <path d="M 348.471979 116.41235 
L 354.877077 111.463626 
" clip-path="url(#pc644791e61)" style="fill: none; stroke: #fff9e8; stroke-opacity: 0.25; stroke-width: 1.5; stroke-linecap: square"/>
   </g>
   <g id="line2d_69">
    <path d="M 354.877077 111.463626 
L 136.506983 208.345747 
" clip-path="url(#pc644791e61)" style="fill: none; stroke: #fff9e8; stroke-opacity: 0.25; stroke-width: 1.5; stroke-linecap: square"/>
   </g>
   <g id="line2d_70">
    <path d="M 123.197291 241.969309 
L 175.651693 210.052198 
" clip-path="url(#pc644791e61)" style="fill: none; stroke: #3a3939; stroke-opacity: 0.25; stroke-width: 1.5; stroke-linecap: square"/>
   </g>
   <g id="line2d_71">
    <path d="M 175.651693 210.052198 
L 232.595004 175.392753 
" clip-path="url(#pc644791e61)" style="fill: none; stroke: #787878; stroke-opacity: 0.25; stroke-width: 1.5; stroke-linecap: square"/>
   </g>
   <g id="line2d_72">
    <path d="M 232.595004 175.392753 
L 293.140559 138.540747 
" clip-path="url(#pc644791e61)" style="fill: none; stroke: #bab9b9; stroke-opacity: 0.25; stroke-width: 1.5; stroke-linecap: square"/>
   </g>
   <g id="line2d_73">
    <path d="M 293.140559 138.540747 
L 357.095041 99.483934 
" clip-path="url(#pc644791e61)" style="fill: none; stroke: #ffffff; stroke-opacity: 0.25; stroke-width: 1.5; stroke-linecap: square"/>
   </g>
   <g id="line2d_74">
    <path d="M 357.095041 99.483934 
L 123.197291 241.969309 
" clip-path="url(#pc644791e61)" style="fill: none; stroke: #ffffff; stroke-opacity: 0.25; stroke-width: 1.5; stroke-linecap: square"/>
   </g>
   <g id="Path3DCollection_1">
    <defs>
     <path id="C0_0_ee14c6ec8f" d="M 0 2.236068 
C 0.593012 2.236068 1.161816 2.000462 1.581139 1.581139 
C 2.000462 1.161816 2.236068 0.593012 2.236068 -0 
C 2.236068 -0.593012 2.000462 -1.161816 1.581139 -1.581139 
C 1.161816 -2.000462 0.593012 -2.236068 0 -2.236068 
C -0.593012 -2.236068 -1.161816 -2.000462 -1.581139 -1.581139 
C -2.000462 -1.161816 -2.236068 -0.593012 -2.236068 0 
C -2.236068 0.593012 -2.000462 1.161816 -1.581139 1.581139 
C -1.161816 2.000462 -0.593012 2.236068 0 2.236068 
z
"/>
    </defs>
    <g clip-path="url(#pc644791e61)">
     <use xlink:href="#C0_0_ee14c6ec8f" x="210.167223" y="89.2636" style="fill: #00ffc0; stroke: #00ffc0"/>
    </g>
    <g clip-path="url(#pc644791e61)">
     <use xlink:href="#C0_0_ee14c6ec8f" x="181.614994" y="140.593827" style="fill: #00a87c; stroke: #00a87c"/>
    </g>
    <g clip-path="url(#pc644791e61)">
     <use xlink:href="#C0_0_ee14c6ec8f" x="154.011543" y="190.284355" style="fill: #00573c; stroke: #00573c"/>
    </g>
    <g clip-path="url(#pc644791e61)">
     <use xlink:href="#C0_0_ee14c6ec8f" x="141.795523" y="211.284386" style="fill: #003423; stroke: #003423"/>
    </g>
    <g clip-path="url(#pc644791e61)">
     <use xlink:href="#C0_0_ee14c6ec8f" x="315.200445" y="94.396104" style="fill: #b9fff2; stroke: #b9fff2"/>
    </g>
   </g>
   <g id="Path3DCollection_2">
    <defs>
     <path id="C1_0_737e63e9ea" d="M 0 2.236068 
C 0.593012 2.236068 1.161816 2.000462 1.581139 1.581139 
C 2.000462 1.161816 2.236068 0.593012 2.236068 -0 
C 2.236068 -0.593012 2.000462 -1.161816 1.581139 -1.581139 
C 1.161816 -2.000462 0.593012 -2.236068 0 -2.236068 
C -0.593012 -2.236068 -1.161816 -2.000462 -1.581139 -1.581139 
C -2.000462 -1.161816 -2.236068 -0.593012 -2.236068 0 
C -2.236068 0.593012 -2.000462 1.161816 -1.581139 1.581139 
C -1.161816 2.000462 -0.593012 2.236068 0 2.236068 
z
"/>
    </defs>
    <g clip-path="url(#pc644791e61)">
     <use xlink:href="#C1_0_737e63e9ea" x="206.006301" y="153.749614" style="fill: #00f02e; stroke: #00f02e"/>
    </g>
    <g clip-path="url(#pc644791e61)">
     <use xlink:href="#C1_0_737e63e9ea" x="178.520243" y="186.266951" style="fill: #009c16; stroke: #009c16"/>
    </g>
    <g clip-path="url(#pc644791e61)">
     <use xlink:href="#C1_0_737e63e9ea" x="152.277311" y="217.59386" style="fill: #005000; stroke: #005000"/>
    </g>
    <g clip-path="url(#pc644791e61)">
     <use xlink:href="#C1_0_737e63e9ea" x="140.729741" y="227.273262" style="fill: #002f00; stroke: #002f00"/>
    </g>
    <g clip-path="url(#pc644791e61)">
     <use xlink:href="#C1_0_737e63e9ea" x="331.946464" y="112.20339" style="fill: #d6ffd4; stroke: #d6ffd4"/>
    </g>
   </g>
   <g id="Path3DCollection_3">
    <defs>
     <path id="C2_0_7018c0c88e" d="M 0 2.236068 
C 0.593012 2.236068 1.161816 2.000462 1.581139 1.581139 
C 2.000462 1.161816 2.236068 0.593012 2.236068 -0 
C 2.236068 -0.593012 2.000462 -1.161816 1.581139 -1.581139 
C 1.161816 -2.000462 0.593012 -2.236068 0 -2.236068 
C -0.593012 -2.236068 -1.161816 -2.000462 -1.581139 -1.581139 
C -2.000462 -1.161816 -2.236068 -0.593012 -2.236068 0 
C -2.236068 0.593012 -2.000462 1.161816 -1.581139 1.581139 
C -1.161816 2.000462 -0.593012 2.236068 0 2.236068 
z
"/>
    </defs>
    <g clip-path="url(#pc644791e61)">
     <use xlink:href="#C2_0_7018c0c88e" x="198.014273" y="70.714496" style="fill: #00dcff; stroke: #00dcff"/>
    </g>
    <g clip-path="url(#pc644791e61)">
     <use xlink:href="#C2_0_7018c0c88e" x="172.173494" y="116.672048" style="fill: #008fc3; stroke: #008fc3"/>
    </g>
    <g clip-path="url(#pc644791e61)">
     <use xlink:href="#C2_0_7018c0c88e" x="147.910161" y="176.35954" style="fill: #004867; stroke: #004867"/>
    </g>
    <g clip-path="url(#pc644791e61)">
     <use xlink:href="#C2_0_7018c0c88e" x="320.030714" y="90.209353" style="fill: #c1feff; stroke: #c1feff"/>
    </g>
    <g clip-path="url(#pc644791e61)">
     <use xlink:href="#C2_0_7018c0c88e" x="137.982863" y="202.775854" style="fill: #002b3d; stroke: #002b3d"/>
    </g>
   </g>
   <g id="Path3DCollection_4">
    <defs>
     <path id="C3_0_75a1cf3f52" d="M 0 2.236068 
C 0.593012 2.236068 1.161816 2.000462 1.581139 1.581139 
C 2.000462 1.161816 2.236068 0.593012 2.236068 -0 
C 2.236068 -0.593012 2.000462 -1.161816 1.581139 -1.581139 
C 1.161816 -2.000462 0.593012 -2.236068 0 -2.236068 
C -0.593012 -2.236068 -1.161816 -2.000462 -1.581139 -1.581139 
C -2.000462 -1.161816 -2.236068 -0.593012 -2.236068 0 
C -2.236068 0.593012 -2.000462 1.161816 -1.581139 1.581139 
C -1.161816 2.000462 -0.593012 2.236068 0 2.236068 
z
"/>
    </defs>
    <g clip-path="url(#pc644791e61)">
     <use xlink:href="#C3_0_75a1cf3f52" x="335.513751" y="226.306486" style="fill: #ffc600; stroke: #ffc600"/>
    </g>
    <g clip-path="url(#pc644791e61)">
     <use xlink:href="#C3_0_75a1cf3f52" x="251.40649" y="234.582986" style="fill: #9c7200; stroke: #9c7200"/>
    </g>
    <g clip-path="url(#pc644791e61)">
     <use xlink:href="#C3_0_75a1cf3f52" x="186.242557" y="238.796976" style="fill: #4d3700; stroke: #4d3700"/>
    </g>
    <g clip-path="url(#pc644791e61)">
     <use xlink:href="#C3_0_75a1cf3f52" x="160.307098" y="240.251952" style="fill: #2d2000; stroke: #2d2000"/>
    </g>
    <g clip-path="url(#pc644791e61)">
     <use xlink:href="#C3_0_75a1cf3f52" x="351.536412" y="127.480632" style="fill: #fef3c7; stroke: #fef3c7"/>
    </g>
   </g>
   <g id="Path3DCollection_5">
    <defs>
     <path id="C4_0_ca7a10a141" d="M 0 2.236068 
C 0.593012 2.236068 1.161816 2.000462 1.581139 1.581139 
C 2.000462 1.161816 2.236068 0.593012 2.236068 -0 
C 2.236068 -0.593012 2.000462 -1.161816 1.581139 -1.581139 
C 1.161816 -2.000462 0.593012 -2.236068 0 -2.236068 
C -0.593012 -2.236068 -1.161816 -2.000462 -1.581139 -1.581139 
C -2.000462 -1.161816 -2.236068 -0.593012 -2.236068 0 
C -2.236068 0.593012 -2.000462 1.161816 -1.581139 1.581139 
C -1.161816 2.000462 -0.593012 2.236068 0 2.236068 
z
"/>
    </defs>
    <g clip-path="url(#pc644791e61)">
     <use xlink:href="#C4_0_ca7a10a141" x="136.506983" y="208.345747" style="fill: #002633; stroke: #002633"/>
    </g>
    <g clip-path="url(#pc644791e61)">
     <use xlink:href="#C4_0_ca7a10a141" x="146.856012" y="200.997436" style="fill: #0b3340; stroke: #0b3340"/>
    </g>
    <g clip-path="url(#pc644791e61)">
     <use xlink:href="#C4_0_ca7a10a141" x="210.447978" y="170.211293" style="fill: #56707b; stroke: #56707b"/>
    </g>
    <g clip-path="url(#pc644791e61)">
     <use xlink:href="#C4_0_ca7a10a141" x="221.783724" y="162.685798" style="fill: #627d89; stroke: #627d89"/>
    </g>
    <g clip-path="url(#pc644791e61)">
     <use xlink:href="#C4_0_ca7a10a141" x="252.06357" y="155.529841" style="fill: #899499; stroke: #899499"/>
    </g>
    <g clip-path="url(#pc644791e61)">
     <use xlink:href="#C4_0_ca7a10a141" x="264.00601" y="147.973285" style="fill: #96a1a6; stroke: #96a1a6"/>
    </g>
    <g clip-path="url(#pc644791e61)">
     <use xlink:href="#C4_0_ca7a10a141" x="354.877077" y="111.463626" style="fill: #fff9e8; stroke: #fff9e8"/>
    </g>
    <g clip-path="url(#pc644791e61)">
     <use xlink:href="#C4_0_ca7a10a141" x="348.471979" y="116.41235" style="fill: #f9f1e0; stroke: #f9f1e0"/>
    </g>
   </g>
   <g id="Path3DCollection_6">
    <defs>
     <path id="C5_0_d6e9848926" d="M 0 2.236068 
C 0.593012 2.236068 1.161816 2.000462 1.581139 1.581139 
C 2.000462 1.161816 2.236068 0.593012 2.236068 -0 
C 2.236068 -0.593012 2.000462 -1.161816 1.581139 -1.581139 
C 1.161816 -2.000462 0.593012 -2.236068 0 -2.236068 
C -0.593012 -2.236068 -1.161816 -2.000462 -1.581139 -1.581139 
C -2.000462 -1.161816 -2.236068 -0.593012 -2.236068 0 
C -2.236068 0.593012 -2.000462 1.161816 -1.581139 1.581139 
C -1.161816 2.000462 -0.593012 2.236068 0 2.236068 
z
"/>
    </defs>
    <g clip-path="url(#pc644791e61)">
     <use xlink:href="#C5_0_d6e9848926" x="123.197291" y="241.969309" style="stroke: #000000"/>
    </g>
    <g clip-path="url(#pc644791e61)">
     <use xlink:href="#C5_0_d6e9848926" x="175.651693" y="210.052198" style="fill: #3a3939; stroke: #3a3939"/>
    </g>
    <g clip-path="url(#pc644791e61)">
     <use xlink:href="#C5_0_d6e9848926" x="232.595004" y="175.392753" style="fill: #787878; stroke: #787878"/>
    </g>
    <g clip-path="url(#pc644791e61)">
     <use xlink:href="#C5_0_d6e9848926" x="293.140559" y="138.540747" style="fill: #bab9b9; stroke: #bab9b9"/>
    </g>
    <g clip-path="url(#pc644791e61)">
     <use xlink:href="#C5_0_d6e9848926" x="357.095041" y="99.483934" style="fill: #ffffff; stroke: #ffffff"/>
    </g>
   </g>
   <g id="Path3DCollection_7">
    <defs>
     <path id="C6_0_bfd63dc2cd" d="M 0 2.236068 
C 0.593012 2.236068 1.161816 2.000462 1.581139 1.581139 
C 2.000462 1.161816 2.236068 0.593012 2.236068 -0 
C 2.236068 -0.593012 2.000462 -1.161816 1.581139 -1.581139 
C 1.161816 -2.000462 0.593012 -2.236068 0 -2.236068 
C -0.593012 -2.236068 -1.161816 -2.000462 -1.581139 -1.581139 
C -2.000462 -1.161816 -2.236068 -0.593012 -2.236068 0 
C -2.236068 0.593012 -2.000462 1.161816 -1.581139 1.581139 
C -1.161816 2.000462 -0.593012 2.236068 0 2.236068 
z
"/>
    </defs>
    <g clip-path="url(#pc644791e61)">
     <use xlink:href="#C6_0_bfd63dc2cd" x="347.115225" y="127.710684" style="fill: #ffe0d2; stroke: #ffe0d2"/>
    </g>
    <g clip-path="url(#pc644791e61)">
     <use xlink:href="#C6_0_bfd63dc2cd" x="160.645221" y="251.570188" style="fill: #3f0600; stroke: #3f0600"/>
    </g>
    <g clip-path="url(#pc644791e61)">
     <use xlink:href="#C6_0_bfd63dc2cd" x="185.558534" y="257.92178" style="fill: #670a00; stroke: #670a00"/>
    </g>
    <g clip-path="url(#pc644791e61)">
     <use xlink:href="#C6_0_bfd63dc2cd" x="256.209452" y="240.614984" style="fill: #c13e28; stroke: #c13e28"/>
    </g>
    <g clip-path="url(#pc644791e61)">
     <use xlink:href="#C6_0_bfd63dc2cd" x="299.645255" y="241.109122" style="fill: #ff5034; stroke: #ff5034"/>
    </g>
   </g>
   <g id="Path3DCollection_8">
    <defs>
     <path id="C7_0_e37ae73665" d="M 0 2.236068 
C 0.593012 2.236068 1.161816 2.000462 1.581139 1.581139 
C 2.000462 1.161816 2.236068 0.593012 2.236068 -0 
C 2.236068 -0.593012 2.000462 -1.161816 1.581139 -1.581139 
C 1.161816 -2.000462 0.593012 -2.236068 0 -2.236068 
C -0.593012 -2.236068 -1.161816 -2.000462 -1.581139 -1.581139 
C -2.000462 -1.161816 -2.236068 -0.593012 -2.236068 0 
C -2.236068 0.593012 -2.000462 1.161816 -1.581139 1.581139 
C -1.161816 2.000462 -0.593012 2.236068 0 2.236068 
z
"/>
    </defs>
    <g clip-path="url(#pc644791e61)">
     <use xlink:href="#C7_0_e37ae73665" x="316.995156" y="99.601896" style="fill: #cce1ff; stroke: #cce1ff"/>
    </g>
    <g clip-path="url(#pc644791e61)">
     <use xlink:href="#C7_0_e37ae73665" x="143.250225" y="209.717247" style="fill: #181546; stroke: #181546"/>
    </g>
    <g clip-path="url(#pc644791e61)">
     <use xlink:href="#C7_0_e37ae73665" x="159.445226" y="188.392921" style="fill: #2c2475; stroke: #2c2475"/>
    </g>
    <g clip-path="url(#pc644791e61)">
     <use xlink:href="#C7_0_e37ae73665" x="208.689054" y="137.21481" style="fill: #6356db; stroke: #6356db"/>
    </g>
    <g clip-path="url(#pc644791e61)">
     <use xlink:href="#C7_0_e37ae73665" x="233.434075" y="119.893549" style="fill: #816bff; stroke: #816bff"/>
    </g>
   </g>
   <g id="Path3DCollection_9">
    <defs>
     <path id="C8_0_10bbb3cbfb" d="M 0 2.236068 
C 0.593012 2.236068 1.161816 2.000462 1.581139 1.581139 
C 2.000462 1.161816 2.236068 0.593012 2.236068 -0 
C 2.236068 -0.593012 2.000462 -1.161816 1.581139 -1.581139 
C 1.161816 -2.000462 0.593012 -2.236068 0 -2.236068 
C -0.593012 -2.236068 -1.161816 -2.000462 -1.581139 -1.581139 
C -2.000462 -1.161816 -2.236068 -0.593012 -2.236068 0 
C -2.236068 0.593012 -2.000462 1.161816 -1.581139 1.581139 
C -1.161816 2.000462 -0.593012 2.236068 0 2.236068 
z
"/>
    </defs>
    <g clip-path="url(#pc644791e61)">
     <use xlink:href="#C8_0_10bbb3cbfb" x="344.629481" y="117.63098" style="fill: #ffd6ef; stroke: #ffd6ef"/>
    </g>
    <g clip-path="url(#pc644791e61)">
     <use xlink:href="#C8_0_10bbb3cbfb" x="159.027062" y="240.352596" style="fill: #40001f; stroke: #40001f"/>
    </g>
    <g clip-path="url(#pc644791e61)">
     <use xlink:href="#C8_0_10bbb3cbfb" x="182.939906" y="237.973286" style="fill: #6a0037; stroke: #6a0037"/>
    </g>
    <g clip-path="url(#pc644791e61)">
     <use xlink:href="#C8_0_10bbb3cbfb" x="241.907861" y="217.465112" style="fill: #bb1f71; stroke: #bb1f71"/>
    </g>
    <g clip-path="url(#pc644791e61)">
     <use xlink:href="#C8_0_10bbb3cbfb" x="285.060025" y="207.924002" style="fill: #ff21a0; stroke: #ff21a0"/>
    </g>
   </g>
   <g id="Path3DCollection_10">
    <defs>
     <path id="C9_0_3646a432d3" d="M 0 2.236068 
C 0.593012 2.236068 1.161816 2.000462 1.581139 1.581139 
C 2.000462 1.161816 2.236068 0.593012 2.236068 -0 
C 2.236068 -0.593012 2.000462 -1.161816 1.581139 -1.581139 
C 1.161816 -2.000462 0.593012 -2.236068 0 -2.236068 
C -0.593012 -2.236068 -1.161816 -2.000462 -1.581139 -1.581139 
C -2.000462 -1.161816 -2.236068 -0.593012 -2.236068 0 
C -2.236068 0.593012 -2.000462 1.161816 -1.581139 1.581139 
C -1.161816 2.000462 -0.593012 2.236068 0 2.236068 
z
"/>
    </defs>
    <g clip-path="url(#pc644791e61)">
     <use xlink:href="#C9_0_3646a432d3" x="346.342332" y="109.123972" style="fill: #ffdbff; stroke: #ffdbff"/>
    </g>
    <g clip-path="url(#pc644791e61)">
     <use xlink:href="#C9_0_3646a432d3" x="152.097461" y="226.916219" style="fill: #35003a; stroke: #35003a"/>
    </g>
    <g clip-path="url(#pc644791e61)">
     <use xlink:href="#C9_0_3646a432d3" x="172.228972" y="216.317069" style="fill: #590061; stroke: #590061"/>
    </g>
    <g clip-path="url(#pc644791e61)">
     <use xlink:href="#C9_0_3646a432d3" x="226.89487" y="186.598902" style="fill: #aa12b7; stroke: #aa12b7"/>
    </g>
    <g clip-path="url(#pc644791e61)">
     <use xlink:href="#C9_0_3646a432d3" x="277.551983" y="156.021628" style="fill: #e43af4; stroke: #e43af4"/>
    </g>
   </g>
  </g>
 </g>
 <defs>
  <clipPath id="pc644791e61">
   <rect x="103.104" y="41.472" width="266.112" height="266.112"/>
  </clipPath>
 </defs>
</svg>
